<?xml version="1.0" encoding="utf-8"?>
<!-- Generator: Adobe Illustrator 16.2.1, SVG Export Plug-In . SVG Version: 6.00 Build 0)  -->
<!DOCTYPE svg PUBLIC "-//W3C//DTD SVG 1.1//EN" "http://www.w3.org/Graphics/SVG/1.1/DTD/svg11.dtd">
<svg version="1.1" id="Layer_1" xmlns="http://www.w3.org/2000/svg" xmlns:xlink="http://www.w3.org/1999/xlink" x="0px" y="0px"
	 width="1000px" height="1000px" viewBox="0 0 1000 1000" enable-background="new 0 0 1000 1000" xml:space="preserve">
<path fill-rule="evenodd" clip-rule="evenodd" d="M119.083,569.693V464.497H72.288c-23.319,0-41.859,16.423-41.859,37.999
	c0,21.559,18.998,37.981,42.331,37.981h23.006v29.216H72.66C32.532,569.693,0,539.605,0,502.496
	c0-37.127,32.532-67.211,72.66-67.211h75.42v134.408H119.083z M244.147,430.236c-38.525,0-69.758,26.506-69.758,66.69v72.763h28.369
	v-74.381c0-25.887,22.117-40.818,41.389-40.818c19.255,0,40.988,14.932,40.988,40.818l-0.015,74.381h28.783v-72.763
	C313.904,456.742,282.675,430.236,244.147,430.236z M471.014,501.65c0-38.742-25.579-66.365-64.106-66.365h-63.947v29.212h65.493
	c24.821,0,35.076,17.386,35.076,36.751c0,19.361-10.641,39.229-35.462,39.229l-65.493-0.015v28.929h63.949
	C445.037,569.392,471.014,540.381,471.014,501.65z M1000,501.65c0-38.742-25.592-66.365-64.121-66.365h-63.935v29.212h65.493
	c24.823,0,35.062,17.386,35.062,36.751c0,19.361-10.626,39.229-35.457,39.229l-65.485-0.015v28.929h63.935
	C974.021,569.392,1000,540.381,1000,501.65z M603.657,524.301c12.363-6.738,18.508-19.104,18.508-40.274
	c0-37.254-19.79-48.741-58.319-48.741h-63.933v29.212h65.491c24.823,0,29.26,7.911,29.26,19.13c0,11.215-3.594,20.827-28.418,20.827
	l-65.489-0.011l-0.042,26.848h63.943c0.611,0,1.208-0.008,1.805-0.015c12.699,1.379,22.594,12.165,22.594,25.267
	c0,4.206,0.746,8.169-1.059,11.663c0.015,0.484,1.76,0.984,1.76,1.487h26.404C616.162,569.693,620.957,541.066,603.657,524.301z
	 M714.987,431.378c36.643,0,66.343,30.979,66.343,69.184c0,38.224-29.7,69.202-66.343,69.202c-36.636,0-66.336-30.979-66.336-69.202
	C648.651,462.357,678.352,431.378,714.987,431.378z M714.987,541.991c21.938,0,39.715-18.537,39.715-41.43
	c0-22.87-17.777-41.426-39.715-41.426c-21.931,0-39.708,18.556-39.708,41.426C675.279,523.454,693.057,541.991,714.987,541.991z
	 M813.715,569.693h29.073V435.285h-29.073V569.693z"/>
</svg>
