<?xml version="1.0" encoding="utf-8"?>
<!-- Generator: Adobe Illustrator 16.2.1, SVG Export Plug-In . SVG Version: 6.00 Build 0)  -->
<!DOCTYPE svg PUBLIC "-//W3C//DTD SVG 1.1//EN" "http://www.w3.org/Graphics/SVG/1.1/DTD/svg11.dtd">
<svg version="1.1" id="Layer_1" xmlns="http://www.w3.org/2000/svg" xmlns:xlink="http://www.w3.org/1999/xlink" x="0px" y="0px"
	 width="1000px" height="1000px" viewBox="0 0 1000 1000" enable-background="new 0 0 1000 1000" xml:space="preserve">
<path d="M644.137,66.867l34.882-52.321c2.965-4.447,1.758-10.456-2.684-13.421c-4.448-2.964-10.456-1.763-13.423,2.684
	l-36.77,55.152C587.997,43.6,545.205,34.987,500,34.987c-45.208,0-88,8.614-126.149,23.975L337.085,3.808
	c-2.964-4.443-8.972-5.647-13.423-2.684c-4.448,2.968-5.646,8.977-2.684,13.426l34.882,52.32
	c-87.339,41.71-146.182,120.153-146.182,210.051h580.643C790.321,187.021,731.479,108.577,644.137,66.867z M383.872,199.502
	c-16.035,0-29.032-12.998-29.032-29.032s12.998-29.032,29.032-29.032s29.032,12.998,29.032,29.032S399.906,199.502,383.872,199.502z
	 M616.129,199.502c-16.035,0-29.032-12.998-29.032-29.032s12.997-29.032,29.032-29.032c16.034,0,29.031,12.998,29.031,29.032
	S632.163,199.502,616.129,199.502z M209.679,741.436c0,44.54,36.107,80.645,80.645,80.645h41.935v119.354
	c0,32.062,25.996,58.064,58.064,58.064s58.064-26.002,58.064-58.064V822.08h103.225v119.354c0,32.062,25.995,58.064,58.064,58.064
	c32.062,0,58.064-26.002,58.064-58.064V822.08h41.936c44.54,0,80.645-36.104,80.645-80.645v-445.16H209.679V741.436z
	 M132.257,315.629c-32.062,0-58.061,25.999-58.061,58.063v248.386c0,32.068,25.999,58.066,58.061,58.066
	c32.072,0,58.07-25.998,58.07-58.066V373.692C190.327,341.628,164.329,315.629,132.257,315.629z M867.74,315.631
	c-32.069,0-58.064,25.997-58.064,58.065v248.385c0,32.068,25.995,58.063,58.064,58.063c32.062,0,58.064-25.995,58.064-58.063
	V373.696C925.805,341.628,899.803,315.631,867.74,315.631z"/>
</svg>
