<?xml version="1.0" encoding="utf-8"?>
<!-- Generator: Adobe Illustrator 16.2.1, SVG Export Plug-In . SVG Version: 6.00 Build 0)  -->
<!DOCTYPE svg PUBLIC "-//W3C//DTD SVG 1.1//EN" "http://www.w3.org/Graphics/SVG/1.1/DTD/svg11.dtd">
<svg version="1.1" id="Layer_1" xmlns="http://www.w3.org/2000/svg" xmlns:xlink="http://www.w3.org/1999/xlink" x="0px" y="0px"
	 width="1000px" height="1000px" viewBox="0 0 1000 1000" enable-background="new 0 0 1000 1000" xml:space="preserve">
<path fill-rule="evenodd" clip-rule="evenodd" d="M119.083,965.105V859.909H72.288c-23.319,0-41.859,16.423-41.859,37.999
	c0,21.559,18.998,37.981,42.331,37.981h23.006v29.216H72.66C32.532,965.105,0,935.018,0,897.908
	c0-37.127,32.532-67.211,72.66-67.211h75.42v134.408H119.083z M244.147,825.648c-38.525,0-69.758,26.506-69.758,66.69v72.763h28.369
	v-74.381c0-25.887,22.117-40.818,41.389-40.818c19.255,0,40.988,14.932,40.988,40.818l-0.015,74.381h28.783v-72.763
	C313.904,852.154,282.675,825.648,244.147,825.648z M471.014,897.062c0-38.742-25.579-66.365-64.106-66.365h-63.947v29.212h65.493
	c24.821,0,35.076,17.386,35.076,36.751c0,19.361-10.641,39.229-35.462,39.229l-65.493-0.015v28.929h63.949
	C445.037,964.804,471.014,935.793,471.014,897.062z M1000,897.062c0-38.742-25.592-66.365-64.121-66.365h-63.935v29.212h65.493
	c24.823,0,35.062,17.386,35.062,36.751c0,19.361-10.626,39.229-35.457,39.229l-65.485-0.015v28.929h63.935
	C974.021,964.804,1000,935.793,1000,897.062z M603.657,919.713c12.363-6.738,18.508-19.104,18.508-40.274
	c0-37.254-19.79-48.741-58.319-48.741h-63.933v29.212h65.491c24.823,0,29.26,7.911,29.26,19.13c0,11.215-3.594,20.827-28.418,20.827
	l-65.489-0.011l-0.042,26.848h63.943c0.611,0,1.208-0.008,1.805-0.015c12.699,1.379,22.594,12.165,22.594,25.267
	c0,4.206,0.746,8.169-1.059,11.663c0.015,0.484,1.76,0.984,1.76,1.487h26.404C616.162,965.105,620.957,936.479,603.657,919.713z
	 M714.987,826.79c36.643,0,66.343,30.979,66.343,69.184c0,38.224-29.7,69.202-66.343,69.202c-36.636,0-66.336-30.979-66.336-69.202
	C648.651,857.77,678.352,826.79,714.987,826.79z M714.987,937.403c21.938,0,39.715-18.537,39.715-41.43
	c0-22.87-17.777-41.426-39.715-41.426c-21.931,0-39.708,18.556-39.708,41.426C675.279,918.866,693.057,937.403,714.987,937.403z
	 M813.715,965.105h29.073V830.697h-29.073V965.105z M795.982,293.226v166.325c0,23.507-18.762,42.563-41.907,42.563
	c-23.139,0-41.907-19.056-41.907-42.563V293.226c0-23.506,18.769-42.562,41.907-42.562
	C777.221,250.665,795.982,269.72,795.982,293.226z M290.504,293.226v166.325c0,23.507-18.763,42.563-41.907,42.563
	c-23.145,0-41.907-19.056-41.907-42.563V293.226c0-23.506,18.763-42.562,41.907-42.562
	C271.741,250.665,290.504,269.72,290.504,293.226z M315.723,251.953v303.876c0,18.05,14.632,32.68,32.681,32.68h37.336v92.538
	c0,23.508,18.764,42.563,41.907,42.563c23.146,0,41.909-19.056,41.909-42.563v-92.538h65.223v92.538
	c0,23.508,18.769,42.563,41.907,42.563c23.146,0,41.914-19.056,41.914-42.563v-92.538h37.329c18.053,0,32.683-14.63,32.683-32.68
	V251.953H315.723z M687.784,224.874H314.892c4.888-56.5,43.294-104.908,98.059-130.384l-34.446-50.003
	c-2.045-2.97-1.538-6.871,1.135-8.713c2.673-1.84,6.499-0.927,8.543,2.045l35.781,51.94c23.578-9.29,49.776-14.466,77.373-14.466
	c27.596,0,53.799,5.177,77.378,14.466l35.777-51.94c2.043-2.972,5.868-3.885,8.545-2.045c2.67,1.842,3.177,5.743,1.134,8.713
	L589.729,94.49C644.49,119.966,682.893,168.374,687.784,224.874z M443.309,152.662c0-11.394-9.235-20.631-20.631-20.631
	c-11.394,0-20.631,9.237-20.631,20.631c0,11.396,9.237,20.631,20.631,20.631C434.073,173.293,443.309,164.058,443.309,152.662z
	 M603.21,152.662c0-11.394-9.239-20.631-20.633-20.631c-11.395,0-20.633,9.237-20.633,20.631c0,11.396,9.238,20.631,20.633,20.631
	C593.971,173.293,603.21,164.058,603.21,152.662z"/>
</svg>
