<?xml version="1.0" encoding="utf-8"?>
<!-- Generator: Adobe Illustrator 16.2.1, SVG Export Plug-In . SVG Version: 6.00 Build 0)  -->
<!DOCTYPE svg PUBLIC "-//W3C//DTD SVG 1.1//EN" "http://www.w3.org/Graphics/SVG/1.1/DTD/svg11.dtd">
<svg version="1.1" id="Layer_1" xmlns="http://www.w3.org/2000/svg" xmlns:xlink="http://www.w3.org/1999/xlink" x="0px" y="0px"
	 width="1000px" height="1000px" viewBox="0 0 1000 1000" enable-background="new 0 0 1000 1000" xml:space="preserve">
<path fill="#010101" d="M51.271,394.929C20.192,409.578,0,452.535,0,504.004c0,19.003,0.594,24.349,4.158,31.87
	c5.74,12.67,15.242,19.401,31.278,22.172c21.181,3.562,42.56-2.573,59.979-17.42c7.919-6.929,8.117-6.929,9.305-2.572
	c1.98,6.135,6.731,11.283,13.858,15.043c8.115,4.158,27.714,3.959,37.214-0.396c16.827-8.116,29.497-28.705,34.05-55.032
	c0.989-6.533,1.98-7.72,8.511-9.501c3.959-0.991,7.919-1.98,8.512-1.98c1.386,0,0.596,4.751-7.125,40.978l-5.543,25.932
	l-12.076,4.553c-13.46,4.753-24.745,14.649-25.139,21.975c-0.991,15.638,1.384,21.775,10.688,27.317
	c10.69,6.533,31.079,3.96,41.175-5.146c2.772-2.575,3.565-2.575,5.741,0.196c7.126,8.711,25.338,11.682,38.205,6.137
	c12.867-5.344,22.172-20.983,26.329-44.145c0.594-2.969,1.979-9.502,2.969-14.451c1.188-4.948,5.938-27.91,10.887-51.072
	c4.752-23.359,9.107-42.957,9.701-43.75c0.396-0.989,5.146-1.386,10.294-1.188c5.345,0.198,10.095-0.593,10.887-1.782
	c3.563-5.147,1.387-6.928-9.106-7.523l-10.689-0.593l3.563-13.658c3.366-13.463,8.711-20.985,14.847-20.985
	c4.354,0,9.304,6.138,8.314,10.096c-0.792,2.969,0.197,3.762,4.75,3.762c5.741,0,6.138-0.396,6.335-8.513
	c0.198-13.263-12.274-25.141-26.328-25.141c-8.513,0.2-20.785,4.356-25.734,8.909c-3.563,3.366-4.156,3.167-9.898-1.583
	c-16.431-13.856-42.561-6.533-53.646,14.847c-1.979,3.959-6.138,19.399-9.106,34.445c-5.542,26.725-5.542,27.12-11.878,29.892
	c-6.929,2.771-14.647,3.364-14.055,0.989c1.188-3.958-2.969-19.399-6.334-24.15c-5.542-7.72-13.857-10.69-27.517-9.305
	c-13.856,1.187-21.774,4.949-31.871,15.441c-10.491,10.887-17.42,25.536-21.576,45.926c-2.574,13.264-4.356,17.816-8.116,20.785
	c-9.305,7.127-18.214,10.69-29.694,11.283c-9.502,0.595-12.669,0-18.212-3.562c-9.502-6.532-12.075-16.036-10.889-38.999
	c2.574-45.53,22.568-88.882,43.155-93.633c6.533-1.585,13.065,2.969,14.649,10.095c1.189,5.741-3.167,18.807-6.929,21.181
	c-4.157,2.574,2.376,6.929,9.898,6.929c11.481,0,16.431-7.325,15.441-22.369c-0.595-8.907-1.98-12.472-6.334-17.025
	C95.812,387.605,70.671,385.625,51.271,394.929z M272.787,410.172c3.759,1.384,3.958,7.918,0.989,23.16l-2.376,11.284h-10.69
	h-10.888l1.386-5.542c2.177-8.116,2.573-10.887,2.772-14.847c0.197-3.958,10.491-15.243,13.658-15.243
	C268.827,408.983,271.004,409.578,272.787,410.172z M267.442,455.9c0.396,1.188-0.594,9.304-2.376,17.816
	c-1.783,8.511-3.763,17.222-4.156,19.598c-3.365,17.421-10.294,48.499-10.887,49.094c-0.397,0.594-4.752,1.384-9.701,2.177
	c-4.752,0.792-9.502,1.782-10.491,2.376c-0.792,0.396-1.19-1.189-0.594-3.762c0.594-2.376,3.364-15.639,6.136-29.298
	c2.772-13.66,6.533-30.287,8.115-37.019c1.387-6.729,2.772-14.053,2.772-16.231c0-2.178,1.387-4.751,3.167-5.741
	C253.781,452.535,266.648,453.326,267.442,455.9z M171.233,461.641c1.385,3.96,1.188,6.138-0.991,8.513
	c-5.146,5.543-5.938,13.856-1.979,18.212c3.167,3.562,3.167,4.751,0.792,14.253c-2.971,12.274-7.919,22.368-13.858,28.507
	c-4.949,5.541-14.847,6.136-17.42,0.988c-4.949-9.897-0.593-37.415,9.106-57.407C155.199,457.484,167.077,451.148,171.233,461.641z
	 M248.239,551.91c-0.197,1.387-1.385,8.313-2.772,15.242c-4.354,19.597-12.471,27.516-22.765,22.17
	c-3.76-2.177-3.76-2.77-1.188-10.095c1.583-4.354,2.772-8.511,2.772-8.907c-0.198-0.595,0.395-4.553,1.187-8.909
	c0.989-5.938,2.376-8.114,5.542-8.907c2.376-0.396,6.138-1.188,8.316-1.584C246.655,549.337,248.239,549.533,248.239,551.91z
	 M544.186,392.356c-10.095,3.562-21.775,13.065-25.932,20.983c-4.355,8.313-3.959,23.16,0.791,32.465
	c2.178,4.158,10.49,14.847,18.409,23.556c7.721,8.71,16.035,19.796,18.212,24.745c5.346,12.074,5.346,27.121-0.396,36.227
	c-8.907,14.451-31.672,15.045-38.996,1.188c-6.928-13.659,1.188-27.913,17.618-30.289c4.949-0.593,5.938-2.573,3.365-7.126
	c-3.365-6.334-12.67-9.501-22.172-7.918c-20.785,3.959-32.069,23.952-26.327,46.322c4.751,18.211,20.981,27.516,46.916,27.12
	c39.195-0.595,63.147-24.149,60.574-59.783c-1.387-17.223-6.336-25.736-27.317-46.323c-8.909-8.709-17.42-18.212-19.003-21.182
	c-5.346-10.294-2.576-25.14,5.342-29.496c6.732-3.563,19.006-2.969,23.559,1.188c5.742,5.147,5.346,17.025-0.99,24.547
	c-4.949,5.741-4.949,5.939-1.188,7.918c12.273,6.731,25.933-4.553,25.933-20.983c0-9.304-5.741-17.816-15.044-22.17
	C577.245,388.396,556.46,388,544.186,392.356z M805.292,399.085c-2.179,0.792-5.545,4.751-7.523,8.711
	c-2.97,6.136-2.97,7.72-0.396,13.856c4.949,11.68,18.411,14.847,27.715,6.534C840.527,414.725,824.492,391.366,805.292,399.085z
	 M974.347,411.557c-13.065,1.783-13.065,1.783-14.647,9.106c-0.794,3.96-1.586,7.523-1.783,8.116c0,0.595-0.792,4.356-1.583,8.314
	c-1.189,5.543-2.573,7.522-5.147,7.522c-2.375,0-3.96,1.782-4.751,5.147c-0.593,3.563-0.198,4.751,1.78,3.96
	c1.387-0.594,2.971-0.396,3.565,0.395c0.395,0.792-2.771,17.025-6.928,36.029c-8.315,38.206-8.909,44.54-5.148,54.042
	c3.562,8.117,7.325,11.284,15.836,12.67c9.502,1.387,19.995-3.958,23.954-12.273c4.156-8.512,4.156-8.512-2.178-9.304
	c-4.356-0.396-5.74-1.78-6.137-5.939c-0.593-4.75,12.273-71.265,14.45-74.828c0.396-0.791,3.563-1.188,6.929-0.989
	c3.166,0.198,5.938-0.396,5.938-1.188c0-0.792,0.595-2.772,1.188-4.553c0.989-2.574-0.196-3.168-5.74-3.168h-6.927l3.759-16.429
	c1.979-8.909,3.763-16.827,3.763-17.619C994.539,409.182,993.352,409.182,974.347,411.557z M866.46,436.301
	c-11.285,0.396-14.451,1.189-15.243,3.96c-0.791,2.574-7.719,34.445-16.034,74.037c-2.772,13.461-15.44,23.556-24.151,19.597
	c-5.939-2.77-5.939-3.76,5.148-55.229l7.323-34.05h-16.034h-16.232l-5.346,24.152c-13.857,64.733-14.251,67.702-6.333,79.776
	c6.136,9.502,25.139,10.295,40.382,1.98c4.553-2.573,8.315-4.157,8.315-3.365s-3.167,15.243-6.732,32.068
	c-3.76,16.827-6.532,30.881-6.136,31.277c0.397,0.593,14.65-2.376,26.921-5.543c6.336-1.782,7.325-2.97,8.515-9.7
	c0.594-4.354,2.969-15.838,5.344-25.536l3.958-17.815l6.732,2.771c14.649,6.138,36.028,0,47.312-13.262
	c20.983-24.745,25.933-81.956,8.312-93.437c-7.322-4.752-19.003-5.345-30.483-1.585l-10.294,3.565l1.186-6.336
	c0.596-3.562,0.398-6.731-0.593-7.127C881.506,436.104,874.378,435.906,866.46,436.301z M901.301,466.984
	c2.375,6.138,0.99,27.714-2.772,40.187c-4.354,14.847-9.896,23.754-17.618,27.319c-15.441,7.323-17.815,3.563-12.669-20.589
	c2.177-10.294,4.356-21.578,4.751-24.745c2.97-17.618,7.918-26.327,16.629-29.1C893.777,458.671,899.52,462.037,901.301,466.984z
	 M354.542,445.408c-16.232,5.938-28.11,19.598-36.225,41.967c-9.305,25.537-8.315,48.896,2.77,60.773
	c14.057,15.046,46.72,10.887,67.899-8.71c4.555-4.157,8.712-7.721,9.108-7.721c0.197,0,0.593,1.783,0.593,3.96
	c0,1.979,3.365,7.324,7.521,11.68c6.138,6.532,8.909,7.918,18.409,9.105c19.796,2.376,34.643-4.553,41.572-19.599
	c5.545-12.074,4.752-13.857-3.562-8.312c-18.807,12.271-32.267,7.719-32.267-10.69c0-5.146,0.989-5.939,8.511-7.918
	c24.944-6.137,39.988-21.183,42.561-42.165c1.782-16.036-7.325-25.141-24.745-25.141c-30.483,0.396-52.855,25.932-58.99,67.702
	c-2.177,14.647-19.003,27.318-36.227,27.318c-11.284,0-16.232-5.147-16.232-16.827c0-8.114,0.396-8.908,5.542-10.095
	c20.389-4.556,34.247-14.254,41.175-29.299c7.523-16.232,5.543-30.288-5.344-36.028C379.684,442.043,364.44,442.043,354.542,445.408
	z M375.725,455.703c7.322,2.771,0.989,26.525-9.305,35.038c-5.542,4.356-17.025,10.097-18.212,8.909
	c-3.167-3.167,11.284-35.633,18.409-41.175C372.16,453.921,371.566,454.118,375.725,455.703z M463.023,465.798
	c-0.198,12.669-7.721,24.349-19.599,30.287c-10.689,4.949-11.085,4.949-9.898-1.188c2.376-12.868,15.243-36.623,20.985-38.998
	C461.043,453.128,463.023,455.504,463.023,465.798z M649.103,444.417c-19.795,6.336-35.236,26.725-41.768,54.835
	c-5.939,26.33-0.99,47.907,12.867,54.241c18.409,8.314,46.32,1.584,62.554-15.243l5.346-5.542l-1.189,7.918
	c-0.791,4.354-1.78,9.502-2.375,11.284c-0.988,3.167,0.595,3.562,15.639,3.562h16.629l7.324-36.226
	c9.502-46.323,10.293-48.5,17.816-53.054c3.364-1.98,6.729-3.76,7.522-3.76c0.594,0,2.969,3.365,4.948,7.324
	c3.168,6.731,4.356,7.522,10.491,7.125c19.004-0.791,18.214-32.267-0.593-32.267c-5.741,0-15.64,3.96-22.369,8.909
	c-3.958,2.969-3.958,2.771-3.168-2.969l0.792-5.939h-15.836c-13.46,0-16.036,0.594-17.025,3.367
	c-0.594,1.98-3.96,17.816-7.522,35.236c-5.739,28.307-7.126,32.466-12.668,38.601c-13.066,14.451-35.832,20.391-44.343,11.878
	c-10.294-10.294,0.989-60.377,16.629-75.224c7.918-7.325,12.271-3.563,11.678,9.7c-0.196,5.543,0.2,10.096,0.989,10.294
	c0.793,0,2.971,0.395,4.753,0.792c6.136,1.188,12.074-5.542,12.471-13.856c0.594-10.294-2.177-16.036-9.898-19.796
	C672.264,442.637,656.428,441.845,649.103,444.417z"/>
</svg>
