<?xml version="1.0" encoding="utf-8"?>
<!-- Generator: Adobe Illustrator 16.2.1, SVG Export Plug-In . SVG Version: 6.00 Build 0)  -->
<!DOCTYPE svg PUBLIC "-//W3C//DTD SVG 1.1//EN" "http://www.w3.org/Graphics/SVG/1.1/DTD/svg11.dtd">
<svg version="1.1" id="Layer_1" xmlns="http://www.w3.org/2000/svg" xmlns:xlink="http://www.w3.org/1999/xlink" x="0px" y="0px"
	 width="1000px" height="1000px" viewBox="0 0 1000 1000" enable-background="new 0 0 1000 1000" xml:space="preserve">
<path fill="#010101" d="M537.643,121.133c-18.969,4.738-46.073,15.583-60.302,23.716c-14.905,8.128-39.296,22.355-55.558,31.84
	c-37.945,21.686-102.314,27.784-118.575,11.523c-14.907-14.91-14.229-21.687,2.71-31.171c9.487-4.742,29.134-6.099,54.206-3.386
	c32.522,4.064,39.975,2.708,39.975-5.421c0-12.197-34.557-24.394-58.948-20.325c-54.206,8.128-62.334,10.841-69.111,18.969
	c-16.261,19.647-14.229,39.299,6.099,58.272c44.719,42.007,122.639,41.329,212.753-2.712
	c75.209-36.586,111.118-46.749,160.584-46.076c44.041,0,67.078,9.489,67.078,27.78c0,28.458-86.726,39.303-114.506,13.553
	c-14.231-12.875-15.588-13.553-31.171-3.391c-20.329,12.875-21.003,18.974-4.746,32.526c16.266,14.905,35.917,19.647,78.598,20.326
	c72.504,1.356,126.029-24.389,126.029-61.659C772.758,125.871,650.797,91.997,537.643,121.133z M91.809,182.791
	c-49.462,25.746-56.917,50.818-23.716,78.594c27.102,23.042,77.919,41.333,162.616,58.272
	c100.277,19.647,153.807,23.716,308.291,23.037c192.426-0.678,331.325-22.359,416.021-64.371
	c52.175-26.424,57.595-63.688,12.876-90.112c-19.647-11.523-20.33-11.523-16.262,1.356c6.099,19.647-1.352,33.878-26.424,49.457
	c-24.394,14.91-106.378,37.947-157.195,44.045c-18.296,2.03-39.978,5.416-49.462,7.45c-35.908,8.812-321.843,7.455-389.598-1.356
	c-113.154-14.905-191.076-39.972-213.434-69.109c-12.873-15.583-12.873-18.295-3.388-33.2
	C124.329,168.56,119.588,167.882,91.809,182.791z M57.252,331.854c2.034,15.583,10.163,51.491,18.295,79.276l14.905,50.813
	l-34.554,37.269c-74.531,81.984-74.531,187.01,0,251.376c44.041,37.266,117.894,45.398,165.326,18.296
	c11.514-6.776,10.841-7.459-6.099-8.133c-36.591,0-93.505-39.294-120.609-81.306c-14.229-21.686-25.068-71.821-21.68-97.571
	c3.389-22.359,27.102-71.821,34.552-71.821c2.715,0,11.521,14.91,19.654,32.522c8.807,18.296,38.619,66.4,67.755,107.056
	c46.751,65.723,82.662,133.48,83.34,156.518c0,16.939,52.847,50.14,103.665,66.4c44.719,14.228,65.725,16.939,141.617,16.939
	c163.968,0,240.531-35.234,264.921-121.961c6.099-20.325,24.394-55.56,40.655-77.919c83.345-115.185,99.601-142.965,128.737-223.597
	c9.484-26.424,21.682-69.113,28.458-94.859c6.099-26.424,12.192-51.496,13.549-55.565c2.034-4.737-8.128-1.352-22.355,8.133
	c-36.591,24.394-94.858,43.363-168.036,54.886c-13.553,2.03-31.171,5.416-39.299,6.772c-65.049,12.875-333.362,18.295-427.543,7.454
	c-134.836-14.904-236.469-42.689-273.736-75.207l-15.585-14.231L57.252,331.854z"/>
</svg>
