<?xml version="1.0" encoding="utf-8"?>
<!-- Generator: Adobe Illustrator 16.2.1, SVG Export Plug-In . SVG Version: 6.00 Build 0)  -->
<!DOCTYPE svg PUBLIC "-//W3C//DTD SVG 1.1//EN" "http://www.w3.org/Graphics/SVG/1.1/DTD/svg11.dtd">
<svg version="1.1" id="Layer_1" xmlns="http://www.w3.org/2000/svg" xmlns:xlink="http://www.w3.org/1999/xlink" x="0px" y="0px"
	 width="1000px" height="1000px" viewBox="0 0 1000 1000" enable-background="new 0 0 1000 1000" xml:space="preserve">
<path fill="#010101" d="M115.366,417.235c-4.07,1.017-9.886,3.344-12.939,5.089c-3.198,1.744-8.432,4.797-11.921,6.833
	c-8.142,4.653-21.954,5.961-25.443,2.472c-3.199-3.199-3.053-4.653,0.582-6.688c2.036-1.017,6.251-1.308,11.631-0.727
	c6.979,0.872,8.578,0.581,8.578-1.163c0-2.617-7.415-5.234-12.649-4.361c-11.631,1.744-13.375,2.326-14.83,4.07
	c-3.489,4.216-3.053,8.433,1.309,12.504c9.596,9.014,26.315,8.869,45.652-0.582c16.139-7.851,23.844-10.032,34.458-9.887
	c9.451,0,14.394,2.036,14.394,5.961c0,6.106-18.609,8.433-24.571,2.908c-3.053-2.762-3.344-2.908-6.688-0.727
	c-4.362,2.762-4.507,4.071-1.018,6.979c3.49,3.198,7.706,4.216,16.865,4.362c15.557,0.291,27.043-5.234,27.043-13.23
	C165.816,418.252,139.646,410.983,115.366,417.235z M303.209,426.395c-22.826,10.759-37.656,42.309-37.656,80.109
	c0,13.957,0.436,17.883,3.053,23.407c4.216,9.306,11.195,14.249,22.972,16.284c15.557,2.616,31.258-1.89,44.052-12.794
	c5.816-5.089,5.961-5.089,6.834-1.89c1.454,4.506,4.943,8.287,10.177,11.049c5.96,3.054,20.354,2.907,27.333-0.291
	c12.358-5.961,21.664-21.082,25.007-40.418c0.727-4.798,1.454-5.67,6.251-6.979c2.908-0.727,5.816-1.454,6.251-1.454
	c1.018,0,0.438,3.489-5.233,30.096l-4.071,19.046l-8.87,3.344c-9.886,3.49-18.173,10.759-18.463,16.139
	c-0.727,11.485,1.017,15.993,7.85,20.063c7.852,4.798,22.826,2.908,30.241-3.779c2.036-1.892,2.618-1.892,4.217,0.145
	c5.233,6.397,18.609,8.579,28.06,4.507c9.451-3.925,16.284-15.411,19.337-32.422c0.437-2.181,1.454-6.979,2.181-10.613
	c0.873-3.635,4.362-20.499,7.996-37.51c3.49-17.156,6.689-31.55,7.125-32.131c0.291-0.727,3.779-1.018,7.561-0.873
	c3.926,0.146,7.414-0.436,7.996-1.308c2.617-3.78,1.019-5.088-6.688-5.525l-7.85-0.436l2.617-10.032
	c2.472-9.887,6.397-15.412,10.904-15.412c3.198,0,6.833,4.507,6.106,7.415c-0.582,2.181,0.145,2.762,3.488,2.762
	c4.217,0,4.508-0.291,4.653-6.251c0.146-9.741-9.015-18.465-19.337-18.465c-6.251,0.146-15.266,3.199-18.9,6.542
	c-2.617,2.472-3.053,2.327-7.27-1.163c-12.067-10.177-31.259-4.798-39.4,10.904c-1.454,2.908-4.508,14.248-6.689,25.297
	c-4.07,19.628-4.07,19.918-8.723,21.954c-5.089,2.035-10.758,2.471-10.322,0.727c0.872-2.908-2.181-14.249-4.653-17.738
	c-4.07-5.67-10.177-7.851-20.209-6.834c-10.177,0.873-15.993,3.635-23.407,11.341c-7.706,7.997-12.794,18.755-15.847,33.73
	c-1.891,9.741-3.199,13.085-5.961,15.266c-6.834,5.234-13.376,7.852-21.809,8.287c-6.979,0.437-9.305,0-13.376-2.616
	c-6.979-4.798-8.868-11.777-7.997-28.642c1.891-33.44,16.575-65.28,31.695-68.769c4.797-1.164,9.596,2.181,10.759,7.415
	c0.873,4.217-2.327,13.812-5.089,15.557c-3.053,1.89,1.745,5.089,7.27,5.089c8.432,0,12.067-5.38,11.34-16.429
	c-0.436-6.542-1.454-9.16-4.652-12.504C335.922,421.016,317.457,419.562,303.209,426.395z M465.9,437.59
	c2.761,1.017,2.908,5.815,0.727,17.01l-1.745,8.287h-7.852h-7.997l1.018-4.07c1.599-5.961,1.89-7.997,2.036-10.904
	c0.145-2.908,7.705-11.195,10.031-11.195C462.992,436.717,464.591,437.153,465.9,437.59z M461.975,471.175
	c0.291,0.872-0.436,6.833-1.745,13.085c-1.309,6.251-2.763,12.648-3.053,14.394c-2.472,12.795-7.561,35.62-7.996,36.057
	c-0.292,0.437-3.49,1.017-7.125,1.599c-3.49,0.582-6.979,1.31-7.705,1.745c-0.582,0.291-0.874-0.873-0.436-2.763
	c0.436-1.745,2.471-11.485,4.506-21.518c2.036-10.032,4.798-22.244,5.96-27.188c1.018-4.943,2.036-10.322,2.036-11.921
	s1.018-3.489,2.326-4.216C451.942,468.703,461.392,469.284,461.975,471.175z M391.314,475.391c1.018,2.908,0.873,4.507-0.727,6.251
	c-3.78,4.071-4.362,10.177-1.454,13.376c2.327,2.617,2.327,3.489,0.582,10.468c-2.181,9.015-5.816,16.429-10.177,20.937
	c-3.635,4.07-10.904,4.507-12.794,0.727c-3.635-7.27-0.436-27.479,6.687-42.163C379.539,472.338,388.262,467.685,391.314,475.391z
	 M447.871,541.688c-0.145,1.019-1.018,6.106-2.036,11.195c-3.198,14.393-9.159,20.208-16.72,16.282
	c-2.762-1.599-2.762-2.034-0.872-7.414c1.163-3.198,2.036-6.251,2.036-6.542c-0.146-0.437,0.29-3.344,0.872-6.543
	c0.727-4.361,1.745-5.96,4.071-6.542c1.745-0.291,4.508-0.872,6.107-1.163C446.708,539.799,447.871,539.943,447.871,541.688z
	 M665.229,424.505c-7.414,2.617-15.993,9.596-19.046,15.411c-3.198,6.106-2.907,17.01,0.581,23.844
	c1.6,3.054,7.705,10.904,13.521,17.301c5.671,6.397,11.777,14.539,13.376,18.174c3.926,8.868,3.926,19.918-0.291,26.606
	c-6.542,10.613-23.262,11.05-28.641,0.873c-5.088-10.032,0.872-20.501,12.939-22.246c3.635-0.436,4.361-1.89,2.472-5.233
	c-2.472-4.653-9.306-6.979-16.284-5.816c-15.266,2.908-23.553,17.592-19.336,34.021c3.489,13.375,15.41,20.209,34.457,19.918
	c28.787-0.437,46.379-17.736,44.489-43.907c-1.019-12.649-4.653-18.901-20.063-34.021c-6.543-6.396-12.794-13.376-13.957-15.557
	c-3.926-7.56-1.892-18.464,3.924-21.663c4.944-2.617,13.959-2.181,17.303,0.873c4.217,3.78,3.926,12.504-0.728,18.028
	c-3.635,4.216-3.635,4.362-0.872,5.815c9.014,4.943,19.046-3.344,19.046-15.412c0-6.833-4.217-13.085-11.049-16.283
	C689.509,421.597,674.243,421.306,665.229,424.505z M19.7,430.466c-10.613,5.524-12.213,10.904-5.089,16.865
	c5.815,4.944,16.72,8.869,34.894,12.503c21.517,4.216,33.003,5.089,66.152,4.943c41.291-0.145,71.095-4.798,89.269-13.812
	c11.195-5.67,12.358-13.667,2.762-19.336c-4.216-2.472-4.362-2.472-3.489,0.291c1.309,4.216-0.29,7.27-5.67,10.613
	c-5.234,3.199-22.827,8.142-33.73,9.451c-3.925,0.436-8.578,1.163-10.613,1.599c-7.706,1.89-69.06,1.6-83.599-0.291
	c-24.28-3.198-41-8.578-45.798-14.829c-2.762-3.344-2.762-3.926-0.727-7.125C26.678,427.413,25.661,427.267,19.7,430.466z
	 M856.997,429.448c-1.6,0.582-4.072,3.489-5.525,6.397c-2.181,4.507-2.181,5.67-0.29,10.177c3.635,8.578,13.521,10.904,20.354,4.798
	C882.876,440.934,871.099,423.778,856.997,429.448z M981.159,438.607c-9.596,1.309-9.596,1.309-10.758,6.688
	c-0.583,2.908-1.165,5.525-1.31,5.961c0,0.436-0.582,3.199-1.163,6.106c-0.873,4.071-1.89,5.524-3.78,5.524
	c-1.744,0-2.908,1.309-3.489,3.78c-0.436,2.617-0.146,3.489,1.308,2.908c1.019-0.437,2.182-0.291,2.618,0.291
	c0.29,0.582-2.035,12.504-5.088,26.461c-6.107,28.06-6.543,32.712-3.781,39.69c2.616,5.962,5.38,8.288,11.631,9.306
	c6.979,1.019,14.686-2.907,17.593-9.015c3.053-6.251,3.053-6.251-1.6-6.833c-3.199-0.291-4.216-1.308-4.507-4.362
	c-0.436-3.488,9.015-52.34,10.613-54.957c0.291-0.582,2.617-0.873,5.089-0.727c2.325,0.146,4.361-0.291,4.361-0.872
	c0-0.582,0.437-2.036,0.872-3.344c0.727-1.891-0.145-2.327-4.216-2.327h-5.088l2.761-12.067c1.454-6.542,2.764-12.358,2.764-12.94
	C995.989,436.863,995.117,436.863,981.159,438.607z M901.922,456.781c-8.288,0.291-10.613,0.873-11.195,2.908
	c-0.581,1.891-5.669,25.298-11.776,54.376c-2.036,9.887-11.34,17.301-17.737,14.393c-4.362-2.034-4.362-2.761,3.781-40.562
	l5.378-25.007h-11.776h-11.922l-3.926,17.738c-10.178,47.543-10.467,49.724-4.651,58.592c4.507,6.979,18.463,7.561,29.658,1.454
	c3.344-1.89,6.107-3.053,6.107-2.472c0,0.582-2.326,11.195-4.944,23.553c-2.762,12.358-4.798,22.681-4.507,22.972
	c0.292,0.436,10.76-1.745,19.772-4.071c4.653-1.309,5.38-2.181,6.253-7.124c0.437-3.197,2.181-11.632,3.925-18.755l2.907-13.085
	l4.944,2.035c10.76,4.508,26.461,0,34.748-9.74c15.411-18.174,19.046-60.192,6.105-68.624c-5.378-3.49-13.957-3.926-22.389-1.164
	l-7.561,2.618l0.871-4.653c0.438-2.617,0.292-4.943-0.436-5.234C912.973,456.636,907.737,456.49,901.922,456.781z M927.511,479.316
	c1.744,4.507,0.728,20.354-2.036,29.514c-3.198,10.904-7.269,17.446-12.939,20.064c-11.341,5.379-13.085,2.617-9.305-15.121
	c1.599-7.561,3.199-15.847,3.489-18.173c2.181-12.939,5.815-19.336,12.213-21.373C921.985,473.21,926.202,475.682,927.511,479.316z
	 M12.285,462.452c0.437,3.343,2.181,11.049,3.926,17.01l3.198,10.904l-7.415,7.997c-15.993,17.592-15.993,40.128,0,53.939
	c9.45,7.996,25.297,9.741,35.475,3.926c2.471-1.454,2.326-1.601-1.309-1.745c-7.852,0-20.064-8.432-25.88-17.446
	c-3.053-4.653-5.379-15.411-4.652-20.937c0.727-4.798,5.815-15.411,7.414-15.411c0.583,0,2.472,3.199,4.217,6.979
	c1.89,3.926,8.287,14.248,14.539,22.972c10.032,14.103,17.737,28.642,17.883,33.585c0,3.635,11.34,10.759,22.244,14.248
	c9.596,3.053,14.103,3.635,30.387,3.635c35.184,0,51.613-7.561,56.846-26.17c1.309-4.361,5.234-11.922,8.724-16.72
	c17.883-24.716,21.373-30.677,27.624-47.979c2.036-5.67,4.653-14.83,6.106-20.354c1.309-5.67,2.617-11.05,2.908-11.922
	c0.436-1.017-1.745-0.29-4.797,1.745c-7.852,5.234-20.354,9.305-36.057,11.777c-2.908,0.436-6.688,1.163-8.432,1.454
	c-13.958,2.762-71.532,3.925-91.741,1.6c-28.933-3.199-50.741-9.16-58.737-16.138l-3.344-3.054L12.285,462.452z M525.945,463.469
	c-11.922,4.362-20.646,14.394-26.605,30.823c-6.833,18.755-6.107,35.911,2.034,44.634c10.324,11.051,34.313,7.996,49.868-6.396
	c3.346-3.054,6.398-5.671,6.689-5.671c0.145,0,0.436,1.31,0.436,2.908c0,1.454,2.472,5.38,5.524,8.578
	c4.508,4.798,6.543,5.815,13.521,6.688c14.539,1.745,25.443-3.344,30.532-14.394c4.072-8.868,3.49-10.178-2.616-6.105
	c-13.812,9.013-23.698,5.669-23.698-7.852c0-3.779,0.727-4.362,6.251-5.815c18.32-4.507,29.369-15.557,31.259-30.968
	c1.309-11.777-5.38-18.465-18.174-18.465c-22.389,0.291-38.819,19.046-43.325,49.724c-1.599,10.758-13.957,20.063-26.606,20.063
	c-8.287,0-11.922-3.78-11.922-12.358c0-5.96,0.291-6.543,4.07-7.414c14.975-3.346,25.152-10.469,30.241-21.519
	c5.525-11.922,4.071-22.245-3.925-26.461C544.41,460.998,533.215,460.998,525.945,463.469z M541.503,471.029
	c5.378,2.035,0.727,19.482-6.834,25.733c-4.07,3.199-12.504,7.416-13.376,6.543c-2.326-2.326,8.287-26.17,13.521-30.241
	C538.885,469.721,538.448,469.866,541.503,471.029z M605.619,478.444c-0.146,9.305-5.671,17.883-14.395,22.244
	c-7.851,3.635-8.142,3.635-7.27-0.872c1.745-9.451,11.195-26.898,15.412-28.642C604.165,469.139,605.619,470.884,605.619,478.444z
	 M742.284,462.742c-14.538,4.653-25.879,19.628-30.676,40.273c-4.362,19.338-0.728,35.185,9.45,39.837
	c13.521,6.106,34.02,1.163,45.942-11.195l3.926-4.07l-0.873,5.815c-0.581,3.198-1.308,6.979-1.744,8.287
	c-0.727,2.326,0.437,2.617,11.485,2.617h12.213l5.38-26.606c6.979-34.021,7.56-35.62,13.085-38.964
	c2.471-1.454,4.942-2.762,5.524-2.762c0.437,0,2.181,2.472,3.635,5.379c2.326,4.943,3.199,5.524,7.705,5.233
	c13.957-0.582,13.377-23.698-0.436-23.698c-4.217,0-11.486,2.908-16.429,6.542c-2.907,2.181-2.907,2.036-2.327-2.181l0.582-4.362
	h-11.631c-9.886,0-11.777,0.436-12.504,2.472c-0.437,1.454-2.908,13.085-5.525,25.879c-4.215,20.79-5.233,23.845-9.304,28.351
	c-9.597,10.613-26.316,14.976-32.567,8.724c-7.561-7.561,0.727-44.344,12.213-55.248c5.815-5.379,9.013-2.617,8.577,7.124
	c-0.145,4.071,0.146,7.415,0.727,7.561c0.582,0,2.182,0.291,3.49,0.582c4.507,0.873,8.868-4.071,9.159-10.177
	c0.437-7.561-1.599-11.777-7.27-14.539C759.295,461.434,747.664,460.852,742.284,462.742z"/>
</svg>
