<?xml version="1.0" encoding="utf-8"?>
<!-- Generator: Adobe Illustrator 16.2.1, SVG Export Plug-In . SVG Version: 6.00 Build 0)  -->
<!DOCTYPE svg PUBLIC "-//W3C//DTD SVG 1.1//EN" "http://www.w3.org/Graphics/SVG/1.1/DTD/svg11.dtd">
<svg version="1.1" id="Layer_1" xmlns="http://www.w3.org/2000/svg" xmlns:xlink="http://www.w3.org/1999/xlink" x="0px" y="0px"
	 width="1000px" height="1000px" viewBox="0 0 1000 1000" enable-background="new 0 0 1000 1000" xml:space="preserve">
<path d="M464.432,0h163.515v756.86c-83.881,15.919-145.467,22.287-212.358,22.287c-199.61,0-303.664-90.237-303.664-263.315
	c0-166.7,110.432-274.993,281.371-274.993c26.547,0,46.717,2.114,71.136,8.485V0z M464.432,380.979
	c-19.112-6.365-35.035-8.491-55.205-8.491c-82.818,0-130.605,50.969-130.605,140.151c0,87.073,45.658,134.855,129.541,134.855
	c18.04,0,32.909-1.063,56.266-4.242V380.979H464.432z M888.074,252.513v379.046c0,130.604-9.554,193.249-38.221,247.397
	c-26.55,52.034-61.588,84.943-133.786,121.044l-151.831-72.201c72.195-33.976,107.239-63.699,129.529-109.368
	c23.364-46.714,30.805-100.859,30.805-243.14V252.513H888.074z M724.563,0.871h163.511v167.764H724.563V0.871z"/>
</svg>
