<?xml version="1.0" encoding="utf-8"?>
<!-- Generator: Adobe Illustrator 16.2.1, SVG Export Plug-In . SVG Version: 6.00 Build 0)  -->
<!DOCTYPE svg PUBLIC "-//W3C//DTD SVG 1.1//EN" "http://www.w3.org/Graphics/SVG/1.1/DTD/svg11.dtd">
<svg version="1.1" id="Layer_1" xmlns="http://www.w3.org/2000/svg" xmlns:xlink="http://www.w3.org/1999/xlink" x="0px" y="0px"
	 width="1000px" height="1000px" viewBox="0 0 1000 1000" enable-background="new 0 0 1000 1000" xml:space="preserve">
<path d="M117.899,325.313h54.689v253.138c-28.055,5.324-48.653,7.454-71.025,7.454C34.802,585.905,0,555.725,0,497.837
	c0-55.754,36.935-91.974,94.107-91.974c8.879,0,15.625,0.707,23.792,2.838V325.313z M117.899,452.734
	c-6.392-2.129-11.718-2.839-18.464-2.839c-27.699,0-43.682,17.046-43.682,46.875c0,29.122,15.271,45.103,43.326,45.103
	c6.034,0,11.007-0.355,18.819-1.419V452.734z M259.59,409.768v126.775c0,43.682-3.195,64.634-12.783,82.744
	c-8.88,17.403-20.599,28.41-44.747,40.484l-50.78-24.148c24.146-11.363,35.867-21.305,43.321-36.579
	c7.815-15.624,10.303-33.734,10.303-81.32V409.768H259.59z M204.903,325.604h54.687v56.11h-54.687V325.604z M292.623,422.195
	c24.151-11.362,47.232-16.332,72.446-16.332c28.055,0,46.519,7.456,54.689,22.017c4.613,8.168,6.036,18.82,6.036,41.551V580.58
	c-24.506,3.549-55.4,6.039-78.126,6.039c-45.81,0-66.408-15.985-66.408-51.494c0-38.355,27.343-56.109,94.462-61.794v-12.073
	c0-9.943-4.971-13.491-18.822-13.491c-20.24,0-42.968,5.683-64.278,16.692V422.195z M378.208,509.199
	c-36.225,3.553-47.944,9.235-47.944,23.439c0,10.654,6.75,15.623,21.663,15.623c8.17,0,15.625-0.707,26.281-2.483V509.199z
	 M452.428,418.29c32.312-8.522,58.948-12.427,85.937-12.427c28.055,0,48.297,6.39,60.374,18.82
	c11.362,11.717,14.91,24.5,14.91,51.848v107.244h-54.687V478.661c0-20.949-7.101-28.766-26.632-28.766
	c-7.459,0-14.204,0.71-25.216,3.906v129.974h-54.687V418.29z M634.911,613.606c19.181,9.942,38.355,14.558,58.596,14.558
	c35.865,0,51.136-14.558,51.136-49.36c0-0.353,0-0.709,0-1.064c-10.653,5.324-21.307,7.457-35.509,7.457
	c-47.941,0-78.486-31.605-78.486-81.675c0-62.151,45.103-97.304,125.003-97.304c23.441,0,45.103,2.483,71.383,7.809l-18.726,39.447
	c-14.562-2.841-1.165-0.379-12.168-1.446v5.685l0.707,23.078l0.354,29.832c0.355,7.455,0.355,14.914,0.711,22.372
	c0,6.746,0,9.942,0,14.916c0,46.877-3.906,68.894-15.624,87.001c-17.048,26.637-46.521,39.776-88.425,39.776
	c-21.308,0-39.771-3.197-58.951-10.656V613.606z M743.578,450.251c-0.709,0-1.418,0-1.774,0h-3.908
	c-10.651-0.356-23.079,2.483-31.605,7.81c-13.137,7.459-19.887,20.955-19.887,40.13c0,27.345,13.497,42.969,37.644,42.969
	c7.457,0,13.495-1.42,20.596-3.548v-3.911v-14.91c0-6.393-0.354-13.498-0.354-20.954l-0.354-25.213l-0.357-18.111V450.251z
	 M911.93,405.15c54.687,0,88.07,34.448,88.07,90.2c0,57.175-34.8,93.042-90.2,93.042c-54.691,0-88.427-34.448-88.427-89.845
	C821.373,441.016,856.178,405.15,911.93,405.15z M910.86,544.357c20.956,0,33.386-17.401,33.386-47.588
	c0-29.828-12.074-47.586-33.023-47.586c-21.666,0-34.098,17.403-34.098,47.586C877.125,526.956,889.557,544.357,910.86,544.357z"/>
</svg>
