<?xml version="1.0" encoding="utf-8"?>
<!-- Generator: Adobe Illustrator 16.2.1, SVG Export Plug-In . SVG Version: 6.00 Build 0)  -->
<!DOCTYPE svg PUBLIC "-//W3C//DTD SVG 1.1//EN" "http://www.w3.org/Graphics/SVG/1.1/DTD/svg11.dtd">
<svg version="1.1" id="Layer_1" xmlns="http://www.w3.org/2000/svg" xmlns:xlink="http://www.w3.org/1999/xlink" x="0px" y="0px"
	 width="1000px" height="1000px" viewBox="0 0 1000 1000" enable-background="new 0 0 1000 1000" xml:space="preserve">
<path d="M717.729,185.938c-51.061-31.791-99.23-44.318-147.399-76.109C540.461,89.598,499.038,41.428,464.352,0
	c-6.742,66.478-26.972,93.449-50.087,112.719c-49.137,38.538-79.966,50.098-122.355,73.219
	C256.267,204.239,62.62,319.848,62.62,568.4c0,248.558,209.058,431.6,441.231,431.6c232.179,0,433.528-168.597,433.528-423.891
	C937.38,320.81,748.558,205.206,717.729,185.938z M131.771,375.615c-7.708-13.488,2.891-43.351,38.533-82.851
	c3.302-3.656,7.27-7.466,11.74-11.359c48.994-54.6,116.501-91.774,137.593-102.32c9.626-4.813,52.021-25.049,95.373-57.802
	c26.011-20.23,45.279-39.5,53.944-103.087c0.761,2.505,1.448,4.935,2.087,7.334c11.18,35.314,9.479,53.844,9.479,62.033
	c0,8.67-4.818,31.791-20.23,43.356c-6.747,4.813-8.676,8.671-8.676,9.632c0,3.852,8.676,6.742,8.676,15.412
	c0,10.599-4.818,31.791-55.878,82.851c-51.054,51.06-124.273,96.339-181.114,124.279
	C166.452,391.033,139.479,389.104,131.771,375.615z M723.292,909.335c-4.813,4.818-49.132,35.643-101.153,40.461
	c-52.026,4.818-122.35,7.709-164.739-30.824c-6.742-6.747-4.819-16.384,0-20.235c4.813-3.852,8.67-6.742,14.45-6.742
	s4.818,0,7.703,1.924c19.269,15.417,48.17,27.939,109.828,27.939c61.659,0,105.01-17.341,124.279-31.791
	c8.67-6.742,12.521-0.957,13.488,2.89C728.11,896.812,730.033,902.588,723.292,909.335z M554.7,821.671
	c10.599-9.638,27.939-25.055,44.312-31.796c16.379-6.742,25.05-5.78,40.467-5.78c15.412,0,31.786,0.962,43.352,8.665
	c11.56,7.714,18.302,25.055,22.159,34.691c3.852,9.627,0,15.406-7.709,19.264c-6.747,3.852-7.703,1.929-14.45-10.599
	c-6.747-12.522-12.522-25.044-46.247-25.044c-33.714,0-44.312,11.561-60.691,25.044c-16.374,13.494-22.159,18.302-27.939,10.599
	C542.178,839.012,544.106,831.297,554.7,821.671z M810,829.374c-34.687-2.89-104.049-110.79-148.361-112.718
	c-55.879-1.924-177.268,116.569-272.64,116.569c-57.802,0-75.143-8.67-94.417-21.192c-28.9-20.235-43.351-51.06-42.384-93.449
	c0.961-75.147,71.285-145.471,159.921-146.438c112.719-0.956,190.751,111.752,247.591,110.79
	c48.165-0.962,140.652-95.373,185.933-95.373c48.17,0,61.658,50.099,61.658,79.961c0,29.868-9.637,83.812-32.752,117.532
	C851.422,818.775,836.972,831.297,810,829.374z"/>
</svg>
