<?xml version="1.0" encoding="utf-8"?>
<!-- Generator: Adobe Illustrator 16.2.1, SVG Export Plug-In . SVG Version: 6.00 Build 0)  -->
<!DOCTYPE svg PUBLIC "-//W3C//DTD SVG 1.1//EN" "http://www.w3.org/Graphics/SVG/1.1/DTD/svg11.dtd">
<svg version="1.1" id="Layer_1" xmlns="http://www.w3.org/2000/svg" xmlns:xlink="http://www.w3.org/1999/xlink" x="0px" y="0px"
	 width="1000px" height="1000px" viewBox="0 0 1000 1000" enable-background="new 0 0 1000 1000" xml:space="preserve">
<path fill="#010101" d="M997.865,695.58c0,0-64.415-94.99-70.35-102.565c-13.11-16.689-33.396,0-33.396,0
	S678.274,736.131,560.198,736.131c-118.056,0-107.324-94.212-107.324-94.212s366.1-72.747,366.1-357.763
	c0-125.23-94.193-212.288-230.155-212.288c-10.394,0-20.466,0.54-30.221,1.5c-18.304,0.578-52.001,4.916-94.133,26.661
	c-12.111,6.075-23.463,13.05-34.214,20.683c-3.237,2.24-6.477,4.539-9.793,6.997c-0.121,0.058-0.24,0.141-0.319,0.24
	c-17.289,12.83-35.335,28.5-53.942,48.084c-67.132,70.65-105.544,218.363-123.05,340.676
	c-74.107-4.715-123.072-18.687-143.879-25.822c-20.146-9.392-40.551-13.95-49.482-2.816C40.25,500.02,6.856,572.747,6.856,572.747
	c-16.708,30.999,2.378,44.129,2.378,44.129s23.862,11.933,89.455,38.173c65.571,26.221,133.562,29.818,133.562,29.818
	c6.757,90.636,85.48,161.385,85.48,161.385l0.319-0.979c45.288,45.447,113.278,82.86,214.729,82.86
	c258.772,0,448.396-203.935,460.307-212.267C1005.039,707.513,997.865,695.58,997.865,695.58z M593.595,229.294
	c58.439,0,72.747,47.708,72.747,83.479c0,36.394-34.894,124.831-120.192,170.598c-6.835,3.438-13.031,6.355-19.007,9.034
	c-28.221,11.952-60.998,19.527-99.33,19.527C427.812,511.933,430.21,229.294,593.595,229.294z"/>
</svg>
