<?xml version="1.0" encoding="utf-8"?>
<!-- Generator: Adobe Illustrator 16.2.1, SVG Export Plug-In . SVG Version: 6.00 Build 0)  -->
<!DOCTYPE svg PUBLIC "-//W3C//DTD SVG 1.1//EN" "http://www.w3.org/Graphics/SVG/1.1/DTD/svg11.dtd">
<svg version="1.1" id="Layer_1" xmlns="http://www.w3.org/2000/svg" xmlns:xlink="http://www.w3.org/1999/xlink" x="0px" y="0px"
	 width="1000px" height="1000px" viewBox="0 0 1000 1000" enable-background="new 0 0 1000 1000" xml:space="preserve">
<path d="M999.812,586.215c-1.679-16.79-16.79-10.547-16.79-10.547s-24.345,18.866-45.752,16.766
	c-21.406-2.101-14.69-49.964-14.69-49.964s4.617-43.863-7.976-47.54c-12.592-3.677-28.122,11.431-28.122,11.431
	s-19.309,21.405-28.543,48.688l-2.519,0.838c0,0,2.938-47.851-0.42-58.765c-2.518-5.457-25.604-5.037-29.382,4.618
	c-3.777,9.654-22.246,76.812-23.505,104.936c0,0-36.099,30.642-67.579,35.679c-31.48,5.036-39.036-14.691-39.036-14.691
	s85.628-23.926,82.689-92.344c-2.938-68.418-69.048-43.121-76.531-37.497c-7.237,5.439-45.88,28.75-57.15,93.285
	c-0.384,2.202-1.056,11.791-1.056,11.791s-33.16,22.246-51.629,28.122c0,0,51.629-86.887-11.333-126.342
	c-28.542-17.21-51.208,18.888-51.208,18.888s85.208-94.862,66.319-175.033c-8.995-38.177-28.077-42.279-45.602-36.102
	c-26.595,10.498-36.668,26.028-36.668,26.028s-34.418,49.949-42.394,124.244c-7.975,74.296-19.728,164.12-19.728,164.12
	s-16.37,15.95-31.48,16.79s-8.395-44.912-8.395-44.912s11.753-69.678,10.914-81.431s-1.679-18.05-15.531-22.247
	s-28.962,13.433-28.962,13.433s-39.875,60.443-43.234,69.678l-2.099,3.777l-2.099-2.519c0,0,28.123-82.271,1.259-83.529
	c-26.863-1.26-44.493,29.383-44.493,29.383s-30.641,51.208-31.9,57.085l-2.099-2.519c0,0,12.592-59.604,10.074-74.295
	s-16.37-11.753-16.37-11.753s-17.629-2.099-22.246,9.235c-4.617,11.334-21.407,86.468-23.506,110.393c0,0-44.073,31.48-73.035,31.9
	s-26.024-18.365-26.024-18.365s106.195-36.358,77.232-108.135c-13.012-18.47-28.123-24.268-49.529-23.848
	c-21.407,0.42-47.783,13.473-64.992,52.089C56.479,565.465,53,582.932,52,596.17v-0.005c0,0-18.787,3.796-28.86-4.599
	c-10.074-8.396-15.354,0-15.354,0s-17.332,22.447-0.123,29.162C24.872,627.445,51.685,631,51.685,631h-0.019
	c2.468,12,9.646,31.299,30.598,47.225c31.481,23.924,91.92-2.403,91.92-2.403l24.762-14.006c0,0,0.838,22.671,18.887,25.988
	c18.049,3.316,25.604-0.078,57.085-76.471c18.469-39.036,19.727-36.957,19.727-36.957l2.099-0.429c0,0-14.271,74.709-8.815,94.856
	s29.382,18.046,29.382,18.046s13.012,3.131,23.505-33.807S371.458,576,371.458,576h2.519c0,0-8.814,75.779,4.617,100.125
	s48.271,7.881,48.271,7.881s24.345-12.432,28.123-16.209c0,0,28.903,24.508,69.653,20.058
	c91.107-17.931,123.513-42.184,123.513-42.184s15.655,39.635,64.136,43.307c55.405,4.197,85.627-30.655,85.627-30.655
	s-0.419,22.657,18.889,30.633c19.309,7.975,32.32-36.351,32.32-36.351L881.444,564h2.938c0,0,1.679,57.435,33.579,66.669
	s73.455-21.858,73.455-21.858S1001.49,603.004,999.812,586.215z M96.946,594.504c1.259-49.949,33.999-71.775,45.333-60.862
	c11.333,10.913,7.135,34.419-14.271,49.11C106.6,597.442,96.946,594.504,96.946,594.504z M522.984,401.002
	c0,0,29.801-77.652,36.937-39.875S497.38,511.396,497.38,511.396C498.22,486.21,522.984,401.002,522.984,401.002z M558.662,617.171
	c-19.729,51.628-67.578,30.641-67.578,30.641s-5.457-18.469,10.074-70.097c15.529-51.629,52.047-31.48,52.047-31.48
	S578.39,565.542,558.662,617.171z M690.881,594.504c0,0-4.617-16.369,12.593-47.851c17.209-31.48,30.641-14.271,30.641-14.271
	s14.691,15.95-2.099,39.875C715.227,596.184,690.881,594.504,690.881,594.504z"/>
</svg>
