<?xml version="1.0" encoding="utf-8"?>
<!-- Generator: Adobe Illustrator 16.2.1, SVG Export Plug-In . SVG Version: 6.00 Build 0)  -->
<!DOCTYPE svg PUBLIC "-//W3C//DTD SVG 1.1//EN" "http://www.w3.org/Graphics/SVG/1.1/DTD/svg11.dtd">
<svg version="1.1" id="Layer_1" xmlns="http://www.w3.org/2000/svg" xmlns:xlink="http://www.w3.org/1999/xlink" x="0px" y="0px"
	 width="1000px" height="1000px" viewBox="0 0 1000 1000" enable-background="new 0 0 1000 1000" xml:space="preserve">
<g>
	<path fill="none" d="M589.125,371.629c0.572-14.942-3.325-30.366-12.316-44.641c-5.555-8.816-23.108-15.113-31.938-10.443
		c-7.589,4.012-15.293,7.6-22.354,12.854c-8.16,6.07-15.582,12.849-20.439,21.295c-10.435,18.143-19.098,37.138-25.776,57.185
		c-8.531,25.609-12.118,51.978-15.674,78.453c-2.091,15.567-3.877,31.174-6.011,46.735c-2.935,21.393-6.054,42.76-9.125,64.132
		c-1.188,8.265-1.591,16.772-3.927,24.704c-2.581,8.762-11.613,11.665-18.747,15.5c-12.914,6.943-20.608,3.218-21.976-8.958
		c-2.407-21.413,3.21-41.96,6.395-62.739c2.701-17.622,5.814-35.174,6.264-53.034c0.152-6.031-2.071-11.391-7.935-14.065
		c-12.463-5.686-28.27-0.221-36.236,12.08c-8.75,13.51-17.645,26.927-26.489,40.377c-5.561,8.459-11.15,16.9-16.707,25.363
		c-0.53,0.807-0.776,2.338-2.034,1.507c-0.636-0.42-0.989-2.033-0.742-2.899c1.613-5.665,3.622-11.221,5.136-16.908
		c4.28-16.07,8.068-32.179,6.856-49.089c-0.562-7.847-4.281-11.333-11.813-11.894c-9.552-0.711-16.88,4.326-24.042,9.317
		c-13.811,9.623-20.414,24.994-29.379,38.41c-7.206,10.782-13.643,22.077-20.47,33.113c-0.253,0.41-1.322,0.829-1.509,0.666
		c-0.5-0.434-1.1-1.248-1.004-1.796c1.635-9.321,3.274-18.645,5.105-27.929c2.651-13.448,5.965-26.798,5.562-40.657
		c-0.105-3.624-1.156-7.359-3.819-9.496c-11.793-9.463-31.739-1.649-35.215,13.076c-3.07,13-7.368,25.706-10.605,38.672
		c-3.82,15.3-7.021,30.753-10.617,46.111c-1.343,5.736,0.52,13.027-5.086,16.827c-19.318,13.1-39.362,25.168-62.803,29.154
		c-9.935,1.688-20.357,2.319-28.826-5.932c-5.232-5.099-4.612-12.146,1.866-15.2c12.86-6.063,25.759-11.953,37.524-20.188
		c13.488-9.44,25.545-19.907,33.271-34.828c10.313-19.918,9.589-50.062-13.659-62.253c-18.325-9.609-36.766-8.256-54.485-1.001
		c-13.88,5.685-24.516,16.728-32.449,29.854c-10.843,17.942-19.255,36.785-21.589,57.877c-0.261,2.362-1.129,4.26-3.33,4.564
		c-8.543,1.183-17.087,1.059-24.625-3.752c-4.713-3.009-9.938-6.435-14.447-2.125C3.585,594.717,0.074,601.656,0,609.458
		c-0.016,1.758,1.422,4.397,2.934,5.162c10.826,5.478,22.356,8.639,34.452,10.027c5.408,0.621,11.894,0.595,13.407,7.876
		c2.2,10.586,7.327,19.365,13.749,28.091c11.434,15.539,27.1,20.973,45.075,22.025c10.296,0.603,20.569-0.741,30.536-3.371
		c13.936-3.677,27.716-7.868,39.906-16.007c9.283-6.197,10.752-5.796,14.107,4.854c3.749,11.901,16.619,20.253,29.955,12.996
		c6.604-3.593,10.546-9.236,13.949-15.285c7.491-13.312,15.381-26.515,21.441-40.486c7.405-17.072,14.925-33.967,25.359-49.425
		c0.604-0.895,2.037-1.976,2.854-1.813c1.452,0.29,0.73,1.74,0.555,2.865c-2.655,17.012-5.652,33.983-7.732,51.067
		c-1.309,10.75-2.843,21.533-1.611,32.541c1.162,10.375,7.188,17.529,19.725,21.171c9.243,2.684,15.874-1.871,20.864-8.723
		c6.237-8.562,9.058-18.838,12.564-28.707c5.397-15.198,10.855-30.387,18.041-44.841c3.895-7.835,5.42-16.839,11.538-23.559
		c0.63-0.693,1.624-1.056,2.448-1.572c0.235,0.887,0.697,1.779,0.67,2.657c-0.206,6.829-0.168,13.688-0.842,20.476
		c-1.911,19.218-2.581,38.425,0.198,57.587c1.423,9.813,3.694,19.375,12.968,25.342c7.869,5.062,16.232,4.692,24.935,3.08
		c11.597-2.148,21.91-7.513,31.788-13.372c5.627-3.338,10.203-6.792,16.539-2.428c13.062,8.997,27.688,13.769,43.288,15.734
		c22.947,2.894,44.415-4.687,65.915-10.438c25.74-6.887,51.109-15.308,74.469-28.616c3.55-2.022,5.908-0.933,7.545,2.136
		c2.924,5.484,7.248,9.746,11.272,14.359c10.8,12.383,24.836,19.624,40.322,22.251c34.287,5.818,65.765-1.297,92.66-24.621
		c1.91-1.657,4.982-3.119,6.016,0.977c1.528,6.056,4.293,11.313,7.86,16.423c6.056,8.671,19.503,11.999,25.182,5.692
		c6.448-7.163,11.119-15.119,14.75-24.309c5.914-14.968,11.083-30.192,16.812-45.215c6.499-17.036,11.454-34.656,19.32-51.177
		c0.385-0.809,1.162-1.429,1.757-2.137c0.817,0.725,2.13,1.313,2.373,2.197c1.414,5.146,2.893,10.311,3.768,15.565
		c2.671,16.052,8.196,30.898,20.851,41.57c10.292,8.679,22.896,8.979,35.791,6.576c14.729-2.744,28.147-8.524,40.766-16.342
		c8.678-5.375,18.678-9.576,18.897-22.389c0.094-5.5-0.072-11.278-4.772-14.066c-3.778-2.242-9.258-1.707-13.429,0.854
		c-10.232,6.282-20.537,12.177-32.642,14.212c-7.397,1.243-15.447,3.292-21.302-2.135c-10.346-9.592-10.363-22.964-9.695-35.827
		c0.725-13.941,1.538-27.821,0.362-41.784c-1.057-12.569-9.076-18.627-15.427-16.568c-12.937,4.194-22.993,12.277-30.748,23.85
		c-7.076,10.56-12.182,22.076-18.422,33.02c-0.6,1.049-1.283,2.212-2.548,1.576c-0.579-0.29-0.846-1.661-0.861-2.549
		c-0.219-12.751,0.103-25.536-0.789-38.237c-0.32-4.562,1.236-9.715-2.495-14.002c-5.271-6.055-11.987-3.478-17.754-2.57
		c-4.979,0.784-10.995,3.479-11.075,10.062c-0.076,6.25-3.668,11.09-5.198,16.729c-5.285,19.485-9.746,39.116-13.714,58.906
		c-2.55,12.716-1.211,26.776-15.577,35.275c-17.55,10.381-34.413,22.324-54.739,25.999c-13.295,2.403-27.228,3.491-38.279-8.604
		c-5.964-6.527-0.673-8.196,3.147-9.489c18.467-6.252,34.85-15.896,49.34-28.819c20.344-18.144,29.315-40.883,26-67.927
		c-1.613-13.156-6.202-25.962-18.816-32.21c-19.281-9.55-39.305-5.331-56.937,3.861c-12.398,6.464-22.788,17.444-31.347,29.097
		c-13.515,18.4-21.882,39.045-26.056,61.547c-1.03,5.551,0.729,12.214-5.436,16.46c-12.451,8.577-25.91,15.347-39.242,22.328
		c-2.247,1.176-5.433,0.56-8.185,0.772c0.35-1.138,0.575-2.333,1.067-3.406c7.477-16.303,14.022-32.762,16.146-50.906
		c2.598-22.183-0.79-41.908-17.518-58.19c-14.773-14.381-26.118-17.653-44.662-8.529c-0.764,0.375-1.729,0.337-2.602,0.492
		c0.044-0.933-0.241-2.064,0.185-2.765c2.819-4.639,5.566-9.351,8.752-13.735c14.238-19.591,25.636-40.757,34.226-63.325
		C585.274,408.686,589.711,391.486,589.125,371.629z"/>
	<path fill-rule="evenodd" clip-rule="evenodd" d="M589.125,371.629c0.586,19.857-3.851,37.057-10.181,53.689
		c-8.59,22.568-19.987,43.734-34.226,63.325c-3.186,4.384-5.933,9.096-8.752,13.735c-0.426,0.7-0.141,1.832-0.185,2.765
		c0.872-0.155,1.838-0.117,2.602-0.492c18.544-9.124,29.889-5.852,44.662,8.529c16.728,16.282,20.115,36.008,17.518,58.19
		c-2.124,18.145-8.67,34.604-16.146,50.906c-0.492,1.073-0.718,2.269-1.067,3.406c2.752-0.213,5.938,0.403,8.185-0.772
		c13.332-6.981,26.791-13.751,39.242-22.328c6.164-4.246,4.405-10.909,5.436-16.46c4.174-22.502,12.541-43.146,26.056-61.547
		c8.559-11.653,18.948-22.633,31.347-29.097c17.632-9.192,37.655-13.411,56.937-3.861c12.614,6.248,17.203,19.054,18.816,32.21
		c3.315,27.044-5.656,49.783-26,67.927c-14.49,12.923-30.873,22.567-49.34,28.819c-3.82,1.293-9.111,2.962-3.147,9.489
		c11.052,12.096,24.984,11.008,38.279,8.604c20.326-3.675,37.189-15.618,54.739-25.999c14.366-8.499,13.027-22.56,15.577-35.275
		c3.968-19.79,8.429-39.421,13.714-58.906c1.53-5.639,5.122-10.479,5.198-16.729c0.08-6.582,6.096-9.278,11.075-10.062
		c5.767-0.908,12.483-3.484,17.754,2.57c3.731,4.287,2.175,9.439,2.495,14.002c0.892,12.701,0.57,25.486,0.789,38.237
		c0.016,0.888,0.282,2.259,0.861,2.549c1.265,0.636,1.948-0.527,2.548-1.576c6.24-10.943,11.346-22.46,18.422-33.02
		c7.755-11.572,17.812-19.656,30.748-23.85c6.351-2.059,14.37,3.999,15.427,16.568c1.176,13.963,0.362,27.843-0.362,41.784
		c-0.668,12.863-0.65,26.235,9.695,35.827c5.854,5.427,13.904,3.378,21.302,2.135c12.104-2.035,22.409-7.93,32.642-14.212
		c4.171-2.561,9.65-3.096,13.429-0.854c4.7,2.788,4.866,8.566,4.772,14.066c-0.22,12.812-10.22,17.014-18.897,22.389
		c-12.618,7.817-26.037,13.598-40.766,16.342c-12.895,2.402-25.499,2.103-35.791-6.576c-12.654-10.672-18.18-25.519-20.851-41.57
		c-0.875-5.255-2.354-10.419-3.768-15.565c-0.243-0.884-1.556-1.473-2.373-2.197c-0.595,0.708-1.372,1.328-1.757,2.137
		c-7.866,16.521-12.821,34.141-19.32,51.177c-5.729,15.022-10.898,30.247-16.812,45.215c-3.631,9.189-8.302,17.146-14.75,24.309
		c-5.679,6.307-19.126,2.979-25.182-5.692c-3.567-5.109-6.332-10.367-7.86-16.423c-1.033-4.096-4.105-2.634-6.016-0.977
		c-26.896,23.324-58.373,30.439-92.66,24.621c-15.486-2.627-29.522-9.868-40.322-22.251c-4.024-4.613-8.349-8.875-11.272-14.359
		c-1.637-3.068-3.995-4.158-7.545-2.136c-23.359,13.309-48.729,21.729-74.469,28.616c-21.5,5.752-42.968,13.332-65.915,10.438
		c-15.6-1.966-30.226-6.737-43.288-15.734c-6.335-4.364-10.912-0.91-16.539,2.428c-9.878,5.859-20.19,11.224-31.788,13.372
		c-8.703,1.612-17.066,1.981-24.935-3.08c-9.274-5.967-11.545-15.528-12.968-25.342c-2.778-19.162-2.108-38.369-0.198-57.587
		c0.674-6.787,0.636-13.646,0.842-20.476c0.027-0.878-0.435-1.771-0.67-2.657c-0.825,0.517-1.818,0.879-2.448,1.572
		c-6.118,6.72-7.643,15.724-11.538,23.559c-7.185,14.454-12.643,29.643-18.041,44.841c-3.506,9.869-6.327,20.145-12.564,28.707
		c-4.99,6.852-11.622,11.406-20.864,8.723c-12.538-3.642-18.563-10.796-19.725-21.171c-1.232-11.008,0.302-21.791,1.611-32.541
		c2.08-17.084,5.077-34.056,7.732-51.067c0.175-1.125,0.897-2.575-0.555-2.865c-0.817-0.162-2.251,0.919-2.854,1.813
		c-10.435,15.458-17.955,32.353-25.359,49.425c-6.06,13.972-13.95,27.174-21.441,40.486c-3.403,6.049-7.345,11.692-13.949,15.285
		c-13.336,7.257-26.206-1.095-29.955-12.996c-3.355-10.649-4.824-11.051-14.107-4.854c-12.19,8.139-25.97,12.33-39.906,16.007
		c-9.967,2.63-20.239,3.974-30.536,3.371c-17.975-1.053-33.641-6.486-45.075-22.025c-6.421-8.726-11.548-17.505-13.749-28.091
		c-1.513-7.281-7.999-7.255-13.407-7.876c-12.096-1.389-23.626-4.55-34.452-10.027c-1.512-0.765-2.95-3.404-2.934-5.162
		c0.074-7.802,3.585-14.741,8.908-19.828c4.509-4.31,9.733-0.884,14.447,2.125c7.538,4.811,16.082,4.935,24.625,3.752
		c2.201-0.305,3.068-2.202,3.33-4.564c2.334-21.092,10.747-39.935,21.589-57.877c7.933-13.127,18.569-24.17,32.449-29.854
		c17.719-7.255,36.16-8.608,54.485,1.001c23.248,12.191,23.973,42.335,13.659,62.253c-7.726,14.921-19.783,25.388-33.271,34.828
		c-11.765,8.234-24.665,14.124-37.524,20.188c-6.478,3.054-7.098,10.102-1.866,15.2c8.468,8.251,18.891,7.62,28.826,5.932
		c23.441-3.986,43.485-16.055,62.803-29.154c5.605-3.8,3.743-11.091,5.086-16.827c3.596-15.358,6.797-30.812,10.617-46.111
		c3.237-12.966,7.535-25.672,10.605-38.672c3.476-14.726,23.421-22.539,35.215-13.076c2.663,2.137,3.714,5.872,3.819,9.496
		c0.403,13.859-2.911,27.209-5.562,40.657c-1.831,9.284-3.47,18.607-5.105,27.929c-0.096,0.548,0.504,1.362,1.004,1.796
		c0.187,0.163,1.255-0.256,1.509-0.666c6.827-11.036,13.264-22.331,20.47-33.113c8.966-13.416,15.568-28.787,29.379-38.41
		c7.162-4.991,14.491-10.028,24.042-9.317c7.533,0.561,11.251,4.047,11.813,11.894c1.212,16.91-2.576,33.019-6.856,49.089
		c-1.515,5.688-3.523,11.243-5.136,16.908c-0.247,0.866,0.106,2.479,0.742,2.899c1.258,0.831,1.504-0.7,2.034-1.507
		c5.556-8.463,11.146-16.904,16.707-25.363c8.844-13.45,17.739-26.867,26.489-40.377c7.966-12.301,23.772-17.766,36.236-12.08
		c5.863,2.675,8.087,8.034,7.935,14.065c-0.45,17.86-3.563,35.412-6.264,53.034c-3.185,20.779-8.802,41.326-6.395,62.739
		c1.368,12.176,9.062,15.901,21.976,8.958c7.134-3.835,16.166-6.738,18.747-15.5c2.336-7.932,2.739-16.439,3.927-24.704
		c3.071-21.372,6.19-42.739,9.125-64.132c2.134-15.561,3.92-31.168,6.011-46.735c3.556-26.475,7.143-52.844,15.674-78.453
		c6.678-20.047,15.341-39.042,25.776-57.185c4.857-8.447,12.279-15.226,20.439-21.295c7.062-5.254,14.766-8.842,22.354-12.854
		c8.83-4.67,26.384,1.626,31.938,10.443C585.8,341.263,589.697,356.687,589.125,371.629z M502.273,648.659
		c14.235,0.299,22.968-4.133,31.516-11.426c11.901-10.155,16.35-23.869,20.239-37.582c3.108-10.955,3.493-22.767,1.738-34.35
		c-1.416-9.352-4.687-18.95-13.234-22.57c-18.098-7.666-36.215-0.875-44.85,16.558c-12.667,25.573-17.266,53.238-17.914,81.622
		c-0.044,1.933,1.197,2.905,2.438,3.839C489.235,650.032,497.51,648.28,502.273,648.659z M489.274,506.728
		c-0.3-0.718-0.057-0.135,0.187,0.448c1.438-1.459,3.24-2.702,4.255-4.412c7.759-13.059,15.445-26.161,22.996-39.339
		c12.506-21.823,23.322-44.449,31.392-68.3c3.913-11.567,7.326-23.361,3.381-35.671c-2.267-7.073-6.317-7.849-11.567-2.623
		c-11.151,11.097-16.83,25.562-22.693,39.506c-7.878,18.732-12.354,38.718-17.451,58.406
		C495.449,471.452,490.284,487.992,489.274,506.728z M731.852,544.144c-0.134-2.531-0.587-4.955-1.237-7.459
		c-1.487-5.726-4.42-10.125-9.959-11.652c-5.862-1.616-11.795-1.004-16.154,4.207c-12.266,14.658-20.618,31.094-22.784,50.335
		c-1.246,11.077,2.301,14.466,12.843,10.396c7.989-3.084,15.836-6.409,22.476-13.006
		C726.481,567.578,732.423,557.578,731.852,544.144z M96.047,593.058c10.468-0.051,17.203-3.106,32.682-14.274
		c10.268-7.408,16.682-17.464,17.009-30.176c0.141-5.498,0.797-12.556-5.99-15.799c-8.413-4.021-19.627-1.081-25.595,6.062
		c-10.758,12.878-17.982,27.4-19.653,44.155C94.194,586.097,89.93,592.531,96.047,593.058z"/>
	<path fill-rule="evenodd" clip-rule="evenodd" fill="none" d="M502.273,648.659c-4.764-0.379-13.038,1.373-20.066-3.909
		c-1.241-0.934-2.483-1.906-2.438-3.839c0.648-28.384,5.247-56.049,17.914-81.622c8.635-17.433,26.752-24.224,44.85-16.558
		c8.548,3.62,11.818,13.219,13.234,22.57c1.755,11.583,1.37,23.395-1.738,34.35c-3.89,13.713-8.338,27.427-20.239,37.582
		C525.241,644.526,516.509,648.958,502.273,648.659z"/>
	<path fill-rule="evenodd" clip-rule="evenodd" fill="none" d="M489.274,506.728c1.01-18.736,6.174-35.276,10.499-51.984
		c5.097-19.688,9.573-39.674,17.451-58.406c5.863-13.944,11.542-28.41,22.693-39.506c5.25-5.226,9.301-4.45,11.567,2.623
		c3.945,12.31,0.532,24.104-3.381,35.671c-8.069,23.851-18.886,46.477-31.392,68.3c-7.551,13.179-15.237,26.281-22.996,39.339
		c-1.016,1.71-2.817,2.953-4.255,4.412C489.217,506.593,488.974,506.01,489.274,506.728z"/>
	<path fill-rule="evenodd" clip-rule="evenodd" fill="none" d="M731.852,544.144c0.571,13.435-5.37,23.435-14.816,32.82
		c-6.64,6.597-14.486,9.922-22.476,13.006c-10.542,4.07-14.089,0.682-12.843-10.396c2.166-19.241,10.519-35.677,22.784-50.335
		c4.359-5.211,10.292-5.823,16.154-4.207c5.539,1.527,8.472,5.927,9.959,11.652C731.265,539.188,731.718,541.612,731.852,544.144z"
		/>
	<path fill-rule="evenodd" clip-rule="evenodd" fill="none" d="M96.047,593.058c-6.117-0.526-1.853-6.961-1.547-10.031
		c1.67-16.755,8.895-31.277,19.653-44.155c5.968-7.144,17.183-10.084,25.595-6.062c6.787,3.243,6.131,10.301,5.99,15.799
		c-0.328,12.712-6.742,22.768-17.009,30.176C113.25,589.951,106.515,593.007,96.047,593.058z"/>
</g>
</svg>
