<?xml version="1.0" encoding="utf-8"?>
<!-- Generator: Adobe Illustrator 16.2.1, SVG Export Plug-In . SVG Version: 6.00 Build 0)  -->
<!DOCTYPE svg PUBLIC "-//W3C//DTD SVG 1.1//EN" "http://www.w3.org/Graphics/SVG/1.1/DTD/svg11.dtd">
<svg version="1.1" id="Layer_1" xmlns="http://www.w3.org/2000/svg" xmlns:xlink="http://www.w3.org/1999/xlink" x="0px" y="0px"
	 width="1000px" height="1000px" viewBox="0 0 1000 1000" enable-background="new 0 0 1000 1000" xml:space="preserve">
<path fill="#010101" d="M588.943,371.883c0.584,19.817-3.843,36.982-10.161,53.582c-8.575,22.521-19.946,43.644-34.16,63.195
	c-3.179,4.378-5.921,9.081-8.734,13.709c-0.424,0.698-0.141,1.828-0.185,2.759c0.871-0.152,1.836-0.114,2.598-0.489
	c18.507-9.105,29.828-5.843,44.572,8.51c16.695,16.25,20.074,35.938,17.482,58.074c-2.12,18.107-8.652,34.535-16.113,50.805
	c-0.491,1.068-0.717,2.264-1.064,3.396c2.746-0.212,5.926,0.403,8.17-0.769c13.307-6.968,26.738-13.724,39.164-22.283
	c6.152-4.238,4.395-10.888,5.424-16.427c4.166-22.457,12.518-43.061,26.005-61.424c8.544-11.63,18.909-22.588,31.287-29.041
	c17.597-9.172,37.576-13.382,56.821-3.852c12.59,6.235,17.17,19.016,18.779,32.146c3.307,26.989-5.645,49.684-25.947,67.79
	c-14.461,12.897-30.812,22.522-49.242,28.762c-3.812,1.29-9.093,2.957-3.141,9.469c11.029,12.072,24.935,10.986,38.202,8.587
	c20.286-3.667,37.113-15.587,54.63-25.946c14.334-8.483,12.999-22.516,15.543-35.205c3.963-19.751,8.415-39.343,13.689-58.786
	c1.525-5.63,5.109-10.458,5.186-16.696c0.08-6.568,6.087-9.26,11.054-10.041c5.754-0.906,12.458-3.478,17.717,2.562
	c3.725,4.278,2.171,9.42,2.491,13.975c0.891,12.674,0.568,25.435,0.787,38.159c0.016,0.888,0.282,2.255,0.859,2.545
	c1.263,0.636,1.943-0.525,2.543-1.574c6.227-10.917,11.323-22.415,18.386-32.953c7.739-11.549,17.774-19.616,30.686-23.804
	c6.338-2.055,14.341,3.99,15.396,16.535c1.174,13.934,0.362,27.786-0.359,41.7c-0.668,12.837-0.648,26.181,9.675,35.755
	c5.843,5.417,13.876,3.372,21.259,2.131c12.08-2.031,22.364-7.914,32.579-14.184c4.162-2.557,9.629-3.089,13.402-0.854
	c4.69,2.783,4.856,8.55,4.763,14.038c-0.223,12.786-10.203,16.98-18.86,22.344c-12.593,7.802-25.984,13.573-40.684,16.311
	c-12.871,2.396-25.448,2.1-35.72-6.562c-12.628-10.651-18.146-25.471-20.812-41.486c-0.873-5.245-2.349-10.399-3.76-15.533
	c-0.243-0.885-1.554-1.472-2.369-2.191c-0.593,0.706-1.368,1.324-1.753,2.133c-7.851,16.487-12.796,34.072-19.281,51.073
	c-5.717,14.993-10.877,30.187-16.779,45.127c-3.623,9.171-8.284,17.111-14.719,24.261c-5.669,6.295-19.086,2.973-25.133-5.681
	c-3.557-5.097-6.32-10.347-7.842-16.39c-1.031-4.088-4.098-2.63-6.007-0.975c-26.841,23.276-58.256,30.375-92.475,24.57
	c-15.452-2.622-29.462-9.847-40.239-22.206c-4.016-4.604-8.334-8.857-11.249-14.33c-1.633-3.062-3.987-4.15-7.529-2.132
	c-23.312,13.281-48.632,21.686-74.32,28.56c-21.457,5.74-42.884,13.303-65.783,10.416c-15.571-1.962-30.168-6.724-43.201-15.702
	c-6.322-4.353-10.891-0.906-16.506,2.426c-9.858,5.845-20.15,11.2-31.725,13.345c-8.686,1.606-17.032,1.975-24.886-3.074
	c-9.255-5.955-11.524-15.497-12.944-25.291c-2.77-19.123-2.101-38.292-0.194-57.474c0.672-6.771,0.634-13.618,0.84-20.436
	c0.024-0.876-0.437-1.767-0.669-2.651c-0.823,0.518-1.814,0.877-2.443,1.568c-6.106,6.706-7.627,15.692-11.515,23.513
	c-7.17,14.424-12.617,29.586-18.005,44.753c-3.499,9.85-6.314,20.104-12.536,28.65c-4.98,6.838-11.599,11.38-20.823,8.705
	c-12.513-3.634-18.526-10.774-19.686-21.128c-1.229-10.986,0.301-21.748,1.607-32.477c2.076-17.051,5.067-33.989,7.717-50.966
	c0.175-1.123,0.895-2.569-0.554-2.856c-0.816-0.162-2.247,0.917-2.848,1.808c-10.415,15.427-17.919,32.29-25.309,49.327
	c-6.048,13.944-13.922,27.119-21.398,40.404c-3.396,6.037-7.33,11.667-13.921,15.254c-13.309,7.243-26.153-1.094-29.895-12.969
	c-3.348-10.628-4.814-11.029-14.079-4.845c-12.166,8.124-25.918,12.305-39.827,15.977c-9.947,2.626-20.198,3.966-30.474,3.362
	c-17.939-1.051-33.574-6.471-44.985-21.979c-6.408-8.711-11.524-17.471-13.722-28.035c-1.51-7.266-7.983-7.241-13.38-7.86
	c-12.071-1.388-23.579-4.543-34.382-10.006c-1.509-0.765-2.944-3.398-2.928-5.152c0.073-7.786,3.578-14.712,8.89-19.789
	c4.5-4.3,9.714-0.882,14.418,2.121c7.523,4.803,16.05,4.928,24.576,3.744c2.197-0.304,3.062-2.196,3.323-4.552
	c2.33-21.051,10.726-39.857,21.546-57.762c7.917-13.1,18.532-24.121,32.384-29.794c17.683-7.241,36.087-8.589,54.376,0.999
	c23.201,12.166,23.925,42.249,13.632,62.128c-7.71,14.893-19.744,25.34-33.205,34.758c-11.741,8.219-24.615,14.097-37.449,20.149
	c-6.466,3.047-7.083,10.08-1.862,15.168c8.451,8.234,18.853,7.603,28.768,5.921c23.395-3.979,43.398-16.023,62.678-29.096
	c5.594-3.792,3.736-11.069,5.076-16.794c3.589-15.324,6.784-30.749,10.596-46.017c3.23-12.94,7.52-25.622,10.583-38.595
	c3.469-14.698,23.374-22.493,35.145-13.05c2.658,2.133,3.707,5.86,3.811,9.478c0.403,13.828-2.905,27.155-5.551,40.573
	c-1.827,9.265-3.462,18.57-5.095,27.875c-0.096,0.548,0.503,1.357,1.002,1.792c0.188,0.163,1.252-0.254,1.506-0.664
	c6.813-11.015,13.238-22.286,20.429-33.047c8.948-13.389,15.537-28.729,29.32-38.334c7.147-4.98,14.462-10.005,23.994-9.295
	c7.518,0.56,11.229,4.039,11.788,11.87c1.21,16.875-2.568,32.955-6.84,48.989c-1.513,5.679-3.516,11.222-5.125,16.875
	c-0.247,0.864,0.104,2.476,0.737,2.894c1.259,0.829,1.502-0.698,2.03-1.505c5.547-8.448,11.124-16.869,16.674-25.311
	c8.826-13.424,17.704-26.814,26.437-40.297c7.949-12.278,23.723-17.733,36.164-12.056c5.849,2.67,8.071,8.018,7.918,14.034
	c-0.449,17.825-3.555,35.342-6.251,52.929c-3.181,20.736-8.787,41.242-6.384,62.612c1.365,12.152,9.045,15.87,21.935,8.94
	c7.12-3.827,16.134-6.725,18.71-15.469c2.331-7.916,2.73-16.406,3.919-24.655c3.062-21.329,6.175-42.653,9.106-64.003
	c2.13-15.531,3.912-31.105,5.999-46.642c3.548-26.422,7.131-52.738,15.643-78.296c6.667-20.006,15.312-38.963,25.725-57.07
	c4.845-8.431,12.254-15.196,20.396-21.252c7.049-5.244,14.739-8.825,22.31-12.828c8.812-4.661,26.331,1.623,31.873,10.421
	C585.624,341.578,589.514,356.971,588.943,371.883z M502.266,648.359c14.203,0.297,22.921-4.125,31.451-11.404
	c11.878-10.134,16.318-23.82,20.2-37.506c3.099-10.934,3.485-22.725,1.731-34.284c-1.414-9.332-4.677-18.913-13.205-22.523
	c-18.064-7.65-36.142-0.873-44.763,16.525c-12.642,25.522-17.231,53.133-17.878,81.46c-0.043,1.929,1.195,2.899,2.433,3.831
	C489.253,649.729,497.511,647.98,502.266,648.359z M489.292,506.711c-0.302-0.716-0.06-0.135,0.187,0.448
	c1.436-1.457,3.233-2.698,4.246-4.404c7.742-13.032,15.415-26.108,22.95-39.26c12.48-21.779,23.275-44.36,31.329-68.163
	c3.905-11.544,7.311-23.314,3.376-35.6c-2.264-7.06-6.304-7.833-11.544-2.618c-11.129,11.075-16.797,25.511-22.648,39.427
	c-7.862,18.695-12.328,38.641-17.413,58.29C495.454,471.506,490.3,488.014,489.292,506.711z M731.384,544.053
	c-0.133-2.524-0.586-4.942-1.231-7.445c-1.485-5.714-4.412-10.104-9.939-11.626c-5.851-1.612-11.771-1.002-16.122,4.199
	c-12.241,14.629-20.576,31.031-22.738,50.233c-1.244,11.056,2.3,14.438,12.819,10.376c7.972-3.078,15.805-6.395,22.432-12.98
	C726.024,567.44,731.954,557.46,731.384,544.053z M96.851,592.869c10.447-0.051,17.169-3.098,32.617-14.244
	c10.248-7.393,16.649-17.429,16.975-30.115c0.141-5.486,0.795-12.533-5.978-15.771c-8.396-4.013-19.588-1.077-25.544,6.051
	c-10.736,12.853-17.946,27.346-19.613,44.067C95.002,585.922,90.747,592.343,96.851,592.869z"/>
</svg>
