<?xml version="1.0" encoding="utf-8"?>
<!-- Generator: Adobe Illustrator 16.2.1, SVG Export Plug-In . SVG Version: 6.00 Build 0)  -->
<!DOCTYPE svg PUBLIC "-//W3C//DTD SVG 1.1//EN" "http://www.w3.org/Graphics/SVG/1.1/DTD/svg11.dtd">
<svg version="1.1" id="Layer_1" xmlns="http://www.w3.org/2000/svg" xmlns:xlink="http://www.w3.org/1999/xlink" x="0px" y="0px"
	 width="1000px" height="1000px" viewBox="0 0 1000 1000" enable-background="new 0 0 1000 1000" xml:space="preserve">
<path fill="#010101" d="M673.441,434.528c7.164,9.17,14.744,21.926,14.744,40.257c0,44.234-34.672,70.137-84.879,70.137
	c-12.763,0-24.323-1.588-31.487-3.582l-13.161,21.121l39.055,2.384c68.953,4.396,109.59,6.395,109.59,59.379
	c0,45.843-40.238,71.735-109.59,71.735c-72.134,0-99.635-18.335-99.635-49.813c0-17.941,7.977-27.484,21.92-40.659
	c-13.156-5.559-17.535-15.518-17.535-26.282c0-8.774,4.379-16.743,11.564-24.323c7.178-7.562,15.143-15.143,24.708-23.907
	c-19.524-9.565-34.277-30.289-34.277-59.786c0-45.827,30.293-77.301,91.26-77.301c17.137,0,27.508,1.579,36.675,3.984h77.719v33.867
	L673.441,434.528z M555.475,616.272c-5.188,6.368-10.361,13.139-10.361,21.121c0,15.93,20.315,20.724,48.221,20.724
	c23.116,0,54.604-1.619,54.604-23.111c0-12.776-15.146-13.563-34.287-14.762L555.475,616.272z M599.309,433.325
	c-21.926,0-38.258,10.767-38.258,36.677c0,19.522,10.769,33.077,37.078,33.077c22.301,0,37.452-13.143,37.452-33.884
	C635.581,445.69,622.026,433.325,599.309,433.325z M728.805,601.613V570.14l20.334-2.782c5.581-0.805,6.373-1.994,6.373-7.986
	V442.207c0-4.376-1.189-7.177-5.188-8.362l-21.52-7.58l4.383-32.27h82.504v165.377c0,6.391,0.389,7.182,6.381,7.986l20.326,2.782
	v31.474H728.805z M780.229,362.108c-22.723,0-35.87-13.163-35.87-35.888c0-22.698,13.147-35.061,35.87-35.061
	c23.115,0,36.268,12.363,36.268,35.061C816.496,348.945,803.344,362.108,780.229,362.108z M1000,586.158
	c-17.141,8.362-42.246,15.938-64.974,15.938c-47.425,0-65.354-19.113-65.354-64.169V433.52c0-2.386,0-3.986-3.197-3.986h-27.896
	v-35.47c35.083-3.996,49.022-21.535,53.404-64.974h37.869v56.611c0,2.779,0,3.984,3.192,3.984h56.187v39.848h-59.379v95.242
	c0,23.514,5.585,32.673,27.096,32.673c11.171,0,22.718-2.782,32.283-6.368L1000,586.158z M409.488,481.576L227.261,299.36
	c-10.487-10.496-27.507-10.496-38.008,0l-37.837,37.842l47.998,48c11.158-3.768,23.948-1.241,32.838,7.651
	c8.938,8.946,11.446,21.846,7.584,33.042l46.261,46.261c11.193-3.857,24.106-1.364,33.044,7.589
	c12.494,12.49,12.494,32.728,0,45.223c-12.497,12.499-32.737,12.499-45.239,0c-9.396-9.404-11.719-23.203-6.96-34.779
	l-43.144-43.146l-0.004,113.535c3.047,1.503,5.921,3.516,8.458,6.046c12.493,12.486,12.493,32.727,0,45.234
	c-12.495,12.49-32.744,12.49-45.225,0c-12.493-12.508-12.493-32.748,0-45.234c3.088-3.085,6.659-5.415,10.471-6.976V445.06
	c-3.812-1.558-7.378-3.875-10.471-6.979c-9.463-9.456-11.741-23.344-6.889-34.964l-47.316-47.325L7.873,480.733
	c-10.498,10.505-10.498,27.523,0,38.019l182.228,182.216c10.491,10.496,27.507,10.496,38.012,0l181.375-181.371
	C419.984,509.097,419.984,492.072,409.488,481.576z"/>
</svg>
