<?xml version="1.0" encoding="utf-8"?>
<!-- Generator: Adobe Illustrator 16.2.1, SVG Export Plug-In . SVG Version: 6.00 Build 0)  -->
<!DOCTYPE svg PUBLIC "-//W3C//DTD SVG 1.1//EN" "http://www.w3.org/Graphics/SVG/1.1/DTD/svg11.dtd">
<svg version="1.1" id="Layer_1" xmlns="http://www.w3.org/2000/svg" xmlns:xlink="http://www.w3.org/1999/xlink" x="0px" y="0px"
	 width="1000px" height="1000px" viewBox="0 0 1000 1000" enable-background="new 0 0 1000 1000" xml:space="preserve">
<path fill="#010101" d="M981.142,455.458L544.52,18.868c-25.127-25.148-65.908-25.148-91.066,0l-90.659,90.67l115.003,115.008
	c26.734-9.027,57.378-2.973,78.679,18.333c21.42,21.435,27.431,52.342,18.173,79.167l110.847,110.841
	c26.818-9.242,57.753-3.268,79.172,18.183c29.938,29.927,29.938,78.428,0,108.365c-29.948,29.948-78.443,29.948-108.393,0
	c-22.512-22.533-28.084-55.605-16.683-83.34L536.226,372.717l-0.011,272.042c7.297,3.601,14.187,8.422,20.262,14.486
	c29.938,29.916,29.938,78.412,0,108.382c-29.938,29.927-78.454,29.927-108.36,0c-29.932-29.97-29.932-78.466,0-108.382
	c7.399-7.394,15.955-12.976,25.089-16.716V367.965c-9.135-3.734-17.68-9.285-25.089-16.721
	c-22.672-22.657-28.132-55.932-16.506-83.774L318.241,154.079L18.866,453.438c-25.153,25.169-25.153,65.956,0,91.104
	l436.617,436.591c25.137,25.147,65.913,25.147,91.082,0l434.576-434.566C1006.289,521.408,1006.289,480.606,981.142,455.458z"/>
</svg>
