<?xml version="1.0" encoding="utf-8"?>
<!-- Generator: Adobe Illustrator 16.2.1, SVG Export Plug-In . SVG Version: 6.00 Build 0)  -->
<!DOCTYPE svg PUBLIC "-//W3C//DTD SVG 1.1//EN" "http://www.w3.org/Graphics/SVG/1.1/DTD/svg11.dtd">
<svg version="1.1" id="Layer_1" xmlns="http://www.w3.org/2000/svg" xmlns:xlink="http://www.w3.org/1999/xlink" x="0px" y="0px"
	 width="1000px" height="1000px" viewBox="0 0 1000 1000" enable-background="new 0 0 1000 1000" xml:space="preserve">
<path fill="#010101" d="M349.38,382.385c14.273,18.27,29.375,43.685,29.375,80.205c0,88.141-69.078,139.746-169.108,139.746
	c-25.429,0-48.46-3.172-62.734-7.146l-26.222,42.09l77.809,4.74c137.38,8.767,218.344,12.741,218.344,118.304
	c0,91.344-80.17,142.932-218.344,142.932C54.786,903.256,0,866.726,0,804c0-35.746,15.886-54.759,43.667-81.008
	C17.454,711.927,8.74,692.075,8.74,670.639c0-17.481,8.714-33.358,23.032-48.47c14.3-15.058,30.168-30.168,49.226-47.632
	c-38.9-19.049-68.285-60.346-68.285-119.114c0-91.304,60.346-154.011,181.813-154.011c34.143,0,54.804,3.146,73.069,7.938H422.44
	v67.474L349.38,382.385z M114.348,744.483c-10.335,12.688-20.644,26.177-20.644,42.09c0,31.736,40.477,41.287,96.074,41.287
	c46.055,0,108.789-3.225,108.789-46.045c0-25.465-30.177-27.033-68.311-29.421L114.348,744.483z M201.682,379.987
	c-43.685,0-76.224,21.45-76.224,73.074c0,38.896,21.455,65.896,73.871,65.896c44.434,0,74.62-26.182,74.62-67.505
	C273.949,404.623,246.944,379.987,201.682,379.987z M459.683,715.276v-62.707l40.513-5.542c11.12-1.604,12.697-3.974,12.697-15.913
	V397.683c0-8.719-2.37-14.301-10.336-16.661l-42.874-15.103l8.731-64.293h164.376v329.488c0,12.741,0.775,14.31,12.715,15.913
	l40.495,5.542v62.707H459.683z M562.137,238.099c-45.271,0-71.465-26.226-71.465-71.501c0-45.222,26.195-69.853,71.465-69.853
	c46.055,0,72.258,24.631,72.258,69.853C634.395,211.873,608.191,238.099,562.137,238.099z M1000,684.484
	c-34.151,16.661-84.171,31.755-129.451,31.755c-94.488,0-130.207-38.081-130.207-127.838V380.375c0-4.753,0-7.943-6.371-7.943
	h-55.579v-70.668c69.897-7.961,97.669-42.904,106.401-129.45h75.447v112.789c0,5.538,0,7.938,6.362,7.938h111.942v79.391H860.24
	v189.757c0,46.848,11.129,65.095,53.984,65.095c22.258,0,45.262-5.542,64.32-12.688L1000,684.484z"/>
</svg>
