<?xml version="1.0" encoding="utf-8"?>
<!-- Generator: Adobe Illustrator 16.2.1, SVG Export Plug-In . SVG Version: 6.00 Build 0)  -->
<!DOCTYPE svg PUBLIC "-//W3C//DTD SVG 1.1//EN" "http://www.w3.org/Graphics/SVG/1.1/DTD/svg11.dtd">
<svg version="1.1" id="Layer_1" xmlns="http://www.w3.org/2000/svg" xmlns:xlink="http://www.w3.org/1999/xlink" x="0px" y="0px"
	 width="1000px" height="1000px" viewBox="0 0 1000 1000" enable-background="new 0 0 1000 1000" xml:space="preserve">
<path fill-rule="evenodd" clip-rule="evenodd" d="M620.257,466.337c-14.63,0.097-35.066,0.235-47.791,0.321
	c-10.972,0.073-15.709,8.799-17.334,14.77c-0.804,3.473-9.082,40.816-9.082,40.816s-3.281,14.009,10.103,13.92
	c13.394-0.089,37.073-0.248,50.878-0.34c13.798-0.095,16.47-14.098,16.47-14.098s9.109-39.896,9.438-42.438
	C633.688,475.357,632.819,466.253,620.257,466.337z M601.688,482.095c0,0-6.907,30.738-8.062,36.15
	c-1.149,5.413-3.108,7.137-6.098,7.137c-2.995,0-17.847,0-25.1,0c-4.603,0-5.18-2.879-4.144-6.907
	c0.809-3.225,7.948-36.296,7.948-36.296c1.273-4.868,5.289-5.148,5.289-5.148s20.841,0,26.248,0
	C603.183,477.03,601.688,482.095,601.688,482.095z M402.401,480.775c0,0-9.115,39.896-9.438,42.438
	c-0.75,3.932,0.119,13.038,12.682,12.951c14.625-0.097,40.625-0.234,53.349-0.321l15.521-69.506
	c-13.394,0.089-41.844,0.248-55.643,0.34C405.066,466.771,402.401,480.775,402.401,480.775z M431.612,524.278c0,0-17.668,0-23.129,0
	c-5.466,0-3.643-5.828-3.643-5.828s6.557-29.138,8.192-35.875c1.641-6.738,5.65-6.687,5.65-6.687h23.556L431.612,524.278z
	 M247.121,516.187c14.855,0,63.877,0.003,63.877,0.003l-4.389,19.653c0,0-52.658,0-65.636,0
	C230.387,535.651,229.363,516.356,247.121,516.187z M962.797,423.211c-46.355,0-256.84,0-266.904,0
	c-10.069,0-20.139,7.407-20.139,7.407s-7.776-7.442-18.796-7.442s-124.626,0-124.626,0l10.07-44.038h-77.505l-9.881,44.07
	c0,0-64.579,0-71.417,0c-14.63,0-23.755,6.84-23.755,6.84s-10.453-6.84-20.327-6.84H111.559l10.068-44.831l-76.536-0.292
	l-23.305,99.645L0,578.346h76.794l23.555-102.328h26.784c0,0,2.469,0.192,1.709,3.61c-0.76,3.418-22.226,98.59-22.226,98.59
	s500.175,0,513.478,0c13.297,0,24.122-6.079,24.122-6.079s8.359,6.079,18.24,6.079c13.107,0,125.326,0,125.326,0l-9.826,43.695
	h78.125l9.26-43.692c0,0,44.829,0.571,68.956,0c24.128-0.572,42.367-14.436,49.016-44.262s15.764-74.088,15.764-74.088
	S1009.146,423.211,962.797,423.211z M139.132,566.83c0,0,17.262-77.194,18.813-85.923c1.551-8.726-1.552-14.349-10.279-14.627
	c-7.559-0.24-55.494,0-55.494,0l-22.28,100.743H32.459l39.157-178.328h37.798l-10.43,45.667c0,0,66.338-0.445,81.072,0
	c12.8,0.386,23.273,11.055,19.588,29.866c-3.686,18.815-22.692,102.601-22.692,102.601H139.132z M209.15,567.023
	c-15.71,0-20.365-17.457-18.813-25.406c1.551-7.951,3.297-15.906,6.609-29.583c3.312-13.677,17.247-27.633,31.793-27.633
	s89.411,0,89.411,0s7.174-19.2-10.667-19.395c-12.412-0.135-100.273,0-100.273,0l6.789-31.712c0,0,108.031-0.222,126.843,0
	c16.488,0.194,22.5,16.583,19.202,30.74c-3.297,14.158-22.518,102.988-22.518,102.988S224.86,567.023,209.15,567.023z
	 M374.544,566.943c-28.553,0-23.027-27.63-23.027-27.63l16.578-74.86c2.995-14.303,15.887-30.665,33.62-30.665
	c17.728,0,80.369,0,80.369,0l10.609-45.306h37.269l-39.374,178.461C490.589,566.943,403.097,566.943,374.544,566.943z
	 M657.249,540.238c0,0-5.072,26.772-32.249,26.772c-27.182,0-73.829,0-100.195,0c-26.369,0-20.081-26.772-20.081-26.772
	s15.823-71.395,17.355-78.019c3.13-11.427,12.342-28.059,33.96-28.059c25.061,0,65.308,0,94.108,0
	c24.748,0,26.572,17.444,25.152,24.948C674.69,463.979,657.249,540.238,657.249,540.238z M785.432,567.011
	c-27.178,0-73.83,0-100.196,0c-26.367,0-20.08-26.772-20.08-26.772s15.822-71.395,17.36-78.019
	c3.124-11.427,12.341-28.059,33.954-28.059c25.061,0,65.313,0,94.114,0c24.742,0,26.572,17.444,25.148,24.948
	c-0.611,4.87-18.053,81.13-18.053,81.13S812.613,567.011,785.432,567.011z M987.755,463.215
	c-1.025,5.745-16.006,72.234-16.006,72.234c-5.542,24.832-20.728,32.627-36.323,32.627s-77.574,0-77.574,0l-10.463,44.326h-36.939
	l39.378-178.028c0,0,83.543,0,114.124,0C991.241,434.374,988.78,457.468,987.755,463.215z M933.37,466.337
	c-14.63,0.097-40.63,0.235-53.354,0.321L864.5,536.164c13.389-0.089,41.839-0.248,55.644-0.34
	c13.798-0.095,16.47-14.098,16.47-14.098s9.109-39.896,9.438-42.438C946.802,475.357,945.933,466.253,933.37,466.337z
	 M916.036,481.717c0,0-6.557,29.139-8.191,35.876c-1.641,6.737-5.65,6.686-5.65,6.686h-23.556l10.626-48.39c0,0,17.668,0,23.129,0
	C917.86,475.889,916.036,481.717,916.036,481.717z M780.688,466.337c-14.625,0.097-35.061,0.235-47.786,0.321
	c-10.976,0.073-15.714,8.799-17.338,14.77c-0.799,3.473-9.077,40.816-9.077,40.816s-3.286,14.009,10.102,13.92
	c13.389-0.089,37.074-0.248,50.873-0.34c13.805-0.095,16.471-14.098,16.471-14.098s9.113-39.896,9.438-42.438
	C794.119,475.357,793.25,466.253,780.688,466.337z M762.631,482.095c0,0-6.907,30.738-8.062,36.15
	c-1.149,5.413-3.108,7.137-6.098,7.137c-2.995,0-17.847,0-25.099,0c-4.604,0-5.181-2.879-4.145-6.907
	c0.81-3.225,7.948-36.296,7.948-36.296c1.274-4.868,5.289-5.148,5.289-5.148s20.841,0,26.248,0
	C764.126,477.03,762.631,482.095,762.631,482.095z M311.665,516.014c-0.789,2.014-0.552,4.345-1.326,6.63
	c-1.162,3.427-2.655,7.474-2.652,11.937c-0.221,0-0.442,0-0.664,0c0,0.222,0,0.443,0,0.661c-23.206,0-46.42,0-69.628,0
	c-1.305-1.551-3.864-2.628-4.641-4.638c-1.306-3.379,2.115-10.311,3.314-11.273c1.321-1.063,2.821-1.312,3.979-2.655
	c0.664,0,1.326,0,1.99,0c0-0.221,0-0.439,0-0.661C265.244,516.014,288.457,516.014,311.665,516.014z M307.022,535.241
	c-17.239,0-34.483,0-51.724,0c-3.587,0-16.177,0.845-17.904-0.661c-3.86-0.998-6.122-6.567-3.979-11.272
	c1.008-2.21,6.083-6.487,8.621-7.294c23.207,0,46.42,0,69.627,0c0,0.222,0,0.44,0,0.661c-1.519,1.687-0.546,3.529-1.326,5.969
	C309.155,526.34,307.822,531.097,307.022,535.241z"/>
</svg>
