<?xml version="1.0" encoding="utf-8"?>
<!-- Generator: Adobe Illustrator 16.2.1, SVG Export Plug-In . SVG Version: 6.00 Build 0)  -->
<!DOCTYPE svg PUBLIC "-//W3C//DTD SVG 1.1//EN" "http://www.w3.org/Graphics/SVG/1.1/DTD/svg11.dtd">
<svg version="1.1" id="Layer_1" xmlns="http://www.w3.org/2000/svg" xmlns:xlink="http://www.w3.org/1999/xlink" x="0px" y="0px"
	 width="1000px" height="1000px" viewBox="0 0 1000 1000" enable-background="new 0 0 1000 1000" xml:space="preserve">
<path fill="#010101" d="M621.546,465.349h-48.203c-8.058,0-16.1,6.585-17.884,14.637l-9.195,41.503
	c-1.78,8.048,3.348,14.635,11.397,14.635h48.207c8.05,0,16.1-6.589,17.88-14.635l9.195-41.503
	C634.728,471.936,629.6,465.349,621.546,465.349z M601.608,482.771c-2.798,12.587-5.599,25.176-8.396,37.766
	c-0.977,4.395-3.718,4.32-7.491,4.32c-8.291,0-16.582,0-24.877,0c-3.653,0-3.686-2.163-3.034-5.116
	c2.789-12.583,5.578-25.171,8.363-37.756c1.028-4.664,2.865-5.492,7.391-5.492c8.15,0,16.297,0,24.447,0
	C602.713,476.494,602.456,478.961,601.608,482.771z M245.956,515.577h65.488l-4.332,19.494h-66.628h-0.001
	c0.005-0.015,0.008-0.026,0.01-0.04c-5.254-0.104-8.58-4.449-7.41-9.752c1.183-5.363,6.538-9.75,11.903-9.75
	C245.315,515.529,245.64,515.545,245.956,515.577z M402.772,478.917l-9.195,41.539c-1.78,8.046,3.328,14.597,11.381,14.597h54.786
	l15.754-70.73h-54.85C412.598,464.322,404.557,470.873,402.772,478.917z M431.475,523.84c-7.423,0-14.846,0-22.273,0
	c-3.231,0-5.1-0.603-4.284-4.296c2.866-12.849,5.731-25.701,8.597-38.553c0.795-3.597,1.881-5.43,5.892-5.43
	c7.632,0,15.26,0,22.888,0C438.689,491.657,435.08,507.748,431.475,523.84z M782.266,465.349h-48.207
	c-8.054,0-16.1,6.585-17.884,14.637l-9.195,41.503c-1.78,8.048,3.348,14.635,11.397,14.635h48.207c8.054,0,16.1-6.589,17.884-14.635
	l9.191-41.503C795.443,471.936,790.319,465.349,782.266,465.349z M762.517,482.771c-2.797,12.587-5.598,25.176-8.399,37.766
	c-0.973,4.395-3.713,4.32-7.491,4.32c-8.291,0-16.582,0-24.873,0c-3.653,0-3.685-2.163-3.038-5.116
	c2.789-12.583,5.582-25.171,8.367-37.756c1.029-4.664,2.865-5.492,7.391-5.492c8.15,0,16.297,0,24.443,0
	C763.622,476.494,763.365,478.961,762.517,482.771z M994.215,433.965c-8.355-10.525-19.439-11.343-31.613-11.343
	c-87.636,0.097-175.276-0.002-262.916-0.002c-8.846,0-16.257,2.859-23.989,6.848c-7.254-5.13-13.801-6.848-22.694-6.848
	c-40.097,0-80.197,0-120.294,0c3.287-14.782,6.571-29.561,9.854-44.338c-25.914,0-51.829,0-77.743,0
	c-3.203,14.417-6.41,28.837-9.613,43.255c-22.791,0-45.583,0-68.37,0c-9.444,0-18.515,2.964-26.436,8.052
	c-7.676-4.776-13.596-6.85-22.69-6.85c-75.226,0-150.45,0-225.673,0c3.444-14.979,6.89-29.959,10.333-44.939
	c-25.873-0.038-51.746-0.079-77.621-0.119C29.833,444.398,14.916,511.116,0,577.832c25.849,0.008,51.699,0.014,77.546,0.022
	c7.777-34.145,15.552-68.29,23.327-102.434c8.746,0,17.492,0,26.242,0c3.123,0,2.508,1.778,1.984,4.127
	c-7.354,32.771-14.709,65.538-22.062,98.307c171.368,0,342.737,0,514.108,0c8.725,0,15.549-1.805,23.401-5.808
	c7.74,5.17,14.577,6.889,24.033,6.806l119.072-0.998c-3.195,14.821-6.387,29.644-9.581,44.465c25.873,0,51.747,0,77.621,0
	c3.203-14.581,6.41-29.157,9.613-43.737c22.151,0,45.02,0.145,67.176,0.145c10.814,0,20.392-3.36,28.899-9.111
	c10.269-6.937,17.937-17.57,20.818-30.688c4.871-22.188,9.77-44.375,14.669-66.557C999.66,459.705,1003.293,445.403,994.215,433.965
	z M187.875,518.849l-10.61,47.712h-37.553l10.545-47.712l8.617-38.839c1.781-8.05-3.397-14.659-11.446-14.659H92.707l-3.279,14.466
	c-0.012,0.062,0.014,0.133,0,0.193l-8.488,38.324h-0.064l-10.738,48.227H32.648l10.738-48.227h-0.128l12.603-56.777
	c0.177-0.8,0.402-1.597,0.643-2.379l0.643-2.701h-0.193L72.13,388.06h37.553l-10.16,45.783h79.542
	c15.214,0,24.91,12.501,21.542,27.714l-12.668,57.292H187.875z M341.21,550.723l-3.507,15.83H212.631
	c-15.214,0-24.906-12.452-21.536-27.666l5.04-22.751h0.023l0.97-4.374c3.367-15.21,18.58-27.668,33.79-27.663l87.513,0.038
	l1.29-5.807c1.375-7.583-3.406-13.729-10.921-14.036H207.493l6.974-31.466l125.719,0.036c14.902,0.293,24.322,12.622,20.995,27.654
	l-2.367,10.678h0.02l-2.87,12.957h0.028l-14.753,66.569H341.21z M373.321,566.561c-15.215,0-24.909-12.438-21.541-27.649
	l17.426-78.447c3.372-15.211,18.551-27.658,33.759-27.65l79.478,0.064l9.967-44.819h37.489l-9.902,44.819l-29.644,133.682H373.321z
	 M623.539,567.604h-97.494c-15.216,0-24.906-12.448-21.537-27.662l17.369-78.41c3.372-15.216,18.575-27.662,33.791-27.662h97.499
	c15.215,0,24.905,12.45,21.533,27.662l-17.37,78.41C653.958,555.155,638.751,567.604,623.539,567.604z M784.255,567.604h-97.494
	c-15.216,0-24.905-12.448-21.537-27.662l17.369-78.41c3.372-15.216,18.575-27.662,33.791-27.662h97.499
	c15.215,0,24.904,12.45,21.533,27.662l-17.37,78.41C814.678,555.155,799.471,567.604,784.255,567.604z M988.054,461.557
	l-17.362,78.382c-3.367,15.21-18.551,27.658-33.758,27.65l-79.479-0.064l-9.967,44.819H810l9.902-44.819l5.209-23.599
	l24.435-110.084h116.966C981.728,433.843,991.426,446.348,988.054,461.557z M934.939,465.351h-54.85L864.4,536.146h54.85
	c8.05,0,16.096-6.615,17.876-14.661l9.195-41.476C948.105,471.964,942.994,465.351,934.939,465.351z M915.344,481.236
	c-2.865,12.85-5.731,25.703-8.597,38.553c-0.796,3.599-1.881,5.43-5.896,5.43c-7.628,0-15.256,0-22.884,0
	c3.604-16.094,7.21-32.188,10.819-48.279c7.423,0,14.846,0,22.272,0C914.291,476.939,916.159,477.542,915.344,481.236z"/>
</svg>
