<?xml version="1.0" encoding="utf-8"?>
<!-- Generator: Adobe Illustrator 16.2.1, SVG Export Plug-In . SVG Version: 6.00 Build 0)  -->
<!DOCTYPE svg PUBLIC "-//W3C//DTD SVG 1.1//EN" "http://www.w3.org/Graphics/SVG/1.1/DTD/svg11.dtd">
<svg version="1.1" id="Layer_1" xmlns="http://www.w3.org/2000/svg" xmlns:xlink="http://www.w3.org/1999/xlink" x="0px" y="0px"
	 width="1000px" height="1000px" viewBox="0 0 1000 1000" enable-background="new 0 0 1000 1000" xml:space="preserve">
<path d="M986.86,310.479c0,0-9.646-49.155-31.871-58.271c-22.232-9.121-28.591-7.739-38.819-1.14
	c-10.875,7.016-18.053,30.08-27.073,35.345c-9.034,5.265-24.066,10.53-24.066,10.53c-10.3-47.259-62.476-69.967-91.319-93.599
	c-14.853-12.537-70.719-75.707-144.89-74.517c0,0-62.577,2.089-115.666,30.63c-53.09,28.541-75.495,69.971-75.495,69.971
	s-21.168-0.615-36.819,13.504c-13.537,12.21-38.366,36.518-38.366,36.518s-32.611,3.492-68.74,12.893
	c-33.677,8.761-72.877,27.282-90.535,41.739c-21.017,17.208-40.006,36.176-51.558,49.716c-8.897,10.433-20.226,33.889-32.223,45.724
	c-14.392,14.199-27.72,18.849-30.993,18.414c0,0,15.651-17.493,11.66-36.211c-1.101-5.183,14.73,16.266,14.73,16.266
	c0-0.003,5.344-16.435,4.301-31.303c-0.776-11.07-7.207-21.143-10.745-23.631c0,0,2.452-3.989,4.912-10.128
	c2.453-6.139,3.683-13.81,3.683-13.81s-20.815,3.341-35.906,14.115c-20.219,14.436-34.496,27.685-42.969,49.716
	c-6.135,15.96,8.286,34.065,11.048,36.215c2.762,2.15,3.992,29.156,18.413,38.362c14.429,9.207,34.985,7.365,34.985,7.365
	s-3.352,24.852-2.762,49.098c0.554,22.535,5.057,44.466,4.912,47.572c-0.309,6.445-7.977,27.009-9.817,30.383
	c-1.842,3.373-34.986,34.978-38.668,38.97s-7.977,12.587-4.603,26.088c1.74,6.984,7.502,29.354,24.857,50.025
	c16.177,19.27,55.851,41.121,77.947,37.438c0.424-0.072-6.747,17.795-7.977,24.857c-1.23,7.063-4.301,26.699,9.509,33.454
	c6.106,2.984,20.917,11.242,39.287,16.881c23.204,7.121,51.414,11.487,67.511,11.659c14.04,0.151,32.82-2.949,40.51-15.651
	c8.12-13.393,5.344-34.417,5.833-39.279c1.23-12.271,15.651-30.389,18.723-35.294c3.064-4.906,2.144-35.288,2.144-35.288
	s12.199,1.885,25.167,2.453c12.961,0.575,26.699-0.158,29.771-0.31c0,0-19.643,7.682-19.643,24.556
	c-0.007,6.459,1.611,21.759,8.595,36.827c11.257,24.297,31.497,50.917,44.192,60.764c20.557,15.953,45.415,17.493,70.272,1.223
	c15.098-9.883,13.501-21.779,19.644-27.001c2.92-2.489,12.148-7.862,20.873-14.731c9.566-7.53,18.558-16.528,18.716-17.492
	c0.158-0.942,3.078,4.157,13.81,6.747c10.321,2.495,28.116,2.46,45.415,2.46c35.302,0,50.645-2.762,50.645-2.762
	s10.768-4.41,16.262-15.652c4.445-9.091,3.928-24.793,3.381-29.461c-1.229-10.437-7.674-15.04-7.674-15.04
	s-0.612-44.501-0.612-53.708s-25.167-75.494-25.167-75.494s15.651,14.73,27.93,25.167c6.128,5.214,22.211,18.902,38.97,20.563
	c43.271,4.294,66.23-24.124,73.042-35.295c9.854-16.162,13.501-35.596,13.501-35.596s45.731,9.811,92.686-4
	C1052.674,543.069,986.86,310.479,986.86,310.479z M99.538,383.679c0,0,8.357,17.874,6.337,14.415
	c-2.015-3.459-8.934-4.323-8.934-4.323S98.38,386.851,99.538,383.679z M79.658,479.072c-14.903-5.679-9.933-24.121-18.449-36.183
	c-8.509-12.062-19.866-31.925,31.928-70.241c0,0-6.387,14.191-7.804,24.125c-1.424,9.933-0.712,17.737-2.129,27.67
	c-1.424,9.933-11.35,19.154-11.35,19.154s3.546,17.737,17.025,21.287c13.486,3.55,32.64-16.32,32.64-16.32l-8.516,26.253
	C113.003,474.818,94.554,484.751,79.658,479.072z M97.395,725.98c-36.186-31.217-24.124-56.053-14.083-63.029
	c11.616-8.078,25.807-24.988,26.857-27.074c1.417-2.834,4.251-12.062,4.963-15.607c0,0,14.896,41.854,24.829,61.016
	c9.933,19.161,27.67,50.37,27.67,50.37C164.797,744.43,158.346,778.56,97.395,725.98z M650.083,697.598
	c0.712,13.479-0.705,51.795,0.72,54.637c1.416,2.841,8.509,6.379,4.963,24.117c-3.547,17.736-14.191,16.32-33.346,16.32
	c-37.935,0-61.023-5.676-61.023-5.676c15.608-17.737,57.887-46.702,71.668-141.186C633.064,645.811,649.378,684.119,650.083,697.598
	z M980.401,422.462c-1.31,45.537-16.788,84.35-33.604,106.337c-82.399,107.719-240.783,11.408-240.783,11.408
	c3.984,26.462-0.849,37.272-0.849,37.272c-2.561,13.651-13.379,34.993-4.561,47.796c16.37,23.758,45.351,6.725,42.682,7.113
	c-31.303,4.553-35.849-11.379-35.849-11.379s17.924,7.682,38.978,1.424c17.22-5.121,21.909-40.113,23.614-38.696
	c1.704,1.417,11.953,3.129,11.953,3.129s-4.84,55.765-60.605,60.318c-21.262,1.733-38.689-17.356-44.947-23.333
	c-6.258-5.978-31.863-28.729-31.863-28.729c-4.223-1.453-21.484-5.092-37.554-13.09c-15.32-7.617-29.591-19.629-29.591-19.629
	c7.121,21.333,48.824,38.25,49.658,40.207c0.418,0.992-9.954,55.549-25.691,96.698c-16.256,42.487-41.1,66.548-46.437,72.201
	c-9.962,10.53-30.728,25.599-37.841,31.575c-7.113,5.978-23.333,15.076-27.887,19.917c-4.553,4.841-12.587,17.442-12.587,17.442
	c-6.135,8.286-24.247,20.255-44.192,4.301c-3.984-3.186-15.263-15.96-24.857-31c-9.588-15.04-17.342-32.533-18.723-37.438
	c-2.762-9.817,0.92-14.73,3.992-18.104c3.071-3.374,34.676-20.564,38.668-23.636s7.063-2.15,8.286,0.31
	c1.23,2.46,7.365,10.437,7.056,7.675c-0.31-2.762-3.064-20.564-3.064-30.691s2.762-32.533,2.144-30.382
	c-0.611,2.15-12.271,32.835-15.033,33.144c-5.625,0.633-38.977,6.136-54.319,5.524c-15.349-0.611-46.343,0.31-51.255-4.604
	c-4.905-4.913-10.43-36.827-10.43-36.827c-0.007,0,1.532,54.011-0.309,67.82c-1.935,14.501-6.157,19.586-7.365,21.794
	c-3.855,7.034-6.639,11.228-13.968,21.945c-7.322,10.717-4.51,9.581-5.639,27.62s-2.05,20.837-26.858,22.527
	c-24.8,1.69-70.1-14.068-80.81-20.276c-10.71-6.207-11.84-14.091-7.898-28.181c3.949-14.091,14.098-64.828,14.098-64.828
	c-59.757-83.436-101.475-193.98-32.137-310.053c51.867-86.816,144.157-108.999,191.693-111.128c0,0-65.274,63.854-87.586,116.965
	c-11.522,27.443-7.365,51.097,5.064,62.145s36.827,58.923,36.827,58.923s-15.191,32.224-11.969,40.51c0,0,7.545,8.883,20.715,20.254
	c13.904,11.998,34.209,26.498,63.526,25.318c18.449-0.74,71.352-31.303,93.908-42.35c22.556-11.049,53.859-11.509,53.859-12.43
	c0-0.432,13.472-27.052,15.197-60.764c1.914-37.676-7.969-83.296-9.674-92.527c-3.223-17.493-9.207-85.162-9.207-85.162
	s-9.206,39.589-5.523,85.162c1.309,16.166,8.897,64.446,8.746,79.638c-0.46,46.033-15.191,59.383-15.191,59.383
	c-30.842-0.46-93.447,35.906-108.178,44.192c-7.365,4.143-18.119,8.603-29.461,8.746c-11.336,0.151-23.254-4.021-28.541-6.904
	c-15.191-8.287-30.382-29.002-30.843-30.383c-1.791-5.373,3.827-26.066,13.35-45.112c18.615-37.244,48.918-80.53,44.652-76.876
	c-6.444,5.524-55.7,70.432-55.7,70.432c-0.647-9.761-23.477-38.669-37.747-58.003c-6.215-8.419-3.057-21.578-1.842-26.699
	c1.403-5.919,10.804-30.598,31.303-57.081c40.049-51.759,105.021-118.979,113.242-126.592
	c12.429-11.509,24.858-11.048,32.224-12.429c7.365-1.381,81.486-15.191,74.574-14.731c-6.905,0.46-60.765,2.762-59.844,0.921
	c2.676-5.352,20.024-29.281,55.7-49.716c30.813-17.651,78.725-31.799,113.71-32.224c42.336-0.518,85.061,30.972,114.163,54.319
	c22.786,18.284,37.46,29.663,35.445,29.461c-4.604-0.46-14.73,2.762-14.73,2.762c8.919-0.177,36.567,5.79,51.558,20.715
	c17.219,17.162,27.642,40.829,31.519,50.101c0.776,1.007,1.352,2.104,1.625,3.298c0.382,1.69-0.18,0.173-1.625-3.298
	c-5.862-7.545-24.556-9.739-34.28-4.067c-6.287,3.668-23.938,6.905-23.938,6.905l15.19,2.762
	c-1.985,3.963-1.157,10.013,0.021,14.799c0.108-1.168,0.367-2.334,0.95-3.441c2.366-4.474,7.919-6.182,12.393-3.819
	c4.143,2.194,5.927,6.769,4.287,11.034c-7.279,0.583-9.487,1.021-15.069,3.517c-0.251-0.244-0.388-0.561-0.597-0.827
	c0.188,0.504,0.316,0.834,0.316,0.834s-11.048,7.366-4.604,5.064c6.445-2.302,36.827-3.223,40.51,0.46s2.762,17.032,2.762,17.032
	c-19.794-10.127-51.557-5.063-58.923,16.572c-2.589,7.61-12.429,32.224-12.429,32.224c5.984-4.144,11.969-24.858,24.397-36.827
	c10.142-9.774,34.065-10.127,27.62-8.746c-6.444,1.381-17.492,19.334-17.953,28.541c-0.46,9.207-5.523,40.97-5.523,40.97
	c7.825-8.286,10.127-44.192,24.857-56.161c13.638-11.084,21.636-6.905,21.636-6.905c5.524,22.096-7.365,79.178-7.365,79.178
	c4.733-9.041,12.969-25.066,16.112-46.494c3.574-24.405,1.683-54.305,0.46-62.145c-2.302-14.731,4.265-19.129,11.509-21.636
	c11.969-4.143,18.873-8.286,29-15.191c10.128-6.905,20.715-27.159,28.081-31.303c7.365-4.143,19.794-5.063,31.763,21.636
	C966.721,304.552,981.984,366.935,980.401,422.462z M22.749,388.092c-11.968,23.017-12.58,55.855-12.58,55.855
	s-3.683-40.819,4.906-59.538c8.595-18.719,30.08-29.461,36.525-34.985C51.599,349.424,34.717,365.075,22.749,388.092z
	 M6.177,382.874c-5.524,10.634-5.812,25.807-5.812,25.807s-1.705-18.859,2.266-27.508s13.896-13.612,16.874-16.162
	C19.505,365.01,11.708,372.239,6.177,382.874z M460.677,151.786c-19.895,16.644-33.094,46.728-33.094,46.728
	s12.3-39.103,27.434-53.079c15.126-13.968,39.092-15.63,47.162-18.248C502.179,127.187,480.586,135.149,460.677,151.786z
	 M447.392,140.601c-9.192,7.693-15.292,21.582-15.292,21.582s5.682-18.057,12.673-24.523c6.992-6.452,18.061-7.211,21.787-8.426
	C466.561,129.233,456.584,132.916,447.392,140.601z M396.137,376.289c-0.338,1.453-0.518,2.287-0.518,2.287
	C395.691,378.029,395.885,377.216,396.137,376.289z M482.96,271.854c-17.658,1.629-34.273-2.014-47.371,10.584
	c-17.586,16.91-25.707,47.375-37.294,86.179c-0.453,1.504-0.936,2.975-1.403,4.456c-0.309,1.284-0.561,2.355-0.755,3.215
	c2.46-9.127,13.148-35.381,25.261-54.485c11.825-18.665,24.944-29.99,27.16-31.842c-1.403,1.23-5.92,6.132-7.215,19.564
	c-1.532,15.957,3.071,36.216,3.071,23.326c0-12.889,13.501-40.204,25.167-48.489c7.79-5.535,26.369-11.469,37.956-14.717
	C500.071,270.289,491.605,271.056,482.96,271.854z M934.93,281.528c2.79-3.784,5.818-7.092,7.731-8.869
	c0.28,0.025,0.468,0.104,0.425,0.299c-1.611,7.336-8.027,41.495-45.71,54.826c-11.3,3.996-21.672,0.158-28.706-3.057
	c3.984-0.399,20.211,2.554,44.228-12.943C927.657,302.261,930.455,287.581,934.93,281.528z M618.118,292.037
	c-11.062,12.526-13.508,31.914-13.508,31.914s0.31-29.461,8.286-39.28c7.977-9.817,32.533-17.492,39.898-19.334
	C652.795,265.337,634.381,273.623,618.118,292.037z M693.613,538.812c-9.639,8.474-16.457,24.858-16.442,25.074
	c0.316,3.078,3.107-28.843,9.437-35.46c6.344-6.604,28.188-7.143,31.828-7.409C718.436,521.017,702.417,531.058,693.613,538.812z
	 M741.488,353.182c0,0-26.916,9.958-46.242,22.984c-19.327,13.026-35.467,30.415-35.467,30.415
	c1.459-2.927,4.013-8.818,11.379-17.046c5.192-6.661,7.609-8.617,16.125-14.026c-0.762-6.271-5.897-10.699-12.371-10.699
	c-6.991,0-12.659,5.668-12.659,12.663c0,5.693,3.726,10.469,8.905,12.062c-11.351-4.524-19.378-15.213-19.607-27.743
	c-3.77,3.298-17.694,14.45-24.24,15.551c10.516-10.983,20.441-22.938,28.455-31.184c4.762-8.042,13.119-13.742,23.017-15.098
	c16.471-7.042,32.31-10.494,32.31-10.494c-2.604,3.312-10.739,8.585-16.738,12.087c11.336,4.096,19.543,14.202,20.479,26.318
	C730.21,353.117,741.488,353.182,741.488,353.182z"/>
</svg>
