<?xml version="1.0" encoding="utf-8"?>
<!-- Generator: Adobe Illustrator 16.2.1, SVG Export Plug-In . SVG Version: 6.00 Build 0)  -->
<!DOCTYPE svg PUBLIC "-//W3C//DTD SVG 1.1//EN" "http://www.w3.org/Graphics/SVG/1.1/DTD/svg11.dtd">
<svg version="1.1" id="Layer_1" xmlns="http://www.w3.org/2000/svg" xmlns:xlink="http://www.w3.org/1999/xlink" x="0px" y="0px"
	 width="1000px" height="1000px" viewBox="0 0 1000 1000" enable-background="new 0 0 1000 1000" xml:space="preserve">
<path fill-rule="evenodd" clip-rule="evenodd" d="M80.509,383.09l-10.912,47.777c0,0,69.402-0.466,84.816,0
	c13.392,0.405,24.349,11.565,20.493,31.247c-3.856,19.684-23.74,107.339-23.74,107.339H111.6c0,0,18.059-80.759,19.682-89.891
	c1.623-9.129-1.623-15.012-10.753-15.304c-7.908-0.251-58.058,0-58.058,0l-23.31,105.398H0L40.965,383.09H80.509z M855.12,430.88
	l-41.196,186.251h38.645l10.947-46.373c0,0,64.84,0,81.156,0s32.203-8.155,38.001-34.134c0,0,15.673-69.561,16.745-75.572
	c1.073-6.013,3.647-30.172-24.902-30.172C942.521,430.88,855.12,430.88,855.12,430.88z M512.234,460.012
	c-1.604,6.93-18.158,81.622-18.158,81.622s-6.577,28.009,21.009,28.009c27.585,0,76.387,0,104.824,0
	c28.432,0,33.738-28.009,33.738-28.009s18.247-79.783,18.885-84.877c1.485-7.852-0.423-26.1-26.314-26.1
	c-30.131,0-72.236,0-98.455,0C525.146,430.657,515.509,448.057,512.234,460.012z M680.081,460.012
	c-1.609,6.93-18.162,81.622-18.162,81.622s-6.577,28.009,21.007,28.009c27.585,0,76.393,0,104.824,0
	c28.438,0,33.738-28.009,33.738-28.009s18.247-79.783,18.885-84.877c1.491-7.852-0.423-26.1-26.309-26.1
	c-30.131,0-72.242,0-98.461,0C692.992,430.657,683.35,448.057,680.081,460.012z M189.924,429.75l-7.103,33.175
	c0,0,91.919-0.141,104.904,0c18.666,0.204,11.16,20.292,11.16,20.292s-78.323,0-93.541,0c-15.218,0-29.796,14.6-33.261,28.909
	c-3.465,14.309-5.292,22.631-6.915,30.949c-1.623,8.316,3.247,26.58,19.683,26.58s134.306,0,134.306,0s20.108-92.934,23.558-107.745
	c3.45-14.812-2.84-31.957-20.089-32.161C302.945,429.519,189.924,429.75,189.924,429.75z M481.492,382.869l-11.1,47.397
	c0,0-65.535,0-84.082,0c-18.552,0-32.039,17.119-35.172,32.083l-17.344,78.317c0,0-5.781,28.906,24.09,28.906
	c29.872,0,121.405,0,121.405,0l41.192-186.704H481.492z M546.814,480.107c-0.842,3.633-9.502,42.701-9.502,42.701
	s-3.433,14.656,10.568,14.563c14.013-0.094,38.786-0.26,53.228-0.356c14.437-0.099,17.231-14.749,17.231-14.749
	s9.529-41.739,9.874-44.398c0.784-4.113-0.124-13.638-13.268-13.551c-15.306,0.103-36.686,0.247-49.998,0.337
	C553.471,464.731,548.514,473.86,546.814,480.107z M714.655,480.107c-0.836,3.633-9.496,42.701-9.496,42.701
	s-3.438,14.656,10.568,14.563c14.007-0.094,38.786-0.26,53.222-0.356c14.442-0.099,17.231-14.749,17.231-14.749
	s9.535-41.739,9.874-44.398c0.785-4.113-0.124-13.638-13.268-13.551c-15.3,0.103-36.68,0.247-49.992,0.337
	C721.312,464.731,716.354,473.86,714.655,480.107z M870.471,537.372c14.007-0.094,43.771-0.26,58.213-0.356
	c14.436-0.099,17.23-14.749,17.23-14.749s9.53-41.739,9.874-44.398c0.785-4.113-0.124-13.638-13.267-13.551
	c-15.306,0.103-42.507,0.247-55.819,0.337L870.471,537.372z M462.472,464.319c-14.013,0.093-43.777,0.26-58.213,0.355
	c-14.441,0.099-17.23,14.75-17.23,14.75s-9.536,41.739-9.875,44.398c-0.785,4.112,0.125,13.64,13.268,13.55
	c15.3-0.103,42.5-0.246,55.813-0.336L462.472,464.319z M224.576,516.472c-18.577,0.178-17.506,20.363-6.431,20.564
	c13.577,0,68.667,0,68.667,0l4.592-20.562C291.404,516.475,240.117,516.472,224.576,516.472z"/>
</svg>
