<?xml version="1.0" encoding="utf-8"?>
<!-- Generator: Adobe Illustrator 16.2.1, SVG Export Plug-In . SVG Version: 6.00 Build 0)  -->
<!DOCTYPE svg PUBLIC "-//W3C//DTD SVG 1.1//EN" "http://www.w3.org/Graphics/SVG/1.1/DTD/svg11.dtd">
<svg version="1.1" id="Layer_1" xmlns="http://www.w3.org/2000/svg" xmlns:xlink="http://www.w3.org/1999/xlink" x="0px" y="0px"
	 width="1000px" height="1000px" viewBox="0 0 1000 1000" enable-background="new 0 0 1000 1000" xml:space="preserve">
<path d="M85.99,567.916v-60.881H21.893v60.881H0V432.293h21.893v56.057H85.99v-56.057h21.7v135.623H85.99z M170.528,567.916V432.293
	h-21.901v135.623H170.528z M301.661,526.924c0,17.678-11.656,41.59-53.236,41.584c-8.233,0-21.895-0.404-36.97-0.594V432.285
	c10.648-0.188,26.113-0.596,42.595-0.596c29.533,0,44.798,12.061,44.798,32.965c0,13.855-9.245,26.113-23.104,30.924v0.406
	C293.423,499.391,301.661,512.863,301.661,526.924L301.661,526.924z M275.943,468.06c0-11.05-6.225-18.881-25.51-18.881
	c-6.032,0-11.862,0.193-17.085,0.404v40.182c3.615,0.197,7.04,0.197,11.656,0.197C265.294,489.962,275.943,481.722,275.943,468.06
	L275.943,468.06z M278.556,527.326c0-15.473-13.859-21.088-32.943-21.088c-2.217,0-9.24,0-12.262,0.195v43.189
	c3.415,0.607,8.85,1.01,15.878,1.01C269.12,550.633,278.556,540.992,278.556,527.326L278.556,527.326z M405.526,567.916v-18.678
	h-49.62v-42.201h47.21v-17.882h-47.21v-38.565h49.62v-18.295h-71.525v135.624h71.525V567.916z M532.256,567.916h-27.521
	l-42.189-58.67h-1.005v58.666h-21.899V432.285c9.842-0.596,21.094-0.793,36.367-0.793c28.129,0,47.41,9.838,47.41,36.761
	c0,21.708-16.272,35.554-38.371,37.978c3.815,4.828,8.041,10.051,11.449,14.473L532.256,567.916L532.256,567.916z M500.52,470.675
	c0-14.87-9.246-21.303-27.528-21.303c-4.216,0-8.232,0.211-11.449,0.407v43c2.004,0.188,5.823,0.41,10.647,0.41
	C489.867,493.191,500.52,484.132,500.52,470.675L500.52,470.675z M669.208,567.916V432.293h-21.292v40.188
	c0,19.892,0.596,49.025,1.407,64.498c-5.023-9.844-10.44-20.688-16.477-30.74l-44.804-73.946h-28.73v135.624h21.301v-45.604
	c0-19.297-0.406-46.812-1.205-60.081c4.219,9.046,9.033,18.688,15.067,28.534l46.407,77.148h28.325V567.916z M814.032,567.916
	h-24.293l-10.46-29.938h-54.844l-10.451,29.938H691.89l48.617-135.623h24.3L814.032,567.916L814.032,567.916z M773.447,520.492
	l-15.464-42.593c-2.611-7.022-4.421-13.455-6.035-20.889h-0.396c-1.404,6.832-3.615,14.269-6.231,21.499l-15.269,41.981h43.395
	V520.492z M905.825,450.783v-18.488h-96.431v18.488h37.164v117.135h21.894V450.783H905.825z M1000,567.916v-18.678h-49.618v-42.201
	h47.21v-17.882h-47.21v-38.565H1000v-18.295h-71.523v135.624H1000V567.916z"/>
</svg>
