<?xml version="1.0" encoding="utf-8"?>
<!-- Generator: Adobe Illustrator 16.2.1, SVG Export Plug-In . SVG Version: 6.00 Build 0)  -->
<!DOCTYPE svg PUBLIC "-//W3C//DTD SVG 1.1//EN" "http://www.w3.org/Graphics/SVG/1.1/DTD/svg11.dtd">
<svg version="1.1" id="Layer_1" xmlns="http://www.w3.org/2000/svg" xmlns:xlink="http://www.w3.org/1999/xlink" x="0px" y="0px"
	 width="1000px" height="1000px" viewBox="0 0 1000 1000" enable-background="new 0 0 1000 1000" xml:space="preserve">
<path d="M64.23,472.133l-32.128,55.705l0,0L0,472.133l32.114-55.623L64.23,472.133L64.23,472.133z M96.362,416.512h-64.23
	l32.116,55.623l64.246-0.002L96.362,416.512z M96.346,527.867l32.114,55.623l32.114-55.623l-32.102-55.708l0,0L96.346,527.867
	L96.346,527.867z M64.212,583.486h64.23l-32.116-55.625l-64.247,0.006L64.212,583.486z M277.021,527.039V417.161h-17.579v45.416
	h-51.929v-45.416h-17.742v109.878h17.742v-49.323h51.929v49.323H277.021L277.021,527.039z M327.938,527.039V417.161h-17.745v109.878
	H327.938L327.938,527.039z M434.186,493.831c0,14.326-9.44,33.697-43.137,33.697c-6.674,0-17.742-0.325-29.952-0.488V417.161
	c8.628-0.163,21.163-0.488,34.51-0.488c23.929,0,36.301,9.766,36.301,26.695c0,11.232-7.488,21.161-18.72,25.068v0.327
	C427.513,471.53,434.186,482.436,434.186,493.831L434.186,493.831z M413.348,446.137c0-8.954-5.045-15.303-20.671-15.303
	c-4.884,0-9.605,0.163-13.836,0.326v32.558c2.929,0.163,5.696,0.163,9.44,0.163C404.723,463.88,413.348,457.204,413.348,446.137
	L413.348,446.137z M415.465,494.156c0-12.532-11.23-17.092-26.695-17.092c-1.792,0-7.488,0-9.929,0.165v34.997
	c2.767,0.488,7.16,0.815,12.858,0.815C407.815,513.04,415.465,505.228,415.465,494.156L415.465,494.156z M518.339,527.039v-15.14
	h-40.206v-34.184h38.253v-14.487h-38.253v-31.256h40.206v-14.812h-57.951v109.878H518.339L518.339,527.039z M621.02,527.039h-22.299
	l-34.185-47.533h-0.813v47.533H545.98V417.161c7.976-0.488,17.091-0.651,29.462-0.651c22.79,0,38.418,7.976,38.418,29.79
	c0,17.581-13.188,28.813-31.093,30.764c3.094,3.907,6.51,8.14,9.277,11.72L621.02,527.039L621.02,527.039z M595.302,448.252
	c0-12.046-7.487-17.255-22.302-17.255c-3.416,0-6.672,0.163-9.277,0.325v34.836c1.629,0.163,4.719,0.326,8.626,0.326
	C586.675,466.484,595.302,459.159,595.302,448.252L595.302,448.252z M731.982,527.039V417.161h-17.257v32.556
	c0,16.116,0.492,39.72,1.144,52.254c-4.07-7.978-8.465-16.767-13.352-24.907l-36.299-59.903h-23.28v109.878h17.259v-36.952
	c0-15.628-0.325-37.928-0.98-48.672c3.42,7.325,7.325,15.138,12.213,23.114l37.601,62.51H731.982L731.982,527.039z M849.32,527.039
	h-19.696l-8.464-24.257h-44.439l-8.464,24.257h-17.904l39.389-109.878h19.698L849.32,527.039L849.32,527.039z M816.438,488.621
	l-12.532-34.509c-2.119-5.697-3.582-10.907-4.884-16.93h-0.323c-1.143,5.535-2.934,11.558-5.051,17.418l-12.371,34.021H816.438
	L816.438,488.621z M923.693,432.136v-14.975h-78.136v14.975h30.116v94.903h17.74v-94.903H923.693L923.693,432.136z M1000,527.039
	v-15.14h-40.208v-34.184h38.252v-14.487h-38.252v-31.256H1000v-14.812h-57.953v109.878H1000L1000,527.039z"/>
</svg>
