<?xml version="1.0" encoding="utf-8"?>
<!-- Generator: Adobe Illustrator 16.2.1, SVG Export Plug-In . SVG Version: 6.00 Build 0)  -->
<!DOCTYPE svg PUBLIC "-//W3C//DTD SVG 1.1//EN" "http://www.w3.org/Graphics/SVG/1.1/DTD/svg11.dtd">
<svg version="1.1" id="Layer_1" xmlns="http://www.w3.org/2000/svg" xmlns:xlink="http://www.w3.org/1999/xlink" x="0px" y="0px"
	 width="1000px" height="1000px" viewBox="0 0 1000 1000" enable-background="new 0 0 1000 1000" xml:space="preserve">
<path d="M59.127,0.001l80.244,900.033L499.458,1000l361.08-100.105L940.873,0L59.127,0.001L59.127,0.001z M773.493,213.595
	l-5.029,55.959l-2.215,24.812h-0.347h-265.9h-0.384H343.842L353.931,407.4h145.687h0.384h226.459h29.751l-2.698,29.644
	l-25.941,290.612l-1.66,18.645l-225.911,62.617v0.018l-0.508,0.142l-226.121-62.775l-15.464-173.315h51.074h59.738l7.859,88.033
	l122.936,33.195l0.104-0.025v-0.012l123.112-33.228l12.813-143.164H500.002h-0.384H252.979l-27.132-304.191l-2.644-29.615h276.415
	h0.384h276.133L773.493,213.595z"/>
</svg>
