<?xml version="1.0" encoding="utf-8"?>
<!-- Generator: Adobe Illustrator 16.2.1, SVG Export Plug-In . SVG Version: 6.00 Build 0)  -->
<!DOCTYPE svg PUBLIC "-//W3C//DTD SVG 1.1//EN" "http://www.w3.org/Graphics/SVG/1.1/DTD/svg11.dtd">
<svg version="1.1" id="Layer_1" xmlns="http://www.w3.org/2000/svg" xmlns:xlink="http://www.w3.org/1999/xlink" x="0px" y="0px"
	 width="1000px" height="1000px" viewBox="0 0 1000 1000" enable-background="new 0 0 1000 1000" xml:space="preserve">
<path fill="#010101" d="M734.027,146.035c-54.641,4.336-100.462,23.995-134.575,57.82c-35.127,34.836-51.895,77.334-51.895,131.251
	c0,80.659,33.103,137.034,106.967,181.7c18.792,11.274,44.376,23.562,88.608,42.643c60.279,25.875,82.685,38.162,96.995,53.483
	c17.634,18.936,22.55,49.147,11.417,72.275c-2.168,4.48-7.803,11.997-12.862,17.057c-17.059,17.202-43.944,26.309-77.335,26.309
	c-56.374,0-98.44-23.128-132.263-73.142c-4.628-6.65-8.82-12.144-9.396-12.144c-1.302,0-111.304,63.458-113.618,65.627
	c-1.446,1.3-0.288,4.336,5.35,13.587c43.944,74.01,112.605,117.375,205.405,129.806c24.286,3.326,69.819,3.181,93.091,0
	c58.399-8.238,102.196-27.608,136.166-60.565C982.22,756.904,1000,711.806,1000,655.286c0-36.138-5.926-64.325-19.37-92.224
	c-9.252-19.08-18.504-31.944-34.404-48.135c-30.499-30.934-69.96-54.352-148.74-88.176c-59.556-25.585-79.502-36.571-92.659-50.592
	c-12.574-13.443-17.922-29.2-16.767-48.858c1.014-15.612,5.35-26.165,14.89-36.427c13.732-14.889,29.633-21.105,54.206-20.96
	c27.896,0,45.966,7.228,64.325,25.729c6.505,6.361,14.887,16.624,18.792,22.839c4.48,7.083,7.806,10.987,8.961,10.552
	c3.758-1.589,108.848-69.528,108.848-70.54c0-0.578-5.351-8.962-11.855-18.792c-13.876-20.814-38.882-46.833-56.084-58.254
	c-31.801-21.104-65.771-31.945-110.581-35.271C757.588,144.445,754.696,144.445,734.027,146.035z M284.042,408.684l-0.434,255.564
	l-3.18,11.997c-4.193,15.757-9.106,25.152-17.78,33.826c-12.143,12.141-27.754,17.2-53.773,17.346
	c-37.15,0.144-59.411-15.611-85.285-59.845c-4.192-6.938-7.95-12.576-8.384-12.431c-0.579,0.29-26.742,16.045-58.109,34.981
	L0,724.815l4.336,8.673c25.874,51.604,70.684,90.632,124.603,108.557c56.952,18.936,130.095,17.202,183.723-4.336
	c64.325-26.02,102.052-79.793,112.026-159.729c0.867-8.095,1.446-98.438,1.446-268.43V153.263h-70.83h-70.686L284.042,408.684z"/>
</svg>
