<?xml version="1.0" encoding="utf-8"?>
<!-- Generator: Adobe Illustrator 16.2.1, SVG Export Plug-In . SVG Version: 6.00 Build 0)  -->
<!DOCTYPE svg PUBLIC "-//W3C//DTD SVG 1.1//EN" "http://www.w3.org/Graphics/SVG/1.1/DTD/svg11.dtd">
<svg version="1.1" id="Layer_1" xmlns="http://www.w3.org/2000/svg" xmlns:xlink="http://www.w3.org/1999/xlink" x="0px" y="0px"
	 width="1000px" height="1000px" viewBox="0 0 1000 1000" enable-background="new 0 0 1000 1000" xml:space="preserve">
<path d="M417.396,530.444c0,0-26.197,15.247,18.665,20.394c54.356,6.205,82.133,5.312,142.015-6.007c0,0,15.775,9.868,37.771,18.415
	C481.56,620.778,311.931,559.914,417.396,530.444L417.396,530.444z M400.978,455.355c0,0-29.386,21.756,15.508,26.396
	c58.07,5.995,103.912,6.486,183.281-8.788c0,0,10.951,11.125,28.199,17.205C465.634,537.651,284.829,493.904,400.978,455.355
	L400.978,455.355z M539.303,327.962c33.104,38.107-8.682,72.372-8.682,72.372s84.01-43.36,45.437-97.685
	c-36.04-50.638-63.67-75.792,85.915-162.542C661.975,140.106,427.161,198.738,539.303,327.962L539.303,327.962z M716.902,585.994
	c0,0,19.393,15.986-21.36,28.349c-77.491,23.473-322.589,30.553-390.665,0.939c-24.455-10.65,21.426-25.415,35.862-28.532
	c15.052-3.256,23.646-2.663,23.646-2.663c-27.216-19.165-175.911,37.642-75.521,53.934
	C562.634,682.396,787.905,618.033,716.902,585.994L716.902,585.994z M430.003,377.544c0,0-124.655,29.616-44.142,40.38
	c34.006,4.551,101.756,3.504,164.91-1.795c51.599-4.331,103.381-13.592,103.381-13.592s-18.182,7.799-31.346,16.782
	c-126.61,33.3-371.154,17.792-300.743-16.253C381.583,374.271,430.003,377.544,430.003,377.544L430.003,377.544z M653.637,502.535
	c128.695-66.858,69.185-131.115,27.649-122.46c-10.157,2.119-14.714,3.956-14.714,3.956s3.784-5.929,10.99-8.479
	c82.17-28.875,145.351,85.192-26.498,130.367C651.062,505.918,653.039,504.128,653.637,502.535L653.637,502.535z M576.059,0
	c0,0,71.26,71.299-67.606,180.906c-111.361,87.958-25.392,138.09-0.04,195.397c-65.01-58.648-112.692-110.284-80.709-158.336
	C474.67,147.444,604.804,113.241,576.059,0L576.059,0z M442.656,683.763c123.506,7.896,313.215-4.394,317.705-62.841
	c0,0-8.63,22.157-102.078,39.736c-105.427,19.849-235.485,17.537-312.594,4.806C345.688,665.464,361.485,678.539,442.656,683.763
	L442.656,683.763z M422.418,907.076c-11.647,10.097-23.963,15.774-35.019,15.774c-15.747,0-24.288-9.463-24.288-24.604
	c0-16.392,9.145-28.39,45.767-28.39h13.539V907.076L422.418,907.076L422.418,907.076z M454.568,943.345V831.068
	c0-28.7-16.368-47.637-55.81-47.637c-23.015,0-43.194,5.689-59.598,12.935l4.721,19.887c12.919-4.745,29.627-9.151,46.031-9.151
	c22.727,0,32.505,9.151,32.505,28.077v14.197h-11.357c-55.206,0-80.112,21.408-80.112,53.616c0,27.744,16.416,43.52,47.317,43.52
	c19.859,0,34.701-8.2,48.557-20.203l2.522,17.036H454.568L454.568,943.345z M561.862,943.345h-40.094l-48.261-157.046h35.016
	l29.956,96.503l6.662,28.993c15.12-41.937,25.844-84.517,31.206-125.496h34.057C601.298,838.01,584.865,894.775,561.862,943.345
	L561.862,943.345z M715.708,907.076c-11.686,10.097-24.005,15.774-35.029,15.774c-15.753,0-24.294-9.463-24.294-24.604
	c0-16.392,9.164-28.39,45.753-28.39h13.568v37.22H715.708L715.708,907.076z M747.869,943.345V831.068
	c0-28.7-16.415-47.637-55.821-47.637c-23.046,0-43.22,5.689-59.623,12.935l4.729,19.887c12.926-4.745,29.656-9.151,46.058-9.151
	c22.699,0,32.495,9.151,32.495,28.077v14.197H704.35c-55.218,0-80.117,21.408-80.117,53.616c0,27.744,16.395,43.52,47.295,43.52
	c19.873,0,34.688-8.2,48.581-20.203l2.54,17.036H747.869L747.869,943.345z M295.691,970.034
	c-9.16,13.385-23.974,23.988-40.177,29.966l-15.874-18.698c12.343-6.341,22.916-16.558,27.835-26.071
	c4.242-8.48,6.009-19.381,6.009-45.476V730.438h34.168v176.846C307.652,942.184,304.866,956.292,295.691,970.034L295.691,970.034z"
	/>
</svg>
