<?xml version="1.0" encoding="utf-8"?>
<!-- Generator: Adobe Illustrator 16.2.1, SVG Export Plug-In . SVG Version: 6.00 Build 0)  -->
<!DOCTYPE svg PUBLIC "-//W3C//DTD SVG 1.1//EN" "http://www.w3.org/Graphics/SVG/1.1/DTD/svg11.dtd">
<svg version="1.1" id="Layer_1" xmlns="http://www.w3.org/2000/svg" xmlns:xlink="http://www.w3.org/1999/xlink" x="0px" y="0px"
	 width="1000px" height="1000px" viewBox="0 0 1000 1000" enable-background="new 0 0 1000 1000" xml:space="preserve">
<path d="M37.757,500.95l-4.03-4.021c-12.499-12.504-16.368-30.36-11.635-46.194c-12.495-2.824-21.827-13.996-21.827-27.348
	c0.003-15.481,12.552-28.036,28.032-28.036c13.937,0.007,25.493,10.174,27.666,23.494c15.124-3.546,31.677,0.579,43.471,12.373
	l1.609,1.609l-20.689,20.678l-1.605-1.612c-6.711-6.707-17.593-6.707-24.311,0.007c-6.74,6.74-6.725,17.656-0.037,24.344
	l4.046,4.039l20.692,20.668l21.881,21.873l-20.667,20.684l-21.907-21.876L37.757,500.95 M60.898,477.83l21.898-21.885l20.692-20.666
	l4.036-4.029c12.452-12.448,30.198-16.366,45.968-11.736c1.887-13.648,13.603-24.163,27.773-24.163
	c15.481,0,28.039,12.547,28.035,28.036c0,14.227-10.606,25.986-24.344,27.793c4.516,15.713,0.581,33.331-11.788,45.712l-1.613,1.616
	l-20.673-20.692l1.599-1.602c6.718-6.714,6.718-17.604,0.007-24.315c-6.693-6.685-17.55-6.7-24.29,0.037l-4.034,4.032
	l-20.692,20.677l-21.886,21.864L60.898,477.83 M154.05,582.205c-15.908,4.895-33.932,1.044-46.526-11.544l-1.583-1.583l20.67-20.691
	l1.586,1.591c6.718,6.712,17.609,6.712,24.32,0.007c6.688-6.699,6.702-17.553-0.037-24.293l-4.042-4.047l-20.675-20.694
	l-21.845-21.862l20.692-20.67l21.828,21.849l20.666,20.683l4.063,4.072c11.892,11.89,16,28.619,12.301,43.835
	c13.615,1.918,24.09,13.618,24.09,27.762c0,15.485-12.557,28.029-28.032,28.029C167.955,604.648,156.639,595.015,154.05,582.205
	 M145.986,524.095l-21.822,21.853l-20.675,20.687l-4.056,4.055c-11.942,11.945-28.784,16.011-44.07,12.215
	c-2.857,12.457-14.007,21.734-27.327,21.745c-15.486,0-28.039-12.551-28.035-28.029c0-13.255,9.201-24.367,21.563-27.285
	c-3.913-15.36,0.14-32.328,12.163-44.35l1.581-1.576l20.69,20.673l-1.599,1.587c-6.71,6.719-6.71,17.59,0.007,24.316
	c6.737,6.732,17.652,6.719,24.34,0.027l4.049-4.058l20.675-20.681l21.845-21.865L145.986,524.095 M314.614,436.714v87.706
	c0,7.753-2.357,14.327-6.996,19.525c-5.665,6.336-14.126,9.551-25.146,9.551l-9.878-0.733l-29.767-4.884l-4.943,11.188l30.246,4.674
	c5.643,0.867,10.904,1.306,15.625,1.306c16.365,0,28.717-4.6,36.717-13.652c6.443-7.397,9.709-17.068,9.709-28.741v-85.939H314.614
	 M436.076,546.659c-9.148,5.198-20.248,7.836-33.01,7.836c-13.053,0-24.225-2.582-33.265-7.67l0,0
	c-10.999-6.156-16.335-14.814-16.335-26.483c0-11.5,5.489-20.409,16.335-26.476c9.041-5.095,20.212-7.677,33.265-7.677
	c12.943,0,24.08,2.582,33.191,7.677c10.738,6.116,16.161,15.027,16.161,26.476C452.418,531.679,446.922,540.534,436.076,546.659z
	 M445.224,485.144c-11.859-6.474-26.033-9.754-42.157-9.754c-15.982,0-30.19,3.28-42.151,9.748h-0.004
	c-15.101,8.223-22.768,20.082-22.768,35.25c0,15.17,7.667,27.005,22.771,35.162c11.961,6.475,26.134,9.74,42.151,9.74
	c16.052,0,30.226-3.242,42.084-9.657c14.968-8.161,22.597-20.02,22.597-35.245C467.748,505.167,460.155,493.308,445.224,485.144
	 M573.758,546.659c-9.149,5.198-20.248,7.836-33.013,7.836c-13.052,0-24.224-2.582-33.262-7.67
	c-10.992-6.156-16.342-14.814-16.342-26.483c0-11.5,5.496-20.409,16.342-26.476c9.038-5.095,20.21-7.677,33.262-7.677
	c12.909,0,24.081,2.582,33.192,7.677c10.705,6.116,16.162,15.027,16.162,26.476C590.1,531.679,584.604,540.534,573.758,546.659z
	 M582.907,485.144c-11.862-6.474-26.034-9.754-42.162-9.754c-15.979,0-30.189,3.28-42.155,9.748l0,0
	c-15.113,8.223-22.778,20.082-22.778,35.25c0,15.17,7.665,27.005,22.778,35.162c11.966,6.475,26.142,9.74,42.155,9.74
	c16.056,0,30.192-3.242,42.052-9.657c15.004-8.161,22.598-20.02,22.598-35.245C605.395,505.16,597.839,493.308,582.907,485.144
	 M772.868,482.954c-8.462-5.012-19.308-7.564-32.215-7.564c-16.414,0-29.719,5.164-39.663,15.187
	c-9.619-10.022-22.885-15.187-39.556-15.187c-13.449,0-24.406,2.834-32.864,8.233c0-2.072,0-6.979,0-6.979h-14.824v87.145h14.824
	v-59.631c1.013-4.298,3.833-8.246,8.424-11.51c6.076-4.286,14.103-6.458,23.897-6.458c8.607,0,16.056,1.778,22.056,5.276
	c7.197,4.103,10.667,9.844,10.667,17.559v54.765h14.569v-54.765c0-7.725,3.471-13.499,10.632-17.643
	c6.073-3.441,13.595-5.192,22.309-5.192s16.196,1.778,22.235,5.283c7.158,4.096,10.629,9.837,10.629,17.552v54.765h14.786v-52.725
	C788.774,498.661,783.424,489.195,772.868,482.954 M800.744,436.714v127.075h14.787V436.714H800.744 M842.827,520.342
	c0-11.552,5.496-20.489,16.272-26.567c9.077-5.029,20.317-7.585,33.445-7.585c16.231,0,28.924,3.959,37.745,11.78
	c7.773,6.901,11.718,15.902,11.718,26.727c0,0,0,9.536,0,10.321c-6.223,6.864-15.299,12.291-27.01,16.079
	c-6.871,2.261-14.427,3.398-22.453,3.398c-13.342,0-24.658-2.492-33.518-7.415C848.108,540.98,842.827,532.238,842.827,520.342z
	 M942.008,476.645c0,0,0,11.915,0,14.918c-12.693-10.634-29.398-16.173-49.933-16.173c-16.633,0-30.88,3.171-42.449,9.409
	c-14.68,7.99-22.125,19.968-22.125,35.588c0,15.401,7.625,27.288,22.668,35.332c11.821,6.356,26.103,9.57,42.411,9.57
	c8.205,0,16.127-0.968,23.572-2.886c10.487-2.706,19.129-6.785,25.855-12.039c0,2.945,0,13.425,0,13.425h14.82v-87.145H942.008
	 M988.248,547.461c-10.304,0-11.859,5.354-11.859,8.537c0,3.284,1.556,8.794,11.859,8.794c10.231,0,11.752-5.51,11.752-8.794
	C1000,552.814,998.479,547.461,988.248,547.461z M995.479,434.704h-14.786v100.417h14.786V434.704"/>
</svg>
