<?xml version="1.0" encoding="utf-8"?>
<!-- Generator: Adobe Illustrator 16.2.1, SVG Export Plug-In . SVG Version: 6.00 Build 0)  -->
<!DOCTYPE svg PUBLIC "-//W3C//DTD SVG 1.1//EN" "http://www.w3.org/Graphics/SVG/1.1/DTD/svg11.dtd">
<svg version="1.1" id="Layer_1" xmlns="http://www.w3.org/2000/svg" xmlns:xlink="http://www.w3.org/1999/xlink" x="0px" y="0px"
	 width="1000px" height="1000px" viewBox="0 0 1000 1000" enable-background="new 0 0 1000 1000" xml:space="preserve">
<path d="M615.703,423.36h-29.326c-1.629,0-3.244,1.305-3.591,2.896l-10.413,48.17l-10.412,48.172
	c-0.344,1.589-1.959,2.891-3.585,2.891h-17.795h-2.964c-20.537,0-18.162-14.204-13.955-33.666c0.041-0.196,0.084-0.387,0.125-0.587
	l0.461-2.453c0.03-0.158,0.062-0.317,0.088-0.461l0.938-4.994l1.004-5.353c0.306-1.613,0.769-3.973,1.072-5.456l4.732-23.126
	l4.737-23.127c0.328-1.595-0.741-2.905-2.369-2.905h-30.103c-1.627,0-3.239,1.31-3.572,2.901l-6.472,30.708l-6.472,30.705
	c-0.006,0.013-0.008,0.033-0.01,0.047l-0.602,2.854c-7.456,34.038-5.479,66.496,35.042,67.512c0.662,0.019,1.175,0.024,1.175,0.024
	h63.603c1.628,0,3.239-1.308,3.579-2.9l13.716-64.472l13.716-64.478C618.388,424.667,617.332,423.361,615.703,423.36L615.703,423.36
	z M301.587,423.02h-32.208c-1.629,0-3.254,1.301-3.618,2.886l-3.054,13.48l-3.054,13.485c-0.359,1.585,0.679,2.886,2.308,2.886
	h32.458c1.627,0,3.245-1.301,3.595-2.891l2.952-13.48l2.952-13.471v-0.003C304.264,424.321,303.217,423.021,301.587,423.02
	L301.587,423.02z M292.248,464.966h-32.462c-1.627,0-3.254,1.301-3.614,2.891l-4.56,20.195l-4.556,20.195
	c-0.359,1.59-0.932,4.197-1.27,5.79l-4.381,20.614l-4.378,20.613c-0.34,1.589-1.04,4.159-1.562,5.702c0,0-6.063,18.045-16.259,17.84
	c-0.434-0.01-0.855-0.014-1.273-0.024c-4.939-0.094-8.822-0.162-8.822-0.162h-0.007c-1.625-0.024-3.259,1.243-3.639,2.825
	l-3.366,14.152l-3.362,14.146c-0.379,1.581,0.644,2.887,2.26,2.915c5.783,0.068,18.73,0.214,26.57,0.214
	c25.466,0,38.891-14.109,47.497-54.711l10.071-46.6l9.447-43.704c0.343-1.59-0.708-2.891-2.336-2.891L292.248,464.966z
	 M887.681,456.931l-76.968,0.037c-1.626,0.005-3.23,1.301-3.575,2.886l-4.657,21.823l-5.274,24.708l-0.58,2.862
	c-0.004,0.015-0.006,0.034-0.007,0.043l-4.354,21.505l-4.348,21.508c-0.004,0.018-0.008,0.038-0.012,0.055
	c0.004-0.017,0.01-0.037,0.014-0.055l-0.588,2.9c-0.32,1.601-1.921,2.906-3.547,2.906h-2.966c0.002,0,0.004,0,0.008,0
	c-0.004,0-0.008,0-0.01,0h-27.434c-1.627,0-2.685-1.306-2.341-2.9l12.209-57.189l-7.447,34.893l19.66-92.086l-0.03,0.156
	l0.034-0.155l0.393-1.875l1.416-6.691l1.197-5.665h0.002c0.336-1.595,1.947-2.896,3.574-2.896h25.046h2.068l24.098,0.028
	l26.165,0.028c16.807,0,24.547,5.913,27.182,16.157l0.674,2.881l1.332,5.693l1.346,5.558l0.002-0.001
	C890.333,455.635,889.305,456.927,887.681,456.931z M989.045,403.791c-1.63,0.011-4.295,0.021-5.926,0.021h-24.634
	c-1.63,0-3.717,1.1-4.635,2.445l-54.476,79.808c-0.92,1.348-1.97,1.147-2.332-0.438l-4.008-17.583
	c-0.36-1.59-1.992-2.886-3.62-2.886h-35.021c-1.63,0-2.594,1.277-2.148,2.844l15.691,54.973c0.447,1.566,0.481,4.141,0.078,5.718
	l-6.841,26.606c-0.405,1.579,0.597,2.872,2.227,2.872h34.612c1.627,0,3.292-1.293,3.695-2.872l6.843-26.606
	c0.403-1.577,1.537-3.935,2.518-5.237l88.438-117.378c0.982-1.301,0.451-2.359-1.177-2.348l-9.283,0.061L989.045,403.791z
	 M710.814,472.64l-0.002-0.032c-0.205,1.767-1.833,3.063-3.462,3.063h-44.4c-1.535,0-2.314-1.045-2.089-2.332
	c0.014-0.038,0.019-0.07,0.043-0.103c0,0-0.017,0.003-0.028,0.014c0.01-0.052,0.01-0.098,0.022-0.149c0,0,0.084-0.313,0.203-0.755
	c4.242-11.275,12.879-18.674,29.113-18.674c18.275,0,21.842,8.929,20.602,18.967L710.814,472.64z M697.789,421.391
	c-56.992,0-70.496,34.593-78.074,69.508c-7.575,35.586-6.923,68.859,52.052,68.859h2.093c0.187-0.004,0.377-0.004,0.563-0.004h1.652
	h0.604h1.548c0.229-0.004,0.459-0.004,0.69-0.004c0.589,0,1.182-0.003,1.777-0.003h0.417c2.334-0.004,4.702-0.016,7.075-0.022h0.119
	c15.577-0.062,31.195-0.18,37.523-0.229c1.617-0.024,3.201-1.33,3.535-2.91l2.387-11.67l0.463-2.271l2.85-13.917
	c0.326-1.597-0.738-2.902-2.368-2.902h-53.02c-21.087,0-27.351-5.603-25.043-22.077h84.754l-0.007,0.009
	c0.021,0,0.039-0.009,0.058-0.009c1.349-0.024,2.593-0.951,3.087-2.187c0.093-0.238,0.173-0.485,0.205-0.742l-0.01,0.009
	c12.586-47.468,8.977-79.435-44.936-79.435L697.789,421.391z M428.421,472.459l-0.802,2.84c0,0.009-0.002,0.009-0.002,0.009
	l-6.399,22.68l-6.397,22.676c-0.443,1.567-2.136,2.849-3.768,2.849h-33.874c-25.693,0-31.95-20.095-25.693-49.736
	c6.255-30.317,18.521-49.165,43.809-51.072C429.852,420.097,436.766,444.403,428.421,472.459L428.421,472.459z M451.651,521.768
	c0,0,15.97-38.776,19.598-61.175c4.946-29.982-10.065-73.465-68.048-73.465c-57.654,0-82.688,41.515-92.242,86.646
	c-9.551,45.457,2.964,85.323,60.289,84.997l45.224-0.168l42.267-0.153c1.627-0.015,3.292-1.306,3.707-2.878l7.362-28.084
	c0.41-1.576-0.585-2.873-2.212-2.882l-7.058-0.041l-7.055-0.043c-1.385-0.01-2.177-0.904-2.009-2.095
	c0.03-0.213,0.078-0.433,0.172-0.66L451.651,521.768z M11.418,445.396c-15.919,22.881-13.937,52.648-1.777,76.96
	c0.289,0.582,0.592,1.156,0.891,1.729c0.191,0.363,0.37,0.736,0.569,1.095c0.112,0.215,0.238,0.426,0.354,0.631
	c0.207,0.388,0.419,0.755,0.634,1.134c0.377,0.666,0.765,1.328,1.161,1.99c0.219,0.363,0.436,0.728,0.662,1.091
	c0.438,0.709,0.888,1.408,1.348,2.107c0.191,0.299,0.378,0.597,0.574,0.886c0.634,0.946,1.282,1.89,1.951,2.816
	c0.017,0.024,0.036,0.051,0.056,0.075c0.105,0.147,0.222,0.292,0.329,0.441c0.578,0.799,1.175,1.586,1.778,2.365
	c0.222,0.283,0.446,0.569,0.669,0.853c0.538,0.677,1.086,1.349,1.644,2.02c0.208,0.25,0.417,0.504,0.627,0.75
	c0.748,0.88,1.511,1.757,2.29,2.615c0.014,0.015,0.033,0.033,0.046,0.048c0.033,0.037,0.061,0.06,0.089,0.098
	c0.76,0.829,1.539,1.641,2.327,2.452c0.244,0.252,0.494,0.504,0.746,0.752c0.611,0.615,1.231,1.22,1.857,1.822
	c0.254,0.242,0.506,0.49,0.76,0.722c0.837,0.789,1.683,1.562,2.546,2.318c0.015,0.013,0.026,0.024,0.04,0.031
	c0.146,0.131,0.298,0.254,0.443,0.379c0.76,0.658,1.534,1.312,2.312,1.953c0.317,0.257,0.639,0.509,0.958,0.765
	c0.637,0.509,1.28,1.013,1.928,1.507c0.342,0.261,0.686,0.522,1.031,0.783c0.715,0.526,1.436,1.044,2.164,1.552
	c0.265,0.192,0.522,0.379,0.788,0.56c0.074,0.052,0.142,0.104,0.217,0.154c0.69,0.476,1.396,0.933,2.101,1.39
	c0.303,0.201,0.604,0.41,0.91,0.606c1.082,0.685,2.179,1.361,3.289,2.015c0.301,0.173,0.606,0.341,0.909,0.513
	c0.816,0.472,1.637,0.933,2.468,1.386c0.451,0.242,0.912,0.47,1.367,0.703c0.586,0.308,1.169,0.619,1.766,0.918
	c0.135,0.066,0.276,0.132,0.409,0.197c0.241,0.115,0.482,0.228,0.723,0.349c0.925,0.442,1.857,0.877,2.8,1.296
	c0.201,0.09,0.394,0.178,0.592,0.266c1.079,0.472,2.167,0.925,3.266,1.357c0.264,0.108,0.53,0.209,0.796,0.313
	c1.016,0.392,2.047,0.777,3.082,1.142c0.13,0.046,0.256,0.089,0.387,0.134c1.135,0.397,2.282,0.765,3.437,1.125
	c0.275,0.08,0.552,0.168,0.83,0.248c1.175,0.354,2.336,0.777,3.548,1.002c76.986,14.038,99.349-46.265,99.349-46.265
	c-18.782,24.469-52.121,30.924-83.707,23.737c-1.196-0.271-2.357-0.644-3.525-0.988c-0.296-0.088-0.587-0.177-0.879-0.267
	c-1.14-0.349-2.271-0.717-3.395-1.104c-0.154-0.056-0.31-0.111-0.466-0.168c-1.007-0.354-2.002-0.728-2.994-1.109
	c-0.28-0.112-0.56-0.219-0.839-0.33c-1.086-0.429-2.165-0.877-3.231-1.343c-0.219-0.094-0.429-0.192-0.646-0.285
	c-0.917-0.416-1.823-0.834-2.726-1.269c-0.261-0.125-0.522-0.248-0.788-0.379c-0.709-0.345-1.409-0.712-2.108-1.072
	c-0.468-0.246-0.944-0.479-1.407-0.736c-0.854-0.457-1.693-0.933-2.527-1.418c-0.283-0.158-0.569-0.312-0.854-0.476
	c-1.109-0.652-2.206-1.33-3.291-2.016c-0.299-0.19-0.592-0.396-0.888-0.592c-0.787-0.507-1.57-1.023-2.341-1.558
	c-0.256-0.171-0.503-0.357-0.755-0.529c-0.745-0.526-1.481-1.06-2.214-1.601c-0.332-0.246-0.658-0.496-0.981-0.742
	c-0.67-0.513-1.337-1.029-1.998-1.561c-0.298-0.237-0.597-0.476-0.891-0.715c-0.839-0.69-1.669-1.384-2.488-2.097
	c-0.086-0.074-0.179-0.148-0.272-0.229c-0.886-0.777-1.756-1.575-2.616-2.378c-0.25-0.238-0.492-0.47-0.737-0.708
	c-0.637-0.606-1.264-1.217-1.879-1.843c-0.247-0.246-0.494-0.489-0.737-0.735c-0.783-0.802-1.553-1.615-2.306-2.439
	c-0.037-0.041-0.077-0.078-0.114-0.121c-0.797-0.871-1.576-1.763-2.339-2.661c-0.207-0.248-0.408-0.485-0.613-0.728
	c-0.569-0.687-1.133-1.381-1.683-2.082c-0.207-0.25-0.413-0.509-0.617-0.768c-0.663-0.86-1.311-1.719-1.945-2.589
	c-17.537-23.92-23.837-56.914-9.82-84.009 M60.833,426.12c-11.512,16.567-10.887,38.744-1.907,56.265
	c1.506,2.938,3.199,5.786,5.092,8.5c1.725,2.471,3.637,5.414,5.926,7.4c0.83,0.914,1.697,1.804,2.583,2.681
	c0.224,0.228,0.452,0.448,0.681,0.671c0.86,0.835,1.735,1.655,2.639,2.451c0.038,0.03,0.07,0.067,0.107,0.094
	c0.009,0.011,0.019,0.015,0.025,0.026c1,0.876,2.033,1.72,3.082,2.549c0.233,0.178,0.464,0.364,0.699,0.547
	c1.052,0.806,2.125,1.599,3.225,2.354c0.033,0.022,0.06,0.047,0.093,0.071c0.485,0.336,0.979,0.647,1.471,0.97
	c0.236,0.153,0.46,0.317,0.698,0.461c0.785,0.503,1.581,0.994,2.389,1.464c0.115,0.071,0.227,0.131,0.338,0.195
	c0.697,0.401,1.403,0.797,2.112,1.181c0.247,0.139,0.499,0.262,0.75,0.392c0.49,0.256,0.979,0.518,1.479,0.766
	c0.073,0.035,0.151,0.068,0.223,0.101c1.015,0.5,2.039,0.98,3.083,1.436c0.223,0.099,0.454,0.187,0.681,0.28
	c0.835,0.354,1.679,0.701,2.526,1.025c0.359,0.137,0.723,0.267,1.082,0.397c0.77,0.285,1.542,0.547,2.32,0.808
	c0.352,0.112,0.697,0.228,1.049,0.336c1.107,0.343,2.201,0.777,3.354,0.97c59.441,9.848,73.163-35.918,73.163-35.918
	c-12.37,17.816-36.326,26.317-61.889,19.681c-1.136-0.299-2.255-0.623-3.367-0.974c-0.34-0.103-0.674-0.215-1.012-0.327
	c-0.791-0.255-1.576-0.527-2.354-0.811c-0.357-0.131-0.713-0.262-1.063-0.396c-0.853-0.327-1.697-0.668-2.535-1.022
	c-0.228-0.098-0.458-0.187-0.683-0.289c-1.049-0.457-2.082-0.937-3.101-1.44c-0.525-0.257-1.04-0.527-1.556-0.793
	c-0.298-0.154-0.599-0.308-0.897-0.461c-0.662-0.359-1.319-0.732-1.968-1.11c-0.154-0.089-0.315-0.172-0.471-0.266
	c-0.805-0.471-1.598-0.956-2.383-1.455c-0.242-0.154-0.476-0.322-0.718-0.48c-0.518-0.336-1.035-0.676-1.543-1.021
	c-1.096-0.755-2.162-1.548-3.213-2.35c-0.242-0.191-0.485-0.377-0.723-0.568c-11.189-8.835-20.059-20.908-24.276-34.598
	c-4.419-14.198-3.466-30.135,4.19-43.069 M102.394,411.717c-6.787,9.988-7.453,22.392-2.744,33.422
	c4.966,11.708,15.142,20.894,27.019,25.248c0.49,0.183,0.979,0.345,1.476,0.513c0.217,0.066,0.432,0.141,0.651,0.206
	c0.699,0.22,1.394,0.476,2.117,0.612c32.821,6.341,41.724-16.843,44.093-20.255c-7.798,11.228-20.903,13.923-36.982,10.021
	c-1.27-0.31-2.666-0.769-3.891-1.202c-1.57-0.56-3.118-1.197-4.62-1.919c-2.855-1.372-5.577-3.036-8.1-4.942
	c-14.388-10.917-23.327-31.744-13.938-48.705"/>
</svg>
