<?xml version="1.0" encoding="utf-8"?>
<!-- Generator: Adobe Illustrator 16.2.1, SVG Export Plug-In . SVG Version: 6.00 Build 0)  -->
<!DOCTYPE svg PUBLIC "-//W3C//DTD SVG 1.1//EN" "http://www.w3.org/Graphics/SVG/1.1/DTD/svg11.dtd">
<svg version="1.1" id="Layer_1" xmlns="http://www.w3.org/2000/svg" xmlns:xlink="http://www.w3.org/1999/xlink" x="0px" y="0px"
	 width="1000px" height="1000px" viewBox="0 0 1000 1000" enable-background="new 0 0 1000 1000" xml:space="preserve">
<path d="M520.434,404.36h-36.598c-2.032,0-4.047,1.629-4.48,3.613l-12.994,60.112l-12.994,60.114
	c-0.428,1.983-2.444,3.608-4.474,3.608h-22.207h-3.698c-25.628,0-22.665-17.727-17.414-42.013c0.051-0.244,0.104-0.483,0.156-0.733
	l0.575-3.061c0.037-0.198,0.077-0.396,0.109-0.576l1.17-6.232l1.252-6.68c0.381-2.013,0.959-4.958,1.338-6.808l5.905-28.859
	l5.912-28.861c0.41-1.99-0.924-3.625-2.956-3.625h-37.565c-2.029,0-4.041,1.635-4.455,3.621l-8.078,38.321l-8.076,38.317
	c-0.008,0.017-0.011,0.041-0.013,0.058l-0.75,3.562c-9.304,42.475-6.837,82.98,43.728,84.248c0.826,0.023,1.466,0.031,1.466,0.031
	h79.369c2.032,0,4.043-1.632,4.467-3.619l17.116-80.456l17.116-80.462C523.782,405.991,522.465,404.361,520.434,404.36
	L520.434,404.36z M128.447,403.936H88.253c-2.033,0-4.062,1.624-4.515,3.602l-3.812,16.822l-3.811,16.828
	c-0.448,1.978,0.847,3.602,2.88,3.602h40.505c2.031,0,4.05-1.624,4.486-3.607l3.683-16.822l3.683-16.811v-0.004
	c0.433-1.984-0.873-3.607-2.907-3.607V403.936z M116.792,456.281h-40.51c-2.031,0-4.062,1.624-4.51,3.607l-5.69,25.202
	l-5.685,25.202c-0.448,1.983-1.164,5.237-1.585,7.225l-5.467,25.726l-5.464,25.724c-0.425,1.982-1.297,5.189-1.949,7.114
	c0,0-7.566,22.519-20.29,22.263c-0.541-0.012-1.067-0.017-1.588-0.03c-6.165-0.116-11.009-0.202-11.009-0.202h-0.009
	c-2.027-0.03-4.067,1.552-4.541,3.526l-4.201,17.66l-4.195,17.651c-0.473,1.974,0.803,3.604,2.821,3.639
	c7.216,0.086,23.374,0.268,33.157,0.268c31.779,0,48.532-17.607,59.271-68.274l12.568-58.152l11.789-54.538
	c0.428-1.984-0.884-3.608-2.915-3.608L116.792,456.281z M859.835,446.254l-96.048,0.046c-2.029,0.006-4.031,1.624-4.462,3.602
	l-5.812,27.232l-6.582,30.832l-0.724,3.572c-0.005,0.02-0.007,0.042-0.01,0.054l-5.432,26.836l-5.426,26.841
	c-0.005,0.021-0.01,0.047-0.014,0.067c0.004-0.021,0.012-0.047,0.016-0.067l-0.732,3.619c-0.4,1.997-2.397,3.626-4.427,3.626h-3.701
	c0.002,0,0.005,0,0.01,0c-0.005,0-0.01,0-0.012,0h-34.235c-2.029,0-3.349-1.629-2.921-3.619l15.235-71.367l-9.293,43.542
	L719.8,426.156l-0.037,0.194l0.042-0.193l0.491-2.339l1.767-8.35l1.494-7.07h0.003c0.419-1.99,2.43-3.613,4.459-3.613h31.256h2.581
	l30.071,0.035l32.652,0.035c20.973,0,30.632,7.378,33.92,20.162l0.841,3.596l1.661,7.104l1.681,6.936l0.002-0.001
	C863.145,444.636,861.862,446.249,859.835,446.254z M986.329,379.939c-2.034,0.014-5.36,0.027-7.395,0.027h-30.741
	c-2.034,0-4.639,1.373-5.784,3.051l-67.98,99.593c-1.147,1.682-2.458,1.431-2.909-0.547l-5.002-21.942
	c-0.449-1.984-2.486-3.602-4.518-3.602h-43.703c-2.034,0-3.237,1.594-2.682,3.549l19.581,68.602
	c0.559,1.955,0.601,5.167,0.098,7.136l-8.537,33.202c-0.505,1.971,0.745,3.584,2.779,3.584h43.193c2.029,0,4.108-1.613,4.61-3.584
	l8.54-33.202c0.503-1.969,1.918-4.911,3.142-6.535l110.362-146.478c1.227-1.624,0.563-2.944-1.469-2.931l-11.584,0.076
	L986.329,379.939z M639.123,465.857l-0.002-0.041c-0.257,2.205-2.288,3.823-4.32,3.823h-55.408c-1.915,0-2.888-1.303-2.606-2.909
	c0.017-0.047,0.023-0.087,0.054-0.128c0,0-0.021,0.005-0.035,0.018c0.012-0.065,0.012-0.122,0.028-0.186
	c0,0,0.104-0.391,0.253-0.943c5.293-14.069,16.071-23.304,36.33-23.304c22.807,0,27.257,11.143,25.709,23.669L639.123,465.857z
	 M622.868,401.902c-71.121,0-87.972,43.169-97.429,86.739c-9.454,44.408-8.64,85.931,64.955,85.931h2.611
	c0.233-0.005,0.471-0.005,0.703-0.005h2.062h0.754h1.932c0.286-0.005,0.573-0.005,0.861-0.005c0.735,0,1.476-0.004,2.218-0.004
	h0.521c2.912-0.005,5.868-0.019,8.828-0.028h0.149c19.438-0.077,38.929-0.224,46.826-0.286c2.019-0.03,3.994-1.659,4.411-3.631
	l2.979-14.562l0.577-2.836l3.557-17.367c0.407-1.992-0.922-3.621-2.956-3.621h-66.163c-26.314,0-34.13-6.992-31.251-27.551H674.78
	l-0.01,0.012c0.028,0,0.049-0.012,0.072-0.012c1.683-0.03,3.235-1.188,3.852-2.73c0.117-0.295,0.217-0.604,0.257-0.924l-0.012,0.012
	c15.705-59.235,11.202-99.127-56.076-99.127L622.868,401.902z M286.723,465.631l-1,3.543c0,0.012-0.002,0.012-0.002,0.012
	l-7.986,28.302l-7.983,28.297c-0.553,1.955-2.665,3.554-4.702,3.554h-42.271c-32.062,0-39.871-25.076-32.062-62.065
	c7.805-37.833,23.112-61.353,54.669-63.733C288.508,400.289,297.136,430.62,286.723,465.631L286.723,465.631z M315.712,527.164
	c0,0,19.929-48.39,24.456-76.341c6.172-37.416-12.561-91.677-84.918-91.677c-71.947,0-103.188,51.807-115.109,108.125
	c-11.919,56.725,3.698,106.475,75.234,106.068l56.436-0.21l52.745-0.19c2.031-0.019,4.108-1.629,4.626-3.591l9.188-35.048
	c0.512-1.967-0.73-3.584-2.761-3.596l-8.807-0.052l-8.804-0.053c-1.728-0.012-2.716-1.129-2.506-2.614
	c0.037-0.265,0.098-0.54,0.215-0.823L315.712,527.164z"/>
</svg>
