<?xml version="1.0" encoding="utf-8"?>
<!-- Generator: Adobe Illustrator 16.2.1, SVG Export Plug-In . SVG Version: 6.00 Build 0)  -->
<!DOCTYPE svg PUBLIC "-//W3C//DTD SVG 1.1//EN" "http://www.w3.org/Graphics/SVG/1.1/DTD/svg11.dtd">
<svg version="1.1" id="Layer_1" xmlns="http://www.w3.org/2000/svg" xmlns:xlink="http://www.w3.org/1999/xlink" x="0px" y="0px"
	 width="1000px" height="1000px" viewBox="0 0 1000 1000" enable-background="new 0 0 1000 1000" xml:space="preserve">
<path d="M63.506,244.572c-88.539,127.259-77.516,292.818-9.882,428.04c1.607,3.237,3.294,6.431,4.953,9.614
	c1.064,2.02,2.059,4.095,3.164,6.083c0.622,1.194,1.322,2.368,1.972,3.509c1.151,2.161,2.333,4.203,3.527,6.311
	c2.1,3.705,4.253,7.387,6.456,11.07c1.219,2.02,2.422,4.041,3.683,6.061c2.439,3.943,4.94,7.832,7.496,11.722
	c1.064,1.662,2.102,3.324,3.19,4.932c3.525,5.258,7.132,10.505,10.85,15.664c0.095,0.131,0.198,0.282,0.312,0.413
	c0.586,0.826,1.233,1.629,1.83,2.455c3.216,4.443,6.534,8.82,9.891,13.155c1.236,1.575,2.479,3.172,3.724,4.747
	c2.993,3.758,6.042,7.495,9.141,11.232c1.154,1.391,2.322,2.803,3.49,4.171c4.16,4.889,8.402,9.766,12.734,14.546
	c0.076,0.076,0.182,0.185,0.258,0.26c0.182,0.207,0.337,0.338,0.494,0.544c4.226,4.616,8.557,9.124,12.94,13.644
	c1.358,1.401,2.748,2.803,4.149,4.183c3.397,3.421,6.847,6.778,10.331,10.135c1.415,1.347,2.816,2.727,4.229,4.009
	c4.657,4.389,9.361,8.689,14.159,12.895c0.082,0.075,0.145,0.141,0.223,0.173c0.815,0.729,1.659,1.413,2.463,2.107
	c4.226,3.661,8.532,7.3,12.861,10.863c1.766,1.434,3.555,2.835,5.328,4.259c3.542,2.824,7.121,5.627,10.725,8.375
	c1.904,1.455,3.813,2.911,5.733,4.355c3.979,2.934,7.987,5.812,12.034,8.637c1.472,1.064,2.903,2.107,4.38,3.106
	c0.41,0.294,0.791,0.587,1.206,0.858c3.837,2.65,7.765,5.192,11.683,7.734c1.687,1.119,3.357,2.281,5.06,3.367
	c6.015,3.812,12.12,7.571,18.293,11.211c1.675,0.956,3.37,1.89,5.057,2.846c4.538,2.629,9.103,5.192,13.728,7.713
	c2.507,1.347,5.073,2.607,7.604,3.91c3.261,1.706,6.504,3.444,9.822,5.105c0.752,0.37,1.537,0.729,2.273,1.098
	c1.339,0.641,2.681,1.26,4.02,1.934c5.146,2.466,10.33,4.877,15.574,7.213c1.116,0.5,2.189,0.988,3.294,1.478
	c6.001,2.618,12.055,5.138,18.163,7.55c1.47,0.598,2.947,1.162,4.427,1.738c5.651,2.184,11.385,4.323,17.142,6.354
	c0.726,0.25,1.426,0.489,2.151,0.739c6.313,2.216,12.693,4.258,19.113,6.257c1.531,0.445,3.071,0.934,4.616,1.379
	c6.534,1.978,12.992,4.323,19.735,5.573c428.182,78.082,552.557-257.311,552.557-257.311
	C871.404,848.679,685.979,884.581,510.299,844.605c-6.65-1.5-13.109-3.574-19.602-5.497c-1.648-0.489-3.267-0.978-4.891-1.478
	c-6.339-1.944-12.631-3.986-18.88-6.148c-0.855-0.304-1.722-0.619-2.594-0.934c-5.603-1.967-11.134-4.041-16.65-6.17
	c-1.556-0.619-3.112-1.217-4.668-1.836c-6.042-2.379-12.041-4.878-17.97-7.463c-1.22-0.521-2.387-1.076-3.59-1.586
	c-5.097-2.314-10.141-4.639-15.159-7.062c-1.453-0.695-2.906-1.38-4.383-2.107c-3.943-1.911-7.837-3.954-11.727-5.964
	c-2.604-1.368-5.249-2.661-7.827-4.095c-4.752-2.542-9.416-5.182-14.057-7.887c-1.572-0.88-3.164-1.728-4.747-2.64
	c-6.17-3.629-12.27-7.397-18.304-11.211c-1.665-1.064-3.291-2.205-4.937-3.291c-4.377-2.824-8.734-5.692-13.022-8.669
	c-1.423-0.944-2.797-1.987-4.198-2.943c-4.145-2.923-8.24-5.888-12.313-8.897c-1.844-1.368-3.661-2.759-5.456-4.127
	c-3.729-2.857-7.436-5.726-11.11-8.68c-1.659-1.326-3.319-2.65-4.954-3.977c-4.668-3.846-9.282-7.701-13.836-11.666
	c-0.478-0.413-0.997-0.826-1.515-1.271c-4.927-4.323-9.766-8.767-14.549-13.23c-1.39-1.326-2.737-2.607-4.098-3.933
	c-3.542-3.379-7.028-6.768-10.45-10.255c-1.374-1.369-2.748-2.716-4.098-4.084c-4.356-4.465-8.636-8.984-12.827-13.568
	c-0.206-0.229-0.426-0.435-0.632-0.674c-4.435-4.845-8.767-9.809-13.008-14.806c-1.151-1.38-2.268-2.694-3.408-4.041
	c-3.164-3.823-6.301-7.681-9.361-11.58c-1.151-1.391-2.298-2.835-3.433-4.269c-3.688-4.791-7.289-9.56-10.817-14.404
	C89.691,491.125,54.65,307.621,132.608,156.922 M338.341,137.363c-64.029,92.142-60.553,215.485-10.605,312.934
	c8.375,16.338,17.791,32.182,28.32,47.275c9.595,13.747,20.227,30.107,32.96,41.154c4.617,5.084,9.44,10.043,14.366,14.92
	c1.247,1.266,2.515,2.493,3.786,3.732c4.782,4.638,9.649,9.2,14.679,13.633c0.209,0.162,0.391,0.369,0.597,0.521
	c0.052,0.054,0.103,0.076,0.141,0.141c5.564,4.878,11.306,9.57,17.142,14.176c1.296,0.989,2.583,2.031,3.889,3.042
	c5.85,4.486,11.816,8.896,17.935,13.09c0.182,0.13,0.334,0.261,0.519,0.402c2.696,1.868,5.447,3.595,8.18,5.388
	c1.312,0.858,2.558,1.771,3.881,2.563c4.367,2.803,8.791,5.529,13.288,8.147c0.638,0.391,1.26,0.728,1.882,1.086
	c3.875,2.228,7.805,4.433,11.748,6.562c1.375,0.771,2.775,1.456,4.174,2.184c2.725,1.423,5.445,2.878,8.221,4.258
	c0.408,0.196,0.842,0.38,1.238,0.554c5.644,2.781,11.342,5.454,17.147,7.984c1.238,0.555,2.525,1.043,3.786,1.564
	c4.644,1.967,9.336,3.9,14.051,5.703c1.999,0.761,4.02,1.478,6.019,2.205c4.279,1.586,8.576,3.042,12.905,4.498
	c1.955,0.619,3.872,1.26,5.833,1.868c6.159,1.901,12.242,4.323,18.657,5.388C923.683,717.107,1000,462.566,1000,462.566
	c-68.801,99.092-202.034,146.367-344.214,109.466c-6.317-1.662-12.541-3.465-18.722-5.421c-1.896-0.564-3.754-1.194-5.628-1.813
	c-4.399-1.423-8.767-2.933-13.095-4.509c-1.988-0.728-3.971-1.455-5.915-2.205c-4.747-1.824-9.44-3.715-14.101-5.681
	c-1.266-0.544-2.547-1.043-3.796-1.608c-5.833-2.541-11.58-5.214-17.245-8.017c-2.917-1.423-5.779-2.933-8.652-4.41
	c-1.656-0.853-3.33-1.705-4.986-2.563c-3.683-1.999-7.338-4.074-10.944-6.17c-0.858-0.5-1.754-0.962-2.618-1.478
	c-4.475-2.624-8.886-5.323-13.252-8.093c-1.348-0.858-2.646-1.793-3.992-2.673c-2.879-1.868-5.758-3.759-8.588-5.681
	c-6.094-4.204-12.02-8.609-17.869-13.071c-1.344-1.062-2.694-2.099-4.017-3.161c-62.233-49.141-111.565-116.288-135.021-192.429
	c-24.578-78.965-19.279-167.607,23.304-239.541 M569.491,57.26c-37.743,55.55-41.453,124.538-15.257,185.889
	c27.619,65.121,84.215,116.209,150.271,140.425c2.722,1.016,5.448,1.92,8.207,2.852c1.206,0.369,2.401,0.785,3.618,1.143
	c3.889,1.222,7.756,2.645,11.775,3.403c182.546,35.27,232.06-93.677,245.235-112.657c-43.37,62.448-116.26,77.439-205.689,55.738
	c-7.061-1.722-14.828-4.274-21.639-6.686c-8.734-3.112-17.337-6.659-25.696-10.676c-15.882-7.628-31.014-16.886-45.049-27.489
	c-80.026-60.721-129.741-176.555-77.518-270.889"/>
</svg>
