<?xml version="1.0" encoding="utf-8"?>
<!-- Generator: Adobe Illustrator 16.2.1, SVG Export Plug-In . SVG Version: 6.00 Build 0)  -->
<!DOCTYPE svg PUBLIC "-//W3C//DTD SVG 1.1//EN" "http://www.w3.org/Graphics/SVG/1.1/DTD/svg11.dtd">
<svg version="1.1" id="Layer_1" xmlns="http://www.w3.org/2000/svg" xmlns:xlink="http://www.w3.org/1999/xlink" x="0px" y="0px"
	 width="1000px" height="1000px" viewBox="0 0 1000 1000" enable-background="new 0 0 1000 1000" xml:space="preserve">
<path fill-rule="evenodd" clip-rule="evenodd" d="M788.715,468.969c0,30.069-0.743,59.265,0.239,88.4
	c0.761,22.573,0.7,45.139,1.256,67.699c0.194,7.938-3.644,10.43-11.179,10.34c-23.213-0.273-46.436-0.318-69.647,0.035
	c-8.444,0.129-10.884-3.028-10.644-11.341c1.641-56.552,5.343-113.065,4.217-169.672c-0.791-39.718-2.479-79.419-3.609-119.133
	c-0.351-12.309,0.525-13.38,12.567-13.52c18.82-0.216,37.435-2.077,55.849-5.811c7.892-1.599,12.814,1.083,17.604,7.66
	c38.169,52.444,76.726,104.606,115.17,156.849c1.13,1.536,2.286,3.059,3.509,4.521c1.437,1.719,3.032,3.668,5.514,3.009
	c2.997-0.8,3.374-3.592,3.378-6.172c0.015-13.038,0.269-26.088-0.19-39.11c-0.948-26.992-2.267-53.971-3.493-80.953
	c-0.435-9.518-1.093-19.026-1.569-28.544c-0.371-7.428,3.234-11.306,10.685-11.531c23.828-0.72,47.659-1.357,71.483-2.175
	c8.137-0.28,10.411,3.899,10.124,11.291c-0.898,23.184-0.878,46.421-2.39,69.562c-1.848,28.287-1.35,56.574-1.526,84.86
	c-0.282,45.159-0.079,90.322-0.102,135.483c-0.007,13.65-0.111,13.123-13.391,14.983c-19.766,2.767-39.35-0.369-59.014-0.656
	c-7.422-0.108-11.08-5.327-14.955-10.446c-37.421-49.438-74.861-98.863-112.327-148.267
	C794.388,473.843,792.954,470.868,788.715,468.969z M346.56,476.779c0.416,85.183,56.949,166.71,160.228,166.993
	c98.354,0.269,159.947-74.242,160.778-166.099c0.839-92.768-70.193-165.927-159.675-166.078
	C417.007,311.445,346.105,383.622,346.56,476.779z M437.589,505.92c-7.807-27.122-4.85-52.852,11.348-76.501
	c17.897-26.133,45.382-37.131,75.41-30.221c27.508,6.331,50.052,31.095,54.63,60.018c6.005,37.912-8.32,72.147-37.341,89.237
	c-10.647,6.272-22.115,9.534-34.506,9.406C473.681,557.825,446.815,537.97,437.589,505.92z M278.102,388.094
	c10.292-5.58,21.46-7.734,33.18-6.004c3.17,0.468,6.563,1.518,8.897-1.396c2.401-3.001,0.569-6.131-0.984-8.873
	c-9.897-17.474-18.188-35.675-24.887-54.601c-1.693-4.783-4.456-7.315-9.986-6.524c-28.456,4.067-55.22,12.704-78.256,30.368
	c-44.435,34.071-49.414,89.049-12.324,131.322c10.252,11.684,21.923,22.21,29.373,36.192c10.374,19.471,4.249,39.925-15.203,50.248
	c-12.51,6.641-26.088,9.975-39.884,12.466c-7.941,1.433-10.021,5.012-6.586,12.633c8.51,18.881,18.39,36.979,29.179,54.638
	c4.456,7.292,10.021,9.376,18.392,7.616c29.208-6.138,55.056-18.657,78.34-37.433c36.031-29.057,53.893-89.928,15.031-135.07
	c-10.976-12.749-21.955-25.594-31.154-39.779c-4.187-6.456-7.739-13.168-8.019-21.118
	C262.737,401.266,268.512,393.293,278.102,388.094z M131.582,331.301c0.342-8.15-2.796-11.423-11.272-10.95
	c-25.086,1.4-50.202,1.391-75.302-0.076c-9.279-0.542-11.334,1.75-10.548,10.81c6.269,72.229,10.198,144.546,6.205,217.049
	c-1.612,29.272-9.857,55.767-35.641,73.532c-6.699,4.617-6.55,9.256-0.441,14.449c16.489,14.025,31.993,29.027,45.998,45.607
	c8.566,10.143,11.458,10.148,20.659,0.892c32-32.196,51.447-70.638,56.605-115.941c3.387-29.747,2.834-59.567,2.204-89.465
	c-0.864-40.993-0.967-82.029,1.464-121.163C131.513,346.562,131.262,338.92,131.582,331.301z"/>
</svg>
