<?xml version="1.0" encoding="utf-8"?>
<!-- Generator: Adobe Illustrator 16.2.1, SVG Export Plug-In . SVG Version: 6.00 Build 0)  -->
<!DOCTYPE svg PUBLIC "-//W3C//DTD SVG 1.1//EN" "http://www.w3.org/Graphics/SVG/1.1/DTD/svg11.dtd">
<svg version="1.1" id="Layer_1" xmlns="http://www.w3.org/2000/svg" xmlns:xlink="http://www.w3.org/1999/xlink" x="0px" y="0px"
	 width="1000px" height="1000px" viewBox="0 0 1000 1000" enable-background="new 0 0 1000 1000" xml:space="preserve">
<path fill-rule="evenodd" clip-rule="evenodd" d="M426.69,465.37c-34.754,86.279-68.644,170.583-102.696,254.827
	c-8.519,21.081-17.104,42.18-30.801,60.675c-14.271,19.271-32.441,31.357-57.134,32.843c-51.264,3.099-78.966-30.486-63.688-79.789
	c19.992-64.502,49.076-125.566,73.86-188.263c32.588-82.438,65.488-164.753,98.284-247.113c12.246-30.747,11.1-59.643-13.173-84.354
	c-24.748-25.201-54.732-30.509-88.141-21.167c-62.414,17.45-113.768,91.899-107.938,155.044c2.95,31.995,19.378,53.4,46.944,67.555
	c6.72,3.447,13.77,6.408,20.927,8.819c21.832,7.357,37.307,20.104,39.11,44.756c1.972,27.012-10.093,47.079-32.294,60.981
	c-32.953,20.618-67.53,15.658-100.457,1.407C42.473,502.586,7.717,447.613,1.233,377.473
	C-16.013,190.892,150.209,33.657,335.135,61.127c94.395,14.026,187.646,95.231,155.377,233.812
	c-8.077,34.68-22.11,67.238-34.438,101.914c9.956-1.87,13.369-9.058,18.147-14.054c83.442-87.402,166.669-175.002,250.028-262.478
	c14.659-15.383,28.905-31.279,47.176-42.697c29.428-18.386,65.153-16.213,86.183,5.244c20.688,21.104,21.947,54.074,2.814,83.964
	c-11.115,17.368-25.586,31.999-39.805,46.768c-76.951,79.936-153.747,160.022-231.166,239.504
	c-10.652,10.937-14.182,19.802-8.411,35.052c34.882,92.133,68.494,184.751,102.799,277.104
	c14.659,39.467,27.127,48.428,69.219,48.858c50.911,0.518,101.837,0.16,152.753,0.174c7.604,0,15.204-0.06,22.804,0.019
	c43.138,0.445,66.098,14.42,70.566,42.886c5.523,35.18-17.382,70.552-53.812,82.479c-7.165,2.342-22.231,2.328-22.231,2.328
	s-155.484-0.426-248.3,0c-44.815-3.424-75.411-26.324-91.423-67.527c-30.733-79.088-60.527-158.542-90.459-237.941
	c-20.044-53.18-39.622-106.539-59.542-159.761C432.156,473.405,429.747,470.477,426.69,465.37z"/>
</svg>
