<?xml version="1.0" encoding="utf-8"?>
<!-- Generator: Adobe Illustrator 16.2.1, SVG Export Plug-In . SVG Version: 6.00 Build 0)  -->
<!DOCTYPE svg PUBLIC "-//W3C//DTD SVG 1.1//EN" "http://www.w3.org/Graphics/SVG/1.1/DTD/svg11.dtd">
<svg version="1.1" id="Layer_1" xmlns="http://www.w3.org/2000/svg" xmlns:xlink="http://www.w3.org/1999/xlink" x="0px" y="0px"
	 width="1000px" height="1000px" viewBox="0 0 1000 1000" enable-background="new 0 0 1000 1000" xml:space="preserve">
<path fill-rule="evenodd" clip-rule="evenodd" d="M738.899,548.13c8.426,0,16.855-0.113,25.279,0.03
	c9.045,0.154,17.986-0.656,26.765-2.752c25.367-6.055,45.274-19.337,56.415-43.702c6.129-13.405,7.266-27.611,6.661-42.234
	c-1.16-28.081-19.808-53.528-46.295-62.587c-17.312-5.921-35.183-5.437-53.002-4.788c-16.27,0.592-32.512,1.073-48.761-0.12
	c-6.625-0.487-8.558,0.723-10.919,6.927c-1.051,2.763-0.277,3.981,2.633,4.263c4.836,0.469,9.625,1.234,14.242,2.847
	c3.771,1.316,5.905,3.951,6.218,7.897c0.381,4.833,0.813,9.678,0.83,14.518c0.083,24.708,0.105,49.417-0.002,74.122
	c-0.034,7.556-0.411,15.118-0.884,22.66c-0.439,7.009-2.592,9.251-9.457,10.649c-1.539,0.313-3.103,0.521-4.625,0.895
	c-3.055,0.746-6.018,5.499-5.339,8.761c0.749,3.594,3.792,2.389,5.965,2.412c11.425,0.114,22.85,0.053,34.275,0.053
	C738.899,548.03,738.899,548.08,738.899,548.13z M744.119,413.365c0.012-6.805,0.873-8.301,7.628-8.858
	c41.83-3.449,74.271,17.861,75.398,63.333c0.354,14.204-1.248,27.99-8.143,40.665c-8.565,15.745-21.396,25.163-39.706,26.701
	c-7.66,0.645-15.121,0.157-22.44-1.846c-9.312-2.55-12.67-7.074-12.717-16.729c-0.081-17.282-0.021-34.563-0.021-51.847
	C744.109,447.644,744.091,430.505,744.119,413.365z M971.688,456.494c11.409-7.456,17.781-17.674,16.614-31.611
	c-1.229-14.695-9.495-24.066-23.161-28.894c-2.951-1.042-6.009-1.897-9.088-2.438c-10.773-1.896-21.657-0.719-32.492-0.879
	c-14.992-0.222-29.993,0.032-44.98-0.338c-6.089-0.151-7.527,0.318-9.439,5.958c-1.027,3.038-0.288,4.527,3.052,4.918
	c4.101,0.48,8.196,1.161,12.228,2.054c3.542,0.785,5.764,3.123,6.061,6.866c0.36,4.547,0.945,9.119,0.791,13.659
	c-0.95,27.979-0.516,55.964-0.677,83.946c-0.019,3.143-0.011,6.284-0.044,9.427c-0.144,14.133-1.123,15.253-15.194,17.435
	c-3.866,0.6-7.195,4.419-6.784,8.388c0.471,4.545,4.283,2.736,6.778,2.926c3.692,0.28,7.422,0.038,11.136,0.082
	c9.28,0.11,18.577-0.054,27.836,0.459c16.952,0.938,33.789,0.585,49.843-5.467c13.776-5.189,26.038-12.774,32.175-27.118
	c7.298-17.059,4.34-38.898-14.87-49.588c-4.522-2.518-9.396-4.063-14.508-6.198C968.326,458.04,970.17,457.484,971.688,456.494z
	 M915.596,474.645c0.003-2.059,0.051-4.348,2.818-4.45c13.615-0.507,27.219-0.697,39.689,6.141
	c11.581,6.353,16.734,17.943,14.585,33.86c-1.669,12.379-8.636,20.62-20.836,23.966c-8.74,2.397-17.58,1.788-26.237-0.355
	c-6.07-1.503-9.568-7.435-9.957-15.441c-0.013-0.287-0.02-0.572-0.02-0.858c-0.001-7.001-0.001-14-0.001-21.001
	c-0.017,0-0.033,0-0.048,0C915.59,489.219,915.58,481.933,915.596,474.645z M915.693,411.982c0.07-5.918,1.249-7.012,6.997-7.124
	c8.887-0.174,17.657,0.058,25.945,4.033c5.708,2.738,9.893,6.805,12.021,12.706c3.128,8.667,3.177,17.403-1.007,25.752
	c-3.655,7.298-10.43,9.946-18.04,10.333c-7.4,0.376-14.833,0.048-22.25,0.15c-3.139,0.043-3.824-1.639-3.798-4.331
	c0.072-7.133,0.024-14.268,0.024-21.401c0.03,0,0.06,0,0.089,0C915.675,425.394,915.614,418.687,915.693,411.982z M38.608,500.601
	c0,8.141-0.011,16.283,0.003,24.425c0.014,8.107,1.809,10.213,9.949,11.54c2.746,0.447,5.427,0.579,5.505,4.496
	c0.102,5.143-1.03,6.017-6.245,5.74c-13.548-0.717-27.113-0.779-40.666,0.051c-2.494,0.153-4.965,0.717-5.668-2.753
	c-0.849-4.193,0.169-6.521,3.852-7.13c12.805-2.114,11.983-4.88,12.553-15.678c0.837-15.846,0.289-31.69,0.709-47.525
	c0.165-6.234-2.047-10.093-7.866-12.049c-2.298-0.773-4.544-1.702-6.825-2.533c-1.925-0.7-4.017-1.43-3.904-3.903
	c0.12-2.634,2.344-3.399,4.484-3.868c3.763-0.825,7.563-1.474,11.336-2.255c6.442-1.337,12.8-3.031,18.917-5.444
	c3.507-1.385,4.52,0.166,4.47,3.197c-0.044,2.702-0.465,5.396-0.581,8.099c-0.133,3.135,1.265,3.565,3.565,1.742
	c5.299-4.2,11.155-7.443,17.266-10.273c15.942-7.382,29.214-3.959,39.285,10.426c1.788,2.553,3.024,1.712,4.793,0.444
	c6.515-4.657,13.203-8.994,20.739-11.91c19.655-7.599,37.955,1.741,43.078,22.222c2.838,11.342,2.726,22.92,1.946,34.484
	c-0.588,8.707-0.314,17.413-0.213,26.117c0.042,3.61,2.448,5.665,5.684,6.711c2.029,0.657,4.126,1.123,6.216,1.565
	c4.994,1.061,6.411,4.08,4.126,8.668c-0.787,1.579-1.978,1.829-3.523,1.711c-14.406-1.096-28.831-0.458-43.248-0.363
	c-2.388,0.018-4.302,0.015-4.583-2.954c-0.264-2.784-0.512-5.354,3.003-6.606c11.193-3.987,11.223-4.055,11.284-16.212
	c0.062-12.282,0.114-24.568-0.035-36.851c-0.234-19.147-14.972-29.008-32.871-22.102c-1.33,0.512-2.622,1.135-3.897,1.774
	c-7.95,3.982-7.627,4.346-7.118,13.303c0.63,11.105,0.298,22.268,0.357,33.404c0.03,5.714,0.148,11.433-0.03,17.141
	c-0.146,4.667,1.986,7.224,6.425,8.139c1.538,0.316,3.038,0.855,4.586,1.069c3.781,0.524,5.004,2.607,4.442,6.281
	c-0.592,3.858-2.758,3.898-6.118,3.798c-13.264-0.402-26.544-0.82-39.811,0.218c-2.766,0.218-5.975,1.035-6.525-3.339
	c-0.587-4.666,0.371-6.007,5.214-6.963c9.52-1.883,10.854-3.292,10.962-13.003c0.147-13.28,0.043-26.565,0.075-39.848
	c0.007-3.033-0.523-5.985-1.338-8.869c-3.578-12.649-13.647-18.397-26.38-15.092c-1.793,0.465-3.571,1.031-5.301,1.691
	c-10.717,4.086-12.139,6.176-12.139,17.639c0,7.142,0,14.283,0,21.428C38.569,500.601,38.588,500.601,38.608,500.601z
	 M517.484,605.539c15.862-5.303,29.339-13.934,36.668-29.515c8.521-18.115,2.338-38.21-19.51-41.595
	c-6.057-0.938-12.201-1.299-18.279-2.103c-7.209-0.951-14.59-0.309-21.679-2.271c-3.238-0.896-5.976-2.644-5.751-6.446
	c0.209-3.533,2.889-5.111,6.061-5.674c3.647-0.646,7.412-0.74,10.995-1.613c23.229-5.646,36.877-20.263,34.939-44.456
	c-0.595-7.43-0.623-7.427,6.961-7.714c8.093-0.309,13.832-8.648,11.455-16.464c-0.768-2.519-1.983-2.466-3.693-1.109
	c-3.937,3.122-8.515,3.556-13.339,3.669c-6.166,0.147-11.872-1.466-17.496-3.625c-15.793-6.065-30.995-4.514-45.91,3.104
	c-12.987,6.633-20.246,16.858-20.519,31.59c-0.284,15.292,5.14,27.298,19.924,33.817c3.623,1.597,3.59,2.851,0.077,5.137
	c-3.831,2.492-7.736,4.87-11.639,7.248c-2.596,1.582-3.254,3.75-2.358,6.594c1.788,5.667,5.692,9.461,10.726,12.249
	c4.068,2.254,4.079,2.2,0.103,5.002c-5.495,3.871-10.791,7.981-15.515,12.795c-5.031,5.128-6.658,11.125-4.904,18.098
	c1.357,5.402,3.955,10.124,7.851,14.044c9.422,9.481,21.21,12.353,34.794,11.874C503.843,608.574,510.772,607.781,517.484,605.539z
	 M525.088,554.413c6.946,2.016,12.007,6.222,13.462,13.487c1.486,7.425-1.104,13.967-6.62,18.917
	c-13.474,12.096-40.56,10.683-52.916-2.502c-6.319-6.741-6.794-16.194-0.947-23.355c6.135-7.513,13.935-11.164,22.762-9.443
	C509.752,551.253,517.505,552.21,525.088,554.413z M488.28,456.064c9.042-5.643,22.637-1.965,27.864,7.741
	c5.728,10.633,6.123,21.761,1.361,32.93c-2.672,6.27-7.712,9.531-14.348,9.791c-8.423,0.33-14.803-3.647-19.136-10.735
	c-3.667-6.001-4.886-12.699-4.835-19.681C479.307,468.106,480.923,460.657,488.28,456.064z M362.203,457.971
	c6.667-5.035,12.941-9.729,20.255-12.721c21.777-8.911,41.349,2.328,45.323,25.886c1.319,7.819,0.89,15.669,0.951,23.514
	c0.082,10.85,0.05,21.693,0.622,32.542c0.216,4.123,1.825,6.419,5.599,7.44c1.928,0.522,3.884,0.943,5.837,1.365
	c4.936,1.073,6.769,6.104,3.807,10.373c-1.111,1.604-2.595,1.28-4.206,1.224c-14.559-0.519-29.126-0.893-43.675,0.223
	c-2.796,0.213-4.559-0.548-4.812-3.405c-0.253-2.877-1.266-6.176,2.609-7.651c1.053-0.4,2.228-0.487,3.348-0.713
	c7.527-1.511,8.986-2.97,8.985-10.495c0-15.277,0.524-30.559-0.729-45.826c-1.045-12.716-11.62-21.198-24.345-19.331
	c-4.877,0.715-9.374,2.19-13.682,4.641c-4.384,2.494-6.048,6.218-6.186,10.951c-0.508,17.429,0.828,34.831,0.785,52.254
	c-0.011,4.002,1.93,6.441,5.893,7.218c1.682,0.327,3.359,0.929,5.044,0.947c3.886,0.04,4.742,2.139,4.569,5.554
	c-0.261,5.173-0.886,5.638-6.092,5.489c-14.425-0.416-28.861-0.559-43.278,0.152c-2.885,0.143-4.482-0.48-4.735-3.334
	c-0.259-2.922-1.093-6.255,2.786-7.582c2.148-0.737,4.444-1.043,6.677-1.527c3.569-0.772,5.344-3.074,5.623-6.617
	c1.515-19.258,0.682-38.548,0.821-57.824c0.02-2.851-1.382-4.834-3.863-6.188c-3.276-1.789-6.735-3.108-10.236-4.365
	c-2.152-0.776-4.603-1.625-4.421-4.51c0.197-3.135,2.668-4.217,5.338-4.651c8.333-1.363,16.512-3.363,24.591-5.79
	c1.775-0.533,3.515-1.189,5.268-1.796c4.359-1.508,6.138-0.187,5.784,4.543C362.225,451.072,361.452,454.152,362.203,457.971z
	 M669.456,518.57c6.913-15.496,7.133-31.608,0.673-47.482c-5.658-13.901-16.071-22.646-30.448-26.562
	c-6.778-1.847-13.753-2.317-20.768-1.301c-17.63,2.554-32.579,9.77-42.074,25.493c-6.514,10.783-7.476,22.711-6.267,35.146
	c2.673,27.521,21.605,45.113,53.725,45.135C641.721,547.584,659.992,539.787,669.456,518.57z M594.37,474.779
	c5.784-24.222,29.663-24.568,42.647-12.726c9.577,8.734,13,20.308,14.112,32.636c0.743,8.243,0.508,16.56-1.818,24.653
	c-4.507,15.679-18.918,22.29-33.696,15.35c-10.771-5.06-16.366-14.291-19.74-25.16c-2.043-6.588-3.158-13.339-2.645-19.568
	C593.082,484.388,593.23,479.558,594.37,474.779z M299.276,523.208c9.317-16.405,10.09-34.031,3.211-51.642
	c-5.44-13.929-15.752-22.884-30.141-26.914c-6.912-1.935-14.018-2.458-21.179-1.43c-17.632,2.53-32.562,9.749-42.116,25.432
	c-6.571,10.785-7.49,22.702-6.289,35.133c2.669,27.604,21.541,45.192,53.979,45.212
	C271.819,547.941,289.017,541.272,299.276,523.208z M281.386,519.655c-4.43,15.281-18.552,21.734-33.11,15.274
	c-6.801-3.02-11.866-7.965-15.455-14.312c-8.043-14.226-9.464-29.696-6.233-45.276c5.263-25.378,30.141-25.316,43.46-12.452
	c9.284,8.968,12.275,20.636,13.388,32.979c0.178,1.985,0.025,3.998,0.025,5.997C283.813,507.916,283.065,513.86,281.386,519.655z"/>
</svg>
