<?xml version="1.0" encoding="utf-8"?>
<!-- Generator: Adobe Illustrator 16.2.1, SVG Export Plug-In . SVG Version: 6.00 Build 0)  -->
<!DOCTYPE svg PUBLIC "-//W3C//DTD SVG 1.1//EN" "http://www.w3.org/Graphics/SVG/1.1/DTD/svg11.dtd">
<svg version="1.1" id="Layer_1" xmlns="http://www.w3.org/2000/svg" xmlns:xlink="http://www.w3.org/1999/xlink" x="0px" y="0px"
	 width="1000px" height="1000px" viewBox="0 0 1000 1000" enable-background="new 0 0 1000 1000" xml:space="preserve">
<path fill-rule="evenodd" clip-rule="evenodd" d="M62.565,354.937c2.537,4.903,4.78,9.351,7.123,13.746
	c4.012,7.523,10.846,12.652,16.303,18.945c22.625,26.099,36.549,56.118,40.297,90.466c3.837,35.162-4.563,67.301-25.878,95.786
	c-6.605,8.826-14.103,16.843-22.942,23.491c-5.022,3.777-7.13,8.922-7.109,14.924c0.022,6.43-0.705,12.845-0.195,19.288
	c0.116,1.473,1.09,3.936-1.824,4.173c-2.891,0.237-5.859-1.963-5.95-4.393c-0.208-5.606-0.886-11.165-1.421-16.742
	c-0.765-7.982-4.22-13.821-10.517-19.258C22.902,571.579,5.045,542.011,0.876,505.35c-2.769-24.352,1.213-48.104,9.316-71.105
	c8.182-23.228,21.086-43.531,39.089-60.475c0.348-0.327,0.677-0.674,1.027-0.998C58.842,364.848,58.842,364.848,62.565,354.937z
	 M781.785,594.798c7.042,0,14.087-0.095,21.127,0.025c7.56,0.129,15.032-0.549,22.369-2.3c21.2-5.061,37.838-16.161,47.148-36.524
	c5.122-11.203,6.072-23.076,5.567-35.297c-0.97-23.469-16.555-44.736-38.691-52.308c-14.469-4.948-29.403-4.543-44.296-4.001
	c-13.598,0.495-27.172,0.897-40.752-0.1c-5.537-0.407-7.152,0.604-9.126,5.79c-0.878,2.309-0.231,3.327,2.201,3.563
	c4.041,0.392,8.044,1.031,11.902,2.379c3.151,1.1,4.936,3.302,5.196,6.601c0.318,4.039,0.681,8.088,0.694,12.133
	c0.069,20.649,0.088,41.3-0.002,61.947c-0.028,6.314-0.344,12.635-0.738,18.938c-0.367,5.857-2.166,7.731-7.904,8.9
	c-1.286,0.262-2.593,0.436-3.865,0.747c-2.553,0.624-5.029,4.596-4.462,7.322c0.626,3.003,3.169,1.996,4.985,2.016
	c9.548,0.096,19.097,0.044,28.646,0.044C781.785,594.715,781.785,594.756,781.785,594.798z M786.147,482.168
	c0.01-5.688,0.729-6.938,6.375-7.403c34.96-2.882,62.072,14.927,63.015,52.93c0.295,11.871-1.043,23.393-6.806,33.986
	c-7.158,13.158-17.881,21.029-33.184,22.315c-6.402,0.538-12.638,0.131-18.755-1.543c-7.783-2.131-10.589-5.912-10.628-13.981
	c-0.068-14.443-0.019-28.887-0.019-43.331C786.14,510.816,786.124,496.493,786.147,482.168z M976.338,518.213
	c9.535-6.231,14.86-14.771,13.886-26.418c-1.028-12.282-7.936-20.113-19.357-24.148c-2.466-0.871-5.021-1.585-7.595-2.038
	c-9.004-1.584-18.101-0.601-27.155-0.735c-12.53-0.186-25.067,0.027-37.593-0.283c-5.089-0.126-6.291,0.266-7.889,4.979
	c-0.859,2.539-0.241,3.783,2.55,4.11c3.428,0.401,6.851,0.97,10.22,1.716c2.96,0.656,4.816,2.61,5.064,5.738
	c0.302,3.801,0.79,7.622,0.661,11.416c-0.794,23.383-0.431,46.771-0.565,70.158c-0.016,2.626-0.009,5.252-0.036,7.878
	c-0.12,11.812-0.939,12.748-12.699,14.571c-3.231,0.501-6.014,3.693-5.67,7.01c0.394,3.799,3.58,2.287,5.665,2.445
	c3.086,0.234,6.203,0.032,9.307,0.068c7.756,0.093,15.526-0.045,23.264,0.384c14.168,0.783,28.239,0.489,41.656-4.568
	c11.514-4.338,21.762-10.677,26.891-22.664c6.099-14.257,3.627-32.51-12.428-41.443c-3.78-2.104-7.854-3.396-12.125-5.181
	C973.528,519.505,975.069,519.041,976.338,518.213z M929.459,533.383c0.003-1.721,0.043-3.634,2.355-3.72
	c11.379-0.424,22.748-0.583,33.171,5.132c9.679,5.31,13.985,14.996,12.189,28.299c-1.396,10.346-7.218,17.233-17.414,20.029
	c-7.305,2.004-14.692,1.495-21.928-0.297c-5.073-1.256-7.997-6.213-8.321-12.905c-0.011-0.239-0.017-0.478-0.017-0.717
	c-0.001-5.852-0.001-11.701-0.001-17.552c-0.014,0-0.027,0-0.04,0C929.454,545.562,929.446,539.474,929.459,533.383z
	 M929.541,481.012c0.059-4.946,1.044-5.86,5.848-5.954c7.427-0.146,14.757,0.048,21.684,3.371
	c4.771,2.288,8.268,5.687,10.046,10.619c2.614,7.244,2.655,14.544-0.841,21.523c-3.055,6.099-8.717,8.312-15.077,8.636
	c-6.185,0.313-12.396,0.04-18.596,0.125c-2.623,0.036-3.196-1.369-3.174-3.619c0.061-5.962,0.021-11.925,0.021-17.886
	c0.025,0,0.05,0,0.074,0C929.525,492.221,929.475,486.616,929.541,481.012z M196.517,555.075c0,6.804-0.009,13.608,0.002,20.413
	c0.012,6.775,1.511,8.535,8.315,9.645c2.295,0.374,4.536,0.484,4.601,3.758c0.085,4.298-0.86,5.028-5.219,4.797
	c-11.323-0.599-22.66-0.651-33.986,0.043c-2.084,0.128-4.15,0.599-4.737-2.301c-0.71-3.505,0.141-5.45,3.219-5.959
	c10.702-1.767,10.015-4.078,10.491-13.103c0.699-13.243,0.241-26.485,0.592-39.72c0.138-5.21-1.71-8.435-6.574-10.069
	c-1.921-0.646-3.798-1.423-5.704-2.117c-1.609-0.585-3.357-1.195-3.263-3.263c0.1-2.201,1.959-2.841,3.748-3.232
	c3.145-0.689,6.321-1.231,9.474-1.885c5.384-1.117,10.697-2.533,15.81-4.55c2.931-1.157,3.778,0.139,3.736,2.672
	c-0.037,2.259-0.389,4.51-0.485,6.769c-0.111,2.62,1.057,2.979,2.98,1.456c4.428-3.511,9.323-6.221,14.43-8.586
	c13.323-6.17,24.416-3.309,32.832,8.713c1.495,2.134,2.527,1.431,4.006,0.372c5.444-3.893,11.034-7.518,17.333-9.954
	c16.426-6.351,31.72,1.455,36.002,18.571c2.372,9.479,2.278,19.155,1.626,28.82c-0.491,7.277-0.263,14.554-0.178,21.828
	c0.035,3.017,2.046,4.734,4.75,5.608c1.696,0.549,3.449,0.938,5.195,1.309c4.174,0.886,5.358,3.409,3.448,7.244
	c-0.658,1.319-1.653,1.528-2.944,1.43c-12.04-0.916-24.095-0.383-36.145-0.304c-1.996,0.015-3.595,0.013-3.83-2.469
	c-0.22-2.327-0.428-4.475,2.51-5.521c9.354-3.332,9.38-3.389,9.431-13.549c0.052-10.265,0.096-20.533-0.029-30.798
	c-0.195-16.003-12.513-24.243-27.472-18.472c-1.111,0.428-2.191,0.948-3.257,1.483c-6.644,3.328-6.375,3.632-5.949,11.117
	c0.527,9.281,0.249,18.61,0.299,27.918c0.025,4.775,0.124,9.555-0.025,14.325c-0.122,3.9,1.66,6.037,5.37,6.802
	c1.285,0.265,2.539,0.715,3.833,0.894c3.16,0.438,4.183,2.18,3.712,5.25c-0.495,3.225-2.305,3.258-5.113,3.174
	c-11.085-0.336-22.185-0.686-33.271,0.182c-2.312,0.183-4.994,0.865-5.454-2.79c-0.491-3.899,0.31-5.021,4.357-5.819
	c7.956-1.573,9.071-2.751,9.162-10.867c0.124-11.099,0.037-22.202,0.063-33.303c0.006-2.535-0.437-5.002-1.118-7.412
	c-2.99-10.572-11.406-15.376-22.047-12.613c-1.499,0.389-2.984,0.862-4.431,1.414c-8.957,3.414-10.145,5.161-10.145,14.741
	c0,5.969,0,11.938,0,17.908C196.484,555.075,196.5,555.075,196.517,555.075z M596.737,642.777
	c13.257-4.432,24.521-11.645,30.646-24.667c7.121-15.14,1.954-31.934-16.306-34.763c-5.062-0.784-10.196-1.085-15.276-1.757
	c-6.025-0.795-12.193-0.258-18.118-1.897c-2.706-0.749-4.994-2.21-4.807-5.388c0.175-2.953,2.414-4.271,5.065-4.742
	c3.048-0.54,6.194-0.618,9.189-1.348c19.413-4.719,30.819-16.935,29.2-37.154c-0.497-6.21-0.521-6.207,5.817-6.447
	c6.764-0.258,11.561-7.228,9.574-13.76c-0.642-2.104-1.658-2.061-3.087-0.927c-3.29,2.609-7.116,2.972-11.148,3.066
	c-5.153,0.123-9.922-1.226-14.622-3.03c-13.199-5.068-25.904-3.772-38.369,2.595c-10.854,5.544-16.92,14.09-17.148,26.401
	c-0.237,12.78,4.296,22.814,16.651,28.263c3.027,1.335,3,2.383,0.064,4.293c-3.202,2.083-6.466,4.07-9.728,6.058
	c-2.17,1.322-2.72,3.135-1.971,5.511c1.494,4.736,4.757,7.907,8.964,10.237c3.4,1.884,3.409,1.839,0.086,4.181
	c-4.593,3.235-9.019,6.67-12.967,10.693c-4.205,4.285-5.564,9.298-4.099,15.125c1.135,4.515,3.306,8.461,6.562,11.737
	c7.875,7.924,17.727,10.323,29.079,9.924C585.337,645.314,591.128,644.651,596.737,642.777z M603.092,600.049
	c5.806,1.685,10.035,5.2,11.251,11.272c1.242,6.205-0.923,11.673-5.532,15.81c-11.261,10.109-33.898,8.928-44.225-2.091
	c-5.281-5.634-5.678-13.534-0.791-19.52c5.127-6.278,11.646-9.33,19.023-7.893C590.275,597.408,596.755,598.208,603.092,600.049z
	 M572.33,517.854c7.557-4.716,18.919-1.643,23.288,6.47c4.786,8.886,5.117,18.187,1.138,27.521
	c-2.233,5.24-6.445,7.966-11.991,8.183c-7.04,0.276-12.372-3.048-15.993-8.972c-3.064-5.016-4.084-10.613-4.041-16.448
	C564.831,527.918,566.182,521.692,572.33,517.854z M466.961,519.447c5.572-4.208,10.815-8.131,16.928-10.632
	c18.201-7.447,34.557,1.945,37.878,21.635c1.103,6.535,0.744,13.095,0.795,19.651c0.068,9.067,0.042,18.13,0.52,27.197
	c0.181,3.445,1.525,5.364,4.68,6.218c1.611,0.437,3.246,0.789,4.878,1.142c4.125,0.896,5.657,5.102,3.182,8.669
	c-0.929,1.341-2.169,1.07-3.515,1.022c-12.168-0.434-24.343-0.746-36.501,0.187c-2.336,0.178-3.81-0.458-4.021-2.847
	c-0.212-2.404-1.058-5.161,2.18-6.395c0.88-0.334,1.862-0.407,2.798-0.596c6.291-1.263,7.51-2.481,7.509-8.771
	c0-12.768,0.438-25.539-0.609-38.299c-0.874-10.627-9.711-17.717-20.347-16.156c-4.076,0.598-7.834,1.831-11.435,3.879
	c-3.664,2.084-5.055,5.196-5.169,9.152c-0.424,14.566,0.692,29.11,0.656,43.671c-0.009,3.345,1.613,5.384,4.925,6.032
	c1.406,0.273,2.808,0.776,4.216,0.792c3.248,0.033,3.963,1.787,3.819,4.642c-0.218,4.323-0.74,4.712-5.091,4.588
	c-12.056-0.348-24.121-0.467-36.169,0.127c-2.411,0.119-3.746-0.401-3.958-2.786c-0.217-2.442-0.913-5.228,2.329-6.337
	c1.795-0.616,3.714-0.872,5.581-1.276c2.982-0.646,4.466-2.569,4.699-5.53c1.266-16.095,0.57-32.217,0.686-48.327
	c0.017-2.382-1.155-4.04-3.229-5.171c-2.738-1.495-5.629-2.598-8.555-3.648c-1.799-0.648-3.847-1.357-3.695-3.769
	c0.165-2.62,2.23-3.524,4.461-3.888c6.964-1.14,13.8-2.811,20.552-4.839c1.483-0.445,2.938-0.994,4.402-1.501
	c3.643-1.261,5.129-0.156,4.834,3.797C466.979,513.682,466.333,516.256,466.961,519.447z M723.748,570.094
	c5.777-12.951,5.961-26.417,0.562-39.684c-4.729-11.618-13.432-18.926-25.447-22.199c-5.665-1.544-11.494-1.937-17.356-1.088
	c-14.734,2.135-27.229,8.165-35.164,21.306c-5.443,9.013-6.247,18.981-5.237,29.374c2.234,23,18.057,37.703,44.9,37.722
	C700.568,594.342,715.839,587.825,723.748,570.094z M660.995,533.495c4.834-20.243,24.791-20.533,35.643-10.636
	c8.004,7.3,10.864,16.973,11.794,27.275c0.621,6.89,0.425,13.84-1.52,20.604c-3.767,13.104-15.811,18.629-28.162,12.828
	c-9.002-4.229-13.678-11.943-16.497-21.027c-1.708-5.506-2.64-11.148-2.211-16.354C659.918,541.525,660.042,537.488,660.995,533.495
	z M414.37,573.97c7.787-13.711,8.433-28.442,2.684-43.16c-4.547-11.641-13.165-19.125-25.19-22.493
	c-5.777-1.617-11.716-2.055-17.701-1.195c-14.736,2.114-27.213,8.147-35.199,21.255c-5.492,9.014-6.26,18.974-5.256,29.362
	c2.231,23.069,18.002,37.77,45.113,37.786C391.423,594.641,405.796,589.066,414.37,573.97z M399.418,571
	c-3.703,12.771-15.505,18.165-27.672,12.766c-5.684-2.523-9.917-6.656-12.917-11.961c-6.723-11.889-7.91-24.818-5.209-37.84
	c4.398-21.209,25.19-21.158,36.322-10.406c7.759,7.494,10.259,17.246,11.189,27.562c0.149,1.659,0.021,3.341,0.021,5.012
	C401.447,561.189,400.822,566.157,399.418,571z"/>
</svg>
