<?xml version="1.0" encoding="utf-8"?>
<!-- Generator: Adobe Illustrator 16.2.1, SVG Export Plug-In . SVG Version: 6.00 Build 0)  -->
<!DOCTYPE svg PUBLIC "-//W3C//DTD SVG 1.1//EN" "http://www.w3.org/Graphics/SVG/1.1/DTD/svg11.dtd">
<svg version="1.1" id="Layer_1" xmlns="http://www.w3.org/2000/svg" xmlns:xlink="http://www.w3.org/1999/xlink" x="0px" y="0px"
	 width="1000px" height="1000px" viewBox="0 0 1000 1000" enable-background="new 0 0 1000 1000" xml:space="preserve">
<path fill-rule="evenodd" clip-rule="evenodd" d="M496.336,0c9.033,17.46,17.02,33.297,25.366,48.945
	c14.284,26.789,38.619,45.051,58.05,67.46c80.562,92.932,130.143,199.825,143.488,322.131
	c13.663,125.203-16.249,239.646-92.148,341.071c-23.521,31.429-50.217,59.978-81.693,83.65c-17.88,13.45-25.388,31.77-25.314,53.141
	c0.08,22.895-2.511,45.734-0.692,68.678c0.414,5.243,3.881,14.014-6.495,14.861c-10.293,0.842-20.866-6.989-21.188-15.641
	c-0.743-19.967-3.156-39.76-5.06-59.615c-2.725-28.424-15.027-49.218-37.449-68.573c-98.095-84.693-161.678-189.979-176.524-320.522
	c-9.86-86.71,4.319-171.287,33.172-253.187c29.135-82.71,75.084-155.005,139.188-215.338c1.238-1.165,2.412-2.399,3.658-3.554
	C483.081,35.292,483.081,35.292,496.336,0z"/>
</svg>
