<?xml version="1.0" encoding="utf-8"?>
<!-- Generator: Adobe Illustrator 16.2.1, SVG Export Plug-In . SVG Version: 6.00 Build 0)  -->
<!DOCTYPE svg PUBLIC "-//W3C//DTD SVG 1.1//EN" "http://www.w3.org/Graphics/SVG/1.1/DTD/svg11.dtd">
<svg version="1.1" id="Layer_1" xmlns="http://www.w3.org/2000/svg" xmlns:xlink="http://www.w3.org/1999/xlink" x="0px" y="0px"
	 width="1000px" height="1000px" viewBox="0 0 1000 1000" enable-background="new 0 0 1000 1000" xml:space="preserve">
<path d="M921.1,768.412c-54.408-1.371-96.569,4.076-131.938,19.038c-10.211,4.095-26.526,4.095-27.896,16.985
	c5.449,5.449,6.132,14.292,10.883,21.796c8.174,13.573,22.45,31.947,35.372,41.473c14.29,10.895,28.567,21.762,43.529,31.288
	c26.523,16.32,56.459,25.843,82.305,42.161c14.96,9.525,29.922,21.765,44.882,31.976c7.488,5.447,12.239,14.293,21.765,17.688
	c0-0.686,0-1.371,0-2.054c-4.764-6.104-6.119-14.946-10.881-21.765c-6.808-6.786-13.607-12.922-20.394-19.711
	c-19.724-26.528-44.215-49.659-70.743-68.688c-21.763-14.975-69.371-35.369-78.214-60.558c0,0-0.683-0.657-1.365-1.34
	c14.96-1.371,32.646-6.818,46.936-10.895c23.12-6.104,44.212-4.761,68.018-10.87c10.881-2.734,21.762-6.133,32.646-9.528
	c0-2.057,0-4.079,0-6.13c-12.249-12.239-21.092-28.557-34.012-40.12c-34.686-29.94-72.766-59.175-112.219-83.655
	c-21.092-13.607-48.288-22.447-70.735-34.009c-8.157-4.084-21.765-6.122-26.526-12.919c-12.239-14.968-19.039-34.686-27.884-52.369
	c-19.725-37.41-38.766-78.898-55.763-118.347c-12.25-26.521-19.725-53.047-34.685-77.535
	c-70.056-115.623-146.23-185.672-263.219-254.373c-25.16-14.277-55.085-20.402-87.056-27.884
	c-17.003-0.675-34.003-2.038-51.004-2.724c-10.896-4.753-21.765-17.677-31.291-23.801C132.845,27.062,32.867-25.985,4.288,44.064
	c-18.356,44.212,27.211,87.742,42.859,110.189c11.561,15.641,26.523,33.316,34.681,51.009c4.764,11.56,6.117,23.804,10.884,36.046
	c10.883,29.922,21.076,63.244,35.369,91.136c7.472,14.285,15.645,29.245,25.155,42.166c5.449,7.48,14.962,10.881,17.003,23.125
	c-9.513,13.604-10.201,34.009-15.63,51.009c-24.491,76.855-14.962,172.071,19.722,228.521
	c10.871,17.014,36.727,54.408,71.411,40.131c30.607-12.249,23.805-51.009,32.646-85.015c2.043-8.163,0.688-13.604,4.764-19.047
	c0,0.684,0,1.363,0,1.363c9.51,19.044,19.041,37.41,27.882,56.448c21.079,33.318,57.803,68.018,88.411,91.138
	c16.331,12.246,29.252,33.341,49.659,40.813c0-0.686,0-1.368,0-2.051c-0.683,0-0.683,0-1.366,0
	c-4.081-6.106-10.201-8.844-15.65-13.595c-12.233-12.249-25.841-27.212-35.354-40.8c-28.567-38.099-53.743-80.26-76.177-123.794
	c-10.881-21.082-20.407-44.204-29.25-65.286c-4.076-8.162-4.076-20.409-10.881-24.487c-10.214,14.962-25.163,27.884-32.648,46.252
	c-12.922,29.245-14.277,65.292-19.039,102.696c-2.726,0.683-1.374,0-2.726,1.36c-21.765-5.442-29.252-27.884-37.41-46.928
	c-20.409-48.291-23.803-125.829-6.117-181.595c4.762-14.284,25.158-59.173,17-72.779c-4.076-12.921-17.688-20.404-25.161-30.606
	c-8.843-12.92-18.369-29.239-24.488-43.529c-16.333-38.08-24.488-80.252-42.174-118.349c-8.155-17.677-22.432-36.039-33.999-52.362
	c-12.919-18.362-27.214-31.292-37.41-53.056c-3.396-7.48-8.157-19.717-2.726-27.881c1.355-5.44,4.076-7.48,9.528-8.843
	c8.843-7.479,34.001,2.042,42.841,6.12c25.173,10.203,46.255,19.725,67.332,34.007c9.528,6.802,19.724,19.723,31.965,23.125
	c4.762,0,9.526,0,14.292,0c21.765,4.764,46.25,1.365,66.644,7.48c36.057,11.569,68.703,28.569,97.95,46.929
	c89.096,56.451,162.545,136.709,212.193,232.608c8.155,15.646,11.562,29.927,19.052,46.25c14.277,33.323,31.96,67.329,46.24,99.978
	c14.287,31.968,27.879,64.616,48.288,91.143c10.198,14.276,51.017,21.757,69.372,29.244c13.607,6.119,34.697,11.562,46.936,19.041
	c23.123,14.285,46.253,30.6,68.018,46.258C885.061,737.805,919.061,754.808,921.1,768.412L921.1,768.412z M227.362,177.374
	c-11.563,0-19.721,1.36-27.876,3.401c0,0,0,0.676,0,1.361c0.683,0,0.683,0,1.353,0c5.45,10.882,14.96,18.362,21.765,27.883
	c5.45,10.884,10.211,21.765,15.645,32.648c0.686-0.679,1.355-1.356,1.355-1.356c9.528-6.802,14.292-17.692,14.292-34.007
	c-4.079-4.764-4.764-9.527-8.16-14.285C241.655,186.217,232.812,182.814,227.362,177.374L227.362,177.374z"/>
</svg>
