<?xml version="1.0" encoding="utf-8"?>
<!-- Generator: Adobe Illustrator 16.2.1, SVG Export Plug-In . SVG Version: 6.00 Build 0)  -->
<!DOCTYPE svg PUBLIC "-//W3C//DTD SVG 1.1//EN" "http://www.w3.org/Graphics/SVG/1.1/DTD/svg11.dtd">
<svg version="1.1" id="Layer_1" xmlns="http://www.w3.org/2000/svg" xmlns:xlink="http://www.w3.org/1999/xlink" x="0px" y="0px"
	 width="1000px" height="1000px" viewBox="0 0 1000 1000" enable-background="new 0 0 1000 1000" xml:space="preserve">
<path d="M0,558.296V419.415c0-13.494,5.396-19.963,16.451-23.469c26.97-8.087,45.037-1.074,52.859,16.989l51.779,119.742
	l53.668-119.742c8.091-18.062,25.89-25.076,52.588-16.989c11.327,3.506,16.724,9.976,16.724,23.469v138.881h-35.328V419.415
	l-54.478,121.089c-6.475,14.558-14.833,19.952-32.094,19.952s-26.161-5.395-32.365-19.952L35.059,419.415v138.881H0L0,558.296z
	 M273.196,445.305c0.809,0.532,0,77.126,0,78.742c0.269,17.531,22.652,32.903,57.443,33.174h74.703v9.174
	c0,3.778,2.698,15.101-19.958,17.532c-0.269,0-111.112,0-111.38,0v23.458h111.113c17.799-0.273,55.825-7.015,55.825-37.754
	c0-0.544,0-124.868,0-124.868H405.61v91.151c-0.542,0-66.614,0.271-76.592,0c-19.146-0.26-20.763-9.977-20.494-14.284v-76.324
	L273.196,445.305L273.196,445.305z M467.91,558.296h101.4c11.865,0,23.192-2.42,32.359-6.741
	c15.379-7.014,22.655-16.446,22.655-28.854v-25.889c0-9.977-8.358-19.42-25.08-25.889c-8.63-3.235-19.413-5.124-29.935-5.124
	h-42.611c-14.29,0-21.034-4.32-22.92-13.753c-0.271-1.085-0.271-2.161-0.271-3.235v-15.912c0-0.816,0-1.89,0.271-2.965
	c1.886-7.283,5.662-9.173,18.068-10.519c1.077,0,2.427,0,3.234,0h100.596v-23.469h-98.707c-14.294,0-21.846,0.814-28.587,2.976
	c-20.766,6.469-29.937,16.717-29.937,34.78v20.505c0,15.902,17.801,29.383,48.005,32.63c3.234,0.259,6.743,0.259,10.246,0.259
	h36.408c1.353,0,2.698,0,3.779,0.272c11.055,1.086,15.908,2.977,19.148,7.014c2.153,2.16,2.697,4.048,2.697,6.481v20.494
	c0,2.42-1.617,5.654-4.858,8.358c-3.235,2.691-8.358,4.581-15.105,4.852c-1.347,0-2.155,0.271-3.5,0.271h-97.358L467.91,558.296
	L467.91,558.296z M843.855,517.579c0,23.999,18.068,37.482,54.205,40.185c3.507,0.272,6.742,0.532,10.248,0.532H1000v-23.458
	h-92.501c-20.495,0-28.315-5.123-28.315-17.532v-121.36h-35.329L843.855,517.579L843.855,517.579z M646.709,518.652
	c0,19.419,11.062,31.285,33.444,37.495c7.279,1.889,14.29,2.69,20.494,2.69h37.754l28.322-1.617l28.044,25.348h40.723
	l-34.518-31.283c14.561-6.201,20.766-15.372,20.766-32.633v-83.594c0-21.311-14.835-34.259-44.231-38.298
	c-3.507-0.272-6.47-0.542-9.976-0.542h-66.885c-2.963,0-6.204,0.271-9.438,0.542c-29.396,4.039-44.501,16.987-44.501,38.298v83.594
	H646.709z M684.734,516.764v-79.558c0-10.778,10.253-17.532,25.896-17.532h53.125c13.753,0,22.927,5.124,24.815,14.297
	c0.266,1.085,0.266,2.16,0.266,3.235v80.099c0,1.076,0,2.433-0.266,3.507c-1.081,4.853-4.05,8.63-8.901,11.323l-25.624-23.188
	h-40.718l29.125,26.434H710.63c-14.024,0-23.197-5.396-25.08-15.112C685.278,518.923,684.734,517.85,684.734,516.764
	L684.734,516.764z"/>
</svg>
