<?xml version="1.0" encoding="utf-8"?>
<!-- Generator: Adobe Illustrator 16.2.1, SVG Export Plug-In . SVG Version: 6.00 Build 0)  -->
<!DOCTYPE svg PUBLIC "-//W3C//DTD SVG 1.1//EN" "http://www.w3.org/Graphics/SVG/1.1/DTD/svg11.dtd">
<svg version="1.1" id="Layer_1" xmlns="http://www.w3.org/2000/svg" xmlns:xlink="http://www.w3.org/1999/xlink" x="0px" y="0px"
	 width="1000px" height="1000px" viewBox="0 0 1000 1000" enable-background="new 0 0 1000 1000" xml:space="preserve">
<path fill-rule="evenodd" clip-rule="evenodd" d="M0,713.411V582.675c0-12.702,5.079-18.792,15.486-22.093
	c25.388-7.613,42.396-1.011,49.759,15.992l48.743,112.721l50.521-112.721c7.616-17.003,24.372-23.605,49.504-15.992
	c10.663,3.301,15.743,9.391,15.743,22.093v130.736h-33.256V582.675l-51.282,113.988c-6.096,13.703-13.964,18.781-30.212,18.781
	s-24.627-5.078-30.467-18.781L33.003,582.675v130.736H0L0,713.411z M257.174,607.046c0.761,0.501,0,72.603,0,74.125
	c0.253,16.503,21.323,30.973,54.074,31.228h70.321v8.636c0,3.557,2.54,14.215-18.787,16.504c-0.253,0-104.595,0-104.848,0v22.082
	H362.53c16.756-0.257,52.551-6.603,52.551-35.54c0-0.512,0-117.545,0-117.545h-33.259v85.806c-0.509,0-62.707,0.255-72.1,0
	c-18.023-0.245-19.545-9.392-19.292-13.447v-71.848H257.174L257.174,607.046z M970.55,523.774
	c-20.309-0.511-36.046,1.522-49.248,7.107c-3.812,1.528-9.902,1.528-10.413,6.34c2.034,2.034,2.289,5.335,4.062,8.135
	c3.051,5.067,8.38,11.925,13.203,15.481c5.334,4.066,10.663,8.123,16.248,11.679c9.901,6.091,21.075,9.646,30.722,15.737
	c5.584,3.556,11.169,8.124,16.753,11.935c2.795,2.034,4.568,5.335,8.124,6.603c0-0.256,0-0.512,0-0.767
	c-1.778-2.278-2.284-5.579-4.062-8.124c-2.54-2.533-5.079-4.823-7.612-7.357c-7.362-9.902-16.504-18.536-26.406-25.639
	c-8.123-5.59-25.894-13.202-29.194-22.604c0,0-0.255-0.245-0.51-0.5c5.584-0.512,12.186-2.545,17.519-4.067
	c8.63-2.278,16.503-1.777,25.389-4.057c4.062-1.021,8.123-2.289,12.186-3.557c0-0.767,0-1.522,0-2.288
	c-4.572-4.568-7.873-10.659-12.696-14.976c-12.947-11.175-27.161-22.087-41.887-31.225c-7.873-5.079-18.025-8.379-26.404-12.694
	c-3.045-1.525-8.124-2.286-9.901-4.823c-4.568-5.587-7.107-12.947-10.408-19.548c-7.362-13.963-14.47-29.45-20.815-44.174
	c-4.572-9.9-7.362-19.801-12.946-28.942c-26.149-43.158-54.583-69.305-98.251-94.949c-9.392-5.329-20.561-7.615-32.495-10.408
	c-6.347-0.252-12.692-0.761-19.038-1.017c-4.067-1.774-8.124-6.598-11.68-8.884c-14.47-9.138-51.788-28.939-62.456-2.792
	c-6.851,16.503,10.157,32.751,15.998,41.13c4.316,5.838,9.901,12.436,12.946,19.04c1.778,4.315,2.283,8.885,4.062,13.455
	c4.062,11.169,7.867,23.607,13.202,34.018c2.789,5.332,5.84,10.916,9.39,15.739c2.034,2.792,5.585,4.062,6.346,8.632
	c-3.55,5.078-3.807,12.694-5.834,19.04c-9.141,28.688-5.585,64.229,7.362,85.3c4.057,6.351,13.709,20.309,26.655,14.979
	c11.425-4.572,8.886-19.04,12.186-31.733c0.762-3.047,0.256-5.078,1.778-7.109c0,0.255,0,0.508,0,0.508
	c3.55,7.109,7.107,13.964,10.407,21.071c7.868,12.436,21.576,25.388,33.001,34.018c6.096,4.572,10.919,12.446,18.536,15.235
	c0-0.256,0-0.511,0-0.766c-0.255,0-0.255,0-0.51,0c-1.523-2.279-3.807-3.301-5.841-5.074c-4.567-4.572-9.646-10.157-13.197-15.23
	c-10.663-14.22-20.06-29.958-28.434-46.208c-4.062-7.869-7.617-16.5-10.918-24.369c-1.522-3.047-1.522-7.618-4.062-9.14
	c-3.812,5.584-9.392,10.408-12.186,17.264c-4.823,10.916-5.329,24.371-7.107,38.333c-1.017,0.255-0.512,0-1.017,0.508
	c-8.124-2.031-10.919-10.408-13.964-17.517c-7.618-18.025-8.885-46.967-2.283-67.783c1.777-5.332,9.39-22.087,6.346-27.166
	c-1.522-4.823-6.603-7.616-9.392-11.424c-3.301-4.823-6.856-10.914-9.141-16.248c-6.096-14.214-9.14-29.956-15.742-44.176
	c-3.044-6.598-8.373-13.452-12.69-19.545c-4.823-6.854-10.158-11.68-13.964-19.804c-1.268-2.792-3.045-7.36-1.018-10.407
	c0.506-2.031,1.522-2.792,3.557-3.301c3.301-2.792,12.691,0.762,15.991,2.284c9.397,3.809,17.266,7.363,25.133,12.694
	c3.557,2.539,7.362,7.362,11.931,8.632c1.778,0,3.556,0,5.335,0c8.124,1.778,17.264,0.509,24.876,2.792
	c13.459,4.318,25.645,10.664,36.562,17.517c33.257,21.071,60.673,51.029,79.205,86.825c3.044,5.84,4.316,11.171,7.111,17.264
	c5.329,12.438,11.93,25.132,17.26,37.318c5.333,11.933,10.406,24.119,18.025,34.021c3.806,5.329,19.042,8.121,25.894,10.916
	c5.079,2.284,12.951,4.315,17.52,7.107c8.63,5.332,17.264,11.422,25.388,17.267C957.098,512.35,969.789,518.696,970.55,523.774
	L970.55,523.774z M711.601,303.159c-4.317,0-7.362,0.508-10.406,1.27c0,0,0,0.252,0,0.508c0.255,0,0.255,0,0.505,0
	c2.034,4.062,5.584,6.854,8.124,10.408c2.034,4.062,3.812,8.124,5.84,12.186c0.256-0.253,0.506-0.506,0.506-0.506
	c3.556-2.539,5.335-6.604,5.335-12.694c-1.523-1.778-1.779-3.556-3.046-5.332C716.936,306.46,713.635,305.19,711.601,303.159
	L711.601,303.159z M440.469,713.411h95.454c11.169,0,21.832-2.278,30.461-6.346c14.477-6.602,21.327-15.481,21.327-27.161v-24.371
	c0-9.391-7.868-18.281-23.609-24.371c-8.124-3.045-18.275-4.823-28.179-4.823h-40.112c-13.453,0-19.801-4.067-21.577-12.946
	c-0.255-1.022-0.255-2.035-0.255-3.046v-14.979c0-0.768,0-1.779,0.255-2.791c1.776-6.855,5.33-8.635,17.009-9.901
	c1.014,0,2.284,0,3.045,0h94.696v-22.093h-92.919c-13.455,0-20.564,0.767-26.91,2.801c-19.548,6.09-28.18,15.736-28.18,32.74v19.303
	c0,14.97,16.756,27.66,45.189,30.717c3.045,0.244,6.348,0.244,9.646,0.244h34.272c1.273,0,2.54,0,3.558,0.256
	c10.406,1.022,14.975,2.801,18.025,6.602c2.027,2.033,2.539,3.811,2.539,6.102v19.292c0,2.278-1.522,5.323-4.573,7.868
	c-3.046,2.534-7.868,4.312-14.22,4.567c-1.267,0-2.028,0.256-3.295,0.256h-91.648V713.411L440.469,713.411z M794.366,675.082
	c0,22.592,17.009,35.284,51.027,37.828c3.3,0.257,6.346,0.501,9.646,0.501h86.315v-22.082h-87.077
	c-19.293,0-26.655-4.823-26.655-16.504V560.582h-33.257V675.082L794.366,675.082z M608.782,676.093
	c0,18.28,10.413,29.45,31.483,35.296c6.852,1.778,13.452,2.533,19.292,2.533h35.54l26.661-1.523l26.399,23.861h38.334
	l-32.493-29.449c13.707-5.836,19.548-14.47,19.548-30.718v-78.693c0-20.06-13.965-32.25-41.637-36.051
	c-3.301-0.256-6.09-0.511-9.39-0.511h-62.963c-2.789,0-5.84,0.255-8.885,0.511c-27.672,3.801-41.891,15.991-41.891,36.051V676.093
	L608.782,676.093z M644.577,674.314v-74.892c0-10.146,9.652-16.504,24.377-16.504h50.009c12.947,0,21.583,4.823,23.36,13.459
	c0.25,1.021,0.25,2.033,0.25,3.045v75.402c0,1.013,0,2.29-0.25,3.301c-1.017,4.568-3.812,8.124-8.379,10.659l-24.121-21.827h-38.33
	l27.417,24.883h-29.956c-13.202,0-21.837-5.079-23.609-14.226C645.089,676.348,644.577,675.337,644.577,674.314L644.577,674.314z"/>
</svg>
