<?xml version="1.0" encoding="utf-8"?>
<!-- Generator: Adobe Illustrator 16.2.1, SVG Export Plug-In . SVG Version: 6.00 Build 0)  -->
<!DOCTYPE svg PUBLIC "-//W3C//DTD SVG 1.1//EN" "http://www.w3.org/Graphics/SVG/1.1/DTD/svg11.dtd">
<svg version="1.1" id="Layer_1" xmlns="http://www.w3.org/2000/svg" xmlns:xlink="http://www.w3.org/1999/xlink" x="0px" y="0px"
	 width="1000px" height="1000px" viewBox="0 0 1000 1000" enable-background="new 0 0 1000 1000" xml:space="preserve">
<g>
	<path fill-rule="evenodd" clip-rule="evenodd" fill="#010101" d="M157.362,508.875c0-3.051-1.606-5.853-4.24-7.365l-70.205-40.403
		c-1.188-0.698-2.519-1.061-3.866-1.116c-0.121,0-0.627,0-0.726,0c-1.341,0.055-2.672,0.418-3.876,1.116L4.245,501.51
		C1.628,503.022,0,505.824,0,508.875l0.154,108.794c0,1.518,0.786,2.925,2.117,3.662c1.303,0.786,2.915,0.786,4.212,0l41.723-23.892
		c2.639-1.566,4.245-4.332,4.245-7.356V539.26c0-3.029,1.605-5.839,4.234-7.34l17.766-10.233c1.325-0.77,2.771-1.144,4.25-1.144
		c1.446,0,2.931,0.374,4.218,1.144l17.76,10.233c2.628,1.501,4.239,4.311,4.239,7.34v50.823c0,3.024,1.628,5.812,4.25,7.356
		l41.711,23.892c1.309,0.786,2.942,0.786,4.24,0c1.292-0.737,2.106-2.145,2.106-3.662L157.362,508.875z"/>
	<path fill-rule="evenodd" clip-rule="evenodd" fill="#010101" d="M532.242,359.324c-1.32-0.731-2.914-0.715-4.223,0.047
		c-1.287,0.761-2.09,2.152-2.09,3.656v107.74c0,1.059-0.561,2.04-1.474,2.571c-0.924,0.531-2.057,0.531-2.979,0L503.9,463.208
		c-2.629-1.512-5.856-1.509-8.474,0.002l-70.235,40.532c-2.625,1.516-4.242,4.314-4.242,7.344v81.081
		c0,3.029,1.617,5.828,4.239,7.346l70.228,40.562c2.628,1.518,5.861,1.518,8.484,0l70.24-40.562
		c2.629-1.518,4.245-4.316,4.245-7.346V390.053c0-3.074-1.661-5.908-4.354-7.407L532.242,359.324z M525.721,565.526
		c0,0.759-0.406,1.457-1.056,1.837l-24.119,13.895c-0.654,0.379-1.457,0.379-2.111,0l-24.116-13.895
		c-0.657-0.38-1.062-1.078-1.062-1.837v-27.845c0-0.758,0.404-1.457,1.059-1.836l24.113-13.928c0.66-0.38,1.463-0.38,2.123,0
		l24.114,13.928c0.649,0.379,1.056,1.078,1.056,1.836V565.526z"/>
	<path fill-rule="evenodd" clip-rule="evenodd" fill="#010101" d="M783.502,536.956c2.617-1.518,4.223-4.311,4.223-7.335v-19.646
		c0-3.023-1.605-5.82-4.223-7.338l-69.776-40.515c-2.628-1.526-5.872-1.529-8.501-0.011l-70.204,40.532
		c-2.629,1.516-4.245,4.313-4.245,7.344v81.059c0,3.047,1.639,5.861,4.289,7.368l69.765,39.754c2.573,1.474,5.729,1.485,8.313,0.05
		l42.207-23.457c1.342-0.748,2.178-2.149,2.178-3.678c0.011-1.529-0.803-2.942-2.123-3.707l-70.655-40.551
		c-1.32-0.754-2.134-2.161-2.134-3.679v-25.403c0-1.512,0.813-2.914,2.122-3.673l21.994-12.68c1.309-0.753,2.926-0.753,4.234,0
		l21.993,12.68c1.32,0.759,2.123,2.161,2.123,3.673v19.987c0,1.518,0.813,2.92,2.133,3.679c1.31,0.753,2.926,0.748,4.245-0.012
		L783.502,536.956z"/>
	<path fill-rule="evenodd" clip-rule="evenodd" fill="#010101" d="M285.07,461.685c2.623-1.515,5.856-1.515,8.479,0l70.225,40.524
		c2.625,1.514,4.242,4.312,4.242,7.348v81.109c0,3.029-1.617,5.828-4.24,7.346l-70.224,40.557c-2.625,1.518-5.858,1.518-8.484,0
		l-70.208-40.557c-2.623-1.518-4.239-4.316-4.239-7.346v-81.114c0-3.03,1.617-5.829,4.242-7.343L285.07,461.685z"/>
	<path fill="#010101" d="M919.854,639.724c-2.419,0-4.827-0.633-6.938-1.858L890.8,624.784c-3.299-1.843-1.683-2.497-0.594-2.876
		c4.398-1.528,5.29-1.881,9.996-4.547c0.483-0.281,1.133-0.171,1.639,0.121l16.99,10.084c0.616,0.346,1.484,0.346,2.046,0
		l66.224-38.221c0.616-0.352,1.012-1.056,1.012-1.787v-76.418c0-0.748-0.396-1.451-1.034-1.825l-66.19-38.19
		c-0.604-0.357-1.419-0.357-2.034,0l-66.181,38.201c-0.638,0.363-1.044,1.089-1.044,1.814v76.418c0,0.731,0.406,1.419,1.044,1.766
		l18.134,10.485c9.843,4.916,15.869-0.88,15.869-6.702v-75.445c0-1.066,0.857-1.914,1.925-1.914h8.401
		c1.045,0,1.914,0.848,1.914,1.914v75.445c0,13.136-7.148,20.668-19.608,20.668c-3.827,0-6.84,0-15.253-4.14l-17.364-10.002
		c-4.288-2.475-6.938-7.115-6.938-12.075v-76.418c0-4.971,2.65-9.604,6.938-12.072l66.225-38.264c4.189-2.37,9.754-2.37,13.911,0
		l66.213,38.264c4.289,2.48,6.961,7.101,6.961,12.072v76.418c0,4.96-2.672,9.579-6.961,12.075l-66.213,38.231
		C924.715,639.091,922.307,639.724,919.854,639.724z"/>
	<path fill="#010101" d="M940.309,587.075c-28.978,0-35.048-13.301-35.048-24.452c0-1.066,0.858-1.913,1.913-1.913h8.567
		c0.956,0,1.748,0.692,1.902,1.622c1.286,8.715,5.146,13.119,22.665,13.119c13.955,0,19.894-3.156,19.894-10.557
		c0-4.268-1.683-7.435-23.369-9.562c-18.112-1.787-29.317-5.795-29.317-20.289c0-13.356,11.261-21.329,30.143-21.329
		c21.213,0,31.704,7.362,33.035,23.16c0.055,0.55-0.144,1.072-0.506,1.474c-0.363,0.379-0.869,0.61-1.396,0.61h-8.6
		c-0.891,0-1.672-0.633-1.859-1.496c-2.056-9.166-7.07-12.097-20.674-12.097c-15.23,0-17.002,5.307-17.002,9.276
		c0,4.816,2.09,6.219,22.654,8.94c20.345,2.694,30.011,6.499,30.011,20.807C973.321,578.816,961.291,587.075,940.309,587.075z"/>
	<path fill-rule="evenodd" clip-rule="evenodd" fill="#010101" d="M708.437,533.156c0.506-0.291,1.121-0.291,1.627,0l13.482,7.775
		c0.506,0.291,0.813,0.824,0.813,1.408v15.565c0,0.577-0.308,1.116-0.813,1.408l-13.482,7.774c-0.506,0.291-1.121,0.291-1.627,0
		l-13.461-7.774c-0.506-0.292-0.813-0.831-0.813-1.408V542.34c0-0.584,0.308-1.117,0.813-1.408L708.437,533.156z"/>
</g>
</svg>
