<?xml version="1.0" encoding="utf-8"?>
<!-- Generator: Adobe Illustrator 16.2.1, SVG Export Plug-In . SVG Version: 6.00 Build 0)  -->
<!DOCTYPE svg PUBLIC "-//W3C//DTD SVG 1.1//EN" "http://www.w3.org/Graphics/SVG/1.1/DTD/svg11.dtd">
<svg version="1.1" id="Layer_1" xmlns="http://www.w3.org/2000/svg" xmlns:xlink="http://www.w3.org/1999/xlink" x="0px" y="0px"
	 width="1000px" height="1000px" viewBox="0 0 1000 1000" enable-background="new 0 0 1000 1000" xml:space="preserve">
<path d="M251.186,357.819H75.829L0,741.707h90.048l18.958-99.528h85.306c80.57,4.741,170.616-61.607,170.616-175.356
	C364.927,400.474,327.014,362.558,251.186,357.819z M184.834,571.089h-56.873l23.696-142.18h61.612
	c33.175,0,56.871,14.217,56.871,42.654C265.402,552.134,227.488,566.348,184.834,571.089z M336.492,642.179l75.829-383.885h90.05
	l-18.96,99.525h85.309c75.832,4.739,104.265,42.654,94.787,90.048l-33.175,194.312h-94.786l33.174-175.356
	c4.742-23.696,4.742-37.913-28.438-37.913h-71.087l-42.655,213.27H336.492z M886.253,357.819H710.898l-75.83,383.888h90.05
	l18.955-99.528h85.31C909.95,646.92,1000,580.571,1000,466.822C1000,400.474,962.084,362.558,886.253,357.819z M819.904,571.089
	h-56.871l23.697-142.18h61.607c33.179,0,56.875,14.217,56.875,42.654C900.473,552.134,862.557,566.348,819.904,571.089z"/>
</svg>
