<?xml version="1.0" encoding="utf-8"?>
<!-- Generator: Adobe Illustrator 16.2.1, SVG Export Plug-In . SVG Version: 6.00 Build 0)  -->
<!DOCTYPE svg PUBLIC "-//W3C//DTD SVG 1.1//EN" "http://www.w3.org/Graphics/SVG/1.1/DTD/svg11.dtd">
<svg version="1.1" id="Layer_1" xmlns="http://www.w3.org/2000/svg" xmlns:xlink="http://www.w3.org/1999/xlink" x="0px" y="0px"
	 width="1000px" height="1000px" viewBox="0 0 1000 1000" enable-background="new 0 0 1000 1000" xml:space="preserve">
<g>
	<path fill="#010101" d="M294.521,428.081h-44.521L232.876,530.82h41.097c30.822-3.422,58.218-13.697,61.643-71.916
		C335.615,438.355,318.492,428.081,294.521,428.081z"/>
	<path fill="#010101" d="M753.423,428.081h-44.519L691.781,530.82h41.096c30.82-3.422,58.218-13.697,61.645-71.916
		C794.521,438.355,777.397,428.081,753.423,428.081z"/>
	<path fill="#010101" d="M500,239.725C223.858,239.725,0,356.253,0,500c0,143.744,223.858,260.275,500,260.275
		c276.139,0,500-116.531,500-260.275C1000,356.253,776.139,239.725,500,239.725z M280.821,582.19h-61.643l-13.699,71.919h-65.069
		l54.794-277.398h126.713c54.794,3.426,82.19,30.824,82.19,78.768C404.108,537.673,339.042,585.616,280.821,582.19z M527.397,582.19
		l23.972-126.711c3.426-17.124,3.426-27.398-20.549-27.398h-51.368L448.63,582.19h-65.069l54.794-277.395h65.071l-13.701,71.916
		h61.645c54.796,3.426,75.342,30.824,68.493,65.071L595.891,582.19H527.397z M739.726,582.19h-61.645l-13.697,71.919h-65.07
		l54.796-277.398H780.82c54.796,3.426,82.193,30.824,82.193,78.768C863.014,537.673,797.943,585.616,739.726,582.19z"/>
</g>
</svg>
