<?xml version="1.0" encoding="utf-8"?>
<!-- Generator: Adobe Illustrator 16.2.1, SVG Export Plug-In . SVG Version: 6.00 Build 0)  -->
<!DOCTYPE svg PUBLIC "-//W3C//DTD SVG 1.1//EN" "http://www.w3.org/Graphics/SVG/1.1/DTD/svg11.dtd">
<svg version="1.1" id="Layer_1" xmlns="http://www.w3.org/2000/svg" xmlns:xlink="http://www.w3.org/1999/xlink" x="0px" y="0px"
	 width="1000px" height="1000px" viewBox="0 0 1000 1000" enable-background="new 0 0 1000 1000" xml:space="preserve">
<path d="M97.973,466.364c0,11.448-3.395,20.413-10.187,26.899s-16.102,9.73-27.928,9.73H12.7l0.121,54.143L0,557.335V430.051
	l63.412-0.218c10.912,0,19.382,3.243,25.411,9.729c6.104,6.486,9.156,15.454,9.157,26.899 M85.045,466.923
	c0-17.855-8.547-26.787-25.639-26.787l-46.7-0.198v52.996h44.296c18.696,0,28.043-8.699,28.043-26.097 M190.792,515.469
	c-0.001,13.582-3.549,24.194-10.646,31.822c-7.937,8.547-19.497,12.82-34.682,12.82c-7.249,0-13.583-0.984-19-2.975
	c-5.342-2.061-10.035-5.268-14.079-9.617c-7.325-8.161-10.989-18.85-10.989-32.051c0-13.277,3.549-23.807,10.646-31.589
	c7.86-8.699,19-13.048,33.423-13.048c15.261,0,26.783,4.235,34.567,12.703C187.206,491.167,190.791,501.811,190.792,515.469
	 M179.689,515.469c0-23.73-11.408-35.596-34.224-35.596c-10.302,0-18.39,3.167-24.266,9.498c-2.823,3.055-4.998,6.793-6.524,11.219
	c-1.45,4.348-2.175,9.312-2.175,14.879c0,10.912,2.823,19.611,8.469,26.098c5.724,6.41,13.889,9.617,24.496,9.617
	c11.75,0,20.489-3.319,26.211-9.957c2.747-2.979,4.77-6.604,6.066-10.877C179.041,526.076,179.688,521.118,179.689,515.469
	 M280.338,534.126c0,17.175-12.858,25.757-38.574,25.757c-7.859,0-14.498-0.604-19.916-1.827c-5.342-1.224-9.691-3.208-13.048-5.953
	c-2.595-2.061-4.656-4.766-6.182-8.126c-1.525-3.436-2.517-7.674-2.975-12.708l11.904-0.198c0,6.715,2.099,11.674,6.295,14.881
	c4.503,3.816,12.478,5.72,23.922,5.72c18.009,0,27.013-5.38,27.013-16.14c0-6.258-3.013-10.566-9.042-12.932
	c-1.222-0.543-8.508-1.746-21.862-3.664c-13.278-1.989-21.557-3.74-24.838-5.263c-7.098-3.36-10.645-9.425-10.645-18.202
	c0-8.547,3.167-14.918,9.501-19.113c3.129-1.749,7.019-3.091,11.674-4.01c4.731-0.982,10.187-1.482,16.369-1.482
	c24.723,0,37.085,9.268,37.085,27.812h-11.332c0-13.048-8.699-19.573-26.097-19.573c-8.853,0-15.453,1.345-19.802,4.007
	c-4.35,2.594-6.524,6.639-6.524,12.13c0,5.114,2.938,8.777,8.813,10.99c3.435,1.223,11.333,2.593,23.694,4.121
	c11.064,1.223,18.657,2.897,22.778,5.034c7.859,3.665,11.79,9.882,11.79,18.657 M332.255,557.478
	c-1.832,0.386-3.473,0.645-4.923,0.807c-1.373,0.198-2.365,0.218-2.975,0.218c-7.783,0-13.393-1.345-16.826-4.004
	c-3.434-2.751-5.151-7.517-5.151-14.308v-57.809h-14.193V473.8h14.079l0.121-27.587h10.874v27.704l19-0.203v8.699l-19-0.201v56.202
	c0,4.197,0.916,7.096,2.747,8.699c1.909,1.609,5.266,2.4,10.073,2.4c0.687,0,1.45,0,2.289-0.197c0.84-0.203,2.099-0.422,3.777-0.803
	l0.121,8.699 M421.253,554.62c0,25.33-14.231,37.998-42.694,37.998c-14.879,0-25.449-2.441-31.705-7.323
	c-5.418-4.197-8.737-10.953-9.959-20.261l11.217-0.203c1.298,6.791,3.663,11.521,7.097,14.195
	c4.578,3.583,12.248,5.375,23.007,5.375c11.446,0,19.649-2.594,24.609-7.78c5.036-5.188,7.555-12.551,7.555-22.093l-0.121-14.876
	c-6.868,10.76-18.504,16.135-34.912,16.135c-13.658,0-24.227-3.735-31.705-11.217c-3.434-3.659-6.066-8.09-7.897-13.276
	c-1.756-5.269-2.634-11.257-2.634-17.972c0-13.431,3.549-23.692,10.645-30.791c7.479-7.783,18.314-11.675,32.507-11.675
	c9.691,0,17.588,2.025,23.694,6.067c2.06,1.525,5.494,5.228,10.3,11.102l0.122-14.421h10.874v80.924 M410.379,512.865
	c-0.001-9.998-2.787-17.97-8.356-23.921c-5.494-6.029-13.583-9.044-24.266-9.044c-10.606,0-18.849,2.977-24.723,8.927
	c-5.8,5.877-8.699,14.04-8.699,24.495c0,22.509,11.406,33.766,34.224,33.766c4.96,0,9.347-0.761,13.163-2.289
	c3.815-1.522,7.21-3.775,10.188-6.755C407.555,532.167,410.379,523.777,410.379,512.865 M484.569,482.275
	c-3.281-0.604-6.334-0.924-9.155-0.924c-17.934,0-26.899,11.714-26.899,35.138l0.121,40.638h-10.874l-0.121-83.215l10.874-0.201
	v14.995h0.572c1.831-5.877,4.731-10.303,8.699-13.277c4.35-2.9,10.836-4.349,19.458-4.349c1.755,0,3.205,0,4.35,0
	c1.222,0,2.213,0,2.975,0.2v10.988 M574.18,517.758h-77.721c0,9.542,2.634,17.322,7.901,23.352
	c6.101,7.024,14.84,10.531,26.209,10.531c16.104,0,26.173-7.207,30.218-21.636h11.79c-1.756,8.247-5.913,15.19-12.475,20.834
	c-3.741,2.979-8.131,5.268-13.166,6.866c-4.958,1.69-10.379,2.522-16.251,2.522c-14.729,0-26.138-4.425-34.226-13.276
	c-7.476-7.938-11.216-18.662-11.216-32.167c0-13.431,3.893-24.038,11.676-31.821c7.781-7.859,18.734-11.788,32.848-11.788
	c7.558,0,14.155,1.102,19.805,3.319c5.644,2.134,10.379,5.456,14.189,9.958C570.708,492.538,574.18,503.644,574.18,517.758
	 M562.73,510.206c0-8.015-3.092-15.187-9.268-21.521c-6.105-6.334-14.003-9.501-23.697-9.501c-4.958,0-9.424,0.767-13.388,2.292
	c-3.97,1.447-7.517,3.703-10.648,6.753c-4.805,5.189-7.896,12.516-9.271,21.977H562.73 M716.531,523.422
	c0,29.884-20.118,44.825-60.355,44.825c-24.107,0-41.708-5.132-52.798-15.398c-9.074-8.436-13.612-21.266-13.612-38.496h16.227
	c0,27.771,16.728,41.658,50.184,41.658c16.038,0,27.635-2.888,34.781-8.659c6.05-4.953,9.074-12.789,9.074-23.514
	c0-10.633-4.121-18.098-12.373-22.411c-4.675-2.291-16.084-5.179-34.233-8.661c-22.823-4.121-37.628-8.293-44.408-12.51
	c-9.811-6.142-14.713-16.5-14.713-31.074c0-13.749,4.172-23.922,12.51-30.522c8.983-7.332,24.382-11,46.195-11
	c39.415,0,59.122,15.629,59.122,46.885h-16.357c0-23.371-14.622-35.06-43.86-35.06c-14.668,0-25.392,2.337-32.173,7.011
	c-6.42,5.04-9.627,12.422-9.627,22.136c0,10.176,4.126,17.367,12.373,21.585c4.4,2.385,17.327,5.684,38.775,9.899
	c20.164,3.667,33.775,7.882,40.835,12.65C711.72,498.725,716.531,508.942,716.531,523.422 M877.199,567.836l-9.902,10.724
	l-23.92-19.936c-5.045,3.208-11.186,5.639-18.428,7.283c-7.237,1.649-15.719,2.477-25.433,2.477
	c-24.838,0-44.454-7.38-58.848-22.139c-14.297-14.845-21.448-34.323-21.448-58.43c0-24.658,7.105-44.226,21.312-58.708
	c14.206-14.485,33.775-21.725,58.711-21.725c12.83,0,24.239,1.929,34.232,5.776c9.993,3.85,18.515,9.716,25.574,17.598
	c13.201,14.3,19.799,33.319,19.799,57.059c0,13.289-2.021,25.02-6.05,35.195c-4.035,10.085-10.268,18.657-18.697,25.712
	L877.199,567.836 M863.312,487.815c0-10.45-1.421-19.756-4.263-27.912c-2.842-8.25-7.242-15.444-13.201-21.585
	c-11.271-12.559-26.762-18.834-46.469-18.834c-19.434,0-35.06,5.999-46.886,18.01c-11.733,12.008-17.596,28.779-17.596,50.321
	c0,20.716,5.908,37.307,17.733,49.771c11.916,12.374,27.497,18.561,46.748,18.561c9.44,0,17.967-1.467,25.574-4.4
	c7.608-2.934,14.435-7.288,20.483-13.063c11.917-12.465,17.875-29.422,17.875-50.871 M999.863,564.258l-110.682,0.203V411.572
	l15.262-0.279v140.236H1000l-0.142,12.789"/>
</svg>
