<?xml version="1.0" encoding="utf-8"?>
<!-- Generator: Adobe Illustrator 16.2.1, SVG Export Plug-In . SVG Version: 6.00 Build 0)  -->
<!DOCTYPE svg PUBLIC "-//W3C//DTD SVG 1.1//EN" "http://www.w3.org/Graphics/SVG/1.1/DTD/svg11.dtd">
<svg version="1.1" id="Layer_1" xmlns="http://www.w3.org/2000/svg" xmlns:xlink="http://www.w3.org/1999/xlink" x="0px" y="0px"
	 width="1000px" height="1000px" viewBox="0 0 1000 1000" enable-background="new 0 0 1000 1000" xml:space="preserve">
<path d="M409.771,331.589L409.771,331.589c2.773,1.77,5.916,3.113,9.294,3.581c11.923,1.663,22.131-8.024,22.777-12.664
	c0.648-4.646-8.501-9.764-20.449-11.425c-11.932-1.663-22.142,0.757-22.773,5.393l0,0h-0.004
	C398.146,319.805,402.737,327.107,409.771,331.589L409.771,331.589z M402.418,324.005c-2.11-2.796-3.354-5.633-3.216-7.296
	l0.022-0.151c0.434-3.172,6.524-5.388,14.816-5.388c2.347,0,4.794,0.177,7.268,0.521c5.701,0.793,10.937,2.4,14.734,4.521
	c3.573,1.998,5.464,4.263,5.194,6.212c-0.51,3.66-8.594,12.327-19.43,12.327c-0.886,0-1.781-0.061-2.656-0.183
	c-3.08-0.426-5.946-1.626-8.505-3.18l0,0c-0.529-0.32-1.054-0.642-1.554-0.992l0,0C406.341,328.468,404.047,326.164,402.418,324.005
	z M981.859,595.266c-1.949-5.888-10.694-24.616-41.331-18.289c-48.521,10.014-77.076,9.02-93.755,5.174
	c107.572-178.565,163.991-407.387,112.348-473.382C904.257,38.663,823.701,1.06,726.154,0.021
	C654.148-0.728,597.416,18.483,590.7,21.553c-23.361-5.875-48.845-9.486-76.624-9.942c-46.215-0.736-86.615,9.372-120.746,30.039
	c-20.883-6.787-53.638-16.089-91.509-22.019C214.317,5.921,145.076,16.713,96.022,51.687
	c-57.54,41.025-84.114,113.81-78.986,216.333c1.714,34.289,22.544,141.526,55.725,245.735
	c43.013,135.092,88.853,211.603,136.243,227.411c5.461,1.818,11.762,3.1,18.701,3.1c15.945-0.004,35.25-6.767,55.421-29.122
	c2.621,14.086,22.227,21.111,43.974,27.553c0.44,0.132,0.889,0.24,1.343,0.323c5.545,1.011,10.975,2.091,16.312,3.151
	c18.691,3.71,36.344,7.215,54.362,7.215c0.002,0,0.002,0,0.008,0c22.985,0,43.145-5.869,62.406-18.438
	c0.122,91.124,7.245,168.566,18.876,197.653c5.034,12.586,31.499,67.404,109.772,67.399c12.833,0,27.051-1.472,42.802-4.847
	c79.476-17.036,115.229-51.462,127.529-122.788c7.183-41.624,16.612-119.557,20.72-160.43c10.645,2.646,23.57,3.865,37.389,3.865
	c33.572-0.004,72.444-7.18,96.828-18.499C957.628,677.698,991.771,625.255,981.859,595.266z M895.252,672.923
	c-25.067,11.634-58.986,17.086-87.961,17.086c-17.964,0-34.021-2.098-44.902-6.118c-4.957,46.362-16.407,139.08-23,177.29
	c-11.875,68.882-41.161,98.673-111.906,113.845c-11.816,2.528-22.547,3.663-32.307,3.663c-23.57,0-41.413-6.629-55.041-16.132
	c-14.827-7.568-27.92-19.886-35.782-39.548c-1.619-4.049-3.21-9.751-4.73-16.883c-0.233-0.58-0.462-1.156-0.68-1.699
	c-10.869-27.176-14.448-121.654-13.498-212.218c-24.798,25.013-56.79,38.126-93.755,38.126c-14.249,0-29.249-1.946-44.583-5.785
	c-7.309-1.826-16.971-5.381-25.103-10.553c-1.315-0.688-1.764-1.19-3.009-2.053c-7.589-5.524-13.207-12.631-13.027-21.296
	c0.385-18.492,24.959-25.687,43.407-29.489c44.809-9.226,48.096-13.396,61.917-30.943c2.929-3.721,6.403-8.125,10.705-13.178
	c-0.201-1.868-0.35-3.745-0.389-5.644c-20.908-0.046-41.4-5.566-59.826-15.91c-10.216,10.831-43.782,46.847-79.854,90.243
	c-12.876,15.48-25.364,23.853-36.752,27.857c-13.969,7.784-23.871,4.491-28.008,3.109c-2.457-0.82-4.905-1.921-7.347-3.209
	C110.405,677.97,41.209,336.175,38.05,272.975c-4.813-96.222,19.867-164.226,73.354-202.118
	c44.28-31.374,109.159-41.274,187.629-28.634c48.008,7.732,86.9,21.416,100.211,26.445c33.602-23.37,74.346-34.865,121.681-34.049
	c25.424,0.415,48.785,3.668,70.225,8.973v-1.09c2.132,0.383,4.262,0.764,6.353,1.18c13.394-4.82,60.098-18.491,118.372-18.491
	c16.214,0,34.091,1.115,52.792,4.104c58.49,8.062,121.636,33.388,170.144,95.369c6.514,8.327,10.701,21.683,12.588,39.027
	c6.852,37.248,1.807,91.835-15.142,157.458c-23.801,92.167-67.882,190.947-121.502,272.73c0,0-0.795,1.37-1.617,2.648
	c9.317,7.859,38.078,16.843,106.152,2.79c21.553-4.455,34.395-0.898,38.179,10.547C964.652,631.598,924.197,659.479,895.252,672.923
	z M781.498,594.685c-15.434,4.579-41.535,15.45-39.001,65.511c-0.15,1.928-0.369,4.402-0.641,7.255l0,0
	c-0.007,0.079-0.023,0.174-0.03,0.252c-0.122,1.311-0.26,2.706-0.41,4.189c-0.007,0.047-0.007,0.094-0.014,0.146
	c-4.117,40.94-16.755,144.553-23.801,185.388c-10.253,59.479-33.278,82.803-94.756,95.985
	c-65.188,13.966-88.196-19.238-103.377-57.191c-9.604-24.02-14.354-131.318-11.044-249.588c0.035-1.383-0.209-2.7-0.638-3.933
	c-0.354-2.623-0.844-5.271-1.611-7.95c-4.58-16.006-16.123-29.907-29.407-35.415c-4.26-1.766-10.702-4.433-18.43-4.433
	c-4.599,0-9.026,0.951-13.336,2.771c2.374-12.586,7.738-27.018,13.649-42.862l2.119-5.689c2.419-6.506,5.427-13.189,8.613-20.268
	c16.904-37.552,40.053-88.981,14.878-205.397c-6.209-28.705-22.341-47.384-46.596-54.908c-0.796-0.248-1.618-0.46-2.431-0.684
	c-1.257-0.345-2.533-0.664-3.832-0.95c-0.831-0.186-1.665-0.367-2.511-0.527c-1.68-0.314-3.39-0.582-5.129-0.803
	c-0.462-0.06-0.906-0.145-1.371-0.196c-2.188-0.247-4.438-0.399-6.726-0.496c-0.745-0.033-1.507-0.041-2.262-0.058
	c-1.736-0.036-3.497-0.036-5.287,0.008c-0.752,0.019-1.502,0.031-2.263,0.066c-2.496,0.109-5.022,0.271-7.618,0.54
	c-28.361,2.938-54.362,14.41-67.338,20.987c-4.963,2.517-9.177,4.871-12.858,7.094c0.086-1.262,0.182-2.568,0.284-3.908
	c0.096-1.252,0.208-2.55,0.321-3.867c0.002-0.043,0.007-0.085,0.011-0.127c0.238-2.751,0.521-5.647,0.842-8.655
	c0.003-0.024,0.005-0.044,0.008-0.065l0,0c4.979-46.368,20.595-121.537,69.334-170.76c33.346-33.675,77.676-50.238,131.719-49.417
	c172.292,2.824,248.941,143.587,268.4,196.959l0,0c0.014,0.04,0.029,0.075,0.043,0.115c0.533,1.459,1.022,2.854,1.47,4.177
	c0.014,0.05,0.027,0.096,0.04,0.147c0.453,1.333,0.862,2.61,1.229,3.794c-3.237-0.38-6.404-0.693-9.514-0.957
	c-1.093-0.093-2.151-0.149-3.232-0.229c-1.972-0.145-3.94-0.287-5.864-0.383c-1.303-0.066-2.576-0.098-3.858-0.141
	c-1.625-0.057-3.245-0.11-4.828-0.129c-1.388-0.019-2.748-0.007-4.104,0.001c-1.403,0.008-2.802,0.026-4.174,0.065
	c-1.432,0.04-2.843,0.101-4.239,0.175c-1.213,0.061-2.41,0.135-3.598,0.219c-1.476,0.108-2.934,0.231-4.369,0.375
	c-1.008,0.101-1.998,0.217-2.99,0.337c-1.533,0.184-3.053,0.376-4.534,0.604c-0.778,0.119-1.526,0.26-2.289,0.388
	c-1.632,0.281-3.26,0.569-4.827,0.904c-0.402,0.086-0.787,0.187-1.179,0.276c-12.509,2.811-23.069,7.355-31.61,13.667l0,0
	c-1.441,1.066-2.82,2.182-4.155,3.348c-0.029,0.027-0.057,0.053-0.086,0.08c-1.326,1.164-2.591,2.376-3.801,3.64
	c-2.14,2.231-4.147,4.572-5.925,7.113c-38.625,55.216,22.234,164.352,51.481,216.802c5.468,9.806,10.192,18.273,11.729,22.011
	c9.457,22.917,21.756,38.287,30.737,49.51c4.139,5.169,7.867,9.833,10.015,13.651c-0.615,0.174-1.217,0.343-1.764,0.502
	c-1.016,0.285-2.116,0.596-3.268,0.938C781.498,594.686,781.498,594.686,781.498,594.685z M923.759,620.971
	c4.277-0.882,7.441-1.269,9.753-1.403c-6.302,8.002-22.987,21.889-47.572,33.301c-30.873,14.329-91.262,19.877-115.381,10.6
	c-5.014-1.931-5.943-3.634-5.95-3.635c-2.101-36.87,12.896-41.082,26.133-44.798c1.942-0.545,4.628-1.299,7.384-2.475
	c1.497,1.332,3.217,2.664,5.182,3.965C825.759,631.344,866.285,632.839,923.759,620.971z M437.937,547.077l2.105-5.659
	c2.681-7.21,5.834-14.221,9.18-21.646c16.512-36.688,37.065-82.347,13.428-191.648c-4.924-22.764-17.045-35.809-37.065-39.877
	c-1.155-0.234-2.324-0.431-3.5-0.601c-1.116-0.167-2.244-0.295-3.377-0.41c-0.026-0.003-0.047-0.007-0.074-0.008
	c0,0,0.001,0,0.001,0.001c-40.876-4.087-92.056,24.627-101.373,34.002c0.093,2.586,0.305,6.13,0.551,10.296
	c1.447,24.4,4.142,69.816-3.142,121.897c-5.366,38.366,6.361,75.818,32.176,102.753c18.564,19.369,42.483,30.82,67.444,32.788l0,0
	c0.02,0.002,0.035,0.002,0.058,0.004c1.609,0.126,3.224,0.219,4.844,0.267c1.646,0.051,3.297,0.061,4.948,0.027
	C427.104,576.118,432.308,562.166,437.937,547.077z M408.903,331.754c-3.868-2.61-6.47-5.694-7.464-7.009
	c-2.432-3.225-3.715-6.349-3.433-8.358l0.114-0.525c1.005-3.614,7.139-5.917,15.921-5.917c1.365,0,2.764,0.073,4.179,0.187l0,0
	c1.08,0.086,2.162,0.192,3.254,0.345c0.089,0.013,0.165,0.031,0.252,0.045h-0.002c5.755,0.826,11.043,2.458,14.916,4.62
	c4.096,2.29,6.16,4.935,5.809,7.451c-0.652,4.699-9.604,13.383-20.642,13.383c-0.944,0-1.895-0.066-2.825-0.196
	c-3.944-0.547-7.295-2.154-10.034-3.995l0,0C408.931,331.774,408.918,331.762,408.903,331.754z M789.386,327.817
	c2.208-14.318,4.284-27.991,4.284-43.371c-37.765-5.052-65.097-2.077-81.699,8.792c-0.318,0.207-0.648,0.408-0.958,0.622
	c-0.69,0.475-1.345,0.975-2,1.478c-0.511,0.396-1.015,0.797-1.5,1.211c-0.515,0.441-1.028,0.886-1.516,1.346
	c-0.615,0.566-1.181,1.157-1.744,1.754c-0.352,0.375-0.719,0.739-1.058,1.123c-0.885,1.02-1.734,2.072-2.504,3.178
	c-30.694,43.869,27.723,148.628,52.667,193.36c6.286,11.267,10.826,19.409,12.86,24.348c3.253,7.878,6.883,14.697,10.616,20.762
	c20.346-38.533,15.769-77.391,11.242-115.083c-2.203-18.275-4.275-35.538-3.714-52.793
	C784.931,356.758,787.197,342.044,789.386,327.817z M738.617,326.198c-10.687,0-19.72-8.627-20.355-13.118
	c-0.4-2.986,2.846-6.071,8.212-8.414l0,0c0.338-0.146,0.685-0.288,1.032-0.426l0,0c3.246-1.296,7.16-2.33,11.479-2.933
	c2.513-0.349,5.002-0.527,7.397-0.527c9.032,0,15.211,2.425,15.736,6.182c0.416,3.02-2.983,8.818-8.377,13.261
	c-0.385,0.316-0.778,0.622-1.182,0.921l0,0c-3.224,2.408-7.046,4.291-11.154,4.861C740.489,326.132,739.553,326.198,738.617,326.198
	z M329.082,598.214c-5.577,6.084-12.098,13.28-19.296,21.354c-13.283,14.896-28.815,32.721-44.859,52.025
	c-24.11,28.986-41.351,23.231-47.012,21.345C134.728,665.194,63.35,336.364,60.125,271.873
	c-4.407-88.149,17.128-149.701,64.017-182.944c71.996-51.048,187.341-24.906,241.578-8.225c0.352,0.108,0.684,0.213,1.03,0.319
	c1.858,0.576,3.635,1.137,5.338,1.685c0.378,0.121,0.757,0.241,1.126,0.361c2.033,0.657,3.988,1.299,5.772,1.901
	c-1.978,1.836-3.947,3.687-5.859,5.622c-7.416,7.49-14.117,15.484-20.195,23.813c-1.235,1.688-2.398,3.414-3.578,5.132
	c-0.705,1.025-1.436,2.039-2.122,3.071c-1.104,1.661-2.155,3.342-3.21,5.023c-0.701,1.121-1.421,2.234-2.104,3.36
	c-1.012,1.673-1.987,3.365-2.955,5.054c-0.662,1.153-1.331,2.306-1.976,3.468c-0.939,1.698-1.849,3.407-2.748,5.12
	c-0.615,1.171-1.226,2.342-1.821,3.517c-0.873,1.726-1.723,3.455-2.557,5.192c-0.562,1.169-1.113,2.342-1.656,3.517
	c-0.813,1.755-1.617,3.514-2.392,5.276c-0.501,1.147-0.987,2.295-1.475,3.441c-0.767,1.804-1.525,3.61-2.253,5.417
	c-0.432,1.074-0.839,2.15-1.259,3.225c-0.73,1.882-1.464,3.765-2.156,5.647c-0.331,0.91-0.643,1.818-0.969,2.728
	c-0.73,2.043-1.462,4.091-2.146,6.13c-0.083,0.242-0.154,0.481-0.234,0.722c-2.53,7.599-4.734,15.14-6.675,22.551
	c-0.181,0.695-0.38,1.396-0.557,2.089c-0.494,1.932-0.953,3.843-1.412,5.756c-0.218,0.92-0.447,1.849-0.662,2.765
	c-0.421,1.813-0.81,3.602-1.201,5.389c-0.216,0.984-0.435,1.973-0.637,2.947c-0.365,1.733-0.709,3.448-1.041,5.154
	c-0.198,0.999-0.392,1.996-0.579,2.986c-0.317,1.667-0.62,3.319-0.91,4.959c-0.174,0.985-0.342,1.966-0.507,2.94
	c-0.273,1.614-0.539,3.218-0.792,4.799c-0.147,0.944-0.288,1.874-0.429,2.805c-0.24,1.574-0.474,3.144-0.69,4.678
	c-0.125,0.884-0.238,1.747-0.354,2.618c-0.205,1.532-0.413,3.062-0.595,4.55c-0.096,0.788-0.182,1.547-0.271,2.324
	c-0.182,1.528-0.364,3.065-0.525,4.542c-0.036,0.329-0.062,0.635-0.097,0.96c-0.388,3.681-0.719,7.194-0.99,10.518
	c-0.019,0.234-0.04,0.487-0.062,0.721c-0.098,1.264-0.183,2.458-0.267,3.664c-0.051,0.702-0.107,1.431-0.152,2.115
	c-0.072,1.072-0.13,2.085-0.19,3.105c-0.046,0.743-0.091,1.502-0.129,2.214c-0.051,0.946-0.093,1.843-0.134,2.735
	c-0.033,0.709-0.069,1.425-0.094,2.1c-0.035,0.827-0.065,1.615-0.088,2.391c-0.025,0.657-0.046,1.307-0.066,1.926
	c-0.02,0.704-0.038,1.388-0.053,2.039c-0.015,0.615-0.028,1.209-0.036,1.775c-0.011,0.56-0.02,1.118-0.029,1.631
	c-0.007,0.56-0.013,1.081-0.017,1.582c-0.001,0.438-0.007,0.886-0.007,1.279c-0.001,0.488,0,0.92,0,1.34
	c0.001,0.295,0.001,0.623,0.003,0.882c0.003,0.437,0.007,0.794,0.013,1.126c0.001,0.145,0.002,0.337,0.005,0.462
	c0.007,0.404,0.015,0.723,0.021,0.906c-0.001,3.19,0.265,7.765,0.64,14.065c1.398,23.632,4.007,67.62-2.973,117.526
	c-0.357,2.564-0.63,5.125-0.859,7.681c-0.088,0.97-0.143,1.936-0.208,2.904c-0.108,1.539-0.201,3.077-0.263,4.61
	c-0.048,1.248-0.083,2.496-0.098,3.741c-0.018,1.162-0.014,2.321-0.006,3.479c0.013,1.485,0.026,2.968,0.082,4.446
	c0.026,0.639,0.072,1.272,0.102,1.909c0.437,8.492,1.565,16.861,3.398,25.026c0.004,0.03,0.014,0.059,0.018,0.088
	c5.668,25.147,17.86,48.353,35.95,67.228c3.936,4.105,8.093,7.883,12.408,11.388c-0.561,0.602-1.206,1.291-1.843,1.976
	c-0.318,0.339-0.615,0.657-0.951,1.016c-0.477,0.512-1.007,1.083-1.519,1.633c-0.589,0.632-1.169,1.259-1.802,1.943
	c-0.309,0.331-0.648,0.696-0.969,1.041c-0.9,0.974-1.818,1.964-2.802,3.027c-0.169,0.188-0.35,0.385-0.523,0.57
	c-1.151,1.248-2.344,2.546-3.596,3.911C329.222,598.061,329.15,598.14,329.082,598.214z M655.81,52.255
	c0.058-0.011,0.115-0.019,0.165-0.03c17.079-2.785,37.461-4.925,59.895-4.925c86.686,0,155.058,31.19,203.197,92.702
	c18.791,24.012,17.136,92.945-4.218,175.619c-20.906,80.952-57.872,167.157-103.211,241.795c-0.157,0.261-0.319,0.525-0.475,0.785
	c-3.411,5.606-6.859,11.159-10.367,16.624c-2.151-2.935-4.519-5.916-7.014-9.043c-0.91-1.132-1.853-2.312-2.803-3.507
	c29.824-47.768,24.11-95.406,19.044-137.579c-2.094-17.416-4.073-33.865-3.57-49.443c0.526-16.455,2.692-30.494,4.786-44.071
	c2.678-17.393,5.174-33.906,4.39-54.066c0.52-1.87,0.756-4.119,0.5-6.879c-1.802-19.095-23.742-76.401-68.521-128.529
	c-25.593-29.79-63.442-63.289-115.627-84.771c2.217-0.513,4.562-1.029,7.003-1.544c0.137-0.028,0.266-0.058,0.4-0.086
	c2.453-0.512,5.017-1.02,7.671-1.519c0.108-0.02,0.217-0.042,0.326-0.061C650.087,53.224,652.902,52.73,655.81,52.255z
	 M484.919,640.826c1.32,4.617,2.779,13.413-2.274,20.492c-1.5,2.099-3.041,4.111-4.615,6.067c-0.265,0.326-0.54,0.635-0.806,0.959
	c-1.37,1.67-2.764,3.298-4.189,4.862c-0.167,0.183-0.341,0.356-0.51,0.542c-1.569,1.703-3.175,3.34-4.815,4.923
	c-0.047,0.047-0.096,0.087-0.144,0.133c-1.741,1.673-3.523,3.276-5.344,4.808c-0.01,0.009-0.021,0.02-0.033,0.029c0,0,0,0,0-0.003
	c-19.37,16.312-42.962,24.592-70.505,24.592c-11.719,0-24.123-1.587-36.877-4.606h-0.001c-0.784-0.187-1.554-0.321-2.342-0.518
	c-11.189-2.796-20.593-8.284-23.634-11.637c2.243-1.702,8.59-5.27,25-8.652c50.476-10.393,57.667-17.134,74.827-38.918
	c4.002-5.083,8.539-10.842,14.851-17.89c8.043-9.004,13.151-9.004,14.83-9.004c3.085,0,6.207,1.191,9.966,2.75
	C475.374,622.684,482.207,631.349,484.919,640.826z"/>
</svg>
