<?xml version="1.0" encoding="utf-8"?>
<!-- Generator: Adobe Illustrator 16.2.1, SVG Export Plug-In . SVG Version: 6.00 Build 0)  -->
<!DOCTYPE svg PUBLIC "-//W3C//DTD SVG 1.1//EN" "http://www.w3.org/Graphics/SVG/1.1/DTD/svg11.dtd">
<svg version="1.1" id="Layer_1" xmlns="http://www.w3.org/2000/svg" xmlns:xlink="http://www.w3.org/1999/xlink" x="0px" y="0px"
	 width="1000px" height="1000px" viewBox="0 0 1000 1000" enable-background="new 0 0 1000 1000" xml:space="preserve">
<path d="M97.973,868.608c0,11.446-3.395,20.411-10.187,26.897s-16.102,9.729-27.928,9.729H12.7l0.121,54.143L0,959.577V832.295
	l63.412-0.219c10.912,0,19.382,3.243,25.411,9.729c6.104,6.486,9.156,15.454,9.157,26.898 M85.045,869.166
	c0-17.854-8.547-26.787-25.639-26.787l-46.7-0.198v52.996h44.296c18.696,0,28.043-8.698,28.043-26.097 M190.792,917.711
	c-0.001,13.584-3.549,24.194-10.646,31.822c-7.937,8.547-19.497,12.82-34.682,12.82c-7.249,0-13.583-0.984-19-2.976
	c-5.342-2.061-10.035-5.266-14.079-9.614c-7.325-8.164-10.989-18.85-10.989-32.054c0-13.276,3.549-23.806,10.646-31.588
	c7.86-8.699,19-13.049,33.423-13.049c15.261,0,26.783,4.234,34.567,12.703C187.206,893.411,190.791,904.054,190.792,917.711
	 M179.689,917.711c0-23.729-11.408-35.595-34.224-35.595c-10.302,0-18.39,3.167-24.266,9.498c-2.823,3.056-4.998,6.793-6.524,11.219
	c-1.45,4.35-2.175,9.311-2.175,14.878c0,10.912,2.823,19.611,8.469,26.1c5.724,6.41,13.889,9.615,24.496,9.615
	c11.75,0,20.489-3.318,26.211-9.957c2.747-2.978,4.77-6.604,6.066-10.877C179.041,928.318,179.688,923.36,179.689,917.711
	 M280.338,936.37c0,17.173-12.858,25.755-38.574,25.755c-7.859,0-14.498-0.604-19.916-1.827c-5.342-1.223-9.691-3.205-13.048-5.951
	c-2.595-2.061-4.656-4.768-6.182-8.128c-1.525-3.433-2.517-7.671-2.975-12.708l11.904-0.198c0,6.716,2.099,11.677,6.295,14.882
	c4.503,3.815,12.478,5.723,23.922,5.723c18.009,0,27.013-5.38,27.013-16.143c0-6.256-3.013-10.566-9.042-12.933
	c-1.222-0.543-8.508-1.746-21.862-3.664c-13.278-1.986-21.557-3.737-24.838-5.263c-7.098-3.357-10.645-9.425-10.645-18.2
	c0-8.547,3.167-14.919,9.501-19.113c3.129-1.749,7.019-3.091,11.674-4.01c4.731-0.981,10.187-1.481,16.369-1.481
	c24.723,0,37.085,9.268,37.085,27.812h-11.332c0-13.048-8.699-19.572-26.097-19.572c-8.853,0-15.453,1.346-19.802,4.008
	c-4.35,2.594-6.524,6.639-6.524,12.13c0,5.112,2.938,8.774,8.813,10.987c3.435,1.227,11.333,2.597,23.694,4.121
	c11.064,1.224,18.657,2.9,22.778,5.037c7.859,3.662,11.79,9.882,11.79,18.654 M332.255,959.722
	c-1.832,0.384-3.473,0.644-4.923,0.806c-1.373,0.197-2.365,0.218-2.975,0.218c-7.783,0-13.394-1.345-16.826-4.004
	c-3.434-2.748-5.151-7.518-5.151-14.309v-57.807h-14.193v-8.583h14.079l0.121-27.586h10.874v27.703l19-0.203v8.699l-19-0.2v56.2
	c0,4.196,0.916,7.098,2.747,8.698c1.909,1.609,5.267,2.403,10.073,2.403c0.687,0,1.45,0,2.289-0.2c0.84-0.2,2.099-0.422,3.777-0.802
	l0.12,8.698 M421.253,956.862c0,25.33-14.231,37.998-42.694,37.998c-14.879,0-25.448-2.441-31.705-7.323
	c-5.418-4.197-8.736-10.952-9.959-20.261l11.218-0.203c1.298,6.791,3.663,11.522,7.097,14.194
	c4.578,3.584,12.248,5.379,23.007,5.379c11.446,0,19.649-2.598,24.609-7.783c5.036-5.188,7.555-12.552,7.555-22.09l-0.121-14.88
	c-6.868,10.761-18.504,16.139-34.912,16.139c-13.657,0-24.227-3.738-31.704-11.218c-3.435-3.661-6.066-8.09-7.897-13.278
	c-1.756-5.267-2.634-11.257-2.634-17.972c0-13.43,3.549-23.691,10.645-30.789c7.479-7.783,18.314-11.677,32.507-11.677
	c9.691,0,17.589,2.025,23.694,6.067c2.06,1.525,5.494,5.228,10.3,11.103l0.122-14.422h10.874v80.927 M410.379,915.107
	c-0.001-9.995-2.787-17.97-8.355-23.92c-5.494-6.029-13.583-9.045-24.267-9.045c-10.605,0-18.849,2.978-24.723,8.929
	c-5.8,5.877-8.699,14.041-8.699,24.493c0,22.512,11.406,33.769,34.224,33.769c4.961,0,9.348-0.764,13.163-2.292
	c3.815-1.522,7.21-3.775,10.188-6.755C407.555,934.411,410.379,926.02,410.379,915.107 M484.569,884.519
	c-3.281-0.604-6.334-0.923-9.155-0.923c-17.934,0-26.899,11.713-26.899,35.14l0.121,40.635h-10.874l-0.121-83.214l10.874-0.201
	v14.995h0.572c1.831-5.877,4.731-10.303,8.699-13.276c4.35-2.9,10.836-4.35,19.458-4.35c1.755,0,3.205,0,4.35,0
	c1.223,0,2.213,0,2.976,0.2v10.987 M574.18,920.003h-77.721c0,9.539,2.634,17.319,7.901,23.353
	c6.101,7.021,14.84,10.527,26.209,10.527c16.104,0,26.173-7.207,30.218-21.634h11.79c-1.756,8.245-5.913,15.188-12.476,20.834
	c-3.74,2.978-8.131,5.266-13.166,6.867c-4.958,1.688-10.379,2.52-16.251,2.52c-14.729,0-26.138-4.425-34.226-13.275
	c-7.476-7.938-11.216-18.662-11.216-32.167c0-13.431,3.893-24.037,11.676-31.819c7.781-7.859,18.734-11.788,32.848-11.788
	c7.559,0,14.155,1.102,19.806,3.319c5.644,2.135,10.379,5.456,14.188,9.958C570.708,894.781,574.18,905.886,574.18,920.003
	 M562.73,912.448c0-8.015-3.093-15.187-9.269-21.521c-6.104-6.334-14.003-9.501-23.697-9.501c-4.958,0-9.424,0.768-13.388,2.292
	c-3.97,1.446-7.517,3.702-10.648,6.753c-4.805,5.189-7.896,12.517-9.271,21.977H562.73 M716.531,925.667
	c0,29.881-20.118,44.822-60.355,44.822c-24.106,0-41.708-5.131-52.798-15.398c-9.074-8.433-13.612-21.266-13.612-38.496h16.228
	c0,27.771,16.728,41.66,50.184,41.66c16.038,0,27.636-2.888,34.781-8.661c6.05-4.953,9.074-12.789,9.074-23.511
	c0-10.633-4.121-18.101-12.373-22.412c-4.675-2.292-16.084-5.18-34.233-8.661c-22.822-4.121-37.628-8.293-44.408-12.511
	c-9.811-6.141-14.713-16.5-14.713-31.073c0-13.749,4.172-23.923,12.511-30.521c8.982-7.331,24.382-11.001,46.194-11.001
	c39.415,0,59.122,15.629,59.122,46.886h-16.356c0-23.372-14.622-35.061-43.86-35.061c-14.668,0-25.392,2.337-32.173,7.012
	c-6.42,5.04-9.627,12.422-9.627,22.136c0,10.176,4.126,17.367,12.373,21.585c4.399,2.386,17.327,5.686,38.774,9.899
	c20.164,3.667,33.775,7.882,40.835,12.649C711.72,900.968,716.531,911.185,716.531,925.667 M877.199,970.078l-9.902,10.724
	l-23.92-19.936c-5.045,3.208-11.186,5.639-18.428,7.286c-7.237,1.646-15.719,2.474-25.434,2.474
	c-24.838,0-44.453-7.379-58.848-22.136c-14.297-14.849-21.448-34.326-21.448-58.433c0-24.657,7.105-44.226,21.312-58.708
	c14.206-14.484,33.774-21.725,58.711-21.725c12.83,0,24.239,1.929,34.231,5.775c9.993,3.85,18.516,9.717,25.574,17.599
	c13.201,14.3,19.799,33.319,19.799,57.06c0,13.289-2.021,25.021-6.05,35.196c-4.035,10.082-10.268,18.654-18.696,25.709
	L877.199,970.078 M863.312,890.059c0-10.449-1.422-19.756-4.264-27.91c-2.842-8.25-7.242-15.444-13.201-21.586
	c-11.271-12.56-26.762-18.835-46.469-18.835c-19.434,0-35.06,5.999-46.886,18.011c-11.733,12.008-17.596,28.778-17.596,50.32
	c0,20.716,5.907,37.307,17.732,49.771c11.916,12.374,27.497,18.561,46.748,18.561c9.44,0,17.967-1.467,25.574-4.399
	c7.607-2.935,14.435-7.288,20.482-13.063c11.917-12.463,17.875-29.422,17.875-50.87 M999.863,966.503l-110.683,0.2V813.815
	l15.263-0.279v140.237H1000l-0.143,12.786 M397.217,240.568L397.217,240.568c1.956,1.248,4.172,2.195,6.555,2.525
	c8.408,1.172,15.606-5.659,16.062-8.931c0.457-3.276-5.995-6.885-14.421-8.057c-8.414-1.173-15.614,0.534-16.06,3.803l0,0h-0.002
	C389.02,232.258,392.257,237.407,397.217,240.568L397.217,240.568z M392.032,235.22c-1.488-1.972-2.365-3.973-2.267-5.146
	l0.015-0.106c0.306-2.237,4.601-3.8,10.448-3.8c1.656,0,3.381,0.125,5.125,0.367c4.021,0.56,7.713,1.693,10.391,3.188
	c2.52,1.409,3.854,3.006,3.663,4.381c-0.359,2.581-6.06,8.693-13.702,8.693c-0.625,0-1.256-0.043-1.873-0.129
	c-2.172-0.301-4.193-1.147-5.998-2.242l0,0c-0.373-0.226-0.743-0.453-1.096-0.7l0,0C394.799,238.367,393.181,236.742,392.032,235.22
	z M800.653,426.513c-1.375-4.153-7.542-17.36-29.146-12.898c-34.218,7.062-54.355,6.361-66.116,3.649
	c75.86-125.924,115.646-287.289,79.227-333.829c-38.69-49.438-95.498-75.956-164.288-76.688
	c-50.778-0.528-90.786,13.019-95.521,15.184c-16.475-4.143-34.446-6.69-54.036-7.011c-32.59-0.519-61.081,6.609-85.15,21.183
	c-14.727-4.786-37.825-11.346-64.532-15.528c-61.707-9.668-110.536-2.057-145.129,22.606
	c-40.577,28.931-59.317,80.259-55.701,152.558c1.209,24.18,15.898,99.804,39.297,173.292
	c30.333,95.267,62.659,149.222,96.079,160.37c3.851,1.283,8.294,2.186,13.188,2.186c11.244-0.003,24.858-4.772,39.082-20.537
	c1.849,9.933,15.675,14.888,31.011,19.431c0.311,0.092,0.627,0.168,0.947,0.227c3.911,0.713,7.74,1.475,11.503,2.223
	c13.181,2.616,25.63,5.088,38.336,5.088c0.002,0,0.002,0,0.006,0c16.209,0,30.426-4.139,44.009-13.003
	c0.086,64.26,5.109,118.873,13.311,139.384c3.55,8.876,22.213,47.534,77.411,47.531c9.05,0,19.077-1.038,30.184-3.418
	c56.046-12.014,81.26-36.291,89.934-86.59c5.065-29.354,11.714-84.312,14.611-113.135c7.507,1.865,16.622,2.726,26.366,2.726
	c23.676-0.003,51.088-5.064,68.283-13.046C783.565,484.644,807.643,447.661,800.653,426.513z M739.578,481.276
	c-17.678,8.204-41.598,12.049-62.03,12.049c-12.668,0-23.991-1.479-31.665-4.314c-3.496,32.694-11.57,98.079-16.22,125.024
	c-8.374,48.575-29.026,69.584-78.916,80.283c-8.333,1.783-15.9,2.583-22.782,2.583c-16.622,0-29.205-4.675-38.816-11.376
	c-10.456-5.337-19.688-14.023-25.233-27.888c-1.142-2.856-2.264-6.877-3.336-11.907c-0.164-0.409-0.326-0.815-0.479-1.198
	c-7.665-19.164-10.189-85.79-9.519-149.655c-17.487,17.639-40.048,26.886-66.116,26.886c-10.048,0-20.626-1.373-31.44-4.08
	c-5.154-1.288-11.967-3.794-17.702-7.442c-0.928-0.484-1.244-0.839-2.122-1.447c-5.351-3.896-9.313-8.907-9.186-15.018
	c0.271-13.041,17.601-18.114,30.61-20.796c31.6-6.506,33.917-9.446,43.664-21.821c2.066-2.624,4.516-5.729,7.549-9.293
	c-0.142-1.317-0.247-2.641-0.275-3.979c-14.744-0.033-29.195-3.926-42.189-11.22c-7.204,7.638-30.875,33.036-56.312,63.639
	c-9.081,10.917-17.887,16.821-25.918,19.645c-9.851,5.489-16.834,3.167-19.751,2.192c-1.733-0.578-3.459-1.354-5.181-2.262
	c-70.108-25.046-118.905-266.079-121.133-310.648c-3.394-67.855,14.01-115.811,51.729-142.533
	c31.226-22.125,76.979-29.107,132.316-20.193c33.856,5.453,61.282,15.102,70.669,18.649c23.696-16.48,52.429-24.587,85.81-24.011
	c17.928,0.293,34.403,2.587,49.522,6.328v-0.769c1.503,0.27,3.005,0.539,4.48,0.832c9.445-3.399,42.38-13.04,83.475-13.04
	c11.435,0,24.041,0.786,37.23,2.894c41.247,5.685,85.777,23.545,119.984,67.254c4.594,5.872,7.547,15.291,8.877,27.522
	c4.832,26.267,1.274,64.762-10.678,111.039c-16.784,64.996-47.87,134.655-85.682,192.329c0,0-0.561,0.966-1.141,1.867
	c6.57,5.543,26.852,11.878,74.858,1.968c15.2-3.142,24.255-0.634,26.924,7.438C788.519,452.134,759.99,471.796,739.578,481.276z
	 M659.358,426.103c-10.883,3.229-29.29,10.895-27.503,46.198c-0.106,1.359-0.26,3.104-0.452,5.116l0,0
	c-0.005,0.056-0.016,0.122-0.021,0.178c-0.086,0.924-0.183,1.908-0.289,2.954c-0.005,0.033-0.005,0.066-0.01,0.102
	c-2.903,28.871-11.815,101.939-16.784,130.736c-7.231,41.944-23.468,58.392-66.821,67.688
	c-45.971,9.849-62.197-13.566-72.902-40.331c-6.773-16.938-10.122-92.605-7.788-176.009c0.025-0.975-0.147-1.904-0.45-2.773
	c-0.25-1.85-0.595-3.718-1.136-5.606c-3.23-11.288-11.37-21.091-20.738-24.975c-3.004-1.245-7.547-3.126-12.997-3.126
	c-3.243,0-6.365,0.671-9.404,1.954c1.673-8.876,5.457-19.053,9.625-30.227l1.494-4.012c1.706-4.588,3.827-9.301,6.074-14.292
	c11.921-26.482,28.245-62.75,10.492-144.847c-4.379-20.242-15.755-33.415-32.859-38.721c-0.562-0.175-1.141-0.325-1.714-0.482
	c-0.887-0.243-1.786-0.468-2.702-0.67c-0.586-0.131-1.174-0.259-1.771-0.372c-1.184-0.222-2.39-0.41-3.617-0.566
	c-0.326-0.042-0.639-0.102-0.967-0.138c-1.543-0.174-3.13-0.282-4.743-0.35c-0.525-0.023-1.062-0.028-1.595-0.041
	c-1.224-0.025-2.465-0.025-3.728,0.006c-0.53,0.014-1.06,0.022-1.596,0.047c-1.76,0.077-3.542,0.191-5.372,0.381
	c-20,2.072-38.336,10.162-47.486,14.8c-3.5,1.775-6.472,3.435-9.068,5.003c0.061-0.89,0.128-1.811,0.201-2.756
	c0.067-0.883,0.146-1.798,0.226-2.727c0.002-0.03,0.005-0.06,0.008-0.09c0.168-1.94,0.367-3.982,0.594-6.103
	c0.002-0.017,0.004-0.031,0.005-0.046l0,0c3.511-32.699,14.524-85.708,48.895-120.42c23.516-23.748,54.777-35.428,92.889-34.849
	C596.848,48.728,650.9,147.994,664.623,185.632l0,0c0.01,0.028,0.021,0.053,0.03,0.081c0.376,1.029,0.721,2.012,1.036,2.945
	c0.01,0.036,0.02,0.068,0.029,0.104c0.319,0.94,0.608,1.841,0.867,2.676c-2.283-0.268-4.517-0.489-6.709-0.675
	c-0.771-0.066-1.518-0.105-2.279-0.161c-1.391-0.102-2.78-0.202-4.136-0.27c-0.919-0.047-1.817-0.069-2.721-0.099
	c-1.146-0.04-2.289-0.078-3.405-0.091c-0.979-0.013-1.938-0.005-2.894,0.001c-0.989,0.006-1.975,0.018-2.943,0.046
	c-1.01,0.028-2.005,0.071-2.989,0.123c-0.856,0.043-1.7,0.095-2.537,0.155c-1.041,0.076-2.07,0.163-3.081,0.264
	c-0.711,0.071-1.41,0.153-2.11,0.238c-1.081,0.129-2.152,0.265-3.197,0.426c-0.549,0.084-1.076,0.183-1.614,0.274
	c-1.151,0.198-2.299,0.401-3.405,0.637c-0.283,0.061-0.554,0.132-0.831,0.195c-8.821,1.982-16.268,5.187-22.291,9.638l0,0
	c-1.016,0.752-1.989,1.539-2.93,2.361c-0.021,0.019-0.04,0.037-0.061,0.056c-0.935,0.821-1.827,1.676-2.681,2.567
	c-1.508,1.573-2.924,3.224-4.177,5.016c-27.239,38.938,15.679,115.901,36.304,152.889c3.856,6.915,7.188,12.886,8.272,15.522
	c6.669,16.161,15.342,27,21.676,34.914c2.919,3.645,5.548,6.934,7.062,9.627c-0.433,0.123-0.858,0.242-1.244,0.354
	c-0.716,0.201-1.492,0.42-2.304,0.661C659.358,426.104,659.358,426.104,659.358,426.103z M759.681,444.64
	c3.016-0.622,5.248-0.895,6.878-0.99c-4.445,5.643-16.211,15.436-33.548,23.484c-21.772,10.104-64.358,14.016-81.366,7.474
	c-3.537-1.361-4.192-2.562-4.197-2.563c-1.481-26,9.095-28.971,18.429-31.591c1.37-0.385,3.264-0.916,5.207-1.745
	c1.056,0.939,2.269,1.879,3.654,2.796C690.571,451.955,719.15,453.009,759.681,444.64z M417.08,392.53l1.484-3.991
	c1.891-5.084,4.115-10.028,6.474-15.265c11.645-25.872,26.139-58.071,9.47-135.15c-3.473-16.053-12.021-25.252-26.139-28.121
	c-0.814-0.165-1.639-0.304-2.468-0.424c-0.787-0.118-1.582-0.208-2.382-0.289c-0.018-0.002-0.033-0.005-0.051-0.006
	c0,0,0.001,0,0.001,0.001c-28.826-2.882-64.918,17.367-71.489,23.978c0.066,1.824,0.215,4.323,0.389,7.261
	c1.021,17.207,2.921,49.234-2.216,85.962c-3.784,27.055,4.486,53.467,22.691,72.461c13.091,13.659,29.959,21.735,47.561,23.122l0,0
	c0.014,0.001,0.025,0.001,0.041,0.003c1.135,0.089,2.274,0.155,3.416,0.188c1.161,0.036,2.325,0.043,3.489,0.019
	C409.44,413.01,413.11,403.171,417.08,392.53z M396.605,240.684c-2.727-1.84-4.562-4.015-5.263-4.943
	c-1.715-2.274-2.62-4.477-2.421-5.894l0.08-0.37c0.709-2.549,5.034-4.173,11.227-4.173c0.963,0,1.95,0.052,2.948,0.132l0,0
	c0.761,0.061,1.524,0.135,2.295,0.243c0.062,0.009,0.116,0.022,0.177,0.032h-0.002c4.059,0.582,7.789,1.733,10.519,3.258
	c2.889,1.615,4.344,3.48,4.097,5.254c-0.46,3.314-6.773,9.438-14.557,9.438c-0.666,0-1.336-0.047-1.992-0.138
	c-2.781-0.386-5.145-1.519-7.076-2.817l0,0C396.625,240.698,396.616,240.69,396.605,240.684z M664.921,237.908
	c1.558-10.097,3.021-19.739,3.021-30.585c-26.631-3.562-45.906-1.464-57.614,6.2c-0.224,0.146-0.457,0.288-0.676,0.439
	c-0.486,0.335-0.948,0.687-1.41,1.042c-0.36,0.279-0.716,0.562-1.057,0.854c-0.364,0.311-0.726,0.625-1.07,0.949
	c-0.433,0.399-0.832,0.816-1.229,1.237c-0.248,0.264-0.507,0.521-0.746,0.792c-0.624,0.719-1.223,1.461-1.766,2.241
	c-21.646,30.936,19.55,104.812,37.141,136.357c4.432,7.946,7.634,13.687,9.069,17.171c2.294,5.555,4.853,10.364,7.486,14.641
	c14.348-27.174,11.12-54.576,7.928-81.157c-1.554-12.888-3.015-25.061-2.619-37.23C661.779,258.317,663.378,247.941,664.921,237.908
	z M629.119,236.766c-7.536,0-13.906-6.084-14.354-9.251c-0.283-2.106,2.006-4.281,5.791-5.933l0,0
	c0.238-0.103,0.482-0.203,0.727-0.301l0,0c2.289-0.914,5.05-1.643,8.096-2.068c1.771-0.246,3.527-0.372,5.217-0.372
	c6.369,0,10.726,1.71,11.096,4.359c0.294,2.13-2.103,6.219-5.907,9.352c-0.271,0.223-0.549,0.438-0.833,0.649l0,0
	c-2.273,1.698-4.969,3.026-7.866,3.428C630.439,236.72,629.779,236.766,629.119,236.766z M340.315,428.592
	c-3.932,4.29-8.531,9.365-13.607,15.058c-9.367,10.505-20.32,23.075-31.635,36.688c-17.002,20.441-29.16,16.383-33.152,15.053
	c-58.664-19.565-108.999-251.456-111.274-296.935c-3.108-62.163,12.079-105.569,45.145-129.012
	c50.771-35.999,132.112-17.564,170.36-5.8c0.248,0.076,0.483,0.15,0.727,0.225c1.311,0.406,2.563,0.802,3.765,1.188
	c0.266,0.085,0.534,0.17,0.794,0.255c1.433,0.463,2.812,0.916,4.07,1.341c-1.395,1.294-2.783,2.6-4.132,3.964
	c-5.229,5.282-9.955,10.919-14.241,16.793c-0.871,1.191-1.692,2.408-2.524,3.619c-0.497,0.723-1.012,1.438-1.496,2.166
	c-0.778,1.171-1.519,2.357-2.263,3.542c-0.495,0.791-1.002,1.576-1.484,2.37c-0.714,1.18-1.401,2.373-2.084,3.564
	c-0.467,0.813-0.938,1.626-1.393,2.445c-0.662,1.198-1.304,2.403-1.938,3.611c-0.434,0.826-0.864,1.652-1.284,2.48
	c-0.615,1.217-1.215,2.436-1.803,3.661c-0.396,0.825-0.785,1.652-1.168,2.48c-0.573,1.238-1.14,2.478-1.686,3.721
	c-0.354,0.809-0.697,1.618-1.04,2.426c-0.541,1.272-1.075,2.546-1.589,3.82c-0.305,0.757-0.592,1.516-0.888,2.274
	c-0.515,1.327-1.032,2.655-1.52,3.982c-0.234,0.642-0.454,1.282-0.684,1.924c-0.515,1.441-1.031,2.885-1.514,4.323
	c-0.058,0.17-0.108,0.339-0.165,0.509c-1.784,5.359-3.339,10.677-4.707,15.903c-0.128,0.49-0.268,0.985-0.392,1.473
	c-0.349,1.363-0.672,2.71-0.996,4.059c-0.154,0.649-0.316,1.304-0.467,1.95c-0.297,1.278-0.572,2.54-0.847,3.8
	c-0.152,0.694-0.306,1.391-0.449,2.079c-0.258,1.222-0.5,2.431-0.735,3.634c-0.139,0.704-0.276,1.408-0.408,2.106
	c-0.223,1.176-0.437,2.341-0.641,3.497c-0.123,0.695-0.241,1.387-0.358,2.074c-0.192,1.138-0.38,2.269-0.558,3.384
	c-0.104,0.666-0.203,1.322-0.303,1.978c-0.169,1.11-0.334,2.217-0.486,3.299c-0.088,0.623-0.168,1.232-0.25,1.846
	c-0.145,1.08-0.291,2.16-0.42,3.209c-0.068,0.556-0.128,1.091-0.192,1.639c-0.128,1.077-0.257,2.161-0.37,3.203
	c-0.025,0.232-0.044,0.448-0.068,0.677c-0.274,2.596-0.507,5.074-0.698,7.417c-0.014,0.165-0.029,0.344-0.044,0.509
	c-0.07,0.891-0.129,1.733-0.189,2.584c-0.036,0.495-0.075,1.009-0.107,1.491c-0.051,0.756-0.092,1.471-0.134,2.19
	c-0.032,0.524-0.065,1.059-0.091,1.561c-0.036,0.667-0.065,1.3-0.095,1.929c-0.023,0.5-0.048,1.005-0.066,1.481
	c-0.024,0.583-0.046,1.139-0.063,1.686c-0.017,0.463-0.032,0.921-0.046,1.358c-0.014,0.497-0.027,0.979-0.038,1.438
	c-0.01,0.434-0.019,0.853-0.025,1.252c-0.008,0.395-0.014,0.788-0.02,1.15c-0.005,0.395-0.009,0.762-0.012,1.116
	c-0.001,0.309-0.005,0.625-0.005,0.902c-0.001,0.344,0,0.649,0,0.945c0.001,0.208,0.001,0.439,0.002,0.622
	c0.002,0.308,0.005,0.56,0.009,0.794c0.001,0.102,0.002,0.238,0.004,0.326c0.004,0.285,0.01,0.51,0.014,0.639
	c-0.001,2.25,0.187,5.476,0.451,9.919c0.987,16.665,2.827,47.686-2.096,82.879c-0.252,1.809-0.445,3.615-0.606,5.417
	c-0.062,0.684-0.1,1.365-0.146,2.048c-0.076,1.085-0.142,2.17-0.186,3.251c-0.034,0.88-0.058,1.76-0.069,2.638
	c-0.013,0.82-0.01,1.637-0.004,2.454c0.009,1.047,0.019,2.093,0.058,3.135c0.018,0.45,0.05,0.897,0.072,1.346
	c0.307,5.989,1.103,11.891,2.396,17.649c0.003,0.021,0.01,0.041,0.013,0.062c3.997,17.734,12.595,34.098,25.352,47.408
	c2.775,2.896,5.707,5.56,8.75,8.032c-0.396,0.423-0.851,0.91-1.3,1.392c-0.225,0.239-0.434,0.464-0.671,0.717
	c-0.336,0.36-0.71,0.764-1.071,1.151c-0.415,0.446-0.825,0.888-1.271,1.37c-0.218,0.234-0.457,0.492-0.684,0.735
	c-0.634,0.686-1.282,1.385-1.975,2.135c-0.119,0.132-0.247,0.271-0.369,0.402c-0.812,0.88-1.653,1.795-2.536,2.758
	C340.414,428.483,340.363,428.539,340.315,428.592z M570.724,43.582c0.04-0.008,0.081-0.013,0.116-0.021
	c12.044-1.964,26.417-3.473,42.237-3.473c61.131,0,109.347,21.995,143.295,65.373c13.251,16.933,12.084,65.545-2.975,123.846
	c-14.743,57.087-40.811,117.879-72.784,170.514c-0.111,0.184-0.225,0.37-0.335,0.554c-2.405,3.953-4.837,7.869-7.31,11.723
	c-1.518-2.07-3.187-4.172-4.947-6.377c-0.641-0.798-1.306-1.63-1.976-2.473c21.032-33.686,17.003-67.28,13.43-97.021
	c-1.477-12.281-2.872-23.881-2.518-34.867c0.371-11.604,1.898-21.504,3.375-31.079c1.889-12.265,3.649-23.91,3.096-38.127
	c0.366-1.319,0.533-2.905,0.352-4.851c-1.27-13.466-16.743-53.878-48.321-90.639c-18.048-21.008-44.739-44.631-81.54-59.78
	c1.563-0.362,3.218-0.726,4.938-1.089c0.097-0.02,0.188-0.041,0.283-0.061c1.73-0.361,3.538-0.719,5.41-1.071
	c0.076-0.014,0.152-0.029,0.229-0.043C566.688,44.265,568.673,43.917,570.724,43.582z M450.212,458.642
	c0.931,3.255,1.96,9.459-1.604,14.451c-1.057,1.479-2.144,2.899-3.254,4.278c-0.187,0.231-0.381,0.448-0.569,0.677
	c-0.966,1.178-1.949,2.325-2.954,3.429c-0.118,0.129-0.24,0.251-0.359,0.381c-1.107,1.202-2.24,2.356-3.396,3.472
	c-0.033,0.033-0.067,0.062-0.101,0.094c-1.228,1.18-2.485,2.31-3.769,3.39c-0.007,0.006-0.015,0.014-0.023,0.021c0,0,0,0,0-0.002
	c-13.659,11.503-30.297,17.342-49.72,17.342c-8.265,0-17.012-1.119-26.006-3.248h-0.001c-0.553-0.132-1.096-0.227-1.651-0.365
	c-7.891-1.972-14.523-5.842-16.667-8.207c1.582-1.2,6.057-3.715,17.63-6.101c35.595-7.329,40.667-12.083,52.767-27.445
	c2.823-3.584,6.022-7.646,10.473-12.616c5.672-6.349,9.274-6.349,10.458-6.349c2.176,0,4.377,0.84,7.028,1.939
	C443.48,445.848,448.299,451.958,450.212,458.642z"/>
</svg>
