<?xml version="1.0" encoding="utf-8"?>
<!-- Generator: Adobe Illustrator 16.2.1, SVG Export Plug-In . SVG Version: 6.00 Build 0)  -->
<!DOCTYPE svg PUBLIC "-//W3C//DTD SVG 1.1//EN" "http://www.w3.org/Graphics/SVG/1.1/DTD/svg11.dtd">
<svg version="1.1" id="Layer_1" xmlns="http://www.w3.org/2000/svg" xmlns:xlink="http://www.w3.org/1999/xlink" x="0px" y="0px"
	 width="1000px" height="1000px" viewBox="0 0 1000 1000" enable-background="new 0 0 1000 1000" xml:space="preserve">
<path d="M380.111,482.148h238.286c66.333,0,119.284-54.611,119.284-121.23V133.75c0-64.646-54.534-113.218-119.284-124.01
	c-40.978-6.821-83.502-9.923-124.285-9.731c-40.787,0.191-79.731,3.667-114,9.731C279.156,27.578,260.827,64.907,260.827,133.75
	v90.923H499.39v30.307H260.827h-89.533c-69.334,0-130.045,41.673-149.035,120.952c-21.905,90.871-22.879,147.576,0,242.461
	c16.957,70.634,57.457,120.952,126.791,120.952h82.025V630.35C231.075,551.609,299.207,482.148,380.111,482.148z M365.096,164.058
	c-24.734,0-44.767-20.263-44.767-45.322c0-25.146,20.033-45.601,44.767-45.601c24.642,0,44.767,20.454,44.767,45.601
	C409.863,143.795,389.738,164.058,365.096,164.058z M976.248,375.933C959.113,306.916,926.39,254.98,856.965,254.98h-89.532v105.938
	c0,82.138-69.636,151.26-149.036,151.26H380.111c-65.272,0-119.284,55.862-119.284,121.229v227.169
	c0,64.655,56.218,102.688,119.284,121.229c75.517,22.21,147.936,26.225,238.286,0c60.059-17.386,119.284-52.386,119.284-121.229
	v-90.924H499.39v-30.307h238.291h119.284c69.338,0,95.179-48.363,119.283-120.952C1001.159,543.667,1000.1,471.8,976.248,375.933z
	 M633.411,830.269c24.729,0,44.766,20.263,44.766,45.322c0,25.146-20.037,45.6-44.766,45.6c-24.643,0-44.767-20.454-44.767-45.6
	C588.645,850.531,608.769,830.269,633.411,830.269z"/>
</svg>
