<?xml version="1.0" encoding="utf-8"?>
<!-- Generator: Adobe Illustrator 16.2.1, SVG Export Plug-In . SVG Version: 6.00 Build 0)  -->
<!DOCTYPE svg PUBLIC "-//W3C//DTD SVG 1.1//EN" "http://www.w3.org/Graphics/SVG/1.1/DTD/svg11.dtd">
<svg version="1.1" id="Layer_1" xmlns="http://www.w3.org/2000/svg" xmlns:xlink="http://www.w3.org/1999/xlink" x="0px" y="0px"
	 width="1000px" height="1000px" viewBox="0 0 1000 1000" enable-background="new 0 0 1000 1000" xml:space="preserve">
<path d="M121.304,507.38c0-48.912-13.947-74.026-41.842-75.401c-11.099-0.524-21.937,1.245-32.48,5.338
	c-8.414,3.011-14.077,5.992-17.057,9.004v116.752c17.845,11.199,33.69,16.405,47.507,15.584
	C106.669,576.727,121.304,552.989,121.304,507.38z M155.714,509.41c0,24.852-5.827,45.479-17.548,61.88
	c-13.064,18.567-31.169,28.125-54.317,28.649c-17.451,0.556-35.425-4.909-53.924-16.371v106.114L0,679.009V443.471
	c4.91-6.023,11.23-11.196,18.891-15.583c17.811-10.379,39.452-15.715,64.925-15.978l0.425,0.426
	c23.279-0.295,41.222,9.265,53.826,28.646C149.821,458.763,155.714,481.549,155.714,509.41z M338.603,579.052
	c0,33.331-3.339,56.41-10.018,69.247c-6.711,12.833-19.478,23.08-38.339,30.71c-15.29,6.023-31.826,9.3-49.569,9.854l-4.944-18.857
	c18.042-2.454,30.743-4.911,38.111-7.368c14.505-4.91,24.458-12.439,29.923-22.521c4.388-8.222,6.547-23.905,6.547-47.116v-7.794
	c-20.463,9.301-41.907,13.915-64.333,13.915c-14.735,0-27.731-4.614-38.931-13.915c-12.569-10.116-18.854-22.948-18.854-38.5
	V422.158l29.922-10.248v125.364c0,13.39,4.324,23.703,12.964,30.938c8.646,7.237,19.842,10.707,33.561,10.444
	c13.718-0.295,28.417-5.6,44.039-15.977V416.427h29.921V579.052z M455.422,598.304c-3.569,0.295-6.842,0.424-9.854,0.424
	c-16.926,0-30.12-4.025-39.55-12.112c-9.398-8.088-14.108-19.252-14.108-33.494V435.253h-20.5v-18.826h20.5v-49.995l29.89-10.641
	v60.635h33.623v18.826h-33.623v117.049c0,11.231,3.011,19.186,9.033,23.836c5.177,3.829,13.394,6.023,24.59,6.581V598.304z
	 M636.608,595.847h-29.922V480.337c0-11.753-2.752-21.87-8.218-30.316c-6.322-9.562-15.096-14.341-26.357-14.341
	c-13.717,0-30.873,7.235-51.472,21.705v138.461h-29.922V319.745l29.922-9.428v125.757c19.125-13.916,40.01-20.89,62.699-20.89
	c15.85,0,28.685,5.338,38.507,15.979c9.852,10.638,14.763,23.9,14.763,39.749V595.847L636.608,595.847z M795.663,502.667
	c0-18.793-3.567-34.312-10.673-46.59c-8.446-14.962-21.576-22.854-39.322-23.672c-32.806,1.901-49.173,25.406-49.173,70.458
	c0,20.66,3.405,37.914,10.279,51.764c8.775,17.647,21.935,26.357,39.483,26.061C779.197,580.427,795.663,554.431,795.663,502.667z
	 M828.438,502.863c0,26.75-6.842,49.015-20.495,66.789c-15.028,19.908-35.786,29.895-62.274,29.895
	c-26.259,0-46.722-9.986-61.484-29.895c-13.39-17.774-20.07-40.039-20.07-66.789c0-25.144,7.232-46.294,21.706-63.516
	c15.289-18.272,35.391-27.437,60.242-27.437s45.086,9.165,60.67,27.437C821.202,456.569,828.438,477.72,828.438,502.863z
	 M1000,595.847h-29.927V473.79c0-13.39-4.027-23.833-12.08-31.365c-8.054-7.499-18.793-11.131-32.183-10.839
	c-14.211,0.263-27.733,4.914-40.568,13.916v150.345h-29.924V441.8c17.223-12.537,33.069-20.725,47.54-24.552
	c13.65-3.568,25.701-5.337,36.079-5.337c7.105,0,13.782,0.687,20.07,2.064c11.756,2.716,21.312,7.757,28.681,15.157
	c8.219,8.185,12.312,18.006,12.312,29.501V595.847z"/>
</svg>
