<?xml version="1.0" encoding="utf-8"?>
<!-- Generator: Adobe Illustrator 16.2.1, SVG Export Plug-In . SVG Version: 6.00 Build 0)  -->
<!DOCTYPE svg PUBLIC "-//W3C//DTD SVG 1.1//EN" "http://www.w3.org/Graphics/SVG/1.1/DTD/svg11.dtd">
<svg version="1.1" id="Layer_1" xmlns="http://www.w3.org/2000/svg" xmlns:xlink="http://www.w3.org/1999/xlink" x="0px" y="0px"
	 width="1000px" height="1000px" viewBox="0 0 1000 1000" enable-background="new 0 0 1000 1000" xml:space="preserve">
<g>
	<rect x="382.008" y="818.994" fill-rule="evenodd" clip-rule="evenodd" fill="#010101" width="33.585" height="36.801"/>
	<rect x="228.569" y="817.938" fill-rule="evenodd" clip-rule="evenodd" fill="#010101" width="33.585" height="27.682"/>
	<path fill-rule="evenodd" clip-rule="evenodd" fill="#010101" d="M208.129,0c-53.541,0-96.946,43.405-96.946,96.946V1000H791.87
		c53.543,0,96.945-43.402,96.945-96.945v-0.002h0.001V0H208.129z M767.487,84.3l38.84,27.467l-1.305,15.042l-37.535-23.216V84.3z
		 M642.799,45.389l11.424,31.064h-41.451l-13.711-31.064H642.799z M489.712,65.008l27.421,35.642l-33.947,22.235l-31.661-34.66
		L489.712,65.008z M349.036,172.259l40.8,31.392l-25.46,39.566l-46.022-31.719L349.036,172.259z M241.322,340.981l53.203,23.216
		L277.553,413.9l-54.509-21.254L241.322,340.981z M178.979,550.91l61.69,11.116l-13.056,59.186l-64.301-7.847L178.979,550.91z
		 M258.075,924.072l-27.952-37.255h-1.554v37.255h-40.727v-145.68c0,0,75.096,0,75.492,0c21.841,0,39.548,17.705,39.548,39.545
		v19.459c-0.001,19.646-14.342,35.899-33.116,38.978l35.789,47.698H258.075z M456.321,924.072h-40.728v-27.682h-33.585v27.682
		h-40.727V817.938c0-21.84,17.706-39.545,39.546-39.545c0.398,0,0.785,0.047,1.18,0.06v-0.06h33.585v0.06
		c0.395-0.013,0.782-0.06,1.18-0.06c21.842,0,39.547,17.705,39.547,39.545V924.072z M535.851,924.072h-40.728v-145.68h40.728
		V924.072z M674.826,924.072h-96.175v-145.68h40.728v104.952h55.447V924.072z M577.198,483.227l3.589,35.314l-48.634-21.581v-38.585
		L577.198,483.227z M542.271,372.938l10.116-32.606l32.312,32.7l-7.503,32.511L542.271,372.938z M607.879,622.198l16.32,38.259
		l-58.103-5.561l-15.664-43.163L607.879,622.198z M584.699,262.836l19.909-22.562l22.197,34.334l-16.317,23.543L584.699,262.836z
		 M671.851,226.868l-11.752-30.411l26.113-10.463l8.814,28.122L671.851,226.868z M811.439,869.899v15.74h-0.057
		c-0.595,21.322-18.023,38.433-39.489,38.433h-71.271V885.64h31.78h37.533v-15.74h-34.252v-0.015
		c-21.444-0.167-38.78-17.586-38.78-39.071c0-0.409,0.049-0.802,0.062-1.207h-0.062v-14.64h0.034
		c0.351-21.283,17.684-38.432,39.052-38.434h67.497v38.432h-65.944v14.64h34.352c21.843,0,39.546,17.705,39.546,39.546
		c0,0.251-0.033,0.497-0.038,0.749H811.439z M763.569,181.417l30.681,5.558v13.08h-29.048L763.569,181.417z M839.944,197.761
		c0,0-46.123-27.801-85.94-33.688c-75.195-11.116-128.18,21.263-175.837,87.315c-44.345,61.466-63.801,159.658-60.053,238.047
		c5.219,109.216,52.877,230.2,52.877,230.2H243.935c0,0,5.935-191.863,64.627-332.222c60.71-145.181,125.666-223.66,210.434-266.583
		c82.44-41.743,166.521-32.572,224.986-12.01c61.364,21.582,105.754,69.321,105.754,69.321L839.944,197.761z"/>
</g>
</svg>
