<?xml version="1.0" encoding="utf-8"?>
<!-- Generator: Adobe Illustrator 16.2.1, SVG Export Plug-In . SVG Version: 6.00 Build 0)  -->
<!DOCTYPE svg PUBLIC "-//W3C//DTD SVG 1.1//EN" "http://www.w3.org/Graphics/SVG/1.1/DTD/svg11.dtd">
<svg version="1.1" id="Layer_1" xmlns="http://www.w3.org/2000/svg" xmlns:xlink="http://www.w3.org/1999/xlink" x="0px" y="0px"
	 width="1000px" height="1000px" viewBox="0 0 1000 1000" enable-background="new 0 0 1000 1000" xml:space="preserve">
<path fill="#010101" d="M880.178,64.069l56.583,40.015l-1.901,21.914l-54.682-33.822V64.069L880.178,64.069z M698.528,7.383
	l16.643,45.255h-60.386L634.809,7.383H698.528z M475.507,35.964l39.948,51.924L466,120.28l-46.124-50.493L475.507,35.964z
	 M270.567,192.21l59.438,45.732l-37.091,57.641l-67.047-46.208L270.567,192.21z M113.646,438.009l77.508,33.822l-24.725,72.409
	l-79.411-30.963L113.646,438.009z M22.824,743.839l89.871,16.194l-19.02,86.223L0,834.825L22.824,743.839z M602.959,645.235
	l5.229,51.447l-70.851-31.439v-56.212L602.959,645.235z M552.077,484.564l14.736-47.501l47.073,47.639l-10.93,47.363
	L552.077,484.564z M647.656,847.693l23.775,55.736l-84.646-8.101l-22.82-62.882L647.656,847.693z M613.887,324.165l29.005-32.869
	l32.336,50.019l-23.771,34.298L613.887,324.165z M740.852,271.766l-17.121-44.304l38.043-15.243l12.841,40.969L740.852,271.766z
	 M874.47,205.552l44.696,8.097v19.055h-42.317L874.47,205.552z M985.734,229.362c0,0-67.192-40.501-125.2-49.077
	c-109.546-16.194-186.735,30.976-256.163,127.203c-64.603,89.545-92.947,232.594-87.486,346.792
	c7.603,159.11,77.032,335.362,77.032,335.362H117.454c0,0,8.646-279.512,94.15-483.989
	c88.442-211.504,183.074-325.834,306.565-388.365C638.27,56.475,760.761,69.835,845.935,99.79
	C935.331,131.231,1000,200.779,1000,200.779L985.734,229.362z"/>
</svg>
