<?xml version="1.0" encoding="utf-8"?>
<!-- Generator: Adobe Illustrator 16.2.1, SVG Export Plug-In . SVG Version: 6.00 Build 0)  -->
<!DOCTYPE svg PUBLIC "-//W3C//DTD SVG 1.1//EN" "http://www.w3.org/Graphics/SVG/1.1/DTD/svg11.dtd">
<svg version="1.1" id="Layer_1" xmlns="http://www.w3.org/2000/svg" xmlns:xlink="http://www.w3.org/1999/xlink" x="0px" y="0px"
	 width="1000px" height="1000px" viewBox="0 0 1000 1000" enable-background="new 0 0 1000 1000" xml:space="preserve">
<g>
	<path fill="#010101" d="M367.111,384.685c-0.638,0-1.258,0.077-1.892,0.097v-0.097h-53.856v0.097
		c-0.633-0.021-1.254-0.097-1.892-0.097c-35.022,0-63.416,28.392-63.416,63.414v170.198h65.309v-44.392h53.857v44.392h65.309
		V448.099C430.529,413.077,402.138,384.685,367.111,384.685z M365.221,508.808h-53.857v-59.014h53.857V508.808z"/>
	<rect x="492.755" y="384.684" fill="#010101" width="65.31" height="233.613"/>
	<path fill="#010101" d="M184.478,479.304v-31.205c0-35.024-28.395-63.416-63.419-63.416c-0.635,0-121.059,0-121.059,0v233.613
		h65.31v-59.742h2.492l44.824,59.742h76.139l-57.391-76.489C161.479,536.87,184.476,510.807,184.478,479.304z M119.166,492.491
		H65.31v-44.392h53.856V492.491z"/>
	<path fill="#010101" d="M1000,530.226c0-35.024-28.389-63.416-63.414-63.416h-55.09v-23.478h105.75v-61.628H879.007
		c-34.265,0.003-62.062,27.502-62.622,61.632h-0.057v23.478h0.101c-0.022,0.648-0.101,1.279-0.101,1.936
		c0,34.453,27.8,62.385,62.187,62.653v0.025h54.93v25.239h-60.188h-50.964v61.631h114.29c34.425,0,62.372-27.439,63.324-61.632H1000
		v-25.238h-0.06C999.946,531.022,1000,530.628,1000,530.226z"/>
	<polygon fill="#010101" points="692.012,384.684 626.7,384.684 626.7,618.297 780.927,618.297 780.927,552.984 692.012,552.984 	
		"/>
</g>
</svg>
