<?xml version="1.0" encoding="utf-8"?>
<!-- Generator: Adobe Illustrator 16.2.1, SVG Export Plug-In . SVG Version: 6.00 Build 0)  -->
<!DOCTYPE svg PUBLIC "-//W3C//DTD SVG 1.1//EN" "http://www.w3.org/Graphics/SVG/1.1/DTD/svg11.dtd">
<svg version="1.1" id="Layer_1" xmlns="http://www.w3.org/2000/svg" xmlns:xlink="http://www.w3.org/1999/xlink" x="0px" y="0px"
	 width="1000px" height="1000px" viewBox="0 0 1000 1000" enable-background="new 0 0 1000 1000" xml:space="preserve">
<path d="M999.891,597.539c0.035,0.018,0.075,0.029,0.109,0.04c0,0-0.022,90.272-0.022,99.646c0,9.989-11.998,20.954-39.157,35.11
	c-53.365,27.819-329.818,141.484-388.672,172.162c-58.859,30.689-91.553,30.392-138.046,8.164
	C387.611,890.434,93.417,771.602,40.424,746.274C13.937,733.61,0.01,722.933,0.01,712.835c0-10.063,0-101.013,0-101.076
	c0.414,10.069,13.936,20.759,40.415,33.411c52.992,25.316,347.181,144.171,393.678,166.387
	c46.493,22.229,79.187,22.527,138.046-8.163c58.854-30.678,335.307-144.354,388.672-172.162
	C986.711,617.734,999.455,607.098,999.891,597.539z M960.82,466.402c-53.365,27.816-329.818,141.487-388.672,172.177
	c-58.859,30.679-91.553,30.38-138.046,8.151c-46.497-22.216-340.686-141.062-393.678-166.39
	C13.945,467.688,0.423,457.005,0.01,446.936c0,0.201,0,91.027,0,101.09c0,10.093,13.927,20.759,40.415,33.423
	c52.992,25.327,347.181,144.171,393.678,166.388c46.493,22.228,79.187,22.526,138.046-8.152
	c58.854-30.689,335.307-144.354,388.672-172.174c27.159-14.156,39.157-25.121,39.157-35.11c0-9.38,0.022-99.658,0.022-99.658
	c-0.034-0.011-0.074-0.026-0.109-0.038C999.461,442.266,986.717,452.903,960.82,466.402z M1000,261.828
	c0,0-0.022,90.275-0.022,99.652c0,9.98-11.998,20.942-39.157,35.098c-53.365,27.816-329.818,141.493-388.672,172.184
	c-58.859,30.678-91.553,30.379-138.046,8.151C387.605,554.696,93.417,435.848,40.424,410.522
	C13.937,397.861,0.01,387.187,0.01,377.098c0-10.069,0-100.961,0-101.085c-0.413-10.081,12.32-19.547,38.368-29.745
	c52.054-20.388,344.63-135.17,406.471-157.354c61.827-22.185,83.28-22.986,135.899-3.703
	c52.619,19.274,327.425,128.648,379.424,147.702c26.774,9.805,40.185,18.734,39.719,28.878
	C999.926,261.802,999.966,261.816,1000,261.828z M393.564,192.722l100.046,8.987l31.361,52.088l19.409-46.698l86.615-8.986
	l-67.201-25.15l17.849-42.725l-65.938,21.57l-69.875-27.349l22.397,41.321L393.564,192.722z M295.6,320.096
	c68.403,0,123.855-21.496,123.855-48.01c0-26.516-55.452-48.009-123.855-48.009c-68.4,0-123.852,21.493-123.852,48.009
	C171.748,298.6,227.2,320.096,295.6,320.096z M589.783,321.927l-231.73,35.572l161.758,67.074L589.783,321.927z M870.565,265.1
	l-137.128-54.237l-151.736,60.019l136.972,54.18l14.84-5.855L870.565,265.1z"/>
</svg>
