<?xml version="1.0" encoding="utf-8"?>
<!-- Generator: Adobe Illustrator 16.2.1, SVG Export Plug-In . SVG Version: 6.00 Build 0)  -->
<!DOCTYPE svg PUBLIC "-//W3C//DTD SVG 1.1//EN" "http://www.w3.org/Graphics/SVG/1.1/DTD/svg11.dtd">
<svg version="1.1" id="Layer_1" xmlns="http://www.w3.org/2000/svg" xmlns:xlink="http://www.w3.org/1999/xlink" x="0px" y="0px"
	 width="1000px" height="1000px" viewBox="0 0 1000 1000" enable-background="new 0 0 1000 1000" xml:space="preserve">
<path d="M153.997,515.972c5.208,5.79,9.055,12.126,11.546,19.012c2.487,6.888,3.733,14.903,3.733,24.046
	c0,21.761-8.046,39.701-24.132,53.821c-16.09,14.122-36.056,21.18-59.897,21.18c-10.998,0-21.993-1.708-32.987-5.12
	c-10.998-3.413-20.487-7.554-28.474-12.414l-7.465,12.674H2.43L0,544.792h14.062c2.892,10.418,6.278,19.822,10.156,28.213
	c3.877,8.394,8.999,16.234,15.365,23.525c6.017,6.831,13.049,12.269,21.094,16.32c8.043,4.053,17.389,6.076,28.04,6.076
	c7.986,0,14.958-1.042,20.921-3.128c5.959-2.086,10.791-5.044,14.496-8.867c3.703-3.826,6.451-8.315,8.248-13.475
	c1.792-5.157,2.69-11.099,2.69-17.821c0-9.849-2.778-19.035-8.333-27.553c-5.556-8.519-13.832-14.98-24.827-19.386
	c-7.525-2.994-16.146-6.31-25.869-9.938c-9.723-3.63-18.116-7.062-25.174-10.29c-13.89-6.247-24.684-14.436-32.38-24.558
	c-7.699-10.124-11.545-23.346-11.545-39.66c0-9.374,1.91-18.109,5.729-26.208c3.82-8.101,9.259-15.333,16.32-21.698
	c6.711-6.016,14.641-10.731,23.785-14.145c9.143-3.413,18.692-5.121,28.647-5.121c11.342,0,21.499,1.736,30.47,5.209
	c8.968,3.471,17.157,7.524,24.566,12.151l7.118-11.805h13.89l1.389,81.773h-14.063c-2.547-9.375-5.411-18.344-8.594-26.91
	c-3.184-8.564-7.322-16.32-12.413-23.265c-4.979-6.711-11.054-12.067-18.23-16.06c-7.178-3.994-15.973-5.99-26.389-5.99
	c-10.998,0-20.373,3.532-28.126,10.59c-7.755,7.062-11.632,15.686-11.632,25.87c0,10.649,2.488,19.474,7.465,26.476
	c4.975,7.005,12.21,12.761,21.702,17.274c8.448,4.053,16.754,7.554,24.914,10.504c8.16,2.952,16.06,6.108,23.699,9.462
	c6.944,3.011,13.628,6.423,20.053,10.243C143.667,506.424,149.25,510.88,153.997,515.972z M256.715,628.996h-82.641v-11.458
	c2.661-0.231,5.409-0.462,8.246-0.695c2.835-0.231,5.295-0.691,7.379-1.386c3.239-1.04,5.643-2.86,7.205-5.462
	c1.563-2.602,2.344-5.982,2.344-10.145V494.243c0-3.701-0.84-7.079-2.518-10.145c-1.679-3.062-4.022-5.634-7.031-7.715
	c-2.2-1.387-5.382-2.572-9.549-3.554c-4.167-0.981-7.986-1.589-11.458-1.824v-11.458l60.418-3.82l2.43,2.431v139.587
	c0,4.053,0.776,7.408,2.328,10.07c1.552,2.664,3.993,4.629,7.327,5.902c2.528,1.042,5,1.883,7.415,2.518
	c2.415,0.637,5.116,1.071,8.106,1.303V628.996z M235.013,388.192c0,6.598-2.169,12.357-6.511,17.274
	c-4.34,4.92-9.694,7.379-16.06,7.379c-5.902,0-11.024-2.345-15.364-7.033c-4.341-4.688-6.51-10.04-6.51-16.06
	c0-6.363,2.169-11.918,6.51-16.667c4.34-4.745,9.462-7.117,15.364-7.117c6.598,0,12.007,2.229,16.233,6.684
	C232.9,377.11,235.013,382.29,235.013,388.192z M449.968,628.996h-83.683v-11.458c2.66-0.231,5.581-0.462,8.766-0.695
	c3.182-0.231,5.816-0.693,7.9-1.389c3.24-1.042,5.644-2.864,7.204-5.47c1.563-2.604,2.345-5.988,2.345-10.155v-88.024
	c0-12.151-2.874-21.527-8.616-28.125c-5.743-6.598-12.733-9.896-20.967-9.896c-6.15,0-11.779,0.956-16.884,2.866
	c-5.104,1.91-9.625,4.253-13.57,7.031c-3.831,2.664-6.876,5.528-9.137,8.594c-2.264,3.068-3.919,5.528-4.961,7.379v98.44
	c0,3.936,0.811,7.177,2.433,9.722c1.618,2.547,4.051,4.514,7.291,5.902c2.429,1.158,5.061,2.026,7.9,2.604
	c2.833,0.582,5.754,0.985,8.767,1.217v11.458h-83.856v-11.458c2.661-0.231,5.41-0.462,8.247-0.695
	c2.835-0.231,5.295-0.691,7.378-1.386c3.239-1.04,5.643-2.86,7.205-5.462c1.562-2.602,2.344-5.982,2.344-10.145V494.243
	c0-3.93-0.841-7.543-2.518-10.836c-1.68-3.293-4.023-5.981-7.032-8.065c-2.2-1.385-4.804-2.398-7.812-3.033
	c-3.012-0.635-6.251-1.068-9.724-1.303v-11.458l56.946-3.82l2.429,2.431v24.133h0.87c2.778-2.778,6.249-6.104,10.418-9.983
	c4.165-3.877,8.099-7.031,11.805-9.462c4.282-2.778,9.375-5.091,15.28-6.944c5.901-1.85,12.557-2.778,19.966-2.778
	c16.432,0,28.615,5.121,36.544,15.364c7.926,10.243,11.893,23.872,11.893,40.888v89.064c0,4.053,0.694,7.32,2.084,9.809
	c1.387,2.489,3.757,4.427,7.119,5.815c2.778,1.158,5.178,1.971,7.203,2.432c2.026,0.464,4.833,0.811,8.422,1.042V628.996z
	 M612.83,625.871c-5.441,1.969-10.216,3.56-14.324,4.774c-4.109,1.215-8.767,1.824-13.975,1.824c-9.029,0-16.234-2.114-21.615-6.338
	c-5.384-4.224-8.827-10.388-10.33-18.49h-1.042c-7.526,8.333-15.6,14.7-24.219,19.098c-8.625,4.398-19.012,6.598-31.166,6.598
	c-12.847,0-23.411-3.938-31.684-11.807c-8.277-7.869-12.414-18.169-12.414-30.902c0-6.598,0.925-12.5,2.778-17.709
	c1.85-5.209,4.627-9.897,8.333-14.063c2.892-3.472,6.711-6.566,11.458-9.288c4.745-2.719,9.203-4.89,13.37-6.511
	c5.207-1.967,15.768-5.613,31.685-10.938c15.912-5.322,26.649-9.489,32.205-12.5v-17.188c0-1.504-0.319-4.397-0.954-8.682
	c-0.639-4.28-1.998-8.333-4.081-12.151c-2.316-4.281-5.584-8.015-9.809-11.2c-4.227-3.181-10.217-4.774-17.969-4.774
	c-5.326,0-10.273,0.897-14.846,2.691c-4.574,1.796-7.785,3.675-9.636,5.642c0,2.317,0.549,5.73,1.649,10.244
	c1.099,4.513,1.649,8.68,1.649,12.5c0,4.053-1.822,7.756-5.468,11.111c-3.646,3.357-8.711,5.034-15.191,5.034
	c-5.789,0-10.043-2.053-12.761-6.163c-2.721-4.107-4.081-8.708-4.081-13.802c0-5.323,1.88-10.416,5.642-15.278
	c3.761-4.86,8.652-9.201,14.67-13.021c5.209-3.238,11.517-5.989,18.925-8.246c7.405-2.258,14.64-3.387,21.702-3.387
	c9.722,0,18.198,0.667,25.435,1.998c7.23,1.332,13.801,4.196,19.705,8.594c5.902,4.282,10.387,10.099,13.455,17.447
	c3.065,7.352,4.602,16.813,4.602,28.388c0,16.553-0.175,31.224-0.521,44.01c-0.347,12.792-0.521,26.768-0.521,41.93
	c0,4.514,0.782,8.103,2.346,10.763c1.561,2.664,3.963,4.921,7.205,6.772c1.735,1.042,4.483,1.622,8.245,1.735
	c3.759,0.117,7.61,0.174,11.546,0.174V625.871z M552.237,534.201c-9.838,2.901-18.463,5.743-25.868,8.526
	c-7.409,2.783-14.297,6.264-20.659,10.44c-5.791,3.942-10.361,8.613-13.717,14.008c-3.357,5.393-5.035,11.803-5.035,19.225
	c0,9.627,2.517,16.702,7.552,21.229c5.035,4.524,11.429,6.783,19.184,6.783c8.218,0,15.452-1.998,21.704-6.004
	c6.249-4,11.515-8.726,15.799-14.179L552.237,534.201z M708.588,621.53c-7.524,3.125-14.644,5.76-21.354,7.9
	c-6.714,2.14-14.93,3.211-24.654,3.211c-14.352,0-24.451-3.618-30.295-10.851c-5.846-7.232-8.767-17.448-8.767-30.643V475.172
	h-30.904v-16.667h31.598v-53.3h31.599v53.3h49.133v16.667h-48.786v95.662c0,7.178,0.261,13.168,0.781,17.97
	c0.521,4.806,1.764,9.002,3.733,12.587c1.85,3.359,4.628,5.904,8.334,7.64c3.702,1.735,8.68,2.604,14.93,2.604
	c2.893,0,7.146-0.261,12.762-0.779c5.613-0.521,9.576-1.188,11.892-1.998V621.53z M841.962,479.86c0,5.904-1.45,11.141-4.342,15.713
	c-2.893,4.574-7.352,6.858-13.367,6.858c-6.484,0-11.433-1.677-14.846-5.036c-3.414-3.355-5.12-7.058-5.12-11.109
	c0-2.545,0.199-4.862,0.606-6.944c0.404-2.084,0.782-4.169,1.129-6.251c-5.442,0-11.805,2.2-19.098,6.598
	c-7.292,4.399-13.484,10.649-18.577,18.749v99.657c0,4.051,0.781,7.35,2.345,9.895c1.562,2.549,4.02,4.456,7.378,5.729
	c2.893,1.158,6.625,2.026,11.199,2.604c4.57,0.582,8.533,0.985,11.893,1.217v11.458h-90.281v-11.458
	c2.662-0.231,5.409-0.462,8.248-0.695c2.834-0.231,5.295-0.691,7.377-1.386c3.24-1.04,5.644-2.86,7.205-5.462
	c1.563-2.602,2.345-5.982,2.345-10.145V494.243c0-3.583-0.84-7.11-2.517-10.576c-1.68-3.468-4.024-6.242-7.033-8.326
	c-2.2-1.385-4.804-2.398-7.812-3.033c-3.011-0.635-6.249-1.068-9.722-1.303v-11.458l56.946-3.82l2.43,2.431v24.133h0.868
	c7.175-9.375,15.162-16.493,23.96-21.355c8.794-4.86,16.841-7.291,24.132-7.291c7.292,0,13.222,2.374,17.796,7.119
	C839.674,465.51,841.962,471.875,841.962,479.86z M1000,625.871c-5.441,1.969-10.216,3.56-14.324,4.774
	c-4.109,1.215-8.767,1.824-13.975,1.824c-9.029,0-16.234-2.114-21.615-6.338c-5.384-4.224-8.827-10.388-10.33-18.49h-1.042
	c-7.526,8.333-15.6,14.7-24.219,19.098c-8.625,4.398-19.012,6.598-31.165,6.598c-12.848,0-23.412-3.938-31.685-11.807
	c-8.276-7.869-12.414-18.169-12.414-30.902c0-6.598,0.925-12.5,2.777-17.709c1.85-5.209,4.628-9.897,8.334-14.063
	c2.892-3.472,6.712-6.566,11.458-9.288c4.745-2.719,9.203-4.89,13.37-6.511c5.207-1.967,15.768-5.613,31.685-10.938
	c15.912-5.322,26.649-9.489,32.205-12.5v-17.188c0-1.504-0.319-4.397-0.954-8.682c-0.639-4.28-1.998-8.333-4.08-12.151
	c-2.317-4.281-5.586-8.015-9.809-11.2c-4.228-3.181-10.218-4.774-17.97-4.774c-5.326,0-10.273,0.897-14.846,2.691
	c-4.573,1.796-7.784,3.675-9.636,5.642c0,2.317,0.549,5.73,1.649,10.244c1.099,4.513,1.649,8.68,1.649,12.5
	c0,4.053-1.822,7.756-5.468,11.111c-3.646,3.357-8.711,5.034-15.191,5.034c-5.789,0-10.044-2.053-12.761-6.163
	c-2.721-4.107-4.081-8.708-4.081-13.802c0-5.323,1.881-10.416,5.643-15.278c3.761-4.86,8.652-9.201,14.671-13.021
	c5.208-3.238,11.517-5.989,18.925-8.246c7.405-2.258,14.64-3.387,21.702-3.387c9.722,0,18.198,0.667,25.435,1.998
	c7.231,1.332,13.801,4.196,19.705,8.594c5.902,4.282,10.387,10.099,13.455,17.447c3.065,7.352,4.602,16.813,4.602,28.388
	c0,16.553-0.175,31.224-0.521,44.01c-0.347,12.792-0.521,26.768-0.521,41.93c0,4.514,0.782,8.103,2.345,10.763
	c1.562,2.664,3.964,4.921,7.205,6.772c1.736,1.042,4.484,1.622,8.246,1.735c3.759,0.117,7.61,0.174,11.546,0.174V625.871z
	 M939.407,534.201c-9.838,2.901-18.463,5.743-25.868,8.526c-7.409,2.783-14.297,6.264-20.659,10.44
	c-5.791,3.942-10.361,8.613-13.717,14.008c-3.357,5.393-5.034,11.803-5.034,19.225c0,9.627,2.517,16.702,7.552,21.229
	c5.034,4.524,11.429,6.783,19.184,6.783c8.218,0,15.452-1.998,21.703-6.004c6.25-4,11.516-8.726,15.8-14.179L939.407,534.201z"/>
</svg>
