<?xml version="1.0" encoding="utf-8"?>
<!-- Generator: Adobe Illustrator 16.2.1, SVG Export Plug-In . SVG Version: 6.00 Build 0)  -->
<!DOCTYPE svg PUBLIC "-//W3C//DTD SVG 1.1//EN" "http://www.w3.org/Graphics/SVG/1.1/DTD/svg11.dtd">
<svg version="1.1" id="Layer_1" xmlns="http://www.w3.org/2000/svg" xmlns:xlink="http://www.w3.org/1999/xlink" x="0px" y="0px"
	 width="1000px" height="1000px" viewBox="0 0 1000 1000" enable-background="new 0 0 1000 1000" xml:space="preserve">
<g>
	<path d="M667.386,558.473c0,110.885-26.657,194.04-79.938,249.468c-53.295,55.439-137.875,83.155-253.755,83.155
		c-115.881,0-200.477-27.716-253.757-83.155C26.64,752.513,0,669.357,0,558.473V108.904h199.572v461.375
		c0,49.354,10.009,86.556,30.043,111.588c20.017,25.044,54.72,37.554,104.078,37.554c49.355,0,84.043-12.51,104.078-37.554
		c20.017-25.032,30.043-62.234,30.043-111.588V108.904h199.572V558.473z"/>
	<path d="M800.43,108.904H1000v766.097H800.43V108.904z"/>
</g>
</svg>
