<?xml version="1.0" encoding="utf-8"?>
<!-- Generator: Adobe Illustrator 16.2.1, SVG Export Plug-In . SVG Version: 6.00 Build 0)  -->
<!DOCTYPE svg PUBLIC "-//W3C//DTD SVG 1.1//EN" "http://www.w3.org/Graphics/SVG/1.1/DTD/svg11.dtd">
<svg version="1.1" id="Layer_1" xmlns="http://www.w3.org/2000/svg" xmlns:xlink="http://www.w3.org/1999/xlink" x="0px" y="0px"
	 width="1000px" height="1000px" viewBox="0 0 1000 1000" enable-background="new 0 0 1000 1000" xml:space="preserve">
<g>
	<path d="M446.2,539.096c0,74.133-17.822,129.729-53.444,166.787c-35.632,37.065-92.18,55.596-169.656,55.596
		c-77.475,0-134.035-18.53-169.656-55.596C17.811,668.824,0,613.229,0,539.096V238.521h133.429v308.466
		c0,32.999,6.692,57.869,20.086,74.605c13.383,16.743,36.585,25.107,69.584,25.107c32.999,0,56.19-8.364,69.584-25.107
		c13.383-16.736,20.086-41.606,20.086-74.605V238.521H446.2V539.096z"/>
	<path d="M665.708,481.707L498.563,238.521h157.102l86.085,159.254l91.105-159.254h152.079L819.224,481.707L1000,750.718H837.878
		L741.75,579.986L637.015,750.718H483.499L665.708,481.707z"/>
</g>
</svg>
