<?xml version="1.0" encoding="utf-8"?>
<!-- Generator: Adobe Illustrator 16.2.1, SVG Export Plug-In . SVG Version: 6.00 Build 0)  -->
<!DOCTYPE svg PUBLIC "-//W3C//DTD SVG 1.1//EN" "http://www.w3.org/Graphics/SVG/1.1/DTD/svg11.dtd">
<svg version="1.1" id="Layer_1" xmlns="http://www.w3.org/2000/svg" xmlns:xlink="http://www.w3.org/1999/xlink" x="0px" y="0px"
	 width="1000px" height="1000px" viewBox="0 0 1000 1000" enable-background="new 0 0 1000 1000" xml:space="preserve">
<path d="M70.815,538.887l-48.578-121.21H0l70.815,172.455l70.592-172.455h-22.233L70.815,538.887L70.815,538.887z M183.437,581.445
	h-20.292V417.676h20.292V581.445L183.437,581.445z M370.813,498.904v6.523c0,44.954-31.526,79.502-77.082,79.502
	c-45.547,0-82.26-39.536-82.26-84.935c0-47.125,37.572-85.79,84.423-85.79c25.251,0,50.312,11.511,66.267,31.708l-14.236,13.687
	c-11.669-16.077-31.304-26.713-51.172-26.713c-36.489,0-64.985,29.751-64.985,66.464c0,34.317,28.067,66.902,63.251,66.902
	c25.276,0,52.476-21.948,53.335-48.654h-42.112v-18.694H370.813L370.813,498.904z M397.485,409.869l122.201,128.802V417.676h20.271
	v170.505L417.781,459.385v122.061h-20.296V409.869L397.485,409.869z M573.144,417.676h87.438v18.691h-67.133v45.829h65.185v18.673
	h-65.185v61.9h67.133v18.677h-87.438V417.676L573.144,417.676z M738.051,581.445h-20.287V436.367H679.11v-18.691h97.577v18.691
	h-38.637V581.445L738.051,581.445z M849.377,581.445h-20.288V436.367h-38.652v-18.691h97.586v18.691h-38.646V581.445
	L849.377,581.445z M912.57,417.676H1000v18.691h-67.141v45.829h65.191v18.673h-65.191v61.9H1000v18.677h-87.43V417.676
	L912.57,417.676z"/>
</svg>
