<?xml version="1.0" encoding="utf-8"?>
<!-- Generator: Adobe Illustrator 16.2.1, SVG Export Plug-In . SVG Version: 6.00 Build 0)  -->
<!DOCTYPE svg PUBLIC "-//W3C//DTD SVG 1.1//EN" "http://www.w3.org/Graphics/SVG/1.1/DTD/svg11.dtd">
<svg version="1.1" id="Layer_1" xmlns="http://www.w3.org/2000/svg" xmlns:xlink="http://www.w3.org/1999/xlink" x="0px" y="0px"
	 width="1000px" height="1000px" viewBox="0 0 1000 1000" enable-background="new 0 0 1000 1000" xml:space="preserve">
<path d="M579.982,475.863h-39.364v4.175c12.312,0,14.29,2.639,14.29,18.253v28.15c0,15.614-1.977,18.474-14.29,18.474
	c-9.455-1.32-15.835-6.379-24.632-16.054l-10.114-10.996c13.634-2.421,20.89-10.995,20.89-20.674
	c0-12.093-10.334-21.329-29.688-21.329h-38.703v4.175c12.312,0,14.293,2.639,14.293,18.253v28.15
	c0,15.614-1.98,18.474-14.293,18.474v4.177h43.76v-4.177c-12.312,0-14.292-2.859-14.292-18.474v-7.914h3.737l24.41,30.564h63.996
	c31.445,0,45.081-16.712,45.081-36.726C625.063,492.354,611.43,475.863,579.982,475.863z M487.841,511.704V482.46h9.014
	c9.894,0,14.295,6.818,14.295,14.733c0,7.698-4.401,14.513-14.295,14.513h-9.014V511.704z M580.643,542.274h-1.541
	c-7.914,0-9.016-1.977-9.016-12.093V482.46c0,0,9.678,0,10.557,0c22.869,0,27.047,16.712,27.047,29.688
	C607.689,525.561,603.512,542.274,580.643,542.274z M335.885,519.846l15.174-44.866c4.4-12.974,2.42-16.71-11.654-16.71v-4.4h41.343
	v4.4c-13.854,0-17.152,3.297-22.65,19.351l-25.072,75.209h-2.857l-22.434-68.833l-22.868,68.833h-2.859l-24.41-75.209
	c-5.278-16.054-8.796-19.351-21.552-19.351v-4.4h48.821v4.4c-12.976,0-16.497,3.078-11.876,16.71l14.733,44.866l22.211-65.976h4.179
	L335.885,519.846z M410.652,551.949c-24.189,0-43.981-17.812-43.981-39.585c0-21.551,19.794-39.364,43.981-39.364
	c24.19,0,43.981,17.813,43.981,39.364C454.633,534.138,434.842,551.949,410.652,551.949z M410.652,479.821
	c-20.229,0-27.269,18.249-27.269,32.545c0,14.517,7.04,32.549,27.269,32.549c20.454,0,27.491-18.032,27.491-32.549
	C438.143,498.07,431.105,479.821,410.652,479.821z M679.378,544.694v4.397h-50.359v-4.397c14.735,0,17.374-3.738,17.374-25.732
	v-35.184c0-21.995-2.639-25.51-17.374-25.51v-4.4h45.521c22.65,0,35.188,11.656,35.188,27.271c0,15.175-12.538,27.049-35.188,27.049
	h-12.534v10.771C662.005,540.956,664.643,544.694,679.378,544.694z M674.539,461.784h-12.534v38.267h12.534
	c12.317,0,18.033-8.576,18.033-18.911C692.572,470.584,686.856,461.784,674.539,461.784z M860.802,528.422l-1.1,3.957
	c-1.979,7.257-4.399,9.896-20.014,9.896h-3.078c-11.435,0-13.413-2.639-13.413-18.251v-10.114c17.152,0,18.473,1.537,18.473,12.974
	h4.178v-32.77h-4.178c0,11.436-1.32,12.974-18.473,12.974V482.46h12.091c15.618,0,18.034,2.639,20.015,9.896l1.101,4.178h3.518
	l-1.537-20.67h-64.655v4.175c12.312,0,14.294,2.639,14.294,18.253v28.15c0,14.283-1.682,17.882-11.392,18.396
	c-9.227-1.411-15.562-6.443-24.231-15.976l-10.116-10.996c13.636-2.421,20.893-10.995,20.893-20.674
	c0-12.093-10.335-21.329-29.688-21.329h-38.702v4.175c12.312,0,14.292,2.639,14.292,18.253v28.15
	c0,15.614-1.979,18.474-14.292,18.474v4.177h43.763v-4.177c-12.314,0-14.296-2.859-14.296-18.474v-7.914h3.739l24.409,30.564h90.383
	l1.32-20.668h-3.303V528.422z M744.253,511.704V482.46h9.013c9.898,0,14.298,6.818,14.298,14.733
	c0,7.698-4.399,14.513-14.298,14.513h-9.013V511.704z M905.443,551.949c-8.796,0-16.495-4.617-19.793-7.478
	c-1.1,1.102-3.078,4.399-3.518,7.478h-4.18v-30.346h4.398c1.762,14.515,11.874,23.091,24.85,23.091
	c7.039,0,12.757-3.959,12.757-10.555c0-5.716-5.059-10.116-14.075-14.294l-12.534-5.937c-8.798-4.182-15.396-11.44-15.396-21.114
	c0-10.556,9.897-19.571,23.531-19.571c7.258,0,13.414,2.64,17.155,5.718c1.098-0.881,2.197-3.3,2.859-5.941h4.178v25.952h-4.619
	c-1.541-10.337-7.257-18.913-18.911-18.913c-6.157,0-11.878,3.518-11.878,9.019c0,5.716,4.619,8.794,15.177,13.632l12.091,5.937
	c10.558,5.059,14.733,13.198,14.733,19.796C932.27,542.274,920.175,551.949,905.443,551.949z M973.174,551.949
	c-8.799,0-16.497-4.617-19.792-7.478c-1.1,1.102-3.078,4.399-3.518,7.478h-4.179v-30.346h4.397
	c1.76,14.515,11.874,23.091,24.851,23.091c7.036,0,12.755-3.959,12.755-10.555c0-5.716-5.057-10.116-14.075-14.294l-12.535-5.937
	c-8.796-4.182-15.395-11.44-15.395-21.114c0-10.556,9.896-19.571,23.531-19.571c7.257,0,13.413,2.64,17.153,5.718
	c1.1-0.881,2.199-3.3,2.855-5.941h4.181v25.952h-4.617c-1.54-10.337-7.257-18.913-18.91-18.913c-6.158,0-11.878,3.518-11.878,9.019
	c0,5.716,4.618,8.794,15.175,13.632l12.093,5.937c10.558,5.059,14.733,13.198,14.733,19.796
	C1000,542.274,987.905,551.949,973.174,551.949z M16.126,499.997c0,38.523,22.387,71.813,54.85,87.59L24.552,460.39
	C19.151,472.494,16.126,485.889,16.126,499.997z M179.148,495.086c0-12.028-4.32-20.358-8.026-26.841
	c-4.933-8.017-9.558-14.806-9.558-22.823c0-8.946,6.786-17.274,16.342-17.274c0.431,0,0.841,0.054,1.261,0.078
	c-17.315-15.862-40.383-25.548-65.72-25.548c-34.001,0-63.914,17.444-81.315,43.868c2.283,0.069,4.436,0.116,6.263,0.116
	c10.18,0,25.938-1.235,25.938-1.235c5.246-0.309,5.865,7.397,0.624,8.017c0,0-5.272,0.62-11.139,0.928L89.26,559.787l21.298-63.874
	l-15.163-41.546c-5.241-0.307-10.206-0.928-10.206-0.928c-5.245-0.307-4.63-8.326,0.615-8.017c0,0,16.073,1.235,25.635,1.235
	c10.178,0,25.938-1.235,25.938-1.235c5.25-0.309,5.867,7.396,0.624,8.017c0,0-5.283,0.621-11.139,0.928l35.171,104.619l9.707-32.438
	C175.946,513.086,179.148,503.418,179.148,495.086z M115.156,508.511l-29.2,84.849c8.719,2.564,17.939,3.966,27.493,3.966
	c11.333,0,22.201-1.96,32.318-5.518c-0.261-0.416-0.499-0.858-0.693-1.34L115.156,508.511z M198.844,453.304
	c0.419,3.1,0.656,6.429,0.656,10.008c0,9.876-1.845,20.978-7.4,34.86l-29.727,85.95c28.933-16.873,48.394-48.219,48.394-84.124
	C210.769,483.078,206.446,467.167,198.844,453.304z M113.449,386.552C50.895,386.552,0,437.444,0,499.997
	c0,62.561,50.895,113.451,113.449,113.451c62.551,0,113.453-50.89,113.453-113.451C226.9,437.444,176,386.552,113.449,386.552z
	 M113.449,608.246c-59.686,0-108.247-48.561-108.247-108.25c0-59.685,48.56-108.241,108.247-108.241
	c59.683,0,108.24,48.557,108.24,108.241C221.688,559.686,173.132,608.246,113.449,608.246z"/>
</svg>
