<?xml version="1.0" encoding="utf-8"?>
<!-- Generator: Adobe Illustrator 16.2.1, SVG Export Plug-In . SVG Version: 6.00 Build 0)  -->
<!DOCTYPE svg PUBLIC "-//W3C//DTD SVG 1.1//EN" "http://www.w3.org/Graphics/SVG/1.1/DTD/svg11.dtd">
<svg version="1.1" id="Layer_1" xmlns="http://www.w3.org/2000/svg" xmlns:xlink="http://www.w3.org/1999/xlink" x="0px" y="0px"
	 width="1000px" height="1000px" viewBox="0 0 1000 1000" enable-background="new 0 0 1000 1000" xml:space="preserve">
<path d="M71.07,499.984c0,169.781,98.663,316.496,241.735,386.027L108.203,325.43C84.404,378.773,71.07,437.809,71.07,499.984z
	 M789.54,478.345c0-53.009-19.041-89.72-35.372-118.293c-21.742-35.332-42.122-65.251-42.122-100.583
	c0-39.429,29.904-76.131,72.026-76.131c1.897,0,3.706,0.239,5.556,0.343C713.321,113.774,611.654,71.086,499.992,71.086
	c-149.847,0-281.682,76.88-358.371,193.332c10.058,0.303,19.543,0.51,27.601,0.51c44.864,0,114.308-5.443,114.308-5.443
	c23.122-1.363,25.848,32.598,2.75,35.332c0,0-23.233,2.733-49.088,4.088l156.191,464.588l93.865-281.506l-66.822-183.099
	c-23.098-1.354-44.983-4.088-44.983-4.088c-23.113-1.355-20.404-36.695,2.71-35.332c0,0,70.839,5.443,112.977,5.443
	c44.856,0,114.316-5.443,114.316-5.443c23.138-1.363,25.855,32.598,2.75,35.332c0,0-23.289,2.734-49.097,4.088l155.004,461.074
	l42.783-142.961C775.425,557.672,789.54,515.063,789.54,478.345z M507.516,537.508L378.821,911.451
	c38.425,11.302,79.064,17.479,121.171,17.479c49.94,0,97.842-8.64,142.427-24.316c-1.147-1.833-2.192-3.786-3.053-5.906
	L507.516,537.508z M876.343,294.202c1.85,13.661,2.894,28.334,2.894,44.107c0,43.524-8.13,92.454-32.614,153.633L715.608,870.74
	c127.515-74.362,213.282-212.509,213.282-370.748C928.898,425.423,909.85,355.302,876.343,294.202z M499.992,0.016
	C224.304,0.016,0,224.304,0,499.984c0,275.72,224.304,500,499.992,500c275.672,0,500.008-224.28,500.008-500
	C999.992,224.304,775.664,0.016,499.992,0.016z M499.992,977.062c-263.047,0-477.062-214.015-477.062-477.078
	c0-263.039,214.006-477.038,477.062-477.038c263.031,0,477.029,213.999,477.029,477.038
	C977.021,763.047,763.023,977.062,499.992,977.062z"/>
</svg>
