<?xml version="1.0" encoding="utf-8"?>
<!-- Generator: Adobe Illustrator 16.2.1, SVG Export Plug-In . SVG Version: 6.00 Build 0)  -->
<!DOCTYPE svg PUBLIC "-//W3C//DTD SVG 1.1//EN" "http://www.w3.org/Graphics/SVG/1.1/DTD/svg11.dtd">
<svg version="1.1" id="Layer_1" xmlns="http://www.w3.org/2000/svg" xmlns:xlink="http://www.w3.org/1999/xlink" x="0px" y="0px"
	 width="1000px" height="1000px" viewBox="0 0 1000 1000" enable-background="new 0 0 1000 1000" xml:space="preserve">
<path d="M0,314.655v370.689h1000V314.655H0z M315.396,592.824l-34.894-55.382l-36.037,55.382H172.39l73.791-98.804l-67.212-86.843
	h73.791l30.89,50.442l30.317-50.442h69.788l-65.497,87.364l72.932,98.284H315.396z M641.049,592.824H581.56V473.74h-0.572
	l-35.466,119.084h-46.905L463.15,473.74h-0.572v119.084h-59.491V407.177h89.524l29.172,109.204h0.572l29.173-109.204h89.521V592.824
	z M827.611,592.824H674.31V407.177h62.923v138.065h90.379V592.824z"/>
</svg>
