<?xml version="1.0" encoding="utf-8"?>
<!-- Generator: Adobe Illustrator 16.2.1, SVG Export Plug-In . SVG Version: 6.00 Build 0)  -->
<!DOCTYPE svg PUBLIC "-//W3C//DTD SVG 1.1//EN" "http://www.w3.org/Graphics/SVG/1.1/DTD/svg11.dtd">
<svg version="1.1" id="Layer_1" xmlns="http://www.w3.org/2000/svg" xmlns:xlink="http://www.w3.org/1999/xlink" x="0px" y="0px"
	 width="1000px" height="1000px" viewBox="0 0 1000 1000" enable-background="new 0 0 1000 1000" xml:space="preserve">
<path fill-rule="evenodd" clip-rule="evenodd" d="M500,0C223.858,0,0,223.858,0,500c0,276.146,223.858,500,500,500
	s500-223.854,500-500C1000,223.858,776.142,0,500,0z M338.783,444.256C250.365,573.218,129.984,666.789,93.879,666.789
	c-29.045,0-41.506-56.185-51.416-111.852c-9.914-55.675,4.53-131.39,14.388-171.242c7.922-32.024,37.438-91.916,54.467-91.916
	c17.033,0,315.349,0,315.349,0S403.326,350.118,338.783,444.256z M897.793,706.825c-17.188,0-318.221,0-318.221,0
	s23.555-55.591,88.688-145.295c89.225-122.89,216.521-212.053,252.954-212.053c29.307,0,39.25,54.747,47.241,107.765
	c8.047,53.381-5.748,124.022-15.695,161.994C944.764,649.756,914.979,706.825,897.793,706.825z"/>
</svg>
