<?xml version="1.0" encoding="utf-8"?>
<!-- Generator: Adobe Illustrator 16.2.1, SVG Export Plug-In . SVG Version: 6.00 Build 0)  -->
<!DOCTYPE svg PUBLIC "-//W3C//DTD SVG 1.1//EN" "http://www.w3.org/Graphics/SVG/1.1/DTD/svg11.dtd">
<svg version="1.1" id="Layer_1" xmlns="http://www.w3.org/2000/svg" xmlns:xlink="http://www.w3.org/1999/xlink" x="0px" y="0px"
	 width="1000px" height="1000px" viewBox="0 0 1000 1000" enable-background="new 0 0 1000 1000" xml:space="preserve">
<path fill-rule="evenodd" clip-rule="evenodd" d="M199.99,503.054c-3.556,0-7.111,0.022-10.666-0.017
	c-1.069-0.01-1.397,0.317-1.253,1.425c0.285,2.177,0.734,4.294,1.636,6.298c1.693,3.766,4.907,5.511,8.696,6.415
	c3.477,0.831,6.985,0.928,10.57,0.686c6.449-0.436,12.621-1.944,18.633-4.188c3.419-1.275,6.735-2.796,9.892-4.648
	c1.676-0.983,1.903-0.891,2.781,0.863c5.182,10.34,10.346,20.688,15.56,31.014c0.561,1.11,0.5,1.685-0.664,2.353
	c-9.977,5.73-20.279,10.714-31.427,13.746c-4.668,1.27-9.44,1.964-14.267,2.396c-4.351,0.387-8.7,0.62-13.057,0.462
	c-13.739-0.504-26.755-3.547-38.223-11.531c-10.404-7.244-17.379-17.046-21.084-29.154c-1.956-6.389-2.745-12.983-2.662-19.634
	c0.229-18.294,5.589-34.876,17.105-49.251c5.101-6.37,11.187-11.702,18.049-16.131c7.829-5.051,16.291-8.644,25.291-11.022
	c9.111-2.406,18.402-3.144,27.754-2.601c11.1,0.645,21.764,3.126,31.265,9.24c8.428,5.424,14.623,12.72,17.04,22.596
	c3.327,13.596-0.011,25.298-10.759,34.625c-6.506,5.648-14.143,9.091-22.294,11.526c-6.364,1.901-12.884,2.956-19.48,3.749
	C212.284,503.007,206.144,503.021,199.99,503.054z M195.821,478.808c2.179-0.003,4.352-0.137,6.527-0.246
	c4.299-0.215,8.467-0.985,12.456-2.562c3.585-1.419,6.569-3.532,7.834-7.477c1.785-5.57-1.288-11.375-6.713-12.354
	c-6.108-1.104-11.496,0.531-15.949,4.811c-4.815,4.629-7.44,10.552-9.381,16.823c-0.247,0.797,0.077,1.02,0.818,1.009
	C192.882,478.791,194.353,478.807,195.821,478.808z M128.093,458.928l6.458-35.074H25.085l-6.451,37.053h47.339L5.42,524.669
	L0,556.801h113.201l6.609-37.379H70.523L128.093,458.928z M960.323,554.668c12.114-5.393,21.834-13.474,27.744-25.57
	c3.689-7.551,4.764-15.628,4.389-23.987c-0.573-12.814-6.165-22.6-17.188-29.211c-7.499-4.498-15.813-6.766-24.209-8.855
	c-4.475-1.114-9.009-2.117-13.243-4.002c-3.093-1.375-4.255-3.575-3.78-6.476c0.352-2.146,2.696-3.931,5.495-4.509
	c3.952-0.814,7.887-0.435,11.759,0.199c8.903,1.46,25.02,9.728,25.02,9.728L1000,429.317c0,0-17.54-10.752-27.193-13.309
	c-7.748-2.053-15.607-3.403-23.606-4.24c-7.178-0.75-14.257-0.473-21.328,0.427c-7.503,0.955-14.748,3.011-21.673,6.133
	c-10.685,4.818-19.159,12.081-24.719,22.482c-4.101,7.675-5.133,16.004-4.441,24.548c0.787,9.703,4.941,17.814,12.074,24.446
	c7.253,6.743,16.061,10.548,25.31,13.528c5.945,1.914,12.007,3.489,17.778,5.91c3.001,1.259,4.523,3.62,4.166,6.079
	c-0.336,2.308-2.751,4.316-5.735,4.771c-7.609,1.156-15.026,0.137-22.342-1.991c-7.736-2.252-22.619-9.287-22.619-9.287
	l-24.672,32.111c0,0,8.695,7.261,12.414,9.12c16.247,8.117,33.561,11.499,52.645,11.728
	C937.217,561.545,949.094,559.667,960.323,554.668z M674.529,482.44c0.062,10.927-1.587,21.26-5.341,31.222
	c-5.852,15.533-16.027,27.414-30.366,35.732c-7.983,4.634-16.544,7.792-25.627,9.361c-8.514,1.471-17.082,1.974-25.734,1.054
	c-11.67-1.243-22.375-4.961-31.776-12.021c-10.767-8.087-17.521-18.887-20.84-31.884c-2.287-8.96-2.542-18.031-1.709-27.211
	c0.844-9.293,2.994-18.214,6.888-26.685c7.833-17.041,20.659-28.816,37.954-35.895c12.794-5.237,26.175-6.699,39.795-5.833
	c11.893,0.755,22.955,4.45,32.754,11.428c8.935,6.363,15.29,14.769,19.383,24.917c2.476,6.141,3.908,12.51,4.37,19.127
	C674.44,478.085,674.468,480.411,674.529,482.44z M586.367,499.93c-0.081,5.129,0.287,10.2,2.086,15.048
	c1.621,4.363,4.403,7.444,9.379,7.826c4.114,0.314,7.552-1.199,10.458-4.021c4.495-4.363,7.126-9.826,9.031-15.677
	c1.936-5.95,3.112-12.042,3.478-18.314c0.374-6.414,0.163-12.724-1.81-18.905c-2.955-9.269-12.062-10.484-18.145-5.943
	c-3.715,2.772-6.25,6.503-8.203,10.64C588.259,479.875,586.378,489.706,586.367,499.93z M688.349,509.183l-8.281,48.008h47.404
	l8.502-48.008H688.349z M324.875,543.974c-1.497,8.399-11.272,60.713-11.272,60.713H262.06l32.708-181.208l45.341-0.125
	l1.663,13.652c0,0,1.525-1.361,2.149-1.936c6.164-5.668,12.998-10.261,21.181-12.404c10.583-2.77,21.03-2.613,30.987,2.495
	c7.389,3.791,12.411,9.868,16.068,17.2c4.504,9.032,6.192,18.696,6.451,28.673c0.293,11.272-0.61,22.439-3.464,33.376
	c-3.645,13.971-9.478,26.827-19.733,37.305c-8.22,8.399-18.066,13.896-29.753,15.5c-14.888,2.042-28.3-1.253-39.338-12.043
	C325.978,544.838,325.583,544.558,324.875,543.974z M367.361,479.035c-0.44-3.308-0.731-6.644-1.357-9.915
	c-0.731-3.813-2.699-6.997-5.979-9.157c-4.12-2.712-8.306-2.072-12.31,0.298c-4.367,2.583-7.649,6.348-9.438,10.998
	c-1.262,3.275-8.502,45.275-8.101,45.54c5.664,3.733,12.145,5.438,18.651,2.778c4.519-1.847,7.577-5.46,10.088-9.486
	C364.83,500.608,366.85,490.074,367.361,479.035z M457.249,395.313l-5.045,28.144H434.32l-6.254,33.406h17.562
	c0,0-6.8,38.879-8.96,52.319c-1.026,6.386-1.783,12.815-0.744,19.337c1.359,8.539,5.269,15.595,11.854,21.122
	c7.273,6.104,15.954,8.628,25.235,9.02c13.871,0.586,27.253-1.821,39.905-7.663c4.076-1.882,12.021-6.255,12.021-6.255
	l-14.278-31.874c0,0-3.436,1.957-5.096,2.732c-3.942,1.841-8.002,3.173-12.452,2.28c-2.608-0.525-4.201-2.04-4.547-4.682
	c-0.229-1.75-0.379-3.595-0.088-5.317c1.259-7.479,2.722-14.922,4.057-22.387c1.581-8.84,5.106-28.692,5.106-28.692h34.303
	l6.012-33.474h-34.146l4.978-28.016H457.249z M751.89,542.868c10.675,13.747,25.827,18.47,43.342,18.99
	c7.401,0.219,14.724-0.665,21.835-2.837c8.886-2.711,16.5-7.406,22.492-14.605c5.821-6.994,9.526-15.066,11.719-23.8
	c1.533-6.109,2.608-12.339,3.775-18.536c1.512-8.022,15.371-86.715,15.371-86.715h-51.401c0,0-17.963,94.248-19.059,99.21
	c-1.173,5.317-9.464,5.122-11.938,3.236c-3.202-2.442-10.595-9.03-10.595-9.03l-32.575,24.205
	C744.856,532.986,750.056,540.506,751.89,542.868z"/>
</svg>
