<?xml version="1.0" encoding="utf-8"?>
<!-- Generator: Adobe Illustrator 16.2.1, SVG Export Plug-In . SVG Version: 6.00 Build 0)  -->
<!DOCTYPE svg PUBLIC "-//W3C//DTD SVG 1.1//EN" "http://www.w3.org/Graphics/SVG/1.1/DTD/svg11.dtd">
<svg version="1.1" id="Layer_1" xmlns="http://www.w3.org/2000/svg" xmlns:xlink="http://www.w3.org/1999/xlink" x="0px" y="0px"
	 width="1000px" height="1000px" viewBox="0 0 1000 1000" enable-background="new 0 0 1000 1000" xml:space="preserve">
<path d="M376.213,559.119c12.187-12.174,23.243-23.206,34.282-34.255c11.404-11.414,22.877-22.764,34.134-34.322
	c3.037-3.119,4.917-2.901,7.93,0.157c18.736,19.004,37.612,37.88,56.614,56.623c3.31,3.264,3.562,5.269,0.116,8.705
	C446.172,618.964,383.151,682,320.188,745.096c-2.81,2.816-4.605,3.146-7.56,0.168c-19.249-19.402-38.677-38.628-58.002-57.951
	c-19.677-19.68-39.288-39.417-58.956-59.097c-24.676-24.689-49.348-49.384-74.132-73.96c-2.418-2.397-1.6-3.591,0.317-5.503
	c14.463-14.392,28.834-28.884,43.26-43.31c5.006-5.004,10.292-9.745,15.068-14.96c2.886-3.153,4.641-2.744,7.453,0.098
	c20.634,20.842,41.396,41.553,62.201,62.226c1.638,1.626,3.036,5.04,5.516,3.992c1.977-0.835,0.851-4.21,0.853-6.438
	c0.042-121.1-0.113-242.198,0.155-363.3c0.058-26.329,1.658-52.629,8.515-78.325c12.868-48.22,43.461-79.379,90.544-94.915
	c23.152-7.639,46.959-11.438,71.256-12.573c39.683-1.853,79.396-1.314,119.07-0.488c35.488,0.738,70.603,5.261,104.264,17.458
	c35.55,12.879,64.612,33.843,82.965,67.821c9.835,18.21,15.179,37.803,17.907,58.21c2.656,19.833,1.84,39.773,2.075,59.686
	c0.055,4.821-2.771,4.694-6.105,4.69c-41.191-0.033-82.38-0.024-123.573-0.024c-1.646,0-3.31-0.146-4.94,0.028
	c-3.898,0.408-5.23-1.35-5.215-5.128c0.062-12.852,0.229-25.713-0.23-38.55c-0.509-14.049-4.194-27.387-11.854-39.279
	c-12.275-19.067-30.316-29.644-52.582-30.598c-31.753-1.363-63.625-1.503-95.366,0.066c-23.769,1.179-45.204,9.293-59.668,29.946
	c-10.313,14.723-14.324,31.607-16.247,49.164c-1.275,11.662-0.958,23.355-0.958,35.042c-0.009,114.18-0.004,228.36-0.002,342.544
	C376.213,553.769,376.213,555.705,376.213,559.119z M624.721,449.254c0,109.895,0,219.788-0.007,329.682
	c0,14.818,0.393,29.654-0.968,44.437c-1.459,15.853-4.607,31.309-12.503,45.366c-13.28,23.649-35.135,33.91-60.734,35.952
	c-32.669,2.608-65.519,2.327-98.227,0.311c-38.018-2.346-60.8-30.705-64.288-65.854c-1.391-13.983-0.719-27.977-0.753-41.962
	c-0.012-4.491-1.359-6.045-5.916-5.973c-14.662,0.229-29.326,0.086-43.99,0.086c-28.008-0.004-56.017-0.014-84.026-0.004
	c-2.569,0.002-5.381-0.649-5.326,3.67c0.317,24.83-1.097,49.722,4.016,74.334c4.548,21.897,12.283,42.4,25.503,60.519
	c17.009,23.307,39.968,38.853,66.479,49.473c34.727,13.911,71.252,19.096,108.229,19.867c41.974,0.873,84.003,1.583,125.98-0.626
	c24.622-1.293,48.737-5.503,71.967-13.977c43.737-15.948,72.631-45.789,85.001-91.081c6.293-23.043,8.768-46.58,8.797-70.347
	c0.138-124.891,0.091-249.774,0.138-374.66c0-2.166-0.513-4.459,0.595-6.734c0.742,0.467,1.216,0.658,1.547,0.991
	c21.863,21.893,43.733,43.777,65.554,65.712c4.601,4.625,4.621,4.815,9.245,0.213c19.018-18.95,37.923-38.01,56.98-56.917
	c2.631-2.611,2.538-4.5,0.036-6.963c-5.858-5.773-11.565-11.707-17.39-17.513c-27.961-27.897-55.96-55.755-83.909-83.666
	c-29.695-29.653-59.387-59.312-88.96-89.088c-2.885-2.905-4.682-2.453-7.242,0.133c-19.704,19.879-39.451,39.717-59.251,59.502
	c-43.32,43.293-86.662,86.569-130.072,129.776c-3.223,3.21-3.561,5.372-0.073,8.806c19.03,18.71,37.906,37.582,56.636,56.596
	c3.246,3.296,5.086,3.178,8.272-0.046c21.312-21.561,42.811-42.936,64.277-64.337c1.106-1.1,1.883-2.733,4.387-2.978
	C624.721,444.445,624.721,446.85,624.721,449.254z"/>
</svg>
