<?xml version="1.0" encoding="utf-8"?>
<!-- Generator: Adobe Illustrator 16.2.1, SVG Export Plug-In . SVG Version: 6.00 Build 0)  -->
<!DOCTYPE svg PUBLIC "-//W3C//DTD SVG 1.1//EN" "http://www.w3.org/Graphics/SVG/1.1/DTD/svg11.dtd">
<svg version="1.1" id="Layer_1" xmlns="http://www.w3.org/2000/svg" xmlns:xlink="http://www.w3.org/1999/xlink" x="0px" y="0px"
	 width="1000px" height="1000px" viewBox="0 0 1000 1000" enable-background="new 0 0 1000 1000" xml:space="preserve">
<path fill-rule="evenodd" clip-rule="evenodd" d="M314.747,525.454c5.247-5.241,10.007-9.991,14.76-14.748
	c4.91-4.914,9.849-9.801,14.696-14.776c1.308-1.343,2.117-1.249,3.414,0.067c8.067,8.182,16.193,16.309,24.375,24.378
	c1.425,1.405,1.533,2.269,0.05,3.748c-27.175,27.097-54.308,54.236-81.416,81.401c-1.21,1.213-1.983,1.355-3.255,0.073
	c-8.287-8.354-16.652-16.631-24.972-24.951c-8.472-8.472-16.915-16.97-25.383-25.443c-10.624-10.63-21.246-21.262-31.917-31.843
	c-1.041-1.032-0.689-1.546,0.137-2.369c6.227-6.196,12.414-12.435,18.625-18.646c2.155-2.155,4.431-4.196,6.487-6.441
	c1.243-1.357,1.998-1.181,3.209,0.042c8.884,8.973,17.823,17.89,26.78,26.79c0.705,0.701,1.307,2.17,2.375,1.719
	c0.851-0.359,0.366-1.812,0.367-2.771c0.018-52.138-0.049-104.276,0.067-156.415c0.025-11.336,0.714-22.659,3.666-33.722
	c5.54-20.761,18.712-34.176,38.983-40.865c9.968-3.289,20.218-4.924,30.679-5.413c17.085-0.798,34.183-0.566,51.264-0.21
	c15.279,0.318,30.398,2.265,44.89,7.516c15.306,5.545,27.818,14.571,35.72,29.2c4.234,7.84,6.535,16.276,7.71,25.062
	c1.143,8.539,0.792,17.124,0.893,25.697c0.024,2.076-1.193,2.021-2.629,2.019c-17.734-0.014-35.468-0.01-53.203-0.01
	c-0.709,0-1.425-0.063-2.127,0.012c-1.679,0.176-2.252-0.581-2.245-2.208c0.026-5.533,0.099-11.07-0.1-16.597
	c-0.218-6.049-1.805-11.791-5.103-16.911c-5.285-8.209-13.053-12.763-22.639-13.174c-13.671-0.587-27.393-0.647-41.059,0.029
	c-10.234,0.507-19.462,4.001-25.69,12.893c-4.44,6.339-6.167,13.608-6.995,21.167c-0.549,5.021-0.412,10.055-0.412,15.087
	c-0.004,49.159-0.002,98.318-0.001,147.478C314.747,523.15,314.747,523.984,314.747,525.454z M261.811,706.566
	c2.702-0.002,2.773-0.116,1.758-2.567c-0.163-0.393-0.345-0.778-0.517-1.167c-5.207-11.809-10.421-23.612-15.616-35.426
	c-12.272-27.904-24.533-55.815-36.805-83.721c-7.848-17.846-15.712-35.684-23.562-53.528c-5.939-13.499-11.903-26.989-17.766-40.521
	c-0.831-1.917-1.911-2.577-3.997-2.57c-22.062,0.072-44.125,0.08-66.186-0.011c-2.366-0.01-3.463,0.784-4.396,2.929
	c-10.43,23.993-20.948,47.947-31.488,71.892c-10.853,24.658-21.78,49.285-32.63,73.944c-9.994,22.714-19.927,45.455-29.892,68.183
	c-1.124,2.561-1.139,2.564,1.562,2.564c19.792,0.003,39.584-0.03,59.375,0.049c2.045,0.008,2.985-0.663,3.713-2.543
	c5.199-13.42,10.537-26.786,15.75-40.2c0.688-1.771,1.561-2.478,3.552-2.473c31.568,0.066,63.136,0.063,94.703,0.007
	c2.009-0.003,3.035,0.604,3.778,2.52c5.204,13.419,10.566,26.776,15.759,40.201c0.746,1.929,1.748,2.504,3.743,2.484
	c9.788-0.097,19.578-0.044,29.368-0.044C241.948,706.568,251.879,706.572,261.811,706.566z M134.281,541.015
	c10.252,25.834,20.47,51.682,30.695,77.526c0.183,0.462,0.353,0.928,0.534,1.391c0.321,0.821,0.031,1.213-0.839,1.212
	c-0.496-0.001-0.993,0.013-1.49,0.013c-20.645,0.002-41.289,0.002-61.935,0c-2.99,0-3.001-0.011-1.92-2.735
	c9.228-23.269,18.462-46.533,27.686-69.803c1.385-3.493,2.716-7.009,4.089-10.507c0.249-0.636,0.322-1.38,1.069-1.898
	C133.228,537.683,133.644,539.41,134.281,541.015z M572.594,487.08c-1.715-0.009-2.685,0.494-3.401,2.13
	c-11.773,26.882-23.594,53.743-35.425,80.6c-12.175,27.64-24.391,55.263-36.554,82.907c-7.48,17.001-14.894,34.031-22.344,51.045
	c-1.226,2.8-1.237,2.809,1.73,2.809c19.79,0.002,39.58-0.021,59.37,0.035c1.755,0.004,2.642-0.529,3.291-2.197
	c5.2-13.341,10.555-26.623,15.703-39.983c0.891-2.312,2.049-3.041,4.499-3.034c31.281,0.086,62.563,0.08,93.844,0.005
	c2.239-0.005,3.214,0.766,4,2.797c5.188,13.424,10.53,26.787,15.761,40.194c0.634,1.623,1.507,2.227,3.29,2.222
	c19.932-0.062,39.864-0.036,59.796-0.041c2.407-0.001,2.506-0.141,1.531-2.367c-2.987-6.814-6.002-13.616-8.996-20.427
	c-12.812-29.139-25.622-58.279-38.432-87.42c-15.663-35.633-31.338-71.261-46.95-106.916c-0.781-1.783-1.771-2.381-3.682-2.368
	c-11.136,0.082-22.272,0.04-33.408,0.041C595.008,487.112,583.801,487.142,572.594,487.08z M613.694,554.456
	c8.417,21.282,16.819,42.57,25.232,63.854c1.127,2.852,1.141,2.847-2.011,2.848c-20.49,0.001-40.979,0.002-61.47,0
	c-3.048-0.001-3.114-0.069-1.978-2.939c10.076-25.43,20.167-50.854,30.25-76.281c0.75-1.89,1.475-3.789,2.211-5.684
	c0.177,0.021,0.353,0.041,0.529,0.062C608.872,542.361,611.3,548.402,613.694,554.456z M421.74,478.153
	c0,47.314,0,94.627-0.003,141.941c0,6.38,0.169,12.767-0.417,19.132c-0.628,6.825-1.983,13.479-5.382,19.532
	c-5.718,10.181-15.128,14.599-26.149,15.478c-14.065,1.123-28.209,1.002-42.291,0.134c-16.368-1.01-26.177-13.22-27.679-28.352
	c-0.598-6.021-0.309-12.045-0.324-18.067c-0.005-1.933-0.585-2.602-2.547-2.571c-6.312,0.099-12.626,0.037-18.939,0.037
	c-12.059-0.002-24.118-0.006-36.177-0.002c-1.106,0.001-2.317-0.279-2.293,1.58c0.137,10.691-0.472,21.407,1.729,32.004
	c1.958,9.428,5.288,18.255,10.98,26.056c7.323,10.034,17.208,16.727,28.622,21.299c14.951,5.99,30.677,8.222,46.597,8.554
	c18.071,0.376,36.167,0.682,54.24-0.269c10.601-0.557,20.983-2.37,30.984-6.018c18.831-6.866,31.271-19.714,36.597-39.214
	c2.709-9.921,3.775-20.055,3.787-30.287c0.06-53.77,0.039-107.538,0.06-161.306c0-0.932-0.221-1.92,0.256-2.899
	c0.319,0.201,0.523,0.283,0.666,0.427c9.413,9.425,18.829,18.847,28.223,28.291c1.981,1.991,1.99,2.073,3.981,0.091
	c8.187-8.158,16.327-16.364,24.532-24.504c1.133-1.124,1.093-1.938,0.016-2.998c-2.523-2.486-4.98-5.04-7.488-7.541
	c-12.038-12.01-24.093-24.004-36.126-36.021c-12.785-12.767-25.568-25.536-38.3-38.356c-1.243-1.251-2.016-1.056-3.119,0.057
	c-8.483,8.559-16.985,17.1-25.509,25.618c-18.652,18.64-37.312,37.272-56.002,55.874c-1.388,1.382-1.534,2.313-0.032,3.791
	c8.194,8.056,16.321,16.181,24.385,24.367c1.398,1.419,2.19,1.368,3.562-0.02c9.175-9.282,18.431-18.485,27.674-27.699
	c0.476-0.474,0.81-1.177,1.888-1.282C421.74,476.083,421.74,477.118,421.74,478.153z M997.98,706.555
	c0.667-0.001,1.594,0.359,1.944-0.378c0.347-0.728-0.604-1.174-0.903-1.788c-0.119-0.249-0.34-0.451-0.52-0.669
	c-4.382-5.299-8.771-10.591-13.146-15.896c-11.854-14.384-23.708-28.769-35.551-43.161c-13.38-16.26-26.711-32.561-40.173-48.753
	c-1.547-1.861-1.502-2.97-0.037-4.784c16.887-20.905,33.694-41.875,50.524-62.828c10.478-13.044,20.961-26.085,31.431-39.137
	c0.374-0.466,1.128-0.879,0.772-1.6c-0.341-0.693-1.133-0.44-1.737-0.44c-22.559-0.012-45.116-0.005-67.674-0.021
	c-1.214-0.001-2.149,0.269-2.906,1.342c-8.294,11.762-16.628,23.495-24.943,35.242c-6.677,9.435-13.317,18.895-20.026,28.306
	c-2.09,2.932-2.153,2.868-4.307-0.179c-14.775-20.905-29.569-41.796-44.312-62.724c-1.005-1.426-2.104-2.021-3.862-2.009
	c-10.355,0.069-20.713,0.034-31.069,0.033c-11.918,0-23.835-0.006-35.752,0.009c-0.675,0.001-1.571-0.286-1.956,0.438
	c-0.401,0.753,0.479,1.222,0.801,1.812c0.1,0.183,0.265,0.332,0.397,0.498c6.749,8.402,13.509,16.797,20.247,25.209
	c12.543,15.658,25.057,31.342,37.618,46.986c7.81,9.727,15.693,19.395,23.524,29.104c1.944,2.41,1.891,2.423-0.034,4.757
	c-17.051,20.681-34.099,41.363-51.141,62.051c-12.805,15.543-25.602,31.094-38.39,46.651c-0.382,0.464-1.167,0.899-0.853,1.571
	c0.311,0.66,1.145,0.362,1.748,0.362c23.408,0.013,46.817,0.002,70.227,0.03c1.337,0.002,2.219-0.412,3.016-1.519
	c4.931-6.848,9.963-13.623,14.9-20.466c11.864-16.443,23.691-32.913,35.542-49.366c1.619-2.247,1.645-2.233,3.303,0.066
	c7.427,10.293,14.85,20.591,22.279,30.882c9.215,12.764,18.456,25.508,27.624,38.306c1.11,1.55,2.325,2.132,4.231,2.117
	c11.42-0.084,22.84-0.042,34.262-0.042C974.714,706.568,986.347,706.574,997.98,706.555z"/>
</svg>
