<?xml version="1.0" encoding="utf-8"?>
<!-- Generator: Adobe Illustrator 16.2.1, SVG Export Plug-In . SVG Version: 6.00 Build 0)  -->
<!DOCTYPE svg PUBLIC "-//W3C//DTD SVG 1.1//EN" "http://www.w3.org/Graphics/SVG/1.1/DTD/svg11.dtd">
<svg version="1.1" id="Layer_1" xmlns="http://www.w3.org/2000/svg" xmlns:xlink="http://www.w3.org/1999/xlink" x="0px" y="0px"
	 width="1000px" height="1000px" viewBox="0 0 1000 1000" enable-background="new 0 0 1000 1000" xml:space="preserve">
<path fill="#010101" d="M260.421,554.236v-103h13.323l63.023,82.973v-82.973h12.607v103h-13.323l-63.03-83.703v83.703H260.421z
	 M451.65,507.416h-13.316v35.003c-5.382,1.16-10.284,1.736-14.698,1.736c-27.659,0-41.485-14.292-41.485-42.861
	c0-26.646,14.045-39.976,42.13-39.976c9.362,0,18.491,1.684,27.369,5.045v-11.523c-8.878-2.884-18.484-4.33-28.807-4.33
	c-36.016,0-54.022,16.931-54.022,50.784c0,35.776,18.659,53.661,55.965,53.661c9.606,0,18.561-1.581,26.865-4.755V507.416z
	 M515.753,554.953c28.569,0,42.854-13.484,42.854-40.479v-63.243h-13.323v63.243c0,19.782-9.847,29.679-29.531,29.679
	c-19.691,0-29.536-9.896-29.536-29.679v-63.243h-13.318v63.243C472.899,541.469,487.184,554.953,515.753,554.953z M582.384,451.23
	v103h67.198v-10.802h-53.881V451.23H582.384z M705.621,464.338l19.228,46.681h-25.925l-3.677,10.801h34.066l13.323,32.415h14.768
	L706.196,437.64l-51.21,116.594h13.826L705.621,464.338z M784.774,554.236v-91.98h29.39c10.949,0,16.427,4.755,16.427,14.258
	c0,12.008-9.847,19.563-29.531,22.692v8.716l32.764,46.313h17.581l-35.364-48.552c19.164-6.426,28.732-16.35,28.732-29.744
	c0-16.472-9.789-24.705-29.383-24.705h-43.938v103H784.774z M887.998,451.23v73.327c0,12.575-7.206,18.873-21.613,18.873v10.8
	c23.291,0,34.938-9.884,34.938-29.673V451.23H887.998z M960.095,554.95c26.607,0,39.905-10.084,39.905-30.253
	c0-18.724-10.98-28.091-32.917-28.091h-13.26c-12.678,0-19.007-5.523-19.007-16.563c0-12.484,9.362-18.729,28.091-18.729
	c12.002,0,23.163,1.922,33.493,5.768v-12.247c-10.33-2.877-21.491-4.329-33.493-4.329c-27.62,0-41.429,9.852-41.429,29.537
	c0,18.73,10.789,28.094,32.345,28.094h13.26c13.059,0,19.594,5.527,19.594,16.561c0,12.97-8.865,19.453-26.582,19.453
	c-12.536,0-24.201-1.929-35.009-5.768v12.246C935.894,553.506,947.559,554.95,960.095,554.95z M145.358,499.194l-25.147-52.513
	l-22.137,52.513H145.358z M241.358,413.496l-19.001,157.598l-101.935,56.495L19.009,571.85L0,414.246l120.293-42.334
	L241.358,413.496z M196.981,559.088l-76.968-165.458L45.637,559.088l27.739-0.512l14.911-37.302h66.659l16.326,37.813H196.981z"/>
</svg>
