<?xml version="1.0" encoding="utf-8"?>
<!-- Generator: Adobe Illustrator 16.2.1, SVG Export Plug-In . SVG Version: 6.00 Build 0)  -->
<!DOCTYPE svg PUBLIC "-//W3C//DTD SVG 1.1//EN" "http://www.w3.org/Graphics/SVG/1.1/DTD/svg11.dtd">
<svg version="1.1" id="Layer_1" xmlns="http://www.w3.org/2000/svg" xmlns:xlink="http://www.w3.org/1999/xlink" x="0px" y="0px"
	 width="1000px" height="1000px" viewBox="0 0 1000 1000" enable-background="new 0 0 1000 1000" xml:space="preserve">
<path d="M143.063,196.892l66.922,725.019L499.997,1000l290.007-78.089l66.935-725.019H143.063L143.063,196.892z M713.211,431.863
	l-213.474,91.269l-0.51,0.219h206.444l-23.611,271.515l-181.992,53.124l-182.99-54.105l-11.805-136.742h90.505l5.901,70.831
	l97.403,24.594l101.324-28.529l6.887-114.114l-307.923-0.982l-0.01-0.134l-0.31,0.134l-6.885-85.587l207.571-86.449l12.099-5.038
	H284.295l-10.82-87.554h448.589L713.211,431.863z M398.365,90.373h-62.96V47.22h62.96V0h-110.18v133.461h110.18V90.373z
	 M555.639,90.373L511.623,47.22h44.016V0H445.451c0,0,0,23.701,0,47.22c14.74,14.743,22.43,21.797,43.749,43.119
	c-12.462,0-43.749,0.045-43.749,0.042v43.08h110.188V90.373z M711.816,90.373L667.801,47.22h44.017V0H601.619c0,0,0,23.701,0,47.22
	c14.742,14.743,22.434,21.797,43.754,43.119c-12.457,0-43.754,0.045-43.754,0.042v43.08h110.197V90.373L711.816,90.373z"/>
</svg>
