<?xml version="1.0" encoding="utf-8"?>
<!-- Generator: Adobe Illustrator 16.2.1, SVG Export Plug-In . SVG Version: 6.00 Build 0)  -->
<!DOCTYPE svg PUBLIC "-//W3C//DTD SVG 1.1//EN" "http://www.w3.org/Graphics/SVG/1.1/DTD/svg11.dtd">
<svg version="1.1" id="Layer_1" xmlns="http://www.w3.org/2000/svg" xmlns:xlink="http://www.w3.org/1999/xlink" x="0px" y="0px"
	 width="1000px" height="1000px" viewBox="0 0 1000 1000" enable-background="new 0 0 1000 1000" xml:space="preserve">
<path fill="#010101" d="M57.875,659.766c0,7.94-2.835,14.813-8.564,20.619c-5.708,5.782-12.638,8.688-20.768,8.688
	c-7.945,0-14.705-2.906-20.243-8.688C2.761,674.579,0,667.706,0,659.766c0-8.174,2.761-15.062,8.301-20.771
	c5.538-5.726,12.298-8.566,20.243-8.566c8.13,0,15.059,2.877,20.768,8.682C55.04,644.907,57.875,651.803,57.875,659.766
	 M421.155,683.108h-52.917L176.155,386.467c-4.49-7.135-8.359-14.894-11.643-23.362h-1.581c1.368,7.944,2.067,24.993,2.067,51.115
	v268.888h-43.621V310.94h56.617l186.336,291.966c7.418,11.589,12.487,19.886,15.061,24.885h1.036
	c-1.726-10.71-2.626-28.96-2.626-54.723V310.94h43.359v372.168H421.155z M700.811,683.108H503.563V310.94h188.685v39.433h-145.1
	v123.805h134.452v39.453H547.148v130.027h153.662V683.108z M1000,350.38H892.797v332.736h-43.604V350.38h-107.41v-39.455H1000
	V350.38L1000,350.38z"/>
</svg>
