<?xml version="1.0" encoding="utf-8"?>
<!-- Generator: Adobe Illustrator 16.2.1, SVG Export Plug-In . SVG Version: 6.00 Build 0)  -->
<!DOCTYPE svg PUBLIC "-//W3C//DTD SVG 1.1//EN" "http://www.w3.org/Graphics/SVG/1.1/DTD/svg11.dtd">
<svg version="1.1" id="Layer_1" xmlns="http://www.w3.org/2000/svg" xmlns:xlink="http://www.w3.org/1999/xlink" x="0px" y="0px"
	 width="1000px" height="1000px" viewBox="0 0 1000 1000" enable-background="new 0 0 1000 1000" xml:space="preserve">
<path fill="#020202" d="M523.616,793.361h-41.72l0.068,78.062c0,22.813-9.78,41.268-32.595,41.268
	c-22.822,0-32.692-18.454-32.692-41.268v-77.987h-41.615l-0.011,77.987c0,45.081,28.979,81.615,74.064,81.615
	c45.075,0,74.487-36.535,74.487-81.615L523.616,793.361z M941.338,745.796v203.217H899.82V745.796H941.338z M358.469,798.246
	c0,17.322,0,47.281,0,47.281s-7.684-7.685-25.799-11.97c-35.819-8.474-54.307,24.443-54.307,31.309v84.014h-41.687V793.669h37.19
	l4.441,27.194c0,0,0.149,1.412,1.459,1.439c1.583,0.042,1.602-0.504,2.062-1.439c0.938-1.908,23.513-37.459,59.298-29.199
	C347.167,793.058,351.766,794.751,358.469,798.246z M580.188,1000v-55.848c0.006,0,0.013,0.007,0.015,0.01l0.008-20.913
	c0,0,0.066-1.673,1.572-1.694c1.345-0.014,1.647,0.876,1.974,1.694c3.159,7.864,20.544,37.829,59.122,28.431
	c34.532-9.728,59.863-41.44,59.863-79.101c0-45.374-36.794-82.172-82.179-82.172c-45.386,0-82.176,36.798-82.176,82.172
	c0,0,0,112.334,0,127.421H580.188z M620.597,830.993c22.979,0,41.601,18.626,41.601,41.586c0,22.981-18.622,41.607-41.601,41.607
	c-22.97,0-41.588-18.627-41.588-41.607C579.009,849.619,597.627,830.993,620.597,830.993z M841.169,948.948h41.799v-76.369
	c0-45.374-36.786-82.172-82.175-82.172c-45.388,0-82.181,36.798-82.181,82.172c0,37.659,25.331,69.371,59.866,79.101
	c38.58,9.398,55.958-20.566,59.121-28.431c0.327-0.818,0.623-1.708,1.972-1.694c1.509,0.021,1.57,1.694,1.57,1.694 M842.353,872.579
	c0,22.981-18.624,41.607-41.593,41.607c-22.977,0-41.602-18.627-41.602-41.607c0-22.96,18.625-41.586,41.602-41.586
	C823.729,830.993,842.353,849.619,842.353,872.579z M106.084,948.622H58.662V745.71h50.882c61.612,0,108.343,11.306,108.343,101.456
	C217.888,936.448,168.388,948.622,106.084,948.622z M117.404,780.884h-16.763v132.533l17.216,0.441
	c35.305,0,58.043-3.213,58.043-66.691C175.901,786.293,155.825,780.884,117.404,780.884z M653.136,130.777
	c-35.913-22.36-69.792-31.17-103.67-53.53C528.457,63.018,499.324,29.138,474.927,0c-4.741,46.756-18.969,65.726-35.228,79.279
	c-34.56,27.105-56.242,35.235-86.056,51.498c-25.069,12.872-161.268,94.184-161.268,268.999
	c0,174.82,147.038,303.559,310.333,303.559c163.3,0,304.917-118.579,304.917-298.137
	C807.625,225.637,674.819,144.328,653.136,130.777z M241.012,264.184c-5.421-9.487,2.033-30.491,27.102-58.272
	c2.321-2.572,5.113-5.251,8.257-7.99c34.459-38.402,81.939-64.548,96.774-71.965c6.769-3.385,36.587-17.618,67.079-40.654
	c18.294-14.229,31.847-27.782,37.94-72.505c0.535,1.762,1.019,3.471,1.468,5.159c7.864,24.837,6.667,37.87,6.667,43.63
	c0,6.098-3.388,22.359-14.229,30.493c-4.745,3.386-6.102,6.099-6.102,6.775c0,2.709,6.102,4.742,6.102,10.84
	c0,7.455-3.389,22.36-39.301,58.272c-35.908,35.912-87.406,67.758-127.385,87.41C265.405,275.027,246.434,273.671,241.012,264.184z
	 M657.048,639.568c-3.385,3.389-34.556,25.068-71.144,28.457c-36.592,3.389-86.053,5.422-115.866-21.68
	c-4.742-4.746-3.39-11.523,0-14.231c3.386-2.71,6.098-4.742,10.163-4.742s3.389,0,5.418,1.353
	c13.552,10.844,33.879,19.65,77.247,19.65c43.364,0,73.855-12.195,87.408-22.358c6.097-4.743,8.805-0.674,9.485,2.032
	C660.437,630.76,661.79,634.822,657.048,639.568z M538.473,577.91c7.453-6.778,19.649-17.621,31.165-22.362
	c11.521-4.742,17.618-4.065,28.463-4.065c10.841,0,22.355,0.676,30.49,6.094c8.131,5.426,12.872,17.622,15.585,24.399
	c2.71,6.771,0,10.836-5.421,13.549c-4.745,2.708-5.418,1.356-10.164-7.455c-4.746-8.807-8.807-17.614-32.526-17.614
	c-23.713,0-31.167,8.132-42.687,17.614c-11.515,9.492-15.584,12.873-19.649,7.455C529.665,590.107,531.022,584.681,538.473,577.91z
	 M718.033,583.329c-24.396-2.032-73.181-77.923-104.346-79.279c-39.303-1.354-124.679,81.987-191.758,81.987
	c-40.654,0-52.851-6.099-66.407-14.905c-20.327-14.231-30.491-35.913-29.81-65.726c0.675-52.854,50.137-102.315,112.478-102.995
	c79.279-0.672,134.161,78.599,174.14,77.922c33.875-0.677,98.926-67.08,130.773-67.08c33.879,0,43.365,35.237,43.365,56.24
	c0,21.007-6.777,58.948-23.037,82.664C747.167,575.874,737.005,584.681,718.033,583.329z"/>
</svg>
