<?xml version="1.0" encoding="utf-8"?>
<!-- Generator: Adobe Illustrator 16.2.1, SVG Export Plug-In . SVG Version: 6.00 Build 0)  -->
<!DOCTYPE svg PUBLIC "-//W3C//DTD SVG 1.1//EN" "http://www.w3.org/Graphics/SVG/1.1/DTD/svg11.dtd">
<svg version="1.1" id="Layer_1" xmlns="http://www.w3.org/2000/svg" xmlns:xlink="http://www.w3.org/1999/xlink" x="0px" y="0px"
	 width="1000px" height="1000px" viewBox="0 0 1000 1000" enable-background="new 0 0 1000 1000" xml:space="preserve">
<path fill="#010101" d="M526.757,409.939H479.49l0.078,88.439c0,25.846-11.081,46.754-36.927,46.754
	c-25.856,0-37.038-20.908-37.038-46.754v-88.353h-47.145l-0.014,88.353c0,51.073,32.83,92.464,83.91,92.464
	c51.066,0,84.386-41.392,84.386-92.464L526.757,409.939z M1000,356.053V586.28h-47.034V356.053H1000z M339.657,415.474
	c0,19.625,0,53.567,0,53.567s-8.704-8.708-29.228-13.563c-40.58-9.599-61.525,27.692-61.525,35.471v95.181h-47.229V410.288h42.134
	l5.031,30.81c0,0,0.169,1.599,1.653,1.63c1.795,0.047,1.816-0.571,2.337-1.63c1.062-2.161,26.638-42.438,67.181-33.081
	C326.853,409.596,332.062,411.515,339.657,415.474z M590.848,644.045v-63.271c0.005,0,0.013,0.007,0.016,0.011l0.008-23.693
	c0,0,0.075-1.896,1.783-1.919c1.524-0.016,1.864,0.993,2.236,1.919c3.58,8.911,23.274,42.857,66.98,32.21
	c39.123-11.021,67.819-46.949,67.819-89.614c0-51.406-41.684-93.094-93.101-93.094s-93.098,41.688-93.098,93.094
	c0,0,0,127.264,0,144.357H590.848z M636.629,452.574c26.031,0,47.129,21.102,47.129,47.114c0,26.035-21.098,47.136-47.129,47.136
	c-26.026,0-47.117-21.102-47.117-47.136C589.512,473.676,610.603,452.574,636.629,452.574z M886.517,586.207h47.355v-86.519
	c0-51.406-41.676-93.094-93.097-93.094s-93.103,41.688-93.103,93.094c0,42.665,28.697,78.592,67.822,89.614
	c43.708,10.647,63.396-23.299,66.98-32.21c0.371-0.926,0.706-1.935,2.235-1.919c1.708,0.023,1.778,1.919,1.778,1.919
	 M887.857,499.688c0,26.035-21.099,47.136-47.121,47.136c-26.028,0-47.13-21.102-47.13-47.136c0-26.012,21.102-47.114,47.13-47.114
	C866.759,452.574,887.857,473.676,887.857,499.688z M53.725,585.839H0V355.955h57.645c69.802,0,122.744,12.808,122.744,114.942
	C180.389,572.046,124.311,585.839,53.725,585.839z M66.55,395.803H47.559v150.15l19.504,0.5c39.998,0,65.759-3.64,65.759-75.556
	C132.822,401.932,110.078,395.803,66.55,395.803z"/>
</svg>
