<?xml version="1.0" encoding="utf-8"?>
<!-- Generator: Adobe Illustrator 16.2.1, SVG Export Plug-In . SVG Version: 6.00 Build 0)  -->
<!DOCTYPE svg PUBLIC "-//W3C//DTD SVG 1.1//EN" "http://www.w3.org/Graphics/SVG/1.1/DTD/svg11.dtd">
<svg version="1.1" id="Layer_1" xmlns="http://www.w3.org/2000/svg" xmlns:xlink="http://www.w3.org/1999/xlink" x="0px" y="0px"
	 width="1000px" height="1000px" viewBox="0 0 1000 1000" enable-background="new 0 0 1000 1000" xml:space="preserve">
<path d="M279.383,434.138c0,0-2.731-13.916-9.024-16.497c-6.294-2.582-8.095-2.191-10.991-0.323
	c-3.078,1.986-5.109,8.516-7.665,10.006c-2.555,1.49-6.813,2.981-6.813,2.981c-2.915-13.379-17.686-19.808-25.852-26.498
	c-4.205-3.549-20.022-21.433-41.021-21.096c0,0-17.713,0.591-32.743,8.671c-15.03,8.08-21.373,19.809-21.373,19.809
	s-5.994-0.174-10.425,3.823c-3.832,3.457-10.861,10.338-10.861,10.338s-9.233,0.989-19.461,3.65
	c-9.534,2.48-20.63,7.724-25.63,11.816c-5.95,4.872-11.326,10.242-14.596,14.075c-2.52,2.954-5.726,9.594-9.123,12.945
	c-4.075,4.02-7.848,5.336-8.775,5.213c0,0,4.431-4.952,3.302-10.252c-0.312-1.467,4.17,4.605,4.17,4.605
	c0-0.001,1.512-4.653,1.217-8.862c-0.22-3.134-2.041-5.985-3.042-6.69c0,0,0.695-1.129,1.39-2.867
	c0.695-1.738,1.042-3.91,1.042-3.91s-5.893,0.946-10.165,3.996c-5.724,4.087-9.765,7.838-12.164,14.075
	c-1.738,4.518,2.346,9.644,3.127,10.252s1.129,8.254,5.213,10.86s9.904,2.085,9.904,2.085s-0.949,7.035-0.782,13.899
	c0.156,6.381,1.432,12.587,1.39,13.467c-0.086,1.824-2.258,7.648-2.779,8.602c-0.521,0.957-9.905,9.904-10.947,11.032
	c-1.042,1.132-2.258,3.563-1.303,7.388c0.494,1.976,2.124,8.308,7.038,14.16c4.58,5.457,15.812,11.644,22.067,10.601
	c0.121-0.02-1.91,5.038-2.258,7.038c-0.348,1.999-1.216,7.559,2.693,9.468c1.728,0.848,5.92,3.186,11.121,4.781
	c6.569,2.017,14.556,3.25,19.113,3.299c3.974,0.045,9.292-0.834,11.468-4.431c2.298-3.791,1.512-9.741,1.65-11.118
	c0.348-3.474,4.432-8.605,5.3-9.994c0.869-1.389,0.608-9.989,0.608-9.989s3.453,0.533,7.124,0.696c3.67,0.162,7.56-0.045,8.428-0.09
	c0,0-5.561,2.175-5.561,6.952c-0.001,1.828,0.456,6.161,2.433,10.426c3.187,6.878,8.918,14.417,12.511,17.202
	c5.821,4.517,12.858,4.952,19.896,0.346c4.274-2.798,3.822-6.165,5.56-7.644c0.828-0.705,3.44-2.224,5.908-4.171
	c2.708-2.13,5.254-4.679,5.3-4.952c0.043-0.265,0.87,1.177,3.91,1.91c2.922,0.709,7.959,0.696,12.858,0.696
	c9.992,0,14.337-0.781,14.337-0.781s3.048-1.246,4.604-4.432c1.258-2.573,1.111-7.017,0.956-8.34
	c-0.347-2.953-2.172-4.256-2.172-4.256s-0.174-12.601-0.174-15.207s-7.124-21.373-7.124-21.373s4.431,4.17,7.906,7.127
	c1.737,1.475,6.288,5.352,11.034,5.819c12.25,1.218,18.749-6.829,20.678-9.989c2.79-4.578,3.823-10.08,3.823-10.08
	s12.944,2.777,26.237-1.132C298.013,499.985,279.383,434.138,279.383,434.138z M28.178,454.86c0,0,2.366,5.061,1.795,4.081
	s-2.529-1.224-2.529-1.224S27.852,455.759,28.178,454.86z M22.55,481.867c-4.218-1.607-2.812-6.829-5.222-10.244
	c-2.41-3.415-5.625-9.038,9.038-19.885c0,0-1.807,4.018-2.209,6.83c-0.402,2.812-0.201,5.021-0.603,7.834
	c-0.402,2.812-3.213,5.422-3.213,5.422s1.004,5.021,4.821,6.026s9.24-4.62,9.24-4.62l-2.411,7.432
	C31.99,480.662,26.768,483.475,22.55,481.867z M27.573,551.766c-10.245-8.837-6.83-15.866-3.988-17.842
	c3.289-2.289,7.307-7.074,7.604-7.664c0.402-0.803,1.205-3.417,1.406-4.419c0,0,4.217,11.847,7.029,17.271
	s7.833,14.263,7.833,14.263C46.653,556.991,44.827,566.651,27.573,551.766z M184.041,543.73c0.201,3.816-0.201,14.666,0.202,15.468
	c0.402,0.807,2.41,1.809,1.406,6.83s-4.018,4.618-9.441,4.618c-10.737,0-17.274-1.604-17.274-1.604
	c4.419-5.021,16.386-13.224,20.288-39.973C179.221,529.069,183.84,539.915,184.041,543.73z M277.552,465.84
	c-0.369,12.892-4.751,23.879-9.514,30.104c-23.328,30.494-68.165,3.23-68.165,3.23c1.128,7.491-0.241,10.55-0.241,10.55
	c-0.725,3.865-3.786,9.909-1.289,13.533c4.632,6.724,12.837,1.902,12.081,2.012c-8.86,1.291-10.146-3.221-10.146-3.221
	s5.073,2.175,11.033,0.402c4.875-1.449,6.203-11.354,6.685-10.955c0.483,0.403,3.383,0.889,3.383,0.889s-1.369,15.785-17.155,17.076
	c-6.021,0.488-10.955-4.916-12.726-6.606c-1.771-1.693-9.021-8.133-9.021-8.133c-1.196-0.411-6.082-1.441-10.632-3.706
	c-4.338-2.158-8.377-5.559-8.377-5.559c2.015,6.039,13.823,10.829,14.058,11.383c0.118,0.281-2.817,15.729-7.273,27.376
	c-4.603,12.03-11.634,18.839-13.147,20.439c-2.819,2.981-8.698,7.249-10.712,8.939c-2.014,1.694-6.604,4.269-7.894,5.641
	c-1.289,1.368-3.563,4.936-3.563,4.936c-1.737,2.346-6.864,5.734-12.511,1.218c-1.129-0.899-4.322-4.517-7.037-8.776
	c-2.716-4.256-4.91-9.208-5.301-10.597c-0.782-2.781,0.261-4.17,1.13-5.127c0.87-0.953,9.817-5.82,10.947-6.691
	c1.13-0.867,1.999-0.606,2.346,0.09s2.085,2.952,1.998,2.17c-0.088-0.781-0.869-5.819-0.869-8.687s0.782-9.212,0.608-8.601
	c-0.174,0.606-3.475,9.293-4.257,9.383c-1.593,0.179-11.034,1.734-15.378,1.563c-4.345-0.175-13.12,0.086-14.51-1.303
	c-1.39-1.393-2.954-10.426-2.954-10.426c-0.001,0,0.435,15.288-0.086,19.198c-0.548,4.104-1.743,5.547-2.085,6.17
	c-1.092,1.991-1.881,3.181-3.955,6.215c-2.074,3.033-1.277,2.712-1.597,7.818c-0.319,5.107-0.581,5.897-7.603,6.378
	c-7.022,0.477-19.847-3.982-22.879-5.742c-3.032-1.755-3.352-3.987-2.235-7.979c1.117-3.986,3.99-18.351,3.99-18.351
	c-16.917-23.621-28.727-54.918-9.097-87.777c14.683-24.578,40.81-30.858,54.268-31.461c0,0-18.479,18.077-24.795,33.113
	c-3.263,7.769-2.085,14.465,1.434,17.593c3.519,3.127,10.426,16.681,10.426,16.681s-4.301,9.121-3.389,11.468
	c0,0,2.135,2.517,5.865,5.733c3.936,3.396,9.685,7.502,17.984,7.168c5.223-0.208,20.2-8.862,26.585-11.989
	c6.386-3.128,15.248-3.259,15.248-3.52c0-0.122,3.814-7.657,4.301-17.201c0.544-10.666-2.255-23.581-2.737-26.194
	c-0.912-4.952-2.606-24.109-2.606-24.109s-2.606,11.208-1.564,24.109c0.37,4.577,2.519,18.245,2.476,22.545
	c-0.13,13.033-4.3,16.811-4.3,16.811c-8.731-0.131-26.456,10.165-30.625,12.511c-2.085,1.173-5.13,2.435-8.341,2.476
	c-3.209,0.045-6.583-1.136-8.08-1.955c-4.3-2.346-8.601-8.21-8.731-8.601c-0.507-1.52,1.083-7.38,3.779-12.771
	c5.27-10.544,13.849-22.798,12.641-21.764c-1.824,1.563-15.769,19.939-15.769,19.939c-0.185-2.763-6.646-10.947-10.687-16.42
	c-1.759-2.383-0.865-6.109-0.521-7.559c0.397-1.676,3.059-8.663,8.862-16.16c11.338-14.653,29.731-33.683,32.059-35.838
	c3.519-3.258,7.038-3.127,9.123-3.519c2.085-0.391,23.066-4.301,21.112-4.17s-17.203,0.782-16.942,0.261
	c0.758-1.515,5.668-8.29,15.769-14.075c8.722-4.997,22.286-9.002,32.189-9.123c11.986-0.146,24.082,8.768,32.32,15.378
	c6.453,5.176,10.607,8.397,10.035,8.341c-1.303-0.13-4.17,0.782-4.17,0.782c2.525-0.05,10.354,1.639,14.596,5.865
	c4.877,4.858,7.826,11.559,8.923,14.184c0.221,0.285,0.384,0.595,0.46,0.934c0.109,0.479-0.05,0.049-0.46-0.934
	c-1.659-2.136-6.952-2.757-9.705-1.152c-1.78,1.039-6.777,1.955-6.777,1.955l4.3,0.782c-0.561,1.122-0.327,2.834,0.007,4.189
	c0.031-0.331,0.103-0.661,0.269-0.974c0.671-1.267,2.242-1.75,3.508-1.081c1.174,0.621,1.679,1.916,1.214,3.124
	c-2.062,0.165-2.687,0.289-4.267,0.996c-0.07-0.069-0.11-0.159-0.17-0.234c0.053,0.143,0.09,0.236,0.09,0.236
	s-3.128,2.085-1.303,1.434c1.824-0.651,10.426-0.912,11.468,0.13s0.782,4.822,0.782,4.822c-5.604-2.867-14.596-1.433-16.681,4.692
	c-0.733,2.154-3.519,9.123-3.519,9.123c1.694-1.173,3.388-7.038,6.907-10.426c2.873-2.768,9.644-2.867,7.819-2.476
	c-1.825,0.391-4.953,5.473-5.083,8.08c-0.13,2.606-1.564,11.599-1.564,11.599c2.215-2.346,2.867-12.511,7.037-15.899
	c3.862-3.138,6.125-1.955,6.125-1.955c1.563,6.255-2.085,22.416-2.085,22.416c1.341-2.56,3.672-7.097,4.562-13.163
	c1.013-6.909,0.476-15.374,0.13-17.593c-0.652-4.17,1.208-5.416,3.258-6.125c3.388-1.173,5.343-2.346,8.21-4.3
	c2.867-1.955,5.864-7.689,7.949-8.862c2.085-1.173,5.604-1.434,8.992,6.125C273.679,432.459,278.002,450.12,277.552,465.84z
	 M549.009,511.24c0,0-6.878,30.108-7.123,32.026c-0.565,2.965,0.09,9.839,9.571,9.774c11.036-0.074,30.658-0.18,40.261-0.245
	l11.713-52.453c-10.108,0.067-31.579,0.188-41.992,0.257C551.021,500.671,549.009,511.24,549.009,511.24z M571.054,544.068
	c0,0-13.333,0-17.455,0c-4.125,0-2.749-4.398-2.749-4.398s4.948-21.987,6.183-27.074c1.237-5.082,4.264-5.045,4.264-5.045h17.776
	L571.054,544.068z M713.418,500.342c-11.041,0.074-26.464,0.178-36.066,0.243c-8.279,0.055-11.855,6.64-13.081,11.147
	c-0.606,2.619-6.854,30.801-6.854,30.801s-2.476,10.572,7.624,10.508c10.108-0.069,27.979-0.188,38.396-0.257
	c10.414-0.073,12.43-10.642,12.43-10.642s6.875-30.108,7.123-32.026C723.555,507.151,722.898,500.279,713.418,500.342z
	 M699.404,512.233c0,0-5.213,23.197-6.084,27.282c-0.868,4.085-2.347,5.388-4.603,5.388c-2.26,0-13.468,0-18.941,0
	c-3.474,0-3.909-2.175-3.128-5.213c0.611-2.435,5.999-27.392,5.999-27.392c0.961-3.674,3.991-3.885,3.991-3.885s15.729,0,19.809,0
	C700.532,508.414,699.404,512.233,699.404,512.233z M431.823,537.964c11.211,0,48.207,0,48.207,0l-3.312,14.832
	c0,0-39.74,0-49.534,0C419.195,552.653,418.423,538.09,431.823,537.964z M834.49,500.342c-11.036,0.074-26.459,0.178-36.062,0.243
	c-8.283,0.055-11.858,6.64-13.085,11.147c-0.603,2.619-6.85,30.801-6.85,30.801s-2.48,10.572,7.624,10.508
	c10.104-0.069,27.979-0.188,38.392-0.257c10.418-0.073,12.43-10.642,12.43-10.642s6.878-30.108,7.123-32.026
	C844.627,507.151,843.972,500.279,834.49,500.342z M820.864,512.233c0,0-5.213,23.197-6.085,27.282
	c-0.867,4.085-2.346,5.388-4.602,5.388c-2.261,0-13.468,0-18.941,0c-3.474,0-3.91-2.175-3.128-5.213
	c0.611-2.435,5.999-27.392,5.999-27.392c0.961-3.674,3.991-3.885,3.991-3.885s15.728,0,19.809,0
	C821.992,508.414,820.864,512.233,820.864,512.233z M949.715,500.342c-11.04,0.074-30.662,0.178-40.265,0.243l-11.709,52.456
	c10.104-0.069,31.575-0.188,41.992-0.257c10.414-0.073,12.43-10.642,12.43-10.642s6.874-30.108,7.123-32.026
	C959.852,507.151,959.196,500.279,949.715,500.342z M936.635,511.948c0,0-4.948,21.992-6.183,27.075
	c-1.238,5.086-4.264,5.045-4.264,5.045h-17.776l8.019-36.518c0,0,13.333,0,17.455,0
	C938.011,507.551,936.635,511.948,936.635,511.948z M971.923,467.796c-34.983,0-193.829,0-201.424,0
	c-7.6,0-15.199,5.591-15.199,5.591s-5.868-5.616-14.185-5.616s-94.052,0-94.052,0l7.6-33.235h-58.49l-7.456,33.259
	c0,0-48.736,0-53.896,0c-11.041,0-17.928,5.161-17.928,5.161s-7.889-5.161-15.34-5.161H329.519l7.598-33.833l-57.76-0.221
	l-3.104,13.271c0.887,5.929,1.479,12.528,1.298,18.829c-0.369,12.892-4.751,23.879-9.514,30.104
	c-1.378,1.802-2.837,3.388-4.353,4.804l-1.916,8.195l-16.442,75.929h57.955l17.776-77.224h20.213c0,0,1.863,0.146,1.29,2.725
	c-0.573,2.581-16.773,74.405-16.773,74.405s377.467,0,387.506,0c10.034,0,18.204-4.59,18.204-4.59s6.309,4.59,13.766,4.59
	c9.892,0,94.58,0,94.58,0l-7.416,32.976h58.959l6.988-32.976c0,0,33.83,0.432,52.039,0c18.208-0.432,31.974-10.895,36.991-33.403
	c5.017-22.509,11.896-55.911,11.896-55.911S1006.902,467.796,971.923,467.796z M350.328,576.181c0,0,13.027-58.254,14.198-64.843
	c1.171-6.586-1.171-10.828-7.757-11.039c-5.705-0.181-41.88,0-41.88,0l-16.814,76.028h-28.249l29.55-134.579H327.9l-7.872,34.464
	c0,0,50.064-0.336,61.183,0c9.66,0.292,17.564,8.343,14.782,22.541c-2.781,14.198-17.125,77.428-17.125,77.428H350.328z
	 M403.168,576.327c-11.856,0-15.369-13.175-14.198-19.173c1.171-5.999,2.488-12.002,4.988-22.326
	c2.5-10.32,13.016-20.852,23.993-20.852s67.476,0,67.476,0s5.415-14.492-8.05-14.639c-9.367-0.102-75.673,0-75.673,0l5.123-23.931
	c0,0,81.528-0.167,95.727,0c12.441,0.146,16.979,12.515,14.49,23.199c-2.488,10.683-16.994,77.721-16.994,77.721
	S415.024,576.327,403.168,576.327z M527.986,576.267c-21.548,0-17.377-20.852-17.377-20.852l12.511-56.494
	c2.26-10.794,11.989-23.143,25.372-23.143c13.378,0,60.652,0,60.652,0l8.007-34.19h28.125l-29.714,134.678
	C615.562,576.267,549.534,576.267,527.986,576.267z M741.335,556.115c0,0-3.828,20.204-24.337,20.204c-20.514,0-55.717,0-75.615,0
	s-15.154-20.204-15.154-20.204s11.941-53.88,13.098-58.88c2.362-8.624,9.313-21.175,25.629-21.175c18.912,0,49.285,0,71.021,0
	c18.677,0,20.054,13.163,18.982,18.827C754.498,498.562,741.335,556.115,741.335,556.115z M838.07,576.319
	c-20.509,0-55.717,0-75.615,0s-15.153-20.204-15.153-20.204s11.94-53.88,13.101-58.88c2.358-8.624,9.314-21.175,25.625-21.175
	c18.913,0,49.29,0,71.025,0c18.673,0,20.053,13.163,18.979,18.827c-0.461,3.674-13.623,61.228-13.623,61.228
	S858.584,576.319,838.07,576.319z M990.759,497.986c-0.774,4.335-12.079,54.513-12.079,54.513
	c-4.183,18.742-15.643,24.622-27.413,24.622c-11.77,0-58.542,0-58.542,0l-7.897,33.452h-27.876l29.717-134.352
	c0,0,63.047,0,86.127,0C993.39,476.221,991.532,493.648,990.759,497.986z M480.533,537.834c-0.596,1.519-0.417,3.278-1.001,5.001
	c-0.876,2.586-2.003,5.641-2.001,9.009c-0.167,0-0.334,0-0.501,0c0,0.166,0,0.334,0,0.5c-17.513,0-35.032,0-52.546,0
	c-0.985-1.172-2.916-1.982-3.502-3.502c-0.986-2.55,1.596-7.778,2.501-8.508c0.997-0.802,2.129-0.989,3.002-2.004
	c0.501,0,1.001,0,1.502,0c0-0.166,0-0.329,0-0.496C445.501,537.834,463.019,537.834,480.533,537.834z M477.03,552.344
	c-13.01,0-26.023,0-39.034,0c-2.708,0-12.208,0.636-13.512-0.5c-2.913-0.754-4.621-4.957-3.002-8.508
	c0.76-1.666,4.591-4.896,6.506-5.502c17.514,0,35.032,0,52.546,0c0,0.167,0,0.33,0,0.496c-1.146,1.275-0.412,2.664-1.001,4.505
	C478.64,545.625,477.634,549.217,477.03,552.344z M6.44,456.11c-3.388,6.516-3.562,15.812-3.562,15.812s-1.042-11.556,1.39-16.855
	c2.433-5.299,8.515-8.341,10.339-9.904C14.606,445.163,9.829,449.594,6.44,456.11z M1.749,454.633
	c-1.565,3.01-1.646,7.306-1.646,7.306s-0.481-5.339,0.643-7.788s3.934-3.854,4.777-4.576C5.522,449.575,3.314,451.622,1.749,454.633
	z M130.418,389.211c-5.632,4.712-9.369,13.229-9.369,13.229s3.482-11.07,7.766-15.027c4.282-3.955,11.067-4.425,13.352-5.166
	C142.168,382.247,136.055,384.501,130.418,389.211z M126.658,386.045c-2.603,2.178-4.329,6.109-4.329,6.109s1.608-5.112,3.588-6.942
	c1.979-1.827,5.113-2.042,6.168-2.386C132.084,382.826,129.26,383.869,126.658,386.045z M112.146,452.769
	c-0.096,0.411-0.146,0.647-0.146,0.647C112.02,453.261,112.075,453.031,112.146,452.769z M136.727,423.203
	c-4.999,0.461-9.703-0.57-13.412,2.997c-4.979,4.787-7.276,13.412-10.558,24.397c-0.127,0.426-0.264,0.842-0.397,1.262
	c-0.087,0.363-0.158,0.667-0.214,0.91c0.696-2.584,3.724-10.017,7.151-15.425c3.348-5.284,7.062-8.49,7.69-9.015
	c-0.398,0.348-1.677,1.736-2.042,5.539c-0.435,4.518,0.868,10.252,0.868,6.604s3.823-11.382,7.125-13.728
	c2.207-1.567,7.465-3.247,10.746-4.166C141.57,422.76,139.175,422.977,136.727,423.203z M264.679,425.941
	c0.792-1.071,1.648-2.008,2.19-2.511c0.079,0.007,0.133,0.03,0.121,0.084c-0.458,2.077-2.272,11.748-12.942,15.521
	c-3.198,1.131-6.134,0.045-8.125-0.865c1.128-0.113,5.721,0.723,12.52-3.665C262.621,431.811,263.412,427.655,264.679,425.941z
	 M174.989,428.917c-3.132,3.546-3.823,9.035-3.823,9.035s0.087-8.34,2.346-11.12c2.258-2.779,9.21-4.952,11.295-5.473
	C184.807,421.358,179.594,423.704,174.989,428.917z M196.362,498.779c-2.727,2.398-4.659,7.036-4.653,7.098
	c0.087,0.871,0.877-8.166,2.671-10.037c1.794-1.872,7.979-2.023,9.01-2.1C203.39,493.74,198.855,496.585,196.362,498.779z
	 M209.916,446.227c0,0-7.619,2.819-13.09,6.507c-5.472,3.688-10.042,8.61-10.042,8.61c0.415-0.829,1.137-2.497,3.222-4.826
	c1.47-1.885,2.154-2.439,4.565-3.971c-0.215-1.775-1.667-3.029-3.5-3.029c-1.98,0-3.584,1.604-3.584,3.585
	c0,1.611,1.056,2.964,2.52,3.415c-3.212-1.281-5.484-4.307-5.551-7.854c-1.065,0.934-5.007,4.091-6.86,4.402
	c2.976-3.109,5.787-6.493,8.055-8.828c1.347-2.276,3.712-3.89,6.516-4.274c4.661-1.994,9.147-2.971,9.147-2.971
	c-0.739,0.938-3.041,2.431-4.739,3.422c3.209,1.16,5.531,4.021,5.796,7.451C206.723,446.208,209.916,446.227,209.916,446.227z"/>
</svg>
