<?xml version="1.0" encoding="utf-8"?>
<!-- Generator: Adobe Illustrator 16.2.1, SVG Export Plug-In . SVG Version: 6.00 Build 0)  -->
<!DOCTYPE svg PUBLIC "-//W3C//DTD SVG 1.1//EN" "http://www.w3.org/Graphics/SVG/1.1/DTD/svg11.dtd">
<svg version="1.1" id="Layer_1" xmlns="http://www.w3.org/2000/svg" xmlns:xlink="http://www.w3.org/1999/xlink" x="0px" y="0px"
	 width="1000px" height="1000px" viewBox="0 0 1000 1000" enable-background="new 0 0 1000 1000" xml:space="preserve">
<path d="M85.99,958.647v-60.88H21.893v60.88H0V823.024h21.893v56.057H85.99v-56.057h21.7v135.623H85.99z M170.528,958.647V823.024
	h-21.901v135.623H170.528z M301.661,917.654c0,17.679-11.656,41.591-53.236,41.585c-8.233,0-21.895-0.404-36.97-0.595V823.016
	c10.648-0.188,26.113-0.596,42.595-0.596c29.533,0,44.798,12.061,44.798,32.965c0,13.855-9.245,26.113-23.104,30.924v0.406
	C293.423,890.122,301.661,903.595,301.661,917.654L301.661,917.654z M275.943,858.791c0-11.05-6.225-18.881-25.51-18.881
	c-6.032,0-11.862,0.194-17.085,0.404v40.182c3.615,0.197,7.04,0.197,11.656,0.197C265.294,880.693,275.943,872.453,275.943,858.791
	L275.943,858.791z M278.556,918.058c0-15.474-13.859-21.088-32.943-21.088c-2.217,0-9.24,0-12.262,0.194v43.191
	c3.415,0.607,8.85,1.008,15.878,1.008C269.12,941.363,278.556,931.723,278.556,918.058L278.556,918.058z M405.526,958.647V939.97
	h-49.62v-42.202h47.21v-17.882h-47.21v-38.566h49.62v-18.295h-71.525v135.623H405.526z M532.256,958.647h-27.521l-42.189-58.669
	h-1.005v58.666h-21.899V823.016c9.841-0.596,21.093-0.793,36.367-0.793c28.129,0,47.41,9.838,47.41,36.76
	c0,21.708-16.272,35.555-38.371,37.978c3.815,4.828,8.041,10.051,11.449,14.473L532.256,958.647L532.256,958.647z M500.52,861.406
	c0-14.87-9.247-21.302-27.529-21.302c-4.216,0-8.232,0.21-11.449,0.407v43c2.004,0.188,5.823,0.41,10.647,0.41
	C489.867,883.922,500.52,874.863,500.52,861.406L500.52,861.406z M669.208,958.647V823.024h-21.292v40.188
	c0,19.892,0.596,49.024,1.407,64.498c-5.023-9.844-10.44-20.688-16.476-30.741l-44.804-73.945h-28.73v135.623h21.3v-45.603
	c0-19.297-0.406-46.812-1.205-60.081c4.219,9.046,9.033,18.688,15.068,28.534l46.407,77.149H669.208L669.208,958.647z
	 M814.032,958.647h-24.293l-10.46-29.938h-54.843l-10.452,29.938H691.89l48.617-135.623h24.3L814.032,958.647L814.032,958.647z
	 M773.447,911.223l-15.464-42.593c-2.611-7.023-4.421-13.455-6.035-20.889h-0.395c-1.405,6.832-3.616,14.269-6.232,21.499
	l-15.268,41.982H773.447L773.447,911.223z M905.825,841.514v-18.489h-96.431v18.489h37.164v117.134h21.894V841.514H905.825z
	 M1000,958.647V939.97h-49.618v-42.202h47.21v-17.882h-47.21v-38.566H1000v-18.295h-71.523v135.623H1000z M307.002,40.771h256.386
	l128.258,222.018H435.126L306.881,485.142L178.745,262.788L306.933,40.761 M691.512,707.284l128.187-222.025l-128.14-222.364
	L563.322,485.259H306.796l128.261,222.01h256.382"/>
</svg>
