<?xml version="1.0" encoding="utf-8"?>
<!-- Generator: Adobe Illustrator 16.2.1, SVG Export Plug-In . SVG Version: 6.00 Build 0)  -->
<!DOCTYPE svg PUBLIC "-//W3C//DTD SVG 1.1//EN" "http://www.w3.org/Graphics/SVG/1.1/DTD/svg11.dtd">
<svg version="1.1" id="Layer_1" xmlns="http://www.w3.org/2000/svg" xmlns:xlink="http://www.w3.org/1999/xlink" x="0px" y="0px"
	 width="1000px" height="1000px" viewBox="0 0 1000 1000" enable-background="new 0 0 1000 1000" xml:space="preserve">
<path d="M0.626,383.32h77.993v77.061h71.348V383.32h77.998V616.68h-77.998v-78.145H78.624v78.145H0.626V383.32L0.626,383.32z
	 M330.528,460.708h-68.657V383.32h215.361v77.388H408.53V616.68h-77.998V460.708H330.528z M511.406,383.32h81.328l50.029,81.992
	l49.971-81.992h81.367V616.68h-77.676V501.011l-53.662,82.974h-1.348l-53.691-82.974V616.67h-76.318V383.32L511.406,383.32z
	 M812.92,383.32h78.017v156.221h109.688v77.139H812.92V383.32L812.92,383.32z"/>
</svg>
