<?xml version="1.0" encoding="utf-8"?>
<!-- Generator: Adobe Illustrator 16.2.1, SVG Export Plug-In . SVG Version: 6.00 Build 0)  -->
<!DOCTYPE svg PUBLIC "-//W3C//DTD SVG 1.1//EN" "http://www.w3.org/Graphics/SVG/1.1/DTD/svg11.dtd">
<svg version="1.1" id="Layer_1" xmlns="http://www.w3.org/2000/svg" xmlns:xlink="http://www.w3.org/1999/xlink" x="0px" y="0px"
	 width="1000px" height="1000px" viewBox="0 0 1000 1000" enable-background="new 0 0 1000 1000" xml:space="preserve">
<path d="M872.591,179.752H127.409C57.044,179.752,0,236.796,0,307.161v385.593c0,0.024,0,0.053,0,0.081
	c0,70.368,57.044,127.413,127.409,127.413h745.182c70.365,0,127.409-57.045,127.409-127.413V307.161
	C1000,236.796,942.956,179.752,872.591,179.752z M185.422,691.059h-69.784V416.992h69.784V691.059z M149.967,377.599
	c-23.074,0-38.271-16.319-38.271-37.142c0-21.379,15.758-37.703,38.833-37.703c23.639,0,38.263,16.323,38.829,37.703
	C189.356,361.279,174.167,377.599,149.967,377.599z M417.274,697.245c-106.925,0-174.458-81.599-174.458-193.024
	c0-116.493,73.162-198.658,180.083-198.658c110.864,0,176.14,83.855,176.14,191.903C599.04,624.652,521.948,697.245,417.274,697.245
	z M744.237,696.685c-39.954,0-81.6-11.259-102.422-23.64l15.197-57.398c22.509,12.945,56.273,24.203,91.724,24.203
	c44.458,0,69.22-20.822,69.22-51.781c0-28.7-19.136-45.58-67.532-63.025c-62.46-22.513-102.418-55.716-102.418-110.303
	c0-61.903,51.773-109.177,133.934-109.177c41.085,0,71.471,9.007,91.172,19.136l-16.889,55.717
	c-13.502-7.316-39.949-18.01-75.408-18.01c-43.894,0-63.029,23.635-63.029,45.584c0,29.265,21.949,42.767,72.601,62.468
	c65.837,24.761,97.919,57.96,97.919,112.551C888.305,643.78,842.16,696.685,744.237,696.685z M525.887,500.282
	c0,79.344-37.707,141.251-104.674,141.251c-66.406,0-105.234-61.342-105.234-138.442c0-78.218,36.577-141.812,105.234-141.812
	C490.436,361.279,525.887,428.812,525.887,500.282z"/>
</svg>
