<?xml version="1.0" encoding="utf-8"?>
<!-- Generator: Adobe Illustrator 16.2.1, SVG Export Plug-In . SVG Version: 6.00 Build 0)  -->
<!DOCTYPE svg PUBLIC "-//W3C//DTD SVG 1.1//EN" "http://www.w3.org/Graphics/SVG/1.1/DTD/svg11.dtd">
<svg version="1.1" id="Layer_1" xmlns="http://www.w3.org/2000/svg" xmlns:xlink="http://www.w3.org/1999/xlink" x="0px" y="0px"
	 width="1000px" height="1000px" viewBox="0 0 1000 1000" enable-background="new 0 0 1000 1000" xml:space="preserve">
<g>
	<path fill="#010101" d="M99.999,294.564c0,26.813-19.563,47.825-50.722,47.825C19.568,342.39,0,321.378,0,294.564
		c0-27.533,20.292-48.549,50.001-48.549C80.436,246.015,99.275,267.031,99.999,294.564z M5.073,746.016v-352.9H94.93v352.9H5.073z"
		/>
	<path fill="#010101" d="M627.536,496.739c0,163.768-99.274,257.245-234.057,257.245c-137.683,0-224.639-105.072-224.639-248.547
		c0-150.005,94.202-255.802,231.884-255.802C543.48,249.636,627.536,357.608,627.536,496.739z M263.042,503.984
		c0,99.275,50.001,178.263,135.506,178.263c86.233,0,134.786-79.712,134.786-181.883c0-92.03-45.652-178.986-134.786-178.986
		C310.144,321.378,263.042,403.261,263.042,503.984z"/>
	<path fill="#010101" d="M702.175,648.912c28.981,16.668,72.462,31.162,118.114,31.162c57.247,0,89.129-26.812,89.129-66.668
		c0-36.955-24.637-58.695-86.956-81.16C742.03,503.261,690.58,460.508,690.58,390.215c0-79.707,66.665-140.579,172.461-140.579
		c52.898,0,92.03,11.594,117.396,24.637l-21.74,71.742c-17.392-9.418-51.45-23.188-97.103-23.188
		c-56.523,0-81.16,30.434-81.16,58.695c0,37.684,28.262,55.071,93.479,80.436C958.696,493.843,1000,536.595,1000,606.885
		c0,78.259-59.42,146.376-185.508,146.376c-51.449,0-105.072-14.491-131.885-30.435L702.175,648.912z"/>
</g>
</svg>
