<?xml version="1.0" encoding="utf-8"?>
<!-- Generator: Adobe Illustrator 16.2.1, SVG Export Plug-In . SVG Version: 6.00 Build 0)  -->
<!DOCTYPE svg PUBLIC "-//W3C//DTD SVG 1.1//EN" "http://www.w3.org/Graphics/SVG/1.1/DTD/svg11.dtd">
<svg version="1.1" id="Layer_1" xmlns="http://www.w3.org/2000/svg" xmlns:xlink="http://www.w3.org/1999/xlink" x="0px" y="0px"
	 width="1000px" height="1000px" viewBox="0 0 1000 1000" enable-background="new 0 0 1000 1000" xml:space="preserve">
<path fill="#010101" d="M0,0v1000h1000V0H0z M542.775,627.661c0,111.788-0.381,171.198-0.95,176.521
	c-6.56,52.566-31.369,87.928-73.669,105.038c-35.266,14.164-83.365,15.304-120.817,2.852
	c-35.457-11.787-64.924-37.453-81.939-71.388l-2.852-5.703l37.547-22.813c20.627-12.453,37.833-22.814,38.213-23.004
	c0.285-0.096,2.756,3.611,5.513,8.174c17.015,29.088,31.654,39.449,56.084,39.354c17.11-0.096,27.376-3.423,35.361-11.407
	c5.703-5.703,8.935-11.882,11.692-22.243l2.091-7.89l0.285-168.061l0.379-167.966h46.483h46.578V627.661z M884.696,878.992
	c-22.339,21.673-51.141,34.411-89.544,39.829c-15.304,2.091-45.247,2.187-61.218,0c-61.025-8.175-106.178-36.692-135.075-85.361
	c-3.708-6.083-4.468-8.08-3.518-8.935c1.521-1.426,73.859-43.156,74.716-43.156c0.38,0,3.137,3.611,6.179,7.984
	c22.242,32.89,49.904,48.099,86.977,48.099c21.958,0,39.639-5.988,50.855-17.3c3.327-3.327,7.034-8.271,8.46-11.217
	c7.319-15.209,4.087-35.076-7.509-47.528c-9.411-10.076-24.145-18.156-63.784-35.172c-29.087-12.548-45.912-20.627-58.27-28.042
	c-48.574-29.372-70.343-66.444-70.343-119.486c0-35.456,11.026-63.403,34.126-86.312c22.434-22.244,52.566-35.171,88.498-38.023
	c13.593-1.045,15.494-1.045,29.943,0.095c29.468,2.187,51.806,9.316,72.718,23.194c11.312,7.51,27.758,24.62,36.883,38.308
	c4.277,6.464,7.795,11.978,7.795,12.357c0,0.665-69.107,45.342-71.578,46.388c-0.76,0.285-2.947-2.281-5.894-6.939
	c-2.567-4.087-8.08-10.836-12.357-15.019c-12.072-12.167-23.955-16.92-42.301-16.92c-16.159-0.096-26.616,3.992-35.646,13.783
	c-6.273,6.749-9.125,13.688-9.79,23.954c-0.761,12.928,2.756,23.289,11.025,32.129c8.651,9.221,21.769,16.445,60.933,33.271
	c51.806,22.243,77.757,37.642,97.813,57.984c10.456,10.647,16.54,19.106,22.623,31.654c8.841,18.346,12.738,36.882,12.738,60.646
	C920.152,826.426,908.46,856.083,884.696,878.992z"/>
</svg>
