<?xml version="1.0" encoding="utf-8"?>
<!-- Generator: Adobe Illustrator 16.2.1, SVG Export Plug-In . SVG Version: 6.00 Build 0)  -->
<!DOCTYPE svg PUBLIC "-//W3C//DTD SVG 1.1//EN" "http://www.w3.org/Graphics/SVG/1.1/DTD/svg11.dtd">
<svg version="1.1" id="Layer_1" xmlns="http://www.w3.org/2000/svg" xmlns:xlink="http://www.w3.org/1999/xlink" x="0px" y="0px"
	 width="1000px" height="1000px" viewBox="0 0 1000 1000" enable-background="new 0 0 1000 1000" xml:space="preserve">
<path d="M359.637,582.359c-22.917,19.866-47.15,31.038-68.903,31.038c-30.983,0-47.789-18.62-47.789-48.412
	c0-32.253,17.993-55.86,90.052-55.86h26.64V582.359L359.637,582.359L359.637,582.359z M422.897,653.722V432.805
	c0-56.471-32.206-93.73-109.812-93.73c-45.285,0-84.989,11.194-117.266,25.45l9.288,39.129
	c25.421-9.337,58.295-18.006,90.572-18.006c44.717,0,63.958,18.006,63.958,55.245v27.935h-22.346
	c-108.623,0-157.629,42.123-157.629,105.496c0,54.59,32.3,85.63,93.103,85.63c39.075,0,68.278-16.135,95.541-39.752l4.963,33.521
	H422.897L422.897,653.722z M634.009,653.722H555.12l-94.958-309.005h68.898l58.94,189.88l13.108,57.047
	c29.752-82.515,50.851-166.296,61.403-246.927h67.01C711.603,446.463,679.271,558.156,634.009,653.722L634.009,653.722z
	 M936.718,582.359c-22.993,19.866-47.23,31.038-68.924,31.038c-30.994,0-47.8-18.62-47.8-48.412c0-32.253,18.031-55.86,90.022-55.86
	h26.697v73.234H936.718L936.718,582.359z M1000,653.722V432.805c0-56.471-32.3-93.73-109.836-93.73
	c-45.344,0-85.038,11.194-117.315,25.45l9.304,39.129c25.433-9.337,58.353-18.006,90.626-18.006
	c44.663,0,63.936,18.006,63.936,55.245v27.935h-22.343c-108.649,0-157.64,42.123-157.64,105.496c0,54.59,32.258,85.63,93.058,85.63
	c39.103,0,68.252-16.135,95.587-39.752l5,33.521H1000L1000,653.722z M110.288,706.236c-18.024,26.336-47.171,47.199-79.053,58.961
	L0,728.406c24.286-12.477,45.09-32.579,54.77-51.298c8.347-16.687,11.823-38.134,11.823-89.479V234.803h67.23v347.964
	C133.823,651.437,128.34,679.197,110.288,706.236L110.288,706.236z"/>
</svg>
