<?xml version="1.0" encoding="utf-8"?>
<!-- Generator: Adobe Illustrator 16.2.1, SVG Export Plug-In . SVG Version: 6.00 Build 0)  -->
<!DOCTYPE svg PUBLIC "-//W3C//DTD SVG 1.1//EN" "http://www.w3.org/Graphics/SVG/1.1/DTD/svg11.dtd">
<svg version="1.1" id="Layer_1" xmlns="http://www.w3.org/2000/svg" xmlns:xlink="http://www.w3.org/1999/xlink" x="0px" y="0px"
	 width="1000px" height="1000px" viewBox="0 0 1000 1000" enable-background="new 0 0 1000 1000" xml:space="preserve">
<path d="M368.752,773.339c0,0-38.192,22.229,27.212,29.732c79.246,9.046,119.743,7.745,207.045-8.758
	c0,0,22.999,14.388,55.066,26.848C462.298,905.038,214.995,816.304,368.752,773.339L368.752,773.339z M344.817,663.866
	c0,0-42.843,31.719,22.609,38.484c84.662,8.74,151.496,9.456,267.208-12.812c0,0,15.966,16.219,41.111,25.082
	C439.08,783.847,175.481,720.065,344.817,663.866L344.817,663.866z M546.482,478.139c48.262,55.557-12.657,105.51-12.657,105.51
	s122.479-63.214,66.242-142.415c-52.543-73.825-92.825-110.498,125.256-236.972C725.326,204.262,382.989,289.742,546.482,478.139
	L546.482,478.139z M805.406,854.326c0,0,28.272,23.307-31.142,41.329c-112.975,34.222-470.306,44.543-569.555,1.37
	c-35.653-15.527,31.238-37.053,52.284-41.598c21.944-4.747,34.474-3.883,34.474-3.883c-39.679-27.94-256.462,54.878-110.102,78.631
	C580.497,994.871,908.922,901.036,805.406,854.326L805.406,854.326z M387.132,550.425c0,0-181.736,43.178-64.354,58.87
	c49.578,6.635,148.352,5.108,240.424-2.617c75.227-6.312,150.72-19.815,150.72-19.815s-26.507,11.37-45.698,24.466
	c-184.587,48.549-541.11,25.938-438.457-23.695C316.542,545.652,387.132,550.425,387.132,550.425L387.132,550.425z M713.171,732.65
	c187.626-97.474,100.864-191.154,40.31-178.535c-14.808,3.088-21.451,5.766-21.451,5.766s5.518-8.644,16.023-12.362
	c119.796-42.096,211.907,124.203-38.632,190.063C709.416,737.582,712.299,734.973,713.171,732.65L713.171,732.65z M600.068,0
	c0,0,103.891,103.948-98.563,263.745c-162.355,128.234-37.02,201.322-0.06,284.872c-94.778-85.504-164.295-160.784-117.667-230.839
	C452.253,214.96,641.977,165.095,600.068,0L600.068,0z M405.579,996.863c180.062,11.511,456.64-6.405,463.185-91.616
	c0,0-12.581,32.304-148.82,57.932c-153.702,28.938-343.316,25.567-455.734,7.007C264.209,970.186,287.24,989.248,405.579,996.863
	L405.579,996.863z"/>
</svg>
