<?xml version="1.0" encoding="utf-8"?>
<!-- Generator: Adobe Illustrator 16.2.1, SVG Export Plug-In . SVG Version: 6.00 Build 0)  -->
<!DOCTYPE svg PUBLIC "-//W3C//DTD SVG 1.1//EN" "http://www.w3.org/Graphics/SVG/1.1/DTD/svg11.dtd">
<svg version="1.1" id="Layer_1" xmlns="http://www.w3.org/2000/svg" xmlns:xlink="http://www.w3.org/1999/xlink" x="0px" y="0px"
	 width="1000px" height="1000px" viewBox="0 0 1000 1000" enable-background="new 0 0 1000 1000" xml:space="preserve">
<path d="M100.681,416.965v115.082c0,10.174-3.093,18.8-9.18,25.62c-7.434,8.313-18.535,12.532-32.995,12.532l-12.962-0.962
	l-39.058-6.408L0,577.51l39.687,6.133c7.404,1.138,14.307,1.713,20.502,1.713c21.474,0,37.68-6.035,48.177-17.914
	c8.454-9.706,12.74-22.396,12.74-37.712V416.965H100.681 M260.056,561.229c-12.004,6.82-26.568,10.281-43.313,10.281
	c-17.128,0-31.786-3.388-43.649-10.063l0,0c-14.431-8.078-21.434-19.438-21.434-34.75c0-15.09,7.203-26.78,21.434-34.739
	c11.863-6.685,26.521-10.073,43.649-10.073c16.982,0,31.595,3.388,43.55,10.073c14.09,8.025,21.206,19.718,21.206,34.739
	C281.499,541.572,274.287,553.191,260.056,561.229z M272.059,480.512c-15.561-8.495-34.159-12.799-55.316-12.799
	c-20.971,0-39.614,4.304-55.309,12.79h-0.005c-19.815,10.791-29.874,26.35-29.874,46.252c0,19.905,10.059,35.435,29.879,46.138
	c15.694,8.496,34.291,12.78,55.309,12.78c21.062,0,39.66-4.254,55.22-12.671c19.641-10.709,29.65-26.269,29.65-46.247
	C301.613,506.785,291.651,491.224,272.059,480.512 M440.713,561.229c-12.005,6.82-26.568,10.281-43.317,10.281
	c-17.125,0-31.785-3.388-43.644-10.063c-14.423-8.078-21.444-19.438-21.444-34.75c0-15.09,7.212-26.78,21.444-34.739
	c11.859-6.685,26.519-10.073,43.644-10.073c16.938,0,31.598,3.388,43.553,10.073c14.046,8.025,21.207,19.718,21.207,34.739
	C462.156,541.572,454.945,553.191,440.713,561.229z M452.718,480.512c-15.565-8.495-34.16-12.799-55.322-12.799
	c-20.967,0-39.613,4.304-55.313,12.79l0,0c-19.831,10.791-29.888,26.35-29.888,46.252c0,19.905,10.058,35.435,29.888,46.138
	c15.701,8.496,34.301,12.78,55.313,12.78c21.067,0,39.617-4.254,55.178-12.671c19.687-10.709,29.651-26.269,29.651-46.247
	S472.311,491.224,452.718,480.512 M701.973,477.639c-11.104-6.576-25.334-9.926-42.271-9.926c-21.537,0-38.995,6.776-52.043,19.927
	c-12.622-13.151-30.028-19.927-51.902-19.927c-17.647,0-32.024,3.719-43.122,10.804c0-2.719,0-9.157,0-9.157h-19.452v114.346h19.452
	v-78.244c1.328-5.64,5.029-10.82,11.053-15.104c7.973-5.623,18.505-8.474,31.356-8.474c11.294,0,21.067,2.333,28.94,6.923
	c9.443,5.383,13.996,12.917,13.996,23.04v71.858h19.117v-71.858c0-10.136,4.554-17.713,13.95-23.151
	c7.969-4.515,17.839-6.812,29.272-6.812s21.251,2.333,29.176,6.932c9.393,5.375,13.946,12.908,13.946,23.031v71.858h19.401v-69.182
	C722.844,498.247,715.823,485.828,701.973,477.639 M738.55,416.965v166.74h19.402v-166.74H738.55 M793.769,526.696
	c0-15.157,7.211-26.885,21.352-34.86c11.91-6.599,26.659-9.953,43.885-9.953c21.298,0,37.951,5.195,49.526,15.456
	c10.2,9.056,15.375,20.866,15.375,35.07c0,0,0,12.513,0,13.543c-8.165,9.007-20.074,16.127-35.44,21.098
	c-9.016,2.967-18.93,4.459-29.461,4.459c-17.507,0-32.355-3.27-43.979-9.729C800.698,553.777,793.769,542.306,793.769,526.696z
	 M923.906,469.359c0,0,0,15.633,0,19.575c-16.655-13.953-38.574-21.221-65.518-21.221c-21.825,0-40.52,4.161-55.699,12.345
	c-19.262,10.484-29.031,26.202-29.031,46.697c0,20.209,10.005,35.806,29.743,46.36c15.512,8.341,34.25,12.558,55.649,12.558
	c10.766,0,21.16-1.27,30.93-3.786c13.761-3.551,25.1-8.903,33.926-15.797c0,3.864,0,17.615,0,17.615h19.446V469.359H923.906
	 M984.58,562.28c-13.521,0-15.562,7.024-15.562,11.202c0,4.309,2.041,11.538,15.562,11.538c13.425,0,15.42-7.229,15.42-11.538
	C1000,569.305,998.005,562.28,984.58,562.28z M994.067,414.327h-19.401v131.762h19.401V414.327"/>
</svg>
