<?xml version="1.0" encoding="utf-8"?>
<!-- Generator: Adobe Illustrator 16.2.1, SVG Export Plug-In . SVG Version: 6.00 Build 0)  -->
<!DOCTYPE svg PUBLIC "-//W3C//DTD SVG 1.1//EN" "http://www.w3.org/Graphics/SVG/1.1/DTD/svg11.dtd">
<svg version="1.1" id="Layer_1" xmlns="http://www.w3.org/2000/svg" xmlns:xlink="http://www.w3.org/1999/xlink" x="0px" y="0px"
	 width="1000px" height="1000px" viewBox="0 0 1000 1000" enable-background="new 0 0 1000 1000" xml:space="preserve">
<path d="M180.173,504.534l-19.232-19.19c-59.645-59.668-78.108-144.875-55.521-220.434C45.795,251.436,1.263,198.124,1.263,134.409
	C1.277,60.532,61.159,0.625,135.026,0.625c66.504,0.033,121.651,48.551,132.021,112.11c72.171-16.923,151.159,2.764,207.439,59.041
	l7.675,7.678l-98.724,98.675l-7.661-7.693c-32.024-32.006-83.957-32.006-116.013,0.032c-32.164,32.164-32.089,84.252-0.172,116.169
	l19.307,19.272l98.742,98.626l104.414,104.377l-98.617,98.7l-104.54-104.391L180.173,504.534 M290.599,394.207l104.498-104.433
	l98.743-98.617l19.255-19.226c59.421-59.402,144.104-78.099,219.355-56.005C741.458,50.8,797.365,0.625,864.983,0.625
	c73.876,0,133.8,59.873,133.782,133.784c0,67.891-50.613,124.002-116.168,132.628c21.549,74.981,2.769,159.054-56.252,218.135
	l-7.698,7.712l-98.649-98.742l7.629-7.646c32.057-32.04,32.057-84.005,0.032-116.029c-31.94-31.898-83.746-31.973-115.91,0.175
	l-19.251,19.239l-98.743,98.668L389.318,492.884L290.599,394.207 M735.115,892.277c-75.912,23.356-161.924,4.981-222.021-55.087
	l-7.554-7.554l98.635-98.738l7.573,7.591c32.057,32.029,84.026,32.029,116.05,0.033c31.918-31.969,31.982-83.761-0.172-115.925
	l-19.288-19.312l-98.659-98.752L505.434,400.211l98.742-98.636l104.163,104.261l98.616,98.698l19.391,19.433
	c56.746,56.736,76.352,136.568,58.699,209.178C950.016,742.297,1000,798.129,1000,865.621c0,73.896-59.92,133.754-133.764,133.754
	C801.471,999.375,747.47,953.404,735.115,892.277 M696.633,614.979L592.498,719.258l-98.659,98.715l-19.354,19.348
	c-56.988,57.003-137.356,76.402-210.3,58.289c-13.636,59.444-66.845,103.715-130.404,103.766
	c-73.899,0-133.8-59.891-133.782-133.754c0-63.251,43.907-116.278,102.899-130.203c-18.673-73.298,0.667-154.268,58.042-211.633
	l7.544-7.521l98.733,98.649l-7.628,7.573c-32.024,32.061-32.024,83.938,0.033,116.036c32.15,32.126,84.236,32.062,116.153,0.13
	l19.321-19.362l98.659-98.687l104.247-104.34L696.633,614.979"/>
</svg>
