<?xml version="1.0" encoding="utf-8"?>
<!-- Generator: Adobe Illustrator 16.2.1, SVG Export Plug-In . SVG Version: 6.00 Build 0)  -->
<!DOCTYPE svg PUBLIC "-//W3C//DTD SVG 1.1//EN" "http://www.w3.org/Graphics/SVG/1.1/DTD/svg11.dtd">
<svg version="1.1" id="Layer_1" xmlns="http://www.w3.org/2000/svg" xmlns:xlink="http://www.w3.org/1999/xlink" x="0px" y="0px"
	 width="1000px" height="1000px" viewBox="0 0 1000 1000" enable-background="new 0 0 1000 1000" xml:space="preserve">
<path fill="#010101" d="M0,383.354h70.821l53.516,157.344h0.64l50.632-157.344h70.821V612.16h-47.107V450.008h-0.642l-56.08,162.152
	h-38.775l-56.08-160.549h-0.641V612.16H0V383.354z M310.905,540.377c0.642,14.53,4.376,25.156,11.215,31.887
	c6.835,6.729,16.665,10.094,29.483,10.094c9.183,0,17.089-2.294,23.713-6.89c6.62-4.593,10.681-9.453,12.177-14.581h40.057
	c-6.408,19.658-16.237,33.863-29.482,42.621c-13.249,8.758-29.271,13.139-48.068,13.139c-13.033,0-24.785-2.138-35.25-6.41
	c-10.471-4.271-19.338-10.255-26.598-17.944c-7.265-7.69-12.873-16.874-16.824-27.561c-3.956-10.679-5.928-22.431-5.928-35.25
	c0-12.388,2.028-23.923,6.089-34.609c4.055-10.681,9.823-19.918,17.303-27.72c7.476-7.795,16.394-13.94,26.76-18.425
	c10.359-4.487,21.84-6.73,34.448-6.73c14.101,0,26.382,2.725,36.853,8.172c10.464,5.448,19.066,12.768,25.796,21.952
	c6.729,9.187,11.586,19.658,14.581,31.403c2.99,11.752,4.057,24.034,3.206,36.853H310.905z M384.93,511.535
	c-2.138-11.535-5.928-20.293-11.375-26.277c-5.448-5.977-13.73-8.972-24.836-8.972c-7.265,0-13.299,1.232-18.105,3.686
	c-4.807,2.458-8.653,5.503-11.537,9.133c-2.884,3.635-4.917,7.479-6.088,11.536c-1.177,4.061-1.873,7.691-2.083,10.895H384.93z
	 M500.099,446.484h33.329v30.442h-33.329v82.038c0,7.691,1.283,12.818,3.847,15.382c2.562,2.564,7.689,3.845,15.38,3.845
	c5.128,0,9.824-0.426,14.103-1.28v35.569c-3.848,0.641-8.122,1.066-12.819,1.283c-4.701,0.21-9.294,0.32-13.779,0.32
	c-7.051,0-13.73-0.481-20.029-1.442c-6.304-0.963-11.857-2.884-16.663-5.768c-4.808-2.886-8.603-6.892-11.377-12.017
	c-2.779-5.128-4.166-11.858-4.166-20.19v-97.74h-27.56v-30.442h27.56v-49.671h45.505V446.484z M578.097,540.377
	c0.641,14.53,4.374,25.156,11.216,31.887c6.834,6.729,16.663,10.094,29.481,10.094c9.182,0,17.089-2.294,23.714-6.89
	c6.618-4.593,10.679-9.453,12.176-14.581h40.058c-6.408,19.658-16.237,33.863-29.481,42.621
	c-13.25,8.758-29.273,13.139-48.069,13.139c-13.032,0-24.785-2.138-35.249-6.41c-10.47-4.271-19.338-10.255-26.599-17.944
	c-7.265-7.69-12.874-16.874-16.824-27.561c-3.955-10.679-5.929-22.431-5.929-35.25c0-12.388,2.029-23.923,6.09-34.609
	c4.057-10.681,9.824-19.918,17.304-27.72c7.478-7.795,16.394-13.94,26.76-18.425c10.358-4.487,21.841-6.73,34.447-6.73
	c14.1,0,26.384,2.725,36.854,8.172c10.464,5.448,19.067,12.768,25.796,21.952c6.73,9.187,11.586,19.658,14.581,31.403
	c2.99,11.752,4.057,24.034,3.204,36.853H578.097z M652.12,511.535c-2.138-11.535-5.927-20.293-11.377-26.277
	c-5.447-5.977-13.729-8.972-24.833-8.972c-7.266,0-13.3,1.232-18.107,3.686c-4.805,2.458-8.652,5.503-11.536,9.133
	c-2.884,3.635-4.915,7.479-6.088,11.536c-1.177,4.061-1.872,7.691-2.082,10.895H652.12z M705.699,529.481
	c0-13.244,2.026-25.262,6.088-36.051c4.057-10.785,9.824-19.973,17.304-27.559c7.477-7.581,16.448-13.459,26.918-17.626
	c10.467-4.165,22.217-6.249,35.252-6.249c13.028,0,24.833,2.084,35.408,6.249c10.575,4.167,19.598,10.045,27.08,17.626
	c7.474,7.585,13.244,16.774,17.303,27.559c4.057,10.789,6.091,22.807,6.091,36.051c0,13.25-2.034,25.212-6.091,35.891
	c-4.059,10.686-9.829,19.819-17.303,27.399c-7.482,7.585-16.505,13.459-27.08,17.626c-10.575,4.165-22.38,6.249-35.408,6.249
	c-13.035,0-24.785-2.084-35.252-6.249c-10.47-4.167-19.441-10.041-26.918-17.626c-7.479-7.58-13.247-16.714-17.304-27.399
	C707.726,554.693,705.699,542.731,705.699,529.481z M751.203,529.481c0,6.625,0.641,13.089,1.922,19.389
	c1.283,6.305,3.471,11.967,6.569,16.983c3.096,5.021,7.21,9.027,12.337,12.017c5.128,2.995,11.538,4.487,19.229,4.487
	c7.688,0,14.149-1.492,19.386-4.487c5.233-2.989,9.4-6.995,12.498-12.017c3.094-5.017,5.289-10.679,6.57-16.983
	c1.28-6.3,1.923-12.764,1.923-19.389c0-6.62-0.643-13.139-1.923-19.547c-1.281-6.41-3.477-12.067-6.57-16.985
	c-3.098-4.911-7.265-8.917-12.498-12.017c-5.236-3.093-11.697-4.646-19.386-4.646c-7.691,0-14.102,1.553-19.229,4.646
	c-5.127,3.101-9.241,7.106-12.337,12.017c-3.099,4.918-5.286,10.575-6.569,16.985C751.844,516.343,751.203,522.861,751.203,529.481z
	 M893.288,446.484h43.264v30.763h0.64c2.133-5.125,5.018-9.877,8.652-14.258c3.63-4.376,7.797-8.117,12.498-11.218
	c4.697-3.094,9.773-5.496,15.222-7.21c5.447-1.707,10.945-2.563,16.504-2.563c3.414,0,6.729,0.537,9.933,1.603v42.3
	c-2.138-0.426-4.701-0.801-7.688-1.122c-2.995-0.32-5.879-0.481-8.654-0.481c-8.332,0-15.38,1.391-21.15,4.167
	c-5.768,2.778-10.414,6.569-13.938,11.375c-3.526,4.808-6.039,10.472-7.532,16.985c-1.497,6.52-2.241,13.408-2.241,20.669v74.667
	h-45.507V446.484z"/>
</svg>
