<?xml version="1.0" encoding="utf-8"?>
<!-- Generator: Adobe Illustrator 16.2.1, SVG Export Plug-In . SVG Version: 6.00 Build 0)  -->
<!DOCTYPE svg PUBLIC "-//W3C//DTD SVG 1.1//EN" "http://www.w3.org/Graphics/SVG/1.1/DTD/svg11.dtd">
<svg version="1.1" id="Layer_1" xmlns="http://www.w3.org/2000/svg" xmlns:xlink="http://www.w3.org/1999/xlink" x="0px" y="0px"
	 width="1000px" height="1000px" viewBox="0 0 1000 1000" enable-background="new 0 0 1000 1000" xml:space="preserve">
<g>
	<path fill-rule="evenodd" clip-rule="evenodd" fill="#010101" d="M194.621,474.917l-89.124-51.292
		c-1.508-0.886-3.197-1.347-4.907-1.417c-0.153,0-0.796,0-0.921,0c-1.704,0.07-3.393,0.531-4.921,1.417L5.625,474.917
		c-3.322,1.919-5.389,5.479-5.389,9.354l0.195,138.106c0,1.928,0.998,3.714,2.688,4.649c1.654,0.998,3.699,0.998,5.347,0
		l52.966-30.329c3.351-1.989,5.389-5.5,5.389-9.34V522.84c0-3.846,2.039-7.413,5.375-9.318l22.553-12.99
		c1.682-0.978,3.518-1.452,5.396-1.452c1.835,0,3.72,0.475,5.354,1.452l22.546,12.99c3.337,1.905,5.382,5.473,5.382,9.318v64.518
		c0,3.84,2.066,7.379,5.396,9.34l52.952,30.329c1.661,0.998,3.734,0.998,5.382,0c1.641-0.936,2.673-2.722,2.673-4.649l0.174-138.106
		C200.002,480.396,197.964,476.836,194.621,474.917z"/>
	<path fill-rule="evenodd" clip-rule="evenodd" fill="#010101" d="M728.957,324.021L675.9,294.415
		c-1.668-0.928-3.699-0.908-5.354,0.059c-1.641,0.967-2.652,2.733-2.652,4.642V435.89c0,1.344-0.719,2.59-1.878,3.264
		c-1.166,0.673-2.604,0.673-3.776,0l-22.315-12.861c-3.337-1.92-7.435-1.916-10.757,0.003l-89.158,51.456
		c-3.337,1.923-5.389,5.476-5.389,9.322v102.931c0,3.846,2.052,7.398,5.382,9.325l89.151,51.493c3.336,1.926,7.44,1.926,10.771,0
		l89.172-51.493c3.329-1.927,5.382-5.479,5.382-9.325v-256.58C734.479,329.522,732.371,325.923,728.957,324.021z M667.629,556.184
		c0,0.964-0.517,1.851-1.348,2.332l-30.615,17.639c-0.83,0.482-1.85,0.482-2.68,0l-30.615-17.639
		c-0.838-0.481-1.348-1.368-1.348-2.332v-35.348c0-0.963,0.51-1.85,1.348-2.331l30.608-17.681c0.837-0.482,1.856-0.482,2.694,0
		l30.607,17.681c0.831,0.481,1.348,1.368,1.348,2.331V556.184z"/>
	<path fill-rule="evenodd" clip-rule="evenodd" fill="#010101" d="M994.875,476.348l-88.586-51.434
		c-3.329-1.938-7.447-1.94-10.784-0.014l-89.13,51.456c-3.33,1.922-5.382,5.476-5.382,9.321v102.902c0,3.867,2.08,7.441,5.438,9.354
		l88.572,50.468c3.267,1.87,7.272,1.884,10.554,0.062l53.574-29.777c1.703-0.95,2.764-2.729,2.77-4.67
		c0.016-1.941-1.018-3.734-2.701-4.705l-89.688-51.479c-1.675-0.957-2.708-2.744-2.708-4.67v-32.249
		c0-1.919,1.025-3.699,2.694-4.663l27.913-16.096c1.662-0.957,3.714-0.957,5.375,0l27.928,16.096
		c1.669,0.964,2.695,2.744,2.695,4.663v25.373c0,1.927,1.033,3.706,2.701,4.67c1.668,0.956,3.721,0.949,5.389-0.015l53.377-31.026
		c3.324-1.927,5.362-5.473,5.362-9.312v-24.94C1000.237,481.824,998.199,478.274,994.875,476.348z"/>
	<path fill-rule="evenodd" clip-rule="evenodd" fill="#010101" d="M462.041,475.804l-89.151-51.445
		c-3.33-1.923-7.434-1.923-10.763,0l-89.127,51.445c-3.333,1.923-5.386,5.476-5.386,9.321v102.973c0,3.846,2.053,7.399,5.382,9.326
		l89.131,51.485c3.329,1.927,7.434,1.927,10.763,0l89.151-51.485c3.33-1.927,5.382-5.48,5.382-9.326V485.133
		C467.422,481.279,465.37,477.727,462.041,475.804z"/>
	<path fill-rule="evenodd" clip-rule="evenodd" fill="#010101" d="M901.647,515.092c-0.642-0.37-1.424-0.37-2.065,0l-17.095,9.87
		c-0.643,0.37-1.033,1.047-1.033,1.786v19.762c0,0.732,0.391,1.417,1.033,1.787l17.095,9.869c0.642,0.37,1.424,0.37,2.065,0
		l17.108-9.869c0.643-0.37,1.033-1.055,1.033-1.787v-19.762c0-0.739-0.391-1.416-1.033-1.786L901.647,515.092z"/>
</g>
</svg>
