<?xml version="1.0" encoding="utf-8"?>
<!-- Generator: Adobe Illustrator 16.2.1, SVG Export Plug-In . SVG Version: 6.00 Build 0)  -->
<!DOCTYPE svg PUBLIC "-//W3C//DTD SVG 1.1//EN" "http://www.w3.org/Graphics/SVG/1.1/DTD/svg11.dtd">
<svg version="1.1" id="Layer_1" xmlns="http://www.w3.org/2000/svg" xmlns:xlink="http://www.w3.org/1999/xlink" x="0px" y="0px"
	 width="1000px" height="1000px" viewBox="0 0 1000 1000" enable-background="new 0 0 1000 1000" xml:space="preserve">
<path d="M406.301,501.077c0-33.048-9.424-50.017-28.271-50.945c-7.499-0.354-14.822,0.84-21.945,3.606
	c-5.685,2.034-9.511,4.049-11.525,6.084v78.885c12.057,7.566,22.763,11.084,32.099,10.529
	C396.413,547.932,406.301,531.894,406.301,501.077z M429.55,502.449c0,16.791-3.937,30.728-11.856,41.81
	c-8.827,12.545-21.06,19.003-36.7,19.357c-11.791,0.375-23.936-3.317-36.435-11.062v71.697l-20.219-7.212V457.896
	c3.318-4.069,7.588-7.564,12.764-10.528c12.034-7.013,26.656-10.619,43.867-10.796l0.287,0.288
	c15.729-0.199,27.852,6.259,36.368,19.355C425.569,468.229,429.55,483.624,429.55,502.449z M553.121,549.503
	c0,22.521-2.256,38.114-6.769,46.787c-4.534,8.671-13.16,15.595-25.904,20.75c-10.331,4.069-21.503,6.283-33.492,6.657l-3.34-12.741
	c12.19-1.658,20.771-3.318,25.75-4.979c9.801-3.317,16.525-8.404,20.218-15.217c2.965-5.555,4.424-16.151,4.424-31.834v-5.267
	c-13.826,6.284-28.314,9.402-43.467,9.402c-9.956,0-18.737-3.118-26.304-9.402c-8.493-6.835-12.739-15.505-12.739-26.013v-84.151
	l20.217-6.924v84.703c0,9.047,2.921,16.016,8.759,20.904c5.842,4.89,13.407,7.234,22.676,7.057
	c9.269-0.199,19.2-3.783,29.755-10.795v-98.817h20.217V549.503z M632.051,562.511c-2.411,0.199-4.623,0.286-6.658,0.286
	c-11.437,0-20.351-2.72-26.723-8.184c-6.35-5.465-9.532-13.008-9.532-22.631v-79.639h-13.851v-12.72h13.851v-33.779l20.195-7.19
	v40.969h22.718v12.72h-22.718v79.085c0,7.589,2.034,12.963,6.104,16.105c3.498,2.587,9.05,4.069,16.614,4.446V562.511z
	 M754.472,560.851h-20.218v-78.045c0-7.941-1.859-14.776-5.552-20.483c-4.271-6.461-10.2-9.69-17.809-9.69
	c-9.269,0-20.86,4.889-34.777,14.666v93.553h-20.218V374.299l20.218-6.37v84.969c12.922-9.402,27.033-14.114,42.363-14.114
	c10.708,0,19.38,3.606,26.017,10.796c6.657,7.188,9.976,16.148,9.976,26.856V560.851L754.472,560.851z M861.938,497.893
	c0-12.698-2.411-23.183-7.212-31.479c-5.707-10.109-14.577-15.441-26.567-15.994c-22.166,1.284-33.226,17.166-33.226,47.605
	c0,13.959,2.301,25.617,6.946,34.975c5.929,11.924,14.82,17.809,26.678,17.608C850.812,550.432,861.938,532.867,861.938,497.893z
	 M884.082,498.025c0,18.074-4.623,33.117-13.848,45.127c-10.153,13.451-24.179,20.198-42.075,20.198
	c-17.742,0-31.568-6.747-41.544-20.198c-9.047-12.01-13.56-27.053-13.56-45.127c0-16.988,4.887-31.279,14.666-42.916
	c10.33-12.345,23.912-18.538,40.703-18.538s30.462,6.192,40.992,18.538C879.193,466.746,884.082,481.037,884.082,498.025z
	 M1000,560.851h-20.22v-82.469c0-9.047-2.722-16.104-8.163-21.193c-5.44-5.066-12.697-7.52-21.744-7.323
	c-9.602,0.177-18.737,3.32-27.41,9.402v101.583h-20.218V456.768c11.636-8.471,22.344-14.003,32.12-16.589
	c9.224-2.411,17.365-3.606,24.377-3.606c4.801,0,9.313,0.463,13.561,1.394c7.943,1.835,14.401,5.242,19.38,10.242
	c5.552,5.53,8.317,12.166,8.317,19.932V560.851z M124.642,375.046c-10.404,0.049-20.337,0.936-29.079,2.482
	c-25.751,4.55-30.426,14.072-30.426,31.632v23.192h60.853v7.73H65.137H42.3c-17.686,0-33.171,10.63-38.015,30.852
	c-5.587,23.179-5.835,37.644,0,61.846c4.325,18.017,14.656,30.852,32.341,30.852h20.922V535.83
	c0-20.085,17.378-37.802,38.015-37.802h60.781c16.92,0,30.426-13.93,30.426-30.923V409.16c0-16.489-13.912-28.879-30.426-31.632
	C145.892,375.789,135.044,374.998,124.642,375.046z M91.733,393.699c6.286,0,11.419,5.217,11.419,11.631
	c0,6.392-5.133,11.561-11.419,11.561c-6.309,0-11.418-5.168-11.418-11.561C80.315,398.917,85.425,393.699,91.733,393.699z
	 M194.36,440.083v27.022c0,20.951-17.762,38.583-38.015,38.583H95.563c-16.649,0-30.426,14.249-30.426,30.923v57.944
	c0,16.492,14.34,26.193,30.426,30.923c19.262,5.665,37.733,6.688,60.781,0c15.32-4.435,30.426-13.362,30.426-30.923v-23.192H125.99
	v-7.73h60.781h30.426c17.686,0,24.276-12.336,30.426-30.852c6.353-19.061,6.083-37.392,0-61.846
	c-4.371-17.604-12.718-30.852-30.426-30.852H194.36z M160.175,586.824c6.308,0,11.419,5.168,11.419,11.561
	c0,6.414-5.111,11.631-11.419,11.631c-6.286,0-11.419-5.217-11.419-11.631C148.756,591.992,153.889,586.824,160.175,586.824z"/>
</svg>
