<?xml version="1.0" encoding="utf-8"?>
<!-- Generator: Adobe Illustrator 16.2.1, SVG Export Plug-In . SVG Version: 6.00 Build 0)  -->
<!DOCTYPE svg PUBLIC "-//W3C//DTD SVG 1.1//EN" "http://www.w3.org/Graphics/SVG/1.1/DTD/svg11.dtd">
<svg version="1.1" id="Layer_1" xmlns="http://www.w3.org/2000/svg" xmlns:xlink="http://www.w3.org/1999/xlink" x="0px" y="0px"
	 width="1000px" height="1000px" viewBox="0 0 1000 1000" enable-background="new 0 0 1000 1000" xml:space="preserve">
<path d="M547.306,439.338c0,7.912-6.499,14.976-14.977,14.976c-6.499,0-12.149,1.696-16.953,5.37
	c-5.368,3.393-9.608,8.194-12.997,13.562c-6.782,9.043-10.168,19.78-11.584,23.732v53.688c0,8.194-7.063,14.979-15.54,14.979
	c-8.193,0-14.975-6.784-14.975-14.979V439.338c0-8.195,6.781-14.693,14.975-14.693c8.479,0,15.54,6.501,15.54,14.693v1.979
	c1.695-1.979,3.954-4.237,5.934-5.652c9.327-6.213,21.475-11.302,35.601-11.02C540.807,424.645,547.306,431.146,547.306,439.338z
	 M539.008,495.001c0.284-38.428,30.235-70.639,68.943-70.639c36.731,0,65.835,27.408,68.096,65.55c0,0.285,0,0.851,0,1.413
	c0,0.567,0,1.977-0.281,2.543c-0.85,6.784-6.781,11.305-14.694,11.305h-89.851c1.411,6.502,4.518,13.845,9.606,18.648
	c5.934,6.782,17.237,11.863,27.124,12.711c10.172,0.846,22.321-1.692,29.387-7.061c5.932-6.22,17.518-5.368,21.189-0.852
	c3.675,3.96,6.498,12.438,0,18.367c-13.847,12.713-30.517,18.648-50.579,18.648C569.243,565.359,539.292,533.429,539.008,495.001z
	 M569.807,481.157h79.963c-2.825-11.302-17.236-27.972-41.818-29.95C583.938,452.334,572.068,469.573,569.807,481.157z
	 M820.009,550.383c0,8.195-6.783,15.261-15.261,15.261c-7.629,0-13.561-5.368-14.975-12.151
	c-10.735,7.345-24.299,12.151-38.427,12.151c-38.145,0-68.661-32.212-68.661-70.358c0-38.711,30.517-70.922,68.661-70.922
	c13.847,0,27.407,4.519,37.861,11.865V383.11c0-8.195,6.781-15.258,15.538-15.258c8.477,0,15.261,7.063,15.261,15.258v111.892
	c0,0,0,0,0,0.284v55.098H820.009z M751.349,455.161c-10.173,0-19.497,4.237-26.556,11.584c-7.066,7.065-11.307,17.234-11.307,28.538
	c0,10.738,4.238,20.908,11.307,27.974c7.059,7.348,16.383,11.586,26.556,11.586c10.454,0,19.497-4.238,26.56-11.586
	c7.062-7.063,11.302-17.235,11.302-27.974c0-11.304-4.238-21.473-11.302-28.538C770.846,459.398,761.803,455.161,751.349,455.161z
	 M873.766,389.045c0,8.477-6.5,15.539-15.261,15.539c-8.477,0-15.256-7.062-15.256-15.539v-5.935
	c0-8.477,6.779-15.258,15.256-15.258c8.761,0,15.261,6.782,15.261,15.258V389.045z M873.766,440.187v110.196
	c0,8.477-6.5,15.261-15.261,15.261c-8.477,0-15.256-6.784-15.256-15.261V440.187c0-9.042,6.779-15.542,15.256-15.542
	C867.27,424.645,873.766,431.146,873.766,440.187z M893.189,525.234c5.086-6.777,14.977-7.627,21.192-2.26
	c7.345,6.221,20.062,12.714,31.08,12.434c7.63,0,14.692-2.541,19.215-5.367c3.955-3.392,5.084-6.214,5.084-8.478
	c0-1.411-0.284-1.975-0.848-2.827c-0.284-0.848-1.411-1.977-3.675-3.387c-3.956-2.826-12.434-5.938-22.604-7.912h-0.281
	c-8.764-1.693-17.24-3.957-24.583-7.351c-7.63-3.67-14.411-8.756-19.497-16.385c-3.106-5.086-4.802-11.302-4.802-17.8
	c0-12.998,7.347-24.018,16.669-31.083c9.891-6.78,21.759-10.454,34.758-10.454c19.494,0,33.34,9.326,42.382,15.539
	c6.782,4.522,8.759,13.847,4.519,20.907c-4.519,6.783-13.843,8.762-20.906,3.958c-9.04-5.932-16.953-10.455-25.994-10.455
	c-7.065,0-13.281,2.26-16.954,5.085c-3.675,2.545-4.52,5.088-4.52,6.501c0,1.128,0,1.412,0.563,2.259
	c0.284,0.564,1.129,1.694,3.108,2.825c3.677,2.542,11.021,5.085,20.629,6.781l0.282,0.285h0.283
	c9.325,1.692,18.084,4.237,26.276,8.192c7.629,3.392,15.261,8.76,20.064,16.67c3.392,5.65,5.368,12.149,5.368,18.649
	c0,13.845-7.629,25.431-17.804,32.775c-10.172,7.062-22.888,11.305-36.732,11.305c-22.037-0.282-38.991-10.454-50.293-19.495
	C888.951,541.061,888.105,531.452,893.189,525.234z M371.907,536.279c0.013,0.007,0.028,0.011,0.041,0.016
	c0,0-0.009,33.576-0.009,37.062c0,3.716-4.463,7.794-14.564,13.06c-19.849,10.348-122.675,52.625-144.565,64.035
	c-21.892,11.415-34.053,11.305-51.346,3.036c-17.292-8.268-126.717-52.467-146.428-61.887c-9.852-4.711-15.032-8.682-15.032-12.438
	c0-3.743,0-37.572,0-37.596c0.154,3.745,5.183,7.721,15.032,12.428c19.71,9.416,129.133,53.624,146.428,61.887
	c17.293,8.268,29.455,8.379,51.346-3.036c21.89-11.41,124.716-53.692,144.565-64.035
	C367.005,543.791,371.745,539.835,371.907,536.279z M357.375,487.503C337.526,497.85,234.7,540.13,212.81,551.545
	c-21.892,11.41-34.053,11.299-51.346,3.031c-17.294-8.263-126.717-52.468-146.428-61.888c-9.849-4.706-14.878-8.68-15.032-12.425
	c0,0.075,0,33.857,0,37.601c0,3.754,5.18,7.721,15.032,12.432c19.71,9.42,129.133,53.624,146.428,61.887
	c17.293,8.268,29.455,8.379,51.346-3.031c21.89-11.415,124.716-53.692,144.565-64.04c10.102-5.266,14.564-9.344,14.564-13.06
	c0-3.488,0.009-37.067,0.009-37.067c-0.013-0.004-0.028-0.009-0.04-0.014C371.749,478.526,367.007,482.482,357.375,487.503z
	 M371.948,411.413c0,0-0.009,33.578-0.009,37.065c0,3.712-4.463,7.789-14.564,13.055c-19.849,10.346-122.675,52.628-144.565,64.043
	c-21.892,11.41-34.053,11.299-51.346,3.031c-17.294-8.263-126.717-52.469-146.428-61.888c-9.852-4.709-15.032-8.68-15.032-12.432
	c0-3.746,0-37.553,0-37.599c-0.154-3.749,4.582-7.271,14.271-11.063c19.361-7.583,128.185-50.276,151.186-58.528
	c22.998-8.251,30.976-8.549,50.547-1.377c19.573,7.169,121.785,47.85,141.126,54.937c9.96,3.647,14.947,6.968,14.773,10.741
	C371.92,411.403,371.935,411.408,371.948,411.413z M146.386,385.708l37.211,3.343l11.665,19.374l7.22-17.369l32.215-3.343
	l-24.994-9.354l6.639-15.892l-24.525,8.023l-25.991-10.172l8.331,15.37L146.386,385.708z M109.948,433.085
	c25.442,0,46.068-7.995,46.068-17.857c0-9.862-20.625-17.857-46.068-17.857c-25.441,0-46.066,7.995-46.066,17.857
	C63.881,425.09,84.507,433.085,109.948,433.085z M219.369,433.766l-86.192,13.231l60.166,24.948L219.369,433.766z M323.805,412.629
	l-51.004-20.173l-56.438,22.324l50.947,20.152l5.521-2.178L323.805,412.629z"/>
</svg>
