<?xml version="1.0" encoding="utf-8"?>
<!-- Generator: Adobe Illustrator 16.2.1, SVG Export Plug-In . SVG Version: 6.00 Build 0)  -->
<!DOCTYPE svg PUBLIC "-//W3C//DTD SVG 1.1//EN" "http://www.w3.org/Graphics/SVG/1.1/DTD/svg11.dtd">
<svg version="1.1" id="Layer_1" xmlns="http://www.w3.org/2000/svg" xmlns:xlink="http://www.w3.org/1999/xlink" x="0px" y="0px"
	 width="1000px" height="1000px" viewBox="0 0 1000 1000" enable-background="new 0 0 1000 1000" xml:space="preserve">
<path d="M161.242,449.216c0,14.66-12.043,27.747-27.749,27.747c-12.042,0-22.511,3.144-31.412,9.95
	c-9.946,6.286-17.803,15.182-24.081,25.13c-12.565,16.754-18.839,36.646-21.462,43.969v99.471c0,15.184-13.087,27.752-28.793,27.752
	C12.564,683.234,0,670.666,0,655.482V449.216c0-15.184,12.564-27.225,27.745-27.225c15.71,0,28.793,12.045,28.793,27.225v3.666
	c3.141-3.666,7.327-7.851,10.994-10.472c17.281-11.512,39.788-20.94,65.961-20.418C149.199,421.992,161.242,434.037,161.242,449.216
	z M145.868,552.349c0.526-71.198,56.02-130.879,127.738-130.879c68.058,0,121.981,50.781,126.17,121.455c0,0.526,0,1.574,0,2.615
	c0,1.048,0,3.663-0.522,4.712c-1.575,12.568-12.565,20.943-27.227,20.943H205.551c2.615,12.047,8.372,25.652,17.799,34.554
	c10.994,12.564,31.938,21.98,50.255,23.551c18.847,1.567,41.358-3.137,54.449-13.083c10.99-11.524,32.457-9.945,39.261-1.578
	c6.809,7.339,12.039,23.045,0,34.031c-25.656,23.555-56.542,34.553-93.714,34.553C201.888,682.709,146.395,623.548,145.868,552.349z
	 M202.933,526.696h148.155c-5.234-20.937-31.935-51.824-77.482-55.489C229.114,473.296,207.122,505.238,202.933,526.696z
	 M666.509,654.96c0,15.184-12.564,28.274-28.271,28.274c-14.14,0-25.13-9.945-27.749-22.515
	c-19.892,13.609-45.021,22.515-71.195,22.515c-70.676,0-127.218-59.683-127.218-130.355c0-71.728,56.542-131.409,127.218-131.409
	c25.651,0,50.781,8.373,70.15,21.984v-98.418c0-15.184,12.565-28.271,28.786-28.271c15.706,0,28.278,13.087,28.278,28.271v207.312
	c0,0,0,0,0,0.53V654.96L666.509,654.96z M539.294,478.534c-18.848,0-36.122,7.851-49.202,21.462
	c-13.091,13.091-20.948,31.931-20.948,52.874c0,19.896,7.853,38.739,20.948,51.83c13.08,13.613,30.354,21.467,49.202,21.467
	c19.369,0,36.128-7.854,49.215-21.467c13.079-13.087,20.936-31.934,20.936-51.83c0-20.943-7.849-39.783-20.936-52.874
	C575.422,486.385,558.663,478.534,539.294,478.534z M766.109,356.032c0,15.706-12.042,28.791-28.271,28.791
	c-15.706,0-28.271-13.085-28.271-28.791v-10.996c0-15.706,12.564-28.271,28.271-28.271c16.229,0,28.271,12.565,28.271,28.271
	V356.032z M766.109,450.789V654.96c0,15.706-12.042,28.274-28.271,28.274c-15.706,0-28.271-12.568-28.271-28.274V450.789
	c0-16.752,12.564-28.797,28.271-28.797C754.075,421.992,766.109,434.037,766.109,450.789z M802.104,608.364
	c9.424-12.558,27.748-14.132,39.261-4.186c13.609,11.524,37.173,23.555,57.587,23.036c14.139,0,27.227-4.707,35.605-9.945
	c7.327-6.282,9.416-11.513,9.416-15.706c0-2.615-0.522-3.659-1.567-5.238c-0.53-1.57-2.619-3.663-6.812-6.274
	c-7.326-5.238-23.032-11.002-41.88-14.662h-0.522c-16.236-3.137-31.942-7.33-45.544-13.617c-14.139-6.8-26.704-16.224-36.128-30.359
	c-5.752-9.424-8.894-20.937-8.894-32.979c0-24.083,13.609-44.501,30.883-57.59c18.325-12.563,40.313-19.37,64.398-19.37
	c36.12,0,61.772,17.278,78.53,28.791c12.565,8.379,16.229,25.656,8.371,38.737c-8.371,12.566-25.651,16.236-38.738,7.333
	c-16.751-10.99-31.412-19.372-48.163-19.372c-13.087,0-24.607,4.188-31.412,9.422c-6.805,4.716-8.371,9.428-8.371,12.045
	c0,2.091,0,2.617,1.044,4.186c0.522,1.044,2.089,3.137,5.761,5.234c6.812,4.707,20.414,9.423,38.217,12.564l0.522,0.53h0.529
	c17.273,3.133,33.501,7.849,48.686,15.176c14.131,6.282,28.271,16.229,37.172,30.886c6.282,10.468,9.946,22.511,9.946,34.554
	c0,25.651-14.132,47.118-32.987,60.728c-18.847,13.083-42.402,20.943-68.054,20.943c-40.836-0.521-72.248-19.369-93.185-36.119
	C794.246,637.688,792.68,619.885,802.104,608.364z"/>
</svg>
