<?xml version="1.0" encoding="utf-8"?>
<!-- Generator: Adobe Illustrator 16.2.1, SVG Export Plug-In . SVG Version: 6.00 Build 0)  -->
<!DOCTYPE svg PUBLIC "-//W3C//DTD SVG 1.1//EN" "http://www.w3.org/Graphics/SVG/1.1/DTD/svg11.dtd">
<svg version="1.1" id="Layer_1" xmlns="http://www.w3.org/2000/svg" xmlns:xlink="http://www.w3.org/1999/xlink" x="0px" y="0px"
	 width="1000px" height="1000px" viewBox="0 0 1000 1000" enable-background="new 0 0 1000 1000" xml:space="preserve">
<path fill="#010101" d="M13.833,585.897c18.295,9.37,46.407,18.741,75.412,18.741c31.234,0,47.746-12.938,47.746-32.572
	c0-18.742-14.281-29.451-50.424-42.393c-49.978-17.402-82.551-45.068-82.551-88.799c0-51.314,42.836-90.583,113.787-90.583
	c33.912,0,58.902,7.141,76.75,15.172l-15.173,54.886c-12.046-5.801-33.465-14.281-62.916-14.281
	c-29.451,0-43.732,13.388-43.732,29.005c0,19.188,16.958,27.668,55.78,42.393c53.099,19.633,78.087,47.299,78.087,89.688
	c0,50.424-38.822,93.264-121.372,93.264c-34.358,0-68.272-8.927-85.228-18.298L13.833,585.897z M417.22,650.602
	c-12.048,5.354-34.805,9.817-60.688,9.817c-70.501,0-115.571-42.84-115.571-111.559c0-63.808,43.731-116.015,124.942-116.015
	c17.849,0,37.483,3.122,51.763,8.479l-10.709,50.421c-8.032-3.568-20.081-6.692-37.93-6.692c-35.697,0-58.901,25.434-58.455,61.133
	c0,40.158,26.772,61.131,59.795,61.131c16.062,0,28.558-2.678,38.821-6.692L417.22,650.602z M580.54,655.955l-4.014-21.866h-1.338
	c-14.282,17.403-36.591,26.773-62.475,26.773c-44.175,0-70.501-32.126-70.501-66.931c0-56.674,50.868-83.893,128.063-83.445v-3.122
	c0-11.602-6.245-28.111-39.714-28.111c-22.308,0-45.959,7.585-60.237,16.509l-12.495-43.731
	c15.171-8.479,45.067-19.186,84.782-19.186c72.732,0,95.938,42.836,95.938,94.152v75.857c0,20.971,0.895,41.052,3.124,53.1H580.54z
	 M572.509,552.879c-35.696-0.447-63.363,8.031-63.363,34.357c0,17.402,11.6,25.88,26.772,25.88
	c16.957,0,30.792-11.153,35.252-24.987c0.892-3.568,1.339-7.586,1.339-11.603V552.879z M692.104,339.138h67.825v316.817h-67.825
	V339.138z M938.866,655.955l-4.013-21.866h-1.341c-14.28,17.403-36.591,26.773-62.473,26.773c-44.174,0-70.5-32.126-70.5-66.931
	c0-56.674,50.867-83.893,128.062-83.445v-3.122c0-11.602-6.245-28.111-39.714-28.111c-22.309,0-45.96,7.585-60.237,16.509
	l-12.496-43.731c15.171-8.479,45.068-19.186,84.782-19.186c72.733,0,95.938,42.836,95.938,94.152v75.857
	c0,20.971,0.894,41.052,3.124,53.1H938.866z M930.835,552.879c-35.695-0.447-63.363,8.031-63.363,34.357
	c0,17.402,11.6,25.88,26.773,25.88c16.956,0,30.789-11.153,35.252-24.987c0.892-3.568,1.338-7.586,1.338-11.603V552.879z"/>
</svg>
