<?xml version="1.0" encoding="utf-8"?>
<!-- Generator: Adobe Illustrator 16.2.1, SVG Export Plug-In . SVG Version: 6.00 Build 0)  -->
<!DOCTYPE svg PUBLIC "-//W3C//DTD SVG 1.1//EN" "http://www.w3.org/Graphics/SVG/1.1/DTD/svg11.dtd">
<svg version="1.1" id="Layer_1" xmlns="http://www.w3.org/2000/svg" xmlns:xlink="http://www.w3.org/1999/xlink" x="0px" y="0px"
	 width="1000px" height="1000px" viewBox="0 0 1000 1000" enable-background="new 0 0 1000 1000" xml:space="preserve">
<path d="M157.327,169.846c-2.201-2.22-3.423-5.165-3.423-8.3c0-3.145,1.222-6.1,3.423-8.328c4.361-4.423,12.214-4.45,16.609,0.01
	c2.201,2.218,3.419,5.173,3.419,8.318c0,6.5-5.259,11.779-11.729,11.779C162.49,173.325,159.535,172.086,157.327,169.846z
	 M240.362,182.464c11.494,0,20.851-9.388,20.851-20.918c0-5.604-2.164-10.854-6.081-14.78c-7.832-7.929-21.591-7.985-29.512-0.019
	c-3.925,3.955-6.088,9.204-6.088,14.798c0,5.554,2.153,10.806,6.098,14.809C229.575,180.29,234.817,182.464,240.362,182.464z
	 M166.139,91.201c2.982,0,5.405-2.43,5.405-5.421c0-1.438-0.563-2.793-1.594-3.82c-2.027-2.03-5.839-1.85-7.556-0.068
	c-1.068,1.021-1.658,2.403-1.658,3.889c0,1.449,0.563,2.811,1.583,3.841C163.347,90.639,164.702,91.201,166.139,91.201z
	 M165.084,259.374c12.654,0,22.943-10.351,22.943-23.071c0-6.175-2.389-11.959-6.716-16.287c-8.654-8.747-23.813-8.728-32.447-0.017
	c-4.344,4.354-6.736,10.139-6.736,16.304s2.392,11.949,6.726,16.285C153.181,256.961,158.945,259.374,165.084,259.374z
	 M313.843,15.444c2.972,0,5.385-2.42,5.385-5.402c0-1.459-0.553-2.812-1.573-3.832c-2.003-2-5.539-2.068-7.699,0.078
	c-0.983,1.027-1.515,2.361-1.515,3.754c0,1.438,0.56,2.792,1.515,3.744C310.973,14.854,312.354,15.444,313.843,15.444z
	 M308.212,190.458h10.862c0.287,0,0.58-0.029,0.856-0.096c13.381-2.954,23.08-15.075,23.08-28.816
	c0-7.892-3.058-15.314-8.614-20.897c-11.101-11.122-30.341-11.169-41.538,0.009c-5.535,5.574-8.586,12.997-8.586,20.888
	C284.272,175.297,293.985,187.409,308.212,190.458z M387.903,106.943c11.606,0,21.049-9.491,21.049-21.164
	c0-5.622-2.17-10.92-6.153-14.96c-4.003-3.993-9.292-6.194-14.896-6.194c-5.631,0-10.92,2.201-14.886,6.202
	c-3.972,3.993-6.153,9.301-6.153,14.952c0,5.67,2.181,10.977,6.136,14.942C376.955,104.733,382.241,106.943,387.903,106.943z
	 M313.631,101.339c8.539,0,15.486-6.984,15.486-15.56c0-4.145-1.61-8.042-4.518-10.977c-5.774-5.88-16.025-5.957-21.926-0.01
	c-2.915,2.935-4.515,6.842-4.515,10.986c0,4.174,1.611,8.08,4.515,10.987C305.581,99.711,309.478,101.339,313.631,101.339z
	 M240.362,94.193c4.621,0,8.385-3.774,8.385-8.414c0-2.211-0.867-4.316-2.457-5.957c-3.105-3.126-8.426-3.268-11.903,0.048
	c-1.542,1.611-2.399,3.708-2.399,5.909c0,2.241,0.866,4.346,2.467,5.966C236.056,93.327,238.151,94.193,240.362,94.193z
	 M165.084,341.791c15.93,0,28.881-12.56,29.492-28.741v-2.078c-0.611-16.027-13.562-28.577-29.492-28.577
	c-7.883,0-15.306,3.078-20.889,8.682c-5.566,5.604-8.634,13.063-8.634,21.011c0,7.948,3.068,15.408,8.624,20.984
	C149.758,338.692,157.184,341.791,165.084,341.791z M11.5,607.206c-1.505,1.45-2.334,3.413-2.334,5.546
	c0,2.061,0.802,4.003,2.239,5.453c1.45,1.484,3.402,2.304,5.508,2.304c4.259,0,7.729-3.487,7.729-7.757
	c0-2.116-0.812-4.078-2.231-5.467C19.475,604.329,14.189,604.442,11.5,607.206z M11.473,457.103
	c-1.488,1.457-2.307,3.421-2.307,5.535c0,2.079,0.839,4.088,2.239,5.443c1.457,1.495,3.413,2.324,5.508,2.324
	c4.259,0,7.729-3.487,7.729-7.767c0-2.105-0.812-4.068-2.249-5.498C19.41,454.147,14.285,454.253,11.473,457.103z M11.415,531.774
	c-1.447,1.467-2.249,3.43-2.249,5.508c0,2.058,0.802,4.003,2.239,5.45c1.45,1.487,3.402,2.307,5.508,2.307
	c4.259,0,7.729-3.488,7.729-7.757c0-2.078-0.792-4.023-2.238-5.508C19.468,528.818,14.274,528.856,11.415,531.774z M91.078,166.634
	c2.822,0,5.109-2.287,5.109-5.088c0-1.097-0.782-2.974-1.573-3.727c-0.744-0.694-2.515-1.4-3.536-1.4
	c-1.058,0-2.877,0.733-3.631,1.478c-0.744,0.752-1.495,2.592-1.495,3.649c0,1.104,0.792,2.943,1.59,3.698
	C88.287,165.94,90.068,166.634,91.078,166.634z M11.435,381.661c-1.46,1.467-2.27,3.421-2.27,5.487c0,2.068,0.802,4.013,2.249,5.491
	c1.457,1.467,3.413,2.276,5.498,2.276c4.259,0,7.729-3.487,7.729-7.767c0-2.066-0.792-4.001-2.249-5.487
	C19.438,378.736,14.332,378.763,11.435,381.661z M91.078,833.24c-1.105,0-2.962,0.799-3.716,1.601
	c-0.696,0.74-1.409,2.515-1.409,3.524c0,1.048,0.75,2.877,1.505,3.621c0.744,0.744,2.563,1.505,3.621,1.505
	c2.822,0,5.109-2.307,5.109-5.126c0-1.105-0.782-2.955-1.583-3.699C93.87,833.963,92.088,833.24,91.078,833.24z M13.083,684.144
	c-0.993,1.051-1.498,2.29-1.498,3.699c0,1.542,0.669,2.993,1.498,3.658c0.99,1.051,2.352,1.621,3.829,1.621
	c2.935,0,5.317-2.365,5.317-5.279c0-0.973-0.256-2.402-1.41-3.621C18.837,682.011,15.141,681.993,13.083,684.144z M90.45,246.441
	c5.556,0,10.081-4.545,10.081-10.139c0-2.706-1.038-5.25-2.973-7.195c-3.887-3.829-10.473-3.781-14.265,0.02
	c-1.907,1.915-2.965,4.469-2.965,7.175c0,2.677,1.051,5.223,2.956,7.156C85.188,245.384,87.734,246.441,90.45,246.441z
	 M90.45,328.307c8.9,0,16.131-7.281,16.131-16.219c0-4.336-1.675-8.405-4.726-11.483c-6.088-6.125-16.626-6.165-22.861,0.01
	c-3.03,3.049-4.696,7.129-4.696,11.473c0,4.336,1.666,8.405,4.727,11.483C82.103,326.619,86.161,328.307,90.45,328.307z
	 M90.45,407.685c11.262,0,20.421-9.214,20.421-20.537c0-5.477-2.126-10.633-5.975-14.512c-7.747-7.803-21.24-7.775-28.912,0
	c-3.86,3.879-5.986,9.035-5.986,14.512c0,5.481,2.126,10.635,5.976,14.495C79.823,405.54,84.959,407.685,90.45,407.685z
	 M16.912,317.425c2.935,0,5.317-2.392,5.317-5.337c0-1.43-0.553-2.772-1.553-3.783c-1.972-1.944-5.344-2.06-7.518,0
	c-1.021,1.01-1.573,2.353-1.573,3.783c0,1.44,0.601,2.839,1.498,3.679C14.1,316.833,15.455,317.425,16.912,317.425z M537.311,20.181
	c2.716,0,5.262-1.058,7.166-2.982c1.897-1.915,2.945-4.46,2.945-7.156c0-2.716-1.048-5.261-2.936-7.147
	c-3.812-3.868-10.596-3.82-14.274-0.048c-1.935,1.896-2.993,4.452-2.993,7.195C527.219,15.635,531.747,20.181,537.311,20.181z
	 M909.56,407.685c5.478,0,10.613-2.145,14.456-6.023c3.85-3.86,5.976-9.015,5.976-14.514c0-5.498-2.126-10.652-5.965-14.501
	c-7.709-7.786-21.203-7.776-28.933-0.011c-3.85,3.868-5.965,9.025-5.965,14.512C889.129,398.471,898.295,407.685,909.56,407.685z
	 M833.852,91.201c1.389,0,2.713-0.542,3.887-1.657c0.973-1.019,1.516-2.363,1.516-3.765c0-1.438-0.563-2.793-1.584-3.82
	c-2.058-2.041-5.839-1.887-7.545-0.068c-1.068,1.021-1.658,2.403-1.658,3.889C828.467,88.771,830.876,91.201,833.852,91.201z
	 M834.363,173.325c3.126,0,6.071-1.23,8.293-3.46c2.218-2.229,3.439-5.173,3.439-8.318c0-3.155-1.222-6.108-3.433-8.318
	c-4.402-4.46-12.197-4.46-16.6,0c-2.211,2.239-3.419,5.184-3.419,8.318C822.645,168.045,827.903,173.325,834.363,173.325z
	 M834.916,341.791c7.89,0,15.306-3.099,20.898-8.719c5.573-5.614,8.645-13.065,8.645-20.984s-3.071-15.37-8.654-21.021
	c-5.604-5.593-13.016-8.671-20.889-8.671c-15.95,0-28.901,12.558-29.471,28.73v2.068
	C806.015,329.231,818.966,341.791,834.916,341.791z M834.916,259.374c6.129,0,11.903-2.413,16.23-6.777
	c4.334-4.354,6.716-10.139,6.716-16.293c0-6.156-2.382-11.941-6.709-16.287c-8.679-8.757-23.82-8.736-32.484,0
	c-4.324,4.356-6.706,10.139-6.706,16.287C811.963,249.023,822.263,259.374,834.916,259.374z M387.903,17.999
	c4.375,0,7.938-3.575,7.938-7.957c0-2.116-0.819-4.109-2.324-5.641c-3.003-2.982-8.272-2.982-11.255,0.038
	c-1.478,1.515-2.286,3.498-2.286,5.604c0,2.085,0.809,4.068,2.313,5.641C383.787,17.178,385.777,17.999,387.903,17.999z
	 M983.095,394.915c2.099,0,4.051-0.819,5.46-2.259c1.468-1.476,2.28-3.43,2.28-5.508c0-2.085-0.819-4.039-2.239-5.45
	c-2.907-2.973-8.122-2.945-11.016-0.019c-1.44,1.467-2.242,3.411-2.242,5.468C975.338,391.428,978.818,394.915,983.095,394.915z
	 M983.095,317.425c1.45,0,2.802-0.592,3.757-1.583c1-1.01,1.553-2.345,1.553-3.754c0-1.382-0.525-2.696-1.641-3.85
	c-1.979-1.877-5.144-2.097-7.583,0.229c-0.915,1.01-1.413,2.296-1.413,3.621C977.768,315.033,980.16,317.425,983.095,317.425z
	 M759.627,94.193c2.249,0,4.423-0.915,5.918-2.457c1.58-1.583,2.45-3.699,2.45-5.957c0-2.22-0.86-4.325-2.44-5.936
	c-3.088-3.126-8.538-3.288-11.913,0.048c-1.542,1.611-2.393,3.706-2.393,5.888C751.249,90.419,755.007,94.193,759.627,94.193z
	 M909.56,246.441c2.717,0,5.259-1.058,7.156-2.991c1.897-1.925,2.945-4.471,2.945-7.147c0-2.706-1.058-5.261-2.955-7.158
	c-3.812-3.858-10.395-3.906-14.333,0.021c-1.877,1.925-2.904,4.46-2.904,7.138C899.469,241.896,903.994,246.441,909.56,246.441z
	 M908.922,166.634c1.372,0,2.648-0.524,3.686-1.571c0.696-0.734,1.43-2.507,1.43-3.517c0-1.534-0.648-2.945-1.42-3.554
	c-0.75-0.802-2.59-1.573-3.695-1.573c-1.413,0-2.765,0.573-3.519,1.392c-0.799,0.752-1.601,2.629-1.601,3.735
	C903.803,164.348,906.1,166.634,908.922,166.634z M909.56,328.307c4.297,0,8.357-1.688,11.436-4.764
	c3.038-3.07,4.717-7.138,4.717-11.455c0-4.336-1.679-8.405-4.727-11.492c-6.129-6.109-16.678-6.127-22.861,0.019
	c-3.04,3.068-4.716,7.137-4.716,11.473C893.408,321.025,900.649,328.307,909.56,328.307z M83.273,756.433
	c-1.894,1.945-2.945,4.48-2.945,7.149c0,2.744,1.058,5.275,2.935,7.125c1.907,1.966,4.46,3.031,7.187,3.031
	c5.556,0,10.081-4.553,10.081-10.156c0-2.669-1.038-5.204-2.935-7.149C93.747,752.546,86.979,752.662,83.273,756.433z
	 M759.627,182.464c5.583,0,10.825-2.174,14.75-6.129c3.928-3.973,6.091-9.225,6.091-14.789c0-5.604-2.163-10.854-6.081-14.78
	c-7.832-7.946-21.649-7.957-29.481-0.029c-3.944,3.935-6.118,9.197-6.118,14.809C738.787,173.076,748.134,182.464,759.627,182.464z
	 M462.669,20.181c5.573,0,10.112-4.545,10.112-10.139c0-2.754-1.068-5.308-2.935-7.129c-3.737-3.859-10.483-3.887-14.295-0.056
	c-1.925,1.906-2.982,4.458-2.982,7.185c0,2.706,1.058,5.259,2.962,7.175C457.448,19.123,459.98,20.181,462.669,20.181z
	 M612.087,106.943c5.651,0,10.94-2.201,14.903-6.203c3.976-3.993,6.156-9.311,6.156-14.961c0-5.643-2.181-10.949-6.156-14.952
	c-7.966-7.994-21.813-8.023-29.799,0.01c-3.973,4.003-6.153,9.31-6.153,14.942C591.038,97.452,600.48,106.943,612.087,106.943z
	 M462.669,111.042c13.845,0,25.117-11.33,25.117-25.262c0-6.755-2.61-13.083-7.344-17.818c-9.483-9.559-26.024-9.606-35.535-0.011
	c-4.737,4.764-7.348,11.091-7.348,17.829c0,6.738,2.601,13.074,7.348,17.867C449.681,108.41,455.988,111.042,462.669,111.042z
	 M537.311,111.042c6.719,0,13.025-2.631,17.793-7.414c4.733-4.774,7.337-11.11,7.337-17.848c0-6.738-2.61-13.065-7.337-17.818
	c-9.494-9.559-26.056-9.606-35.562-0.011c-4.727,4.774-7.338,11.102-7.338,17.829C512.203,99.711,523.465,111.042,537.311,111.042z
	 M612.087,17.999c2.085,0,4.067-0.811,5.668-2.374c1.468-1.523,2.28-3.506,2.28-5.583c0-2.097-0.812-4.088-2.345-5.651
	c-2.993-2.972-8.197-2.982-11.207,0.027c-1.495,1.515-2.317,3.508-2.317,5.624C604.166,14.424,607.723,17.999,612.087,17.999z
	 M686.358,101.339c4.164,0,8.061-1.628,10.958-4.554c2.925-2.935,4.535-6.84,4.535-11.006c0-4.145-1.61-8.042-4.535-10.997
	c-5.853-5.888-16.056-5.898-21.926,0.011c-2.918,2.935-4.519,6.842-4.519,10.986C670.872,94.355,677.82,101.339,686.358,101.339z
	 M686.157,15.444c1.495,0,2.877-0.591,3.754-1.516c1.058-1,1.659-2.419,1.659-3.887c0-1.449-0.563-2.802-1.584-3.832
	c-1.017-1.01-2.382-1.572-3.829-1.572c-1.487,0-2.859,0.582-3.802,1.572c-1.02,1.03-1.583,2.383-1.583,3.832
	C680.772,13.024,683.186,15.444,686.157,15.444z M680.943,190.458h10.835c0.286,0,0.583-0.029,0.859-0.096
	c13.367-2.954,23.08-15.075,23.08-28.816c0-7.9-3.052-15.314-8.587-20.907c-11.139-11.13-30.361-11.149-41.559,0.019
	c-5.524,5.574-8.575,12.988-8.575,20.888C656.997,175.287,666.709,187.409,680.943,190.458z M455.513,982.695
	c-1.897,1.941-2.945,4.477-2.945,7.184c0,2.668,1.048,5.203,2.993,7.187c1.925,1.887,4.45,2.935,7.108,2.935
	c5.573,0,10.112-4.535,10.112-10.121c0-2.724-1.058-5.276-2.966-7.184C466.062,978.883,459.496,978.808,455.513,982.695z
	 M826.054,830.056c-2.201,2.229-3.409,5.185-3.409,8.31c0,6.498,5.259,11.798,11.719,11.798c3.194,0,6.156-1.259,8.262-3.471
	c2.239-2.19,3.471-5.143,3.471-8.327c0-3.146-1.222-6.098-3.45-8.347C838.223,825.596,830.534,825.559,826.054,830.056z
	 M830.125,910.235c-1.058,0.989-1.658,2.402-1.658,3.87c0,2.989,2.409,5.429,5.385,5.429c1.58,0,3.058-0.686,3.809-1.621
	c1.03-1.026,1.594-2.382,1.594-3.808c0-1.413-0.584-2.803-1.584-3.812C835.585,908.252,831.869,908.386,830.125,910.235z
	 M834.916,658.133c-15.95,0-28.901,12.559-29.471,28.721v2.074c0.569,16.012,13.521,28.55,29.471,28.55
	c7.931,0,15.354-3.085,20.889-8.688c5.583-5.586,8.654-13.036,8.654-20.946c0-7.928-3.071-15.397-8.645-20.984
	C850.238,661.238,842.816,658.133,834.916,658.133z M769.5,732.152l-9.118-1.751c-0.499-0.116-1.011-0.116-1.509,0l-9.623,1.887
	c-8.604,2.856-15.705,9.279-19.496,17.646c-0.144,0.324-0.25,0.666-0.305,1.027l-1.859,12.009c-0.068,0.399-0.068,0.819,0,1.219
	l1.859,12.047c0.055,0.361,0.161,0.702,0.305,1.03c5.316,11.756,17.039,19.343,29.873,19.343c8.784,0,17.039-3.45,23.223-9.702
	c6.205-6.211,9.613-14.504,9.613-23.325C792.463,749.382,783.44,736.803,769.5,732.152z M818.662,747.287
	c-4.317,4.382-6.699,10.176-6.699,16.295c0,12.729,10.3,23.079,22.953,23.079c6.146,0,11.913-2.402,16.23-6.767
	c4.324-4.345,6.716-10.139,6.716-16.312c0-6.14-2.382-11.931-6.716-16.315C842.444,738.558,827.381,738.574,818.662,747.287z
	 M675.381,903.127c-2.908,2.951-4.509,6.842-4.509,10.979c0,8.575,6.948,15.568,15.486,15.568c4.174,0,8.071-1.618,10.976-4.594
	c2.918-2.952,4.518-6.859,4.518-10.975c0-4.119-1.6-8.027-4.535-11.017C691.484,897.257,681.25,897.22,675.381,903.127z
	 M790.437,497.716l-2.525,2.249l2.494,2.201c4.231,3.802,7.683,8.167,10.266,13.02l2.19,4.115l2.744-3.736
	c4.307-5.887,10.224-10.32,17.135-12.818l11.377-2.371c0.533-0.096,1.065-0.096,1.601,0l10.814,2.211
	c15.057,5.338,24.807,19.199,24.807,34.696c0,17.704-12.568,32.836-29.895,36.02l-12.35,0.059
	c-9.836-1.737-17.924-6.805-23.479-14.351l-2.764-3.757l-2.181,4.099c-0.908,1.393-7.177,10.613-12.122,14.562l-2.832,2.266
	l2.764,2.365c5.174,4.402,9.33,10.006,12.037,16.237l2.275,5.2l2.908-4.859c4.992-8.347,13.274-14.159,22.728-15.971l12.224-0.075
	c16.735,3.184,28.332,17.306,28.332,33.676c0,9.166-3.546,17.763-9.969,24.205c-6.46,6.48-15.019,10.044-24.1,10.044
	c-12.053,0-22.974-6.215-29.205-16.62l-2.918-4.859l-2.275,5.222c-3.584,8.197-9.443,15.057-16.954,19.861l-3.631,2.324l3.487,2.61
	c9.921,7.395,15.801,18.752,16.146,31.16v2.133c-0.479,17.671-12.569,33.144-29.4,37.774l-9.92,1.562
	c-0.416,0.079-0.819,0.079-1.239,0l-9.479-1.484c-8.177-2.211-15.036-6.597-20.288-12.79l-2.478-2.914l-2.153,3.163
	c-3.468,5.067-7.832,9.357-12.968,12.749l-3.471,2.27l3.231,2.553c5.887,4.689,10.357,10.9,12.931,18.012l2.535,13.111
	c0.085,0.495,0.085,0.99,0,1.488l-2.364,12.537c-5.174,14.446-17.258,24.489-31.714,26.816l-12.224,0.055
	c-11.351-1.733-21.097-7.906-27.38-16.961l-2.494-3.62l-2.365,3.716c-4.859,7.604-12.111,13.609-20.421,16.924l-9.289,2.419
	l8.316,2.71c11.378,6.061,18.039,17.227,18.039,29.443c0,8.825-3.409,17.115-9.613,23.346c-6.184,6.27-14.445,9.723-23.271,9.723
	c-16.114,0-30.093-12.084-32.516-28.092l-0.048-9.357c1.594-10.825,7.969-19.879,17.077-24.775l9.006-2.977l-8.825-2.286
	c-7.326-2.877-13.415-7.357-18.083-13.111l-2.375-2.955l-2.239,3.067c-3.887,5.204-8.879,9.586-14.455,12.732l-3.973,2.249
	l3.668,2.761c7.859,5.891,13.132,14.869,14.456,24.646l0.038,9.527c-2.509,18.773-18.183,32.532-36.508,32.532
	c-15.381,0-29.264-9.776-34.563-24.317l-1.696-12.197c-0.048-0.345-0.048-0.686,0-1.03l1.498-11.357
	c2.648-7.565,6.993-13.418,12.771-17.804l3.675-2.761l-3.982-2.249c-4.869-2.743-9.166-6.326-12.77-10.633l-2.246-2.71l-2.249,2.71
	c-3.583,4.307-7.873,7.869-12.743,10.633l-4.003,2.267l3.669,2.743c5.777,4.368,10.132,10.218,12.589,16.947l1.679,12.214
	c0.048,0.345,0.048,0.686,0,1.03l-1.478,11.357c-5.518,15.4-19.421,25.157-34.792,25.157c-18.315,0-33.982-13.759-36.439-32
	l-0.038-9.527c1.361-10.31,6.641-19.306,14.51-25.179l3.662-2.743l-4.013-2.267c-5.604-3.163-10.596-7.565-14.418-12.712
	l-2.256-3.088l-2.385,2.935c-4.668,5.774-10.757,10.255-17.589,12.979l-9.292,2.419l8.31,2.71
	c9.777,5.163,16.142,14.217,17.688,24.469l0.047,9.357c-2.44,16.602-16.411,28.686-32.553,28.686
	c-8.825,0-17.087-3.453-23.281-9.723c-6.201-6.248-9.613-14.541-9.613-23.346c0-12.217,6.672-23.383,17.401-29.156l8.996-2.977
	l-8.825-2.286c-8.804-3.468-16.056-9.474-20.898-17.077l-2.372-3.716l-2.487,3.601c-6.279,9.074-16.026,15.247-26.765,16.926
	l-12.217,0.055c-15.057-2.382-27.141-12.404-32.17-26.26l-2.546-13.148c-0.085-0.498-0.085-0.993,0-1.488l2.372-12.504
	c2.747-7.719,7.214-13.95,13.094-18.619l3.242-2.553l-3.46-2.27c-5.156-3.392-9.521-7.682-12.968-12.77l-2.164-3.143l-2.471,2.914
	c-5.249,6.193-12.111,10.579-19.857,12.712l-9.928,1.562c-0.419,0.079-0.822,0.079-1.238,0l-9.484-1.484
	c-17.257-4.709-29.348-20.182-29.836-37.736v-2.136c0.345-12.521,6.235-23.879,16.172-31.294l3.46-2.59l-3.642-2.324
	c-7.5-4.805-13.35-11.685-16.923-19.861l-2.279-5.222l-2.915,4.859c-6.242,10.405-17.162,16.62-29.215,16.62
	c-9.102,0-17.65-3.563-24.1-10.064c-6.416-6.401-9.958-14.998-9.958-24.185c0-16.37,11.585-30.492,27.557-33.601l12.244-0.075
	c10.187,1.887,18.469,7.699,23.462,16.046l2.925,4.859l2.279-5.2c2.686-6.231,6.849-11.855,12.043-16.237l2.754-2.365l-2.85-2.286
	c-4.944-3.907-11.203-13.148-11.899-14.2l-2.393-4.439l-2.754,3.757c-5.556,7.546-13.657,12.613-22.796,14.292l-12.34,0.059
	c-18.029-3.242-30.587-18.374-30.587-36.078c0-15.497,9.75-29.358,24.243-34.544l11.368-2.363c0.532-0.096,1.068-0.096,1.6,0
	l10.825,2.211c7.453,2.648,13.381,7.078,17.698,12.999l2.733,3.716l2.19-4.115c2.546-4.815,5.996-9.187,10.245-12.99l2.525-2.23
	l-2.516-2.239c-4.231-3.774-7.682-8.158-10.255-13.018l-2.19-4.088l-2.744,3.735c-4.348,5.928-10.282,10.349-17.151,12.78
	l-11.34,2.409c-0.553,0.116-1.088,0.116-1.641,0l-10.825-2.268c-15.015-5.298-24.765-19.153-24.765-34.64
	c0-17.713,12.569-32.856,29.874-36l12.34-0.068c9.863,1.727,17.964,6.795,23.509,14.343l2.744,3.735l2.19-4.107
	c3.051-5.688,7.129-10.587,12.132-14.57l2.812-2.249l-2.765-2.353c-5.184-4.441-9.33-10.053-12.016-16.239l-2.279-5.223l-2.915,4.88
	c-4.993,8.32-13.275,14.142-22.718,15.96l-12.234,0.077c-16.725-3.145-28.321-17.276-28.321-33.677
	c0-9.166,3.542-17.771,9.965-24.202c6.405-6.47,14.971-10.043,24.093-10.043c12.07,0,22.991,6.211,29.215,16.626l2.915,4.87
	l2.279-5.211c3.536-8.177,9.385-15.056,16.913-19.889l3.641-2.334l-3.45-2.573c-9.938-7.395-15.828-18.763-16.172-31.179v-2.162
	c0.488-17.669,12.579-33.133,29.41-37.727l9.9-1.611c0.42-0.058,0.84-0.058,1.256,0l9.501,1.515
	c8.187,2.21,15.056,6.593,20.277,12.777l2.471,2.908l2.171-3.184c3.433-5.049,7.805-9.337,12.971-12.72l3.45-2.268l-3.231-2.552
	c-5.907-4.727-10.378-10.941-12.93-17.975l-2.679-11.681l-2.478,10.692c-4.03,9.07-11.139,15.503-19.752,18.38l-9.644,1.897
	c-0.249,0.048-0.499,0.075-0.754,0.075s-0.505-0.027-0.754-0.075l-9.108-1.763c-13.951-4.632-22.974-17.209-22.974-31.437
	c0-8.775,3.419-17.058,9.624-23.318c6.204-6.25,14.446-9.69,23.212-9.69c12.818,0,24.547,7.593,29.895,19.343l2.723,11.446
	l2.546-11.188c5.157-14.342,17.248-24.385,31.683-26.691l12.228-0.048c11.377,1.783,21.127,7.958,27.375,16.981l2.509,3.612
	l2.361-3.698c4.832-7.613,12.084-13.637,20.431-16.943l9.548-2.362l-8.586-2.754c-11.395-6.061-18.066-17.239-18.066-29.446
	c0-8.814,3.413-17.124,9.613-23.385c6.225-6.252,14.486-9.691,23.281-9.691c16.135,0,30.113,12.063,32.505,28.065l0.047,9.405
	c-1.583,10.833-7.958,19.868-17.077,24.765l-9.425,3.097l9.214,2.134c7.385,2.877,13.476,7.366,18.134,13.159l2.382,2.945
	l2.242-3.049c3.792-5.175,8.784-9.605,14.425-12.797l4.003-2.249l-3.658-2.745c-7.873-5.907-13.142-14.876-14.466-24.622
	l-0.038-9.549c2.495-18.762,18.162-32.505,36.477-32.505c15.391,0,29.284,9.758,34.59,24.291l2.737,10.615l2.638-10.243
	c5.392-14.905,19.288-24.663,34.676-24.663c18.325,0,33.999,13.743,36.47,31.971l0.038,9.548
	c-1.362,10.272-6.635,19.249-14.494,25.156l-3.661,2.754l3.976,2.24c5.604,3.164,10.596,7.584,14.436,12.797l2.249,3.039
	l2.375-2.935c4.647-5.784,10.746-10.282,17.626-12.997l9.531-2.353l-8.586-2.754c-9.787-5.204-16.152-14.237-17.698-24.453
	l-0.048-9.414c2.471-16.592,16.449-28.655,32.563-28.655c8.794,0,17.056,3.439,23.271,9.682c6.204,6.241,9.613,14.551,9.613,23.395
	c0,12.207-6.661,23.385-17.381,29.159l-9.442,3.097l9.225,2.134c8.853,3.478,16.104,9.501,20.953,17.125l2.354,3.696l2.505-3.621
	c6.263-9.023,16.009-15.198,26.741-16.933l12.234-0.048c15.094,2.354,27.178,12.408,32.171,26.273L727,234.091l2.504-10.71
	c5.566-12.494,17.295-20.087,30.123-20.087c8.747,0,16.992,3.44,23.223,9.682c6.205,6.269,9.613,14.552,9.613,23.327
	c0,14.227-9.022,26.804-22.447,31.302l-9.634,1.897c-0.249,0.048-0.499,0.075-0.755,0.075s-0.505-0.027-0.754-0.075l-9.118-1.763
	c-9.129-3.011-16.228-9.444-20.001-17.762l-2.744-11.473l-2.535,11.226c-2.696,7.508-7.167,13.722-13.064,18.438l-3.241,2.573
	l3.46,2.268c5.146,3.383,9.511,7.661,12.979,12.73l2.163,3.164l2.478-2.906c5.211-6.175,12.084-10.559,19.848-12.673l9.903-1.611
	c0.417-0.058,0.837-0.058,1.256,0l9.484,1.515c17.257,4.689,29.348,20.153,29.826,37.716v2.164
	c-0.345,12.521-6.235,23.888-16.152,31.283l-3.471,2.583l3.631,2.324c7.528,4.833,13.388,11.712,16.944,19.889l2.275,5.203
	l2.908-4.861c6.221-10.415,17.142-16.626,29.215-16.626c9.111,0,17.667,3.562,24.11,10.043c6.422,6.46,9.958,15.057,9.958,24.202
	c0,16.391-11.597,30.533-27.577,33.601l-12.228,0.077c-10.214-1.896-18.496-7.717-23.479-16.037l-2.908-4.87l-2.275,5.213
	c-2.696,6.194-6.863,11.806-12.026,16.229l-2.765,2.363l2.822,2.249c5.01,4.001,9.081,8.9,12.122,14.57l2.181,4.107l2.754-3.745
	c5.556-7.538,13.646-12.606,22.775-14.265l12.351-0.068c18.039,3.211,30.607,18.355,30.607,36.068
	c0,15.486-9.76,29.352-24.271,34.498l-11.333,2.409c-0.553,0.116-1.085,0.116-1.639,0l-10.824-2.268
	c-7.396-2.592-13.323-7.004-17.667-12.922l-2.754-3.735l-2.181,4.097C798.057,489.598,794.617,493.971,790.437,497.716z
	 M481.002,193.954l3.976,2.24c4.897,2.754,9.194,6.346,12.777,10.683l2.242,2.686l2.246-2.696c3.583-4.327,7.883-7.919,12.78-10.673
	l3.966-2.24l-3.662-2.754c-5.784-4.354-10.129-10.214-12.579-16.951l-2.75-10.598l-2.621,10.226
	c-2.573,7.117-6.928,12.989-12.705,17.323L481.002,193.954z M744.353,328.468c-7.156,0-137.831,0-137.831,0L502.624,507.787
	L398.717,328.468c0,0-130.655,0-137.818,0c-7.177,0-10.245,6.175-3.088,15.447c7.184,9.301,244.813,387.496,244.813,387.496
	s237.641-378.194,244.813-387.496C754.604,334.644,751.536,328.468,744.353,328.468z M682.649,986.07
	c-1.304,1.313-1.58,2.798-1.58,3.809c0,2.992,2.419,5.433,5.392,5.433c1.877,0,3.078-0.973,4.003-1.771
	c0.925-1.068,1.399-2.307,1.399-3.661c0-1.485-0.59-2.857-1.59-3.809C688.205,984.029,684.547,984.146,682.649,986.07z
	 M753.672,908.194c-1.562,1.604-2.423,3.699-2.423,5.911c0,4.631,3.758,8.401,8.378,8.401c2.249,0,4.423-0.915,5.918-2.457
	c1.58-1.583,2.45-3.699,2.45-5.944c0-2.253-0.87-4.365-2.471-5.966C762.392,905.051,757.112,904.897,753.672,908.194z
	 M744.896,823.596c-3.945,3.945-6.108,9.204-6.108,14.77c0,11.549,9.347,20.947,20.84,20.947c5.594,0,10.825-2.174,14.743-6.14
	c3.935-3.944,6.098-9.204,6.098-14.808c0-5.582-2.163-10.824-6.091-14.77C766.497,815.648,752.812,815.61,744.896,823.596z
	 M78.994,676.349c-3.03,3.071-4.696,7.149-4.696,11.494c0,4.344,1.676,8.405,4.706,11.415c3.051,3.068,7.119,4.768,11.446,4.768
	c8.9,0,16.131-7.262,16.131-16.183c0-4.327-1.675-8.405-4.726-11.511C95.729,670.233,85.256,670.158,78.994,676.349z
	 M977.635,607.227c-1.475,1.447-2.297,3.409-2.297,5.525c0,4.27,3.48,7.757,7.757,7.757c2.116,0,4.071-0.819,5.46-2.267
	c1.468-1.467,2.28-3.43,2.28-5.49c0-2.153-0.84-4.115-2.232-5.43C985.726,604.309,980.398,604.404,977.635,607.227z M908.922,833.24
	c-1.413,0-2.727,0.569-3.614,1.505c-0.74,0.743-1.505,2.573-1.505,3.62c0,2.819,2.297,5.126,5.119,5.126
	c1.409,0,2.724-0.569,3.439-1.352c0.847-0.765,1.676-2.631,1.676-3.774c0-1.352-0.532-2.647-1.42-3.524
	C911.867,834.039,910.018,833.24,908.922,833.24z M977.617,457.122c-1.467,1.458-2.279,3.411-2.279,5.516
	c0,4.28,3.48,7.767,7.757,7.767c2.068,0,4.078-0.856,5.405-2.239c1.484-1.419,2.335-3.44,2.335-5.528c0-2.133-0.83-4.095-2.239-5.46
	C985.698,454.216,980.437,454.274,977.617,457.122z M977.569,531.791c-1.439,1.488-2.231,3.434-2.231,5.491
	c0,4.269,3.48,7.757,7.757,7.757c2.116,0,4.071-0.819,5.46-2.27c1.468-1.468,2.28-3.43,2.28-5.487c0-2.099-0.812-4.062-2.232-5.471
	C985.726,528.802,980.467,528.818,977.569,531.791z M892.559,445.534c-4.562,4.546-7.071,10.625-7.071,17.104
	c0,13.333,10.798,24.185,24.072,24.185c6.461,0,12.511-2.534,17.009-7.098c4.546-4.535,7.051-10.606,7.051-17.087
	c0-6.498-2.505-12.568-7.03-17.083C917.478,436.368,901.633,436.387,892.559,445.534z M979.102,684.317
	c-0.324,0.379-1.334,1.563-1.334,3.525c0,2.914,2.393,5.279,5.327,5.279c1.468,0,2.832-0.57,3.583-1.393
	c0.85-0.74,1.727-2.743,1.727-3.887c0-1.352-0.478-2.573-1.487-3.699C984.88,682.011,981.446,681.857,979.102,684.317z
	 M902.346,756.47c-1.859,1.945-2.877,4.461-2.877,7.112c0,5.604,4.525,10.156,10.091,10.156c2.734,0,5.279-1.086,7.108-2.973
	c1.936-1.908,2.993-4.439,2.993-7.184c0-2.669-1.048-5.204-2.928-7.112C913.017,752.583,906.232,752.566,902.346,756.47z
	 M898.124,676.349c-3.04,3.089-4.716,7.167-4.716,11.494c0,8.921,7.241,16.183,16.151,16.183c4.334,0,8.405-1.699,11.416-4.747
	c3.051-3.051,4.736-7.108,4.736-11.436s-1.679-8.405-4.736-11.511C914.85,670.192,904.339,670.158,898.124,676.349z
	 M895.094,598.248c-3.85,3.87-5.965,9.017-5.965,14.504c0,11.323,9.166,20.526,20.431,20.526c5.471,0,10.606-2.133,14.456-6.003
	c3.85-3.869,5.976-9.033,5.976-14.523c0-5.487-2.126-10.654-5.976-14.504C916.259,590.434,902.871,590.434,895.094,598.248z
	 M892.541,520.147c-4.545,4.614-7.054,10.691-7.054,17.135c0,13.34,10.798,24.185,24.072,24.185c6.461,0,12.511-2.535,17.019-7.108
	c4.546-4.556,7.041-10.616,7.041-17.076s-2.495-12.541-7.061-17.155C917.382,511.009,901.718,511.029,892.541,520.147z
	 M691.778,809.454l-11.692,0.096c-13.377,2.955-23.089,15.077-23.089,28.815c0,16.275,13.169,29.523,29.361,29.523
	c7.85,0,15.234-3.089,20.763-8.672c5.545-5.508,8.597-12.924,8.597-20.852C715.718,824.627,706.005,812.505,691.778,809.454z
	 M157.327,830.039c-2.211,2.229-3.423,5.18-3.423,8.326c0,3.164,1.229,6.119,3.365,8.231c2.181,2.308,5.153,3.566,8.357,3.566
	c6.47,0,11.729-5.3,11.729-11.798c0-3.146-1.211-6.098-3.439-8.347C169.493,825.596,161.767,825.637,157.327,830.039z
	 M148.864,747.287c-4.344,4.364-6.736,10.139-6.736,16.295c0,6.193,2.399,11.985,6.716,16.292
	c4.327,4.368,10.091,6.787,16.241,6.787c12.654,0,22.943-10.351,22.943-23.079c0-6.156-2.389-11.951-6.726-16.315
	C172.629,738.615,157.535,738.595,148.864,747.287z M165.084,658.133c-7.911,0-15.333,3.105-20.889,8.709
	c-5.566,5.562-8.634,13.036-8.634,21.001c0,7.948,3.068,15.397,8.624,20.946c5.536,5.604,12.958,8.688,20.899,8.688
	c15.93,0,28.881-12.538,29.492-28.683v-2.096C193.965,670.67,181.014,658.133,165.084,658.133z M240.362,817.419
	c-5.535,0-10.767,2.194-14.749,6.177c-3.918,3.945-6.081,9.204-6.081,14.77c0,5.604,2.163,10.863,6.088,14.828
	c3.955,3.945,9.187,6.119,14.742,6.119c11.494,0,20.851-9.398,20.851-20.947c0-5.582-2.164-10.824-6.091-14.77
	C251.177,819.613,245.938,817.419,240.362,817.419z M234.425,908.178c-1.57,1.58-2.437,3.695-2.437,5.928
	c0,2.228,0.866,4.344,2.467,5.965c1.601,1.562,3.696,2.437,5.907,2.437c4.621,0,8.385-3.771,8.385-8.401
	c0-2.253-0.877-4.348-2.494-5.986C243.079,905.031,237.912,904.844,234.425,908.178z M75.984,598.248
	c-3.86,3.87-5.986,9.037-5.986,14.504c0,5.471,2.126,10.634,5.986,14.504c3.85,3.89,8.985,6.022,14.466,6.022
	c11.262,0,20.421-9.203,20.421-20.526c0-5.487-2.126-10.634-5.975-14.521C97.102,590.434,83.721,590.454,75.984,598.248z
	 M90.45,513.069c-6.385,0-12.436,2.516-17.056,7.078c-4.528,4.614-7.023,10.691-7.023,17.135c0,6.439,2.495,12.5,7.03,17.056
	c4.536,4.594,10.596,7.129,17.049,7.129c13.265,0,24.062-10.845,24.062-24.185c0-6.443-2.498-12.521-7.064-17.173
	C102.848,515.585,96.815,513.069,90.45,513.069z M270.264,749.935c-3.802-8.367-10.91-14.79-20.019-17.782l-9.128-1.751
	c-0.499-0.116-1.01-0.116-1.508,0l-9.624,1.887c-13.436,4.515-22.458,17.077-22.458,31.294c0,8.821,3.419,17.114,9.613,23.287
	c6.167,6.29,14.408,9.74,23.223,9.74c12.818,0,24.557-7.587,29.895-19.326c0.15-0.345,0.256-0.686,0.314-1.047l1.839-12.047
	c0.065-0.399,0.065-0.819,0-1.219l-1.839-12.009C270.513,750.601,270.407,750.259,270.264,749.935z M73.411,445.534
	c-4.535,4.546-7.04,10.625-7.04,17.104c0,6.47,2.505,12.542,7.03,17.068c4.545,4.591,10.596,7.117,17.049,7.117
	c13.265,0,24.062-10.852,24.062-24.185c0-6.47-2.498-12.538-7.044-17.104C98.282,436.378,82.54,436.416,73.411,445.534z
	 M162.395,910.235c-1.058,0.989-1.658,2.402-1.658,3.87c0,1.484,0.59,2.855,1.276,3.467c0.993,1.238,2.498,1.962,4.126,1.962
	c2.982,0,5.405-2.439,5.405-5.429c0-1.413-0.583-2.803-1.594-3.812C167.882,908.235,164.081,908.406,162.395,910.235z
	 M597.201,899.182c-3.973,3.982-6.163,9.299-6.163,14.924c0,11.681,9.442,21.171,21.049,21.171c5.62,0,10.92-2.211,14.923-6.231
	c3.956-4.02,6.137-9.319,6.137-14.939c0-5.645-2.181-10.941-6.156-14.944C618.977,891.117,605.234,891.062,597.201,899.182z
	 M606.483,984.221c-1.495,1.504-2.317,3.524-2.317,5.658c0,4.364,3.557,7.91,7.921,7.91c2.153,0,4.153-0.819,5.583-2.267
	c1.525-1.487,2.365-3.487,2.365-5.644c0-2.116-0.812-4.116-2.383-5.733C614.622,981.244,609.589,981.17,606.483,984.221z
	 M530.174,982.695c-1.907,1.924-2.955,4.477-2.955,7.184c0,5.586,4.528,10.121,10.092,10.121c2.688,0,5.225-1.048,7.187-2.992
	c1.887-1.926,2.925-4.461,2.925-7.129c0-2.687-1.038-5.242-2.973-7.205C540.617,978.862,534.023,978.846,530.174,982.695z
	 M537.311,888.889c-6.737,0-13.043,2.632-17.77,7.396c-4.727,4.765-7.338,11.091-7.338,17.821c0,13.93,11.262,25.249,25.107,25.249
	c6.767,0,13.083-2.628,17.8-7.395c4.727-4.802,7.33-11.146,7.33-17.854c0-6.751-2.61-13.078-7.337-17.821
	C550.394,891.521,544.077,888.889,537.311,888.889z M373.017,899.161c-3.972,3.982-6.153,9.3-6.153,14.944
	c0,5.62,2.181,10.937,6.146,14.96c3.972,4,9.262,6.211,14.893,6.211c11.606,0,21.049-9.49,21.049-21.171
	c0-5.625-2.18-10.921-6.153-14.944C394.718,891.101,380.976,891.139,373.017,899.161z M462.669,888.889
	c-6.729,0-13.036,2.632-17.762,7.396c-4.737,4.743-7.348,11.07-7.348,17.821c0,6.709,2.601,13.053,7.337,17.854
	c4.737,4.767,11.043,7.395,17.773,7.395c13.845,0,25.117-11.319,25.117-25.249c0-6.751-2.61-13.095-7.344-17.821
	C475.733,891.521,469.416,888.889,462.669,888.889z M382.262,984.237c-1.478,1.505-2.286,3.508-2.286,5.642
	c0,2.156,0.839,4.156,2.266,5.549c1.468,1.521,3.481,2.361,5.662,2.361c4.375,0,7.938-3.546,7.938-7.91
	c0-2.134-0.819-4.154-2.362-5.717C390.449,981.207,385.33,981.189,382.262,984.237z M302.663,903.127
	c-2.904,2.951-4.505,6.842-4.505,10.979c0,4.136,1.601,8.022,4.505,10.975c2.907,2.976,6.805,4.594,10.968,4.594
	c8.539,0,15.486-6.993,15.486-15.568c0-4.119-1.6-8.027-4.518-10.999C318.835,897.295,308.563,897.179,302.663,903.127z
	 M309.631,986.145c-0.972,1.027-1.488,2.324-1.488,3.734c0,1.275,0.42,2.46,1.249,3.508c0.208,0.246,0.468,0.494,0.724,0.703
	c0.399,0.307,1.601,1.222,3.413,1.222c2.982,0,5.402-2.44,5.402-5.433c0-1.468-0.59-2.857-1.525-3.734
	C315.464,984.125,312.03,983.838,309.631,986.145z M319.074,809.454l-11.722,0.096c-13.367,2.955-23.08,15.077-23.08,28.815
	c0,7.928,3.061,15.344,8.586,20.831c5.546,5.604,12.924,8.692,20.772,8.692c16.2,0,29.379-13.248,29.379-29.523
	C343.01,824.627,333.312,812.505,319.074,809.454z"/>
</svg>
