<?xml version="1.0" encoding="utf-8"?>
<!-- Generator: Adobe Illustrator 16.2.1, SVG Export Plug-In . SVG Version: 6.00 Build 0)  -->
<!DOCTYPE svg PUBLIC "-//W3C//DTD SVG 1.1//EN" "http://www.w3.org/Graphics/SVG/1.1/DTD/svg11.dtd">
<svg version="1.1" id="Layer_1" xmlns="http://www.w3.org/2000/svg" xmlns:xlink="http://www.w3.org/1999/xlink" x="0px" y="0px"
	 width="1000px" height="1000px" viewBox="0 0 1000 1000" enable-background="new 0 0 1000 1000" xml:space="preserve">
<path d="M42.398,405.522c-0.63-0.635-0.979-1.478-0.979-2.375c0-0.9,0.349-1.746,0.979-2.383c1.249-1.266,3.496-1.273,4.753,0.003
	c0.63,0.635,0.979,1.48,0.979,2.38c0,1.86-1.505,3.371-3.357,3.371C43.876,406.518,43.03,406.163,42.398,405.522z M66.16,409.133
	c3.289,0,5.967-2.687,5.967-5.986c0-1.604-0.619-3.106-1.74-4.229c-2.241-2.269-6.179-2.285-8.445-0.005
	c-1.123,1.132-1.742,2.634-1.742,4.235c0,1.589,0.616,3.092,1.745,4.238C63.073,408.511,64.573,409.133,66.16,409.133z
	 M44.92,383.017c0.854,0,1.546-0.695,1.546-1.551c0-0.412-0.161-0.799-0.456-1.093c-0.581-0.581-1.671-0.529-2.162-0.02
	c-0.306,0.292-0.475,0.688-0.475,1.113c0,0.415,0.161,0.804,0.453,1.099C44.121,382.856,44.509,383.017,44.92,383.017z
	 M44.618,431.142c3.622,0,6.566-2.962,6.566-6.602c0-1.767-0.684-3.422-1.922-4.661c-2.477-2.503-6.814-2.498-9.285-0.005
	c-1.244,1.246-1.928,2.901-1.928,4.666s0.685,3.419,1.925,4.66C41.212,430.451,42.861,431.142,44.618,431.142z M87.188,361.338
	c0.851,0,1.541-0.692,1.541-1.546c0-0.417-0.158-0.805-0.45-1.097c-0.573-0.572-1.585-0.592-2.204,0.022
	c-0.281,0.294-0.434,0.676-0.434,1.074c0,0.412,0.161,0.799,0.434,1.071C86.366,361.169,86.762,361.338,87.188,361.338z
	 M85.576,411.42h3.109c0.082,0,0.166-0.008,0.245-0.027c3.829-0.845,6.604-4.314,6.604-8.246c0-2.258-0.875-4.382-2.465-5.98
	c-3.177-3.183-8.683-3.196-11.887,0.002c-1.584,1.595-2.457,3.719-2.457,5.978C78.726,407.082,81.504,410.548,85.576,411.42z
	 M108.381,387.521c3.321,0,6.023-2.716,6.023-6.056c0-1.609-0.622-3.125-1.761-4.281c-1.146-1.143-2.659-1.772-4.262-1.772
	c-1.611,0-3.125,0.63-4.26,1.775c-1.137,1.143-1.761,2.662-1.761,4.279c0,1.623,0.625,3.141,1.756,4.276
	C105.248,386.889,106.761,387.521,108.381,387.521z M87.127,385.918c2.443,0,4.432-1.999,4.432-4.453
	c0-1.186-0.461-2.301-1.293-3.141c-1.652-1.683-4.586-1.705-6.274-0.003c-0.834,0.84-1.292,1.958-1.292,3.144
	c0,1.194,0.461,2.312,1.292,3.144C84.823,385.452,85.938,385.918,87.127,385.918z M66.16,383.873c1.322,0,2.399-1.08,2.399-2.408
	c0-0.633-0.248-1.235-0.703-1.705c-0.889-0.895-2.411-0.935-3.406,0.014c-0.441,0.461-0.687,1.061-0.687,1.691
	c0,0.641,0.248,1.244,0.707,1.707C64.928,383.625,65.527,383.873,66.16,383.873z M44.618,454.727c4.559,0,8.265-3.594,8.44-8.225
	v-0.595c-0.175-4.586-3.881-8.178-8.44-8.178c-2.255,0-4.379,0.881-5.978,2.484c-1.592,1.604-2.47,3.738-2.47,6.013
	s0.878,4.409,2.468,6.005C40.232,453.84,42.357,454.727,44.618,454.727z M0.668,530.679C0.237,531.094,0,531.655,0,532.266
	c0,0.59,0.229,1.146,0.641,1.561c0.415,0.425,0.974,0.659,1.576,0.659c1.219,0,2.212-0.998,2.212-2.22
	c0-0.605-0.232-1.167-0.639-1.564C2.95,529.855,1.437,529.888,0.668,530.679z M0.66,487.725C0.234,488.142,0,488.704,0,489.309
	c0,0.595,0.24,1.17,0.641,1.558c0.417,0.428,0.977,0.665,1.576,0.665c1.219,0,2.212-0.998,2.212-2.223
	c0-0.603-0.232-1.164-0.644-1.573C2.932,486.879,1.464,486.909,0.66,487.725z M0.644,509.093C0.229,509.513,0,510.074,0,510.669
	c0,0.589,0.229,1.146,0.641,1.56c0.415,0.426,0.974,0.66,1.576,0.66c1.219,0,2.212-0.998,2.212-2.22
	c0-0.595-0.227-1.151-0.641-1.576C2.948,508.247,1.462,508.258,0.644,509.093z M23.44,404.603c0.807,0,1.462-0.654,1.462-1.456
	c0-0.314-0.224-0.851-0.45-1.066c-0.213-0.199-0.72-0.401-1.012-0.401c-0.303,0-0.823,0.21-1.039,0.423
	c-0.213,0.215-0.428,0.742-0.428,1.044c0,0.316,0.226,0.842,0.455,1.058C22.642,404.404,23.151,404.603,23.44,404.603z
	 M0.649,466.136C0.231,466.556,0,467.115,0,467.706c0,0.592,0.229,1.148,0.644,1.571c0.417,0.42,0.976,0.651,1.573,0.651
	c1.219,0,2.212-0.998,2.212-2.223c0-0.591-0.227-1.145-0.644-1.57C2.939,465.299,1.478,465.307,0.649,466.136z M23.44,595.361
	c-0.316,0-0.848,0.229-1.063,0.458c-0.199,0.212-0.403,0.72-0.403,1.009c0,0.3,0.215,0.823,0.431,1.036
	c0.213,0.213,0.733,0.431,1.036,0.431c0.807,0,1.462-0.66,1.462-1.467c0-0.316-0.224-0.846-0.453-1.059
	C24.239,595.568,23.729,595.361,23.44,595.361z M1.121,552.695c-0.284,0.301-0.428,0.655-0.428,1.059
	c0,0.441,0.191,0.856,0.428,1.047c0.284,0.301,0.673,0.464,1.096,0.464c0.84,0,1.521-0.677,1.521-1.511
	c0-0.278-0.073-0.688-0.403-1.036C2.768,552.085,1.71,552.08,1.121,552.695z M23.261,427.441c1.59,0,2.885-1.301,2.885-2.901
	c0-0.774-0.297-1.502-0.851-2.059c-1.113-1.096-2.997-1.082-4.082,0.006c-0.546,0.548-0.849,1.279-0.849,2.053
	c0,0.766,0.3,1.495,0.846,2.048C21.755,427.138,22.483,427.441,23.261,427.441z M23.261,450.868c2.547,0,4.616-2.083,4.616-4.641
	c0-1.241-0.479-2.405-1.353-3.286c-1.742-1.753-4.758-1.764-6.542,0.003c-0.867,0.873-1.344,2.04-1.344,3.283
	c0,1.241,0.477,2.405,1.353,3.286C20.872,450.385,22.033,450.868,23.261,450.868z M23.261,473.583c3.223,0,5.844-2.637,5.844-5.877
	c0-1.567-0.608-3.043-1.71-4.153c-2.217-2.233-6.078-2.225-8.273,0c-1.104,1.11-1.713,2.585-1.713,4.153
	c0,1.568,0.608,3.043,1.71,4.148C20.22,472.969,21.689,473.583,23.261,473.583z M2.217,447.754c0.84,0,1.521-0.685,1.521-1.527
	c0-0.409-0.158-0.793-0.444-1.083c-0.564-0.556-1.53-0.589-2.151,0c-0.292,0.289-0.45,0.673-0.45,1.083
	c0,0.412,0.172,0.812,0.428,1.053C1.412,447.584,1.8,447.754,2.217,447.754z M151.136,362.693c0.777,0,1.505-0.303,2.051-0.854
	c0.543-0.548,0.843-1.276,0.843-2.048c0-0.777-0.3-1.505-0.84-2.045c-1.091-1.107-3.032-1.093-4.085-0.014
	c-0.554,0.542-0.856,1.274-0.856,2.059C148.248,361.393,149.543,362.693,151.136,362.693z M257.66,473.583
	c1.567,0,3.037-0.614,4.137-1.724c1.102-1.104,1.709-2.58,1.709-4.153c0-1.573-0.608-3.048-1.707-4.15
	c-2.206-2.228-6.067-2.225-8.279-0.003c-1.102,1.107-1.707,2.583-1.707,4.153C251.813,470.946,254.437,473.583,257.66,473.583z
	 M235.995,383.017c0.398,0,0.777-0.155,1.113-0.474c0.278-0.292,0.434-0.676,0.434-1.077c0-0.412-0.161-0.799-0.453-1.093
	c-0.589-0.584-1.671-0.54-2.16-0.02c-0.305,0.292-0.474,0.688-0.474,1.113C234.454,382.321,235.144,383.017,235.995,383.017z
	 M236.142,406.518c0.895,0,1.737-0.352,2.373-0.99c0.635-0.638,0.984-1.48,0.984-2.38c0-0.903-0.349-1.748-0.982-2.38
	c-1.26-1.276-3.49-1.276-4.75,0c-0.633,0.641-0.979,1.483-0.979,2.38C232.788,405.007,234.293,406.518,236.142,406.518z
	 M236.3,454.727c2.258,0,4.38-0.887,5.98-2.495c1.595-1.606,2.473-3.739,2.473-6.005s-0.878-4.398-2.476-6.016
	c-1.604-1.601-3.725-2.481-5.978-2.481c-4.564,0-8.271,3.594-8.434,8.222v0.592C228.029,451.132,231.735,454.727,236.3,454.727z
	 M236.3,431.142c1.754,0,3.406-0.69,4.644-1.939c1.241-1.246,1.922-2.901,1.922-4.663c0-1.762-0.682-3.417-1.92-4.661
	c-2.484-2.506-6.817-2.5-9.296,0c-1.238,1.247-1.919,2.901-1.919,4.661C229.731,428.18,232.679,431.142,236.3,431.142z
	 M108.381,362.069c1.252,0,2.271-1.023,2.271-2.277c0-0.605-0.234-1.176-0.665-1.614c-0.859-0.854-2.367-0.854-3.221,0.011
	c-0.423,0.434-0.654,1.001-0.654,1.604c0,0.597,0.231,1.164,0.662,1.614C107.203,361.834,107.772,362.069,108.381,362.069z
	 M278.703,469.929c0.6,0,1.159-0.234,1.562-0.646c0.42-0.422,0.652-0.981,0.652-1.576c0-0.597-0.234-1.156-0.641-1.56
	c-0.832-0.851-2.324-0.843-3.152-0.005c-0.412,0.42-0.641,0.976-0.641,1.565C276.483,468.931,277.479,469.929,278.703,469.929z
	 M278.703,447.754c0.415,0,0.802-0.169,1.075-0.453c0.286-0.289,0.444-0.671,0.444-1.074c0-0.396-0.15-0.771-0.469-1.102
	c-0.567-0.537-1.472-0.6-2.17,0.065c-0.262,0.289-0.404,0.657-0.404,1.036C277.179,447.069,277.863,447.754,278.703,447.754z
	 M214.755,383.873c0.644,0,1.265-0.262,1.693-0.703c0.452-0.453,0.701-1.059,0.701-1.705c0-0.635-0.246-1.238-0.698-1.699
	c-0.884-0.895-2.443-0.941-3.409,0.014c-0.441,0.461-0.685,1.061-0.685,1.685C212.357,382.793,213.432,383.873,214.755,383.873z
	 M257.66,427.441c0.777,0,1.505-0.303,2.048-0.856c0.542-0.551,0.842-1.279,0.842-2.045c0-0.774-0.303-1.505-0.845-2.048
	c-1.091-1.104-2.975-1.118-4.102,0.006c-0.537,0.551-0.832,1.276-0.832,2.042C254.772,426.14,256.067,427.441,257.66,427.441z
	 M257.477,404.603c0.393,0,0.758-0.15,1.055-0.45c0.199-0.21,0.409-0.717,0.409-1.006c0-0.439-0.186-0.843-0.406-1.017
	c-0.215-0.229-0.742-0.45-1.058-0.45c-0.404,0-0.791,0.164-1.006,0.398c-0.229,0.215-0.458,0.752-0.458,1.069
	C256.013,403.949,256.67,404.603,257.477,404.603z M257.66,450.868c1.229,0,2.391-0.483,3.272-1.363
	c0.87-0.878,1.35-2.042,1.35-3.278c0-1.241-0.48-2.405-1.353-3.289c-1.754-1.748-4.772-1.753-6.542,0.005
	c-0.87,0.878-1.35,2.042-1.35,3.283C253.038,448.784,255.11,450.868,257.66,450.868z M21.207,573.382
	c-0.542,0.557-0.843,1.282-0.843,2.046c0,0.785,0.303,1.51,0.84,2.039c0.546,0.562,1.276,0.867,2.057,0.867
	c1.59,0,2.885-1.303,2.885-2.906c0-0.764-0.297-1.489-0.84-2.046C24.204,572.27,22.268,572.303,21.207,573.382z M214.755,409.133
	c1.598,0,3.098-0.622,4.221-1.754c1.124-1.137,1.743-2.64,1.743-4.232c0-1.604-0.619-3.106-1.74-4.229
	c-2.241-2.274-6.195-2.277-8.437-0.008c-1.129,1.126-1.75,2.632-1.75,4.238C208.791,406.446,211.466,409.133,214.755,409.133z
	 M129.776,362.693c1.595,0,2.893-1.301,2.893-2.901c0-0.788-0.305-1.519-0.84-2.04c-1.069-1.104-3-1.112-4.09-0.016
	c-0.551,0.545-0.854,1.276-0.854,2.056c0,0.774,0.303,1.505,0.848,2.053C128.282,362.391,129.007,362.693,129.776,362.693z
	 M172.534,387.521c1.617,0,3.13-0.63,4.265-1.775c1.137-1.143,1.762-2.665,1.762-4.281c0-1.615-0.625-3.133-1.762-4.279
	c-2.279-2.288-6.242-2.296-8.527,0.003c-1.137,1.146-1.761,2.664-1.761,4.276C166.51,384.806,169.213,387.521,172.534,387.521z
	 M129.776,388.694c3.962,0,7.188-3.242,7.188-7.229c0-1.933-0.747-3.744-2.102-5.099c-2.713-2.735-7.447-2.749-10.168-0.003
	c-1.355,1.363-2.103,3.174-2.103,5.102s0.744,3.741,2.103,5.113C126.06,387.941,127.864,388.694,129.776,388.694z M151.136,388.694
	c1.923,0,3.728-0.753,5.091-2.122c1.355-1.366,2.1-3.179,2.1-5.107s-0.748-3.739-2.1-5.099c-2.716-2.735-7.456-2.749-10.177-0.003
	c-1.353,1.366-2.1,3.177-2.1,5.102C143.951,385.452,147.174,388.694,151.136,388.694z M172.534,362.069
	c0.597,0,1.164-0.232,1.622-0.679c0.42-0.436,0.652-1.003,0.652-1.598c0-0.6-0.232-1.17-0.671-1.617
	c-0.856-0.851-2.346-0.854-3.207,0.008c-0.428,0.434-0.663,1.004-0.663,1.609C170.268,361.046,171.285,362.069,172.534,362.069z
	 M193.788,385.918c1.192,0,2.307-0.466,3.136-1.303c0.837-0.84,1.298-1.958,1.298-3.149c0-1.186-0.461-2.301-1.298-3.147
	c-1.674-1.685-4.595-1.688-6.274,0.003c-0.834,0.84-1.292,1.958-1.292,3.144C189.356,383.919,191.344,385.918,193.788,385.918z
	 M193.73,361.338c0.428,0,0.823-0.169,1.074-0.434c0.303-0.286,0.475-0.692,0.475-1.112c0-0.415-0.161-0.802-0.453-1.097
	c-0.292-0.289-0.682-0.45-1.096-0.45c-0.426,0-0.818,0.167-1.088,0.45c-0.292,0.295-0.453,0.682-0.453,1.097
	C192.189,360.646,192.879,361.338,193.73,361.338z M192.238,411.42h3.101c0.082,0,0.167-0.008,0.246-0.027
	c3.826-0.845,6.605-4.314,6.605-8.246c0-2.261-0.873-4.382-2.457-5.983c-3.188-3.185-8.688-3.19-11.893,0.005
	c-1.581,1.595-2.454,3.717-2.454,5.978C185.386,407.079,188.165,410.548,192.238,411.42z M127.729,638.13
	c-0.543,0.556-0.843,1.281-0.843,2.056c0,0.764,0.3,1.489,0.856,2.057c0.551,0.54,1.273,0.84,2.034,0.84
	c1.595,0,2.893-1.298,2.893-2.896c0-0.779-0.303-1.51-0.848-2.056C130.747,637.039,128.868,637.018,127.729,638.13z M233.764,594.45
	c-0.63,0.638-0.976,1.483-0.976,2.378c0,1.859,1.505,3.376,3.354,3.376c0.914,0,1.762-0.36,2.364-0.993
	c0.641-0.627,0.993-1.472,0.993-2.383c0-0.9-0.349-1.745-0.987-2.389C237.246,593.174,235.046,593.163,233.764,594.45z
	 M234.928,617.395c-0.302,0.283-0.474,0.688-0.474,1.107c0,0.855,0.689,1.554,1.541,1.554c0.453,0,0.875-0.196,1.09-0.464
	c0.295-0.294,0.456-0.682,0.456-1.09c0-0.404-0.167-0.802-0.453-1.091C236.491,616.827,235.427,616.865,234.928,617.395z
	 M236.3,545.252c-4.564,0-8.271,3.594-8.434,8.219v0.594c0.164,4.582,3.87,8.17,8.434,8.17c2.269,0,4.394-0.883,5.978-2.486
	c1.598-1.599,2.476-3.73,2.476-5.994c0-2.269-0.878-4.406-2.473-6.005C240.685,546.141,238.561,545.252,236.3,545.252z
	 M217.58,566.434l-2.61-0.501c-0.142-0.033-0.289-0.033-0.431,0l-2.754,0.54c-2.462,0.817-4.494,2.655-5.579,5.05
	c-0.041,0.093-0.071,0.19-0.087,0.294l-0.532,3.437c-0.02,0.114-0.02,0.234,0,0.349l0.532,3.447
	c0.016,0.104,0.046,0.201,0.087,0.295c1.521,3.364,4.875,5.535,8.549,5.535c2.514,0,4.875-0.987,6.646-2.776
	c1.775-1.777,2.751-4.15,2.751-6.675C224.151,571.364,221.569,567.765,217.58,566.434z M231.648,570.765
	c-1.235,1.254-1.917,2.912-1.917,4.663c0,3.643,2.948,6.604,6.569,6.604c1.759,0,3.409-0.688,4.644-1.937
	c1.238-1.243,1.922-2.901,1.922-4.668c0-1.757-0.682-3.414-1.922-4.669C238.454,568.267,234.143,568.271,231.648,570.765z
	 M190.646,615.36c-0.832,0.845-1.29,1.958-1.29,3.142c0,2.454,1.988,4.455,4.431,4.455c1.194,0,2.31-0.463,3.141-1.314
	c0.835-0.845,1.293-1.963,1.293-3.141c0-1.179-0.458-2.297-1.298-3.152C195.255,613.681,192.326,613.67,190.646,615.36z
	 M223.571,499.347l-0.723,0.644l0.714,0.63c1.211,1.088,2.198,2.337,2.937,3.726l0.627,1.178l0.785-1.069
	c1.232-1.685,2.926-2.953,4.903-3.668l3.256-0.679c0.153-0.027,0.305-0.027,0.458,0l3.095,0.633
	c4.309,1.527,7.098,5.494,7.098,9.929c0,5.066-3.597,9.396-8.554,10.308l-3.534,0.017c-2.814-0.497-5.129-1.947-6.719-4.106
	l-0.791-1.075l-0.625,1.173c-0.259,0.398-2.053,3.037-3.469,4.167l-0.81,0.648l0.791,0.677c1.48,1.26,2.67,2.863,3.444,4.646
	l0.651,1.488l0.832-1.391c1.429-2.389,3.798-4.052,6.503-4.57l3.499-0.021c4.789,0.911,8.107,4.952,8.107,9.637
	c0,2.623-1.015,5.083-2.853,6.927c-1.849,1.854-4.298,2.874-6.896,2.874c-3.449,0-6.574-1.778-8.358-4.756l-0.834-1.391
	l-0.651,1.494c-1.025,2.346-2.703,4.309-4.852,5.684l-1.039,0.665l0.998,0.747c2.839,2.116,4.521,5.366,4.62,8.917v0.61
	c-0.136,5.057-3.597,9.484-8.413,10.81l-2.839,0.447c-0.12,0.022-0.234,0.022-0.354,0l-2.713-0.425
	c-2.34-0.633-4.303-1.888-5.806-3.66l-0.709-0.834l-0.616,0.905c-0.993,1.45-2.242,2.678-3.711,3.648l-0.993,0.649l0.925,0.73
	c1.685,1.342,2.964,3.119,3.7,5.154l0.726,3.752c0.024,0.142,0.024,0.283,0,0.426l-0.677,3.588c-1.48,4.134-4.938,7.008-9.075,7.674
	l-3.498,0.016c-3.248-0.496-6.038-2.263-7.835-4.854l-0.714-1.036l-0.676,1.063c-1.391,2.176-3.466,3.895-5.844,4.843l-2.659,0.692
	l2.38,0.775c3.256,1.734,5.162,4.93,5.162,8.426c0,2.525-0.976,4.897-2.751,6.681c-1.77,1.794-4.134,2.782-6.659,2.782
	c-4.611,0-8.612-3.458-9.305-8.039l-0.014-2.678c0.456-3.098,2.28-5.688,4.887-7.09l2.577-0.852l-2.525-0.654
	c-2.097-0.823-3.839-2.105-5.175-3.752l-0.679-0.846l-0.641,0.878c-1.112,1.489-2.542,2.743-4.137,3.644l-1.137,0.644l1.05,0.79
	c2.25,1.686,3.758,4.255,4.137,7.053l0.011,2.727c-0.718,5.372-5.203,9.31-10.447,9.31c-4.401,0-8.374-2.798-9.891-6.959
	l-0.485-3.49c-0.014-0.099-0.014-0.196,0-0.295l0.429-3.25c0.758-2.165,2.001-3.84,3.654-5.095l1.052-0.79l-1.14-0.644
	c-1.394-0.785-2.623-1.811-3.654-3.043l-0.643-0.775l-0.644,0.775c-1.025,1.232-2.252,2.252-3.646,3.043l-1.146,0.648l1.05,0.785
	c1.653,1.25,2.899,2.924,3.603,4.85l0.48,3.495c0.014,0.099,0.014,0.196,0,0.295l-0.423,3.25c-1.579,4.407-5.557,7.199-9.956,7.199
	c-5.241,0-9.725-3.938-10.428-9.157l-0.011-2.727c0.39-2.95,1.901-5.524,4.153-7.205l1.048-0.785l-1.148-0.648
	c-1.604-0.905-3.032-2.165-4.126-3.638l-0.646-0.884l-0.682,0.84c-1.336,1.652-3.078,2.935-5.033,3.714l-2.659,0.692l2.378,0.775
	c2.798,1.478,4.619,4.068,5.062,7.002l0.013,2.678c-0.698,4.751-4.696,8.209-9.315,8.209c-2.525,0-4.89-0.988-6.662-2.782
	c-1.775-1.788-2.751-4.161-2.751-6.681c0-3.496,1.909-6.691,4.979-8.344l2.574-0.852l-2.525-0.654
	c-2.52-0.992-4.595-2.711-5.98-4.887l-0.679-1.063l-0.712,1.03c-1.797,2.597-4.586,4.363-7.66,4.844l-3.496,0.016
	c-4.308-0.682-7.766-3.55-9.206-7.515l-0.729-3.763c-0.024-0.143-0.024-0.284,0-0.426l0.679-3.578
	c0.786-2.209,2.064-3.992,3.747-5.328l0.927-0.73l-0.99-0.649c-1.476-0.971-2.725-2.198-3.711-3.654l-0.619-0.899l-0.707,0.834
	c-1.502,1.772-3.466,3.027-5.683,3.638l-2.841,0.447c-0.12,0.022-0.235,0.022-0.354,0l-2.713-0.425
	c-4.938-1.348-8.398-5.775-8.538-10.799v-0.611c0.099-3.583,1.784-6.833,4.628-8.955l0.99-0.741l-1.042-0.665
	c-2.146-1.375-3.82-3.344-4.843-5.684l-0.652-1.494l-0.834,1.391c-1.786,2.978-4.911,4.756-8.361,4.756
	c-2.604,0-5.05-1.02-6.896-2.88c-1.835-1.832-2.85-4.292-2.85-6.921c0-4.685,3.316-8.726,7.886-9.615l3.504-0.021
	c2.915,0.54,5.285,2.203,6.714,4.592l0.837,1.391l0.652-1.488c0.769-1.783,1.96-3.393,3.447-4.646l0.788-0.677l-0.815-0.654
	c-1.415-1.118-3.207-3.763-3.406-4.063l-0.684-1.271l-0.788,1.075c-1.59,2.159-3.908,3.609-6.523,4.09l-3.531,0.017
	c-5.159-0.928-8.753-5.258-8.753-10.324c0-4.435,2.79-8.401,6.937-9.885l3.253-0.676c0.152-0.027,0.305-0.027,0.458,0l3.098,0.633
	c2.133,0.758,3.829,2.025,5.064,3.72l0.783,1.063l0.627-1.178c0.729-1.378,1.715-2.629,2.932-3.717l0.723-0.638l-0.72-0.641
	c-1.211-1.08-2.198-2.334-2.935-3.725l-0.627-1.17l-0.785,1.069c-1.244,1.696-2.942,2.961-4.909,3.657l-3.245,0.689
	c-0.158,0.033-0.311,0.033-0.469,0l-3.098-0.649c-4.297-1.516-7.087-5.481-7.087-9.913c0-5.069,3.597-9.402,8.549-10.302l3.531-0.02
	c2.822,0.494,5.14,1.944,6.728,4.104l0.785,1.069l0.627-1.175c0.873-1.628,2.04-3.03,3.472-4.169l0.804-0.644l-0.791-0.673
	c-1.483-1.271-2.67-2.877-3.439-4.647l-0.652-1.495l-0.834,1.396c-1.429,2.381-3.799,4.047-6.501,4.567l-3.501,0.022
	c-4.786-0.9-8.104-4.944-8.104-9.637c0-2.623,1.014-5.085,2.852-6.926c1.833-1.852,4.284-2.874,6.894-2.874
	c3.455,0,6.58,1.777,8.361,4.758l0.834,1.394l0.652-1.491c1.012-2.34,2.686-4.309,4.84-5.691l1.042-0.668l-0.987-0.736
	c-2.844-2.116-4.529-5.369-4.628-8.922v-0.619c0.14-5.056,3.6-9.481,8.416-10.796l2.833-0.461c0.12-0.017,0.24-0.017,0.359,0
	l2.719,0.434c2.343,0.632,4.309,1.887,5.803,3.656l0.707,0.832l0.622-0.911c0.982-1.445,2.233-2.672,3.712-3.64l0.987-0.649
	l-0.924-0.73c-1.691-1.353-2.97-3.131-3.7-5.144l-0.767-3.343l-0.709,3.06c-1.153,2.596-3.188,4.437-5.653,5.26l-2.76,0.543
	c-0.071,0.014-0.142,0.021-0.215,0.021c-0.074,0-0.145-0.008-0.216-0.021l-2.606-0.504c-3.992-1.326-6.575-4.925-6.575-8.996
	c0-2.511,0.979-4.881,2.754-6.673c1.775-1.789,4.134-2.773,6.643-2.773c3.668,0,7.024,2.173,8.554,5.535l0.78,3.275l0.729-3.202
	c1.475-4.104,4.936-6.978,9.066-7.638l3.499-0.014c3.256,0.51,6.045,2.277,7.834,4.859l0.718,1.034l0.676-1.058
	c1.383-2.179,3.458-3.902,5.847-4.849l2.732-0.676l-2.457-0.788c-3.261-1.734-5.17-4.933-5.17-8.426c0-2.522,0.976-4.9,2.751-6.692
	c1.781-1.789,4.145-2.773,6.662-2.773c4.617,0,8.617,3.452,9.302,8.031l0.013,2.691c-0.453,3.1-2.277,5.686-4.886,7.087
	l-2.697,0.886l2.637,0.611c2.113,0.823,3.856,2.108,5.189,3.766l0.682,0.843l0.641-0.873c1.085-1.481,2.514-2.749,4.128-3.662
	l1.146-0.644l-1.047-0.786c-2.252-1.69-3.76-4.257-4.139-7.046l-0.011-2.732c0.714-5.369,5.198-9.302,10.439-9.302
	c4.404,0,8.38,2.792,9.898,6.951l0.783,3.038l0.755-2.931c1.543-4.265,5.519-7.058,9.923-7.058c5.244,0,9.729,3.933,10.436,9.149
	l0.011,2.732c-0.39,2.939-1.898,5.508-4.148,7.199l-1.047,0.788l1.138,0.641c1.603,0.905,3.032,2.17,4.131,3.662l0.644,0.87
	l0.679-0.84c1.331-1.655,3.076-2.942,5.044-3.719l2.727-0.673l-2.457-0.788c-2.801-1.489-4.622-4.074-5.064-6.998l-0.014-2.694
	c0.707-4.748,4.707-8.2,9.318-8.2c2.517,0,4.881,0.984,6.659,2.771c1.775,1.786,2.751,4.164,2.751,6.695
	c0,3.493-1.906,6.692-4.974,8.344l-2.702,0.886l2.64,0.611c2.533,0.995,4.608,2.719,5.996,4.9l0.674,1.058l0.717-1.036
	c1.792-2.582,4.581-4.349,7.652-4.846l3.501-0.014c4.319,0.674,7.777,3.551,9.206,7.519l0.764,3.337l0.717-3.065
	c1.593-3.575,4.949-5.748,8.62-5.748c2.503,0,4.862,0.984,6.646,2.771c1.775,1.794,2.751,4.164,2.751,6.675
	c0,4.071-2.582,7.67-6.424,8.958l-2.757,0.543c-0.071,0.014-0.142,0.021-0.215,0.021c-0.074,0-0.145-0.008-0.216-0.021l-2.609-0.504
	c-2.612-0.862-4.644-2.703-5.724-5.083l-0.786-3.283l-0.725,3.212c-0.772,2.148-2.051,3.927-3.739,5.276l-0.927,0.736l0.99,0.649
	c1.472,0.968,2.721,2.192,3.714,3.643l0.619,0.905l0.709-0.832c1.491-1.767,3.458-3.021,5.68-3.626l2.833-0.461
	c0.12-0.017,0.24-0.017,0.36,0l2.713,0.434c4.938,1.342,8.399,5.767,8.535,10.793v0.619c-0.098,3.583-1.784,6.836-4.622,8.952
	l-0.993,0.739l1.039,0.665c2.154,1.383,3.831,3.352,4.849,5.691l0.651,1.489l0.832-1.391c1.78-2.98,4.905-4.758,8.36-4.758
	c2.607,0,5.056,1.02,6.899,2.874c1.838,1.849,2.85,4.309,2.85,6.926c0,4.69-3.319,8.737-7.892,9.615l-3.499,0.022
	c-2.923-0.542-5.293-2.208-6.719-4.589l-0.832-1.394l-0.651,1.492c-0.772,1.772-1.964,3.378-3.441,4.644l-0.791,0.676l0.807,0.644
	c1.434,1.145,2.599,2.547,3.469,4.169l0.625,1.175l0.788-1.072c1.59-2.157,3.905-3.607,6.517-4.082l3.534-0.02
	c5.162,0.919,8.759,5.252,8.759,10.321c0,4.432-2.792,8.399-6.945,9.872l-3.243,0.689c-0.158,0.033-0.311,0.033-0.469,0
	l-3.098-0.649c-2.116-0.742-3.812-2.004-5.056-3.698l-0.788-1.069l-0.625,1.172C225.752,497.023,224.768,498.275,223.571,499.347z
	 M135.022,412.421l1.138,0.641c1.401,0.788,2.631,1.816,3.656,3.057l0.641,0.769l0.643-0.771c1.025-1.238,2.256-2.266,3.657-3.054
	l1.134-0.641l-1.047-0.788c-1.655-1.246-2.898-2.923-3.6-4.851l-0.788-3.033l-0.75,2.926c-0.736,2.037-1.982,3.717-3.635,4.957
	L135.022,412.421z M210.384,450.914c-2.048,0-39.442,0-39.442,0l-29.731,51.314l-29.734-51.314c0,0-37.389,0-39.439,0
	c-2.053,0-2.931,1.767-0.883,4.42c2.056,2.662,70.057,110.887,70.057,110.887s68.004-108.226,70.057-110.887
	C213.317,452.681,212.439,450.914,210.384,450.914z M192.727,639.096c-0.374,0.376-0.452,0.801-0.452,1.09
	c0,0.856,0.692,1.555,1.543,1.555c0.537,0,0.881-0.278,1.146-0.507c0.265-0.306,0.4-0.66,0.4-1.048c0-0.425-0.169-0.817-0.455-1.09
	C194.316,638.512,193.27,638.545,192.727,639.096z M213.05,616.811c-0.447,0.459-0.693,1.059-0.693,1.691
	c0,1.325,1.075,2.404,2.397,2.404c0.644,0,1.265-0.262,1.693-0.703c0.452-0.453,0.701-1.059,0.701-1.701
	c0-0.645-0.249-1.249-0.707-1.707C215.545,615.911,214.035,615.867,213.05,616.811z M210.539,592.602
	c-1.129,1.129-1.748,2.634-1.748,4.227c0,3.305,2.675,5.994,5.964,5.994c1.601,0,3.098-0.622,4.218-1.757
	c1.126-1.129,1.746-2.634,1.746-4.237c0-1.598-0.619-3.098-1.743-4.227C216.721,590.327,212.805,590.316,210.539,592.602z
	 M19.982,550.465c-0.867,0.879-1.344,2.046-1.344,3.289s0.479,2.405,1.347,3.267c0.873,0.878,2.037,1.364,3.275,1.364
	c2.547,0,4.616-2.078,4.616-4.631c0-1.238-0.479-2.405-1.353-3.294C24.771,548.715,21.774,548.693,19.982,550.465z M277.141,530.685
	c-0.422,0.414-0.657,0.976-0.657,1.581c0,1.222,0.996,2.22,2.22,2.22c0.605,0,1.165-0.234,1.562-0.648
	c0.42-0.42,0.652-0.981,0.652-1.571c0-0.616-0.24-1.178-0.638-1.554C279.456,529.85,277.932,529.877,277.141,530.685z
	 M257.477,595.361c-0.404,0-0.78,0.163-1.034,0.431c-0.212,0.213-0.431,0.736-0.431,1.036c0,0.807,0.657,1.467,1.464,1.467
	c0.404,0,0.78-0.163,0.984-0.387c0.243-0.219,0.48-0.753,0.48-1.08c0-0.387-0.152-0.758-0.406-1.009
	C258.32,595.59,257.791,595.361,257.477,595.361z M277.135,487.73c-0.42,0.417-0.652,0.976-0.652,1.579
	c0,1.225,0.996,2.223,2.22,2.223c0.592,0,1.167-0.245,1.546-0.641c0.425-0.406,0.668-0.984,0.668-1.582
	c0-0.61-0.237-1.172-0.641-1.562C279.448,486.898,277.942,486.915,277.135,487.73z M277.122,509.098
	c-0.412,0.426-0.639,0.982-0.639,1.571c0,1.222,0.996,2.22,2.22,2.22c0.605,0,1.165-0.234,1.562-0.649
	c0.42-0.42,0.652-0.981,0.652-1.57c0-0.601-0.232-1.162-0.638-1.565C279.456,508.242,277.951,508.247,277.122,509.098z
	 M252.795,484.414c-1.306,1.301-2.023,3.041-2.023,4.895c0,3.815,3.09,6.921,6.889,6.921c1.849,0,3.58-0.725,4.867-2.031
	c1.301-1.298,2.018-3.035,2.018-4.89c0-1.859-0.717-3.597-2.012-4.889C259.926,481.791,255.391,481.796,252.795,484.414z
	 M277.561,552.745c-0.093,0.108-0.382,0.447-0.382,1.009c0,0.834,0.685,1.511,1.524,1.511c0.42,0,0.81-0.163,1.025-0.398
	c0.243-0.212,0.494-0.785,0.494-1.112c0-0.387-0.136-0.736-0.425-1.059C279.213,552.085,278.231,552.041,277.561,552.745z
	 M255.596,573.393c-0.532,0.557-0.824,1.276-0.824,2.035c0,1.604,1.295,2.906,2.888,2.906c0.782,0,1.51-0.311,2.034-0.851
	c0.553-0.546,0.856-1.271,0.856-2.056c0-0.764-0.3-1.489-0.837-2.035C258.649,572.28,256.708,572.275,255.596,573.393z
	 M254.388,550.465c-0.87,0.884-1.35,2.051-1.35,3.289c0,2.553,2.073,4.631,4.623,4.631c1.24,0,2.405-0.486,3.267-1.358
	c0.873-0.873,1.355-2.034,1.355-3.272s-0.48-2.405-1.355-3.294C259.173,548.703,256.166,548.693,254.388,550.465z M253.521,528.115
	c-1.102,1.107-1.707,2.58-1.707,4.15c0,3.24,2.623,5.874,5.847,5.874c1.565,0,3.035-0.61,4.137-1.718
	c1.102-1.107,1.709-2.585,1.709-4.156c0-1.57-0.608-3.049-1.709-4.15C259.577,525.879,255.746,525.879,253.521,528.115z
	 M252.79,505.766c-1.301,1.32-2.018,3.06-2.018,4.903c0,3.817,3.09,6.921,6.889,6.921c1.849,0,3.58-0.726,4.87-2.034
	c1.301-1.304,2.015-3.038,2.015-4.887s-0.714-3.589-2.021-4.909C259.898,503.15,255.416,503.156,252.79,505.766z M195.339,588.555
	l-3.346,0.027c-3.829,0.846-6.607,4.314-6.607,8.246c0,4.657,3.769,8.448,8.402,8.448c2.247,0,4.36-0.884,5.942-2.481
	c1.587-1.576,2.46-3.698,2.46-5.967C202.189,592.896,199.41,589.428,195.339,588.555z M42.398,594.445
	c-0.633,0.638-0.979,1.482-0.979,2.383c0,0.905,0.352,1.751,0.963,2.355c0.624,0.66,1.475,1.021,2.391,1.021
	c1.852,0,3.357-1.517,3.357-3.376c0-0.9-0.347-1.745-0.984-2.389C45.88,593.174,43.669,593.186,42.398,594.445z M39.977,570.765
	c-1.244,1.249-1.928,2.901-1.928,4.663c0,1.772,0.687,3.43,1.922,4.662c1.238,1.25,2.888,1.942,4.647,1.942
	c3.622,0,6.566-2.962,6.566-6.604c0-1.762-0.684-3.42-1.925-4.669C46.777,568.283,42.458,568.277,39.977,570.765z M44.618,545.252
	c-2.263,0-4.388,0.889-5.978,2.492c-1.592,1.592-2.47,3.73-2.47,6.01c0,2.274,0.878,4.406,2.468,5.994
	c1.584,1.604,3.708,2.486,5.98,2.486c4.559,0,8.265-3.588,8.44-8.208v-0.6C52.883,548.84,49.177,545.252,44.618,545.252z
	 M66.16,590.834c-1.584,0-3.082,0.628-4.221,1.768c-1.121,1.129-1.74,2.634-1.74,4.227c0,1.604,0.619,3.108,1.742,4.243
	c1.132,1.129,2.629,1.751,4.219,1.751c3.289,0,5.967-2.689,5.967-5.994c0-1.598-0.619-3.098-1.743-4.227
	C69.255,591.462,67.755,590.834,66.16,590.834z M64.461,616.806c-0.45,0.452-0.698,1.058-0.698,1.696
	c0,0.638,0.248,1.243,0.707,1.707c0.458,0.447,1.058,0.697,1.69,0.697c1.322,0,2.399-1.079,2.399-2.404
	c0-0.645-0.251-1.244-0.714-1.713C66.938,615.905,65.459,615.852,64.461,616.806z M19.121,528.115
	c-1.104,1.107-1.713,2.586-1.713,4.15c0,1.565,0.608,3.043,1.713,4.15c1.102,1.113,2.571,1.724,4.14,1.724
	c3.223,0,5.844-2.634,5.844-5.874c0-1.57-0.608-3.043-1.71-4.155C25.164,525.879,21.335,525.885,19.121,528.115z M23.261,503.74
	c-1.827,0-3.559,0.72-4.881,2.025c-1.295,1.32-2.01,3.06-2.01,4.903c0,1.843,0.714,3.577,2.012,4.881
	c1.298,1.314,3.032,2.04,4.879,2.04c3.796,0,6.885-3.104,6.885-6.921c0-1.844-0.714-3.583-2.021-4.914
	C26.808,504.46,25.082,503.74,23.261,503.74z M74.717,571.522c-1.088-2.395-3.122-4.232-5.729-5.089l-2.613-0.501
	c-0.142-0.033-0.289-0.033-0.431,0l-2.754,0.54c-3.845,1.292-6.427,4.887-6.427,8.955c0,2.524,0.979,4.897,2.751,6.664
	c1.765,1.8,4.123,2.787,6.646,2.787c3.668,0,7.027-2.171,8.554-5.53c0.043-0.099,0.074-0.196,0.09-0.3l0.526-3.447
	c0.019-0.114,0.019-0.234,0-0.349l-0.526-3.437C74.788,571.713,74.758,571.615,74.717,571.522z M18.385,484.414
	c-1.298,1.301-2.015,3.041-2.015,4.895c0,1.852,0.717,3.589,2.012,4.884c1.301,1.314,3.032,2.037,4.879,2.037
	c3.796,0,6.885-3.105,6.885-6.921c0-1.852-0.714-3.588-2.015-4.895C25.502,481.794,20.997,481.805,18.385,484.414z M43.849,617.395
	c-0.303,0.283-0.475,0.688-0.475,1.107c0,0.425,0.169,0.817,0.365,0.992c0.284,0.354,0.715,0.562,1.181,0.562
	c0.854,0,1.546-0.698,1.546-1.554c0-0.404-0.167-0.802-0.456-1.091C45.419,616.822,44.331,616.871,43.849,617.395z M168.274,614.231
	c-1.137,1.14-1.764,2.661-1.764,4.271c0,3.343,2.703,6.059,6.024,6.059c1.608,0,3.125-0.633,4.271-1.783
	c1.131-1.15,1.756-2.667,1.756-4.275c0-1.615-0.625-3.131-1.762-4.276C174.506,611.924,170.573,611.908,168.274,614.231z
	 M170.931,638.566c-0.428,0.431-0.663,1.009-0.663,1.619c0,1.249,1.018,2.264,2.267,2.264c0.616,0,1.188-0.234,1.598-0.648
	c0.437-0.426,0.677-0.998,0.677-1.615c0-0.605-0.232-1.178-0.682-1.641C173.259,637.715,171.819,637.693,170.931,638.566z
	 M149.094,638.13c-0.546,0.551-0.846,1.281-0.846,2.056c0,1.599,1.295,2.896,2.888,2.896c0.77,0,1.495-0.3,2.057-0.856
	c0.54-0.551,0.837-1.276,0.837-2.04c0-0.769-0.297-1.5-0.851-2.062C152.082,637.033,150.195,637.028,149.094,638.13z
	 M151.136,611.286c-1.928,0-3.733,0.753-5.085,2.116s-2.1,3.174-2.1,5.1c0,3.986,3.223,7.226,7.185,7.226
	c1.937,0,3.744-0.752,5.094-2.116c1.353-1.374,2.098-3.189,2.098-5.109c0-1.932-0.748-3.742-2.1-5.1
	C154.88,612.039,153.072,611.286,151.136,611.286z M104.121,614.226c-1.137,1.14-1.761,2.661-1.761,4.276
	c0,1.608,0.625,3.13,1.759,4.281c1.137,1.145,2.651,1.777,4.262,1.777c3.321,0,6.023-2.716,6.023-6.059
	c0-1.609-0.624-3.125-1.761-4.276C110.331,611.919,106.398,611.93,104.121,614.226z M129.776,611.286
	c-1.926,0-3.73,0.753-5.083,2.116c-1.355,1.357-2.103,3.168-2.103,5.1c0,1.92,0.744,3.735,2.1,5.109
	c1.355,1.364,3.16,2.116,5.086,2.116c3.962,0,7.188-3.239,7.188-7.226c0-1.932-0.747-3.747-2.102-5.1
	C133.515,612.039,131.707,611.286,129.776,611.286z M106.767,638.571c-0.423,0.431-0.654,1.004-0.654,1.614
	c0,0.617,0.24,1.189,0.648,1.588c0.42,0.436,0.996,0.676,1.62,0.676c1.252,0,2.271-1.015,2.271-2.264
	c0-0.61-0.234-1.188-0.676-1.636C109.109,637.704,107.645,637.699,106.767,638.571z M83.988,615.36
	c-0.831,0.845-1.29,1.958-1.29,3.142s0.458,2.296,1.29,3.141c0.832,0.852,1.947,1.314,3.139,1.314c2.443,0,4.432-2.001,4.432-4.455
	c0-1.179-0.458-2.297-1.293-3.147C88.616,613.691,85.677,613.658,83.988,615.36z M85.982,639.117
	c-0.278,0.294-0.425,0.665-0.425,1.068c0,0.365,0.12,0.704,0.357,1.004c0.06,0.07,0.133,0.142,0.207,0.201
	c0.114,0.088,0.458,0.35,0.977,0.35c0.854,0,1.546-0.698,1.546-1.555c0-0.42-0.169-0.817-0.437-1.068
	C87.651,638.539,86.669,638.457,85.982,639.117z M88.685,588.555l-3.354,0.027c-3.826,0.846-6.604,4.314-6.604,8.246
	c0,2.269,0.875,4.391,2.457,5.961c1.587,1.604,3.698,2.487,5.944,2.487c4.636,0,8.407-3.791,8.407-8.448
	C95.534,592.896,92.758,589.428,88.685,588.555z M386.293,539.617l-32.084-80.056h-14.688l46.772,113.903l46.625-113.903h-14.685
	L386.293,539.617L386.293,539.617z M460.678,567.727h-13.402V459.561h13.402V567.727L460.678,567.727z M584.436,513.21v4.309
	c0,29.69-20.822,52.51-50.911,52.51c-30.083,0-54.331-26.113-54.331-56.099c0-31.125,24.815-56.662,55.76-56.662
	c16.678,0,33.23,7.603,43.768,20.943l-9.402,9.04c-7.707-10.618-20.676-17.643-33.798-17.643c-24.101,0-42.921,19.65-42.921,43.898
	c0,22.666,18.538,44.187,41.776,44.187c16.694,0,34.659-14.496,35.227-32.134h-27.814V513.21H584.436L584.436,513.21z
	 M602.052,454.404l80.711,85.071v-79.915h13.389v112.616l-80.694-85.068v80.618h-13.405V454.404L602.052,454.404z M718.07,459.561
	h57.751v12.345h-44.34v30.269h43.053v12.333h-43.053v40.883h44.34v12.336H718.07V459.561L718.07,459.561z M826.988,567.727h-13.399
	v-95.821H788.06v-12.345h64.447v12.345h-25.519V567.727L826.988,567.727z M900.517,567.727h-13.399v-95.821h-25.529v-12.345h64.453
	v12.345h-25.524V567.727L900.517,567.727z M942.255,459.561H1000v12.345h-44.345v30.269h43.058v12.333h-43.058v40.883H1000v12.336
	h-57.745V459.561L942.255,459.561z"/>
</svg>
