<?xml version="1.0" encoding="utf-8"?>
<!-- Generator: Adobe Illustrator 16.2.1, SVG Export Plug-In . SVG Version: 6.00 Build 0)  -->
<!DOCTYPE svg PUBLIC "-//W3C//DTD SVG 1.1//EN" "http://www.w3.org/Graphics/SVG/1.1/DTD/svg11.dtd">
<svg version="1.1" id="Layer_1" xmlns="http://www.w3.org/2000/svg" xmlns:xlink="http://www.w3.org/1999/xlink" x="0px" y="0px"
	 width="1000px" height="1000px" viewBox="0 0 1000 1000" enable-background="new 0 0 1000 1000" xml:space="preserve">
<path d="M436.366,452.391c3.393,0,6.803,0,10.214,0.019c-0.018,30.036,0,60.073,0,90.129c-3.411,0-6.821,0-10.214,0
	c0-3.27,0.019-6.538,0.071-9.806c-7.247,13.092-27.09,15.347-37.729,5.294c-6.43-5.95-8.722-15.011-8.952-23.501
	c-0.16-9.61,2.238-19.858,9.06-27c9.786-10.215,29.361-10.781,37.639,1.652C436.26,476.922,436.402,464.647,436.366,452.391
	 M411.996,490.19c-6.874,2.842-10.516,10.214-11.315,17.266c-1.084,8.312-0.178,18.118,6.555,23.979
	c6.874,6.251,18.579,4.902,24.316-2.221c5.916-7.104,5.1-17.089,4.53-25.703C435.141,492.411,421.89,485.394,411.996,490.19z
	 M748.105,452.391c3.394,0,6.803,0,10.214,0c-0.106,12.86,0.229,25.738-0.214,38.599c6.395-9.947,19.912-14.067,30.605-8.792
	c7.567,3.411,10.055,12.434,10.355,20.054c0.283,13.429,0.018,26.858,0.105,40.287c-3.41,0-6.82,0-10.213,0
	c-0.071-12.187,0.106-24.371-0.053-36.558c-0.232-6.109-1.954-13.5-8.189-16.128c-10.09-4.477-21.333,4.316-22.186,14.619
	c-0.551,12.685-0.036,25.384-0.214,38.066c-3.411,0-6.82,0-10.214,0C748.088,512.482,748.105,482.445,748.105,452.391
	L748.105,452.391z M303.837,456.672c3.446-3.038,9.752-1.404,10.871,3.144c2.149,5.116-4.458,10.604-9.184,7.94
	C301.066,466.158,300.499,459.638,303.837,456.672z M184.187,457.222c3.89,0.036,7.797,0.089,11.688,0.179
	c6.164,24.104,13.837,47.801,19.468,72.027c6.022-24.263,13.802-48.083,20.499-72.188c3.393,0.036,6.803,0.054,10.214,0.088
	c6.199,24.069,13.713,47.819,19.237,72.029c5.897-24.141,12.683-48.067,18.989-72.101c3.784,0.019,7.566,0.019,11.35,0.019
	c-8.011,28.438-16.057,56.859-24.175,85.262c-4.085,0-8.154,0-12.221,0c-6.182-22.95-13.464-45.633-18.953-68.761
	c-5.312,23.163-12.719,45.847-19.006,68.777c-4.015-0.018-8.029-0.018-12.043,0.018
	C200.849,514.136,192.518,485.679,184.187,457.222z M685.492,457.276c13.18,0.834,27.158-2.291,39.682,2.966
	c16.751,7.622,17.373,33.838,2.896,44.07c-9.061,7.104-21.086,6.377-31.921,6.253c0,10.657,0,21.314,0,31.974
	c-3.57,0-7.105,0-10.657,0C685.492,514.117,685.492,485.697,685.492,457.276 M696.149,466.62
	c0.019,11.546-0.019,23.092,0.019,34.654c8.952-0.213,19.628,1.139,26.662-5.7c6.217-6.661,6.217-18.973-0.889-24.993
	C714.498,465.215,704.746,466.868,696.149,466.62L696.149,466.62z M337.676,490.989c5.471-8.366,15.792-13.074,25.65-10.462
	c9.414,1.546,14.867,11.102,15.187,20.001c0.355,13.997-0.018,27.995,0.144,41.991c-3.411,0-6.821,0.019-10.232,0.019
	c-0.106-12.683,0.178-25.366-0.089-38.03c-0.16-6.431-3.231-14.033-10.249-15.347c-9.947-2.719-19.646,6.288-20.072,16.021
	c-0.586,12.436-0.035,24.904-0.25,37.356c-3.392,0-6.785,0-10.194,0c-0.019-20.286,0-40.554,0-60.838c3.409,0,6.82,0,10.249,0
	C337.782,484.791,337.729,487.899,337.676,490.989z M477.861,481.646c9.876-2.948,21.688-2.521,30.072,4.015
	c12.187,9.982,13.146,28.723,7.427,42.401c-8.848,20.338-41.78,21.937-52.74,2.806C453.223,514.418,457.948,487.686,477.861,481.646
	 M481.2,490.031c-12.86,4.902-14.726,21.812-10.729,33.269c3.908,11.777,19.896,15.649,29.664,8.847
	c7.409-5.648,8.864-15.951,7.816-24.638c-0.604-6.412-3.516-12.984-9.219-16.376C493.421,488.254,486.849,488.059,481.2,490.031z
	 M616.979,485.519c7.959-7.212,20.002-6.571,29.452-2.931c-0.019,3.481,0,6.962,0.054,10.462
	c-6.199-3.481-14.229-6.342-20.926-2.522c-5.149,2.79-4.885,11.403,0.428,13.873c5.985,3.642,13.107,5.328,18.401,10.105
	c7.567,6.786,5.985,20.748-2.789,25.829c-9.077,5.577-20.747,4.652-30.215,0.532c-0.035-3.767-0.071-7.532-0.142-11.297
	c6.447,4.601,14.885,7.727,22.684,4.776c4.99-1.58,6.447-8.739,2.824-12.381c-6.005-5.134-14.265-6.555-20.25-11.724
	C609.236,504.152,609.697,491.434,616.979,485.519L616.979,485.519z M829.585,481.859c9.875-3.146,21.741-2.753,30.286,3.642
	c12.326,9.876,13.374,28.705,7.689,42.437c-8.757,20.622-42.026,22.062-52.934,2.719
	C805.604,514.33,810.062,488.129,829.585,481.859 M831.539,490.848c-12.452,6.945-13.5,25.383-6.716,36.626
	c7.354,11.244,27.373,10.729,32.95-1.988c4.191-10.231,4.015-23.856-4.05-32.168C847.896,487.81,838.537,487.633,831.539,490.848z
	 M893.654,490.794c6.607-11.03,22.809-14.388,33.146-6.696c6.324,5.187,7.603,13.908,7.779,21.601
	c0.125,12.271-0.017,24.547,0.055,36.82c-3.43,0-6.839,0.02-10.231,0.02c-0.179-12.56,0.338-25.135-0.248-37.693
	c-0.303-6.377-3.002-14.085-10.002-15.596c-10.213-2.967-20.373,6.395-20.338,16.52c-0.179,12.238,0.018,24.495-0.054,36.751
	c-3.411,0.02-6.819,0.02-10.214,0.02c0-20.286,0-40.554,0-60.838c3.411,0,6.821,0,10.231,0
	C893.743,484.738,893.727,487.774,893.654,490.794L893.654,490.794z M952.734,490.989c8.525-12.291,28.312-15.044,39.292-4.582
	c7.479,7.247,8.26,18.349,7.903,28.153c-14.46,0.019-28.899-0.019-43.341,0c0.674,6.82,2.592,14.529,9.075,18.137
	c9.521,5.507,21.493,2.147,29.931-3.892c-0.123,3.358-0.193,6.733-0.301,10.108c-9.735,5.328-21.707,7.121-32.312,3.409
	c-7.104-2.521-12.311-8.793-14.584-15.845C944.635,514.828,945.575,501.186,952.734,490.989 M963.782,492.961
	c-4.015,3.268-5.472,8.384-7.018,13.074c10.927,0.178,21.832,0.07,32.757,0.07c-0.48-4.478-1.014-9.344-4.281-12.771
	C979.895,487.17,969.484,487.438,963.782,492.961z M303.145,481.7c3.393,0,6.786,0,10.196-0.019c0.036,20.286,0,40.57,0.019,60.856
	c-3.41,0-6.804,0-10.196,0C303.127,522.252,303.145,501.984,303.145,481.7z M521.807,481.753c3.57-0.035,7.177-0.053,10.766-0.071
	c4.459,16.59,9.574,33.021,13.34,49.772c4.796-16.646,10.196-33.111,15.099-49.719c3.161-0.035,6.322-0.054,9.503-0.071
	c4.424,17.123,10.285,33.927,13.571,51.3c3.286-17.337,9.041-34.141,13.34-51.264c3.394,0,6.804,0,10.231,0
	c-6.183,20.25-12.167,40.569-18.351,60.818c-3.553,0.02-7.087,0.02-10.622,0.054c-4.422-15.861-9.468-31.545-13.465-47.517
	c-4.563,15.898-9.857,31.603-14.617,47.463c-3.465,0-6.909,0.02-10.355,0.036C534.1,522.288,527.971,502.003,521.807,481.753
	L521.807,481.753z M0,448.961l58.017-7.9l0.025,55.961l-57.988,0.329L0,448.961z M57.989,503.47l0.045,56.011l-57.988-7.974
	l-0.003-48.413L57.989,503.47z M65.022,440.026l76.924-11.228v67.51l-76.924,0.611V440.026z M141.964,503.995l-0.018,67.205
	l-76.924-10.856l-0.107-56.474L141.964,503.995z"/>
</svg>
