<?xml version="1.0" encoding="utf-8"?>
<!-- Generator: Adobe Illustrator 16.2.1, SVG Export Plug-In . SVG Version: 6.00 Build 0)  -->
<!DOCTYPE svg PUBLIC "-//W3C//DTD SVG 1.1//EN" "http://www.w3.org/Graphics/SVG/1.1/DTD/svg11.dtd">
<svg version="1.1" id="Layer_1" xmlns="http://www.w3.org/2000/svg" xmlns:xlink="http://www.w3.org/1999/xlink" x="0px" y="0px"
	 width="1000px" height="1000px" viewBox="0 0 1000 1000" enable-background="new 0 0 1000 1000" xml:space="preserve">
<path d="M309.114,443.656c4.16,0,8.338,0,12.52,0.021c-0.021,36.818,0,73.638,0,110.479c-4.181,0-8.359,0-12.52,0
	c0-4.007,0.021-8.015,0.087-12.021c-8.883,16.048-33.205,18.812-46.247,6.489c-7.881-7.293-10.691-18.398-10.974-28.807
	c-0.196-11.78,2.744-24.343,11.105-33.096c11.997-12.52,35.99-13.215,46.137,2.026C308.983,473.725,309.158,458.679,309.114,443.656
	 M279.241,489.989c-8.426,3.483-12.89,12.52-13.869,21.165c-1.329,10.188-0.218,22.208,8.033,29.395
	c8.426,7.662,22.775,6.009,29.808-2.723c7.251-8.71,6.25-20.947,5.552-31.506C307.612,492.71,291.369,484.11,279.241,489.989z
	 M691.234,443.656c4.159,0,8.339,0,12.521,0c-0.131,15.764,0.282,31.549-0.263,47.312c7.839-12.192,24.409-17.243,37.517-10.776
	c9.276,4.181,12.325,15.24,12.693,24.582c0.349,16.461,0.021,32.923,0.131,49.383c-4.18,0-8.36,0-12.519,0
	c-0.089-14.938,0.13-29.873-0.064-44.811c-0.285-7.489-2.396-16.548-10.039-19.77c-12.367-5.488-26.148,5.29-27.194,17.919
	c-0.675,15.547-0.044,31.114-0.262,46.66c-4.182,0-8.36,0-12.521,0C691.213,517.314,691.234,480.496,691.234,443.656
	L691.234,443.656z M146.664,448.904c4.225-3.725,11.954-1.723,13.326,3.853c2.633,6.272-5.466,13-11.257,9.734
	C143.267,460.53,142.571,452.539,146.664,448.904z M0,449.577c4.768,0.044,9.557,0.108,14.326,0.218
	c7.556,29.547,16.961,58.593,23.863,88.29c7.382-29.74,16.917-58.938,25.127-88.485c4.159,0.044,8.338,0.066,12.52,0.108
	c7.598,29.503,16.809,58.615,23.579,88.291c7.229-29.59,15.547-58.919,23.276-88.378c4.638,0.021,9.275,0.021,13.912,0.021
	c-9.819,34.859-19.682,69.697-29.633,104.513c-5.007,0-9.994,0-14.979,0c-7.578-28.132-16.505-55.936-23.232-84.285
	c-6.511,28.392-15.59,56.198-23.297,84.306c-4.921-0.021-9.842-0.021-14.763,0.021C20.423,519.341,10.211,484.459,0,449.577z
	 M614.485,449.644c16.154,1.023,33.29-2.809,48.641,3.636c20.533,9.342,21.295,41.478,3.55,54.02
	c-11.104,8.709-25.846,7.816-39.127,7.664c0,13.064,0,26.128,0,39.192c-4.377,0-8.71,0-13.062,0
	C614.485,519.318,614.485,484.481,614.485,449.644 M627.549,461.097c0.022,14.153-0.021,28.306,0.022,42.479
	c10.974-0.26,24.06,1.396,32.682-6.987c7.62-8.165,7.62-23.255-1.089-30.636C650.04,459.375,638.086,461.401,627.549,461.097
	L627.549,461.097z M188.142,490.968c6.706-10.255,19.357-16.024,31.441-12.824c11.54,1.896,18.224,13.608,18.615,24.519
	c0.436,17.156-0.021,34.313,0.175,51.471c-4.181,0-8.361,0.022-12.542,0.022c-0.131-15.546,0.218-31.094-0.109-46.616
	c-0.196-7.883-3.962-17.202-12.563-18.812c-12.193-3.333-24.082,7.707-24.604,19.639c-0.718,15.242-0.043,30.525-0.305,45.79
	c-4.159,0-8.317,0-12.497,0c-0.023-24.866,0-49.709,0-74.573c4.18,0,8.36,0,12.563,0C188.272,483.37,188.208,487.18,188.142,490.968
	z M359.977,479.516c12.106-3.612,26.586-3.091,36.862,4.921c14.938,12.237,16.112,35.208,9.104,51.975
	c-10.845,24.93-51.212,26.89-64.646,3.438C329.777,519.688,335.568,486.919,359.977,479.516 M364.07,489.793
	c-15.765,6.01-18.051,26.737-13.151,40.78c4.79,14.437,24.386,19.183,36.361,10.845c9.081-6.925,10.864-19.554,9.58-30.2
	c-0.74-7.859-4.31-15.917-11.301-20.074C379.051,487.616,370.995,487.376,364.07,489.793z M530.504,484.263
	c9.756-8.84,24.518-8.056,36.103-3.592c-0.022,4.269,0,8.534,0.064,12.824c-7.6-4.269-17.44-7.773-25.648-3.092
	c-6.313,3.419-5.987,13.979,0.522,17.005c7.338,4.464,16.067,6.532,22.557,12.389c9.276,8.317,7.338,25.432-3.419,31.66
	c-11.126,6.836-25.431,5.703-37.035,0.652c-0.044-4.616-0.089-9.232-0.175-13.849c7.903,5.641,18.245,9.472,27.806,5.856
	c6.116-1.938,7.902-10.713,3.462-15.176c-7.36-6.294-17.485-8.035-24.821-14.371C521.013,507.104,521.578,491.513,530.504,484.263
	L530.504,484.263z M791.11,479.777c12.104-3.854,26.648-3.375,37.124,4.464c15.107,12.105,16.394,35.186,9.427,52.016
	c-10.734,25.279-51.517,27.043-64.885,3.333C761.716,519.579,767.18,487.463,791.11,479.777 M793.506,490.795
	c-15.264,8.513-16.549,31.113-8.231,44.896c9.014,13.781,33.553,13.15,40.39-2.438c5.139-12.542,4.921-29.243-4.963-39.432
	C813.557,487.071,802.083,486.854,793.506,490.795z M869.645,490.729c8.102-13.52,27.959-17.637,40.631-8.207
	c7.752,6.356,9.316,17.048,9.535,26.477c0.152,15.043-0.021,30.089,0.066,45.135c-4.204,0-8.383,0.022-12.542,0.022
	c-0.218-15.395,0.414-30.811-0.305-46.203c-0.371-7.817-3.681-17.267-12.261-19.117c-12.519-3.636-24.973,7.839-24.93,20.249
	c-0.218,15.002,0.021,30.025-0.063,45.049c-4.183,0.022-8.36,0.022-12.521,0.022c0-24.866,0-49.709,0-74.573
	c4.183,0,8.361,0,12.542,0C869.754,483.306,869.73,487.027,869.645,490.729L869.645,490.729z M942.062,490.968
	c10.451-15.065,34.705-18.439,48.164-5.617c9.166,8.884,10.123,22.491,9.688,34.512c-17.725,0.021-35.425-0.022-53.126,0
	c0.826,8.359,3.177,17.81,11.124,22.229c11.671,6.75,26.346,2.634,36.688-4.769c-0.15,4.116-0.237,8.253-0.369,12.391
	c-11.933,6.53-26.606,8.729-39.604,4.179c-8.709-3.091-15.09-10.777-17.876-19.421C932.135,520.189,933.288,503.467,942.062,490.968
	 M955.605,493.386c-4.92,4.006-6.707,10.277-8.602,16.025c13.393,0.218,26.761,0.086,40.151,0.086
	c-0.591-5.487-1.242-11.452-5.248-15.653C975.354,486.287,962.595,486.614,955.605,493.386z M145.814,479.582
	c4.16,0,8.318,0,12.499-0.022c0.044,24.866,0,49.729,0.021,74.596c-4.18,0-8.338,0-12.497,0
	C145.792,529.289,145.814,504.446,145.814,479.582z M413.844,479.646c4.376-0.043,8.796-0.064,13.195-0.087
	c5.466,20.337,11.736,40.477,16.352,61.01c5.879-20.402,12.499-40.587,18.508-60.945c3.875-0.042,7.75-0.064,11.647-0.087
	c5.421,20.989,12.607,41.586,16.635,62.882c4.028-21.251,11.082-41.849,16.353-62.838c4.159,0,8.339,0,12.542,0
	c-7.577,24.822-14.914,49.729-22.493,74.551c-4.355,0.022-8.688,0.022-13.02,0.064c-5.421-19.442-11.605-38.667-16.506-58.243
	c-5.595,19.486-12.084,38.736-17.919,58.179c-4.246,0-8.469,0.022-12.692,0.044C428.913,529.334,421.4,504.469,413.844,479.646
	L413.844,479.646z"/>
</svg>
