<?xml version="1.0" encoding="utf-8"?>
<!-- Generator: Adobe Illustrator 16.2.1, SVG Export Plug-In . SVG Version: 6.00 Build 0)  -->
<!DOCTYPE svg PUBLIC "-//W3C//DTD SVG 1.1//EN" "http://www.w3.org/Graphics/SVG/1.1/DTD/svg11.dtd">
<svg version="1.1" id="Layer_1" xmlns="http://www.w3.org/2000/svg" xmlns:xlink="http://www.w3.org/1999/xlink" x="0px" y="0px"
	 width="1000px" height="1000px" viewBox="0 0 1000 1000" enable-background="new 0 0 1000 1000" xml:space="preserve">
<path d="M450.206,464.021h-51.527v5.466c16.116,0,18.706,3.454,18.706,23.893v36.848c0,20.439-2.587,24.182-18.706,24.182
	c-12.376-1.729-20.728-8.35-32.242-21.014l-13.24-14.393c17.846-3.17,27.344-14.393,27.344-27.062
	c0-15.83-13.526-27.919-38.86-27.919h-50.662v5.466c16.117,0,18.709,3.454,18.709,23.893v36.848
	c0,20.439-2.592,24.182-18.709,24.182v5.469h57.281v-5.469c-16.116,0-18.707-3.742-18.707-24.182v-10.358h4.892l31.953,40.009
	h83.769c41.161,0,59.01-21.876,59.01-48.074C509.216,485.607,491.369,464.021,450.206,464.021z M329.594,510.937v-38.28h11.799
	c12.951,0,18.713,8.924,18.713,19.286c0,10.078-5.762,18.997-18.713,18.997h-11.799V510.937z M451.069,550.952h-2.017
	c-10.359,0-11.801-2.588-11.801-15.83v-62.466c0,0,12.667,0,13.817,0c29.936,0,35.404,21.875,35.404,38.86
	C486.474,529.074,481.005,550.952,451.069,550.952z M130.687,521.594l19.864-58.729c5.759-16.982,3.167-21.873-15.256-21.873v-5.759
	h54.117v5.759c-18.134,0-22.452,4.315-29.648,25.329l-32.819,98.448h-3.74l-29.366-90.101L63.905,564.77h-3.742l-31.952-98.448
	C21.303,445.308,16.697,440.992,0,440.992v-5.759h63.905v5.759c-16.986,0-21.594,4.029-15.545,21.873l19.286,58.729l29.074-86.361
	h5.471L130.687,521.594z M228.555,563.617c-31.663,0-57.571-23.315-57.571-51.816c0-28.21,25.911-51.527,57.571-51.527
	c31.666,0,57.571,23.317,57.571,51.527C286.126,540.302,260.221,563.617,228.555,563.617z M228.555,469.202
	c-26.479,0-35.694,23.888-35.694,42.601c0,19.002,9.214,42.605,35.694,42.605c26.773,0,35.985-23.604,35.985-42.605
	C264.541,493.09,255.329,469.202,228.555,469.202z M580.312,554.119v5.758h-65.92v-5.758c19.288,0,22.742-4.893,22.742-33.683
	v-46.055c0-28.79-3.454-33.392-22.742-33.392v-5.759h59.586c29.648,0,46.061,15.257,46.061,35.698
	c0,19.863-16.412,35.407-46.061,35.407H557.57v14.099C557.57,549.227,561.024,554.119,580.312,554.119z M573.979,445.592H557.57
	v50.09h16.408c16.123,0,23.605-11.225,23.605-24.754C597.584,457.11,590.102,445.592,573.979,445.592z M817.793,532.819l-1.439,5.18
	c-2.59,9.499-5.76,12.953-26.198,12.953h-4.029c-14.968,0-17.558-3.454-17.558-23.89v-13.24c22.453,0,24.182,2.012,24.182,16.982
	h5.468v-42.894h-5.468c0,14.968-1.729,16.982-24.182,16.982v-32.236h15.827c20.443,0,23.606,3.454,26.198,12.953l1.441,5.469h4.604
	l-2.013-27.058h-84.633v5.466c16.116,0,18.711,3.454,18.711,23.893v36.848c0,18.697-2.201,23.407-14.911,24.08
	c-12.077-1.847-20.37-8.435-31.719-20.912l-13.242-14.393c17.849-3.17,27.349-14.393,27.349-27.062
	c0-15.83-13.528-27.919-38.86-27.919H626.66v5.466c16.116,0,18.709,3.454,18.709,23.893v36.848c0,20.439-2.59,24.182-18.709,24.182
	v5.469h57.285v-5.469c-16.119,0-18.713-3.742-18.713-24.182v-10.358h4.895l31.951,40.009h118.309l1.729-27.056h-4.322V532.819z
	 M665.232,510.937v-38.28h11.798c12.956,0,18.716,8.924,18.716,19.286c0,10.078-5.76,18.997-18.716,18.997h-11.798V510.937z
	 M876.228,563.617c-11.515,0-21.592-6.044-25.909-9.789c-1.439,1.441-4.029,5.76-4.604,9.789h-5.471v-39.723H846
	c2.306,19,15.543,30.225,32.528,30.225c9.213,0,16.698-5.182,16.698-13.814c0-7.483-6.621-13.242-18.424-18.711l-16.407-7.771
	c-11.517-5.473-20.152-14.975-20.152-27.638c0-13.817,12.956-25.618,30.803-25.618c9.499,0,17.558,3.456,22.455,7.485
	c1.437-1.153,2.876-4.32,3.742-7.776h5.469v33.97h-6.046c-2.017-13.531-9.5-24.756-24.754-24.756
	c-8.061,0-15.548,4.604-15.548,11.805c0,7.483,6.046,11.512,19.865,17.844l15.827,7.772c13.82,6.621,19.286,17.275,19.286,25.911
	C911.343,550.952,895.511,563.617,876.228,563.617z M964.885,563.617c-11.517,0-21.594-6.044-25.907-9.789
	c-1.439,1.441-4.029,5.76-4.604,9.789h-5.471v-39.723h5.758c2.303,19,15.543,30.225,32.527,30.225
	c9.211,0,16.696-5.182,16.696-13.814c0-7.483-6.618-13.242-18.424-18.711l-16.407-7.771c-11.515-5.473-20.152-14.975-20.152-27.638
	c0-13.817,12.953-25.618,30.803-25.618c9.499,0,17.558,3.456,22.453,7.485c1.438-1.153,2.878-4.32,3.737-7.776h5.474v33.97h-6.044
	c-2.017-13.531-9.5-24.756-24.754-24.756c-8.061,0-15.548,4.604-15.548,11.805c0,7.483,6.046,11.512,19.863,17.844l15.829,7.772
	c13.82,6.621,19.286,17.275,19.286,25.911C1000,550.952,984.168,563.617,964.885,563.617z"/>
</svg>
