<?xml version="1.0" encoding="utf-8"?>
<!-- Generator: Adobe Illustrator 16.2.1, SVG Export Plug-In . SVG Version: 6.00 Build 0)  -->
<!DOCTYPE svg PUBLIC "-//W3C//DTD SVG 1.1//EN" "http://www.w3.org/Graphics/SVG/1.1/DTD/svg11.dtd">
<svg version="1.1" id="Layer_1" xmlns="http://www.w3.org/2000/svg" xmlns:xlink="http://www.w3.org/1999/xlink" x="0px" y="0px"
	 width="1000px" height="1000px" viewBox="0 0 1000 1000" enable-background="new 0 0 1000 1000" xml:space="preserve">
<path fill-rule="evenodd" clip-rule="evenodd" d="M145.37,540.389c-2.584,0-5.169,0.017-7.752-0.012
	c-0.777-0.008-1.016,0.23-0.911,1.035c0.207,1.582,0.534,3.121,1.189,4.578c1.231,2.737,3.567,4.006,6.321,4.663
	c2.527,0.604,5.077,0.674,7.683,0.498c4.688-0.316,9.174-1.413,13.544-3.044c2.485-0.927,4.896-2.032,7.19-3.379
	c1.218-0.715,1.383-0.647,2.021,0.628c3.767,7.516,7.521,15.038,11.31,22.543c0.408,0.808,0.363,1.225-0.482,1.71
	c-7.252,4.166-14.741,7.788-22.844,9.992c-3.393,0.923-6.862,1.428-10.37,1.741c-3.163,0.281-6.324,0.451-9.491,0.336
	c-9.987-0.366-19.448-2.578-27.784-8.382c-7.562-5.266-12.633-12.391-15.326-21.192c-1.421-4.644-1.995-9.438-1.935-14.271
	c0.167-13.298,4.062-25.351,12.434-35.8c3.708-4.629,8.132-8.506,13.12-11.725c5.69-3.672,11.841-6.284,18.384-8.012
	c6.623-1.749,13.376-2.286,20.174-1.891c8.068,0.468,15.82,2.272,22.726,6.717c6.126,3.942,10.629,9.246,12.386,16.424
	c2.418,9.883-0.008,18.389-7.82,25.169c-4.729,4.105-10.28,6.608-16.206,8.378c-4.626,1.382-9.366,2.148-14.16,2.725
	C154.307,540.354,149.844,540.365,145.37,540.389z M142.34,522.765c1.584-0.002,3.163-0.1,4.745-0.179
	c3.125-0.156,6.155-0.716,9.054-1.862c2.606-1.031,4.775-2.567,5.695-5.435c1.297-4.049-0.936-8.269-4.88-8.98
	c-4.44-0.803-8.356,0.386-11.593,3.497c-3.5,3.365-5.408,7.67-6.819,12.229c-0.179,0.579,0.056,0.741,0.595,0.733
	C140.204,522.752,141.272,522.764,142.34,522.765z M93.109,508.314l4.695-25.495h-79.57l-4.689,26.933h34.41L3.94,556.101L0,579.457
	h82.284l4.804-27.171H51.263L93.109,508.314z M698.048,577.906c8.806-3.92,15.871-9.794,20.167-18.587
	c2.682-5.488,3.463-11.359,3.19-17.436c-0.417-9.314-4.481-16.428-12.494-21.233c-5.451-3.27-11.495-4.918-17.598-6.437
	c-3.252-0.81-6.548-1.539-9.626-2.909c-2.248-1-3.093-2.599-2.748-4.707c0.256-1.56,1.96-2.857,3.994-3.277
	c2.873-0.592,5.733-0.316,8.548,0.145c6.472,1.062,18.187,7.071,18.187,7.071l17.221-23.746c0,0-12.75-7.815-19.767-9.674
	c-5.632-1.492-11.345-2.474-17.159-3.082c-5.218-0.545-10.363-0.344-15.503,0.31c-5.454,0.695-10.721,2.188-15.754,4.458
	c-7.767,3.502-13.927,8.781-17.968,16.342c-2.98,5.579-3.731,11.632-3.229,17.843c0.572,7.053,3.592,12.949,8.776,17.77
	c5.272,4.901,11.675,7.667,18.397,9.833c4.321,1.392,8.728,2.536,12.923,4.296c2.182,0.915,3.288,2.632,3.028,4.419
	c-0.244,1.678-2,3.138-4.169,3.468c-5.531,0.841-10.923,0.1-16.24-1.447c-5.623-1.637-16.441-6.751-16.441-6.751l-17.934,23.342
	c0,0,6.32,5.277,9.023,6.629c11.81,5.9,24.395,8.358,38.267,8.524C681.252,582.905,689.886,581.54,698.048,577.906z
	 M490.307,525.405c0.046,7.942-1.153,15.453-3.881,22.694c-4.254,11.291-11.65,19.927-22.073,25.974
	c-5.804,3.368-12.026,5.664-18.628,6.805c-6.188,1.069-12.417,1.435-18.706,0.766c-8.483-0.903-16.264-3.605-23.098-8.738
	c-7.826-5.878-12.737-13.729-15.148-23.176c-1.663-6.513-1.848-13.106-1.243-19.779c0.613-6.755,2.177-13.239,5.007-19.396
	c5.693-12.386,15.017-20.946,27.588-26.092c9.3-3.807,19.027-4.869,28.926-4.24c8.646,0.549,16.687,3.234,23.81,8.307
	c6.494,4.625,11.114,10.735,14.088,18.111c1.8,4.464,2.841,9.094,3.176,13.903C490.244,522.239,490.263,523.93,490.307,525.405z
	 M426.224,538.118c-0.059,3.729,0.208,7.414,1.516,10.938c1.178,3.172,3.201,5.411,6.817,5.688c2.991,0.229,5.49-0.871,7.602-2.922
	c3.268-3.172,5.18-7.143,6.564-11.396c1.407-4.325,2.263-8.753,2.528-13.312c0.271-4.662,0.119-9.249-1.315-13.742
	c-2.149-6.737-8.769-7.621-13.19-4.32c-2.7,2.016-4.543,4.728-5.962,7.734C427.599,523.54,426.231,530.687,426.224,538.118z
	 M500.352,544.844l-6.019,34.896h34.458l6.18-34.896H500.352z M236.148,570.133c-1.088,6.105-8.194,44.132-8.194,44.132h-37.466
	l23.775-131.718l32.958-0.091l1.209,9.924c0,0,1.108-0.989,1.562-1.407c4.48-4.121,9.448-7.459,15.396-9.017
	c7.692-2.014,15.287-1.899,22.524,1.813c5.371,2.755,9.021,7.173,11.68,12.502c3.274,6.565,4.501,13.59,4.689,20.842
	c0.213,8.193-0.444,16.311-2.518,24.261c-2.649,10.155-6.889,19.5-14.344,27.116c-5.975,6.105-13.132,10.101-21.627,11.267
	c-10.822,1.484-20.571-0.91-28.595-8.754C236.95,570.761,236.663,570.558,236.148,570.133z M267.031,522.93
	c-0.32-2.404-0.531-4.829-0.987-7.207c-0.531-2.771-1.962-5.086-4.346-6.656c-2.995-1.972-6.037-1.506-8.948,0.217
	c-3.174,1.878-5.56,4.614-6.86,7.994c-0.917,2.381-6.18,32.91-5.888,33.103c4.117,2.714,8.828,3.952,13.557,2.02
	c3.285-1.343,5.508-3.969,7.333-6.896C265.191,538.611,266.659,530.954,267.031,522.93z M332.369,462.074l-3.667,20.457h-12.999
	l-4.546,24.282h12.766c0,0-4.943,28.261-6.513,38.03c-0.746,4.642-1.296,9.315-0.541,14.056c0.988,6.207,3.83,11.336,8.617,15.354
	c5.287,4.437,11.597,6.271,18.343,6.557c10.083,0.426,19.81-1.324,29.007-5.57c2.963-1.368,8.738-4.547,8.738-4.547l-10.378-23.169
	c0,0-2.498,1.423-3.705,1.986c-2.865,1.338-5.816,2.307-9.051,1.657c-1.896-0.382-3.053-1.482-3.305-3.402
	c-0.167-1.272-0.275-2.613-0.064-3.865c0.916-5.437,1.979-10.847,2.949-16.273c1.149-6.426,3.712-20.855,3.712-20.855h24.934
	l4.37-24.332h-24.82l3.618-20.364H332.369z M546.54,569.329c7.76,9.993,18.773,13.426,31.505,13.804
	c5.38,0.159,10.702-0.483,15.871-2.062c6.459-1.971,11.994-5.384,16.35-10.617c4.231-5.084,6.925-10.951,8.519-17.3
	c1.114-4.44,1.896-8.969,2.744-13.474c1.099-5.831,11.173-63.032,11.173-63.032h-37.363c0,0-13.057,68.507-13.854,72.115
	c-0.853,3.865-6.879,3.723-8.677,2.353c-2.328-1.775-7.701-6.564-7.701-6.564l-23.679,17.595
	C541.428,562.146,545.207,567.612,546.54,569.329z M885.735,385.735c-63.106,0-114.265,51.158-114.265,114.265
	c0,63.107,51.158,114.265,114.265,114.265S1000,563.107,1000,500C1000,436.894,948.842,385.735,885.735,385.735z M848.893,487.261
	c-20.206,29.472-47.717,50.855-55.968,50.855c-6.638,0-9.485-12.84-11.75-25.562c-2.266-12.723,1.035-30.026,3.288-39.134
	c1.811-7.318,8.556-21.005,12.447-21.005c3.893,0,72.066,0,72.066,0S863.643,465.748,848.893,487.261z M976.643,547.266
	c-3.928,0-72.723,0-72.723,0s5.383-12.704,20.268-33.204c20.391-28.084,49.481-48.46,57.808-48.46
	c6.697,0,8.97,12.511,10.796,24.627c1.839,12.199-1.313,28.343-3.587,37.021C987.377,534.224,980.57,547.266,976.643,547.266z"/>
</svg>
