<?xml version="1.0" encoding="utf-8"?>
<!-- Generator: Adobe Illustrator 16.2.1, SVG Export Plug-In . SVG Version: 6.00 Build 0)  -->
<!DOCTYPE svg PUBLIC "-//W3C//DTD SVG 1.1//EN" "http://www.w3.org/Graphics/SVG/1.1/DTD/svg11.dtd">
<svg version="1.1" id="Layer_1" xmlns="http://www.w3.org/2000/svg" xmlns:xlink="http://www.w3.org/1999/xlink" x="0px" y="0px"
	 width="552.372px" height="726.891px" viewBox="0 0 552.372 726.891" enable-background="new 0 0 552.372 726.891"
	 xml:space="preserve">
<path d="M186.206,406.418c8.859-8.848,16.896-16.865,24.921-24.896c8.29-8.296,16.629-16.548,24.811-24.949
	c2.208-2.267,3.575-2.108,5.764,0.114c13.619,13.812,27.341,27.534,41.152,41.159c2.407,2.371,2.59,3.832,0.085,6.326
	c-45.879,45.748-91.688,91.568-137.456,137.434c-2.042,2.049-3.347,2.287-5.495,0.123c-13.992-14.105-28.113-28.08-42.161-42.125
	c-14.303-14.309-28.558-28.65-42.854-42.955c-17.937-17.949-35.872-35.9-53.887-53.764c-1.757-1.742-1.163-2.611,0.231-4
	c10.512-10.463,20.958-20.994,31.444-31.482c3.639-3.636,7.482-7.083,10.954-10.874c2.097-2.292,3.374-1.995,5.417,0.071
	c15,15.151,30.09,30.205,45.213,45.23c1.189,1.184,2.207,3.664,4.01,2.902c1.438-0.607,0.618-3.062,0.62-4.68
	c0.03-88.028-0.083-176.052,0.112-264.08c0.042-19.138,1.205-38.255,6.188-56.933c9.354-35.051,31.591-57.7,65.815-68.993
	c16.829-5.553,34.134-8.314,51.795-9.139c28.846-1.347,57.713-0.956,86.55-0.354c25.797,0.536,51.32,3.824,75.789,12.69
	c25.84,9.361,46.967,24.6,60.305,49.298c7.15,13.237,11.035,27.479,13.02,42.312c1.93,14.416,1.338,28.91,1.508,43.385
	c0.039,3.504-2.014,3.412-4.439,3.409c-29.938-0.024-59.879-0.018-89.82-0.018c-1.197,0-2.406-0.106-3.592,0.02
	c-2.834,0.297-3.803-0.98-3.791-3.727c0.045-9.342,0.166-18.69-0.168-28.021c-0.369-10.212-3.047-19.907-8.615-28.552
	c-8.922-13.859-22.035-21.547-38.223-22.241c-23.08-0.991-46.248-1.092-69.319,0.048c-17.277,0.857-32.858,6.755-43.372,21.768
	c-7.496,10.702-10.412,22.975-11.811,35.736c-0.926,8.479-0.695,16.977-0.695,25.472c-0.007,82.996-0.003,165.992-0.001,248.99
	C186.206,402.529,186.206,403.938,186.206,406.418z M366.844,326.56c0,79.881,0,159.76-0.006,239.641
	c0,10.771,0.285,21.555-0.703,32.301c-1.062,11.523-3.352,22.76-9.088,32.979c-9.652,17.188-25.539,24.646-44.146,26.133
	c-23.748,1.895-47.625,1.691-71.399,0.227c-27.636-1.705-44.194-22.318-46.73-47.867c-1.012-10.164-0.521-20.338-0.547-30.502
	c-0.01-3.266-0.989-4.395-4.301-4.344c-10.658,0.168-21.317,0.064-31.977,0.064c-20.357-0.004-40.718-0.012-61.077-0.004
	c-1.866,0.002-3.91-0.475-3.872,2.668c0.23,18.049-0.797,36.143,2.92,54.031c3.306,15.918,8.929,30.818,18.537,43.988
	c12.364,16.941,29.053,28.242,48.323,35.961c25.243,10.111,51.792,13.885,78.67,14.441c30.511,0.635,61.061,1.15,91.573-0.455
	c17.896-0.938,35.428-4,52.312-10.158c31.791-11.594,52.795-33.285,61.785-66.207c4.574-16.75,6.373-33.854,6.396-51.133
	c0.1-90.781,0.064-181.559,0.1-272.336c0-1.574-0.373-3.241,0.434-4.894c0.539,0.339,0.885,0.478,1.125,0.72
	c15.893,15.914,31.789,31.821,47.648,47.765c3.348,3.361,3.359,3.5,6.723,0.156c13.822-13.776,27.564-27.63,41.418-41.375
	c1.91-1.898,1.846-3.271,0.023-5.061c-4.258-4.196-8.404-8.511-12.641-12.73c-20.322-20.278-40.676-40.528-60.992-60.816
	c-21.584-21.554-43.168-43.111-64.664-64.755c-2.096-2.112-3.404-1.783-5.264,0.097c-14.324,14.45-28.676,28.869-43.07,43.251
	c-31.488,31.469-62.992,62.926-94.546,94.333c-2.342,2.333-2.588,3.904-0.052,6.4c13.832,13.601,27.554,27.318,41.169,41.139
	c2.357,2.396,3.693,2.312,6.012-0.031c15.492-15.673,31.119-31.21,46.723-46.769c0.807-0.799,1.369-1.985,3.189-2.164
	C366.844,323.065,366.844,324.812,366.844,326.56z"/>
</svg>
