<?xml version="1.0" encoding="utf-8"?>
<!-- Generator: Adobe Illustrator 16.2.1, SVG Export Plug-In . SVG Version: 6.00 Build 0)  -->
<!DOCTYPE svg PUBLIC "-//W3C//DTD SVG 1.1//EN" "http://www.w3.org/Graphics/SVG/1.1/DTD/svg11.dtd">
<svg version="1.1" id="Layer_1" xmlns="http://www.w3.org/2000/svg" xmlns:xlink="http://www.w3.org/1999/xlink" x="0px" y="0px"
	 width="744.013px" height="320.336px" viewBox="0 0 744.013 320.336" enable-background="new 0 0 744.013 320.336"
	 xml:space="preserve">
<path d="M234.176,179.104c3.904-3.898,7.445-7.433,10.982-10.973c3.653-3.656,7.328-7.292,10.935-10.994
	c0.973-1,1.576-0.929,2.541,0.05c6,6.088,12.046,12.134,18.134,18.138c1.061,1.045,1.141,1.688,0.037,2.789
	c-20.219,20.159-40.406,40.35-60.574,60.562c-0.9,0.902-1.475,1.007-2.422,0.054c-6.166-6.215-12.39-12.372-18.58-18.563
	c-6.303-6.303-12.584-12.625-18.885-18.928c-7.904-7.908-15.807-15.818-23.747-23.695c-0.775-0.767-0.513-1.149,0.101-1.762
	c4.633-4.613,9.236-9.254,13.858-13.873c1.604-1.604,3.297-3.123,4.827-4.792c0.924-1.01,1.487-0.879,2.387,0.029
	c6.609,6.677,13.261,13.308,19.925,19.933c0.524,0.523,0.972,1.614,1.767,1.278c0.633-0.268,0.273-1.346,0.274-2.062
	c0.014-38.791-0.036-77.583,0.05-116.375c0.019-8.434,0.531-16.859,2.728-25.09c4.12-15.446,13.922-25.427,29.003-30.404
	c7.416-2.449,15.042-3.664,22.825-4.027c12.711-0.594,25.433-0.42,38.141-0.154C299.85,0.48,311.1,1.93,321.881,5.837
	c11.388,4.125,20.697,10.841,26.576,21.725c3.15,5.833,4.861,12.111,5.736,18.647c0.852,6.353,0.589,12.74,0.662,19.119
	c0.021,1.544-0.888,1.504-1.957,1.502c-13.194-0.01-26.386-0.007-39.581-0.007c-0.529,0-1.06-0.047-1.583,0.009
	c-1.252,0.131-1.678-0.432-1.673-1.641c0.022-4.116,0.074-8.238-0.071-12.35c-0.163-4.5-1.344-8.772-3.801-12.583
	c-3.931-6.107-9.708-9.496-16.84-9.802c-10.171-0.436-20.38-0.481-30.55,0.021c-7.613,0.377-14.479,2.976-19.112,9.594
	c-3.304,4.716-4.588,10.124-5.205,15.749c-0.408,3.734-0.307,7.48-0.307,11.223c-0.003,36.575-0.001,73.15-0.001,109.726
	C234.176,177.39,234.176,178.012,234.176,179.104z M194.791,313.854c2.011-0.002,2.064-0.087,1.308-1.908
	c-0.121-0.293-0.257-0.578-0.385-0.869c-3.874-8.785-7.753-17.568-11.618-26.356c-9.13-20.761-18.253-41.528-27.383-62.291
	c-5.838-13.276-11.689-26.55-17.531-39.825c-4.419-10.043-8.855-20.08-13.218-30.148c-0.618-1.427-1.422-1.916-2.974-1.911
	c-16.415,0.053-32.83,0.06-49.244-0.008c-1.76-0.008-2.577,0.582-3.27,2.179c-7.76,17.851-15.585,35.673-23.428,53.487
	c-8.075,18.348-16.205,36.67-24.277,55.016c-7.436,16.898-14.826,33.818-22.24,50.729c-0.836,1.905-0.847,1.908,1.162,1.908
	c14.726,0.002,29.451-0.021,44.176,0.036c1.521,0.005,2.221-0.493,2.764-1.894c3.868-9.984,7.838-19.93,11.718-29.911
	c0.511-1.315,1.161-1.845,2.642-1.841c23.486,0.049,46.974,0.048,70.461,0.006c1.494-0.002,2.257,0.447,2.81,1.876
	c3.872,9.985,7.861,19.921,11.725,29.911c0.555,1.436,1.3,1.861,2.784,1.85c7.283-0.072,14.566-0.033,21.851-0.033
	C180.013,313.855,187.402,313.859,194.791,313.854z M99.907,190.682c7.627,19.221,15.229,38.452,22.837,57.678
	c0.136,0.345,0.263,0.692,0.396,1.036c0.24,0.612,0.023,0.904-0.624,0.902c-0.369,0-0.739,0.011-1.108,0.011
	c-15.36,0.002-30.72,0.002-46.081,0c-2.225,0-2.233-0.007-1.428-2.035c6.865-17.31,13.735-34.621,20.598-51.933
	c1.03-2.6,2.021-5.217,3.042-7.815c0.185-0.474,0.239-1.026,0.795-1.413C99.124,188.202,99.433,189.487,99.907,190.682z
	 M426.018,150.555c-1.275-0.007-1.994,0.367-2.529,1.584c-8.76,20-17.557,39.983-26.357,59.969
	c-9.059,20.563-18.146,41.114-27.196,61.683c-5.562,12.648-11.081,25.317-16.624,37.977c-0.913,2.083-0.921,2.092,1.286,2.092
	c14.725,0,29.448-0.018,44.169,0.024c1.309,0.003,1.973-0.396,2.449-1.636c3.869-9.929,7.855-19.811,11.686-29.746
	c0.662-1.724,1.523-2.264,3.348-2.258c23.273,0.063,46.547,0.059,69.82,0.002c1.666-0.002,2.393,0.572,2.975,2.082
	c3.857,9.985,7.834,19.93,11.729,29.905c0.473,1.208,1.121,1.656,2.447,1.652c14.834-0.046,29.66-0.025,44.49-0.03
	c1.789-0.001,1.863-0.104,1.139-1.761c-2.223-5.07-4.467-10.13-6.691-15.198c-9.533-21.681-19.064-43.361-28.596-65.043
	c-11.65-26.511-23.312-53.02-34.932-79.546c-0.582-1.327-1.318-1.771-2.74-1.763c-8.283,0.062-16.572,0.029-24.855,0.03
	C442.693,150.579,434.355,150.601,426.018,150.555z M456.598,200.684c6.262,15.833,12.51,31.67,18.77,47.504
	c0.838,2.123,0.85,2.119-1.496,2.12c-15.246,0.001-30.49,0.001-45.734,0c-2.268-0.001-2.316-0.054-1.469-2.189
	c7.496-18.92,15.004-37.834,22.504-56.752c0.559-1.406,1.098-2.819,1.646-4.23c0.131,0.02,0.262,0.031,0.393,0.048
	C453.008,191.684,454.816,196.177,456.598,200.684z M313.781,143.913c0,35.202,0,70.404-0.002,105.607
	c0,4.746,0.125,9.499-0.312,14.233c-0.468,5.078-1.473,10.027-4.004,14.533c-4.254,7.574-11.255,10.861-19.455,11.518
	c-10.464,0.834-20.989,0.745-31.466,0.102c-12.179-0.752-19.476-9.836-20.592-21.099c-0.447-4.479-0.232-8.961-0.242-13.438
	c-0.004-1.438-0.435-1.938-1.895-1.914c-4.698,0.072-9.394,0.024-14.091,0.024c-8.972,0-17.945-0.002-26.916,0
	c-0.824,0-1.725-0.208-1.706,1.176c0.101,7.953-0.353,15.927,1.286,23.812c1.457,7.014,3.935,13.58,8.169,19.386
	c5.449,7.468,12.803,12.446,21.295,15.849c11.123,4.455,22.824,6.115,34.668,6.365c13.445,0.279,26.909,0.508,40.355-0.197
	c7.887-0.414,15.61-1.765,23.053-4.479c14.011-5.106,23.265-14.667,27.23-29.175c2.016-7.385,2.807-14.924,2.817-22.535
	c0.044-40.006,0.026-80.008,0.044-120.015c0-0.694-0.165-1.427,0.189-2.155c0.238,0.149,0.389,0.21,0.496,0.318
	c7.003,7.013,14.009,14.023,20.999,21.049c1.473,1.48,1.479,1.543,2.958,0.066c6.092-6.068,12.148-12.176,18.252-18.232
	c0.842-0.836,0.812-1.442,0.012-2.231c-1.877-1.85-3.705-3.75-5.57-5.609c-8.957-8.937-17.924-17.861-26.879-26.803
	c-9.512-9.498-19.02-18.998-28.496-28.536c-0.924-0.931-1.499-0.786-2.318,0.042c-6.314,6.368-12.639,12.723-18.98,19.06
	c-13.876,13.868-27.76,27.729-41.667,41.571c-1.032,1.028-1.14,1.722-0.022,2.821c6.096,5.993,12.143,12.039,18.142,18.128
	c1.041,1.055,1.629,1.018,2.65-0.016c6.827-6.906,13.713-13.753,20.59-20.608c0.353-0.352,0.602-0.875,1.404-0.955
	C313.781,142.371,313.781,143.142,313.781,143.913z M742.51,313.846c0.496-0.001,1.188,0.269,1.447-0.281
	c0.258-0.541-0.449-0.872-0.672-1.329c-0.088-0.187-0.254-0.338-0.389-0.496c-3.26-3.94-6.525-7.882-9.781-11.826
	c-8.818-10.703-17.639-21.404-26.449-32.113c-9.955-12.098-19.873-24.225-29.889-36.271c-1.15-1.384-1.117-2.209-0.025-3.558
	c12.564-15.556,25.066-31.154,37.59-46.746c7.793-9.703,15.598-19.405,23.387-29.116c0.277-0.348,0.836-0.655,0.574-1.19
	c-0.254-0.515-0.844-0.328-1.293-0.328c-16.783-0.008-33.568-0.003-50.354-0.016c-0.902,0-1.596,0.2-2.162,0.999
	c-6.166,8.75-12.369,17.48-18.555,26.22c-4.969,7.02-9.906,14.059-14.898,21.061c-1.557,2.182-1.604,2.135-3.205-0.136
	c-10.996-15.554-22-31.099-32.973-46.668c-0.744-1.061-1.562-1.503-2.873-1.494c-7.703,0.05-15.41,0.024-23.115,0.024
	c-8.869,0-17.736-0.005-26.602,0.006c-0.5,0-1.168-0.212-1.453,0.324c-0.299,0.562,0.355,0.912,0.596,1.35
	c0.074,0.136,0.195,0.247,0.295,0.37c5.021,6.251,10.051,12.497,15.062,18.757c9.332,11.648,18.645,23.316,27.988,34.957
	c5.812,7.236,11.678,14.43,17.502,21.654c1.447,1.793,1.408,1.802-0.021,3.539c-12.686,15.388-25.369,30.773-38.049,46.166
	c-9.527,11.563-19.049,23.138-28.562,34.711c-0.283,0.345-0.867,0.666-0.635,1.17c0.234,0.49,0.852,0.27,1.301,0.27
	c17.416,0.012,34.832,0.001,52.25,0.021c0.994,0.002,1.65-0.309,2.242-1.129c3.67-5.094,7.414-10.135,11.086-15.224
	c8.828-12.235,17.627-24.489,26.445-36.729c1.203-1.672,1.225-1.66,2.457,0.051c5.521,7.658,11.049,15.318,16.574,22.975
	c6.857,9.499,13.732,18.979,20.555,28.502c0.824,1.153,1.727,1.586,3.145,1.575c8.496-0.062,16.996-0.03,25.492-0.03
	C725.201,313.855,733.854,313.859,742.51,313.846z"/>
</svg>
