<?xml version="1.0" encoding="utf-8"?>
<!-- Generator: Adobe Illustrator 16.2.1, SVG Export Plug-In . SVG Version: 6.00 Build 0)  -->
<!DOCTYPE svg PUBLIC "-//W3C//DTD SVG 1.1//EN" "http://www.w3.org/Graphics/SVG/1.1/DTD/svg11.dtd">
<svg version="1.1" id="Layer_1" xmlns="http://www.w3.org/2000/svg" xmlns:xlink="http://www.w3.org/1999/xlink" x="0px" y="0px"
	 width="750px" height="697.764px" viewBox="0 0 750 697.764" enable-background="new 0 0 750 697.764" xml:space="preserve">
<path d="M89.312,697.711v-78.896H54.215c-17.489,0-31.394,12.316-31.394,28.5c0,16.168,14.249,28.484,31.748,28.484h17.255v21.912
	h-17.33c-30.096,0-54.495-22.564-54.495-50.396c0-27.846,24.399-50.406,54.495-50.406h56.565v100.805L89.312,697.711L89.312,697.711
	z M183.11,593.119c-28.895,0-52.318,19.879-52.318,50.018v54.57h21.276v-55.785c0-19.414,16.588-30.613,31.042-30.613
	c14.44,0,30.74,11.199,30.74,30.613l-0.011,55.785h21.588v-54.57C235.428,612.998,212.006,593.119,183.11,593.119z M353.26,646.68
	c0-29.057-19.184-49.771-48.079-49.771h-47.96v21.906h49.12c18.616,0,26.309,13.039,26.309,27.562
	c0,14.521-7.981,29.422-26.598,29.422l-49.12-0.012v21.695h47.962C333.778,697.486,353.26,675.727,353.26,646.68z M750,646.68
	c0-29.057-19.193-49.771-48.091-49.771h-47.951v21.906h49.12c18.617,0,26.296,13.039,26.296,27.562
	c0,14.521-7.97,29.422-26.593,29.422l-49.113-0.012v21.695h47.951C730.516,697.486,750,675.727,750,646.68z M452.743,663.668
	c9.271-5.055,13.881-14.328,13.881-30.205c0-27.941-14.843-36.557-43.739-36.557h-47.95v21.906h49.118
	c18.617,0,21.945,5.936,21.945,14.35c0,8.412-2.695,15.621-21.313,15.621l-49.115-0.01l-0.031,20.137h47.958
	c0.457,0,0.905-0.006,1.354-0.012c9.523,1.033,16.945,9.123,16.945,18.949c0,3.154,0.56,6.127-0.795,8.748
	c0.012,0.363,1.32,0.738,1.32,1.115h19.803C462.121,697.711,465.718,676.242,452.743,663.668z M536.24,593.975
	c27.48,0,49.758,23.234,49.758,51.891c0,28.668-22.275,51.898-49.758,51.898c-27.479,0-49.752-23.23-49.752-51.898
	C486.488,617.209,508.764,593.975,536.24,593.975z M536.24,676.936c16.453,0,29.786-13.902,29.786-31.072
	c0-17.15-13.333-31.068-29.786-31.068c-16.448,0-29.781,13.918-29.781,31.068C506.459,663.031,519.793,676.936,536.24,676.936z
	 M610.286,697.711h21.805V596.906h-21.805V697.711z M596.986,193.801v124.744c0,17.63-14.071,31.923-31.432,31.923
	c-17.354,0-31.431-14.293-31.431-31.923V193.801c0-17.63,14.077-31.921,31.431-31.921
	C582.916,161.881,596.986,176.172,596.986,193.801z M217.878,193.801v124.744c0,17.63-14.072,31.923-31.43,31.923
	c-17.359,0-31.43-14.293-31.43-31.923V193.801c0-17.63,14.072-31.921,31.43-31.921C203.806,161.881,217.878,176.172,217.878,193.801
	z M236.792,162.847v227.907c0,13.537,10.975,24.51,24.511,24.51h28.002v69.404c0,17.631,14.073,31.922,31.431,31.922
	c17.357,0,31.432-14.293,31.432-31.922v-69.404h48.917v69.404c0,17.631,14.077,31.922,31.43,31.922
	c17.36,0,31.438-14.293,31.438-31.922v-69.404h27.997c13.54,0,24.513-10.973,24.513-24.51V162.847H236.792z M515.838,142.538
	H236.169c3.666-42.375,32.47-78.681,73.544-97.788L283.879,7.248c-1.534-2.228-1.154-5.153,0.852-6.535
	c2.006-1.38,4.875-0.695,6.406,1.534l26.835,38.955c17.686-6.967,37.333-10.849,58.03-10.849c20.696,0,40.349,3.882,58.033,10.849
	l26.833-38.955c1.532-2.229,4.4-2.914,6.408-1.534c2.003,1.381,2.383,4.307,0.851,6.535L442.297,44.75
	C483.367,63.856,512.17,100.163,515.838,142.538z M332.481,88.379c0-8.545-6.928-15.473-15.475-15.473
	c-8.545,0-15.473,6.928-15.473,15.473c0,8.547,6.928,15.473,15.473,15.473C325.555,103.852,332.481,96.925,332.481,88.379z
	 M452.407,88.379c0-8.545-6.931-15.473-15.477-15.473s-15.475,6.928-15.475,15.473c0,8.547,6.929,15.473,15.475,15.473
	S452.407,96.925,452.407,88.379z"/>
</svg>
