<?xml version="1.0" encoding="utf-8"?>
<!-- Generator: Adobe Illustrator 16.2.1, SVG Export Plug-In . SVG Version: 6.00 Build 0)  -->
<!DOCTYPE svg PUBLIC "-//W3C//DTD SVG 1.1//EN" "http://www.w3.org/Graphics/SVG/1.1/DTD/svg11.dtd">
<svg version="1.1" id="Layer_1" xmlns="http://www.w3.org/2000/svg" xmlns:xlink="http://www.w3.org/1999/xlink" x="0px" y="0px"
	 width="425.805px" height="500px" viewBox="0 0 425.805 500" enable-background="new 0 0 425.805 500" xml:space="preserve">
<path d="M284.971,33.685l17.441-26.163c1.482-2.224,0.879-5.228-1.344-6.709s-5.229-0.881-6.711,1.342l-18.385,27.576
	c-19.072-7.681-40.469-11.987-63.071-11.987c-22.604,0-44,4.307-63.075,11.987L131.444,2.153c-1.482-2.22-4.486-2.822-6.711-1.341
	c-2.224,1.484-2.823,4.488-1.342,6.712l17.44,26.16C97.161,54.539,67.74,93.762,67.74,138.709h290.323
	C358.062,93.761,328.643,54.539,284.971,33.685z M154.838,100.001c-8.018,0-14.516-6.499-14.516-14.516
	c0-8.018,6.499-14.517,14.516-14.517c8.018,0,14.517,6.499,14.517,14.517C169.355,93.502,162.856,100.001,154.838,100.001z
	 M270.967,100.001c-8.02,0-14.52-6.499-14.52-14.516c0-8.018,6.5-14.517,14.52-14.517c8.018,0,14.516,6.499,14.516,14.517
	C285.482,93.502,278.984,100.001,270.967,100.001z M67.741,370.969c0,22.271,18.054,40.322,40.323,40.322h20.967v59.677
	c0,16.031,12.998,29.032,29.032,29.032c16.034,0,29.032-13.001,29.032-29.032v-59.677h51.611v59.677
	c0,16.031,12.997,29.032,29.032,29.032c16.031,0,29.031-13.001,29.031-29.032v-59.677h20.969c22.271,0,40.322-18.053,40.322-40.323
	v-222.58H67.741V370.969z M29.03,158.065c-16.03,0-29.03,13-29.03,29.031V311.29c0,16.034,13,29.032,29.03,29.032
	c16.036,0,29.035-12.998,29.035-29.032V187.097C58.067,171.063,45.068,158.065,29.03,158.065z M396.773,158.066
	c-16.035,0-29.033,12.999-29.033,29.032V311.29c0,16.034,12.998,29.03,29.033,29.03c16.029,0,29.031-12.996,29.031-29.03V187.099
	C425.805,171.063,412.805,158.066,396.773,158.066z"/>
</svg>
