<?xml version="1.0" encoding="utf-8"?>
<!-- Generator: Adobe Illustrator 16.2.1, SVG Export Plug-In . SVG Version: 6.00 Build 0)  -->
<!DOCTYPE svg PUBLIC "-//W3C//DTD SVG 1.1//EN" "http://www.w3.org/Graphics/SVG/1.1/DTD/svg11.dtd">
<svg version="1.1" id="Layer_1" xmlns="http://www.w3.org/2000/svg" xmlns:xlink="http://www.w3.org/1999/xlink" x="0px" y="0px"
	 width="1000px" height="139.527px" viewBox="0 0 1000 139.527" enable-background="new 0 0 1000 139.527" xml:space="preserve">
<path d="M119.083,139.457V34.261H72.288c-23.319,0-41.859,16.423-41.859,37.999c0,21.559,18.998,37.978,42.331,37.978h23.006v29.219
	H72.66C32.532,139.457,0,109.369,0,72.26C0,35.133,32.532,5.049,72.66,5.049h75.42v134.408H119.083z M244.147,0
	c-38.525,0-69.758,26.506-69.758,66.688v72.765h28.369V65.07c0-25.887,22.117-40.816,41.389-40.816
	c19.255,0,40.988,14.932,40.988,40.816l-0.015,74.383h28.783V66.688C313.904,26.506,282.675,0,244.147,0z M471.014,71.415
	c0-38.742-25.579-66.365-64.104-66.365h-63.947v29.212h65.493c24.821,0,35.076,17.386,35.076,36.751
	c0,19.361-10.644,39.228-35.462,39.228l-65.493-0.014v28.928h63.949C445.037,139.156,471.014,110.145,471.014,71.415z M1000,71.415
	c0-38.742-25.592-66.365-64.121-66.365h-63.935v29.212h65.493c24.82,0,35.062,17.386,35.062,36.751
	c0,19.361-10.626,39.228-35.457,39.228l-65.485-0.014v28.928h63.938C974.021,139.156,1000,110.145,1000,71.415z M603.657,94.065
	c12.36-6.736,18.508-19.104,18.508-40.272c0-37.254-19.79-48.741-58.319-48.741h-63.933v29.212h65.491
	c24.82,0,29.26,7.911,29.26,19.13c0,11.215-3.594,20.827-28.418,20.827l-65.489-0.012l-0.042,26.849h63.943
	c0.608,0,1.208-0.008,1.805-0.016c12.699,1.379,22.594,12.164,22.594,25.268c0,4.205,0.746,8.168-1.059,11.662
	c0.015,0.484,1.76,0.984,1.76,1.486h26.404C616.162,139.457,620.957,110.83,603.657,94.065z M714.987,1.142
	c36.643,0,66.343,30.979,66.343,69.185c0,38.226-29.7,69.201-66.343,69.201c-36.639,0-66.336-30.979-66.336-69.201
	C648.651,32.121,678.352,1.142,714.987,1.142z M714.987,111.756c21.938,0,39.715-18.538,39.715-41.433
	c0-22.868-17.777-41.426-39.715-41.426c-21.934,0-39.708,18.558-39.708,41.426C675.279,93.218,693.057,111.756,714.987,111.756z
	 M813.715,139.457h29.073V5.049h-29.073V139.457z"/>
</svg>
