<?xml version="1.0" encoding="utf-8"?>
<!-- Generator: Adobe Illustrator 16.2.1, SVG Export Plug-In . SVG Version: 6.00 Build 0)  -->
<!DOCTYPE svg PUBLIC "-//W3C//DTD SVG 1.1//EN" "http://www.w3.org/Graphics/SVG/1.1/DTD/svg11.dtd">
<svg version="1.1" id="Layer_1" xmlns="http://www.w3.org/2000/svg" xmlns:xlink="http://www.w3.org/1999/xlink" x="0px" y="0px"
	 width="1000px" height="255.676px" viewBox="0 0 1000 255.676" enable-background="new 0 0 1000 255.676" xml:space="preserve">
<path fill="#010101" d="M260.421,182.324v-103h13.323l63.021,82.973V79.324h12.607v103H336.05L273.02,98.62v83.704H260.421
	L260.421,182.324z M451.65,135.504h-13.316v35.002c-5.382,1.16-10.284,1.736-14.698,1.736c-27.659,0-41.482-14.291-41.482-42.861
	c0-26.645,14.045-39.975,42.13-39.975c9.359,0,18.491,1.684,27.369,5.045V82.927c-8.878-2.884-18.484-4.33-28.81-4.33
	c-36.016,0-54.021,16.933-54.021,50.784c0,35.777,18.658,53.662,55.965,53.662c9.604,0,18.561-1.582,26.865-4.756L451.65,135.504
	L451.65,135.504z M515.753,183.041c28.569,0,42.854-13.484,42.854-40.48V79.32h-13.323v63.241c0,19.783-9.847,29.683-29.531,29.683
	c-19.691,0-29.536-9.896-29.536-29.683V79.32H472.9v63.241C472.899,169.557,487.184,183.041,515.753,183.041z M582.384,79.318v103
	h67.198v-10.806h-53.881V79.318H582.384z M705.621,92.425l19.228,46.681h-25.925l-3.677,10.803h34.065l13.321,32.416h14.771
	L706.196,65.727l-51.21,116.595h13.823L705.621,92.425z M784.774,182.324V90.343h29.39c10.949,0,16.427,4.755,16.427,14.258
	c0,12.01-9.847,19.563-29.531,22.692v8.716l32.767,46.312h17.581l-35.364-48.553c19.164-6.426,28.732-16.35,28.732-29.743
	c0-16.474-9.789-24.705-29.386-24.705h-43.938v103h13.322V182.324L784.774,182.324z M887.998,79.318v73.325
	c0,12.576-7.206,18.873-21.613,18.873v10.803c23.291,0,34.938-9.887,34.938-29.676V79.318H887.998z M960.095,183.037
	c26.607,0,39.905-10.084,39.905-30.252c0-18.728-10.98-28.091-32.917-28.091h-13.26c-12.681,0-19.007-5.523-19.007-16.563
	c0-12.484,9.359-18.729,28.091-18.729c12.002,0,23.163,1.922,33.493,5.768V82.922c-10.33-2.877-21.491-4.329-33.493-4.329
	c-27.62,0-41.432,9.854-41.432,29.537c0,18.73,10.789,28.094,32.348,28.094h13.26c13.059,0,19.594,5.527,19.594,16.562
	c0,12.969-8.864,19.452-26.582,19.452c-12.536,0-24.201-1.932-35.009-5.77v12.246C935.894,181.594,947.559,183.037,960.095,183.037z
	 M145.358,127.282l-25.147-52.515l-22.137,52.515H145.358z M241.358,41.584l-19.001,157.598l-101.935,56.494L19.009,199.938
	L0,42.334L120.293,0L241.358,41.584z M196.981,187.176L120.013,21.717L45.637,187.176l27.739-0.512l14.911-37.303h66.659
	l16.326,37.812L196.981,187.176L196.981,187.176z"/>
</svg>
