<?xml version="1.0" encoding="utf-8"?>
<!-- Generator: Adobe Illustrator 16.2.1, SVG Export Plug-In . SVG Version: 6.00 Build 0)  -->
<!DOCTYPE svg PUBLIC "-//W3C//DTD SVG 1.1//EN" "http://www.w3.org/Graphics/SVG/1.1/DTD/svg11.dtd">
<svg version="1.1" id="Layer_1" xmlns="http://www.w3.org/2000/svg" xmlns:xlink="http://www.w3.org/1999/xlink" x="0px" y="0px"
	 width="1000px" height="170.086px" viewBox="0 0 1000 170.086" enable-background="new 0 0 1000 170.086" xml:space="preserve">
<path d="M115.367,2.278c-4.07,1.017-9.886,3.344-12.939,5.089c-3.198,1.744-8.432,4.797-11.921,6.833
	c-8.142,4.65-21.954,5.961-25.443,2.472c-3.199-3.199-3.053-4.653,0.582-6.688c2.036-1.02,6.251-1.311,11.631-0.729
	c6.979,0.872,8.578,0.581,8.578-1.163c0-2.617-7.415-5.231-12.649-4.358c-11.631,1.741-13.375,2.323-14.83,4.067
	c-3.489,4.216-3.053,8.436,1.309,12.504c9.596,9.017,26.315,8.869,45.652-0.582c16.139-7.851,23.844-10.029,34.458-9.887
	c9.451,0,14.394,2.036,14.394,5.961c0,6.106-18.609,8.436-24.571,2.908c-3.053-2.762-3.344-2.908-6.688-0.729
	c-4.362,2.764-4.507,4.07-1.018,6.979c3.49,3.198,7.706,4.216,16.865,4.362c15.557,0.291,27.043-5.234,27.043-13.23
	C165.817,3.295,139.647-3.974,115.367,2.278z M303.21,11.438c-22.826,10.762-37.656,42.312-37.656,80.108
	c0,13.957,0.436,17.883,3.053,23.407c4.216,9.306,11.195,14.249,22.972,16.284c15.557,2.613,31.258-1.893,44.052-12.794
	c5.816-5.089,5.961-5.089,6.834-1.894c1.454,4.506,4.943,8.287,10.177,11.049c5.96,3.058,20.354,2.908,27.333-0.291
	c12.358-5.961,21.664-21.079,25.011-40.418c0.727-4.797,1.452-5.669,6.251-6.979c2.904-0.729,5.812-1.454,6.251-1.454
	c1.018,0,0.438,3.489-5.233,30.097l-4.071,19.045l-8.869,3.348c-9.887,3.486-18.174,10.759-18.464,16.139
	c-0.727,11.485,1.021,15.993,7.854,20.062c7.852,4.799,22.825,2.906,30.241-3.778c2.032-1.896,2.614-1.896,4.217,0.146
	c5.229,6.396,18.605,8.578,28.06,4.507c9.451-3.925,16.284-15.408,19.337-32.423c0.438-2.18,1.454-6.979,2.185-10.609
	c0.873-3.639,4.358-20.499,7.996-37.514c3.486-17.152,6.688-31.549,7.125-32.13c0.291-0.727,3.775-1.018,7.561-0.873
	c3.926,0.146,7.414-0.436,7.996-1.308c2.617-3.78,1.021-5.088-6.688-5.525l-7.852-0.436l2.617-10.032
	c2.472-9.887,6.396-15.412,10.903-15.412c3.195,0,6.834,4.507,6.104,7.415c-0.582,2.184,0.146,2.762,3.488,2.762
	c4.217,0,4.508-0.29,4.65-6.251c0.146-9.738-9.016-18.465-19.338-18.465c-6.251,0.146-15.266,3.199-18.896,6.542
	c-2.617,2.475-3.054,2.327-7.271-1.163c-12.063-10.177-31.259-4.798-39.396,10.904c-1.454,2.908-4.509,14.248-6.689,25.297
	c-4.067,19.628-4.067,19.918-8.723,21.954c-5.089,2.035-10.758,2.471-10.322,0.729c0.872-2.908-2.181-14.249-4.651-17.738
	c-4.068-5.67-10.179-7.854-20.209-6.834c-10.179,0.873-15.991,3.635-23.405,11.341c-7.706,7.997-12.795,18.755-15.851,33.729
	c-1.891,9.74-3.196,13.087-5.961,15.268c-6.834,5.232-13.376,7.852-21.809,8.287c-6.979,0.438-9.305,0-13.376-2.615
	c-6.979-4.799-8.868-11.777-7.997-28.643c1.891-33.44,16.575-65.28,31.695-68.771c4.797-1.164,9.596,2.181,10.759,7.415
	c0.873,4.217-2.327,13.812-5.089,15.557c-3.057,1.893,1.744,5.092,7.27,5.092c8.435,0,12.067-5.383,11.34-16.432
	c-0.436-6.542-1.454-9.16-4.648-12.504C335.923,6.058,317.458,4.605,303.21,11.438z M465.901,22.633
	c2.761,1.02,2.904,5.815,0.727,17.01l-1.745,8.287h-7.852h-7.997l1.018-4.067c1.603-5.961,1.894-7.997,2.036-10.904
	c0.146-2.908,7.705-11.195,10.031-11.195C462.993,21.759,464.592,22.196,465.901,22.633z M461.976,56.218
	c0.291,0.872-0.436,6.833-1.741,13.085c-1.312,6.251-2.767,12.648-3.057,14.396c-2.472,12.795-7.561,35.62-7.996,36.058
	c-0.292,0.438-3.486,1.02-7.125,1.599c-3.486,0.582-6.979,1.312-7.705,1.745c-0.578,0.291-0.873-0.873-0.436-2.764
	c0.436-1.744,2.471-11.484,4.506-21.518c2.036-10.032,4.798-22.244,5.96-27.188c1.021-4.943,2.036-10.322,2.036-11.921
	c0-1.599,1.021-3.489,2.326-4.216C451.943,53.746,461.393,54.327,461.976,56.218z M391.315,60.433
	c1.018,2.908,0.87,4.51-0.729,6.251c-3.78,4.071-4.362,10.18-1.454,13.376c2.327,2.617,2.327,3.489,0.582,10.471
	c-2.181,9.015-5.812,16.429-10.177,20.937c-3.635,4.07-10.904,4.508-12.794,0.729c-3.635-7.271-0.438-27.479,6.687-42.163
	C379.54,57.381,388.263,52.728,391.315,60.433z M447.872,126.73c-0.146,1.021-1.021,6.106-2.036,11.194
	c-3.198,14.396-9.159,20.209-16.72,16.282c-2.765-1.599-2.765-2.034-0.872-7.413c1.163-3.199,2.036-6.252,2.036-6.543
	c-0.146-0.438,0.29-3.344,0.872-6.543c0.727-4.361,1.745-5.96,4.067-6.542c1.745-0.291,4.512-0.872,6.107-1.163
	C446.709,124.843,447.872,124.986,447.872,126.73z M665.229,9.548c-7.41,2.617-15.989,9.596-19.046,15.411
	c-3.194,6.106-2.903,17.01,0.581,23.844c1.604,3.057,7.705,10.904,13.521,17.301c5.671,6.397,11.773,14.539,13.376,18.177
	c3.926,8.866,3.926,19.918-0.291,26.604c-6.542,10.612-23.263,11.05-28.645,0.873c-5.088-10.032,0.872-20.502,12.939-22.246
	c3.635-0.437,4.361-1.891,2.472-5.23c-2.472-4.653-9.306-6.979-16.284-5.816c-15.266,2.908-23.553,17.591-19.336,34.021
	c3.489,13.375,15.41,20.209,34.457,19.918c28.787-0.438,46.382-17.736,44.489-43.907c-1.019-12.649-4.653-18.901-20.062-34.021
	c-6.543-6.396-12.794-13.376-13.957-15.557c-3.93-7.56-1.896-18.464,3.924-21.663c4.942-2.617,13.959-2.181,17.303,0.873
	c4.217,3.78,3.926,12.504-0.728,18.028c-3.639,4.216-3.639,4.359-0.872,5.812c9.014,4.943,19.046-3.344,19.046-15.412
	c0-6.833-4.217-13.085-11.049-16.28C689.51,6.639,674.244,6.348,665.229,9.548z M19.701,15.509
	C9.088,21.033,7.488,26.413,14.612,32.374c5.815,4.944,16.72,8.869,34.894,12.503c21.517,4.216,33.003,5.089,66.152,4.943
	c41.291-0.146,71.095-4.801,89.269-13.812c11.195-5.67,12.358-13.667,2.762-19.336c-4.216-2.472-4.362-2.472-3.489,0.291
	c1.309,4.216-0.29,7.27-5.67,10.613c-5.234,3.199-22.827,8.142-33.73,9.451c-3.925,0.436-8.578,1.16-10.613,1.599
	c-7.706,1.89-69.06,1.6-83.599-0.291c-24.28-3.198-41-8.578-45.798-14.829c-2.762-3.344-2.762-3.926-0.727-7.125
	C26.679,12.456,25.662,12.309,19.701,15.509z M856.998,14.491c-1.602,0.582-4.072,3.489-5.525,6.396
	c-2.181,4.507-2.181,5.67-0.29,10.18c3.639,8.575,13.521,10.901,20.354,4.798C882.877,25.976,871.1,8.821,856.998,14.491z
	 M981.16,23.65c-9.598,1.309-9.598,1.309-10.758,6.688c-0.583,2.908-1.165,5.525-1.312,5.961c0,0.438-0.582,3.199-1.163,6.106
	c-0.873,4.068-1.89,5.521-3.776,5.521c-1.744,0-2.908,1.312-3.489,3.78c-0.438,2.617-0.146,3.489,1.308,2.908
	c1.021-0.438,2.185-0.291,2.618,0.291c0.29,0.582-2.035,12.504-5.088,26.461c-6.107,28.061-6.543,32.712-3.781,39.688
	c2.616,5.963,5.38,8.289,11.631,9.31c6.979,1.019,14.688-2.907,17.593-9.019c3.057-6.25,3.057-6.25-1.6-6.832
	c-3.199-0.291-4.216-1.309-4.507-4.359c-0.438-3.488,9.015-52.343,10.612-54.957c0.291-0.582,2.614-0.873,5.09-0.729
	c2.324,0.146,4.357-0.291,4.357-0.872c0-0.582,0.438-2.036,0.872-3.344c0.729-1.891-0.145-2.327-4.216-2.327h-5.088l2.761-12.064
	c1.454-6.543,2.767-12.358,2.767-12.94C995.99,21.906,995.118,21.906,981.16,23.65z M901.923,41.824
	c-8.288,0.291-10.613,0.873-11.195,2.908c-0.579,1.891-5.669,25.298-11.772,54.376c-2.036,9.887-11.34,17.301-17.737,14.393
	c-4.362-2.033-4.362-2.761,3.781-40.562l5.378-25.01H858.6h-11.922l-3.926,17.738c-10.178,47.543-10.467,49.725-4.651,58.592
	c4.511,6.979,18.464,7.562,29.658,1.455c3.344-1.891,6.107-3.054,6.107-2.473c0,0.582-2.326,11.193-4.944,23.553
	c-2.762,12.358-4.798,22.682-4.507,22.973c0.292,0.438,10.76-1.744,19.771-4.068c4.653-1.312,5.383-2.184,6.256-7.124
	c0.438-3.196,2.182-11.633,3.926-18.755l2.905-13.085l4.942,2.032c10.76,4.511,26.461,0,34.748-9.737
	c15.411-18.177,19.046-60.192,6.105-68.624c-5.381-3.49-13.957-3.929-22.393-1.164l-7.561,2.618l0.87-4.653
	c0.438-2.617,0.293-4.943-0.438-5.234C912.974,41.678,907.738,41.533,901.923,41.824z M927.512,64.359
	c1.744,4.507,0.729,20.354-2.036,29.514c-3.194,10.904-7.269,17.446-12.938,20.064c-11.341,5.379-13.085,2.614-9.307-15.121
	c1.601-7.562,3.197-15.85,3.487-18.176c2.185-12.938,5.815-19.336,12.213-21.371C921.986,58.253,926.203,60.724,927.512,64.359z
	 M12.286,47.495c0.437,3.343,2.181,11.049,3.926,17.01l3.198,10.904l-7.415,7.997c-15.993,17.592-15.993,40.128,0,53.938
	c9.45,7.996,25.297,9.74,35.475,3.928c2.471-1.453,2.326-1.604-1.309-1.744c-7.852,0-20.064-8.436-25.88-17.446
	c-3.053-4.653-5.379-15.411-4.652-20.938c0.727-4.798,5.815-15.408,7.414-15.408c0.583,0,2.472,3.196,4.217,6.979
	c1.89,3.926,8.287,14.248,14.539,22.972c10.032,14.104,17.737,28.645,17.883,33.585c0,3.638,11.34,10.762,22.244,14.248
	c9.596,3.056,14.103,3.638,30.387,3.638c35.184,0,51.613-7.562,56.846-26.17c1.309-4.36,5.234-11.925,8.724-16.724
	c17.883-24.715,21.373-30.676,27.624-47.979c2.036-5.67,4.653-14.83,6.106-20.354c1.309-5.67,2.617-11.05,2.908-11.922
	c0.436-1.017-1.745-0.29-4.797,1.745c-7.852,5.234-20.354,9.305-36.057,11.777c-2.908,0.436-6.688,1.163-8.432,1.454
	c-13.958,2.762-71.532,3.925-91.741,1.6c-28.933-3.199-50.741-9.16-58.737-16.138l-3.344-3.057L12.286,47.495z M525.946,48.511
	c-11.922,4.362-20.646,14.396-26.605,30.823c-6.833,18.754-6.104,35.911,2.034,44.633c10.324,11.052,34.312,7.996,49.868-6.396
	c3.346-3.058,6.396-5.671,6.688-5.671c0.146,0,0.438,1.311,0.438,2.904c0,1.455,2.472,5.381,5.521,8.578
	c4.512,4.799,6.543,5.815,13.521,6.688c14.539,1.745,25.44-3.346,30.532-14.396c4.068-8.867,3.486-10.179-2.616-6.104
	c-13.812,9.013-23.698,5.669-23.698-7.854c0-3.775,0.729-4.359,6.251-5.812c18.32-4.507,29.369-15.56,31.259-30.97
	c1.312-11.775-5.38-18.466-18.174-18.466c-22.389,0.291-38.819,19.047-43.325,49.727c-1.599,10.758-13.957,20.062-26.604,20.062
	c-8.287,0-11.922-3.778-11.922-12.354c0-5.96,0.291-6.544,4.066-7.414c14.979-3.349,25.152-10.471,30.241-21.521
	c5.525-11.922,4.071-22.245-3.925-26.461C544.411,46.041,533.216,46.041,525.946,48.511z M541.504,56.072
	c5.378,2.035,0.729,19.479-6.834,25.73c-4.07,3.199-12.504,7.416-13.376,6.542c-2.326-2.325,8.287-26.169,13.521-30.237
	C538.886,54.763,538.449,54.909,541.504,56.072z M605.62,63.487c-0.146,9.305-5.671,17.883-14.396,22.243
	c-7.851,3.636-8.142,3.636-7.27-0.871c1.745-9.451,11.195-26.898,15.412-28.645C604.166,54.181,605.62,55.926,605.62,63.487z
	 M742.285,47.785c-14.538,4.65-25.879,19.628-30.676,40.271c-4.362,19.342-0.729,35.188,9.446,39.838
	c13.521,6.105,34.021,1.162,45.942-11.192l3.926-4.069l-0.873,5.814c-0.581,3.195-1.308,6.979-1.744,8.287
	c-0.727,2.322,0.438,2.613,11.485,2.613h12.213l5.38-26.604c6.979-34.021,7.562-35.62,13.085-38.964
	c2.475-1.454,4.942-2.765,5.524-2.765c0.437,0,2.181,2.475,3.635,5.379c2.326,4.943,3.199,5.524,7.705,5.233
	c13.957-0.582,13.377-23.698-0.436-23.698c-4.22,0-11.486,2.908-16.433,6.542c-2.903,2.184-2.903,2.036-2.326-2.181l0.581-4.362
	H797.09c-9.886,0-11.773,0.438-12.504,2.475c-0.437,1.452-2.908,13.085-5.521,25.879c-4.219,20.79-5.233,23.845-9.308,28.351
	c-9.597,10.613-26.312,14.979-32.563,8.725c-7.562-7.561,0.727-44.344,12.213-55.246c5.812-5.381,9.013-2.616,8.577,7.123
	c-0.146,4.07,0.146,7.414,0.727,7.562c0.582,0,2.183,0.291,3.49,0.582c4.507,0.873,8.868-4.071,9.159-10.177
	c0.437-7.562-1.603-11.777-7.271-14.539C759.296,46.476,747.665,45.895,742.285,47.785z"/>
</svg>
