<?xml version="1.0" encoding="utf-8"?>
<!-- Generator: Adobe Illustrator 16.2.1, SVG Export Plug-In . SVG Version: 6.00 Build 0)  -->
<!DOCTYPE svg PUBLIC "-//W3C//DTD SVG 1.1//EN" "http://www.w3.org/Graphics/SVG/1.1/DTD/svg11.dtd">
<svg version="1.1" id="Layer_1" xmlns="http://www.w3.org/2000/svg" xmlns:xlink="http://www.w3.org/1999/xlink" x="0px" y="0px"
	 width="500px" height="389.49px" viewBox="0 0 500 389.49" enable-background="new 0 0 500 389.49" xml:space="preserve">
<path fill="#010101" d="M268.82,5.31c-9.483,2.369-23.036,7.791-30.15,11.857c-7.453,4.064-19.648,11.178-27.779,15.92
	c-18.973,10.844-51.156,13.893-59.288,5.762c-7.453-7.455-7.113-10.844,1.355-15.586c4.744-2.371,14.567-3.049,27.103-1.692
	c16.262,2.032,19.987,1.354,19.987-2.71c0-6.1-17.278-12.197-29.474-10.163c-27.104,4.062-31.167,5.42-34.557,9.483
	c-8.131,9.824-7.114,19.649,3.05,29.137c22.359,21.004,61.319,20.665,106.376-1.355c37.604-18.294,55.56-23.375,80.292-23.039
	c22.021,0,33.539,4.745,33.539,13.891c0,14.229-43.362,19.65-57.253,6.775c-7.115-6.438-7.795-6.775-15.586-1.695
	c-10.164,6.438-10.502,9.486-2.373,16.263c8.133,7.453,17.959,9.824,39.3,10.163c36.252,0.678,63.015-12.194,63.015-30.83
	C386.379,7.679,325.398-9.258,268.82,5.31z M45.904,36.14C21.173,49.013,17.445,61.548,34.046,75.437
	c13.552,11.521,38.959,20.667,81.308,29.137c50.14,9.823,76.903,11.857,154.146,11.518c96.213-0.339,165.662-11.179,208.011-32.185
	c26.087-13.212,28.797-31.845,6.438-45.058c-9.823-5.76-10.165-5.76-8.131,0.679c3.05,9.823-0.678,16.938-13.213,24.729
	c-12.196,7.454-53.188,18.973-78.599,22.021c-9.146,1.015-19.989,2.708-24.729,3.725c-17.954,4.406-160.922,3.729-194.8-0.678
	C107.901,81.872,68.94,69.339,57.761,54.771c-6.437-7.793-6.437-9.148-1.693-16.601C62.164,29.022,59.793,28.685,45.904,36.14z
	 M28.625,110.67c1.018,7.792,5.082,25.746,9.146,39.639l7.453,25.406L27.948,194.35c-37.265,40.991-37.265,93.506,0,125.688
	c22.021,18.633,58.946,22.698,82.663,9.147c5.757-3.39,5.42-3.729-3.05-4.066c-18.295,0-46.752-19.646-60.305-40.653
	c-7.114-10.843-12.534-35.909-10.84-48.784c1.694-11.181,13.551-35.91,17.276-35.91c1.356,0,5.761,7.455,9.826,16.262
	c4.403,9.146,19.311,33.199,33.877,53.527c23.375,32.86,41.331,66.739,41.671,78.26c0,8.47,26.424,25.07,51.833,33.199
	c22.359,7.113,32.862,8.471,70.809,8.471c81.984,0,120.266-17.617,132.461-60.98c3.05-10.162,12.197-27.779,20.327-38.96
	c41.673-57.593,49.801-71.481,64.369-111.799c4.741-13.212,10.841-34.556,14.229-47.429c3.05-13.212,6.098-25.748,6.774-27.783
	c1.018-2.369-4.063-0.676-11.178,4.066c-18.296,12.196-47.431,21.682-84.02,27.442c-6.776,1.016-15.586,2.708-19.647,3.387
	c-32.524,6.438-166.683,9.146-213.772,3.727c-67.418-7.452-118.234-21.345-136.868-37.604l-7.792-7.116L28.625,110.67z"/>
</svg>
