<?xml version="1.0" encoding="utf-8"?>
<!-- Generator: Adobe Illustrator 16.2.1, SVG Export Plug-In . SVG Version: 6.00 Build 0)  -->
<!DOCTYPE svg PUBLIC "-//W3C//DTD SVG 1.1//EN" "http://www.w3.org/Graphics/SVG/1.1/DTD/svg11.dtd">
<svg version="1.1" id="Layer_1" xmlns="http://www.w3.org/2000/svg" xmlns:xlink="http://www.w3.org/1999/xlink" x="0px" y="0px"
	 width="1000px" height="221.885px" viewBox="0 0 1000 221.885" enable-background="new 0 0 1000 221.885" xml:space="preserve">
<path fill="#010101" d="M51.271,5.87C20.192,20.518,0,63.475,0,114.944c0,19.003,0.594,24.349,4.158,31.871
	c5.74,12.67,15.242,19.4,31.278,22.172c21.181,3.561,42.56-2.574,59.979-17.42c7.919-6.93,8.117-6.93,9.305-2.572
	c1.98,6.137,6.731,11.283,13.858,15.043c8.115,4.158,27.714,3.959,37.214-0.396c16.827-8.115,29.497-28.705,34.05-55.032
	c0.989-6.533,1.98-7.72,8.511-9.501c3.959-0.991,7.919-1.979,8.512-1.979c1.386,0,0.596,4.751-7.125,40.979l-5.543,25.932
	l-12.076,4.555c-13.46,4.752-24.745,14.646-25.139,21.975c-0.991,15.639,1.384,21.775,10.688,27.316
	c10.69,6.531,31.079,3.961,41.175-5.145c2.772-2.576,3.565-2.576,5.741,0.195c7.126,8.711,25.338,11.682,38.205,6.137
	c12.867-5.344,22.172-20.98,26.329-44.145c0.594-2.971,1.979-9.502,2.969-14.451c1.188-4.947,5.938-27.91,10.887-51.072
	c4.752-23.358,9.107-42.957,9.701-43.75c0.396-0.989,5.146-1.386,10.294-1.188c5.348,0.196,10.098-0.595,10.89-1.782
	c3.562-5.147,1.387-6.928-9.106-7.523l-10.689-0.593l3.563-13.658c3.366-13.463,8.711-20.983,14.847-20.983
	c4.354,0,9.307,6.138,8.314,10.096c-0.792,2.969,0.197,3.762,4.75,3.762c5.741,0,6.138-0.396,6.335-8.513
	C342.072,12.01,329.6,0.131,315.546,0.131c-8.513,0.201-20.785,4.356-25.734,8.909c-3.563,3.366-4.156,3.167-9.898-1.583
	c-16.431-13.854-42.561-6.533-53.646,14.849c-1.979,3.959-6.138,19.397-9.106,34.443c-5.542,26.727-5.542,27.12-11.878,29.894
	c-6.929,2.771-14.647,3.364-14.055,0.989c1.188-3.958-2.969-19.399-6.334-24.15c-5.542-7.72-13.857-10.69-27.517-9.305
	c-13.856,1.187-21.774,4.948-31.871,15.439c-10.491,10.888-17.42,25.536-21.576,45.928c-2.574,13.265-4.356,17.814-8.116,20.783
	c-9.305,7.127-18.214,10.691-29.694,11.283c-9.502,0.596-12.669,0-18.212-3.562c-9.502-6.531-12.075-16.035-10.889-38.998
	c2.574-45.53,22.568-88.883,43.155-93.634c6.533-1.586,13.065,2.97,14.649,10.096c1.189,5.74-3.167,18.807-6.929,21.181
	c-4.157,2.574,2.376,6.929,9.898,6.929c11.481,0,16.431-7.324,15.441-22.368c-0.595-8.906-1.98-12.473-6.334-17.024
	C95.812-1.454,70.671-3.435,51.271,5.87z M272.787,21.112c3.759,1.384,3.958,7.918,0.989,23.16L271.4,55.556h-10.69h-10.888
	l1.386-5.542c2.177-8.116,2.573-10.887,2.772-14.849c0.197-3.958,10.491-15.241,13.658-15.241
	C268.827,19.923,271.004,20.518,272.787,21.112z M267.442,66.84c0.396,1.188-0.594,9.304-2.376,17.814
	c-1.783,8.511-3.763,17.223-4.156,19.6c-3.365,17.42-10.294,48.498-10.887,49.094c-0.397,0.594-4.752,1.385-9.701,2.178
	c-4.752,0.791-9.502,1.781-10.491,2.375c-0.792,0.396-1.19-1.189-0.594-3.762c0.594-2.375,3.364-15.641,6.136-29.298
	c2.772-13.659,6.533-30.287,8.115-37.021c1.387-6.729,2.772-14.053,2.772-16.229c0-2.18,1.387-4.751,3.167-5.741
	C253.781,63.475,266.648,64.266,267.442,66.84z M171.233,72.581c1.385,3.96,1.188,6.14-0.991,8.515
	c-5.146,5.543-5.938,13.854-1.979,18.212c3.167,3.562,3.167,4.751,0.792,14.253c-2.971,12.271-7.919,22.367-13.858,28.507
	c-4.949,5.541-14.847,6.135-17.42,0.988c-4.949-9.898-0.593-37.416,9.106-57.408C155.199,68.424,167.077,62.088,171.233,72.581z
	 M248.239,162.85c-0.197,1.387-1.385,8.312-2.772,15.242c-4.354,19.598-12.471,27.516-22.765,22.17
	c-3.76-2.18-3.76-2.771-1.188-10.098c1.583-4.354,2.772-8.51,2.772-8.904c-0.198-0.598,0.395-4.555,1.187-8.908
	c0.989-5.939,2.376-8.115,5.542-8.908c2.376-0.396,6.138-1.188,8.316-1.584C246.655,160.277,248.239,160.473,248.239,162.85z
	 M544.186,3.296c-10.095,3.562-21.772,13.065-25.932,20.983c-4.354,8.313-3.959,23.16,0.791,32.465
	c2.178,4.158,10.49,14.849,18.409,23.558c7.721,8.71,16.035,19.796,18.212,24.745c5.346,12.072,5.346,27.119-0.396,36.227
	c-8.904,14.451-31.672,15.045-38.993,1.188c-6.931-13.658,1.188-27.912,17.615-30.289c4.949-0.594,5.938-2.571,3.365-7.125
	c-3.365-6.335-12.67-9.501-22.172-7.919c-20.785,3.96-32.069,23.953-26.327,46.321c4.751,18.211,20.981,27.518,46.916,27.121
	c39.195-0.596,63.147-24.148,60.574-59.784c-1.387-17.223-6.336-25.734-27.317-46.321c-8.909-8.709-17.42-18.213-19.003-21.184
	c-5.346-10.294-2.576-25.14,5.342-29.496c6.732-3.562,19.006-2.969,23.562,1.188c5.742,5.146,5.346,17.023-0.99,24.547
	c-4.949,5.741-4.949,5.938-1.188,7.918c12.271,6.729,25.933-4.553,25.933-20.983c0-9.304-5.741-17.814-15.044-22.17
	C577.245-0.663,556.46-1.06,544.186,3.296z M805.292,10.025c-2.179,0.792-5.545,4.751-7.523,8.711
	c-2.97,6.136-2.97,7.72-0.396,13.856c4.949,11.68,18.411,14.847,27.715,6.532C840.527,25.665,824.492,2.306,805.292,10.025z
	 M974.347,22.497c-13.062,1.783-13.062,1.783-14.646,9.106c-0.794,3.96-1.586,7.521-1.783,8.116c0,0.595-0.792,4.354-1.583,8.312
	c-1.189,5.543-2.573,7.522-5.146,7.522c-2.375,0-3.963,1.782-4.754,5.146c-0.593,3.563-0.195,4.751,1.78,3.96
	c1.39-0.594,2.974-0.396,3.565,0.396c0.395,0.792-2.771,17.022-6.93,36.027c-8.313,38.205-8.907,44.539-5.146,54.041
	c3.562,8.117,7.325,11.285,15.836,12.672c9.502,1.389,19.995-3.957,23.954-12.271c4.156-8.514,4.156-8.514-2.178-9.305
	c-4.356-0.396-5.74-1.779-6.14-5.939c-0.593-4.75,12.273-71.264,14.45-74.828c0.396-0.791,3.563-1.188,6.929-0.987
	c3.166,0.196,5.938-0.396,5.938-1.188s0.595-2.772,1.188-4.553c0.988-2.574-0.194-3.168-5.738-3.168h-6.93l3.762-16.431
	c1.979-8.907,3.763-16.825,3.763-17.617C994.539,20.122,993.352,20.122,974.347,22.497z M866.46,47.241
	c-11.285,0.396-14.451,1.189-15.243,3.96c-0.791,2.574-7.719,34.445-16.034,74.037c-2.771,13.461-15.438,23.555-24.148,19.596
	c-5.939-2.77-5.939-3.76,5.146-55.228l7.323-34.05h-16.034h-16.229l-5.349,24.15c-13.854,64.733-14.251,67.702-6.333,79.776
	c6.139,9.502,25.142,10.295,40.385,1.979c4.553-2.57,8.312-4.154,8.312-3.363c0,0.793-3.167,15.242-6.729,32.066
	c-3.763,16.826-6.532,30.881-6.139,31.277c0.397,0.592,14.65-2.377,26.922-5.543c6.336-1.783,7.324-2.971,8.517-9.701
	c0.594-4.354,2.969-15.838,5.344-25.535l3.958-17.812l6.732,2.77c14.646,6.139,36.025,0,47.312-13.262
	c20.983-24.744,25.935-81.956,8.312-93.438c-7.322-4.752-19.005-5.345-30.483-1.585L881.706,60.9l1.187-6.336
	c0.598-3.562,0.397-6.731-0.594-7.127C881.506,47.044,874.378,46.846,866.46,47.241z M901.301,77.924
	c2.375,6.138,0.99,27.714-2.771,40.187c-4.354,14.846-9.896,23.754-17.618,27.319c-15.441,7.322-17.815,3.562-12.669-20.589
	c2.177-10.293,4.354-21.578,4.751-24.745c2.97-17.618,7.918-26.327,16.629-29.102C893.777,69.611,899.52,72.977,901.301,77.924z
	 M354.542,56.348c-16.232,5.938-28.11,19.598-36.225,41.967c-9.308,25.537-8.315,48.896,2.77,60.773
	c14.057,15.045,46.72,10.887,67.899-8.711c4.555-4.156,8.712-7.723,9.105-7.723c0.197,0,0.593,1.783,0.593,3.961
	c0,1.979,3.365,7.324,7.521,11.682c6.138,6.529,8.909,7.918,18.409,9.104c19.796,2.377,34.643-4.553,41.569-19.6
	c5.548-12.072,4.753-13.855-3.562-8.311c-18.807,12.27-32.268,7.719-32.268-10.689c0-5.145,0.987-5.938,8.512-7.917
	c24.941-6.139,39.987-21.185,42.561-42.165c1.782-16.036-7.325-25.143-24.745-25.143c-30.48,0.396-52.854,25.934-58.987,67.702
	c-2.18,14.646-19.003,27.318-36.229,27.318c-11.284,0-16.229-5.146-16.229-16.826c0-8.115,0.396-8.909,5.542-10.095
	c20.389-4.559,34.247-14.256,41.175-29.301c7.521-16.23,5.543-30.286-5.344-36.026C379.684,52.983,364.44,52.983,354.542,56.348z
	 M375.725,66.643c7.322,2.771,0.989,26.523-9.305,35.038c-5.542,4.354-17.025,10.097-18.212,8.909
	c-3.167-3.167,11.284-35.635,18.409-41.177C372.16,64.861,371.566,65.058,375.725,66.643z M463.023,76.738
	c-0.198,12.669-7.724,24.351-19.602,30.287c-10.688,4.949-11.085,4.949-9.896-1.188c2.376-12.868,15.24-36.623,20.982-38.998
	C461.043,64.068,463.023,66.444,463.023,76.738z M649.104,55.357c-19.796,6.336-35.234,26.725-41.769,54.835
	c-5.938,26.33-0.99,47.908,12.867,54.242c18.409,8.311,46.32,1.584,62.554-15.244l5.346-5.541l-1.188,7.918
	c-0.791,4.354-1.78,9.502-2.375,11.283c-0.988,3.168,0.595,3.562,15.639,3.562h16.629l7.324-36.227
	c9.502-46.323,10.293-48.5,17.816-53.054c3.361-1.98,6.729-3.762,7.521-3.762c0.595,0,2.97,3.365,4.948,7.324
	c3.168,6.731,4.355,7.522,10.491,7.125c19.004-0.791,18.214-32.267-0.593-32.267c-5.741,0-15.643,3.96-22.369,8.909
	c-3.958,2.969-3.958,2.771-3.168-2.971l0.792-5.938h-15.837c-13.461,0-16.035,0.594-17.024,3.367
	c-0.594,1.979-3.96,17.814-7.522,35.234c-5.736,28.309-7.125,32.466-12.668,38.603c-13.063,14.449-35.832,20.391-44.343,11.877
	c-10.294-10.293,0.989-60.376,16.629-75.225c7.918-7.323,12.271-3.562,11.68,9.7c-0.195,5.543,0.198,10.097,0.987,10.294
	c0.793,0,2.973,0.396,4.753,0.792c6.138,1.188,12.074-5.542,12.474-13.854c0.594-10.294-2.18-16.036-9.898-19.796
	C672.264,53.577,656.428,52.785,649.104,55.357z"/>
</svg>
