<?xml version="1.0" encoding="utf-8"?>
<!-- Generator: Adobe Illustrator 16.2.1, SVG Export Plug-In . SVG Version: 6.00 Build 0)  -->
<!DOCTYPE svg PUBLIC "-//W3C//DTD SVG 1.1//EN" "http://www.w3.org/Graphics/SVG/1.1/DTD/svg11.dtd">
<svg version="1.1" id="Layer_1" xmlns="http://www.w3.org/2000/svg" xmlns:xlink="http://www.w3.org/1999/xlink" x="0px" y="0px"
	 width="328.384px" height="460px" viewBox="0 0 328.384 460" enable-background="new 0 0 328.384 460" xml:space="preserve">
<path d="M0,90.57l30.784,333.507L164.19,460l133.403-35.922L328.384,90.57H0L0,90.57z M262.269,198.657l-98.198,41.983l-0.234,0.1
	H258.8l-10.862,124.896l-83.716,24.438l-84.176-24.889l-5.43-62.901h41.632l2.714,32.581l44.806,11.312l46.609-13.124l3.168-52.491
	L71.902,280.11l-0.004-0.062l-0.143,0.062l-3.167-39.37l95.483-39.766l5.565-2.317H64.967l-4.978-40.274h206.352L262.269,198.657z
	 M117.438,41.572h-28.96V21.721h28.96V0H66.756v61.392h50.683V41.572z M189.785,41.572l-20.247-19.85h20.247V0h-50.686
	c0,0,0,10.903,0,21.722c6.78,6.781,10.318,10.025,20.124,19.835c-5.733,0-20.124,0.021-20.124,0.019v19.817h50.686V41.572z
	 M261.626,41.572l-20.248-19.85h20.25V0h-50.691c0,0,0,10.903,0,21.722c6.78,6.781,10.317,10.025,20.125,19.835
	c-5.729,0-20.125,0.021-20.125,0.019v19.817h50.689V41.572L261.626,41.572z"/>
</svg>
