<?xml version="1.0" encoding="utf-8"?>
<!-- Generator: Adobe Illustrator 16.2.1, SVG Export Plug-In . SVG Version: 6.00 Build 0)  -->
<!DOCTYPE svg PUBLIC "-//W3C//DTD SVG 1.1//EN" "http://www.w3.org/Graphics/SVG/1.1/DTD/svg11.dtd">
<svg version="1.1" id="Layer_1" xmlns="http://www.w3.org/2000/svg" xmlns:xlink="http://www.w3.org/1999/xlink" x="0px" y="0px"
	 width="869px" height="303.604px" viewBox="0 0 869 303.604" enable-background="new 0 0 869 303.604" xml:space="preserve">
<path d="M102.454,0h47.525v219.977c-24.38,4.627-42.279,6.479-61.721,6.479C30.242,226.455,0,200.228,0,149.924
	c0-48.45,32.097-79.925,81.779-79.925c7.716,0,13.578,0.614,20.675,2.466V0z M102.454,110.729
	c-5.555-1.85-10.183-2.468-16.045-2.468c-24.071,0-37.96,14.812-37.96,40.733c0,25.308,13.271,39.195,37.65,39.195
	c5.244,0,9.565-0.309,16.354-1.232L102.454,110.729L102.454,110.729z M225.583,73.391v110.168c0,37.959-2.776,56.167-11.108,71.904
	c-7.717,15.123-17.901,24.688-38.885,35.182l-44.128-20.984c20.983-9.875,31.169-18.515,37.646-31.787
	c6.791-13.578,8.953-29.314,8.953-70.668V73.391H225.583z M178.06,0.251h47.523v48.76H178.06V0.251z M254.289,84.189
	c20.987-9.874,41.045-14.192,62.956-14.192c24.381,0,40.426,6.479,47.524,19.132c4.009,7.098,5.246,16.355,5.246,36.107v96.589
	c-21.296,3.085-48.144,5.248-67.892,5.248c-39.809,0-57.709-13.892-57.709-44.749c0-33.33,23.761-48.759,82.087-53.699v-10.492
	c0-8.64-4.319-11.724-16.355-11.724c-17.589,0-37.34,4.939-55.858,14.505L254.289,84.189L254.289,84.189z M328.662,159.797
	c-31.479,3.086-41.664,8.023-41.664,20.367c0,9.26,5.866,13.576,18.825,13.576c7.101,0,13.578-0.613,22.838-2.156L328.662,159.797
	L328.662,159.797z M393.159,80.796c28.08-7.406,51.226-10.799,74.681-10.799c24.379,0,41.969,5.553,52.465,16.354
	c9.873,10.183,12.957,21.291,12.957,45.056v93.195h-47.523v-91.345c0-18.204-6.172-24.997-23.145-24.997
	c-6.48,0-12.342,0.618-21.912,3.395v112.948h-47.524L393.159,80.796L393.159,80.796z M551.738,250.525
	c16.668,8.641,33.328,12.651,50.918,12.651c31.168,0,44.439-12.651,44.439-42.896c0-0.307,0-0.615,0-0.924
	c-9.258,4.626-18.518,6.479-30.857,6.479c-41.66,0-68.205-27.465-68.205-70.976c0-54.009,39.195-84.557,108.629-84.557
	c20.369,0,39.193,2.158,62.031,6.787l-16.273,34.278c-12.652-2.468-1.012-0.329-10.572-1.256v4.94l0.613,20.055l0.309,25.924
	c0.309,6.479,0.309,12.961,0.617,19.441c0,5.861,0,8.639,0,12.962c0,40.735-3.395,59.868-13.576,75.604
	c-14.814,23.146-40.428,34.564-76.842,34.564c-18.518,0-34.562-2.777-51.23-9.26V250.525L551.738,250.525z M646.17,108.57
	c-0.617,0-1.232,0-1.543,0h-3.396c-9.256-0.31-20.055,2.158-27.465,6.787c-11.416,6.482-17.281,18.21-17.281,34.874
	c0,23.763,11.729,37.34,32.711,37.34c6.48,0,11.729-1.233,17.898-3.083v-3.398v-12.959c0-5.555-0.309-11.729-0.309-18.209
	l-0.307-21.909l-0.311-15.739v-3.703H646.17z M792.467,69.377c47.521,0,76.533,29.935,76.533,78.383
	c0,49.686-30.242,80.854-78.385,80.854c-47.525,0-76.844-29.935-76.844-78.075C713.773,100.544,744.018,69.377,792.467,69.377z
	 M791.539,190.35c18.209,0,29.012-15.122,29.012-41.355c0-25.92-10.492-41.352-28.697-41.352c-18.828,0-29.631,15.124-29.631,41.352
	C762.221,175.228,773.023,190.35,791.539,190.35z"/>
</svg>
