<?xml version="1.0" encoding="utf-8"?>
<!-- Generator: Adobe Illustrator 16.2.1, SVG Export Plug-In . SVG Version: 6.00 Build 0)  -->
<!DOCTYPE svg PUBLIC "-//W3C//DTD SVG 1.1//EN" "http://www.w3.org/Graphics/SVG/1.1/DTD/svg11.dtd">
<svg version="1.1" id="Layer_1" xmlns="http://www.w3.org/2000/svg" xmlns:xlink="http://www.w3.org/1999/xlink" x="0px" y="0px"
	 width="679px" height="256.763px" viewBox="0 0 679 256.763" enable-background="new 0 0 679 256.763" xml:space="preserve">
<path fill="#010101" d="M39.297,236.864c0,5.392-1.925,10.059-5.814,14c-3.876,3.927-8.582,5.899-14.102,5.899
	c-5.395,0-9.985-1.975-13.745-5.899c-3.761-3.941-5.636-8.608-5.636-14c0-5.551,1.875-10.229,5.636-14.104
	c3.76-3.888,8.351-5.815,13.745-5.815c5.52,0,10.225,1.954,14.102,5.896C37.372,226.774,39.297,231.457,39.297,236.864
	 M285.964,252.712h-35.931L119.609,51.293c-3.048-4.845-5.675-10.112-7.905-15.862h-1.073c0.929,5.395,1.403,16.971,1.403,34.707
	v182.574H82.415V0.01h38.443L247.38,198.255c5.037,7.869,8.479,13.502,10.227,16.896h0.703c-1.171-7.271-1.783-19.662-1.783-37.155
	V0.01h29.441v252.702H285.964L285.964,252.712z M475.851,252.712H341.919V0.01h128.117v26.775h-98.522v84.062h91.292v26.789h-91.292
	v88.288H475.85L475.851,252.712L475.851,252.712z M679,26.79h-72.791v225.928h-29.606V26.79h-72.932V0H679V26.79L679,26.79z"/>
</svg>
