<?xml version="1.0" encoding="utf-8"?>
<!-- Generator: Adobe Illustrator 16.2.1, SVG Export Plug-In . SVG Version: 6.00 Build 0)  -->
<!DOCTYPE svg PUBLIC "-//W3C//DTD SVG 1.1//EN" "http://www.w3.org/Graphics/SVG/1.1/DTD/svg11.dtd">
<svg version="1.1" id="Layer_1" xmlns="http://www.w3.org/2000/svg" xmlns:xlink="http://www.w3.org/1999/xlink" x="0px" y="0px"
	 width="885.141px" height="255px" viewBox="0 0 885.141 255" enable-background="new 0 0 885.141 255" xml:space="preserve">
<path fill="#010101" d="M466.254,47.784h-41.837l0.069,78.28c0,22.877-9.809,41.385-32.687,41.385
	c-22.886,0-32.784-18.508-32.784-41.385V47.86h-41.729l-0.012,78.205c0,45.207,29.06,81.845,74.271,81.845
	c45.201,0,74.694-36.638,74.694-81.845L466.254,47.784z M885.141,0.087V203.87h-41.632V0.087H885.141z M300.645,52.682
	c0,17.371,0,47.415,0,47.415s-7.705-7.708-25.872-12.005c-35.918-8.497-54.458,24.511-54.458,31.396v84.248h-41.804V48.092h37.294
	l4.453,27.271c0,0,0.149,1.416,1.463,1.442c1.589,0.042,1.607-0.505,2.068-1.442c0.94-1.913,23.578-37.563,59.464-29.282
	C289.311,47.479,293.922,49.178,300.645,52.682z M522.983,255v-56.003c0.005,0,0.012,0.006,0.015,0.009l0.007-20.972
	c0,0,0.066-1.679,1.578-1.698c1.349-0.014,1.65,0.879,1.979,1.698c3.169,7.888,20.602,37.935,59.286,28.511
	c34.63-9.755,60.03-41.556,60.03-79.32c0-45.501-36.896-82.401-82.408-82.401c-45.512,0-82.403,36.9-82.403,82.401
	c0,0,0,112.646,0,127.775H522.983z M563.506,85.521c23.042,0,41.716,18.678,41.716,41.702c0,23.045-18.674,41.724-41.716,41.724
	c-23.036,0-41.705-18.679-41.705-41.724C521.801,104.199,540.47,85.521,563.506,85.521z M784.691,203.807h41.917v-76.582
	c0-45.501-36.891-82.401-82.404-82.401s-82.409,36.9-82.409,82.401c0,37.765,25.4,69.564,60.032,79.32
	c38.688,9.424,56.114-20.623,59.286-28.511c0.328-0.819,0.625-1.712,1.979-1.698c1.512,0.021,1.574,1.698,1.574,1.698
	 M785.879,127.225c0,23.045-18.677,41.723-41.709,41.723c-23.039,0-41.717-18.68-41.717-41.723
	c0-23.024,18.678-41.703,41.717-41.703C767.203,85.521,785.879,104.199,785.879,127.225z M47.554,203.479H0V0h51.024
	C112.809,0,159.67,11.337,159.67,101.739C159.67,191.271,110.033,203.479,47.554,203.479z M58.906,35.271H42.097v132.904
	l17.264,0.442c35.404,0,58.206-3.223,58.206-66.877C117.566,40.696,97.435,35.271,58.906,35.271z"/>
</svg>
