<?xml version="1.0" encoding="utf-8"?>
<!-- Generator: Adobe Illustrator 16.2.1, SVG Export Plug-In . SVG Version: 6.00 Build 0)  -->
<!DOCTYPE svg PUBLIC "-//W3C//DTD SVG 1.1//EN" "http://www.w3.org/Graphics/SVG/1.1/DTD/svg11.dtd">
<svg version="1.1" id="Layer_1" xmlns="http://www.w3.org/2000/svg" xmlns:xlink="http://www.w3.org/1999/xlink" x="0px" y="0px"
	 width="504.887px" height="573.001px" viewBox="0 0 504.887 573.001" enable-background="new 0 0 504.887 573.001"
	 xml:space="preserve">
<path fill="#020202" d="M265.532,454.597h-23.905l0.038,44.729c0,13.072-5.604,23.646-18.677,23.646
	c-13.077,0-18.732-10.573-18.732-23.646v-44.688h-23.845l-0.006,44.688c0,25.832,16.605,46.766,42.438,46.766
	c25.829,0,42.681-20.935,42.681-46.766L265.532,454.597z M504.887,427.341v116.443h-23.79V427.341H504.887z M170.902,457.396
	c0,9.925,0,27.092,0,27.092s-4.402-4.404-14.783-6.858c-20.524-4.854-31.118,14.005-31.118,17.939v48.141h-23.887v-88.937h21.31
	l2.544,15.583c0,0,0.086,0.809,0.836,0.822c0.907,0.023,0.918-0.289,1.181-0.822c0.538-1.096,13.473-21.467,33.978-16.732
	C164.427,454.422,167.062,455.393,170.902,457.396z M297.947,573v-32c0.005,0,0.008,0.003,0.009,0.005l0.005-11.982
	c0,0,0.037-0.958,0.901-0.972c0.771-0.008,0.941,0.502,1.131,0.972c1.81,4.507,11.771,21.676,33.876,16.291
	c19.787-5.574,34.302-23.745,34.302-45.325c0-25.999-21.083-47.084-47.088-47.084c-26.007,0-47.088,21.085-47.088,47.084
	c0,0,0,64.368,0,73.013L297.947,573L297.947,573z M321.103,476.158c13.166,0,23.838,10.674,23.838,23.829
	c0,13.168-10.672,23.841-23.838,23.841c-13.162,0-23.829-10.673-23.829-23.841C297.272,486.832,307.939,476.158,321.103,476.158z
	 M447.49,543.748h23.95v-43.761c0-25.999-21.079-47.084-47.087-47.084c-26.007,0-47.09,21.085-47.09,47.084
	c0,21.579,14.517,39.75,34.305,45.325c22.104,5.385,32.062-11.784,33.875-16.291c0.188-0.47,0.356-0.979,1.131-0.972
	c0.865,0.013,0.898,0.972,0.898,0.972 M448.169,499.987c0,13.168-10.673,23.841-23.833,23.841
	c-13.166,0-23.839-10.673-23.839-23.841c0-13.155,10.673-23.829,23.839-23.829C437.496,476.158,448.169,486.832,448.169,499.987z
	 M26.286,543.561H-0.887V427.292h29.155c35.304,0,62.081,6.478,62.081,58.134C90.35,536.585,61.986,543.561,26.286,543.561z
	 M32.772,447.446h-9.605v75.94l9.865,0.253c20.229,0,33.259-1.841,33.259-38.214C66.292,450.546,54.788,447.446,32.772,447.446z
	 M339.746,74.936c-20.577-12.812-39.99-17.861-59.4-30.673C268.307,36.109,251.612,16.696,237.633,0
	c-2.716,26.791-10.869,37.661-20.185,45.427c-19.803,15.531-32.227,20.19-49.311,29.509c-14.364,7.375-92.406,53.967-92.406,154.137
	c0,100.172,84.253,173.938,177.821,173.938c93.571,0,174.717-67.946,174.717-170.833C428.269,129.29,352.172,82.7,339.746,74.936z
	 M103.6,151.377c-3.107-5.436,1.165-17.471,15.529-33.39c1.331-1.473,2.93-3.009,4.731-4.578
	c19.745-22.004,46.951-36.986,55.451-41.236c3.879-1.94,20.965-10.095,38.437-23.295c10.482-8.153,18.249-15.919,21.74-41.545
	c0.306,1.01,0.583,1.989,0.841,2.956c4.506,14.232,3.82,21.7,3.82,25c0,3.495-1.941,12.812-8.153,17.473
	c-2.719,1.94-3.497,3.495-3.497,3.882c0,1.553,3.497,2.717,3.497,6.212c0,4.271-1.942,12.812-22.521,33.39
	c-20.575,20.577-50.083,38.826-72.991,50.086C117.577,157.59,106.707,156.813,103.6,151.377z M341.988,366.473
	c-1.939,1.942-19.801,14.364-40.767,16.307c-20.967,1.941-49.308,3.105-66.391-12.424c-2.717-2.72-1.942-6.603,0-8.153
	c1.94-1.552,3.494-2.718,5.823-2.718c2.329,0,1.942,0,3.104,0.775c7.765,6.213,19.412,11.26,44.264,11.26
	c24.848,0,42.317-6.987,50.084-12.812c3.493-2.718,5.046-0.388,5.436,1.164C343.931,361.425,344.706,363.753,341.988,366.473z
	 M274.045,331.143c4.271-3.884,11.26-10.097,17.857-12.812c6.602-2.719,10.096-2.329,16.309-2.329s12.811,0.388,17.472,3.492
	c4.659,3.108,7.376,10.097,8.932,13.979c1.552,3.879,0,6.209-3.106,7.764c-2.719,1.553-3.104,0.777-5.824-4.271
	c-2.72-5.047-5.046-10.093-18.637-10.093c-13.588,0-17.857,4.66-24.46,10.093c-6.598,5.439-8.931,7.376-11.26,4.271
	S269.775,335.021,274.045,331.143z M376.934,334.247c-13.979-1.164-41.934-44.649-59.791-45.427
	c-22.521-0.775-71.44,46.979-109.876,46.979c-23.294,0-30.283-3.494-38.051-8.541c-11.647-8.154-17.472-20.578-17.082-37.66
	c0.387-30.287,28.729-58.627,64.45-59.017c45.427-0.385,76.874,45.037,99.781,44.649c19.411-0.387,56.686-38.437,74.935-38.437
	c19.412,0,24.848,20.191,24.848,32.226c0,12.037-3.883,33.777-13.2,47.366C393.627,329.977,387.804,335.021,376.934,334.247z"/>
</svg>
