<?xml version="1.0" encoding="utf-8"?>
<!-- Generator: Adobe Illustrator 16.2.1, SVG Export Plug-In . SVG Version: 6.00 Build 0)  -->
<!DOCTYPE svg PUBLIC "-//W3C//DTD SVG 1.1//EN" "http://www.w3.org/Graphics/SVG/1.1/DTD/svg11.dtd">
<svg version="1.1" id="Layer_1" xmlns="http://www.w3.org/2000/svg" xmlns:xlink="http://www.w3.org/1999/xlink" x="0px" y="0px"
	 width="451.913px" height="516.616px" viewBox="0 0 451.913 516.616" enable-background="new 0 0 451.913 516.616"
	 xml:space="preserve">
<path d="M338.439,96.058c-26.379-16.424-51.264-22.896-76.148-39.319C246.86,46.288,225.461,21.402,207.541,0
	c-3.483,34.343-13.933,48.277-25.876,58.232c-25.385,19.909-41.311,25.881-63.21,37.826C100.041,105.513,0,165.238,0,293.645
	c0,128.409,108.002,222.971,227.945,222.971c119.949,0,223.968-87.102,223.968-218.988
	C451.914,165.735,354.366,106.012,338.439,96.058z M35.725,194.048c-3.982-6.968,1.493-22.395,19.907-42.801
	c1.706-1.889,3.756-3.857,6.065-5.868c25.311-28.207,60.186-47.411,71.082-52.859c4.973-2.486,26.875-12.94,49.271-29.861
	c13.438-10.451,23.392-20.406,27.868-53.256c0.394,1.293,0.748,2.549,1.078,3.789c5.776,18.244,4.896,27.818,4.896,32.047
	c0,4.479-2.489,16.425-10.451,22.398c-3.486,2.487-4.482,4.479-4.482,4.977c0,1.991,4.482,3.483,4.482,7.962
	c0,5.477-2.489,16.424-28.868,42.801c-26.375,26.378-64.202,49.771-93.566,64.205C53.642,202.014,39.707,201.017,35.725,194.048z
	 M341.313,469.776c-2.486,2.488-25.382,18.413-52.258,20.903c-26.877,2.489-63.207,3.981-85.105-15.925
	c-3.483-3.486-2.489-8.465,0-10.454c2.486-1.99,4.479-3.482,7.464-3.482c2.987,0,2.49,0,3.98,0.993
	c9.954,7.965,24.885,14.433,56.738,14.433c31.854,0,54.251-8.958,64.204-16.422c4.478-3.484,6.469-0.495,6.968,1.493
	C343.802,463.306,344.796,466.29,341.313,469.776z M254.216,424.486c5.476-4.979,14.435-12.941,22.893-16.426
	c8.461-3.482,12.94-2.987,20.905-2.987c7.962,0,16.42,0.497,22.396,4.477c5.973,3.986,9.455,12.943,11.449,17.924
	c1.989,4.972,0,7.959-3.983,9.952c-3.486,1.989-3.98,0.996-7.465-5.476c-3.485-6.47-6.469-12.938-23.891-12.938
	c-17.418,0-22.894,5.973-31.354,12.938c-8.461,6.971-11.449,9.455-14.435,5.476C247.747,433.446,248.742,429.46,254.216,424.486z
	 M386.108,428.465c-17.921-1.491-53.755-57.235-76.646-58.229c-28.868-0.994-91.579,60.219-140.85,60.219
	c-29.861,0-38.819-4.478-48.777-10.947c-14.93-10.453-22.395-26.378-21.896-48.277c0.497-38.821,36.827-75.15,82.618-75.65
	c58.233-0.493,98.545,57.731,127.909,57.234c24.883-0.498,72.663-49.271,96.056-49.271c24.886,0,31.854,25.882,31.854,41.309
	c0,15.43-4.978,43.3-16.919,60.718C407.506,422.992,400.041,429.46,386.108,428.465z"/>
</svg>
