<?xml version="1.0" encoding="utf-8"?>
<!-- Generator: Adobe Illustrator 16.2.1, SVG Export Plug-In . SVG Version: 6.00 Build 0)  -->
<!DOCTYPE svg PUBLIC "-//W3C//DTD SVG 1.1//EN" "http://www.w3.org/Graphics/SVG/1.1/DTD/svg11.dtd">
<svg version="1.1" id="Layer_1" xmlns="http://www.w3.org/2000/svg" xmlns:xlink="http://www.w3.org/1999/xlink" x="0px" y="0px"
	 width="533.791px" height="457.066px" viewBox="0 0 533.791 457.066" enable-background="new 0 0 533.791 457.066"
	 xml:space="preserve">
<path fill="#010101" d="M532.65,332.931c0,0-34.383-50.705-37.553-54.748c-6.998-8.908-17.824,0-17.824,0
	s-115.217,76.395-178.246,76.395c-63.016,0-57.287-50.29-57.287-50.29s195.419-38.832,195.419-190.97
	C437.16,46.47,386.881,0,314.307,0c-5.549,0-10.926,0.289-16.133,0.801c-9.771,0.309-27.757,2.624-50.248,14.231
	c-6.465,3.243-12.524,6.966-18.263,11.041c-1.728,1.196-3.457,2.423-5.228,3.735c-0.064,0.031-0.128,0.076-0.17,0.128
	c-9.229,6.848-18.861,15.213-28.793,25.667c-35.834,37.712-56.338,116.56-65.683,181.849c-39.558-2.518-65.695-9.975-76.801-13.784
	c-10.753-5.013-21.646-7.446-26.413-1.502c-5.09,6.377-22.916,45.198-22.916,45.198c-8.918,16.548,1.269,23.557,1.269,23.557
	s12.738,6.37,47.75,20.377c35.001,13.996,71.294,15.916,71.294,15.916c3.606,48.381,45.628,86.146,45.628,86.146l0.169-0.522
	c24.174,24.26,60.467,44.229,114.621,44.229c138.131,0,239.348-108.858,245.707-113.306C536.48,339.3,532.65,332.931,532.65,332.931
	z M316.855,84.032c31.193,0,38.83,25.466,38.83,44.561c0,19.427-18.625,66.633-64.156,91.063c-3.646,1.835-6.953,3.392-10.146,4.822
	c-15.062,6.379-32.559,10.423-53.021,10.423C228.362,234.902,229.643,84.032,316.855,84.032z"/>
</svg>
