<?xml version="1.0" encoding="utf-8"?>
<!-- Generator: Adobe Illustrator 16.2.1, SVG Export Plug-In . SVG Version: 6.00 Build 0)  -->
<!DOCTYPE svg PUBLIC "-//W3C//DTD SVG 1.1//EN" "http://www.w3.org/Graphics/SVG/1.1/DTD/svg11.dtd">
<svg version="1.1" id="Layer_1" xmlns="http://www.w3.org/2000/svg" xmlns:xlink="http://www.w3.org/1999/xlink" x="0px" y="0px"
	 width="778.956px" height="295.88px" viewBox="0 0 778.956 295.88" enable-background="new 0 0 778.956 295.88"
	 xml:space="preserve">
<path d="M778.81,215.099c-1.309-13.08-13.08-8.217-13.08-8.217s-18.965,14.695-35.641,13.061
	c-16.676-1.637-11.443-38.922-11.443-38.922s3.599-34.167-6.213-37.032c-9.811-2.864-21.905,8.905-21.905,8.905
	s-15.043,16.674-22.234,37.926l-1.963,0.654c0,0,2.289-37.275-0.328-45.777c-1.961-4.251-19.945-3.924-22.889,3.598
	c-2.941,7.519-17.328,59.833-18.31,81.742c0,0-28.121,23.871-52.645,27.795c-24.523,3.922-30.408-11.443-30.408-11.443
	s66.703-18.639,64.414-71.936s-53.789-33.591-59.617-29.21c-5.637,4.236-35.74,22.396-44.52,72.667
	c-0.3,1.717-0.822,9.188-0.822,9.188s-25.832,17.328-40.218,21.906c0,0,40.218-67.686-8.828-98.419
	c-22.234-13.408-39.892,14.712-39.892,14.712S478.645,92.4,463.93,29.948c-7.007-29.74-21.872-32.935-35.522-28.123
	C407.69,10.003,399.844,22.1,399.844,22.1s-26.812,38.909-33.024,96.784c-6.212,57.875-15.368,127.848-15.368,127.848
	s-12.752,12.426-24.523,13.08c-11.77,0.654-6.54-34.986-6.54-34.986s9.156-54.277,8.502-63.434
	c-0.652-9.156-1.308-14.062-12.099-17.33c-10.79-3.271-22.561,10.463-22.561,10.463s-31.062,47.084-33.679,54.279l-1.635,2.941
	l-1.635-1.963c0,0,21.907-64.088,0.98-65.068c-20.926-0.981-34.66,22.889-34.66,22.889s-23.869,39.891-24.85,44.469l-1.635-1.961
	c0,0,9.809-46.432,7.848-57.876c-1.961-11.444-12.752-9.155-12.752-9.155s-13.733-1.635-17.33,7.194
	c-3.597,8.83-16.676,67.357-18.311,85.994c0,0-34.333,24.523-56.894,24.852s-20.272-14.307-20.272-14.307
	s82.725-28.322,60.163-84.236c-10.136-14.387-21.907-18.904-38.583-18.577c-16.676,0.327-37.223,10.495-50.628,40.577
	c-6.398,14.357-9.108,27.963-9.887,38.275v-0.004c0,0-14.635,2.957-22.481-3.582c-7.848-6.541-11.96,0-11.96,0
	s-13.501,17.484-0.096,22.717c13.405,5.232,34.292,8.002,34.292,8.002H40.21c1.922,9.348,7.514,24.381,23.835,36.787
	c24.523,18.637,71.604-1.871,71.604-1.871l19.29-10.91c0,0,0.653,17.66,14.713,20.244c14.06,2.582,19.945-0.062,44.468-59.57
	c14.387-30.408,15.367-28.789,15.367-28.789l1.635-0.334c0,0-11.117,58.197-6.867,73.893c4.25,15.693,22.888,14.057,22.888,14.057
	s10.137,2.439,18.311-26.334c8.173-28.775,23.87-60.016,23.87-60.016h1.962c0,0-6.866,59.031,3.597,77.996
	s37.604,6.139,37.604,6.139s18.964-9.684,21.906-12.625c0,0,22.516,19.09,54.26,15.625c70.972-13.969,96.215-32.861,96.215-32.861
	s12.194,30.875,49.961,33.734c43.16,3.27,66.703-23.879,66.703-23.879s-0.326,17.648,14.715,23.861s25.176-28.316,25.176-28.316
	l25.176-69.021h2.289c0,0,1.308,44.74,26.158,51.936c24.85,7.191,57.221-17.027,57.221-17.027S780.116,228.176,778.81,215.099z
	 M75.485,221.556c0.981-38.91,26.485-55.912,35.314-47.412c8.828,8.502,5.558,26.812-11.117,38.258
	C83.005,223.844,75.485,221.556,75.485,221.556z M407.365,70.82c0,0,23.214-60.49,28.771-31.062
	c5.561,29.429-48.718,117.059-48.718,117.059C388.073,137.196,407.365,70.82,407.365,70.82z M435.157,239.213
	c-15.369,40.219-52.644,23.869-52.644,23.869s-4.251-14.387,7.849-54.604c12.098-40.221,40.544-24.523,40.544-24.523
	S450.525,198.994,435.157,239.213z M538.153,221.556c0,0-3.597-12.752,9.811-37.275c13.406-24.523,23.869-11.117,23.869-11.117
	s11.443,12.424-1.635,31.062S538.153,221.556,538.153,221.556z"/>
</svg>
