<?xml version="1.0" encoding="utf-8"?>
<!-- Generator: Adobe Illustrator 16.2.1, SVG Export Plug-In . SVG Version: 6.00 Build 0)  -->
<!DOCTYPE svg PUBLIC "-//W3C//DTD SVG 1.1//EN" "http://www.w3.org/Graphics/SVG/1.1/DTD/svg11.dtd">
<svg version="1.1" id="Layer_1" xmlns="http://www.w3.org/2000/svg" xmlns:xlink="http://www.w3.org/1999/xlink" x="0px" y="0px"
	 width="548.003px" height="547.995px" viewBox="0 0 548.003 547.995" enable-background="new 0 0 548.003 547.995"
	 xml:space="preserve">
<path fill="#010101" d="M537.668,249.588L298.396,10.336c-13.77-13.781-36.117-13.781-49.903,0l-49.681,49.688l63.022,63.024
	c14.65-4.946,31.443-1.628,43.115,10.047c11.739,11.747,15.033,28.684,9.96,43.384l60.744,60.741
	c14.695-5.064,31.648-1.791,43.387,9.965c16.405,16.4,16.405,42.979,0,59.384c-16.412,16.41-42.987,16.41-59.399,0
	c-12.337-12.348-15.39-30.473-9.143-45.67l-56.646-56.651l-0.004,149.081c3.998,1.974,7.773,4.613,11.103,7.938
	c16.407,16.395,16.407,42.97,0,59.394c-16.405,16.398-42.992,16.398-59.38,0c-16.402-16.424-16.402-42.999,0-59.394
	c4.054-4.053,8.742-7.111,13.748-9.16V201.641c-5.006-2.045-9.688-5.088-13.748-9.163c-12.424-12.416-15.417-30.651-9.045-45.908
	l-62.127-62.139l-164.06,164.05c-13.784,13.793-13.784,36.144,0,49.925l239.268,239.253c13.774,13.78,36.121,13.78,49.914,0
	l238.147-238.143C551.448,285.729,551.448,263.369,537.668,249.588z"/>
</svg>
