<?xml version="1.0" encoding="utf-8"?>
<!-- Generator: Adobe Illustrator 16.2.1, SVG Export Plug-In . SVG Version: 6.00 Build 0)  -->
<!DOCTYPE svg PUBLIC "-//W3C//DTD SVG 1.1//EN" "http://www.w3.org/Graphics/SVG/1.1/DTD/svg11.dtd">
<svg version="1.1" id="Layer_1" xmlns="http://www.w3.org/2000/svg" xmlns:xlink="http://www.w3.org/1999/xlink" x="0px" y="0px"
	 width="783.968px" height="327.448px" viewBox="0 0 783.968 327.448" enable-background="new 0 0 783.968 327.448"
	 xml:space="preserve">
<path fill="#010101" d="M527.956,112.397c5.617,7.188,11.559,17.188,11.559,31.56c0,34.678-27.182,54.984-66.541,54.984
	c-10.006,0-19.068-1.244-24.686-2.809l-10.316,16.559l30.617,1.869c54.057,3.445,85.914,5.014,85.914,46.551
	c0,35.939-31.545,56.238-85.914,56.238c-56.553,0-78.111-14.374-78.111-39.052c0-14.064,6.254-21.547,17.185-31.876
	c-10.314-4.357-13.748-12.166-13.748-20.604c0-6.879,3.434-13.126,9.066-19.068c5.627-5.928,11.871-11.871,19.371-18.742
	c-15.309-7.498-26.873-23.745-26.873-46.869c0-35.928,23.748-60.603,71.544-60.603c13.436,0,21.564,1.238,28.752,3.124h60.93v26.551
	L527.956,112.397z M435.474,254.878c-4.066,4.992-8.121,10.301-8.121,16.559c0,12.488,15.926,16.248,37.803,16.248
	c18.123,0,42.809-1.271,42.809-18.119c0-10.017-11.873-10.633-26.881-11.572L435.474,254.878z M469.837,111.454
	c-17.188,0-29.992,8.441-29.992,28.753c0,15.305,8.443,25.933,29.068,25.933c17.482,0,29.361-10.305,29.361-26.564
	C498.274,121.147,487.649,111.454,469.837,111.454z M571.358,243.385v-24.674l15.941-2.181c4.375-0.632,4.996-1.563,4.996-6.261
	v-91.854c0-3.43-0.932-5.626-4.066-6.556l-16.871-5.942l3.436-25.298h64.682v129.65c0,5.01,0.305,5.63,5.004,6.261l15.934,2.181
	v24.676L571.358,243.385L571.358,243.385z M611.673,55.622c-17.812,0-28.119-10.319-28.119-28.135C583.554,9.692,593.86,0,611.673,0
	c18.121,0,28.434,9.692,28.434,27.487C640.106,45.302,629.796,55.622,611.673,55.622z M783.968,231.27
	c-13.439,6.555-33.119,12.494-50.939,12.494c-37.18,0-51.234-14.983-51.234-50.307v-81.852c0-1.87,0-3.125-2.508-3.125h-21.869
	V80.674c27.504-3.133,38.434-16.883,41.867-50.938h29.689v44.382c0,2.178,0,3.123,2.502,3.123h44.049v31.24h-46.551v74.667
	c0,18.434,4.379,25.614,21.242,25.614c8.758,0,17.811-2.182,25.309-4.992L783.968,231.27z M321.026,149.281L178.166,6.429
	c-8.222-8.229-21.564-8.229-29.797,0l-29.663,29.667l37.629,37.63c8.747-2.954,18.774-0.974,25.744,5.998
	c7.007,7.013,8.974,17.127,5.946,25.903l36.267,36.269c8.775-3.024,18.898-1.07,25.905,5.948c9.795,9.792,9.795,25.658,0,35.454
	c-9.797,9.8-25.665,9.8-35.466,0c-7.366-7.372-9.187-18.19-5.457-27.266l-33.823-33.825l-0.003,89.008
	c2.389,1.179,4.642,2.757,6.631,4.739c9.794,9.789,9.794,25.657,0,35.463c-9.795,9.791-25.67,9.791-35.455,0
	c-9.793-9.807-9.793-25.674,0-35.463c2.421-2.418,5.221-4.245,8.209-5.468v-89.834c-2.989-1.221-5.784-3.038-8.209-5.471
	c-7.418-7.413-9.204-18.302-5.4-27.411L104.129,50.67L6.173,148.62c-8.23,8.235-8.23,21.577,0,29.806l142.861,142.852
	c8.225,8.229,21.564,8.229,29.8,0l142.192-142.188C329.255,170.856,329.255,157.509,321.026,149.281z"/>
</svg>
