<?xml version="1.0" encoding="utf-8"?>
<!-- Generator: Adobe Illustrator 16.2.1, SVG Export Plug-In . SVG Version: 6.00 Build 0)  -->
<!DOCTYPE svg PUBLIC "-//W3C//DTD SVG 1.1//EN" "http://www.w3.org/Graphics/SVG/1.1/DTD/svg11.dtd">
<svg version="1.1" id="Layer_1" xmlns="http://www.w3.org/2000/svg" xmlns:xlink="http://www.w3.org/1999/xlink" x="0px" y="0px"
	 width="566.404px" height="456.812px" viewBox="0 0 566.404 456.812" enable-background="new 0 0 566.404 456.812"
	 xml:space="preserve">
<path fill="#010101" d="M197.891,161.787c8.084,10.349,16.638,24.744,16.638,45.429c0,49.923-39.126,79.153-95.784,79.153
	c-14.403,0-27.448-1.797-35.533-4.047L68.36,306.161l44.071,2.685c77.813,4.967,123.671,7.217,123.671,67.01
	c0,51.736-45.409,80.957-123.671,80.957C31.031,456.811,0,436.12,0,400.592c0-20.246,8.998-31.017,24.733-45.884
	C9.886,348.441,4.95,337.195,4.95,325.055c0-9.9,4.936-18.894,13.045-27.453c8.1-8.528,17.087-17.088,27.882-26.979
	C23.844,259.834,7.2,236.441,7.2,203.156c0-51.715,34.181-87.232,102.979-87.232c19.339,0,31.042,1.782,41.387,4.496h87.705v38.217
	L197.891,161.787z M64.767,366.881c-5.854,7.186-11.692,14.826-11.692,23.84c0,17.977,22.926,23.386,54.416,23.386
	c26.086,0,61.619-1.826,61.619-26.079c0-14.424-17.093-15.312-38.692-16.666L64.767,366.881z M114.234,160.429
	c-24.744,0-43.174,12.149-43.174,41.389c0,22.031,12.152,37.324,41.841,37.324c25.167,0,42.265-14.83,42.265-38.235
	C155.166,174.383,139.87,160.429,114.234,160.429z M260.366,350.338V314.82l22.946-3.139c6.299-0.91,7.191-2.252,7.191-9.015
	V170.452c0-4.938-1.342-8.1-5.854-9.437l-24.284-8.555l4.945-36.416h93.104v186.623c0,7.217,0.438,8.104,7.201,9.015l22.938,3.139
	v35.518H260.366z M318.396,80.063c-25.643,0-40.479-14.854-40.479-40.498C277.919,13.951,292.756,0,318.396,0
	c26.086,0,40.928,13.951,40.928,39.565C359.324,65.209,344.481,80.063,318.396,80.063z M566.404,332.898
	c-19.344,9.436-47.676,17.984-73.322,17.984c-53.52,0-73.749-21.568-73.749-72.406V160.649c0-2.692,0-4.499-3.609-4.499h-31.479
	v-40.026c39.589-4.509,55.319-24.301,60.265-73.321h42.733v63.884c0,3.137,0,4.496,3.604,4.496h63.404v44.967h-67.008v107.479
	c0,26.534,6.304,36.87,30.577,36.87c12.606,0,25.636-3.14,36.431-7.188L566.404,332.898z"/>
</svg>
