<?xml version="1.0" encoding="utf-8"?>
<!-- Generator: Adobe Illustrator 16.2.1, SVG Export Plug-In . SVG Version: 6.00 Build 0)  -->
<!DOCTYPE svg PUBLIC "-//W3C//DTD SVG 1.1//EN" "http://www.w3.org/Graphics/SVG/1.1/DTD/svg11.dtd">
<svg version="1.1" id="Layer_1" xmlns="http://www.w3.org/2000/svg" xmlns:xlink="http://www.w3.org/1999/xlink" x="0px" y="0px"
	 width="1000px" height="243.828px" viewBox="0 0 1000 243.828" enable-background="new 0 0 1000 243.828" xml:space="preserve">
<path d="M620.257,88.252c-14.63,0.097-35.064,0.235-47.791,0.321c-10.972,0.073-15.709,8.799-17.334,14.769
	c-0.804,3.475-9.082,40.816-9.082,40.816s-3.28,14.01,10.104,13.92c13.394-0.088,37.072-0.248,50.878-0.34
	c13.798-0.096,16.47-14.098,16.47-14.098s9.109-39.896,9.438-42.438C633.688,97.272,632.819,88.168,620.257,88.252z M601.688,104.01
	c0,0-6.905,30.738-8.062,36.15c-1.149,5.412-3.108,7.137-6.098,7.137c-2.995,0-17.849,0-25.102,0c-4.603,0-5.18-2.879-4.144-6.906
	c0.809-3.227,7.947-36.296,7.947-36.296c1.272-4.868,5.289-5.147,5.289-5.147s20.842,0,26.247,0
	C603.183,98.945,601.688,104.01,601.688,104.01z M402.401,102.69c0,0-9.115,39.896-9.438,42.437
	c-0.75,3.934,0.119,13.039,12.682,12.951c14.625-0.096,40.625-0.232,53.351-0.32l15.521-69.506
	c-13.394,0.089-41.844,0.248-55.643,0.34C405.066,88.687,402.401,102.69,402.401,102.69z M431.612,146.193c0,0-17.668,0-23.129,0
	c-5.468,0-3.645-5.828-3.645-5.828s6.559-29.138,8.192-35.875c1.641-6.739,5.648-6.689,5.648-6.689h23.558L431.612,146.193z
	 M247.121,138.104c14.855,0,63.877,0.002,63.877,0.002l-4.389,19.652c0,0-52.658,0-65.636,0
	C230.387,157.566,229.363,138.271,247.121,138.104z M962.797,45.126c-46.354,0-256.84,0-266.904,0
	c-10.067,0-20.139,7.407-20.139,7.407s-7.775-7.442-18.796-7.442s-124.626,0-124.626,0l10.07-44.038h-77.505l-9.883,44.07
	c0,0-64.577,0-71.417,0c-14.63,0-23.755,6.84-23.755,6.84s-10.453-6.84-20.327-6.84H111.559l10.068-44.831L45.091,0L21.786,99.646
	L0,200.26h76.794l23.555-102.327h26.784c0,0,2.469,0.192,1.709,3.61c-0.76,3.418-22.226,98.59-22.226,98.59s500.175,0,513.478,0
	c13.297,0,24.122-6.078,24.122-6.078s8.359,6.078,18.24,6.078c13.106,0,125.326,0,125.326,0l-9.826,43.695h78.125l9.26-43.693
	c0,0,44.829,0.572,68.956,0c24.128-0.57,42.367-14.436,49.016-44.262c6.649-29.826,15.766-74.087,15.766-74.087
	S1009.146,45.126,962.797,45.126z M139.132,188.744c0,0,17.262-77.193,18.813-85.921c1.551-8.728-1.552-14.351-10.279-14.628
	c-7.559-0.24-55.494,0-55.494,0l-22.28,100.743H32.459L71.616,10.61h37.798l-10.43,45.667c0,0,66.338-0.445,81.072,0
	c12.8,0.386,23.273,11.055,19.588,29.865c-3.686,18.815-22.692,102.602-22.692,102.602H139.132L139.132,188.744z M209.15,188.938
	c-15.71,0-20.365-17.457-18.813-25.406c1.551-7.951,3.297-15.906,6.609-29.582c3.312-13.677,17.247-27.632,31.793-27.632
	c14.546,0,89.413,0,89.413,0s7.174-19.201-10.667-19.397c-12.414-0.135-100.273,0-100.273,0L214,55.208c0,0,108.031-0.222,126.843,0
	c16.488,0.194,22.5,16.583,19.202,30.74c-3.297,14.158-22.518,102.987-22.518,102.987S224.86,188.938,209.15,188.938z
	 M374.544,188.857c-28.553,0-23.027-27.631-23.027-27.631l16.578-74.858c2.995-14.303,15.889-30.665,33.62-30.665
	c17.729,0,80.369,0,80.369,0l10.609-45.306h37.269l-39.374,178.46C490.589,188.857,403.097,188.857,374.544,188.857z
	 M657.249,162.152c0,0-5.072,26.771-32.249,26.771c-27.182,0-73.829,0-100.195,0c-26.369,0-20.081-26.771-20.081-26.771
	s15.823-71.396,17.355-78.02c3.13-11.427,12.342-28.059,33.96-28.059c25.061,0,65.308,0,94.107,0
	c24.747,0,26.571,17.443,25.151,24.948C674.69,85.894,657.249,162.152,657.249,162.152z M785.432,188.926
	c-27.178,0-73.83,0-100.194,0c-26.367,0-20.08-26.771-20.08-26.771s15.821-71.396,17.358-78.02
	c3.124-11.427,12.343-28.059,33.954-28.059c25.062,0,65.313,0,94.114,0c24.742,0,26.572,17.444,25.148,24.948
	c-0.611,4.87-18.055,81.13-18.055,81.13S812.613,188.926,785.432,188.926z M987.755,85.13c-1.023,5.745-16.006,72.233-16.006,72.233
	c-5.542,24.832-20.728,32.627-36.323,32.627c-15.595,0-77.574,0-77.574,0l-10.463,44.326H810.45l39.378-178.027
	c0,0,83.543,0,114.124,0C991.241,56.289,988.78,79.383,987.755,85.13z M933.37,88.252c-14.63,0.097-40.63,0.235-53.354,0.321
	L864.5,158.078c13.389-0.088,41.839-0.248,55.644-0.34c13.8-0.096,16.472-14.098,16.472-14.098s9.107-39.896,9.438-42.438
	C946.802,97.272,945.933,88.168,933.37,88.252z M916.036,103.631c0,0-6.558,29.14-8.191,35.876
	c-1.641,6.736-5.648,6.688-5.648,6.688h-23.558l10.626-48.391c0,0,17.668,0,23.13,0C917.86,97.804,916.036,103.631,916.036,103.631z
	 M780.688,88.252c-14.625,0.097-35.061,0.235-47.784,0.321c-10.978,0.073-15.716,8.799-17.338,14.769
	c-0.801,3.475-9.077,40.816-9.077,40.816s-3.286,14.01,10.102,13.92c13.389-0.088,37.074-0.248,50.873-0.34
	c13.805-0.096,16.471-14.098,16.471-14.098s9.113-39.896,9.438-42.438C794.119,97.272,793.25,88.168,780.688,88.252z
	 M762.631,104.01c0,0-6.907,30.738-8.062,36.15c-1.149,5.412-3.108,7.137-6.1,7.137c-2.995,0-17.847,0-25.099,0
	c-4.604,0-5.182-2.879-4.146-6.906c0.812-3.227,7.948-36.296,7.948-36.296c1.274-4.868,5.289-5.147,5.289-5.147s20.841,0,26.248,0
	C764.126,98.945,762.631,104.01,762.631,104.01z M311.665,137.93c-0.789,2.014-0.552,4.346-1.326,6.629
	c-1.162,3.428-2.655,7.475-2.65,11.938c-0.223,0-0.442,0-0.664,0c0,0.223,0,0.443,0,0.662c-23.208,0-46.42,0-69.628,0
	c-1.305-1.551-3.864-2.629-4.641-4.639c-1.306-3.379,2.115-10.312,3.314-11.273c1.321-1.062,2.821-1.311,3.979-2.654
	c0.664,0,1.326,0,1.99,0c0-0.221,0-0.438,0-0.66C265.244,137.93,288.457,137.93,311.665,137.93z M307.022,157.156
	c-17.239,0-34.483,0-51.726,0c-3.587,0-16.177,0.844-17.904-0.662c-3.86-0.998-6.122-6.566-3.979-11.271
	c1.008-2.209,6.083-6.486,8.621-7.293c23.207,0,46.42,0,69.627,0c0,0.223,0,0.439,0,0.66c-1.521,1.688-0.546,3.529-1.326,5.971
	C309.155,148.254,307.822,153.012,307.022,157.156z"/>
</svg>
