<?xml version="1.0" encoding="utf-8"?>
<!-- Generator: Adobe Illustrator 16.2.1, SVG Export Plug-In . SVG Version: 6.00 Build 0)  -->
<!DOCTYPE svg PUBLIC "-//W3C//DTD SVG 1.1//EN" "http://www.w3.org/Graphics/SVG/1.1/DTD/svg11.dtd">
<svg version="1.1" id="Layer_1" xmlns="http://www.w3.org/2000/svg" xmlns:xlink="http://www.w3.org/1999/xlink" x="0px" y="0px"
	 width="548.001px" height="408.604px" viewBox="0 0 548.001 408.604" enable-background="new 0 0 548.001 408.604"
	 xml:space="preserve">
<path d="M540.8,100.444c0,0-5.286-26.937-17.465-31.932c-12.184-4.999-15.668-4.241-21.273-0.625
	c-5.959,3.845-9.893,16.484-14.836,19.369c-4.949,2.885-13.188,5.771-13.188,5.771c-5.646-25.898-34.237-38.342-50.043-51.292
	c-8.14-6.87-38.754-41.487-79.4-40.835c0,0-34.292,1.145-63.385,16.785c-29.093,15.641-41.372,38.345-41.372,38.345
	s-11.6-0.337-20.177,7.4c-7.418,6.691-21.025,20.012-21.025,20.012s-17.87,1.913-37.669,7.065
	c-18.455,4.801-39.937,14.951-49.613,22.873c-11.518,9.43-21.923,19.824-28.254,27.244c-4.875,5.718-11.084,18.572-17.658,25.057
	c-7.887,7.781-15.19,10.329-16.984,10.091c0,0,8.577-9.586,6.389-19.844c-0.603-2.84,8.072,8.914,8.072,8.914
	c0-0.001,2.929-9.007,2.357-17.154c-0.425-6.067-3.949-11.587-5.888-12.95c0,0,1.344-2.187,2.692-5.55
	c1.344-3.364,2.018-7.568,2.018-7.568s-11.407,1.831-19.676,7.735c-11.081,7.911-18.904,15.171-23.547,27.245
	c-3.362,8.746,4.541,18.667,6.055,19.846c1.513,1.179,2.187,15.978,10.09,21.022c7.907,5.045,19.171,4.035,19.171,4.035
	s-1.837,13.62-1.514,26.907c0.304,12.35,2.771,24.366,2.692,26.068c-0.169,3.531-4.372,14.801-5.379,16.65
	c-1.01,1.849-19.172,19.168-21.19,21.354c-2.018,2.188-4.371,6.897-2.522,14.296c0.954,3.827,4.111,16.086,13.622,27.414
	c8.865,10.561,30.606,22.534,42.715,20.516c0.232-0.039-3.697,9.752-4.372,13.623c-0.674,3.869-2.357,14.631,5.211,18.332
	c3.346,1.635,11.462,6.16,21.529,9.25c12.716,3.904,28.175,6.295,36.996,6.391c7.694,0.082,17.985-1.615,22.2-8.577
	c4.45-7.339,2.928-18.86,3.196-21.524c0.674-6.725,8.577-16.652,10.26-19.342c1.679-2.688,1.175-19.338,1.175-19.338
	s6.685,1.033,13.792,1.346c7.103,0.314,14.63-0.088,16.314-0.17c0,0-10.764,4.209-10.764,13.457
	c-0.003,3.538,0.883,11.924,4.71,20.18c6.169,13.315,17.26,27.902,24.217,33.299c11.265,8.742,24.888,9.586,38.509,0.672
	c8.274-5.416,7.397-11.936,10.765-14.797c1.601-1.364,6.656-4.309,11.438-8.073c5.241-4.126,10.169-9.058,10.256-9.585
	c0.087-0.518,1.688,2.277,7.568,3.697c5.654,1.367,15.407,1.348,24.887,1.348c19.346,0,27.754-1.514,27.754-1.514
	s5.9-2.416,8.911-8.577c2.438-4.981,2.153-13.587,1.854-16.146c-0.675-5.72-4.205-8.242-4.205-8.242s-0.336-24.387-0.336-29.432
	c0-5.046-13.792-41.371-13.792-41.371s8.576,8.072,15.307,13.793c3.356,2.856,12.171,10.357,21.354,11.269
	c23.713,2.353,36.295-13.22,40.026-19.343c5.4-8.855,7.398-19.506,7.398-19.506s25.061,5.377,50.792-2.191
	C576.866,227.903,540.8,100.444,540.8,100.444z M54.546,140.558c0,0,4.58,9.795,3.473,7.899c-1.104-1.896-4.896-2.369-4.896-2.369
	S53.912,142.296,54.546,140.558z M43.652,192.833c-8.167-3.112-5.443-13.218-10.11-19.829c-4.663-6.609-10.887-17.495,17.497-38.492
	c0,0-3.5,7.776-4.277,13.221c-0.78,5.443-0.39,9.72-1.167,15.163c-0.781,5.443-6.22,10.496-6.22,10.496s1.943,9.72,9.33,11.666
	c7.391,1.945,17.887-8.943,17.887-8.943l-4.667,14.387C61.926,190.502,51.815,195.945,43.652,192.833z M53.373,328.139
	c-19.83-17.107-13.22-30.717-7.717-34.54c6.366-4.427,14.142-13.692,14.717-14.836c0.777-1.554,2.33-6.61,2.72-8.554
	c0,0,8.163,22.937,13.606,33.438c5.443,10.5,15.163,27.604,15.163,27.604C90.309,338.249,86.773,356.952,53.373,328.139z
	 M356.246,312.584c0.39,7.388-0.387,28.385,0.395,29.941c0.775,1.557,4.662,3.496,2.721,13.217
	c-1.944,9.719-7.776,8.942-18.273,8.942c-20.788,0-33.44-3.11-33.44-3.11c8.554-9.72,31.723-25.593,39.273-77.369
	C346.92,284.206,355.859,305.2,356.246,312.584z M537.261,161.811c-0.718,24.955-9.199,46.225-18.415,58.271
	c-45.153,59.031-131.948,6.252-131.948,6.252c2.183,14.502-0.467,20.426-0.467,20.426c-1.402,7.48-7.331,19.177-2.499,26.191
	c8.972,13.021,24.854,3.687,23.391,3.898c-17.153,2.494-19.646-6.236-19.646-6.236s9.822,4.211,21.359,0.78
	c9.437-2.806,12.006-21.981,12.94-21.205c0.934,0.776,6.551,1.715,6.551,1.715s-2.653,30.56-33.212,33.054
	c-11.651,0.951-21.201-9.51-24.633-12.785c-3.429-3.275-17.46-15.744-17.46-15.744c-2.313-0.797-11.772-2.789-20.579-7.174
	c-8.396-4.174-16.217-10.756-16.217-10.756c3.902,11.69,26.757,20.961,27.213,22.033c0.229,0.543-5.454,30.44-14.078,52.99
	c-8.908,23.283-22.522,36.468-25.447,39.566c-5.459,5.771-16.839,14.027-20.737,17.303c-3.896,3.275-12.786,8.262-15.282,10.915
	c-2.495,2.651-6.897,9.56-6.897,9.56c-3.362,4.539-13.287,11.1-24.217,2.355c-2.184-1.746-8.365-8.746-13.622-16.988
	c-5.254-8.242-9.503-17.828-10.26-20.516c-1.514-5.381,0.504-8.072,2.188-9.922c1.683-1.85,19.002-11.27,21.19-12.953
	s3.871-1.178,4.541,0.171c0.674,1.349,4.036,5.72,3.867,4.206c-0.17-1.514-1.68-11.27-1.68-16.818s1.514-17.828,1.175-16.648
	c-0.335,1.178-6.725,17.992-8.238,18.162c-3.083,0.348-21.359,3.362-29.767,3.027c-8.411-0.335-25.396,0.169-28.087-2.523
	c-2.688-2.691-5.715-20.182-5.715-20.182c-0.004,0,0.839,29.598-0.169,37.166c-1.061,7.946-3.374,10.732-4.036,11.942
	c-2.112,3.854-3.638,6.153-7.655,12.026c-4.012,5.873-2.471,5.25-3.09,15.135c-0.619,9.886-1.124,11.418-14.718,12.346
	c-13.59,0.927-38.415-7.71-44.284-11.111c-5.869-3.4-6.488-7.722-4.328-15.443c2.165-7.721,7.726-35.524,7.726-35.524
	c-32.75-45.724-55.611-106.301-17.613-169.91c28.423-47.575,78.998-59.732,105.047-60.898c0,0-35.77,34.992-47.997,64.097
	c-6.314,15.039-4.036,28.001,2.775,34.056c6.811,6.054,20.181,32.291,20.181,32.291s-8.324,17.657-6.559,22.198
	c0,0,4.135,4.868,11.352,11.101c7.619,6.574,18.747,14.521,34.812,13.873c10.11-0.404,39.101-17.154,51.461-23.207
	c12.361-6.056,29.516-6.308,29.516-6.812c0-0.236,7.383-14.824,8.327-33.299c1.05-20.646-4.366-45.646-5.301-50.705
	c-1.767-9.586-5.047-46.669-5.047-46.669s-5.045,21.695-3.025,46.669c0.718,8.859,4.876,35.316,4.793,43.641
	c-0.252,25.226-8.325,32.542-8.325,32.542c-16.902-0.252-51.209,19.676-59.282,24.217c-4.036,2.271-9.929,4.715-16.145,4.793
	c-6.212,0.084-12.743-2.203-15.641-3.783c-8.325-4.541-16.65-15.893-16.902-16.649c-0.981-2.944,2.097-14.284,7.316-24.722
	c10.201-20.409,26.807-44.13,24.469-42.128c-3.531,3.027-30.523,38.597-30.523,38.597c-0.354-5.35-12.866-21.19-20.686-31.785
	c-3.406-4.614-1.675-11.825-1.009-14.631c0.769-3.244,5.921-16.768,17.154-31.28c21.947-28.364,57.551-65.201,62.057-69.373
	c6.811-6.307,13.622-6.055,17.659-6.811c4.036-0.757,44.656-8.325,40.868-8.073c-3.784,0.252-33.3,1.514-32.795,0.505
	c1.467-2.933,10.973-16.046,30.524-27.245c16.886-9.673,43.142-17.426,62.312-17.659c23.2-0.284,46.613,16.973,62.562,29.767
	c12.486,10.02,20.528,16.255,19.425,16.145c-2.523-0.252-8.072,1.514-8.072,1.514c4.888-0.097,20.039,3.173,28.254,11.352
	c9.438,9.405,15.147,22.375,17.272,27.456c0.426,0.552,0.74,1.153,0.891,1.807c0.21,0.926-0.099,0.095-0.891-1.807
	c-3.213-4.135-13.457-5.337-18.785-2.229c-3.445,2.01-13.118,3.784-13.118,3.784l8.324,1.514c-1.088,2.172-0.635,5.487,0.011,8.11
	c0.06-0.64,0.201-1.279,0.521-1.885c1.298-2.452,4.34-3.388,6.791-2.093c2.271,1.202,3.248,3.709,2.351,6.046
	c-3.989,0.319-5.199,0.56-8.258,1.927c-0.139-0.133-0.213-0.308-0.328-0.453c0.104,0.276,0.174,0.457,0.174,0.457
	s-6.054,4.037-2.523,2.775c3.532-1.262,20.183-1.767,22.2,0.252c2.019,2.018,1.515,9.333,1.515,9.333
	c-10.849-5.55-28.254-2.775-32.29,9.082c-1.419,4.17-6.812,17.658-6.812,17.658c3.278-2.271,6.559-13.622,13.369-20.181
	c5.558-5.356,18.668-5.55,15.136-4.793c-3.531,0.757-9.586,10.595-9.839,15.641c-0.252,5.045-3.026,22.452-3.026,22.452
	c4.288-4.541,5.551-24.218,13.622-30.776c7.475-6.074,11.856-3.784,11.856-3.784c3.027,12.109-4.036,43.39-4.036,43.39
	c2.594-4.955,7.107-13.736,8.829-25.479c1.959-13.374,0.923-29.759,0.252-34.056c-1.261-8.073,2.338-10.483,6.307-11.856
	c6.561-2.271,10.344-4.541,15.894-8.325s11.353-14.883,15.389-17.154s10.847-2.774,17.406,11.856
	C529.764,97.196,538.128,131.382,537.261,161.811z M12.467,142.976c-6.559,12.614-6.894,30.609-6.894,30.609
	s-2.019-22.369,2.688-32.626c4.71-10.258,16.484-16.145,20.016-19.172C28.275,121.786,19.024,130.363,12.467,142.976z
	 M3.385,140.117C0.357,145.944,0.2,154.259,0.2,154.259s-0.935-10.335,1.242-15.075c2.176-4.739,7.615-7.459,9.247-8.856
	C10.688,130.327,6.416,134.289,3.385,140.117z M252.451,13.48c-10.902,9.121-18.135,25.606-18.135,25.606S241.056,17.659,249.35,10
	c8.289-7.655,21.423-8.565,25.845-10C275.193,0,263.36,4.363,252.451,13.48z M245.17,7.351c-5.037,4.216-8.38,11.827-8.38,11.827
	s3.114-9.896,6.945-13.438c3.831-3.536,9.897-3.952,11.938-4.618C255.676,1.121,250.208,3.139,245.17,7.351z M217.083,136.508
	c-0.186,0.796-0.284,1.253-0.284,1.253C216.838,137.461,216.944,137.016,217.083,136.508z M264.663,79.277
	c-9.677,0.893-18.782-1.104-25.959,5.8c-9.637,9.267-14.087,25.961-20.437,47.226c-0.249,0.824-0.513,1.63-0.769,2.442
	c-0.169,0.704-0.307,1.291-0.414,1.762c1.348-5.001,7.205-19.389,13.843-29.858c6.479-10.228,13.669-16.434,14.883-17.449
	c-0.769,0.674-3.244,3.36-3.954,10.721c-0.84,8.745,1.683,19.847,1.683,12.783s7.399-22.032,13.792-26.572
	c4.269-3.033,14.45-6.285,20.8-8.065C274.039,78.42,269.399,78.84,264.663,79.277z M512.342,84.579
	c1.529-2.073,3.188-3.886,4.237-4.86c0.153,0.014,0.256,0.057,0.232,0.164c-0.884,4.02-4.398,22.739-25.05,30.045
	c-6.191,2.19-11.876,0.086-15.729-1.675c2.183-0.219,11.075,1.399,24.236-7.093C508.356,95.94,509.89,87.896,512.342,84.579z
	 M338.729,90.338c-6.062,6.864-7.402,17.489-7.402,17.489s0.169-16.145,4.541-21.525c4.371-5.38,17.827-9.586,21.863-10.595
	C357.732,75.706,347.642,80.247,338.729,90.338z M380.101,225.571c-5.281,4.645-9.019,13.621-9.011,13.74
	c0.174,1.688,1.703-15.807,5.172-19.434c3.478-3.619,15.447-3.914,17.441-4.061C393.703,215.818,384.925,221.321,380.101,225.571z
	 M406.336,123.845c0,0-14.75,5.457-25.341,12.595s-19.437,16.667-19.437,16.667c0.801-1.604,2.199-4.833,6.235-9.341
	c2.846-3.65,4.17-4.722,8.837-7.686c-0.418-3.437-3.23-5.863-6.778-5.863c-3.831,0-6.938,3.106-6.938,6.939
	c0,3.12,2.042,5.737,4.88,6.61c-6.221-2.479-10.619-8.336-10.744-15.203c-2.065,1.807-9.695,7.919-13.283,8.522
	c5.763-6.019,11.201-12.57,15.594-17.089c2.608-4.407,7.188-7.531,12.612-8.273c9.026-3.859,17.706-5.751,17.706-5.751
	c-1.427,1.815-5.885,4.705-9.172,6.624c6.212,2.244,10.709,7.782,11.223,14.422C400.155,123.81,406.336,123.845,406.336,123.845z"/>
</svg>
