<?xml version="1.0" encoding="utf-8"?>
<!-- Generator: Adobe Illustrator 16.2.1, SVG Export Plug-In . SVG Version: 6.00 Build 0)  -->
<!DOCTYPE svg PUBLIC "-//W3C//DTD SVG 1.1//EN" "http://www.w3.org/Graphics/SVG/1.1/DTD/svg11.dtd">
<svg version="1.1" id="Layer_1" xmlns="http://www.w3.org/2000/svg" xmlns:xlink="http://www.w3.org/1999/xlink" x="0px" y="0px"
	 width="1000px" height="234.263px" viewBox="0 0 1000 234.263" enable-background="new 0 0 1000 234.263" xml:space="preserve">
<path d="M481.492,0L481.492,0l-11.102,47.397c0,0-65.533,0-84.082,0c-18.552,0-32.037,17.119-35.172,32.083l-17.344,78.316
	c0,0-5.781,28.906,24.09,28.906c29.872,0,121.405,0,121.405,0L520.481,0H481.492z M446.235,154.167
	c-13.313,0.09-40.515,0.232-55.813,0.336c-13.143,0.09-14.053-9.438-13.268-13.549c0.339-2.66,9.875-44.398,9.875-44.398
	s2.789-14.65,17.229-14.75c14.438-0.095,44.2-0.262,58.213-0.354L446.235,154.167z M322.626,46.881
	c-19.681-0.23-132.702,0.001-132.702,0.001l-7.103,33.175c0,0,91.919-0.141,104.904,0c18.666,0.204,11.16,20.292,11.16,20.292
	s-78.323,0-93.541,0c-15.218,0-29.796,14.602-33.261,28.908c-3.465,14.309-5.292,22.632-6.915,30.949
	c-1.623,8.315,3.247,26.58,19.683,26.58s134.306,0,134.306,0s20.106-92.935,23.558-107.745
	C346.165,64.229,339.875,47.085,322.626,46.881z M286.812,154.167c0,0-55.09,0-68.667,0c-11.075-0.201-12.146-20.385,6.431-20.563
	c15.541,0,66.828,0.003,66.828,0.002L286.812,154.167z M646.218,47.789c-30.131,0-72.234,0-98.455,0
	c-22.616,0-32.254,17.399-35.527,29.354c-1.604,6.931-18.158,81.622-18.158,81.622s-6.577,28.009,21.009,28.009
	c27.585,0,76.387,0,104.824,0c28.432,0,33.736-28.009,33.736-28.009s18.247-79.783,18.887-84.877
	C674.017,66.037,672.109,47.789,646.218,47.789z M628.213,95c-0.345,2.659-9.874,44.397-9.874,44.397s-2.794,14.649-17.229,14.749
	c-14.442,0.098-39.217,0.264-53.229,0.355c-14.001,0.094-10.567-14.562-10.567-14.562s8.659-39.067,9.503-42.7
	c1.698-6.247,6.655-15.376,18.133-15.453c13.312-0.091,34.69-0.234,49.998-0.337C628.089,81.361,628.997,90.887,628.213,95z
	 M174.906,79.246c-3.856,19.684-23.74,107.339-23.74,107.339H111.6c0,0,18.059-80.759,19.682-89.892
	c1.623-9.13-1.623-15.013-10.753-15.305c-7.908-0.251-58.058,0-58.058,0l-23.31,105.397H0L40.965,0.222h39.544L69.597,47.999
	c0,0,69.402-0.466,84.816,0C167.805,48.404,178.762,59.563,174.906,79.246z M974.516,48.012c-31.994,0-119.396,0-119.396,0
	l-41.196,186.251h38.646l10.945-46.373c0,0,64.842,0,81.156,0c16.316,0,32.203-8.155,38.001-34.135c0,0,15.673-69.561,16.745-75.571
	C1000.491,72.171,1003.065,48.012,974.516,48.012z M955.788,95.001c-0.344,2.659-9.874,44.397-9.874,44.397
	s-2.794,14.65-17.23,14.749c-14.44,0.097-44.205,0.263-58.213,0.356l16.231-72.717c13.312-0.09,40.513-0.234,55.819-0.337
	C955.664,81.362,956.573,90.888,955.788,95.001z M840.373,73.889c1.491-7.852-0.423-26.1-26.309-26.1c-30.133,0-72.242,0-98.463,0
	c-22.609,0-32.253,17.399-35.521,29.354c-1.609,6.931-18.162,81.622-18.162,81.622s-6.577,28.009,21.007,28.009
	c27.585,0,76.395,0,104.824,0c28.438,0,33.738-28.009,33.738-28.009S839.735,78.982,840.373,73.889z M796.054,95
	c-0.339,2.659-9.874,44.397-9.874,44.397s-2.789,14.649-17.229,14.749c-14.438,0.098-39.215,0.264-53.224,0.355
	c-14.006,0.094-10.566-14.562-10.566-14.562s8.66-39.067,9.496-42.7c1.697-6.247,6.656-15.376,18.139-15.453
	c13.312-0.091,34.692-0.234,49.992-0.337C795.93,81.361,796.839,90.887,796.054,95z"/>
</svg>
