<?xml version="1.0" encoding="utf-8"?>
<!-- Generator: Adobe Illustrator 16.2.1, SVG Export Plug-In . SVG Version: 6.00 Build 0)  -->
<!DOCTYPE svg PUBLIC "-//W3C//DTD SVG 1.1//EN" "http://www.w3.org/Graphics/SVG/1.1/DTD/svg11.dtd">
<svg version="1.1" id="Layer_1" xmlns="http://www.w3.org/2000/svg" xmlns:xlink="http://www.w3.org/1999/xlink" x="0px" y="0px"
	 width="1000px" height="235.509px" viewBox="0 0 1000 235.509" enable-background="new 0 0 1000 235.509" xml:space="preserve">
<path d="M279.383,51.891c0,0-2.731-13.916-9.024-16.497c-6.294-2.582-8.095-2.19-10.991-0.322
	c-3.078,1.985-5.109,8.516-7.665,10.006c-2.555,1.49-6.813,2.98-6.813,2.98c-2.915-13.379-17.686-19.808-25.852-26.498
	c-4.205-3.549-20.022-21.433-41.021-21.096c0,0-17.713,0.591-32.743,8.671c-15.03,8.08-21.373,19.81-21.373,19.81
	s-5.994-0.175-10.425,3.822c-3.832,3.457-10.861,10.338-10.861,10.338s-9.233,0.989-19.461,3.65
	c-9.534,2.48-20.63,7.724-25.63,11.816c-5.95,4.872-11.326,10.241-14.596,14.075c-2.52,2.953-5.726,9.595-9.123,12.944
	c-4.075,4.021-7.848,5.336-8.775,5.213c0,0,4.431-4.952,3.302-10.252c-0.312-1.467,4.17,4.605,4.17,4.605
	c0-0.001,1.512-4.653,1.217-8.862c-0.22-3.134-2.041-5.984-3.042-6.689c0,0,0.695-1.129,1.39-2.867
	c0.695-1.737,1.042-3.909,1.042-3.909s-5.893,0.946-10.165,3.996c-5.724,4.087-9.765,7.838-12.164,14.075
	c-1.738,4.518,2.346,9.644,3.127,10.252c0.781,0.606,1.129,8.254,5.213,10.858c4.084,2.606,9.904,2.085,9.904,2.085
	s-0.949,7.035-0.782,13.899c0.156,6.381,1.432,12.587,1.39,13.467c-0.086,1.824-2.258,7.648-2.779,8.602
	c-0.521,0.957-9.905,9.904-10.947,11.032c-1.042,1.132-2.258,3.563-1.303,7.388c0.494,1.978,2.124,8.31,7.038,14.16
	c4.58,5.457,15.812,11.646,22.067,10.603c0.121-0.021-1.91,5.038-2.258,7.038c-0.348,1.999-1.216,7.559,2.693,9.468
	c1.728,0.849,5.92,3.187,11.121,4.781c6.569,2.017,14.556,3.25,19.113,3.299c3.974,0.045,9.292-0.834,11.468-4.433
	c2.298-3.791,1.512-9.739,1.65-11.116c0.348-3.476,4.432-8.605,5.3-9.994c0.869-1.39,0.608-9.989,0.608-9.989
	s3.453,0.533,7.124,0.696c3.67,0.162,7.56-0.045,8.428-0.09c0,0-5.561,2.175-5.561,6.95c-0.001,1.828,0.456,6.162,2.433,10.428
	c3.187,6.878,8.918,14.417,12.511,17.201c5.821,4.518,12.858,4.951,19.896,0.347c4.274-2.798,3.822-6.165,5.56-7.646
	c0.828-0.705,3.44-2.224,5.908-4.17c2.708-2.131,5.254-4.68,5.3-4.953c0.043-0.265,0.87,1.179,3.91,1.91
	c2.922,0.709,7.959,0.696,12.858,0.696c9.992,0,14.337-0.78,14.337-0.78s3.048-1.246,4.604-4.433
	c1.258-2.573,1.111-7.019,0.956-8.34c-0.347-2.953-2.172-4.257-2.172-4.257s-0.174-12.602-0.174-15.207s-7.124-21.373-7.124-21.373
	s4.431,4.171,7.906,7.128c1.737,1.475,6.288,5.352,11.034,5.817c12.25,1.219,18.749-6.828,20.678-9.988
	c2.79-4.577,3.823-10.079,3.823-10.079s12.944,2.776,26.237-1.134C298.014,117.737,279.383,51.891,279.383,51.891z M28.179,72.612
	c0,0,2.366,5.062,1.795,4.082c-0.571-0.98-2.529-1.226-2.529-1.226S27.853,73.513,28.179,72.612z M22.55,99.62
	c-4.218-1.607-2.812-6.829-5.222-10.244c-2.41-3.415-5.625-9.038,9.038-19.885c0,0-1.807,4.018-2.209,6.83
	c-0.402,2.812-0.201,5.021-0.603,7.834c-0.402,2.812-3.213,5.422-3.213,5.422s1.004,5.021,4.821,6.025
	c3.817,1.006,9.24-4.619,9.24-4.619l-2.411,7.432C31.991,98.415,26.769,101.228,22.55,99.62z M27.574,169.52
	c-10.245-8.838-6.83-15.865-3.988-17.843c3.289-2.288,7.307-7.073,7.604-7.663c0.402-0.804,1.205-3.418,1.406-4.42
	c0,0,4.217,11.848,7.029,17.271s7.833,14.263,7.833,14.263C46.653,174.744,44.828,184.404,27.574,169.52z M184.042,161.482
	c0.201,3.815-0.201,14.666,0.202,15.469c0.402,0.807,2.41,1.809,1.406,6.83c-1.004,5.021-4.018,4.617-9.441,4.617
	c-10.737,0-17.274-1.604-17.274-1.604c4.419-5.021,16.386-13.225,20.288-39.973C179.222,146.822,183.84,157.668,184.042,161.482z
	 M277.552,83.593c-0.369,12.893-4.751,23.879-9.514,30.104c-23.328,30.492-68.165,3.229-68.165,3.229
	c1.128,7.491-0.241,10.551-0.241,10.551c-0.725,3.864-3.786,9.908-1.289,13.532c4.632,6.726,12.837,1.902,12.081,2.013
	c-8.86,1.291-10.146-3.222-10.146-3.222s5.073,2.175,11.033,0.402c4.875-1.449,6.203-11.354,6.685-10.955
	c0.483,0.403,3.383,0.889,3.383,0.889s-1.369,15.785-17.155,17.076c-6.021,0.488-10.955-4.916-12.726-6.606
	c-1.771-1.691-9.021-8.133-9.021-8.133c-1.196-0.41-6.082-1.439-10.632-3.705c-4.338-2.158-8.377-5.56-8.377-5.56
	c2.015,6.039,13.823,10.829,14.058,11.383c0.118,0.281-2.817,15.729-7.273,27.376c-4.603,12.03-11.634,18.84-13.147,20.439
	c-2.819,2.98-8.698,7.249-10.712,8.938c-2.014,1.694-6.604,4.271-7.894,5.643c-1.289,1.367-3.563,4.936-3.563,4.936
	c-1.737,2.346-6.864,5.734-12.511,1.219c-1.129-0.898-4.322-4.518-7.037-8.775c-2.716-4.256-4.91-9.208-5.301-10.598
	c-0.782-2.78,0.261-4.17,1.13-5.127c0.87-0.953,9.817-5.819,10.947-6.69c1.13-0.867,1.999-0.606,2.346,0.09
	c0.347,0.696,2.085,2.952,1.998,2.17c-0.088-0.78-0.869-5.819-0.869-8.687c0-2.868,0.782-9.213,0.608-8.603
	c-0.174,0.606-3.475,9.293-4.257,9.384c-1.593,0.18-11.034,1.733-15.378,1.562c-4.345-0.176-13.12,0.086-14.51-1.303
	c-1.39-1.395-2.954-10.428-2.954-10.428c-0.001,0,0.435,15.288-0.086,19.198c-0.548,4.104-1.743,5.547-2.085,6.17
	c-1.092,1.991-1.881,3.183-3.955,6.216c-2.074,3.032-1.277,2.711-1.597,7.817c-0.319,5.106-0.581,5.896-7.603,6.378
	c-7.022,0.477-19.847-3.982-22.879-5.742c-3.032-1.755-3.352-3.986-2.235-7.979c1.117-3.986,3.99-18.353,3.99-18.353
	c-16.917-23.62-28.727-54.918-9.097-87.775c14.683-24.578,40.81-30.858,54.268-31.461c0,0-18.479,18.077-24.795,33.112
	c-3.263,7.771-2.085,14.465,1.434,17.594c3.519,3.127,10.426,16.682,10.426,16.682s-4.301,9.121-3.389,11.468
	c0,0,2.135,2.518,5.865,5.732c3.936,3.396,9.685,7.503,17.984,7.169c5.223-0.208,20.2-8.862,26.585-11.989
	c6.386-3.128,15.248-3.259,15.248-3.521c0-0.121,3.814-7.655,4.301-17.2c0.544-10.666-2.255-23.58-2.737-26.193
	c-0.912-4.952-2.606-24.109-2.606-24.109s-2.606,11.209-1.564,24.109c0.37,4.577,2.519,18.245,2.476,22.545
	c-0.13,13.033-4.3,16.812-4.3,16.812c-8.731-0.131-26.456,10.166-30.625,12.512c-2.085,1.173-5.13,2.436-8.341,2.476
	c-3.209,0.046-6.583-1.136-8.08-1.954c-4.3-2.347-8.601-8.211-8.731-8.602c-0.507-1.521,1.083-7.38,3.779-12.771
	c5.27-10.545,13.849-22.799,12.641-21.765c-1.824,1.563-15.769,19.938-15.769,19.938c-0.185-2.764-6.646-10.946-10.687-16.42
	c-1.759-2.383-0.865-6.108-0.521-7.56c0.397-1.676,3.059-8.663,8.862-16.16c11.338-14.652,29.731-33.683,32.059-35.838
	c3.519-3.258,7.038-3.127,9.123-3.519c2.085-0.392,23.066-4.302,21.112-4.17c-1.954,0.131-17.203,0.781-16.942,0.261
	c0.758-1.516,5.668-8.29,15.769-14.075c8.722-4.997,22.286-9.002,32.189-9.123c11.986-0.146,24.082,8.768,32.32,15.378
	c6.453,5.176,10.607,8.397,10.035,8.341c-1.303-0.13-4.17,0.782-4.17,0.782c2.525-0.05,10.354,1.639,14.596,5.865
	c4.877,4.857,7.826,11.559,8.923,14.184c0.221,0.285,0.384,0.595,0.46,0.935c0.109,0.479-0.05,0.049-0.46-0.935
	c-1.659-2.136-6.952-2.757-9.705-1.151c-1.78,1.039-6.777,1.954-6.777,1.954l4.3,0.782c-0.561,1.122-0.327,2.834,0.007,4.189
	c0.031-0.331,0.103-0.661,0.269-0.975c0.671-1.267,2.242-1.75,3.508-1.081c1.174,0.621,1.679,1.916,1.214,3.124
	c-2.062,0.165-2.687,0.289-4.267,0.996c-0.07-0.068-0.11-0.158-0.17-0.233c0.053,0.143,0.09,0.235,0.09,0.235
	s-3.128,2.084-1.303,1.435c1.824-0.651,10.426-0.912,11.468,0.13s0.782,4.822,0.782,4.822c-5.604-2.867-14.596-1.434-16.681,4.691
	c-0.733,2.153-3.519,9.123-3.519,9.123c1.694-1.174,3.388-7.039,6.907-10.427c2.873-2.769,9.644-2.866,7.819-2.478
	c-1.825,0.393-4.953,5.475-5.083,8.08c-0.13,2.606-1.564,11.601-1.564,11.601c2.215-2.347,2.867-12.511,7.037-15.899
	c3.862-3.138,6.125-1.955,6.125-1.955c1.563,6.256-2.085,22.416-2.085,22.416c1.341-2.56,3.672-7.097,4.562-13.162
	c1.013-6.908,0.476-15.375,0.13-17.594c-0.652-4.17,1.208-5.416,3.258-6.125c3.388-1.173,5.343-2.346,8.21-4.3
	c2.867-1.955,5.864-7.689,7.949-8.862c2.085-1.173,5.604-1.434,8.992,6.125C273.68,50.212,278.002,67.873,277.552,83.593z
	 M549.01,128.993c0,0-6.879,30.106-7.123,32.024c-0.564,2.967,0.09,9.84,9.57,9.774c11.037-0.074,30.658-0.181,40.262-0.245
	l11.713-52.453c-10.107,0.067-31.58,0.188-41.992,0.257C551.021,118.424,549.01,128.993,549.01,128.993z M571.055,161.82
	c0,0-13.334,0-17.455,0c-4.125,0-2.75-4.397-2.75-4.397s4.949-21.987,6.186-27.073c1.234-5.082,4.264-5.045,4.264-5.045h17.775
	L571.055,161.82z M713.418,118.095c-11.041,0.074-26.463,0.178-36.066,0.243c-8.277,0.056-11.854,6.641-13.078,11.146
	c-0.607,2.619-6.855,30.802-6.855,30.802s-2.475,10.571,7.625,10.508c10.107-0.069,27.979-0.188,38.396-0.257
	c10.412-0.073,12.43-10.643,12.43-10.643s6.875-30.107,7.123-32.025C723.555,124.904,722.898,118.032,713.418,118.095z
	 M699.404,129.986c0,0-5.213,23.195-6.084,27.281c-0.867,4.084-2.348,5.389-4.604,5.389c-2.26,0-13.469,0-18.939,0
	c-3.477,0-3.91-2.176-3.129-5.215c0.609-2.435,6-27.392,6-27.392c0.961-3.674,3.988-3.885,3.988-3.885s15.73,0,19.811,0
	C700.533,126.167,699.404,129.986,699.404,129.986z M431.824,155.717c11.211,0,48.207,0,48.207,0l-3.312,14.832
	c0,0-39.74,0-49.534,0C419.196,170.406,418.423,155.843,431.824,155.717z M834.49,118.095c-11.035,0.074-26.459,0.178-36.062,0.243
	c-8.283,0.056-11.855,6.641-13.084,11.146c-0.604,2.619-6.85,30.802-6.85,30.802s-2.48,10.571,7.623,10.508
	c10.104-0.069,27.979-0.188,38.393-0.257c10.418-0.073,12.432-10.643,12.432-10.643s6.877-30.107,7.123-32.025
	C844.627,124.904,843.973,118.032,834.49,118.095z M820.865,129.986c0,0-5.213,23.195-6.086,27.281
	c-0.867,4.084-2.348,5.389-4.604,5.389c-2.26,0-13.467,0-18.939,0c-3.475,0-3.91-2.176-3.127-5.215
	c0.609-2.435,5.998-27.392,5.998-27.392c0.961-3.674,3.99-3.885,3.99-3.885s15.729,0,19.811,0
	C821.992,126.167,820.865,129.986,820.865,129.986z M949.715,118.095c-11.039,0.074-30.662,0.178-40.264,0.243l-11.709,52.456
	c10.104-0.069,31.574-0.188,41.992-0.257c10.414-0.073,12.43-10.643,12.43-10.643s6.873-30.107,7.123-32.025
	C959.852,124.904,959.197,118.032,949.715,118.095z M936.635,129.701c0,0-4.947,21.992-6.182,27.074
	c-1.238,5.086-4.264,5.045-4.264,5.045h-17.777l8.02-36.519c0,0,13.332,0,17.455,0C938.012,125.305,936.635,129.701,936.635,129.701
	z M971.924,85.549c-34.984,0-193.83,0-201.424,0c-7.6,0-15.199,5.591-15.199,5.591s-5.869-5.615-14.186-5.615s-94.053,0-94.053,0
	l7.602-33.234h-58.49l-7.457,33.259c0,0-48.734,0-53.895,0c-11.041,0-17.93,5.161-17.93,5.161s-7.889-5.161-15.34-5.161H329.519
	l7.6-33.833l-57.76-0.221l-3.104,13.271c0.887,5.93,1.479,12.527,1.298,18.828c-0.369,12.894-4.751,23.879-9.514,30.104
	c-1.378,1.802-2.837,3.388-4.353,4.804l-1.916,8.195l-16.442,75.929h57.955l17.774-77.225h20.213c0,0,1.863,0.146,1.29,2.726
	c-0.571,2.581-16.771,74.405-16.771,74.405s377.467,0,387.506,0c10.033,0,18.203-4.59,18.203-4.59s6.309,4.59,13.766,4.59
	c9.895,0,94.58,0,94.58,0l-7.416,32.976h58.959l6.988-32.976c0,0,33.83,0.432,52.039,0c18.209-0.434,31.975-10.896,36.992-33.403
	c5.016-22.509,11.895-55.911,11.895-55.911S1006.902,85.549,971.924,85.549z M350.329,193.934c0,0,13.027-58.254,14.198-64.843
	c1.171-6.586-1.171-10.828-7.759-11.039c-5.703-0.181-41.88,0-41.88,0l-16.812,76.028h-28.249l29.55-134.579h28.524l-7.872,34.464
	c0,0,50.062-0.336,61.183,0c9.66,0.292,17.564,8.343,14.782,22.541c-2.781,14.198-17.125,77.428-17.125,77.428H350.329z
	 M403.168,194.08c-11.855,0-15.369-13.175-14.198-19.173c1.171-5.999,2.488-12.002,4.988-22.326
	c2.5-10.32,13.016-20.853,23.993-20.853c10.977,0,67.476,0,67.476,0s5.415-14.491-8.05-14.64c-9.367-0.102-75.673,0-75.673,0
	l5.123-23.931c0,0,81.528-0.167,95.727,0c12.441,0.146,16.979,12.515,14.49,23.198s-16.994,77.722-16.994,77.722
	S415.025,194.08,403.168,194.08z M527.986,194.02c-21.547,0-17.377-20.852-17.377-20.852l12.512-56.494
	c2.26-10.794,11.988-23.143,25.371-23.143c13.379,0,60.65,0,60.65,0l8.01-34.19h28.125L615.562,194.02
	C615.562,194.02,549.535,194.02,527.986,194.02z M741.336,173.868c0,0-3.828,20.204-24.338,20.204c-20.514,0-55.717,0-75.615,0
	c-19.896,0-15.152-20.204-15.152-20.204s11.939-53.88,13.098-58.881c2.363-8.623,9.312-21.176,25.629-21.176
	c18.912,0,49.285,0,71.021,0c18.678,0,20.055,13.164,18.98,18.828C754.498,116.315,741.336,173.868,741.336,173.868z
	 M838.07,194.072c-20.51,0-55.717,0-75.615,0s-15.152-20.204-15.152-20.204s11.939-53.88,13.102-58.88
	c2.357-8.624,9.312-21.177,25.625-21.177c18.914,0,49.291,0,71.023,0c18.674,0,20.055,13.164,18.98,18.828
	c-0.461,3.674-13.623,61.229-13.623,61.229S858.584,194.072,838.07,194.072z M990.76,115.739
	c-0.773,4.335-12.08,54.513-12.08,54.513c-4.182,18.742-15.643,24.622-27.412,24.622s-58.543,0-58.543,0l-7.895,33.452h-27.877
	L886.67,93.974c0,0,63.047,0,86.127,0C993.391,93.974,991.533,111.401,990.76,115.739z M480.534,155.587
	c-0.598,1.519-0.417,3.278-1.001,5.001c-0.876,2.586-2.003,5.641-2.001,9.01c-0.167,0-0.334,0-0.501,0c0,0.166,0,0.334,0,0.5
	c-17.515,0-35.032,0-52.546,0c-0.985-1.173-2.916-1.981-3.502-3.502c-0.986-2.551,1.596-7.779,2.501-8.509
	c0.997-0.802,2.129-0.989,3.002-2.004c0.501,0,1.001,0,1.502,0c0-0.166,0-0.329,0-0.496
	C445.501,155.587,463.019,155.587,480.534,155.587z M477.031,170.098c-13.012,0-26.023,0-39.034,0c-2.708,0-12.208,0.637-13.512-0.5
	c-2.913-0.755-4.621-4.957-3.002-8.509c0.76-1.666,4.591-4.896,6.506-5.502c17.514,0,35.03,0,52.546,0c0,0.167,0,0.33,0,0.496
	c-1.146,1.274-0.412,2.664-1.001,4.505C478.64,163.378,477.634,166.97,477.031,170.098z M6.44,73.862
	c-3.388,6.517-3.562,15.812-3.562,15.812s-1.042-11.556,1.39-16.855c2.433-5.299,8.515-8.342,10.339-9.903
	C14.606,62.916,9.83,67.347,6.44,73.862z M1.75,72.386c-1.565,3.01-1.646,7.307-1.646,7.307s-0.481-5.34,0.643-7.787
	c1.124-2.449,3.934-3.854,4.777-4.576C5.522,67.328,3.314,69.375,1.75,72.386z M130.418,6.964
	c-5.632,4.712-9.369,13.229-9.369,13.229s3.482-11.07,7.766-15.027c4.282-3.955,11.067-4.425,13.352-5.166
	C142.168,0,136.056,2.254,130.418,6.964z M126.659,3.798c-2.603,2.178-4.329,6.109-4.329,6.109s1.608-5.112,3.588-6.942
	c1.979-1.827,5.113-2.042,6.168-2.386C132.084,0.579,129.26,1.622,126.659,3.798z M112.146,70.521
	C112.05,70.933,112,71.169,112,71.169C112.021,71.015,112.076,70.784,112.146,70.521z M136.728,40.956
	c-4.999,0.461-9.703-0.57-13.412,2.997c-4.979,4.787-7.276,13.412-10.558,24.396c-0.127,0.428-0.264,0.844-0.397,1.264
	c-0.087,0.361-0.158,0.666-0.214,0.908c0.696-2.584,3.724-10.017,7.151-15.424c3.348-5.284,7.062-8.489,7.69-9.015
	c-0.398,0.348-1.677,1.736-2.042,5.539c-0.435,4.518,0.868,10.252,0.868,6.604c0-3.647,3.823-11.382,7.125-13.728
	c2.207-1.567,7.465-3.247,10.746-4.166C141.57,40.513,139.175,40.729,136.728,40.956z M264.68,43.694
	c0.792-1.071,1.648-2.009,2.19-2.512c0.079,0.008,0.133,0.03,0.121,0.084c-0.458,2.077-2.272,11.748-12.942,15.521
	c-3.198,1.131-6.134,0.045-8.125-0.865c1.128-0.113,5.721,0.723,12.52-3.665C262.622,49.563,263.413,45.408,264.68,43.694z
	 M174.989,46.67c-3.132,3.546-3.823,9.035-3.823,9.035s0.087-8.34,2.346-11.12c2.258-2.779,9.21-4.952,11.295-5.473
	C184.808,39.111,179.594,41.457,174.989,46.67z M196.362,116.532c-2.727,2.396-4.659,7.036-4.653,7.098
	c0.087,0.871,0.877-8.166,2.671-10.037s7.979-2.021,9.01-2.1C203.391,111.493,198.855,114.338,196.362,116.532z M209.917,63.979
	c0,0-7.619,2.818-13.09,6.508c-5.472,3.688-10.042,8.609-10.042,8.609c0.415-0.83,1.137-2.498,3.222-4.826
	c1.47-1.886,2.154-2.438,4.565-3.972c-0.215-1.774-1.667-3.028-3.5-3.028c-1.98,0-3.584,1.604-3.584,3.584
	c0,1.611,1.056,2.965,2.52,3.416c-3.212-1.28-5.484-4.308-5.551-7.854c-1.065,0.935-5.007,4.091-6.86,4.401
	c2.976-3.108,5.787-6.492,8.055-8.827c1.347-2.276,3.712-3.891,6.516-4.274c4.661-1.994,9.147-2.971,9.147-2.971
	c-0.739,0.938-3.041,2.431-4.739,3.422c3.209,1.16,5.531,4.021,5.796,7.451C206.724,63.961,209.917,63.979,209.917,63.979z"/>
</svg>
