<?xml version="1.0" encoding="utf-8"?>
<!-- Generator: Adobe Illustrator 16.2.1, SVG Export Plug-In . SVG Version: 6.00 Build 0)  -->
<!DOCTYPE svg PUBLIC "-//W3C//DTD SVG 1.1//EN" "http://www.w3.org/Graphics/SVG/1.1/DTD/svg11.dtd">
<svg version="1.1" id="Layer_1" xmlns="http://www.w3.org/2000/svg" xmlns:xlink="http://www.w3.org/1999/xlink" x="0px" y="0px"
	 width="1000px" height="166.98px" viewBox="0 0 1000 166.98" enable-background="new 0 0 1000 166.98" xml:space="preserve">
<path d="M277.021,110.529V0.651h-17.579v45.416h-51.929V0.651h-17.742v109.878h17.742V61.206h51.929v49.323H277.021L277.021,110.529
	z M327.938,110.529V0.651h-17.743v109.878H327.938L327.938,110.529z M434.186,77.321c0,14.326-9.438,33.697-43.137,33.697
	c-6.674,0-17.742-0.324-29.952-0.487V0.651c8.628-0.163,21.163-0.488,34.512-0.488c23.929,0,36.301,9.767,36.301,26.695
	c0,11.231-7.488,21.161-18.72,25.067v0.327C427.513,55.021,434.186,65.926,434.186,77.321L434.186,77.321z M413.348,29.627
	c0-8.954-5.045-15.303-20.671-15.303c-4.884,0-9.604,0.163-13.836,0.326v32.558c2.929,0.163,5.696,0.163,9.44,0.163
	C404.723,47.37,413.348,40.694,413.348,29.627L413.348,29.627z M415.465,77.646c0-12.532-11.229-17.092-26.695-17.092
	c-1.792,0-7.486,0-9.929,0.164v34.997c2.769,0.488,7.16,0.815,12.858,0.815C407.815,96.53,415.465,88.718,415.465,77.646
	L415.465,77.646z M518.339,110.529V95.391h-40.206V61.205h38.253V46.718h-38.253V15.462h40.206V0.65h-57.951v109.877
	L518.339,110.529L518.339,110.529z M621.02,110.529h-22.299l-34.185-47.533h-0.813v47.533H545.98V0.651
	C553.956,0.163,563.071,0,575.442,0c22.79,0,38.418,7.977,38.418,29.79c0,17.581-13.188,28.813-31.095,30.765
	c3.096,3.906,6.512,8.14,9.277,11.72L621.02,110.529L621.02,110.529z M595.302,31.742c0-12.046-7.485-17.255-22.302-17.255
	c-3.416,0-6.672,0.163-9.277,0.325v34.836c1.629,0.163,4.721,0.326,8.626,0.326C586.675,49.975,595.302,42.649,595.302,31.742
	L595.302,31.742z M731.982,110.529V0.651h-17.259v32.556c0,16.116,0.492,39.721,1.146,52.254
	c-4.07-7.978-8.465-16.767-13.354-24.906L666.218,0.651h-23.28v109.878h17.261V73.577c0-15.628-0.325-37.928-0.98-48.672
	c3.42,7.325,7.325,15.138,12.213,23.114l37.603,62.51H731.982L731.982,110.529z M849.32,110.529h-19.696l-8.464-24.258h-44.439
	l-8.464,24.258h-17.903L789.742,0.651h19.698L849.32,110.529L849.32,110.529z M816.438,72.111l-12.53-34.509
	c-2.119-5.697-3.582-10.907-4.884-16.931H798.7c-1.145,5.535-2.936,11.559-5.051,17.418L781.278,72.11L816.438,72.111
	L816.438,72.111z M923.693,15.626V0.651h-78.138v14.975h30.116v94.903h17.74V15.626H923.693L923.693,15.626z M1000,110.529V95.391
	h-40.208V61.205h38.252V46.718h-38.252V15.462H1000V0.65h-57.953v109.877L1000,110.529L1000,110.529z M64.229,55.624l-32.127,55.704
	L0,55.623L32.114,0l0.015,0.025l0.003-0.023h64.23l32.132,55.621L64.229,55.624z M128.46,166.98l-0.011-0.02l-0.007,0.016h-64.23
	l-32.133-55.619l64.269-0.004l32.124-55.705l32.102,55.708L128.46,166.98z"/>
</svg>
