<?xml version="1.0" encoding="utf-8"?>
<!-- Generator: Adobe Illustrator 16.2.1, SVG Export Plug-In . SVG Version: 6.00 Build 0)  -->
<!DOCTYPE svg PUBLIC "-//W3C//DTD SVG 1.1//EN" "http://www.w3.org/Graphics/SVG/1.1/DTD/svg11.dtd">
<svg version="1.1" id="Layer_1" xmlns="http://www.w3.org/2000/svg" xmlns:xlink="http://www.w3.org/1999/xlink" x="0px" y="0px"
	 width="1000px" height="137.016px" viewBox="0 0 1000 137.016" enable-background="new 0 0 1000 137.016" xml:space="preserve">
<path d="M85.99,136.424V75.543H21.893v60.881H0V0.801h21.893v56.057H85.99V0.801h21.7v135.623H85.99z M170.528,136.424V0.801
	h-21.901v135.623H170.528z M301.661,95.432c0,17.678-11.656,41.59-53.236,41.584c-8.233,0-21.895-0.404-36.97-0.594V0.793
	c10.648-0.188,26.113-0.596,42.595-0.596c29.533,0,44.798,12.061,44.798,32.965c0,13.854-9.245,26.112-23.104,30.924v0.406
	C293.423,67.898,301.661,81.371,301.661,95.432L301.661,95.432z M275.943,36.567c0-11.05-6.225-18.881-25.51-18.881
	c-6.032,0-11.862,0.193-17.085,0.404v40.182c3.615,0.197,7.04,0.197,11.656,0.197C265.294,58.47,275.943,50.229,275.943,36.567
	L275.943,36.567z M278.556,95.834c0-15.475-13.859-21.088-32.943-21.088c-2.217,0-9.24,0-12.262,0.193v43.189
	c3.415,0.605,8.85,1.01,15.878,1.01C269.12,119.141,278.556,109.5,278.556,95.834L278.556,95.834z M405.526,136.424v-18.678h-49.62
	V75.545h47.21V57.663h-47.21V19.098h49.62V0.803h-71.525v135.624h71.525V136.424z M532.256,136.424h-27.521l-42.189-58.67h-1.005
	v58.666h-21.899V0.793C449.484,0.197,460.736,0,476.009,0c28.129,0,47.41,9.838,47.41,36.761c0,21.708-16.271,35.554-38.371,37.979
	c3.815,4.826,8.041,10.051,11.449,14.473L532.256,136.424L532.256,136.424z M500.52,39.183c0-14.87-9.244-21.303-27.526-21.303
	c-4.216,0-8.232,0.211-11.449,0.407v43c2.004,0.188,5.823,0.41,10.647,0.41C489.867,61.699,500.52,52.64,500.52,39.183
	L500.52,39.183z M669.208,136.424V0.801h-21.292v40.188c0,19.892,0.596,49.024,1.407,64.497
	c-5.023-9.844-10.44-20.688-16.479-30.739L588.042,0.801h-28.729v135.624h21.302V90.82c0-19.297-0.406-46.812-1.205-60.08
	c4.219,9.046,9.033,18.688,15.065,28.533l46.407,77.148h28.325L669.208,136.424L669.208,136.424z M814.032,136.424h-24.293
	l-10.46-29.938h-54.846l-10.449,29.938H691.89L740.507,0.801h24.3L814.032,136.424L814.032,136.424z M773.447,89l-15.464-42.593
	c-2.611-7.022-4.421-13.455-6.035-20.89h-0.396c-1.402,6.832-3.613,14.27-6.229,21.499l-15.271,41.981h43.396L773.447,89L773.447,89
	z M905.825,19.291V0.803h-96.431v18.488h37.162v117.135h21.896V19.291H905.825z M1000,136.424v-18.678h-49.618V75.545h47.21V57.663
	h-47.21V19.098H1000V0.803h-71.523v135.624H1000V136.424z"/>
</svg>
