<?xml version="1.0" encoding="utf-8"?>
<!-- Generator: Adobe Illustrator 16.2.1, SVG Export Plug-In . SVG Version: 6.00 Build 0)  -->
<!DOCTYPE svg PUBLIC "-//W3C//DTD SVG 1.1//EN" "http://www.w3.org/Graphics/SVG/1.1/DTD/svg11.dtd">
<svg version="1.1" id="Layer_1" xmlns="http://www.w3.org/2000/svg" xmlns:xlink="http://www.w3.org/1999/xlink" x="0px" y="0px"
	 width="579px" height="531.456px" viewBox="0 0 579 531.456" enable-background="new 0 0 579 531.456" xml:space="preserve">
<path d="M49.789,531.456v-35.25H12.676v35.25H0v-78.525h12.676v32.457h37.112v-32.457h12.564v78.525H49.789z M98.736,531.456
	v-78.525H86.055v78.525H98.736z M174.662,507.722c0,10.235-6.749,24.081-30.824,24.077c-4.767,0-12.677-0.233-21.405-0.345v-78.528
	c6.165-0.107,15.119-0.346,24.662-0.346c17.1,0,25.938,6.983,25.938,19.087c0,8.022-5.353,15.12-13.377,17.905v0.234
	C169.892,491.78,174.662,499.581,174.662,507.722L174.662,507.722z M159.771,473.64c0-6.397-3.604-10.933-14.77-10.933
	c-3.493,0-6.869,0.112-9.893,0.234v23.266c2.093,0.114,4.076,0.114,6.749,0.114C153.605,486.321,159.771,481.55,159.771,473.64
	L159.771,473.64z M161.284,507.955c0-8.96-8.025-12.21-19.074-12.21c-1.284,0-5.35,0-7.1,0.112v25.007
	c1.977,0.353,5.124,0.585,9.193,0.585C155.82,521.449,161.284,515.867,161.284,507.955L161.284,507.955z M234.8,531.456v-10.814
	h-28.73v-24.435h27.334v-10.354H206.07v-22.329h28.73V452.93h-41.413v78.526H234.8L234.8,531.456z M308.176,531.456h-15.934
	l-24.428-33.97h-0.582v33.968h-12.68v-78.528c5.698-0.346,12.213-0.459,21.056-0.459c16.287,0,27.451,5.695,27.451,21.284
	c0,12.568-9.42,20.586-22.217,21.989c2.209,2.795,4.656,5.818,6.629,8.379L308.176,531.456L308.176,531.456z M289.801,475.153
	c0-8.609-5.354-12.334-15.939-12.334c-2.441,0-4.767,0.122-6.629,0.234v24.897c1.16,0.108,3.372,0.237,6.165,0.237
	C283.633,488.19,289.801,482.945,289.801,475.153L289.801,475.153z M387.472,531.456v-78.525h-12.328v23.27
	c0,11.518,0.346,28.385,0.814,37.345c-2.908-5.7-6.045-11.979-9.54-17.8l-25.941-42.814h-16.635v78.526h12.333v-26.404
	c0-11.173-0.234-27.104-0.697-34.787c2.442,5.238,5.23,10.82,8.725,16.521l26.87,44.669H387.472L387.472,531.456z M471.324,531.456
	h-14.065l-6.056-17.334h-31.755l-6.052,17.334h-12.793l28.149-78.525h14.069L471.324,531.456L471.324,531.456z M447.826,503.997
	l-8.954-24.661c-1.512-4.064-2.561-7.79-3.494-12.095h-0.229c-0.813,3.956-2.095,8.262-3.608,12.448l-8.841,24.308H447.826
	L447.826,503.997z M524.473,463.636v-10.705H468.64v10.705h21.519v67.821h12.677v-67.821H524.473z M579,531.456v-10.814h-28.729
	v-24.435h27.334v-10.354h-27.334v-22.329H579V452.93h-41.412v78.526H579L579,531.456z M177.754,0.006h148.447l74.262,128.548
	H251.938l-74.254,128.742l-74.19-128.743L177.714,0 M400.385,385.917l74.222-128.553l-74.193-128.749l-74.248,128.749h-148.53
	l74.263,128.544h148.446"/>
</svg>
