<?xml version="1.0" encoding="utf-8"?>
<!-- Generator: Adobe Illustrator 16.2.1, SVG Export Plug-In . SVG Version: 6.00 Build 0)  -->
<!DOCTYPE svg PUBLIC "-//W3C//DTD SVG 1.1//EN" "http://www.w3.org/Graphics/SVG/1.1/DTD/svg11.dtd">
<svg version="1.1" id="Layer_1" xmlns="http://www.w3.org/2000/svg" xmlns:xlink="http://www.w3.org/1999/xlink" x="0px" y="0px"
	 width="325.893px" height="460px" viewBox="0 0 325.893 460" enable-background="new 0 0 325.893 460" xml:space="preserve">
<path d="M0,90.4l29.658,332.651L162.745,460l133.456-37l29.691-332.6H0L0,90.4z M264.029,169.345l-1.858,20.682l-0.818,9.17h-0.129
	h-98.276h-0.143h-57.576l3.729,41.776h53.846h0.143h83.699h10.995l-0.997,10.956l-9.587,107.41l-0.613,6.893l-83.496,23.144v0.007
	l-0.189,0.052l-83.573-23.201l-5.715-64.058h18.877h22.078l2.905,32.537l45.437,12.269l0.038-0.009v-0.005l45.502-12.282
	l4.736-52.913h-50.096h-0.143H71.647L61.62,169.345l-0.977-10.946h102.163h0.143h102.058L264.029,169.345z M30.321,0h20.733v20.483
	H70.02V0h20.734v62.032H70.02V41.259H51.055v20.773H30.322L30.321,0L30.321,0z M118.018,20.571H99.767V0h57.249v20.571h-18.262
	v41.461H118.02V20.571H118.018z M166.103,0h21.618l13.298,21.795L214.303,0h21.63v62.032h-20.65V31.285L201.02,53.341h-0.358
	l-14.273-22.056v30.746h-20.287V0H166.103z M246.25,0h20.741v41.527h29.154v20.503h-49.894L246.25,0L246.25,0z"/>
</svg>
