<?xml version="1.0" encoding="utf-8"?>
<!-- Generator: Adobe Illustrator 16.2.1, SVG Export Plug-In . SVG Version: 6.00 Build 0)  -->
<!DOCTYPE svg PUBLIC "-//W3C//DTD SVG 1.1//EN" "http://www.w3.org/Graphics/SVG/1.1/DTD/svg11.dtd">
<svg version="1.1" id="Layer_1" xmlns="http://www.w3.org/2000/svg" xmlns:xlink="http://www.w3.org/1999/xlink" x="0px" y="0px"
	 width="399px" height="452.509px" viewBox="0 0 399 452.509" enable-background="new 0 0 399 452.509" xml:space="preserve">
<path d="M0,0l36.312,407.275l162.943,45.233l163.394-45.298L399,0H0L0,0z M323.26,96.654l-2.275,25.322l-1.003,11.228h-0.156
	H199.501h-0.174h-70.49l4.565,51.149h65.925h0.174h102.477h13.462l-1.222,13.414l-11.738,131.504l-0.752,8.438l-102.227,28.335
	v0.008l-0.23,0.064L96.949,337.709l-6.998-78.426h23.112h27.032l3.556,39.836l55.629,15.021l0.048-0.013v-0.005l55.709-15.036
	l5.797-64.782H199.5h-0.174H87.72L75.443,96.654l-1.196-13.4h125.08h0.174h124.952L323.26,96.654z"/>
</svg>
