<?xml version="1.0" encoding="utf-8"?>
<!-- Generator: Adobe Illustrator 16.2.1, SVG Export Plug-In . SVG Version: 6.00 Build 0)  -->
<!DOCTYPE svg PUBLIC "-//W3C//DTD SVG 1.1//EN" "http://www.w3.org/Graphics/SVG/1.1/DTD/svg11.dtd">
<svg version="1.1" id="Layer_1" xmlns="http://www.w3.org/2000/svg" xmlns:xlink="http://www.w3.org/1999/xlink" x="0px" y="0px"
	 width="878.251px" height="204.949px" viewBox="0 0 878.251 204.949" enable-background="new 0 0 878.251 204.949"
	 xml:space="preserve">
<path d="M0,0h68.498v67.679h62.661V0h68.502v204.949h-68.502v-68.631H68.502v68.631H0V0L0,0z M289.737,67.966h-60.298V0h189.142
	v67.966h-60.338v136.983h-68.502V67.966H289.737z M448.594,0h71.427l43.937,72.01L607.846,0h71.459v204.949h-68.218V103.362
	l-47.13,72.873h-1.183l-47.155-72.873v101.577h-67.025V0L448.594,0z M713.399,0h68.519v137.201h96.333v67.748H713.399V0L713.399,0z"
	/>
</svg>
