<?xml version="1.0" encoding="utf-8"?>
<!-- Generator: Adobe Illustrator 16.2.1, SVG Export Plug-In . SVG Version: 6.00 Build 0)  -->
<!DOCTYPE svg PUBLIC "-//W3C//DTD SVG 1.1//EN" "http://www.w3.org/Graphics/SVG/1.1/DTD/svg11.dtd">
<svg version="1.1" id="Layer_1" xmlns="http://www.w3.org/2000/svg" xmlns:xlink="http://www.w3.org/1999/xlink" x="0px" y="0px"
	 width="550.867px" height="352.828px" viewBox="0 0 550.867 352.828" enable-background="new 0 0 550.867 352.828"
	 xml:space="preserve">
<path d="M480.682,0H70.186C31.424,0,0,31.424,0,70.186v212.41c0,0.014,0,0.029,0,0.045c0,38.764,31.424,70.188,70.186,70.188
	h410.496c38.763,0,70.186-31.424,70.186-70.188V70.186C550.866,31.424,519.443,0,480.682,0z M102.143,281.662H63.702V130.688h38.441
	V281.662z M82.612,108.988c-12.71,0-21.082-8.99-21.082-20.46c0-11.777,8.681-20.769,21.392-20.769
	c13.021,0,21.078,8.992,21.389,20.769C104.311,99.998,95.943,108.988,82.612,108.988z M229.863,285.07
	c-58.902,0-96.103-44.95-96.103-106.332c0-64.171,40.302-109.433,99.202-109.433c61.071,0,97.03,46.192,97.03,105.712
	C329.991,245.081,287.523,285.07,229.863,285.07z M409.976,284.761c-22.01,0-44.95-6.2-56.421-13.021l8.371-31.618
	c12.4,7.131,30.999,13.332,50.527,13.332c24.491,0,38.132-11.471,38.132-28.523c0-15.811-10.542-25.107-37.201-34.719
	c-34.407-12.4-56.419-30.692-56.419-60.762c0-34.1,28.521-60.142,73.78-60.142c22.632,0,39.37,4.962,50.223,10.542l-9.304,30.693
	c-7.438-4.03-22.006-9.921-41.539-9.921c-24.181,0-34.721,13.02-34.721,25.11c0,16.121,12.091,23.559,39.993,34.411
	c36.268,13.64,53.94,31.928,53.94,62C489.338,255.617,463.918,284.761,409.976,284.761z M289.693,176.569
	c0,43.708-20.771,77.811-57.661,77.811c-36.581,0-57.97-33.792-57.97-76.263c0-43.088,20.149-78.12,57.97-78.12
	C270.165,99.998,289.693,137.199,289.693,176.569z"/>
</svg>
