<?xml version="1.0" encoding="utf-8"?>
<!-- Generator: Adobe Illustrator 16.2.1, SVG Export Plug-In . SVG Version: 6.00 Build 0)  -->
<!DOCTYPE svg PUBLIC "-//W3C//DTD SVG 1.1//EN" "http://www.w3.org/Graphics/SVG/1.1/DTD/svg11.dtd">
<svg version="1.1" id="Layer_1" xmlns="http://www.w3.org/2000/svg" xmlns:xlink="http://www.w3.org/1999/xlink" x="0px" y="0px"
	 width="586.587px" height="297.969px" viewBox="0 0 586.587 297.969" enable-background="new 0 0 586.587 297.969"
	 xml:space="preserve">
<g>
	<path fill="#010101" d="M58.658,28.479c0,15.728-11.476,28.054-29.753,28.054C11.479,56.533,0,44.207,0,28.479
		C0,12.328,11.903,0,29.33,0C47.183,0,58.233,12.328,58.658,28.479z M2.976,293.294V86.288h52.708v207.006H2.976z"/>
	<path fill="#010101" d="M368.105,147.072c0,96.063-58.233,150.896-137.295,150.896c-80.763,0-131.771-61.635-131.771-145.795
		c0-87.991,55.258-150.05,136.02-150.05C318.798,2.124,368.105,65.459,368.105,147.072z M154.297,151.32
		c0,58.232,29.33,104.568,79.486,104.568c50.583,0,79.063-46.759,79.063-106.691c0-53.983-26.78-104.991-79.063-104.991
		C181.926,44.207,154.297,92.238,154.297,151.32z"/>
	<path fill="#010101" d="M411.887,236.334c16.999,9.777,42.505,18.279,69.283,18.279c33.582,0,52.283-15.729,52.283-39.106
		c0-21.678-14.451-34.43-51.007-47.606c-47.182-17.004-77.36-42.082-77.36-83.313c0-46.756,39.104-82.462,101.165-82.462
		c31.027,0,53.982,6.801,68.861,14.452L562.36,58.66c-10.203-5.524-30.181-13.602-56.959-13.602
		c-33.156,0-47.608,17.853-47.608,34.43c0,22.104,16.578,32.304,54.833,47.183c49.734,18.704,73.961,43.782,73.961,85.013
		c0,45.905-34.854,85.862-108.816,85.862c-30.179,0-61.633-8.501-77.36-17.853L411.887,236.334z"/>
</g>
</svg>
