<?xml version="1.0" encoding="utf-8"?>
<!-- Generator: Adobe Illustrator 16.2.1, SVG Export Plug-In . SVG Version: 6.00 Build 0)  -->
<!DOCTYPE svg PUBLIC "-//W3C//DTD SVG 1.1//EN" "http://www.w3.org/Graphics/SVG/1.1/DTD/svg11.dtd">
<svg version="1.1" id="Layer_1" xmlns="http://www.w3.org/2000/svg" xmlns:xlink="http://www.w3.org/1999/xlink" x="0px" y="0px"
	 width="332.721px" height="638.962px" viewBox="0 0 332.721 638.962" enable-background="new 0 0 332.721 638.962"
	 xml:space="preserve">
<path d="M113.58,338.934c0,0-16.739,9.743,11.926,13.031c34.732,3.965,52.479,3.395,90.743-3.838c0,0,10.08,6.305,24.135,11.768
	C154.578,396.654,46.191,357.764,113.58,338.934L113.58,338.934z M103.088,290.955c0,0-18.776,13.901,9.91,16.866
	c37.104,3.831,66.396,4.144,117.109-5.616c0,0,6.998,7.109,18.019,10.994C144.401,343.539,28.874,315.586,103.088,290.955
	L103.088,290.955z M191.473,209.556c21.152,24.349-5.547,46.243-5.547,46.243s53.679-27.705,29.031-62.417
	c-23.028-32.356-40.684-48.429,54.896-103.858C269.856,89.522,119.819,126.987,191.473,209.556L191.473,209.556z M304.954,374.428
	c0,0,12.391,10.217-13.648,18.114c-49.516,14.999-206.123,19.522-249.621,0.601c-15.625-6.805,13.691-16.238,22.915-18.229
	c9.617-2.081,15.108-1.703,15.108-1.703c-17.39-12.245-112.4,24.053-48.255,34.463C206.379,436.026,350.321,394.9,304.954,374.428
	L304.954,374.428z M121.635,241.237c0,0-79.65,18.923-28.205,25.801c21.729,2.908,65.019,2.239,105.371-1.146
	c32.971-2.767,66.058-8.685,66.058-8.685s-11.618,4.983-20.028,10.723c-80.9,21.277-237.156,11.368-192.166-10.386
	C90.696,239.146,121.635,241.237,121.635,241.237L121.635,241.237z M264.528,321.102c82.23-42.72,44.209-83.777,17.667-78.248
	c-6.489,1.354-9.401,2.528-9.401,2.528s2.418-3.789,7.022-5.418c52.505-18.45,92.874,54.435-16.933,83.3
	C262.883,323.264,264.146,322.119,264.528,321.102L264.528,321.102z M214.958,0c0,0,45.533,45.558-43.197,115.593
	c-71.154,56.202-16.224,88.234-0.024,124.851c-41.539-37.474-72.006-70.467-51.57-101.171C150.175,94.211,233.327,72.357,214.958,0
	L214.958,0z M129.72,436.898c78.916,5.046,200.132-2.809,203.001-40.152c0,0-5.516,14.157-65.225,25.391
	c-67.365,12.683-150.467,11.205-199.735,3.07C67.76,425.207,77.854,433.562,129.72,436.898L129.72,436.898z M116.788,579.588
	c-7.441,6.451-15.312,10.078-22.375,10.078c-10.062,0-15.52-6.046-15.52-15.721c0-10.475,5.843-18.142,29.243-18.142h8.651
	L116.788,579.588L116.788,579.588L116.788,579.588z M137.331,602.762v-71.739c0-18.34-10.458-30.438-35.66-30.438
	c-14.706,0-27.599,3.636-38.081,8.266l3.017,12.706c8.254-3.03,18.931-5.847,29.412-5.847c14.521,0,20.77,5.847,20.77,17.94v9.07
	h-7.257c-35.274,0-51.188,13.68-51.188,34.259c0,17.729,10.49,27.808,30.233,27.808c12.689,0,22.173-5.239,31.026-12.908
	l1.611,10.885L137.331,602.762L137.331,602.762z M205.887,602.762h-25.618l-30.837-100.346h22.374l19.141,61.661l4.257,18.524
	c9.662-26.796,16.514-54.002,19.939-80.187h21.761C231.084,535.457,220.586,571.729,205.887,602.762L205.887,602.762z
	 M304.189,579.588c-7.466,6.451-15.338,10.078-22.382,10.078c-10.064,0-15.523-6.046-15.523-15.721
	c0-10.475,5.856-18.142,29.234-18.142h8.671V579.588L304.189,579.588L304.189,579.588z M324.741,602.762v-71.739
	c0-18.34-10.49-30.438-35.669-30.438c-14.726,0-27.616,3.636-38.098,8.266l3.022,12.706c8.258-3.03,18.948-5.847,29.428-5.847
	c14.506,0,20.765,5.847,20.765,17.94v9.07h-7.257c-35.282,0-51.191,13.68-51.191,34.259c0,17.729,10.477,27.808,30.221,27.808
	c12.697,0,22.162-5.239,31.041-12.908l1.623,10.885L324.741,602.762L324.741,602.762z M35.814,619.815
	c-5.853,8.553-15.319,15.326-25.671,19.146L0,627.015c7.887-4.051,14.643-10.579,17.786-16.656c2.71-5.419,3.839-12.385,3.839-29.06
	V466.722h21.833v112.999C43.457,602.021,41.677,611.035,35.814,619.815L35.814,619.815z"/>
</svg>
