<?xml version="1.0" encoding="utf-8"?>
<!-- Generator: Adobe Illustrator 16.2.1, SVG Export Plug-In . SVG Version: 6.00 Build 0)  -->
<!DOCTYPE svg PUBLIC "-//W3C//DTD SVG 1.1//EN" "http://www.w3.org/Graphics/SVG/1.1/DTD/svg11.dtd">
<svg version="1.1" id="Layer_1" xmlns="http://www.w3.org/2000/svg" xmlns:xlink="http://www.w3.org/1999/xlink" x="0px" y="0px"
	 width="418.265px" height="567.117px" viewBox="0 0 418.265 567.117" enable-background="new 0 0 418.265 567.117"
	 xml:space="preserve">
<path d="M134.699,438.573c0,0-21.659,12.605,15.432,16.861c44.942,5.131,67.909,4.394,117.418-4.967c0,0,13.044,8.159,31.23,15.227
	C187.75,513.262,47.501,462.939,134.699,438.573L134.699,438.573z M121.125,376.489c0,0-24.297,17.987,12.822,21.825
	c48.013,4.957,85.916,5.362,151.539-7.267c0,0,9.055,9.198,23.314,14.226C174.584,444.532,25.091,408.361,121.125,376.489
	L121.125,376.489z M235.494,271.161c27.369,31.508-7.18,59.837-7.18,59.837s69.46-35.852,37.567-80.767
	c-29.798-41.867-52.644-62.665,71.034-134.391C336.919,115.841,142.773,164.318,235.494,271.161L235.494,271.161z M382.334,484.503
	c0,0,16.033,13.217-17.662,23.438c-64.069,19.406-266.719,25.262-323.004,0.775c-20.219-8.805,17.716-21.014,29.651-23.591
	c12.445-2.692,19.551-2.201,19.551-2.201c-22.502-15.847-145.444,31.122-62.44,44.592
	C254.783,564.208,441.039,510.993,382.334,484.503L382.334,484.503z M145.124,312.154c0,0-103.065,24.486-36.496,33.388
	c28.116,3.763,84.133,2.896,136.348-1.485c42.662-3.578,85.477-11.236,85.477-11.236s-15.032,6.449-25.916,13.875
	C199.853,374.229-2.338,361.404,55.878,333.257C105.09,309.449,145.124,312.154,145.124,312.154L145.124,312.154z M330.025,415.498
	c106.406-55.278,57.201-108.407,22.861-101.249c-8.397,1.75-12.165,3.271-12.165,3.271s3.128-4.902,9.086-7.012
	c67.938-23.873,120.176,70.438-21.909,107.787C327.896,418.295,329.531,416.815,330.025,415.498L330.025,415.498z M265.884,0
	c0,0,58.917,58.951-55.898,149.575c-92.074,72.724-20.994,114.173-0.033,161.555c-53.75-48.491-93.174-91.183-66.731-130.913
	C182.053,121.908,289.65,93.628,265.884,0L265.884,0z M155.584,565.338c102.115,6.528,258.968-3.633,262.68-51.957
	c0,0-7.135,18.32-84.396,32.854c-87.169,16.409-194.702,14.5-258.456,3.973C75.411,550.208,88.472,561.02,155.584,565.338
	L155.584,565.338z"/>
</svg>
