<?xml version="1.0" encoding="utf-8"?>
<!-- Generator: Adobe Illustrator 16.2.1, SVG Export Plug-In . SVG Version: 6.00 Build 0)  -->
<!DOCTYPE svg PUBLIC "-//W3C//DTD SVG 1.1//EN" "http://www.w3.org/Graphics/SVG/1.1/DTD/svg11.dtd">
<svg version="1.1" id="Layer_1" xmlns="http://www.w3.org/2000/svg" xmlns:xlink="http://www.w3.org/1999/xlink" x="0px" y="0px"
	 width="327px" height="327px" viewBox="0 0 327 327" enable-background="new 0 0 327 327" xml:space="preserve">
<path fill="#010101" d="M0,0v327h327V0H0z M177.488,205.245c0,36.555-0.126,55.983-0.312,57.722
	c-2.145,17.19-10.257,28.753-24.089,34.348c-11.532,4.632-27.261,5.004-39.508,0.933c-11.594-3.854-21.229-12.246-26.794-23.344
	l-0.932-1.864l12.278-7.461c6.745-4.071,12.372-7.46,12.496-7.521c0.093-0.031,0.901,1.182,1.802,2.674
	c5.564,9.511,10.352,12.898,18.34,12.868c5.594-0.032,8.952-1.12,11.563-3.73c1.865-1.864,2.922-3.885,3.824-7.273l0.683-2.579
	l0.093-54.957l0.125-54.924h15.199h15.23v55.111H177.488z M289.296,287.431c-7.304,7.086-16.724,11.251-29.281,13.024
	c-5.005,0.684-14.796,0.714-20.02,0c-19.954-2.674-34.72-11.999-44.168-27.914c-1.214-1.989-1.462-2.643-1.151-2.921
	c0.498-0.468,24.153-14.112,24.434-14.112c0.124,0,1.024,1.181,2.021,2.61c7.271,10.756,16.318,15.729,28.44,15.729
	c7.18,0,12.963-1.958,16.63-5.657c1.089-1.088,2.3-2.704,2.766-3.668c2.395-4.973,1.338-11.47-2.456-15.541
	c-3.076-3.295-7.894-5.938-20.855-11.502c-9.512-4.103-15.013-6.744-19.055-9.168c-15.884-9.605-23.001-21.729-23.001-39.072
	c0-11.595,3.604-20.733,11.158-28.225c7.335-7.273,17.188-11.501,28.938-12.434c4.445-0.341,5.067-0.341,9.792,0.031
	c9.636,0.716,16.94,3.047,23.779,7.584c3.697,2.456,9.075,8.051,12.061,12.527c1.397,2.113,2.549,3.918,2.549,4.041
	c0,0.217-22.6,14.827-23.407,15.169c-0.248,0.093-0.963-0.746-1.926-2.269c-0.841-1.338-2.643-3.544-4.042-4.912
	c-3.948-3.978-7.833-5.533-13.831-5.533c-5.286-0.03-8.705,1.307-11.656,4.509c-2.052,2.206-2.985,4.475-3.202,7.833
	c-0.25,4.226,0.9,7.614,3.604,10.505c2.829,3.016,7.119,5.378,19.926,10.881c16.939,7.273,25.427,12.309,31.985,18.96
	c3.419,3.48,5.407,6.247,7.397,10.351c2.891,5.998,4.165,12.061,4.165,19.832C300.89,270.241,297.066,279.938,289.296,287.431z"/>
</svg>
