<?xml version="1.0" encoding="utf-8"?>
<!-- Generator: Adobe Illustrator 16.2.1, SVG Export Plug-In . SVG Version: 6.00 Build 0)  -->
<!DOCTYPE svg PUBLIC "-//W3C//DTD SVG 1.1//EN" "http://www.w3.org/Graphics/SVG/1.1/DTD/svg11.dtd">
<svg version="1.1" id="Layer_1" xmlns="http://www.w3.org/2000/svg" xmlns:xlink="http://www.w3.org/1999/xlink" x="0px" y="0px"
	 width="565px" height="299.673px" viewBox="0 0 565 299.673" enable-background="new 0 0 565 299.673" xml:space="preserve">
<path d="M203.195,196.37c-12.948,11.224-26.64,17.536-38.93,17.536c-17.505,0-27.001-10.521-27.001-27.354
	c0-18.223,10.167-31.562,50.88-31.562h15.051V196.37L203.195,196.37L203.195,196.37z M238.937,236.689V111.871
	c0-31.906-18.196-52.957-62.044-52.957c-25.586,0-48.019,6.324-66.255,14.379l5.248,22.108
	c14.363-5.275,32.937-10.173,51.173-10.173c25.266,0,36.136,10.173,36.136,31.213v15.783H190.57
	c-61.372,0-89.06,23.799-89.06,59.605c0,30.843,18.249,48.381,52.603,48.381c22.077,0,38.577-9.116,53.98-22.46l2.805,18.939
	H238.937L238.937,236.689z M358.215,236.689h-44.572l-53.65-174.587h38.927l33.301,107.282l7.406,32.231
	c16.812-46.62,28.73-93.957,34.692-139.513h37.86C402.056,119.588,383.788,182.695,358.215,236.689L358.215,236.689z
	 M529.245,196.37c-12.991,11.224-26.686,17.536-38.941,17.536c-17.512,0-27.007-10.521-27.007-27.354
	c0-18.223,10.188-31.562,50.862-31.562h15.084v41.378L529.245,196.37L529.245,196.37z M565,236.689V111.871
	c0-31.906-18.249-52.957-62.058-52.957c-25.619,0-48.046,6.324-66.283,14.379l5.258,22.108
	c14.369-5.275,32.969-10.173,51.203-10.173c25.233,0,36.124,10.173,36.124,31.213v15.783H516.62
	c-61.387,0-89.066,23.799-89.066,59.605c0,30.843,18.227,48.381,52.577,48.381c22.094,0,38.562-9.116,54.007-22.46l2.825,18.939H565
	L565,236.689z M62.313,266.359c-10.184,14.881-26.652,26.668-44.666,33.313L0,278.886c13.722-7.05,25.476-18.407,30.945-28.983
	c4.716-9.428,6.68-21.545,6.68-50.555V0H75.61v196.6C75.61,235.398,72.512,251.083,62.313,266.359L62.313,266.359z"/>
</svg>
