<?xml version="1.0" encoding="utf-8"?>
<!-- Generator: Adobe Illustrator 16.2.1, SVG Export Plug-In . SVG Version: 6.00 Build 0)  -->
<!DOCTYPE svg PUBLIC "-//W3C//DTD SVG 1.1//EN" "http://www.w3.org/Graphics/SVG/1.1/DTD/svg11.dtd">
<svg version="1.1" id="Layer_1" xmlns="http://www.w3.org/2000/svg" xmlns:xlink="http://www.w3.org/1999/xlink" x="0px" y="0px"
	 width="493.552px" height="350.561px" viewBox="0 0 493.552 350.561" enable-background="new 0 0 493.552 350.561"
	 xml:space="preserve">
<path fill="#010101" d="M362.28,0.581c-26.968,2.14-49.582,11.843-66.421,28.537c-17.336,17.194-25.611,38.168-25.611,64.779
	c0,39.81,16.338,67.634,52.794,89.678c9.275,5.564,21.902,11.63,43.732,21.048c29.752,12.771,40.811,18.835,47.872,26.396
	c8.702,9.348,11.131,24.258,5.635,35.672c-1.069,2.213-3.852,5.922-6.349,8.418c-8.419,8.49-21.688,12.985-38.168,12.985
	c-27.824,0-48.586-11.415-65.278-36.1c-2.284-3.281-4.354-5.993-4.639-5.993c-0.643,0-54.935,31.318-56.076,32.391
	c-0.713,0.642-0.142,2.141,2.641,6.705c21.689,36.527,55.577,57.932,101.378,64.066c11.988,1.643,34.461,1.57,45.946,0
	c28.822-4.064,50.438-13.626,67.205-29.893c17.836-17.194,26.61-39.453,26.61-67.349c0-17.836-2.925-31.747-9.561-45.519
	c-4.565-9.416-9.132-15.767-16.98-23.758c-15.053-15.266-34.527-26.824-73.41-43.518c-29.395-12.627-39.238-18.05-45.731-24.97
	c-6.206-6.635-8.846-14.411-8.275-24.114c0.501-7.705,2.643-12.914,7.35-17.979c6.776-7.349,14.626-10.417,26.755-10.345
	c13.768,0,22.687,3.567,31.747,12.699c3.211,3.14,7.348,8.205,9.274,11.272c2.211,3.496,3.853,5.423,4.422,5.208
	c1.854-0.785,53.724-34.315,53.724-34.815c0-0.285-2.642-4.423-5.853-9.274c-6.848-10.273-19.189-23.115-27.681-28.751
	C423.637,7.643,406.871,2.292,384.755,0.65C373.909-0.205,372.483-0.205,362.28,0.581z M140.19,130.211l-0.215,126.134l-1.569,5.92
	c-2.069,7.778-4.494,12.416-8.775,16.695c-5.994,5.992-13.698,8.49-26.54,8.561c-18.336,0.072-29.323-7.703-42.093-29.535
	c-2.069-3.424-3.924-6.206-4.138-6.137c-0.286,0.145-13.199,7.92-28.68,17.267L0,286.239l2.14,4.28
	c12.771,25.47,34.886,44.731,61.498,53.578c28.109,9.346,64.209,8.489,90.677-2.141c31.749-12.842,50.368-39.382,55.291-78.835
	c0.428-3.995,0.714-48.584,0.714-132.483V4.147h-34.958h-34.887L140.19,130.211z"/>
</svg>
