<?xml version="1.0" encoding="utf-8"?>
<!-- Generator: Adobe Illustrator 16.2.1, SVG Export Plug-In . SVG Version: 6.00 Build 0)  -->
<!DOCTYPE svg PUBLIC "-//W3C//DTD SVG 1.1//EN" "http://www.w3.org/Graphics/SVG/1.1/DTD/svg11.dtd">
<svg version="1.1" id="Layer_1" xmlns="http://www.w3.org/2000/svg" xmlns:xlink="http://www.w3.org/1999/xlink" x="0px" y="0px"
	 width="1000px" height="209.299px" viewBox="0 0 1000 209.299" enable-background="new 0 0 1000 209.299" xml:space="preserve">
<path d="M37.757,105.599l-4.03-4.021C21.228,89.074,17.359,71.218,22.092,55.384C9.597,52.56,0.265,41.388,0.265,28.036
	C0.268,12.555,12.817,0,28.297,0C42.234,0.007,53.79,10.174,55.963,23.494c15.124-3.546,31.677,0.579,43.471,12.373l1.609,1.609
	L80.354,58.154l-1.605-1.612c-6.711-6.707-17.593-6.707-24.311,0.008c-6.74,6.739-6.725,17.655-0.037,24.344l4.046,4.039
	L79.139,105.6l21.881,21.873l-20.667,20.684l-21.907-21.876L37.757,105.599 M60.898,82.479l21.898-21.885l20.692-20.666l4.036-4.029
	c12.452-12.448,30.198-16.366,45.968-11.736C155.379,10.515,167.095,0,181.265,0c15.481,0,28.039,12.547,28.035,28.036
	c0,14.228-10.606,25.986-24.344,27.793c4.516,15.713,0.581,33.331-11.788,45.712l-1.613,1.616l-20.673-20.691l1.599-1.603
	c6.718-6.714,6.718-17.604,0.007-24.314c-6.693-6.686-17.55-6.7-24.29,0.036l-4.034,4.032l-20.692,20.678l-21.886,21.863
	L60.898,82.479 M154.05,186.854c-15.908,4.895-33.932,1.044-46.526-11.544l-1.583-1.583l20.67-20.691l1.586,1.592
	c6.718,6.712,17.609,6.712,24.32,0.007c6.688-6.699,6.702-17.554-0.037-24.293l-4.042-4.048L127.763,105.6l-21.845-21.862
	l20.692-20.67l21.828,21.849l20.666,20.684l4.063,4.072c11.892,11.89,16,28.618,12.301,43.835
	c13.615,1.918,24.09,13.617,24.09,27.762c0,15.485-12.557,28.029-28.032,28.029C167.955,209.297,156.639,199.664,154.05,186.854
	 M145.986,128.744l-21.822,21.854l-20.675,20.687l-4.056,4.056c-11.942,11.944-28.784,16.011-44.07,12.215
	c-2.857,12.457-14.007,21.733-27.327,21.745c-15.486,0-28.039-12.552-28.035-28.029c0-13.255,9.201-24.367,21.563-27.285
	c-3.913-15.359,0.14-32.328,12.163-44.35l1.581-1.576l20.69,20.673l-1.599,1.587c-6.71,6.719-6.71,17.59,0.007,24.316
	c6.737,6.731,17.652,6.719,24.34,0.026l4.049-4.058l20.675-20.681l21.845-21.865L145.986,128.744 M314.614,41.363v87.706
	c0,7.753-2.357,14.327-6.996,19.525c-5.665,6.336-14.126,9.551-25.146,9.551l-9.878-0.733l-29.767-4.884l-4.943,11.188l30.246,4.674
	c5.643,0.867,10.904,1.306,15.625,1.306c16.365,0,28.717-4.6,36.717-13.651c6.443-7.397,9.709-17.068,9.709-28.741V41.364
	L314.614,41.363 M436.076,151.308c-9.148,5.198-20.248,7.836-33.01,7.836c-13.054,0-24.226-2.582-33.266-7.67l0,0
	c-10.999-6.156-16.335-14.814-16.335-26.483c0-11.5,5.489-20.409,16.335-26.476c9.041-5.095,20.212-7.677,33.266-7.677
	c12.942,0,24.079,2.582,33.19,7.677c10.738,6.116,16.161,15.026,16.161,26.476C452.418,136.328,446.922,145.183,436.076,151.308z
	 M445.224,89.792c-11.858-6.474-26.032-9.754-42.156-9.754c-15.982,0-30.19,3.28-42.151,9.748h-0.004
	c-15.102,8.224-22.769,20.082-22.769,35.25c0,15.17,7.667,27.005,22.771,35.162c11.961,6.476,26.134,9.74,42.151,9.74
	c16.052,0,30.226-3.242,42.084-9.657c14.968-8.161,22.597-20.02,22.597-35.245C467.748,109.816,460.155,97.957,445.224,89.792
	 M573.758,151.308c-9.148,5.198-20.248,7.836-33.013,7.836c-13.052,0-24.224-2.582-33.262-7.67
	c-10.992-6.156-16.343-14.814-16.343-26.483c0-11.5,5.496-20.409,16.343-26.476c9.038-5.095,20.21-7.677,33.262-7.677
	c12.909,0,24.081,2.582,33.192,7.677c10.704,6.116,16.161,15.026,16.161,26.476C590.1,136.328,584.604,145.183,573.758,151.308z
	 M582.907,89.792c-11.862-6.474-26.034-9.754-42.162-9.754c-15.979,0-30.189,3.28-42.155,9.748l0,0
	c-15.113,8.224-22.777,20.082-22.777,35.25c0,15.17,7.664,27.005,22.777,35.162c11.966,6.476,26.143,9.74,42.155,9.74
	c16.056,0,30.192-3.242,42.052-9.657c15.004-8.161,22.598-20.02,22.598-35.245C605.395,109.809,597.839,97.957,582.907,89.792
	 M772.868,87.603c-8.462-5.012-19.309-7.564-32.215-7.564c-16.414,0-29.72,5.164-39.663,15.188
	c-9.619-10.022-22.886-15.188-39.557-15.188c-13.448,0-24.405,2.834-32.863,8.233c0-2.072,0-6.979,0-6.979h-14.824v87.146h14.824
	v-59.631c1.013-4.298,3.833-8.246,8.424-11.51c6.076-4.286,14.103-6.458,23.896-6.458c8.607,0,16.057,1.777,22.057,5.275
	c7.196,4.104,10.667,9.844,10.667,17.56v54.765h14.568v-54.765c0-7.726,3.472-13.499,10.632-17.644
	c6.073-3.44,13.596-5.191,22.31-5.191s16.196,1.777,22.235,5.282c7.157,4.097,10.629,9.837,10.629,17.553v54.765h14.785v-52.725
	C788.774,103.31,783.424,93.844,772.868,87.603 M800.744,41.363v127.075h14.787V41.363H800.744 M842.827,124.991
	c0-11.552,5.496-20.489,16.271-26.566c9.077-5.029,20.317-7.585,33.445-7.585c16.231,0,28.924,3.959,37.745,11.779
	c7.773,6.901,11.718,15.902,11.718,26.728c0,0,0,9.536,0,10.32c-6.223,6.864-15.299,12.291-27.01,16.079
	c-6.871,2.262-14.427,3.398-22.453,3.398c-13.342,0-24.658-2.492-33.518-7.415C848.108,145.629,842.827,136.887,842.827,124.991z
	 M942.008,81.293c0,0,0,11.915,0,14.918c-12.692-10.634-29.397-16.173-49.933-16.173c-16.633,0-30.88,3.171-42.449,9.409
	c-14.68,7.99-22.125,19.968-22.125,35.588c0,15.401,7.625,27.288,22.668,35.332c11.821,6.356,26.104,9.57,42.411,9.57
	c8.205,0,16.127-0.968,23.572-2.886c10.486-2.706,19.129-6.785,25.854-12.039c0,2.944,0,13.425,0,13.425h14.82V81.292
	L942.008,81.293 M988.248,152.11c-10.304,0-11.859,5.354-11.859,8.537c0,3.284,1.557,8.794,11.859,8.794
	c10.23,0,11.752-5.51,11.752-8.794C1000,157.463,998.479,152.11,988.248,152.11z M995.479,39.353h-14.785V139.77h14.785V39.353"/>
</svg>
