<?xml version="1.0" encoding="utf-8"?>
<!-- Generator: Adobe Illustrator 16.2.1, SVG Export Plug-In . SVG Version: 6.00 Build 0)  -->
<!DOCTYPE svg PUBLIC "-//W3C//DTD SVG 1.1//EN" "http://www.w3.org/Graphics/SVG/1.1/DTD/svg11.dtd">
<svg version="1.1" id="Layer_1" xmlns="http://www.w3.org/2000/svg" xmlns:xlink="http://www.w3.org/1999/xlink" x="0px" y="0px"
	 width="1000px" height="171.346px" viewBox="0 0 1000 171.346" enable-background="new 0 0 1000 171.346" xml:space="preserve">
<path d="M100.681,2.638V117.72c0,10.175-3.093,18.8-9.18,25.62c-7.434,8.312-18.535,12.532-32.995,12.532l-12.962-0.962
	l-39.058-6.408L0,163.184l39.687,6.133c7.404,1.139,14.307,1.714,20.502,1.714c21.474,0,37.68-6.035,48.177-17.914
	c8.454-9.706,12.74-22.396,12.74-37.712V2.638H100.681 M260.056,146.9c-12.004,6.82-26.568,10.281-43.313,10.281
	c-17.128,0-31.786-3.388-43.649-10.062l0,0c-14.431-8.078-21.434-19.438-21.434-34.75c0-15.09,7.203-26.78,21.434-34.739
	c11.863-6.685,26.521-10.073,43.649-10.073c16.982,0,31.595,3.389,43.55,10.073c14.09,8.025,21.206,19.719,21.206,34.739
	C281.499,127.245,274.287,138.864,260.056,146.9z M272.059,66.185c-15.561-8.495-34.159-12.799-55.316-12.799
	c-20.971,0-39.614,4.304-55.309,12.79h-0.005c-19.815,10.791-29.874,26.35-29.874,46.252c0,19.905,10.059,35.437,29.879,46.139
	c15.694,8.496,34.291,12.779,55.309,12.779c21.062,0,39.66-4.254,55.22-12.671c19.641-10.709,29.65-26.269,29.65-46.247
	C301.613,92.458,291.651,76.896,272.059,66.185 M440.713,146.9c-12.005,6.82-26.568,10.281-43.315,10.281
	c-17.125,0-31.785-3.388-43.646-10.062c-14.423-8.078-21.444-19.438-21.444-34.75c0-15.09,7.212-26.78,21.444-34.739
	c11.859-6.685,26.521-10.073,43.646-10.073c16.938,0,31.598,3.389,43.553,10.073c14.046,8.025,21.207,19.719,21.207,34.739
	C462.156,127.245,454.945,138.864,440.713,146.9z M452.718,66.185c-15.563-8.495-34.16-12.799-55.321-12.799
	c-20.968,0-39.612,4.304-55.312,12.79l0,0c-19.831,10.791-29.888,26.35-29.888,46.252c0,19.905,10.058,35.437,29.888,46.139
	c15.701,8.496,34.301,12.779,55.312,12.779c21.066,0,39.616-4.254,55.179-12.671c19.687-10.709,29.649-26.269,29.649-46.247
	C482.225,92.45,472.311,76.896,452.718,66.185 M701.973,63.312c-11.104-6.575-25.334-9.926-42.271-9.926
	c-21.537,0-38.995,6.776-52.043,19.927c-12.622-13.15-30.028-19.927-51.902-19.927c-17.646,0-32.022,3.719-43.122,10.804
	c0-2.719,0-9.156,0-9.156h-19.452V169.38h19.452V91.135c1.328-5.64,5.029-10.82,11.055-15.104
	c7.973-5.623,18.505-8.475,31.354-8.475c11.294,0,21.067,2.333,28.94,6.923c9.441,5.384,13.996,12.917,13.996,23.041v71.857h19.115
	V97.52c0-10.136,4.556-17.712,13.95-23.149c7.969-4.516,17.839-6.812,29.272-6.812c11.433,0,21.251,2.333,29.176,6.933
	c9.393,5.375,13.946,12.907,13.946,23.03v71.857h19.399v-69.182C722.844,83.92,715.823,71.501,701.973,63.312 M738.55,2.638v166.74
	h19.402V2.638H738.55 M793.769,112.369c0-15.157,7.212-26.886,21.354-34.86c11.91-6.599,26.659-9.953,43.885-9.953
	c21.298,0,37.951,5.195,49.526,15.456c10.2,9.056,15.375,20.866,15.375,35.07c0,0,0,12.513,0,13.543
	c-8.165,9.007-20.074,16.127-35.44,21.098c-9.016,2.967-18.93,4.459-29.461,4.459c-17.507,0-32.354-3.27-43.979-9.729
	C800.698,139.45,793.769,127.979,793.769,112.369z M923.906,55.032c0,0,0,15.633,0,19.574
	c-16.655-13.952-38.574-21.221-65.52-21.221c-21.824,0-40.52,4.161-55.697,12.345c-19.264,10.484-29.031,26.202-29.031,46.697
	c0,20.209,10.005,35.806,29.743,46.36c15.512,8.341,34.25,12.558,55.647,12.558c10.768,0,21.16-1.27,30.932-3.786
	c13.761-3.551,25.1-8.901,33.926-15.797c0,3.864,0,17.615,0,17.615h19.444V55.032H923.906 M984.58,147.953
	c-13.521,0-15.562,7.023-15.562,11.202c0,4.309,2.041,11.538,15.562,11.538c13.425,0,15.42-7.229,15.42-11.538
	C1000,154.979,998.005,147.953,984.58,147.953z M994.067,0h-19.401v131.762h19.401V0"/>
</svg>
