<?xml version="1.0" encoding="utf-8"?>
<!-- Generator: Adobe Illustrator 16.2.1, SVG Export Plug-In . SVG Version: 6.00 Build 0)  -->
<!DOCTYPE svg PUBLIC "-//W3C//DTD SVG 1.1//EN" "http://www.w3.org/Graphics/SVG/1.1/DTD/svg11.dtd">
<svg version="1.1" id="Layer_1" xmlns="http://www.w3.org/2000/svg" xmlns:xlink="http://www.w3.org/1999/xlink" x="0px" y="0px"
	 width="893.001px" height="201.589px" viewBox="0 0 893.001 201.589" enable-background="new 0 0 893.001 201.589"
	 xml:space="preserve">
<path d="M549.824,32.356h-26.189c-1.455,0-2.896,1.165-3.207,2.585l-9.299,43.016l-9.297,43.019c-0.307,1.42-1.75,2.582-3.202,2.582
	h-15.89h-2.647c-18.339,0-16.219-12.685-12.462-30.062c0.037-0.175,0.075-0.346,0.112-0.524l0.411-2.189
	c0.025-0.141,0.055-0.283,0.079-0.412l0.838-4.46l0.896-4.78c0.272-1.44,0.688-3.548,0.956-4.873l4.229-20.651l4.229-20.652
	c0.293-1.424-0.662-2.594-2.116-2.594h-26.882c-1.454,0-2.892,1.169-3.188,2.59l-5.78,27.422l-5.779,27.419
	c-0.005,0.011-0.007,0.03-0.009,0.042l-0.538,2.549c-6.658,30.396-4.893,59.381,31.292,60.288c0.591,0.019,1.049,0.021,1.049,0.021
	h56.798c1.453,0,2.895-1.168,3.195-2.59l12.248-57.574l12.248-57.579C552.221,33.522,551.277,32.356,549.824,32.356L549.824,32.356z
	 M269.316,32.051h-28.762c-1.455,0-2.906,1.163-3.231,2.578l-2.727,12.037l-2.727,12.042c-0.321,1.415,0.606,2.577,2.061,2.577
	h28.985c1.453,0,2.898-1.162,3.21-2.581l2.636-12.038l2.636-12.029v-0.003C271.708,33.214,270.772,32.053,269.316,32.051
	L269.316,32.051z M260.978,69.509h-28.989c-1.453,0-2.906,1.162-3.228,2.583l-4.072,18.033l-4.068,18.034
	c-0.321,1.42-0.833,3.749-1.134,5.171l-3.913,18.407l-3.909,18.406c-0.304,1.42-0.929,3.715-1.395,5.092
	c0,0-5.414,16.115-14.519,15.933c-0.388-0.008-0.764-0.012-1.137-0.021c-4.411-0.084-7.878-0.146-7.878-0.146h-0.006
	c-1.451-0.021-2.911,1.108-3.25,2.521l-3.005,12.64l-3.002,12.633c-0.338,1.411,0.575,2.577,2.018,2.604
	c5.164,0.061,16.726,0.189,23.727,0.189c22.741,0,34.729-12.602,42.415-48.855l8.993-41.614l8.436-39.026
	c0.306-1.421-0.632-2.583-2.086-2.583L260.978,69.509L260.978,69.509z M792.699,62.334l-68.732,0.033
	c-1.451,0.004-2.883,1.162-3.191,2.577l-4.156,19.488l-4.711,22.064l-0.52,2.557c-0.004,0.015-0.006,0.03-0.006,0.038l-3.889,19.204
	l-3.883,19.206c-0.004,0.018-0.008,0.034-0.012,0.05c0.004-0.016,0.01-0.032,0.014-0.05l-0.525,2.591
	c-0.285,1.431-1.715,2.597-3.168,2.597h-2.648c0.004,0,0.006,0,0.01,0c-0.004,0-0.01,0-0.012,0h-24.498
	c-1.451,0-2.396-1.168-2.09-2.59l10.902-51.072l-6.65,31.162l17.559-82.233l-0.027,0.14l0.029-0.139l0.352-1.674l1.266-5.976
	l1.068-5.059h0.002c0.299-1.424,1.738-2.585,3.191-2.585h22.365h1.848l21.52,0.024l23.365,0.025c15.008,0,21.92,5.28,24.273,14.428
	l0.602,2.573l1.189,5.084l1.203,4.963v-0.001C795.068,61.177,794.15,62.331,792.699,62.334z M883.217,14.88
	c-1.455,0.01-3.834,0.018-5.291,0.018h-21.998c-1.455,0-3.318,0.983-4.139,2.184l-48.648,71.269
	c-0.818,1.203-1.758,1.023-2.082-0.392l-3.576-15.702c-0.322-1.42-1.779-2.577-3.232-2.577h-31.275c-1.455,0-2.314,1.14-1.918,2.54
	l14.014,49.092c0.398,1.397,0.43,3.697,0.068,5.105l-6.107,23.759c-0.361,1.41,0.533,2.564,1.988,2.564h30.908
	c1.451,0,2.939-1.154,3.299-2.564l6.111-23.759c0.359-1.408,1.373-3.516,2.248-4.677L892.56,16.922
	c0.878-1.162,0.404-2.107-1.051-2.097l-8.289,0.054L883.217,14.88L883.217,14.88z M634.758,76.362l-0.002-0.028
	c-0.184,1.578-1.637,2.735-3.092,2.735h-39.648c-1.371,0-2.066-0.933-1.863-2.083c0.012-0.034,0.016-0.062,0.035-0.091
	c0,0-0.016,0.002-0.023,0.012c0.01-0.046,0.01-0.087,0.021-0.133c0,0,0.074-0.279,0.182-0.674
	c3.789-10.068,11.502-16.676,25.998-16.676c16.318,0,19.504,7.974,18.396,16.938H634.758z M623.127,30.597
	c-50.895,0-62.953,30.892-69.721,62.071c-6.768,31.776-6.184,61.49,46.48,61.49h1.869c0.166-0.003,0.336-0.003,0.502-0.003h1.479
	h0.539h1.381c0.205-0.006,0.41-0.006,0.617-0.006c0.523,0,1.055-0.002,1.588-0.002h0.371c2.084-0.004,4.197-0.016,6.316-0.021h0.105
	c13.909-0.055,27.855-0.16,33.508-0.204c1.445-0.021,2.857-1.188,3.158-2.599l2.131-10.421l0.414-2.028l2.545-12.428
	c0.291-1.427-0.66-2.593-2.115-2.593h-47.348c-18.83,0-24.425-5.004-22.363-19.715h75.686l-0.006,0.008
	c0.021,0,0.035-0.008,0.053-0.008c1.205-0.021,2.314-0.851,2.758-1.951c0.084-0.213,0.152-0.436,0.184-0.665l-0.01,0.009
	c11.24-42.389,8.018-70.935-40.127-70.935L623.127,30.597z M382.581,76.201l-0.716,2.536c0,0.008-0.001,0.008-0.001,0.008
	l-5.715,20.254l-5.714,20.25c-0.396,1.398-1.906,2.544-3.364,2.544h-30.25c-22.943,0-28.531-17.942-22.943-44.414
	c5.585-27.073,16.539-43.904,39.121-45.607C383.858,29.441,390.032,51.147,382.581,76.201L382.581,76.201z M403.325,120.231
	c0,0,14.261-34.625,17.5-54.627C425.243,38.831,411.836,0,360.058,0c-51.483,0-73.841,37.073-82.372,77.375
	c-8.529,40.593,2.646,76.192,53.838,75.901l40.385-0.149l37.745-0.136c1.453-0.016,2.938-1.167,3.31-2.57l6.574-25.079
	c0.366-1.405-0.522-2.563-1.975-2.573l-6.305-0.035l-6.3-0.039c-1.237-0.01-1.944-0.809-1.794-1.87
	c0.027-0.19,0.07-0.388,0.153-0.591h0.006V120.231z M10.196,52.034C-4.02,72.467-2.25,99.048,8.609,120.759
	c0.258,0.521,0.529,1.032,0.796,1.544c0.17,0.324,0.33,0.657,0.508,0.979c0.1,0.191,0.212,0.381,0.316,0.562
	c0.185,0.349,0.374,0.677,0.566,1.015c0.336,0.596,0.683,1.187,1.037,1.775c0.196,0.324,0.39,0.65,0.591,0.977
	c0.391,0.633,0.793,1.257,1.204,1.881c0.171,0.268,0.338,0.533,0.513,0.791c0.566,0.846,1.145,1.688,1.743,2.516
	c0.015,0.021,0.032,0.045,0.049,0.066c0.094,0.131,0.199,0.261,0.294,0.394c0.517,0.716,1.05,1.416,1.588,2.112
	c0.198,0.253,0.398,0.509,0.597,0.762c0.48,0.604,0.97,1.205,1.468,1.805c0.186,0.225,0.372,0.449,0.56,0.67
	c0.668,0.785,1.349,1.568,2.045,2.334c0.012,0.016,0.029,0.03,0.041,0.043c0.029,0.033,0.055,0.056,0.08,0.088
	c0.679,0.74,1.375,1.468,2.078,2.189c0.218,0.225,0.441,0.45,0.667,0.672c0.545,0.549,1.099,1.09,1.658,1.627
	c0.227,0.217,0.452,0.438,0.678,0.646c0.748,0.704,1.503,1.396,2.273,2.068c0.014,0.013,0.023,0.021,0.036,0.027
	c0.13,0.117,0.267,0.227,0.396,0.34c0.679,0.588,1.37,1.17,2.065,1.743c0.283,0.229,0.57,0.454,0.855,0.683
	c0.568,0.455,1.143,0.904,1.721,1.348c0.305,0.232,0.613,0.467,0.921,0.697c0.639,0.472,1.282,0.935,1.932,1.388
	c0.237,0.172,0.466,0.339,0.704,0.501c0.066,0.046,0.127,0.092,0.194,0.137c0.616,0.428,1.247,0.836,1.876,1.241
	c0.271,0.181,0.539,0.367,0.812,0.541c0.966,0.612,1.946,1.216,2.937,1.8c0.269,0.154,0.542,0.307,0.812,0.458
	c0.729,0.423,1.461,0.833,2.204,1.237c0.403,0.217,0.814,0.421,1.221,0.628c0.523,0.274,1.044,0.553,1.577,0.819
	c0.12,0.06,0.246,0.117,0.365,0.177c0.215,0.104,0.431,0.204,0.646,0.312c0.826,0.396,1.658,0.782,2.5,1.156
	c0.18,0.081,0.352,0.159,0.529,0.238c0.963,0.421,1.935,0.824,2.917,1.211c0.236,0.097,0.474,0.188,0.711,0.279
	c0.907,0.351,1.828,0.694,2.752,1.021c0.116,0.041,0.229,0.08,0.345,0.12c1.014,0.354,2.038,0.684,3.069,1.005
	c0.246,0.071,0.493,0.149,0.741,0.222c1.049,0.315,2.086,0.692,3.168,0.896c68.749,12.535,88.719-41.314,88.719-41.314
	c-16.773,21.852-46.544,27.614-74.75,21.196c-1.068-0.242-2.105-0.573-3.148-0.883c-0.264-0.078-0.524-0.157-0.785-0.238
	c-1.018-0.312-2.028-0.64-3.032-0.983c-0.138-0.051-0.277-0.101-0.417-0.15c-0.899-0.314-1.788-0.648-2.673-0.99
	c-0.25-0.1-0.5-0.195-0.75-0.295c-0.97-0.383-1.934-0.781-2.885-1.199c-0.195-0.084-0.383-0.171-0.577-0.254
	c-0.819-0.371-1.628-0.744-2.435-1.134c-0.233-0.11-0.466-0.222-0.703-0.339c-0.633-0.309-1.259-0.635-1.883-0.957
	c-0.418-0.221-0.843-0.428-1.256-0.656c-0.763-0.408-1.512-0.834-2.256-1.267c-0.253-0.142-0.509-0.279-0.763-0.427
	c-0.991-0.582-1.97-1.188-2.939-1.799c-0.268-0.172-0.529-0.354-0.793-0.529c-0.703-0.453-1.402-0.913-2.09-1.393
	c-0.229-0.152-0.449-0.316-0.674-0.473c-0.665-0.471-1.322-0.946-1.977-1.432c-0.296-0.219-0.587-0.441-0.876-0.662
	c-0.598-0.459-1.194-0.918-1.784-1.395c-0.266-0.212-0.533-0.426-0.796-0.638c-0.749-0.617-1.49-1.237-2.222-1.874
	c-0.077-0.064-0.16-0.131-0.243-0.204c-0.792-0.692-1.568-1.405-2.336-2.123c-0.223-0.213-0.439-0.42-0.658-0.632
	c-0.569-0.542-1.129-1.088-1.678-1.646c-0.22-0.22-0.441-0.437-0.658-0.656c-0.699-0.715-1.387-1.44-2.059-2.178
	c-0.033-0.037-0.069-0.068-0.102-0.106c-0.711-0.777-1.407-1.574-2.088-2.377c-0.185-0.222-0.365-0.435-0.547-0.649
	c-0.508-0.611-1.012-1.232-1.503-1.857c-0.185-0.226-0.369-0.455-0.551-0.688c-0.592-0.77-1.171-1.535-1.737-2.312
	C14.399,91.62,8.773,62.157,21.291,37.96 M54.324,34.82c-10.28,14.794-9.722,34.599-1.703,50.244
	c1.345,2.624,2.857,5.167,4.547,7.591c1.541,2.207,3.248,4.834,5.292,6.608c0.741,0.816,1.516,1.611,2.307,2.394
	c0.2,0.204,0.404,0.399,0.608,0.6c0.768,0.745,1.549,1.479,2.357,2.188c0.034,0.027,0.062,0.062,0.096,0.084
	c0.008,0.012,0.017,0.015,0.022,0.022c0.893,0.782,1.816,1.536,2.752,2.276c0.208,0.158,0.414,0.324,0.624,0.488
	c0.939,0.72,1.897,1.429,2.88,2.103c0.03,0.019,0.054,0.042,0.083,0.062c0.433,0.303,0.874,0.578,1.313,0.867
	c0.211,0.137,0.411,0.282,0.624,0.411c0.701,0.449,1.412,0.888,2.134,1.308c0.103,0.063,0.202,0.117,0.302,0.176
	c0.622,0.357,1.252,0.712,1.886,1.055c0.221,0.124,0.446,0.232,0.67,0.352c0.438,0.229,0.874,0.463,1.32,0.685
	c0.065,0.03,0.135,0.062,0.2,0.09c0.906,0.446,1.821,0.876,2.753,1.283c0.199,0.088,0.405,0.166,0.608,0.249
	c0.746,0.316,1.5,0.626,2.256,0.916c0.321,0.122,0.646,0.238,0.966,0.354c0.688,0.254,1.377,0.488,2.072,0.723
	c0.314,0.101,0.622,0.203,0.937,0.301c0.989,0.306,1.965,0.693,2.995,0.865c53.081,8.796,65.334-32.074,65.334-32.074
	c-11.046,15.908-32.439,23.502-55.267,17.574c-1.015-0.268-2.014-0.557-3.007-0.869c-0.303-0.092-0.602-0.191-0.904-0.292
	c-0.707-0.229-1.407-0.472-2.102-0.726c-0.319-0.117-0.637-0.231-0.949-0.354c-0.762-0.292-1.515-0.598-2.264-0.913
	c-0.204-0.087-0.409-0.167-0.61-0.258c-0.937-0.408-1.859-0.837-2.77-1.286c-0.469-0.229-0.929-0.47-1.39-0.708
	c-0.266-0.137-0.534-0.275-0.801-0.412c-0.591-0.32-1.178-0.653-1.757-0.991c-0.138-0.08-0.281-0.153-0.421-0.238
	c-0.718-0.42-1.427-0.854-2.127-1.299c-0.216-0.137-0.425-0.287-0.642-0.428c-0.462-0.3-0.924-0.604-1.378-0.912
	c-0.979-0.674-1.931-1.382-2.869-2.098c-0.216-0.171-0.433-0.336-0.646-0.508c-9.992-7.889-17.913-18.67-21.679-30.896
	c-3.946-12.679-3.095-26.91,3.742-38.461 M91.438,21.958c-6.061,8.919-6.656,19.997-2.451,29.846
	c4.435,10.455,13.522,18.659,24.128,22.546c0.438,0.164,0.875,0.309,1.318,0.459c0.193,0.058,0.386,0.125,0.581,0.184
	c0.625,0.196,1.245,0.424,1.891,0.546c29.309,5.662,37.26-15.041,39.375-18.088c-6.963,10.027-18.667,12.433-33.025,8.949
	c-1.134-0.277-2.381-0.687-3.475-1.073c-1.402-0.501-2.784-1.069-4.125-1.714c-2.549-1.225-4.98-2.711-7.233-4.414
	C95.573,49.45,87.59,30.852,95.975,15.705"/>
</svg>
