<?xml version="1.0" encoding="utf-8"?>
<!-- Generator: Adobe Illustrator 16.2.1, SVG Export Plug-In . SVG Version: 6.00 Build 0)  -->
<!DOCTYPE svg PUBLIC "-//W3C//DTD SVG 1.1//EN" "http://www.w3.org/Graphics/SVG/1.1/DTD/svg11.dtd">
<svg version="1.1" id="Layer_1" xmlns="http://www.w3.org/2000/svg" xmlns:xlink="http://www.w3.org/1999/xlink" x="0px" y="0px"
	 width="475px" height="457.601px" viewBox="0 0 475 457.601" enable-background="new 0 0 475 457.601" xml:space="preserve">
<path d="M30.166,107.473c-42.056,60.448-36.82,139.088-4.694,203.319c0.763,1.537,1.564,3.055,2.353,4.566
	c0.505,0.959,0.978,1.945,1.503,2.889c0.295,0.566,0.628,1.125,0.937,1.668c0.547,1.025,1.108,1.996,1.676,2.997
	c0.997,1.76,2.02,3.509,3.066,5.259c0.579,0.959,1.15,1.919,1.75,2.878c1.158,1.873,2.346,3.722,3.561,5.568
	c0.505,0.789,0.999,1.579,1.515,2.343c1.674,2.497,3.388,4.99,5.154,7.439c0.045,0.062,0.094,0.135,0.148,0.197
	c0.278,0.393,0.586,0.772,0.87,1.166c1.527,2.109,3.104,4.188,4.698,6.247c0.587,0.749,1.177,1.509,1.769,2.255
	c1.422,1.786,2.87,3.562,4.342,5.336c0.548,0.66,1.103,1.332,1.658,1.981c1.976,2.321,3.991,4.64,6.049,6.909
	c0.036,0.035,0.086,0.088,0.122,0.123c0.086,0.099,0.16,0.16,0.235,0.259c2.007,2.192,4.064,4.334,6.146,6.479
	c0.645,0.666,1.305,1.332,1.971,1.987c1.614,1.625,3.252,3.22,4.907,4.813c0.672,0.641,1.337,1.296,2.009,1.904
	c2.212,2.084,4.446,4.127,6.726,6.125c0.039,0.035,0.069,0.066,0.106,0.082c0.387,0.346,0.788,0.672,1.17,1.001
	c2.007,1.739,4.053,3.468,6.109,5.16c0.839,0.682,1.689,1.348,2.531,2.022c1.683,1.342,3.382,2.673,5.094,3.979
	c0.905,0.69,1.812,1.383,2.724,2.068c1.89,1.394,3.793,2.761,5.716,4.103c0.699,0.505,1.379,1.001,2.081,1.477
	c0.195,0.14,0.375,0.277,0.573,0.407c1.823,1.259,3.688,2.466,5.549,3.674c0.802,0.53,1.595,1.083,2.404,1.599
	c2.857,1.812,5.757,3.597,8.689,5.325c0.796,0.454,1.601,0.897,2.402,1.353c2.156,1.249,4.324,2.467,6.521,3.664
	c1.191,0.641,2.41,1.237,3.612,1.856c1.549,0.811,3.089,1.636,4.665,2.425c0.357,0.176,0.73,0.347,1.08,0.521
	c0.636,0.305,1.273,0.6,1.909,0.919c2.445,1.172,4.907,2.315,7.398,3.427c0.53,0.237,1.04,0.469,1.564,0.701
	c2.851,1.244,5.726,2.44,8.627,3.587c0.698,0.284,1.4,0.552,2.103,0.825c2.685,1.037,5.408,2.054,8.143,3.019
	c0.345,0.118,0.677,0.232,1.021,0.351c2.999,1.054,6.029,2.022,9.079,2.974c0.728,0.211,1.459,0.442,2.193,0.653
	c3.103,0.939,6.171,2.055,9.374,2.647C404.461,489.09,463.54,329.778,463.54,329.778c-49.617,64.643-137.695,81.695-221.144,62.707
	c-3.159-0.711-6.228-1.696-9.312-2.61c-0.783-0.231-1.552-0.464-2.324-0.702c-3.011-0.923-6-1.895-8.968-2.92
	c-0.406-0.145-0.818-0.294-1.232-0.443c-2.661-0.935-5.289-1.92-7.909-2.931c-0.739-0.295-1.478-0.578-2.217-0.872
	c-2.87-1.131-5.719-2.316-8.536-3.545c-0.579-0.248-1.133-0.512-1.705-0.754c-2.421-1.1-4.817-2.204-7.201-3.354
	c-0.69-0.33-1.38-0.655-2.082-1.002c-1.873-0.906-3.723-1.877-5.57-2.832c-1.237-0.649-2.493-1.265-3.718-1.945
	c-2.257-1.207-4.473-2.461-6.677-3.746c-0.747-0.418-1.503-0.82-2.255-1.254c-2.931-1.725-5.828-3.514-8.694-5.325
	c-0.791-0.505-1.563-1.047-2.345-1.562c-2.079-1.343-4.148-2.705-6.186-4.119c-0.676-0.447-1.329-0.943-1.994-1.397
	c-1.969-1.388-3.914-2.796-5.848-4.226c-0.876-0.649-1.739-1.312-2.592-1.961c-1.771-1.356-3.532-2.721-5.277-4.123
	c-0.788-0.631-1.577-1.26-2.353-1.89c-2.217-1.827-4.409-3.657-6.572-5.54c-0.227-0.197-0.474-0.394-0.72-0.604
	c-2.34-2.054-4.639-4.165-6.911-6.284c-0.66-0.63-1.3-1.239-1.946-1.869c-1.683-1.604-3.339-3.214-4.964-4.871
	c-0.653-0.65-1.306-1.29-1.947-1.939c-2.069-2.12-4.102-4.268-6.093-6.444c-0.098-0.108-0.203-0.206-0.3-0.319
	c-2.106-2.302-4.164-4.658-6.179-7.033c-0.547-0.654-1.077-1.278-1.619-1.918c-1.503-1.816-2.993-3.648-4.447-5.502
	c-0.546-0.66-1.091-1.347-1.63-2.026c-1.752-2.276-3.462-4.542-5.138-6.843C42.605,224.586,25.96,137.422,62.99,65.839
	L30.166,107.473z M160.711,56.549c-30.414,43.767-28.763,102.355-5.038,148.644c3.979,7.76,8.451,15.286,13.452,22.456
	c4.558,6.53,9.608,14.301,15.656,19.548c2.193,2.415,4.484,4.771,6.824,7.088c0.593,0.601,1.195,1.184,1.799,1.772
	c2.271,2.201,4.583,4.369,6.972,6.476c0.099,0.077,0.186,0.175,0.284,0.247c0.025,0.025,0.049,0.035,0.067,0.066
	c2.643,2.316,5.37,4.547,8.143,6.733c0.616,0.47,1.227,0.965,1.847,1.444c2.779,2.132,5.613,4.227,8.519,6.219
	c0.087,0.062,0.159,0.124,0.247,0.189c1.28,0.889,2.587,1.709,3.885,2.561c0.623,0.406,1.215,0.841,1.843,1.217
	c2.074,1.332,4.176,2.627,6.312,3.87c0.303,0.187,0.598,0.346,0.894,0.517c1.841,1.059,3.708,2.105,5.581,3.116
	c0.653,0.366,1.318,0.69,1.982,1.037c1.295,0.677,2.587,1.368,3.905,2.022c0.193,0.094,0.4,0.182,0.589,0.264
	c2.681,1.32,5.388,2.591,8.146,3.793c0.588,0.263,1.198,0.495,1.799,0.742c2.205,0.935,4.435,1.853,6.674,2.709
	c0.949,0.361,1.908,0.701,2.859,1.048c2.031,0.753,4.072,1.444,6.129,2.137c0.93,0.294,1.84,0.599,2.771,0.888
	c2.926,0.902,5.814,2.054,8.861,2.56C438.75,331.927,475,211.021,475,211.021c-32.682,47.069-95.967,69.524-163.502,51.998
	c-3-0.791-5.957-1.646-8.894-2.576c-0.899-0.269-1.783-0.566-2.674-0.86c-2.089-0.676-4.164-1.394-6.22-2.142
	c-0.944-0.348-1.887-0.691-2.811-1.049c-2.255-0.865-4.484-1.765-6.697-2.697c-0.603-0.26-1.211-0.495-1.804-0.764
	c-2.771-1.207-5.501-2.478-8.19-3.81c-1.387-0.677-2.746-1.394-4.11-2.095c-0.786-0.405-1.581-0.811-2.367-1.219
	c-1.75-0.949-3.485-1.935-5.198-2.931c-0.408-0.237-0.834-0.457-1.244-0.701c-2.125-1.247-4.221-2.528-6.295-3.845
	c-0.641-0.407-1.257-0.852-1.896-1.27c-1.367-0.888-2.734-1.785-4.079-2.699c-2.895-1.996-5.709-4.089-8.489-6.208
	c-0.638-0.504-1.279-0.997-1.907-1.501c-29.561-23.342-52.994-55.237-64.136-91.404c-11.674-37.508-9.157-79.613,11.07-113.782
	L160.711,56.549z M270.508,18.5c-17.928,26.386-19.689,59.156-7.248,88.297c13.119,30.933,40.004,55.199,71.379,66.702
	c1.293,0.482,2.588,0.912,3.898,1.354c0.574,0.175,1.141,0.373,1.719,0.543c1.848,0.581,3.686,1.256,5.594,1.617
	c86.709,16.753,110.229-44.497,116.486-53.512c-20.602,29.663-55.223,36.783-97.701,26.476c-3.354-0.818-7.045-2.03-10.279-3.176
	c-4.148-1.479-8.234-3.163-12.205-5.071c-7.545-3.624-14.732-8.021-21.398-13.057C282.741,99.83,259.125,44.809,283.931,0
	L270.508,18.5z"/>
</svg>
