<?xml version="1.0" encoding="utf-8"?>
<!-- Generator: Adobe Illustrator 16.2.1, SVG Export Plug-In . SVG Version: 6.00 Build 0)  -->
<!DOCTYPE svg PUBLIC "-//W3C//DTD SVG 1.1//EN" "http://www.w3.org/Graphics/SVG/1.1/DTD/svg11.dtd">
<svg version="1.1" id="Layer_1" xmlns="http://www.w3.org/2000/svg" xmlns:xlink="http://www.w3.org/1999/xlink" x="0px" y="0px"
	 width="786.538px" height="221.575px" viewBox="0 0 786.538 221.575" enable-background="new 0 0 786.538 221.575"
	 xml:space="preserve">
<path d="M409.341,35.562h-28.786c-1.599,0-3.183,1.281-3.522,2.841l-10.221,47.28l-10.221,47.282
	c-0.336,1.56-1.922,2.838-3.519,2.838h-17.467h-2.908c-20.157,0-17.827-13.943-13.697-33.045c0.04-0.192,0.082-0.38,0.123-0.577
	l0.452-2.408c0.028-0.155,0.061-0.312,0.086-0.453l0.92-4.9l0.984-5.255c0.299-1.583,0.754-3.899,1.052-5.354l4.645-22.699
	l4.65-22.699c0.323-1.565-0.728-2.852-2.325-2.852h-29.546c-1.595,0-3.178,1.286-3.504,2.849l-6.353,30.141l-6.352,30.138
	c-0.006,0.014-0.009,0.032-0.01,0.045l-0.59,2.803c-7.319,33.407-5.378,65.267,34.393,66.265c0.65,0.018,1.153,0.023,1.153,0.023
	h62.427c1.599,0,3.18-1.284,3.513-2.847l13.462-63.282l13.463-63.285C411.975,36.845,410.938,35.563,409.341,35.562L409.341,35.562z
	 M101.028,35.229H69.415c-1.599,0-3.195,1.277-3.551,2.833l-2.999,13.231l-2.997,13.234c-0.352,1.557,0.666,2.833,2.266,2.833
	h31.858c1.597,0,3.185-1.276,3.528-2.837l2.897-13.229l2.897-13.224v-0.003c0.34-1.56-0.687-2.836-2.287-2.836v-0.003H101.028z
	 M91.861,76.4H60c-1.598,0-3.195,1.277-3.548,2.837l-4.475,19.822l-4.472,19.823c-0.352,1.56-0.915,4.119-1.247,5.682l-4.3,20.235
	l-4.298,20.232c-0.334,1.56-1.02,4.081-1.533,5.596c0,0-5.951,17.711-15.959,17.511c-0.426-0.01-0.839-0.014-1.249-0.022
	c-4.849-0.092-8.659-0.159-8.659-0.159h-0.007c-1.595-0.023-3.199,1.221-3.572,2.772l-3.304,13.891l-3.299,13.884
	c-0.372,1.552,0.631,2.835,2.218,2.861c5.676,0.067,18.385,0.211,26.08,0.211c24.995,0,38.172-13.849,46.619-53.699l9.885-45.739
	l9.273-42.896c0.336-1.562-0.696-2.839-2.293-2.839L91.861,76.4z M676.292,68.513l-75.545,0.036
	c-1.596,0.005-3.171,1.277-3.509,2.834l-4.572,21.418l-5.178,24.25l-0.569,2.81c-0.004,0.017-0.005,0.033-0.008,0.043l-4.272,21.107
	l-4.268,21.11c-0.004,0.017-0.008,0.038-0.011,0.054c0.003-0.017,0.009-0.037,0.013-0.054l-0.575,2.847
	c-0.314,1.57-1.886,2.853-3.482,2.853h-2.91c0.002,0,0.004,0,0.008,0c-0.004,0-0.008,0-0.01,0h-26.927
	c-1.597,0-2.635-1.281-2.299-2.847l11.982-56.133l-7.31,34.247l19.299-90.383l-0.029,0.151l0.033-0.15l0.387-1.84l1.391-6.568
	l1.175-5.562h0.003c0.329-1.564,1.911-2.842,3.507-2.842h24.584h2.03l23.65,0.028l25.683,0.027c16.496,0,24.094,5.803,26.68,15.856
	l0.662,2.829l1.307,5.587l1.321,5.456h0.001C678.895,67.241,677.887,68.509,676.292,68.513z M775.784,16.354
	c-1.601,0.012-4.216,0.021-5.816,0.021h-24.179c-1.6,0-3.649,1.08-4.549,2.399l-53.47,78.334c-0.901,1.322-1.934,1.125-2.288-0.431
	l-3.935-17.258c-0.353-1.562-1.955-2.833-3.554-2.833h-34.373c-1.602,0-2.546,1.254-2.109,2.792l15.401,53.958
	c0.438,1.538,0.472,4.063,0.077,5.613l-6.716,26.113c-0.396,1.552,0.587,2.819,2.187,2.819h33.973c1.597,0,3.231-1.269,3.626-2.819
	l6.718-26.113c0.396-1.55,1.509-3.862,2.471-5.141l86.805-115.211c0.966-1.276,0.443-2.314-1.155-2.305L775.784,16.354
	L775.784,16.354z M502.694,83.933l-0.002-0.033c-0.202,1.735-1.801,3.008-3.398,3.008h-43.58c-1.507,0-2.271-1.025-2.05-2.288
	c0.014-0.038,0.019-0.069,0.042-0.103c0,0-0.016,0.005-0.026,0.016c0.011-0.053,0.011-0.098,0.022-0.147c0,0,0.08-0.307,0.198-0.742
	c4.162-11.065,12.641-18.329,28.574-18.329c17.938,0,21.438,8.765,20.222,18.617L502.694,83.933z M489.908,33.629
	c-55.938,0-69.192,33.954-76.63,68.223c-7.438,34.93-6.797,67.588,51.088,67.588h2.054c0.184-0.004,0.371-0.004,0.554-0.004h1.621
	h0.594h1.521c0.226-0.004,0.45-0.004,0.678-0.004c0.577,0,1.16-0.004,1.744-0.004h0.409c2.291-0.003,4.616-0.014,6.943-0.021h0.116
	c15.289-0.062,30.619-0.178,36.831-0.227c1.588-0.022,3.144-1.305,3.471-2.854l2.343-11.453l0.453-2.231l2.799-13.66
	c0.319-1.565-0.727-2.848-2.326-2.848h-52.039c-20.697,0-26.844-5.499-24.58-21.67h83.189l-0.008,0.01
	c0.021,0,0.038-0.01,0.057-0.01c1.324-0.022,2.545-0.936,3.03-2.146c0.091-0.231,0.171-0.476,0.202-0.728l-0.01,0.01
	c12.354-46.591,8.811-77.967-44.106-77.967L489.908,33.629z M225.52,83.754l-0.787,2.787c0,0.009-0.001,0.009-0.001,0.009
	l-6.282,22.261l-6.279,22.257c-0.435,1.538-2.096,2.796-3.698,2.796h-33.248c-25.218,0-31.359-19.725-25.218-48.816
	c6.139-29.757,18.179-48.256,42.999-50.128C226.922,32.36,233.709,56.217,225.52,83.754L225.52,83.754z M248.319,132.152
	c0,0,15.674-38.06,19.235-60.044C272.41,42.679,257.675,0,200.765,0c-56.589,0-81.161,40.748-90.537,85.045
	c-9.375,44.616,2.908,83.747,59.174,83.425l44.389-0.165l41.486-0.147c1.598-0.017,3.231-1.282,3.639-2.825l7.227-27.566
	c0.402-1.548-0.575-2.817-2.171-2.828l-6.927-0.041l-6.924-0.042c-1.36-0.01-2.136-0.888-1.971-2.056
	C248.179,132.59,248.227,132.374,248.319,132.152L248.319,132.152z"/>
</svg>
