<?xml version="1.0" encoding="utf-8"?>
<!-- Generator: Adobe Illustrator 16.2.1, SVG Export Plug-In . SVG Version: 6.00 Build 0)  -->
<!DOCTYPE svg PUBLIC "-//W3C//DTD SVG 1.1//EN" "http://www.w3.org/Graphics/SVG/1.1/DTD/svg11.dtd">
<svg version="1.1" id="Layer_1" xmlns="http://www.w3.org/2000/svg" xmlns:xlink="http://www.w3.org/1999/xlink" x="0px" y="0px"
	 width="658.707px" height="249.58px" viewBox="0 0 658.707 249.58" enable-background="new 0 0 658.707 249.58"
	 xml:space="preserve">
<path d="M519.531,104.35c0,19.807-0.488,39.039,0.158,58.229c0.501,14.867,0.461,29.732,0.826,44.594
	c0.128,5.229-2.399,6.87-7.362,6.812c-15.291-0.18-30.588-0.211-45.877,0.021c-5.562,0.085-7.17-1.995-7.011-7.471
	c1.08-37.251,3.519-74.477,2.775-111.764c-0.521-26.162-1.632-52.313-2.377-78.473c-0.229-8.108,0.348-8.814,8.278-8.906
	c12.397-0.142,24.659-1.368,36.787-3.828c5.2-1.053,8.44,0.714,11.597,5.046c25.144,34.545,50.54,68.905,75.862,103.316
	c0.745,1.012,1.506,2.016,2.312,2.979c0.945,1.132,1.997,2.416,3.632,1.982c1.975-0.527,2.223-2.366,2.226-4.066
	c0.01-8.588,0.178-17.186-0.125-25.763c-0.625-17.778-1.493-35.55-2.302-53.324c-0.285-6.269-0.72-12.532-1.033-18.802
	c-0.243-4.893,2.13-7.448,7.039-7.595c15.696-0.475,31.394-0.894,47.086-1.433c5.36-0.185,6.857,2.568,6.669,7.437
	c-0.592,15.271-0.579,30.578-1.574,45.821c-1.218,18.633-0.89,37.266-1.006,55.898c-0.186,29.744-0.052,59.494-0.065,89.241
	c-0.005,8.992-0.073,8.646-8.821,9.87c-13.021,1.822-25.921-0.242-38.873-0.433c-4.889-0.07-7.298-3.509-9.851-6.882
	c-24.649-32.564-49.312-65.121-73.99-97.663C523.268,107.561,522.324,105.601,519.531,104.35z M228.282,109.495
	c0.274,56.109,37.513,109.812,105.542,109.999c64.786,0.178,105.357-48.903,105.905-109.41
	C440.283,48.977,393.494,0.787,334.552,0.687C274.687,0.587,227.982,48.131,228.282,109.495z M288.244,128.689
	c-5.143-17.865-3.194-34.813,7.475-50.392c11.789-17.214,29.894-24.458,49.673-19.907c18.119,4.17,32.969,20.483,35.984,39.534
	c3.954,24.973-5.479,47.523-24.597,58.782c-7.014,4.131-14.566,6.278-22.729,6.194C312.018,162.878,294.32,149.8,288.244,128.689z
	 M183.188,51.078c6.779-3.675,14.135-5.095,21.856-3.955c2.087,0.309,4.322,1,5.86-0.92c1.582-1.977,0.375-4.038-0.648-5.845
	c-6.519-11.51-11.98-23.499-16.394-35.966c-1.115-3.15-2.935-4.818-6.578-4.297c-18.744,2.679-36.374,8.368-51.547,20.003
	c-29.269,22.442-32.549,58.657-8.118,86.502c6.753,7.696,14.441,14.629,19.348,23.84c6.833,12.824,2.799,26.297-10.015,33.099
	c-8.24,4.374-17.184,6.569-26.272,8.212c-5.23,0.943-6.601,3.301-4.338,8.32c5.606,12.438,12.114,24.359,19.221,35.99
	c2.935,4.805,6.601,6.176,12.115,5.017c19.239-4.042,36.266-12.288,51.603-24.656c23.733-19.14,35.499-59.235,9.9-88.971
	c-7.229-8.398-14.461-16.858-20.521-26.202c-2.758-4.252-5.097-8.674-5.282-13.911C173.067,59.753,176.872,54.501,183.188,51.078z
	 M86.675,13.667c0.225-5.369-1.842-7.524-7.425-7.213c-16.525,0.922-33.069,0.917-49.603-0.05c-6.111-0.357-7.465,1.152-6.948,7.121
	c4.13,47.578,6.718,95.213,4.087,142.971c-1.062,19.281-6.493,36.732-23.477,48.436c-4.413,3.041-4.314,6.098-0.291,9.519
	c10.861,9.237,21.074,19.12,30.299,30.042c5.642,6.682,7.547,6.684,13.608,0.587c21.079-21.207,33.888-46.529,37.287-76.37
	c2.23-19.595,1.866-39.236,1.451-58.931c-0.569-27.002-0.637-54.033,0.965-79.811C86.63,23.719,86.464,18.686,86.675,13.667z"/>
</svg>
