<?xml version="1.0" encoding="utf-8"?>
<!-- Generator: Adobe Illustrator 16.2.1, SVG Export Plug-In . SVG Version: 6.00 Build 0)  -->
<!DOCTYPE svg PUBLIC "-//W3C//DTD SVG 1.1//EN" "http://www.w3.org/Graphics/SVG/1.1/DTD/svg11.dtd">
<svg version="1.1" id="Layer_1" xmlns="http://www.w3.org/2000/svg" xmlns:xlink="http://www.w3.org/1999/xlink" x="0px" y="0px"
	 width="452.998px" height="400.456px" viewBox="0 0 452.998 400.456" enable-background="new 0 0 452.998 400.456"
	 xml:space="preserve">
<path d="M193.291,184.541c-15.744,39.085-31.096,77.273-46.521,115.438c-3.859,9.549-7.749,19.106-13.953,27.485
	c-6.464,8.729-14.696,14.204-25.881,14.878c-23.223,1.403-35.772-13.811-28.851-36.145c9.056-29.221,22.231-56.883,33.458-85.283
	c14.762-37.345,29.666-74.633,44.522-111.942c5.547-13.929,5.028-27.019-5.967-38.212c-11.211-11.416-24.793-13.821-39.928-9.588
	c-28.273,7.904-51.537,41.63-48.896,70.235c1.336,14.494,8.778,24.19,21.266,30.602c3.044,1.562,6.238,2.903,9.48,3.995
	c9.89,3.333,16.9,9.107,17.717,20.274c0.893,12.236-4.572,21.328-14.629,27.625c-14.928,9.34-30.591,7.094-45.507,0.638
	c-30.36-13.14-46.105-38.043-49.042-69.817C-7.254,60.202,68.045-11.025,151.816,1.418c42.761,6.354,85.002,43.14,70.386,105.917
	c-3.659,15.71-10.016,30.458-15.6,46.167c4.51-0.847,6.056-4.103,8.22-6.366c37.799-39.593,75.501-79.276,113.263-118.902
	c6.641-6.969,13.094-14.169,21.37-19.342c13.331-8.329,29.515-7.344,39.041,2.375c9.372,9.56,9.941,24.496,1.274,38.036
	c-5.035,7.868-11.591,14.496-18.031,21.187c-34.858,36.211-69.647,72.49-104.718,108.495c-4.826,4.955-6.426,8.971-3.812,15.879
	c15.802,41.736,31.028,83.691,46.568,125.527c6.641,17.879,12.288,21.938,31.354,22.133c23.062,0.234,46.133,0.072,69.197,0.078
	c3.445,0,6.888-0.025,10.33,0.01c19.542,0.201,29.941,6.531,31.967,19.428c2.502,15.938-7.874,31.96-24.377,37.362
	c-3.246,1.062-10.07,1.055-10.07,1.055s-70.435-0.192-112.479,0c-20.302-1.551-34.161-11.925-41.414-30.59
	c-13.923-35.826-27.419-71.819-40.978-107.787c-9.08-24.09-17.949-48.263-26.973-72.372
	C195.767,188.181,194.676,186.854,193.291,184.541z"/>
</svg>
