<?xml version="1.0" encoding="utf-8"?>
<!-- Generator: Adobe Illustrator 16.2.1, SVG Export Plug-In . SVG Version: 6.00 Build 0)  -->
<!DOCTYPE svg PUBLIC "-//W3C//DTD SVG 1.1//EN" "http://www.w3.org/Graphics/SVG/1.1/DTD/svg11.dtd">
<svg version="1.1" id="Layer_1" xmlns="http://www.w3.org/2000/svg" xmlns:xlink="http://www.w3.org/1999/xlink" x="0px" y="0px"
	 width="893.002px" height="210.706px" viewBox="0 0 893.002 210.706" enable-background="new 0 0 893.002 210.706"
	 xml:space="preserve">
<path d="M96.706,101.884c-7.876,19.553-15.557,38.66-23.274,57.754c-1.931,4.775-3.876,9.559-6.98,13.75
	c-3.235,4.367-7.352,7.105-12.949,7.441c-11.618,0.702-17.896-6.908-14.435-18.083c4.531-14.617,11.123-28.456,16.74-42.666
	c7.386-18.683,14.841-37.338,22.274-56.003c2.775-6.97,2.516-13.519-2.985-19.119c-5.609-5.712-12.404-6.915-19.976-4.798
	c-14.146,3.955-25.785,20.828-24.463,35.139c0.669,7.25,4.392,12.104,10.639,15.31c1.523,0.782,3.121,1.452,4.743,2
	c4.948,1.667,8.455,4.557,8.864,10.143c0.447,6.122-2.288,10.669-7.319,13.82c-7.468,4.672-15.305,3.549-22.768,0.318
	C9.626,110.316,1.75,97.86,0.279,81.961c-3.908-42.285,33.764-77.92,75.675-71.695c21.394,3.178,42.527,21.583,35.214,52.99
	c-1.831,7.861-5.01,15.239-7.805,23.098c2.257-0.424,3.03-2.053,4.113-3.186c18.911-19.808,37.772-39.662,56.666-59.486
	c3.322-3.487,6.551-7.089,10.693-9.678c6.668-4.167,14.765-3.675,19.531,1.189c4.688,4.782,4.974,12.254,0.638,19.029
	c-2.519,3.937-5.799,7.252-9.022,10.599c-17.44,18.116-34.845,36.268-52.391,54.28c-2.416,2.479-3.215,4.489-1.907,7.944
	c7.906,20.88,15.523,41.872,23.297,62.802c3.323,8.943,6.149,10.975,15.688,11.071c11.538,0.118,659.843,0.037,671.382,0.039
	c1.726,0,3.445-0.013,5.17,0.005c9.775,0.102,14.979,3.27,15.992,9.719c1.25,7.976-3.938,15.99-12.195,18.694
	c-1.625,0.531-3.354,1.04-5.041,1.04c-18.758,0-674.288,0.918-693.036-0.512c-10.157-0.776-17.091-5.967-20.72-15.305
	c-6.965-17.925-13.718-35.933-20.501-53.929c-4.543-12.053-8.98-24.146-13.495-36.207C97.943,103.706,97.397,103.042,96.706,101.884
	z M518.599,90.394c3.582-8.816,7.172-17.629,10.744-26.452c6.39-15.795,12.812-31.578,19.117-47.405
	c1.98-4.97,1.809-9.796-2.58-13.562c-4.397-3.773-9.387-3.64-14.365-1.366c-5.428,2.478-8.354,7.208-10.504,12.506
	c-11.973,29.513-23.964,59.021-35.894,88.554c-5.01,12.398-10.057,24.789-14.763,37.304c-2.712,7.219,0.829,14.008,7.7,15.215
	c6.054,1.063,11.398-0.508,15.33-5.617c2.958-3.842,4.706-8.297,6.504-12.728c3.672-9.052,7.34-18.104,11.261-27.774
	c1.354,1.904,2.286,3.15,3.149,4.445c7.974,11.939,15.955,23.875,23.881,35.848c1.949,2.942,4.287,5.115,8.021,5.289
	c5.678,0.267,9.83-2.381,12.801-6.953c2.846-4.387,2.217-8.713-0.584-12.983c-3.85-5.864-7.57-11.815-11.307-17.755
	c-2.203-3.504-6.347-7.293-5.961-10.52c0.424-3.579,6.043-5.393,9.34-8.048c4.471-3.599,9.469-6.568,13.356-10.855
	c4.4-4.853,4.943-11.765,1.449-16.247c-3.508-4.5-9.451-5.378-15.615-2.069c-2.516,1.35-4.852,3.063-7.172,4.749
	c-7.725,5.621-15.406,11.303-23.106,16.961C519.138,90.75,518.866,90.573,518.599,90.394z M247.602,153.441
	c-4.309,0.01-8.623,0.141-12.926-0.018c-12.407-0.454-18.896-9.688-14.681-21.273c3.318-9.115,7.167-18.039,10.783-27.044
	c0.297-0.74,0.688-1.448,0.921-2.205c1.113-3.611,3.03-7.336-0.639-10.604c-3.043-2.713-8.367-2.885-12.542-0.161
	c-6.117,3.989-9.639,10.067-12.353,16.62c-4.2,10.145-8.211,20.368-12.405,30.516c-1.212,2.932-2.526,5.877-4.232,8.539
	c-2.981,4.649-7.156,7.604-12.952,7.805c-9.299,0.32-14.859-6.65-11.553-15.387c5.688-15.024,11.885-29.858,17.895-44.765
	c2.44-6.05,4.771-12.153,7.471-18.086c5.305-11.662,17.061-13.434,25.496-3.811c1.866,2.13,2.679,0.466,3.765-0.351
	c8.077-6.079,16.963-8.68,26.964-6.24c13.668,3.333,20.524,14.494,16.246,27.95c-3.221,10.128-7.643,19.891-11.829,29.686
	c-1.508,3.531-0.819,4.311,2.847,4.229c4.766-0.105,9.567-0.518,14.322,0.37c7.76,1.451,11.135,7.752,7.809,14.965
	c-2.824,6.126-8.041,8.877-14.53,9.218C256.866,153.632,252.228,153.438,247.602,153.441z M429.635,153.469
	c-4.47,0.001-8.94,0.006-13.411,0.001c-20.108-0.012-32.141-10.028-34.64-30.047c-3.801-30.451,21.723-59.609,52.107-57.159
	c17.979,1.45,29.749,17.135,24.882,33.73c-2.166,7.38-7.695,11.729-14.548,11.444c-5.662-0.235-9.161-3.691-9.417-9.312
	c-0.037-0.797-0.015-1.598-0.02-2.394c-0.069-9.343-5.228-12.539-13.734-8.508c-9.73,4.609-15.763,19.442-11.995,29.47
	c1.457,3.879,4,6.233,8.266,7.017c6.979,1.281,13.992,0.949,21.003,1.051c5.425,0.078,10.898-0.296,16.26,0.312
	c9.561,1.082,13.078,9.581,7.492,17.511c-3.271,4.637-8.036,6.566-13.567,6.861c-0.317,0.019-0.638,0.021-0.956,0.021
	C441.449,153.469,435.542,153.468,429.635,153.469z M662.659,107.389c-1.488,15.852-7.135,26.154-19.998,36.112
	c-8.58,6.642-19.834,9.706-29.902,9.81c-1.594,0-3.188,0.02-4.785-0.004c-19.254-0.285-30.295-9.828-33.561-29.009
	C568.741,91,603.251,58.979,635.944,67.202C654.185,71.792,664.587,86.873,662.659,107.389z M636.21,105.769
	c0.281-12.396-8.539-18.6-18.928-14.65c-10.806,4.11-18.478,18.571-15.728,29.698c0.588,2.391,1.828,4.341,3.941,5.748
	c6.449,4.299,18.154,2.899,23.211-2.965C633.431,118.121,635.903,111.689,636.21,105.769z M854.456,86.288
	c-3.773,4.49-8.805,5.894-14.543,5.837c-9.25-0.09-9.234,0.04-12.719,8.675c-3.22,7.974-6.345,15.989-9.787,23.868
	c-1.467,3.36-0.599,4.074,2.766,4.024c4.611-0.063,9.252-0.481,13.848,0.468c6.783,1.399,9.904,6.497,7.974,13.135
	c-1.791,6.146-7.56,10.7-14.773,10.924c-8.614,0.271-17.26,0.362-25.864-0.043c-13.275-0.624-19.41-10.043-14.646-22.491
	c4.889-12.775,10.225-25.377,15.43-38.221c-0.793-0.267-0.938-0.352-1.098-0.364c-8.973-0.7-12.717-3.456-13.047-9.614
	c-0.346-6.481,5.297-13.096,12.363-14.417c1.563-0.292,3.245-0.784,4.739-0.495c5.984,1.156,8.472-1.888,10.086-7.134
	c1.398-4.538,3.4-8.95,5.625-13.158c3.25-6.146,8.072-10.267,15.582-9.968c7.162,0.285,11.709,5.888,10.513,12.947
	c-0.838,4.937-2.931,9.417-5.152,13.829c-1.354,2.69-0.709,3.739,2.289,3.454c0.943-0.091,1.912,0.053,2.869,0.099
	c4.348,0.207,8.344,1.182,10.137,5.747C858.923,78.176,857.632,82.509,854.456,86.288z M776.903,143.011
	c-1.938,5.882-7.695,9.98-14.756,10.263c-4.144,0.164-8.3,0.031-12.449,0.031c0,0.01,0,0.021,0,0.033
	c-3.354,0-6.713-0.132-10.06,0.031c-4.959,0.245-9.198-1.12-12.141-5.254c-1.176-1.652-1.916-1.647-3.287-0.32
	c-4.666,4.518-10.41,5.896-16.729,5.55c-6.039-0.331-12.144,0.739-18.128-0.618c-14.146-3.205-21.045-14.504-16.86-28.369
	c3.822-12.662,9.774-24.534,14.612-36.824c1.806-4.586,3.539-9.223,6.199-13.422c3.189-5.025,7.406-8.215,13.699-8.082
	c8.301,0.178,13.256,6.566,10.811,14.581c-3.114,10.222-7.971,19.779-11.832,29.72c-1.381,3.559-2.778,7.115-3.95,10.746
	c-1.466,4.533,0.104,6.906,4.823,7.732c7.998,1.398,15.988-3.076,19.498-11.354c4.601-10.845,8.896-21.813,13.357-32.715
	c1.568-3.833,3.16-7.669,5.715-10.992c2.416-3.144,5.426-5.298,9.488-5.852c11.062-1.508,17.375,5.935,13.414,16.405
	c-4.785,12.652-10.066,25.116-15.142,37.66c-2.696,6.669-2.7,6.634,4.375,6.683c3.664,0.024,7.382-0.17,10.98,0.366
	C776.081,130.136,779.288,135.759,776.903,143.011z M876.69,126.126c-9.011,0-16.312,7.304-16.312,16.313
	c0,9.008,7.303,16.311,16.312,16.311c9.009,0,16.312-7.303,16.312-16.311C893.003,133.428,885.7,126.126,876.69,126.126z
	 M373.716,107.389c-1.49,15.852-7.137,26.154-20,36.112c-8.58,6.642-19.833,9.706-29.901,9.81c-1.596,0-3.191,0.02-4.785-0.004
	c-19.255-0.285-30.294-9.828-33.562-29.009C279.797,91,314.305,58.979,347,67.202C365.242,71.792,375.644,86.873,373.716,107.389z
	 M347.266,105.769c0.283-12.396-8.54-18.6-18.928-14.65c-10.805,4.11-18.477,18.571-15.726,29.698
	c0.589,2.391,1.828,4.341,3.941,5.748c6.45,4.299,18.154,2.899,23.21-2.965C344.488,118.121,346.96,111.689,347.266,105.769z"/>
</svg>
