<?xml version="1.0" encoding="utf-8"?>
<!-- Generator: Adobe Illustrator 16.2.1, SVG Export Plug-In . SVG Version: 6.00 Build 0)  -->
<!DOCTYPE svg PUBLIC "-//W3C//DTD SVG 1.1//EN" "http://www.w3.org/Graphics/SVG/1.1/DTD/svg11.dtd">
<svg version="1.1" id="Layer_1" xmlns="http://www.w3.org/2000/svg" xmlns:xlink="http://www.w3.org/1999/xlink" x="0px" y="0px"
	 width="743.003px" height="173.337px" viewBox="0 0 743.003 173.337" enable-background="new 0 0 743.003 173.337"
	 xml:space="preserve">
<path fill="#010101" d="M0,0h52.62l39.763,116.907h0.476L130.477,0h52.621v170.003h-35V49.524h-0.477l-41.667,120.479h-28.81
	L35.476,50.715h-0.477v119.288H0V0z M231.003,116.668c0.477,10.797,3.251,18.691,8.333,23.691c5.078,5,12.382,7.5,21.905,7.5
	c6.824,0,12.698-1.704,17.619-5.119c4.918-3.412,7.936-7.023,9.048-10.833h29.762c-4.762,14.604-12.063,25.159-21.905,31.667
	c-9.844,6.507-21.749,9.763-35.715,9.763c-9.683,0-18.415-1.589-26.19-4.763c-7.78-3.174-14.368-7.619-19.763-13.333
	c-5.397-5.714-9.564-12.537-12.5-20.478c-2.94-7.936-4.405-16.666-4.405-26.189c0-9.205,1.507-17.776,4.524-25.715
	c3.013-7.936,7.298-14.799,12.856-20.596c5.555-5.792,12.18-10.357,19.882-13.69c7.697-3.333,16.227-5,25.595-5
	c10.477,0,19.602,2.024,27.382,6.072c7.774,4.048,14.166,9.486,19.167,16.31c5,6.826,8.608,14.606,10.834,23.333
	c2.222,8.731,3.015,17.854,2.381,27.381L231.003,116.668L231.003,116.668z M286.003,95.238c-1.588-8.57-4.404-15.077-8.452-19.523
	c-4.047-4.441-10.201-6.666-18.453-6.666c-5.398,0-9.881,0.915-13.452,2.738c-3.572,1.826-6.429,4.088-8.572,6.786
	c-2.143,2.701-3.653,5.557-4.523,8.571c-0.875,3.018-1.392,5.713-1.548,8.095L286.003,95.238L286.003,95.238z M371.574,46.906
	h24.763v22.618h-24.763v60.955c0,5.715,0.953,9.524,2.858,11.43c1.903,1.904,5.712,2.855,11.428,2.855
	c3.811,0,7.3-0.315,10.479-0.949v26.428c-2.858,0.476-6.035,0.792-9.523,0.953c-3.493,0.154-6.905,0.236-10.238,0.236
	c-5.238,0-10.202-0.356-14.881-1.072c-4.685-0.715-8.811-2.143-12.38-4.284c-3.572-2.144-6.393-5.121-8.454-8.929
	c-2.064-3.812-3.096-8.811-3.096-15V69.524H317.29V46.906h20.477V10h33.811L371.574,46.906L371.574,46.906z M429.526,116.668
	c0.477,10.797,3.249,18.691,8.333,23.691c5.076,5,12.38,7.5,21.904,7.5c6.821,0,12.696-1.704,17.618-5.119
	c4.918-3.412,7.937-7.023,9.047-10.833h29.765c-4.762,14.604-12.064,25.159-21.904,31.667c-9.846,6.507-21.75,9.763-35.715,9.763
	c-9.685,0-18.416-1.589-26.189-4.763c-7.779-3.174-14.368-7.619-19.765-13.333c-5.397-5.714-9.565-12.537-12.5-20.478
	c-2.938-7.936-4.405-16.666-4.405-26.189c0-9.205,1.508-17.776,4.525-25.715c3.014-7.936,7.299-14.799,12.856-20.596
	c5.557-5.792,12.181-10.357,19.882-13.69c7.696-3.333,16.229-5,25.596-5c10.476,0,19.603,2.024,27.382,6.072
	c7.774,4.048,14.167,9.486,19.166,16.31c5.002,6.826,8.607,14.606,10.834,23.333c2.222,8.731,3.015,17.854,2.381,27.381
	L429.526,116.668L429.526,116.668z M484.525,95.238c-1.589-8.57-4.403-15.077-8.453-19.523c-4.048-4.441-10.2-6.666-18.45-6.666
	c-5.399,0-9.882,0.915-13.455,2.738c-3.569,1.826-6.428,4.088-8.571,6.786c-2.143,2.701-3.65,5.557-4.521,8.571
	c-0.874,3.018-1.393,5.713-1.547,8.095L484.525,95.238L484.525,95.238z M524.334,108.573c0-9.841,1.506-18.771,4.523-26.787
	c3.015-8.013,7.3-14.839,12.855-20.476c5.557-5.633,12.222-10,20.001-13.096c7.776-3.094,16.507-4.643,26.191-4.643
	c9.681,0,18.452,1.548,26.309,4.643c7.857,3.097,14.562,7.463,20.121,13.096c5.553,5.636,9.84,12.463,12.854,20.476
	c3.017,8.017,4.525,16.946,4.525,26.787c0,9.845-1.51,18.731-4.525,26.666c-3.016,7.938-7.303,14.727-12.854,20.356
	c-5.56,5.637-12.264,10.002-20.121,13.096c-7.855,3.096-16.628,4.646-26.309,4.646c-9.685,0-18.414-1.549-26.191-4.646
	c-7.779-3.094-14.444-7.461-20.001-13.096c-5.556-5.631-9.842-12.419-12.855-20.356
	C525.841,127.305,524.334,118.418,524.334,108.573z M558.144,108.573c0,4.922,0.478,9.725,1.43,14.405
	c0.953,4.685,2.578,8.891,4.881,12.617c2.301,3.731,5.355,6.707,9.166,8.93c3.81,2.226,8.573,3.334,14.287,3.334
	c5.713,0,10.514-1.108,14.402-3.334c3.89-2.221,6.985-5.197,9.286-8.93c2.299-3.728,3.931-7.935,4.883-12.617
	c0.95-4.682,1.429-9.483,1.429-14.405c0-4.919-0.479-9.763-1.429-14.524c-0.952-4.762-2.584-8.965-4.883-12.62
	c-2.301-3.649-5.396-6.625-9.286-8.929c-3.89-2.298-8.689-3.451-14.402-3.451c-5.714,0-10.479,1.153-14.287,3.451
	c-3.811,2.305-6.865,5.28-9.166,8.929c-2.304,3.654-3.928,7.858-4.881,12.62S558.144,103.654,558.144,108.573z M663.713,46.906
	h32.146v22.856h0.476c1.585-3.808,3.729-7.339,6.428-10.593c2.698-3.252,5.794-6.032,9.287-8.335
	c3.489-2.299,7.261-4.083,11.311-5.357c4.046-1.268,8.132-1.904,12.263-1.904c2.536,0,4.999,0.399,7.38,1.191v31.429
	c-1.589-0.317-3.493-0.596-5.713-0.834c-2.224-0.238-4.367-0.357-6.43-0.357c-6.189,0-11.428,1.034-15.714,3.096
	c-4.285,2.064-7.737,4.881-10.355,8.451c-2.62,3.573-4.487,7.781-5.598,12.62c-1.111,4.845-1.664,9.963-1.664,15.356v55.479h-33.812
	V46.906H663.713z"/>
</svg>
