<?xml version="1.0" encoding="utf-8"?>
<!-- Generator: Adobe Illustrator 16.2.1, SVG Export Plug-In . SVG Version: 6.00 Build 0)  -->
<!DOCTYPE svg PUBLIC "-//W3C//DTD SVG 1.1//EN" "http://www.w3.org/Graphics/SVG/1.1/DTD/svg11.dtd">
<svg version="1.1" id="Layer_1" xmlns="http://www.w3.org/2000/svg" xmlns:xlink="http://www.w3.org/1999/xlink" x="0px" y="0px"
	 width="882.999px" height="256.181px" viewBox="0 0 882.999 256.181" enable-background="new 0 0 882.999 256.181"
	 xml:space="preserve">
<path d="M55.244,0c2.24,4.329,4.221,8.257,6.29,12.137c3.543,6.643,9.577,11.172,14.396,16.729
	c19.978,23.045,32.272,49.552,35.582,79.881c3.387,31.047-4.03,59.426-22.851,84.579c-5.832,7.794-12.453,14.872-20.258,20.744
	c-4.435,3.335-6.296,7.877-6.277,13.177c0.02,5.677-0.623,11.342-0.172,17.03c0.102,1.302,0.963,3.478-1.611,3.687
	c-2.552,0.209-5.173-1.733-5.253-3.879c-0.184-4.951-0.783-9.858-1.255-14.784c-0.675-7.049-3.726-12.203-9.286-17.005
	c-24.327-21.001-40.095-47.108-43.775-79.479c-2.445-21.503,1.071-42.478,8.225-62.786c7.225-20.511,18.619-38.438,34.516-53.399
	c0.307-0.289,0.598-0.595,0.907-0.881C51.957,8.751,51.957,8.751,55.244,0z M690.314,211.796c6.218,0,12.438-0.083,18.653,0.022
	c6.677,0.113,13.275-0.484,19.753-2.03c18.721-4.47,33.411-14.271,41.633-32.251c4.521-9.893,5.36-20.377,4.916-31.167
	c-0.857-20.723-14.618-39.502-34.165-46.188c-12.776-4.369-25.962-4.012-39.113-3.533c-12.007,0.437-23.993,0.792-35.984-0.088
	c-4.89-0.36-6.313,0.534-8.059,5.112c-0.774,2.039-0.202,2.938,1.942,3.147c3.568,0.345,7.104,0.91,10.512,2.1
	c2.781,0.971,4.356,2.916,4.587,5.829c0.282,3.566,0.603,7.141,0.612,10.713c0.062,18.233,0.078,36.468-0.002,54.7
	c-0.023,5.575-0.303,11.156-0.65,16.722c-0.324,5.171-1.913,6.826-6.979,7.858c-1.135,0.23-2.289,0.385-3.412,0.658
	c-2.255,0.552-4.44,4.06-3.939,6.467c0.553,2.652,2.799,1.763,4.4,1.779c8.433,0.086,16.864,0.039,25.296,0.039
	C690.314,211.725,690.314,211.759,690.314,211.796z M694.165,112.345c0.01-5.021,0.644-6.126,5.63-6.537
	c30.87-2.545,54.811,13.181,55.644,46.738c0.26,10.481-0.922,20.656-6.012,30.009c-6.318,11.618-15.788,18.569-29.3,19.704
	c-5.654,0.476-11.16,0.116-16.562-1.362c-6.872-1.881-9.351-5.22-9.385-12.346c-0.061-12.752-0.019-25.507-0.019-38.261
	C694.16,137.643,694.145,124.994,694.165,112.345z M862.105,144.172c8.419-5.501,13.119-13.042,12.26-23.327
	c-0.906-10.845-7.007-17.76-17.091-21.322c-2.179-0.77-4.436-1.399-6.707-1.8c-7.951-1.399-15.983-0.532-23.979-0.649
	c-11.062-0.164-22.134,0.024-33.192-0.25c-4.494-0.112-5.556,0.235-6.968,4.396c-0.758,2.242-0.213,3.341,2.252,3.629
	c3.027,0.354,6.05,0.857,9.024,1.516c2.613,0.579,4.252,2.304,4.472,5.066c0.268,3.356,0.697,6.73,0.583,10.081
	c-0.7,20.646-0.38,41.298-0.498,61.949c-0.015,2.319-0.009,4.639-0.031,6.956c-0.105,10.431-0.83,11.257-11.214,12.867
	c-2.854,0.44-5.31,3.26-5.007,6.188c0.349,3.354,3.16,2.021,5.002,2.159c2.726,0.206,5.479,0.027,8.219,0.06
	c6.849,0.082,13.71-0.039,20.543,0.34c12.51,0.691,24.935,0.432,36.78-4.033c10.169-3.83,19.218-9.428,23.745-20.014
	c5.387-12.588,3.202-28.705-10.975-36.594c-3.337-1.856-6.935-2.998-10.706-4.574C859.624,145.312,860.984,144.904,862.105,144.172z
	 M820.71,157.568c0.003-1.521,0.038-3.209,2.08-3.285c10.048-0.374,20.087-0.516,29.29,4.531
	c8.546,4.688,12.349,13.24,10.763,24.987c-1.231,9.136-6.373,15.218-15.377,17.687c-6.449,1.77-12.973,1.32-19.36-0.262
	c-4.48-1.109-7.062-5.485-7.35-11.396c-0.009-0.212-0.015-0.421-0.015-0.633c-0.001-5.168-0.001-10.332-0.001-15.498
	c-0.014,0-0.023,0-0.035,0C820.707,168.323,820.699,162.945,820.71,157.568z M820.783,111.324c0.051-4.367,0.922-5.174,5.163-5.257
	c6.56-0.128,13.03,0.043,19.146,2.977c4.213,2.021,7.302,5.021,8.87,9.376c2.311,6.396,2.345,12.842-0.742,19.005
	c-2.696,5.386-7.695,7.339-13.312,7.626c-5.461,0.276-10.945,0.035-16.42,0.11c-2.315,0.032-2.822-1.209-2.803-3.196
	c0.054-5.264,0.019-10.529,0.019-15.792c0.021,0,0.044,0,0.065,0C820.77,121.221,820.725,116.272,820.783,111.324z M173.522,176.721
	c0,6.008-0.008,12.018,0.002,18.025c0.01,5.98,1.334,7.537,7.342,8.516c2.026,0.331,4.005,0.43,4.062,3.319
	c0.075,3.796-0.759,4.438-4.608,4.235c-9.998-0.529-20.009-0.574-30.01,0.037c-1.84,0.113-3.664,0.529-4.183-2.031
	c-0.627-3.096,0.125-4.812,2.842-5.264c9.45-1.56,8.843-3.601,9.264-11.567c0.617-11.694,0.212-23.388,0.522-35.073
	c0.122-4.6-1.51-7.447-5.805-8.891c-1.696-0.57-3.354-1.256-5.037-1.869c-1.42-0.518-2.964-1.057-2.881-2.881
	c0.088-1.944,1.729-2.51,3.309-2.855c2.777-0.607,5.582-1.086,8.366-1.664c4.753-0.986,9.445-2.236,13.96-4.018
	c2.587-1.021,3.336,0.123,3.298,2.359c-0.033,1.994-0.343,3.982-0.428,5.977c-0.099,2.312,0.934,2.632,2.631,1.285
	c3.909-3.101,8.231-5.492,12.741-7.58c11.765-5.448,21.56-2.922,28.991,7.693c1.32,1.885,2.231,1.264,3.538,0.328
	c4.807-3.438,9.743-6.639,15.305-8.791c14.504-5.605,28.008,1.285,31.79,16.398c2.094,8.371,2.012,16.914,1.436,25.449
	c-0.434,6.426-0.232,12.852-0.157,19.273c0.031,2.663,1.807,4.18,4.194,4.952c1.497,0.483,3.045,0.827,4.587,1.155
	c3.687,0.781,4.731,3.01,3.045,6.396c-0.581,1.164-1.46,1.349-2.6,1.263c-10.631-0.809-21.276-0.338-31.916-0.269
	c-1.763,0.013-3.174,0.013-3.382-2.181c-0.194-2.057-0.378-3.95,2.216-4.874c8.26-2.942,8.283-2.993,8.328-11.964
	c0.046-9.064,0.084-18.131-0.025-27.194c-0.173-14.131-11.049-21.407-24.258-16.312c-0.98,0.379-1.934,0.838-2.875,1.311
	c-5.867,2.938-5.629,3.207-5.253,9.816c0.465,8.194,0.22,16.433,0.264,24.65c0.021,4.217,0.109,8.438-0.022,12.649
	c-0.108,3.442,1.465,5.329,4.741,6.007c1.135,0.232,2.242,0.63,3.385,0.788c2.791,0.387,3.694,1.926,3.278,4.636
	c-0.437,2.848-2.035,2.877-4.515,2.803c-9.788-0.297-19.589-0.604-29.378,0.161c-2.041,0.161-4.409,0.765-4.816-2.464
	c-0.434-3.441,0.273-4.434,3.847-5.138c7.025-1.39,8.01-2.429,8.09-9.597c0.11-9.801,0.033-19.604,0.056-29.406
	c0.005-2.237-0.386-4.416-0.987-6.545c-2.64-9.336-10.071-13.577-19.467-11.137c-1.324,0.344-2.635,0.76-3.913,1.247
	c-7.909,3.015-8.958,4.558-8.958,13.017c0,5.271,0,10.541,0,15.812C173.494,176.721,173.507,176.721,173.522,176.721z
	 M526.918,254.163c11.705-3.914,21.65-10.282,27.061-21.78c6.286-13.369,1.725-28.197-14.397-30.695
	c-4.471-0.693-9.005-0.959-13.49-1.554c-5.318-0.7-10.766-0.227-15.998-1.674c-2.39-0.661-4.409-1.951-4.244-4.758
	c0.153-2.608,2.133-3.771,4.474-4.188c2.69-0.477,5.469-0.545,8.113-1.189c17.142-4.167,27.214-14.953,25.783-32.807
	c-0.438-5.483-0.461-5.481,5.138-5.692c5.972-0.229,10.207-6.382,8.452-12.15c-0.566-1.858-1.464-1.819-2.726-0.817
	c-2.905,2.304-6.284,2.623-9.843,2.707c-4.551,0.107-8.763-1.082-12.912-2.676c-11.655-4.477-22.873-3.33-33.88,2.291
	c-9.584,4.896-14.939,12.442-15.143,23.312c-0.209,11.283,3.792,20.145,14.703,24.955c2.673,1.179,2.648,2.104,0.058,3.791
	c-2.828,1.839-5.711,3.594-8.59,5.351c-1.917,1.166-2.402,2.767-1.74,4.865c1.318,4.183,4.2,6.981,7.915,9.039
	c3.002,1.664,3.01,1.625,0.075,3.692c-4.056,2.855-7.964,5.89-11.449,9.44c-3.714,3.783-4.913,8.211-3.62,13.354
	c1.003,3.986,2.92,7.473,5.795,10.363c6.953,6.997,15.652,9.115,25.676,8.764C516.852,256.402,521.964,255.818,526.918,254.163z
	 M532.527,216.434c5.128,1.487,8.861,4.592,9.936,9.953c1.097,5.479-0.814,10.309-4.885,13.961
	c-9.944,8.926-29.932,7.883-39.051-1.847c-4.663-4.976-5.014-11.951-0.698-17.237c4.526-5.543,10.284-8.238,16.798-6.969
	C521.211,214.102,526.933,214.809,532.527,216.434z M505.365,143.855c6.672-4.164,16.706-1.451,20.562,5.713
	c4.228,7.847,4.52,16.059,1.005,24.302c-1.972,4.627-5.69,7.032-10.588,7.226c-6.217,0.244-10.925-2.689-14.122-7.923
	c-2.706-4.428-3.604-9.371-3.567-14.522C498.744,152.742,499.936,147.245,505.365,143.855z M412.326,145.262
	c4.92-3.716,9.55-7.18,14.947-9.388c16.071-6.576,30.514,1.717,33.445,19.104c0.976,5.77,0.657,11.562,0.703,17.351
	c0.061,8.007,0.035,16.01,0.458,24.016c0.161,3.044,1.347,4.737,4.133,5.49c1.423,0.386,2.866,0.696,4.308,1.01
	c3.644,0.79,4.995,4.505,2.812,7.654c-0.821,1.185-1.916,0.944-3.104,0.901c-10.744-0.383-21.495-0.657-32.229,0.166
	c-2.062,0.156-3.364-0.405-3.55-2.515c-0.188-2.122-0.935-4.558,1.925-5.646c0.776-0.296,1.645-0.359,2.47-0.526
	c5.556-1.113,6.633-2.189,6.633-7.745c0-11.272,0.386-22.551-0.538-33.817c-0.773-9.383-8.575-15.645-17.968-14.267
	c-3.599,0.528-6.917,1.617-10.098,3.427c-3.235,1.84-4.463,4.588-4.563,8.082c-0.374,12.86,0.611,25.703,0.58,38.562
	c-0.009,2.953,1.425,4.753,4.349,5.325c1.242,0.242,2.479,0.686,3.723,0.699c2.868,0.028,3.499,1.578,3.373,4.099
	c-0.191,3.817-0.654,4.161-4.496,4.053c-10.646-0.31-21.298-0.413-31.937,0.112c-2.129,0.105-3.309-0.354-3.495-2.461
	c-0.192-2.156-0.806-4.616,2.057-5.596c1.585-0.543,3.279-0.771,4.927-1.127c2.635-0.57,3.944-2.269,4.15-4.884
	c1.118-14.212,0.503-28.446,0.606-42.674c0.015-2.103-1.021-3.565-2.853-4.563c-2.418-1.321-4.97-2.295-7.554-3.223
	c-1.588-0.572-3.397-1.197-3.263-3.328c0.146-2.312,1.97-3.111,3.938-3.433c6.149-1.007,12.186-2.481,18.148-4.272
	c1.309-0.394,2.594-0.879,3.886-1.326c3.218-1.112,4.529-0.138,4.269,3.354C412.34,140.171,411.771,142.445,412.326,145.262z
	 M639.067,189.982c5.102-11.436,5.264-23.324,0.495-35.039c-4.175-10.26-11.859-16.711-22.47-19.604
	c-5.002-1.363-10.147-1.71-15.325-0.961c-13.01,1.887-24.042,7.211-31.05,18.812c-4.806,7.959-5.517,16.761-4.624,25.938
	c1.974,20.31,15.944,33.292,39.646,33.31C618.6,211.395,632.084,205.641,639.067,189.982z M583.657,157.667
	c4.268-17.875,21.891-18.131,31.473-9.392c7.066,6.445,9.593,14.986,10.413,24.082c0.549,6.086,0.376,12.222-1.342,18.194
	c-3.326,11.57-13.961,16.449-24.867,11.327c-7.949-3.734-12.077-10.546-14.565-18.566c-1.51-4.861-2.33-9.845-1.953-14.44
	C582.706,164.758,582.814,161.191,583.657,157.667z M365.887,193.406c6.876-12.107,7.445-25.113,2.369-38.11
	c-4.015-10.278-11.625-16.888-22.242-19.86c-5.102-1.429-10.345-1.814-15.63-1.057c-13.012,1.867-24.028,7.193-31.081,18.77
	c-4.849,7.959-5.527,16.754-4.641,25.927c1.97,20.37,15.896,33.351,39.835,33.364C345.625,211.658,358.317,206.736,365.887,193.406z
	 M352.684,190.783c-3.27,11.277-13.689,16.041-24.434,11.271c-5.019-2.227-8.757-5.877-11.406-10.562
	c-5.936-10.498-6.983-21.914-4.599-33.412c3.883-18.728,22.242-18.683,32.072-9.188c6.852,6.617,9.059,15.229,9.88,24.338
	c0.131,1.465,0.019,2.949,0.019,4.426C354.476,182.121,353.924,186.507,352.684,190.783z"/>
</svg>
