<?xml version="1.0" encoding="utf-8"?>
<!-- Generator: Adobe Illustrator 16.2.1, SVG Export Plug-In . SVG Version: 6.00 Build 0)  -->
<!DOCTYPE svg PUBLIC "-//W3C//DTD SVG 1.1//EN" "http://www.w3.org/Graphics/SVG/1.1/DTD/svg11.dtd">
<svg version="1.1" id="Layer_1" xmlns="http://www.w3.org/2000/svg" xmlns:xlink="http://www.w3.org/1999/xlink" x="0px" y="0px"
	 width="349.943px" height="772.688px" viewBox="0 0 349.943 772.688" enable-background="new 0 0 349.943 772.688"
	 xml:space="preserve">
<path d="M172.139,0c6.979,13.491,13.151,25.728,19.602,37.819c11.037,20.7,29.841,34.811,44.854,52.126
	c62.25,71.808,100.562,154.403,110.874,248.908c10.558,96.743-12.557,185.172-71.202,263.542
	c-18.174,24.284-38.804,46.347-63.123,64.637c-13.816,10.394-19.619,24.549-19.561,41.062c0.062,17.69-1.941,35.338-0.535,53.065
	c0.318,4.052,2.998,10.828-5.02,11.482c-7.954,0.651-16.123-5.398-16.373-12.085c-0.573-15.429-2.438-30.722-3.908-46.063
	c-2.105-21.964-11.612-38.03-28.937-52.984C63.011,596.066,13.881,514.712,2.41,413.843c-7.618-67,3.338-132.353,25.632-195.636
	c22.514-63.908,58.017-119.771,107.549-166.39c0.958-0.9,1.864-1.853,2.827-2.746C161.897,27.27,161.897,27.27,172.139,0z"/>
</svg>
