<?xml version="1.0" encoding="utf-8"?>
<!-- Generator: Adobe Illustrator 16.2.1, SVG Export Plug-In . SVG Version: 6.00 Build 0)  -->
<!DOCTYPE svg PUBLIC "-//W3C//DTD SVG 1.1//EN" "http://www.w3.org/Graphics/SVG/1.1/DTD/svg11.dtd">
<svg version="1.1" id="Layer_1" xmlns="http://www.w3.org/2000/svg" xmlns:xlink="http://www.w3.org/1999/xlink" x="0px" y="0px"
	 width="812.143px" height="421.699px" viewBox="0 0 812.143 421.699" enable-background="new 0 0 812.143 421.699"
	 xml:space="preserve">
<path d="M0,384.17V277.994c0-10.315,4.125-15.263,12.577-17.942c20.619-6.184,34.432-0.82,40.412,12.988l39.586,91.545l41.03-91.545
	c6.185-13.811,19.793-19.172,40.204-12.988c8.66,2.682,12.786,7.627,12.786,17.942v106.177h-27.009V277.994l-41.648,92.573
	c-4.951,11.129-11.341,15.254-24.537,15.254c-13.196,0-20-4.125-24.743-15.254l-41.854-92.573v106.177L0,384.17L0,384.17z
	 M208.861,297.787c0.618,0.405,0,58.964,0,60.2c0.206,13.402,17.317,25.154,43.916,25.361h57.111v7.014
	c0,2.889,2.062,11.544-15.258,13.402c-0.206,0-84.946,0-85.151,0v17.935h84.947c13.608-0.208,42.68-5.362,42.68-28.863
	c0-0.416,0-95.463,0-95.463h-27.012v69.687c-0.414,0-50.927,0.207-58.556,0c-14.637-0.197-15.873-7.627-15.667-10.92v-58.352
	L208.861,297.787L208.861,297.787z M788.223,230.159c-16.492-0.416-29.272,1.234-39.996,5.771c-3.096,1.239-8.041,1.239-8.456,5.147
	c1.651,1.651,1.858,4.333,3.3,6.606c2.478,4.114,6.806,9.686,10.723,12.572c4.332,3.303,8.66,6.598,13.195,9.484
	c8.041,4.947,17.115,7.835,24.95,12.781c4.534,2.888,9.07,6.598,13.605,9.692c2.271,1.651,3.71,4.333,6.599,5.362
	c0-0.208,0-0.416,0-0.623c-1.444-1.85-1.855-4.53-3.3-6.598c-2.062-2.059-4.125-3.918-6.182-5.977
	c-5.979-8.042-13.403-15.054-21.446-20.822c-6.597-4.539-21.028-10.722-23.71-18.356c0,0-0.207-0.199-0.413-0.406
	c4.534-0.416,9.896-2.065,14.229-3.303c7.009-1.851,13.402-1.443,20.619-3.295c3.299-0.829,6.598-1.859,9.896-2.89
	c0-0.623,0-1.235,0-1.857c-3.712-3.71-6.394-8.656-10.311-12.162c-10.516-9.076-22.06-17.938-34.02-25.359
	c-6.394-4.125-14.638-6.805-21.442-10.31c-2.474-1.238-6.599-1.856-8.041-3.917c-3.71-4.538-5.772-10.515-8.453-15.875
	c-5.979-11.341-11.751-23.918-16.904-35.876c-3.713-8.04-5.979-16.081-10.514-23.504c-21.237-35.051-44.329-56.286-79.794-77.112
	c-7.627-4.328-16.698-6.185-26.392-8.453c-5.153-0.205-10.308-0.618-15.462-0.826c-3.303-1.441-6.598-5.358-9.484-7.215
	c-11.751-7.421-42.06-23.502-50.724-2.268c-5.563,13.403,8.249,26.599,12.992,33.403c3.505,4.742,8.041,10.1,10.514,15.463
	c1.444,3.504,1.854,7.216,3.301,10.927c3.299,9.071,6.389,19.172,10.722,27.627c2.265,4.331,4.742,8.865,7.626,12.782
	c1.651,2.268,4.535,3.299,5.154,7.011c-2.885,4.124-3.094,10.31-4.738,15.463c-7.424,23.298-4.536,52.163,5.979,69.275
	c3.295,5.158,11.135,16.492,21.647,12.167c9.278-3.714,7.217-15.463,9.896-25.772c0.619-2.475,0.209-4.124,1.444-5.774
	c0,0.207,0,0.414,0,0.414c2.883,5.773,5.772,11.34,8.452,17.112c6.39,10.1,17.521,20.62,26.802,27.627
	c4.95,3.712,8.867,10.105,15.054,12.372c0-0.208,0-0.415,0-0.622c-0.206,0-0.206,0-0.413,0c-1.237-1.851-3.094-2.681-4.744-4.121
	c-3.709-3.713-7.834-8.249-10.719-12.367c-8.658-11.549-16.292-24.33-23.093-37.527c-3.298-6.391-6.187-13.4-8.866-19.791
	c-1.235-2.475-1.235-6.188-3.299-7.424c-3.097,4.536-7.628,8.453-9.896,14.021c-3.917,8.865-4.328,19.793-5.771,31.132
	c-0.826,0.207-0.416,0-0.826,0.412c-6.598-1.649-8.867-8.453-11.341-14.226c-6.187-14.639-7.216-38.146-1.854-55.05
	c1.442-4.33,7.627-17.938,5.153-22.062c-1.235-3.917-5.361-6.186-7.628-9.278c-2.681-3.917-5.567-8.863-7.423-13.195
	c-4.952-11.544-7.424-24.328-12.785-35.877c-2.473-5.359-6.8-10.925-10.307-15.874c-3.916-5.566-8.25-9.486-11.341-16.083
	c-1.029-2.268-2.474-5.978-0.826-8.452c0.411-1.649,1.235-2.268,2.889-2.681c2.682-2.268,10.308,0.619,12.987,1.855
	c7.631,3.093,14.021,5.979,20.411,10.309c2.889,2.062,5.979,5.979,9.689,7.01c1.443,0,2.889,0,4.332,0
	c6.6,1.444,14.021,0.414,20.203,2.268c10.932,3.507,20.827,8.661,29.693,14.226c27.009,17.113,49.273,41.443,64.325,70.515
	c2.473,4.743,3.506,9.072,5.774,14.021c4.328,10.102,9.688,20.411,14.019,30.308c4.331,9.691,8.451,19.588,14.64,27.629
	c3.091,4.328,15.464,6.596,21.028,8.865c4.125,1.855,10.519,3.505,14.229,5.772c7.011,4.33,14.021,9.276,20.619,14.023
	C777.298,220.879,787.605,226.034,788.223,230.159L788.223,230.159z M577.92,50.988c-3.506,0-5.979,0.412-8.45,1.031
	c0,0,0,0.205,0,0.413c0.207,0,0.207,0,0.409,0c1.652,3.299,4.535,5.566,6.599,8.453c1.651,3.299,3.096,6.598,4.742,9.896
	c0.208-0.206,0.411-0.411,0.411-0.411c2.889-2.062,4.333-5.364,4.333-10.309c-1.236-1.444-1.444-2.888-2.474-4.331
	C582.253,53.668,579.572,52.637,577.92,50.988L577.92,50.988z M357.723,384.17h77.522c9.07,0,17.729-1.851,24.738-5.153
	c11.758-5.363,17.319-12.574,17.319-22.06v-19.793c0-7.627-6.39-14.847-19.174-19.792c-6.598-2.475-14.842-3.918-22.885-3.918
	h-32.577c-10.925,0-16.081-3.303-17.523-10.514c-0.208-0.83-0.208-1.652-0.208-2.475v-12.165c0-0.624,0-1.444,0.208-2.267
	c1.442-5.567,4.329-7.014,13.813-8.041c0.823,0,1.854,0,2.473,0h76.906v-17.942h-75.463c-10.927,0-16.701,0.622-21.855,2.274
	c-15.875,4.945-22.887,12.779-22.887,26.59v15.677c0,12.157,13.609,22.464,36.7,24.946c2.473,0.197,5.155,0.197,7.833,0.197h27.834
	c1.034,0,2.062,0,2.89,0.209c8.451,0.83,12.162,2.274,14.64,5.361c1.646,1.65,2.062,3.094,2.062,4.955v15.667
	c0,1.851-1.235,4.323-3.714,6.392c-2.474,2.058-6.391,3.502-11.549,3.709c-1.029,0-1.647,0.207-2.676,0.207h-74.433L357.723,384.17
	L357.723,384.17z M645.137,353.042c0,18.348,13.814,28.654,41.441,30.723c2.681,0.209,5.154,0.406,7.834,0.406h70.1v-17.936h-70.719
	c-15.668,0-21.646-3.916-21.646-13.402v-92.782h-27.01V353.042L645.137,353.042z M494.417,353.862
	c0,14.847,8.457,23.918,25.568,28.666c5.564,1.443,10.925,2.057,15.668,2.057h28.862l21.652-1.236l21.44,19.378h31.132
	l-26.39-23.915c11.133-4.74,15.876-11.752,15.876-24.949v-63.908c0-16.292-11.342-26.191-33.814-29.278
	c-2.682-0.208-4.946-0.415-7.626-0.415h-51.135c-2.267,0-4.743,0.207-7.217,0.415c-22.474,3.087-34.021,12.986-34.021,29.278v63.908
	H494.417L494.417,353.862z M523.487,352.418v-60.824c0-8.239,7.839-13.403,19.798-13.403h40.614
	c10.515,0,17.527,3.918,18.972,10.932c0.203,0.83,0.203,1.65,0.203,2.473v61.237c0,0.823,0,1.86-0.203,2.681
	c-0.826,3.711-3.097,6.6-6.805,8.657l-19.591-17.728h-31.13l22.268,20.209h-24.328c-10.724,0-17.734-4.125-19.175-11.553
	C523.903,354.069,523.487,353.249,523.487,352.418L523.487,352.418z"/>
</svg>
