<?xml version="1.0" encoding="utf-8"?>
<!-- Generator: Adobe Illustrator 16.2.1, SVG Export Plug-In . SVG Version: 6.00 Build 0)  -->
<!DOCTYPE svg PUBLIC "-//W3C//DTD SVG 1.1//EN" "http://www.w3.org/Graphics/SVG/1.1/DTD/svg11.dtd">
<svg version="1.1" id="Layer_1" xmlns="http://www.w3.org/2000/svg" xmlns:xlink="http://www.w3.org/1999/xlink" x="0px" y="0px"
	 width="927px" height="199.092px" viewBox="0 0 927 199.092" enable-background="new 0 0 927 199.092" xml:space="preserve">
<path d="M0,153.586V24.843C0,12.333,5.002,6.337,15.25,3.087c25-7.497,41.749-0.996,49,15.749l47.999,111l49.75-111
	c7.5-16.743,24-23.246,48.75-15.749c10.5,3.25,15.503,9.248,15.503,21.756v128.743h-32.749V24.843l-50.501,112.25
	c-6.002,13.496-13.75,18.496-29.751,18.496c-16,0-24.251-5.002-30.002-18.496L32.5,24.843v128.743H0L0,153.586z M253.252,48.842
	c0.75,0.494,0,71.497,0,72.995c0.25,16.252,20.999,30.502,53.25,30.753h69.25v8.504c0,3.502,2.501,13.999-18.501,16.252
	c-0.249,0-103.001,0-103.25,0v21.746h103.002c16.5-0.253,51.75-6.503,51.75-34.998c0-0.504,0-115.753,0-115.753h-32.752v84.498
	c-0.502,0-61.751,0.251-71.001,0c-17.748-0.24-19.247-9.248-18.998-13.24V48.843L253.252,48.842L253.252,48.842z M433.753,153.586
	h93.997c10.999,0,21.499-2.243,29.997-6.249c14.256-6.502,21.002-15.244,21.002-26.747v-24c0-9.249-7.749-18.002-23.25-23.999
	c-8-2.999-17.996-4.75-27.75-4.75h-39.5c-13.247,0-19.498-4.005-21.246-12.749c-0.252-1.005-0.252-2.003-0.252-2.999v-14.75
	c0-0.757,0-1.753,0.252-2.75c1.748-6.75,5.248-8.503,16.748-9.75c0.998,0,2.251,0,2.998,0h93.253V3.087H488.5
	c-13.25,0-20.251,0.754-26.5,2.759c-19.25,5.996-27.751,15.496-27.751,32.241v19.008c0,14.742,16.501,27.238,44.5,30.248
	c2.998,0.24,6.251,0.24,9.498,0.24h33.75c1.255,0,2.501,0,3.503,0.252c10.248,1.007,14.747,2.76,17.751,6.502
	c1.995,2.002,2.499,3.752,2.499,6.008v18.998c0,2.244-1.498,5.241-4.502,7.748c-3,2.495-7.749,4.246-14.003,4.498
	c-1.249,0-1.997,0.251-3.245,0.251h-90.25L433.753,153.586L433.753,153.586z M782.254,115.842c0,22.247,16.749,34.745,50.247,37.251
	c3.252,0.253,6.25,0.493,9.5,0.493H927v-21.745h-85.748c-18.999,0-26.249-4.749-26.249-16.253V3.087h-32.749V115.842
	L782.254,115.842z M599.499,116.837c0,18.001,10.255,29,31.003,34.757c6.747,1.752,13.247,2.494,18.997,2.494h34.999l26.254-1.499
	l25.997,23.498h37.75l-31.998-29c13.498-5.748,19.25-14.25,19.25-30.25V39.343c0-19.755-13.752-31.758-41.002-35.502
	c-3.251-0.252-5.998-0.502-9.247-0.502h-62.003c-2.747,0-5.751,0.251-8.749,0.502c-27.25,3.744-41.253,15.747-41.253,35.502v77.494
	H599.499z M634.749,115.086v-73.75c0-9.992,9.504-16.252,24.005-16.252h49.247c12.749,0,21.253,4.75,23.004,13.253
	c0.246,1.005,0.246,2.002,0.246,2.999v74.251c0,0.998,0,2.256-0.246,3.251c-1.002,4.499-3.755,8.001-8.252,10.497L699,107.84
	h-37.746l26.999,24.504h-29.499c-13,0-21.504-5.001-23.249-14.009C635.253,117.087,634.749,116.093,634.749,115.086L634.749,115.086
	z"/>
</svg>
