<?xml version="1.0" encoding="utf-8"?>
<!-- Generator: Adobe Illustrator 16.2.1, SVG Export Plug-In . SVG Version: 6.00 Build 0)  -->
<!DOCTYPE svg PUBLIC "-//W3C//DTD SVG 1.1//EN" "http://www.w3.org/Graphics/SVG/1.1/DTD/svg11.dtd">
<svg version="1.1" id="Layer_1" xmlns="http://www.w3.org/2000/svg" xmlns:xlink="http://www.w3.org/1999/xlink" x="0px" y="0px"
	 width="487.001px" height="478.055px" viewBox="0 0 487.001 478.055" enable-background="new 0 0 487.001 478.055"
	 xml:space="preserve">
<path d="M448.575,369.746c-26.496-0.668-47.028,1.984-64.253,9.271c-4.975,1.993-12.919,1.993-13.586,8.271
	c2.652,2.653,2.985,6.96,5.3,10.615c3.98,6.608,10.934,15.558,17.227,20.196c6.959,5.307,13.912,10.599,21.198,15.237
	c12.917,7.947,27.496,12.585,40.083,20.532c7.285,4.639,14.572,10.6,21.857,15.572c3.646,2.651,5.96,6.961,10.6,8.613
	c0-0.334,0-0.668,0-1.001c-2.32-2.973-2.979-7.277-5.299-10.6c-3.315-3.305-6.627-6.293-9.934-9.599
	c-9.604-12.921-21.531-24.186-34.45-33.451c-10.6-7.293-33.784-17.226-38.091-29.492c0,0-0.333-0.319-0.665-0.652
	c7.285-0.668,15.898-3.32,22.857-5.306c11.26-2.974,21.531-2.318,33.125-5.294c5.299-1.331,10.598-2.987,15.898-4.641
	c0-1.002,0-1.986,0-2.984c-5.966-5.961-10.271-13.908-16.563-19.539c-16.893-14.581-35.438-28.816-54.649-40.74
	c-10.272-6.626-23.518-10.932-34.448-16.562c-3.974-1.988-10.601-2.98-12.919-6.291c-5.96-7.289-9.271-16.894-13.579-25.504
	c-9.605-18.22-18.879-38.423-27.156-57.635c-5.966-12.916-9.606-25.834-16.894-37.76c-34.116-56.309-71.212-90.422-128.188-123.88
	c-12.253-6.953-26.826-9.936-42.396-13.58c-8.28-0.329-16.56-0.992-24.839-1.326c-5.307-2.315-10.6-8.609-15.239-11.591
	C64.695,8.708,16.006-17.126,2.088,16.988C-6.851,38.519,15.339,59.718,22.96,70.65c5.63,7.618,12.917,16.225,16.89,24.842
	c2.32,5.63,2.979,11.592,5.301,17.554c5.3,14.572,10.264,30.8,17.225,44.383c3.639,6.957,7.619,14.242,12.25,20.535
	c2.654,3.643,7.287,5.299,8.281,11.262c-4.633,6.625-4.968,16.562-7.612,24.841c-11.927,37.429-7.286,83.799,9.605,111.291
	c5.294,8.285,17.886,26.496,34.777,19.543c14.906-5.965,11.593-24.842,15.899-41.401c0.995-3.976,0.335-6.625,2.32-9.276
	c0,0.334,0,0.664,0,0.664c4.631,9.274,9.273,18.219,13.579,27.49c10.266,16.227,28.15,33.125,43.056,44.385
	c7.954,5.963,14.246,16.236,24.184,19.875c0-0.334,0-0.666,0-0.998c-0.332,0-0.332,0-0.665,0c-1.988-2.975-4.968-4.308-7.622-6.621
	c-5.957-5.965-12.584-13.252-17.217-19.869c-13.913-18.555-26.173-39.088-37.099-60.289c-5.299-10.267-9.938-21.525-14.245-31.793
	c-1.985-3.976-1.985-9.938-5.299-11.926c-4.974,7.286-12.254,13.58-15.899,22.524c-6.293,14.243-6.953,31.798-9.272,50.015
	c-1.328,0.332-0.669,0-1.328,0.661c-10.6-2.649-14.246-13.579-18.219-22.854c-9.939-23.518-11.592-61.277-2.979-88.437
	c2.319-6.956,12.252-28.817,8.279-35.443c-1.985-6.292-8.614-9.937-12.253-14.905c-4.307-6.292-8.946-14.239-11.926-21.199
	c-7.954-18.545-11.926-39.083-20.539-57.636c-3.972-8.609-10.925-17.551-16.558-25.5c-6.292-8.942-13.253-15.239-18.219-25.838
	c-1.654-3.643-3.973-9.602-1.328-13.578c0.66-2.649,1.985-3.643,4.64-4.307c4.307-3.643,16.559,0.994,20.863,2.98
	c12.259,4.969,22.526,9.606,32.791,16.561c4.64,3.313,9.605,9.605,15.567,11.262c2.319,0,4.639,0,6.96,0
	c10.6,2.32,22.524,0.665,32.456,3.643c17.56,5.634,33.458,13.913,47.702,22.854c43.39,27.492,79.159,66.577,103.338,113.28
	c3.972,7.62,5.631,14.575,9.277,22.524c6.953,16.228,15.564,32.789,22.521,48.689c6.957,15.567,13.576,31.469,23.516,44.387
	c4.967,6.951,24.846,10.596,33.784,14.242c6.627,2.979,16.896,5.631,22.857,9.271c11.262,6.957,22.525,14.902,33.124,22.528
	C431.024,354.839,447.582,363.121,448.575,369.746L448.575,369.746z M110.725,81.91c-5.631,0-9.604,0.662-13.576,1.656
	c0,0,0,0.329,0,0.663c0.333,0,0.333,0,0.659,0c2.654,5.3,7.286,8.942,10.6,13.579c2.654,5.3,4.973,10.6,7.619,15.9
	c0.334-0.331,0.66-0.661,0.66-0.661c4.64-3.312,6.96-8.616,6.96-16.562c-1.987-2.32-2.32-4.64-3.974-6.957
	C117.686,86.216,113.379,84.559,110.725,81.91L110.725,81.91z"/>
</svg>
