<?xml version="1.0" encoding="utf-8"?>
<!-- Generator: Adobe Illustrator 16.2.1, SVG Export Plug-In . SVG Version: 6.00 Build 0)  -->
<!DOCTYPE svg PUBLIC "-//W3C//DTD SVG 1.1//EN" "http://www.w3.org/Graphics/SVG/1.1/DTD/svg11.dtd">
<svg version="1.1" id="Layer_1" xmlns="http://www.w3.org/2000/svg" xmlns:xlink="http://www.w3.org/1999/xlink" x="0px" y="0px"
	 width="743.401px" height="266.534px" viewBox="0 0 743.401 266.534" enable-background="new 0 0 743.401 266.534"
	 xml:space="preserve">
<g>
	<path fill="#010101" d="M144.505,134.691L78.25,96.562c-1.121-0.659-2.377-1.001-3.648-1.054c-0.114,0-0.592,0-0.685,0
		c-1.267,0.052-2.522,0.395-3.658,1.054L4.005,134.691C1.536,136.118,0,138.766,0,141.646l0.145,102.666
		c0,1.434,0.742,2.762,1.998,3.457c1.229,0.741,2.75,0.741,3.975,0l39.375-22.547c2.491-1.479,4.006-4.089,4.006-6.943v-47.963
		c0-2.857,1.516-5.51,3.996-6.926l16.766-9.656c1.25-0.729,2.615-1.08,4.012-1.08c1.364,0,2.766,0.353,3.98,1.08l16.761,9.656
		c2.48,1.416,4.001,4.067,4.001,6.926v47.963c0,2.854,1.536,5.486,4.011,6.943l39.364,22.547c1.235,0.742,2.776,0.742,4.001,0
		c1.22-0.695,1.987-2.023,1.987-3.455l0.129-102.668C148.505,138.766,146.99,136.118,144.505,134.691z"/>
	<path fill="#010101" d="M541.73,22.516L502.288,0.506c-1.24-0.69-2.75-0.675-3.98,0.044c-1.22,0.719-1.972,2.031-1.972,3.451
		v101.677c0,1-0.534,1.926-1.396,2.427c-0.866,0.5-1.937,0.5-2.808,0l-16.589-9.561c-2.479-1.428-5.527-1.425-7.997,0.002
		l-66.28,38.252c-2.479,1.43-4.006,4.071-4.006,6.93v76.52c0,2.857,1.525,5.5,4.001,6.934l66.275,38.278
		c2.479,1.433,5.53,1.433,8.007,0l66.29-38.278c2.475-1.434,4.002-4.074,4.002-6.934V29.506
		C545.835,26.604,544.269,23.93,541.73,22.516z M496.139,195.105c0,0.717-0.384,1.375-1.002,1.732l-22.759,13.113
		c-0.617,0.357-1.375,0.357-1.992,0l-22.76-13.113c-0.622-0.357-1.002-1.018-1.002-1.732v-26.277c0-0.717,0.38-1.375,1.002-1.733
		l22.754-13.144c0.623-0.358,1.38-0.358,2.003,0l22.754,13.144c0.617,0.358,1.002,1.019,1.002,1.733V195.105L496.139,195.105z"/>
	<path fill="#010101" d="M739.414,135.754L673.559,97.52c-2.475-1.441-5.535-1.442-8.017-0.01l-66.259,38.252
		c-2.478,1.43-4.001,4.072-4.001,6.93v76.498c0,2.875,1.546,5.53,4.042,6.953l65.845,37.519c2.428,1.39,5.406,1.399,7.846,0.046
		l39.827-22.137c1.267-0.706,2.055-2.028,2.06-3.473c0.012-1.441-0.758-2.774-2.009-3.498l-66.674-38.269
		c-1.245-0.712-2.014-2.04-2.014-3.472v-23.975c0-1.427,0.763-2.75,2.003-3.467l20.751-11.966c1.235-0.711,2.761-0.711,3.996,0
		l20.761,11.966c1.241,0.717,2.004,2.04,2.004,3.467v18.861c0,1.434,0.77,2.756,2.008,3.472c1.24,0.712,2.768,0.706,4.008-0.011
		l39.68-23.064c2.472-1.433,3.986-4.067,3.986-6.923v-18.54C743.4,139.827,741.885,137.188,739.414,135.754z"/>
	<path fill="#010101" d="M343.305,135.351L277.03,97.106c-2.476-1.43-5.526-1.43-8.001,0l-66.257,38.245
		c-2.478,1.429-4.004,4.071-4.004,6.929v76.55c0,2.859,1.526,5.501,4.001,6.934l66.26,38.273c2.475,1.434,5.526,1.434,8.001,0
		l66.275-38.273c2.477-1.433,4-4.074,4-6.934v-76.544C347.305,139.421,345.78,136.78,343.305,135.351z"/>
	<path fill="#010101" d="M670.107,164.559c-0.478-0.275-1.06-0.275-1.535,0l-12.708,7.338c-0.479,0.273-0.769,0.777-0.769,1.326
		v14.691c0,0.544,0.29,1.053,0.769,1.328l12.708,7.337c0.478,0.274,1.059,0.274,1.535,0l12.719-7.337
		c0.479-0.275,0.768-0.784,0.768-1.328v-14.691c0-0.549-0.291-1.053-0.768-1.326L670.107,164.559z"/>
</g>
</svg>
