<?xml version="1.0" encoding="utf-8"?>
<!-- Generator: Adobe Illustrator 16.2.1, SVG Export Plug-In . SVG Version: 6.00 Build 0)  -->
<!DOCTYPE svg PUBLIC "-//W3C//DTD SVG 1.1//EN" "http://www.w3.org/Graphics/SVG/1.1/DTD/svg11.dtd">
<svg version="1.1" id="Layer_1" xmlns="http://www.w3.org/2000/svg" xmlns:xlink="http://www.w3.org/1999/xlink" x="0px" y="0px"
	 width="951.003px" height="267.504px" viewBox="0 0 951.003 267.504" enable-background="new 0 0 951.003 267.504"
	 xml:space="preserve">
<g>
	<path fill="#010101" d="M149.651,142.734c0-2.901-1.527-5.566-4.032-7.005L78.854,97.307c-1.13-0.664-2.396-1.01-3.677-1.062
		c-0.115,0-0.596,0-0.69,0c-1.275,0.052-2.542,0.397-3.686,1.062L4.037,135.729C1.548,137.167,0,139.833,0,142.734l0.146,103.463
		c0,1.443,0.748,2.781,2.013,3.481c1.239,0.748,2.772,0.748,4.005,0l39.679-22.721c2.51-1.49,4.037-4.12,4.037-6.996v-48.333
		c0-2.88,1.526-5.553,4.027-6.98l16.896-9.729c1.26-0.733,2.635-1.089,4.042-1.089c1.375,0,2.787,0.355,4.011,1.089l16.89,9.729
		c2.499,1.429,4.031,4.101,4.031,6.98v48.333c0,2.876,1.548,5.526,4.042,6.996l39.667,22.721c1.245,0.748,2.798,0.748,4.033,0
		c1.229-0.7,2.002-2.04,2.002-3.481L149.651,142.734z"/>
	<path fill="#010101" d="M506.162,0.511c-1.256-0.696-2.771-0.68-4.018,0.044c-1.223,0.724-1.986,2.047-1.986,3.477v102.461
		c0,1.007-0.533,1.94-1.401,2.445c-0.879,0.505-1.956,0.505-2.833,0l-16.715-9.634c-2.5-1.438-5.569-1.435-8.059,0.002
		l-66.793,38.545c-2.496,1.441-4.034,4.104-4.034,6.984v77.107c0,2.881,1.538,5.543,4.03,6.985l66.787,38.575
		c2.499,1.441,5.574,1.441,8.068,0l66.798-38.574c2.501-1.443,4.037-4.104,4.037-6.986V29.734c0-2.923-1.58-5.619-4.141-7.044
		L506.162,0.511z M499.96,196.609c0,0.722-0.385,1.386-1.004,1.746L476.02,211.57c-0.622,0.359-1.386,0.359-2.008,0l-22.934-13.215
		c-0.625-0.36-1.01-1.024-1.01-1.746v-26.481c0-0.721,0.384-1.386,1.008-1.746l22.931-13.245c0.628-0.361,1.392-0.361,2.02,0
		l22.933,13.245c0.617,0.36,1.004,1.025,1.004,1.746L499.96,196.609L499.96,196.609z"/>
	<path fill="#010101" d="M745.11,169.439c2.488-1.444,4.016-4.102,4.016-6.977V143.78c0-2.875-1.525-5.535-4.016-6.979
		l-66.357-38.53c-2.499-1.452-5.584-1.454-8.084-0.01l-66.764,38.546c-2.501,1.441-4.037,4.103-4.037,6.984v77.087
		c0,2.897,1.559,5.574,4.079,7.007l66.346,37.807c2.447,1.4,5.448,1.412,7.905,0.048l40.14-22.308
		c1.276-0.713,2.071-2.043,2.071-3.498c0.011-1.455-0.764-2.799-2.02-3.525l-67.192-38.563c-1.256-0.717-2.029-2.056-2.029-3.497
		v-24.16c0-1.438,0.772-2.771,2.02-3.492l20.916-12.06c1.243-0.716,2.781-0.716,4.025,0l20.915,12.06
		c1.256,0.722,2.021,2.056,2.021,3.492v19.008c0,1.443,0.772,2.777,2.027,3.5c1.246,0.716,2.783,0.711,4.037-0.014L745.11,169.439z"
		/>
	<path fill="#010101" d="M271.102,97.855c2.494-1.44,5.569-1.44,8.063,0l66.785,38.54c2.496,1.438,4.033,4.102,4.033,6.986v77.137
		c0,2.881-1.537,5.541-4.032,6.984l-66.783,38.57c-2.496,1.443-5.571,1.443-8.068,0l-66.768-38.57
		c-2.494-1.443-4.031-4.104-4.031-6.984v-77.141c0-2.882,1.538-5.544,4.034-6.982L271.102,97.855z"/>
	<path fill="#010101" d="M874.781,267.17c-2.301,0-4.59-0.602-6.599-1.768l-21.032-12.439c-3.138-1.753-1.601-2.375-0.564-2.734
		c4.182-1.453,5.031-1.789,9.506-4.324c0.459-0.269,1.078-0.162,1.56,0.115l16.157,9.59c0.586,0.328,1.41,0.328,1.945,0
		l62.979-36.35c0.586-0.334,0.963-1.004,0.963-1.699v-72.674c0-0.711-0.377-1.379-0.983-1.734l-62.946-36.318
		c-0.573-0.34-1.35-0.34-1.934,0l-62.939,36.329c-0.605,0.346-0.991,1.035-0.991,1.726v72.674c0,0.694,0.386,1.35,0.991,1.68
		l17.245,9.971c9.362,4.676,15.092-0.837,15.092-6.373v-71.75c0-1.015,0.815-1.82,1.831-1.82h7.989c0.994,0,1.82,0.807,1.82,1.82
		v71.748c0,12.492-6.798,19.655-18.647,19.655c-3.639,0-6.505,0-14.506-3.938l-16.512-9.512c-4.078-2.354-6.599-6.768-6.599-11.482
		v-72.675c0-4.728,2.521-9.133,6.599-11.479l62.979-36.39c3.983-2.254,9.276-2.254,13.23,0l62.968,36.39
		c4.079,2.356,6.62,6.752,6.62,11.479v72.675c0,4.717-2.541,9.108-6.62,11.482L881.415,265.4
		C879.404,266.568,877.113,267.17,874.781,267.17z"/>
	<path fill="#010101" d="M894.233,217.102c-27.559,0-33.33-12.648-33.33-23.254c0-1.015,0.815-1.818,1.818-1.818h8.147
		c0.909,0,1.662,0.658,1.808,1.542c1.224,8.288,4.896,12.477,21.555,12.477c13.271,0,18.921-3.001,18.921-10.04
		c0-4.059-1.602-7.07-22.226-9.093c-17.225-1.7-27.88-5.513-27.88-19.295c0-12.702,10.71-20.284,28.666-20.284
		c20.174,0,30.15,7.001,31.417,22.025c0.052,0.521-0.138,1.02-0.482,1.4c-0.345,0.36-0.825,0.58-1.326,0.58h-8.18
		c-0.848,0-1.591-0.602-1.768-1.423c-1.955-8.717-6.726-11.504-19.661-11.504c-14.484,0-16.169,5.047-16.169,8.821
		c0,4.58,1.987,5.914,21.543,8.502c19.35,2.562,28.542,6.181,28.542,19.787C925.629,209.248,914.188,217.102,894.233,217.102z"/>
	<path fill="#010101" d="M673.725,165.825c0.48-0.276,1.064-0.276,1.547,0l12.82,7.394c0.481,0.277,0.774,0.784,0.774,1.34v14.803
		c0,0.55-0.294,1.062-0.774,1.34l-12.82,7.393c-0.481,0.276-1.065,0.276-1.547,0l-12.803-7.393c-0.48-0.277-0.771-0.79-0.771-1.34
		v-14.801c0-0.557,0.292-1.062,0.771-1.341L673.725,165.825z"/>
</g>
</svg>
