<?xml version="1.0" encoding="utf-8"?>
<!-- Generator: Adobe Illustrator 16.2.1, SVG Export Plug-In . SVG Version: 6.00 Build 0)  -->
<!DOCTYPE svg PUBLIC "-//W3C//DTD SVG 1.1//EN" "http://www.w3.org/Graphics/SVG/1.1/DTD/svg11.dtd">
<svg version="1.1" id="Layer_1" xmlns="http://www.w3.org/2000/svg" xmlns:xlink="http://www.w3.org/1999/xlink" x="0px" y="0px"
	 width="659.236px" height="318.684px" viewBox="0 0 659.236 318.684" enable-background="new 0 0 659.236 318.684"
	 xml:space="preserve">
<path d="M165.591,65.611H49.989L0,318.684h59.363l12.498-65.612h56.237c53.114,3.126,112.476-40.613,112.476-115.601
	C240.573,93.73,215.58,68.735,165.591,65.611z M121.85,206.206H84.357l15.621-93.729h40.617c21.87,0,37.492,9.372,37.492,28.118
	C174.963,193.71,149.968,203.08,121.85,206.206z M221.828,253.07L271.817,0h59.364l-12.5,65.611h56.239
	c49.991,3.124,68.735,28.119,62.487,59.363L415.536,253.07h-62.485L374.92,137.47c3.126-15.622,3.126-24.994-18.747-24.994H309.31
	L281.19,253.07H221.828L221.828,253.07z M584.25,65.611H468.649L418.66,318.684h59.364l12.494-65.612h56.24
	c53.112,3.126,112.478-40.614,112.478-115.603C659.236,93.73,634.241,68.735,584.25,65.611z M540.511,206.206h-37.492l15.623-93.729
	h40.613c21.871,0,37.493,9.372,37.493,28.118C593.624,193.71,568.628,203.08,540.511,206.206z"/>
</svg>
