<?xml version="1.0" encoding="utf-8"?>
<!-- Generator: Adobe Illustrator 16.2.1, SVG Export Plug-In . SVG Version: 6.00 Build 0)  -->
<!DOCTYPE svg PUBLIC "-//W3C//DTD SVG 1.1//EN" "http://www.w3.org/Graphics/SVG/1.1/DTD/svg11.dtd">
<svg version="1.1" id="Layer_1" xmlns="http://www.w3.org/2000/svg" xmlns:xlink="http://www.w3.org/1999/xlink" x="0px" y="0px"
	 width="773.317px" height="402.55px" viewBox="0 0 773.317 402.55" enable-background="new 0 0 773.317 402.55"
	 xml:space="preserve">
<g>
	<path fill="#010101" d="M227.758,145.659H193.33l-13.243,79.448h31.781c23.835-2.646,45.021-10.592,47.67-55.612
		C259.538,153.604,246.296,145.659,227.758,145.659z"/>
	<path fill="#010101" d="M582.635,145.659h-34.426l-13.242,79.448h31.779c23.834-2.646,45.021-10.592,47.672-55.612
		C614.418,153.604,601.174,145.659,582.635,145.659z"/>
	<path fill="#010101" d="M386.659,0C173.113,0,0,90.113,0,201.275C0,312.436,173.113,402.55,386.659,402.55
		c213.542,0,386.658-90.114,386.658-201.275C773.316,90.113,600.201,0,386.659,0z M217.164,264.834h-47.669L158.9,320.45h-50.319
		l42.373-214.517h97.989c42.373,2.65,63.559,23.837,63.559,60.913C312.504,230.409,262.187,267.482,217.164,264.834z
		 M407.844,264.834l18.539-97.989c2.648-13.242,2.648-21.187-15.892-21.187h-39.724l-23.835,119.175h-50.32l42.375-214.515h50.318
		l-10.595,55.614h47.672c42.375,2.65,58.265,23.837,52.967,50.321l-18.537,108.581H407.844z M572.043,264.834h-47.67l-10.594,55.615
		H463.46l42.374-214.517h97.988c42.373,2.65,63.561,23.837,63.561,60.913C667.383,230.409,617.064,267.482,572.043,264.834z"/>
</g>
</svg>
