<?xml version="1.0" encoding="utf-8"?>
<!-- Generator: Adobe Illustrator 16.2.1, SVG Export Plug-In . SVG Version: 6.00 Build 0)  -->
<!DOCTYPE svg PUBLIC "-//W3C//DTD SVG 1.1//EN" "http://www.w3.org/Graphics/SVG/1.1/DTD/svg11.dtd">
<svg version="1.1" id="Layer_1" xmlns="http://www.w3.org/2000/svg" xmlns:xlink="http://www.w3.org/1999/xlink" x="0px" y="0px"
	 width="507.848px" height="501.818px" viewBox="0 0 507.848 501.818" enable-background="new 0 0 507.848 501.818"
	 xml:space="preserve">
<path d="M49.755,437.701c0,5.812-1.724,10.366-5.173,13.66c-3.45,3.294-8.178,4.939-14.184,4.939H6.45l0.061,27.497L0,483.899
	v-64.641l32.203-0.109c5.542,0,9.843,1.646,12.906,4.938c3.099,3.295,4.649,7.85,4.65,13.661 M43.189,437.985
	c0-9.067-4.34-13.604-13.021-13.604l-23.716-0.1v26.913h22.496c9.495,0,14.241-4.418,14.241-13.253 M96.893,462.638
	c0,6.899-1.802,12.287-5.407,16.161c-4.031,4.341-9.901,6.511-17.613,6.511c-3.681,0-6.898-0.5-9.649-1.511
	c-2.712-1.047-5.096-2.675-7.15-4.883c-3.72-4.146-5.581-9.573-5.581-16.279c0-6.74,1.802-12.089,5.406-16.041
	c3.992-4.418,9.649-6.627,16.974-6.627c7.75,0,13.602,2.15,17.555,6.451C95.072,450.298,96.893,455.703,96.893,462.638
	 M91.254,462.638c0-12.05-5.794-18.075-17.38-18.075c-5.232,0-9.339,1.607-12.323,4.822c-1.434,1.553-2.538,3.45-3.313,5.697
	c-0.736,2.209-1.104,4.729-1.104,7.556c0,5.542,1.434,9.96,4.3,13.255c2.907,3.257,7.054,4.885,12.441,4.885
	c5.967,0,10.405-1.687,13.311-5.058c1.396-1.513,2.423-3.354,3.081-5.523C90.925,468.025,91.254,465.507,91.254,462.638
	 M142.369,472.114c0,8.721-6.53,13.079-19.59,13.079c-3.991,0-7.363-0.308-10.114-0.929c-2.713-0.621-4.921-1.628-6.626-3.021
	c-1.318-1.047-2.364-2.422-3.139-4.129c-0.774-1.743-1.278-3.896-1.511-6.453l6.045-0.102c0,3.411,1.066,5.932,3.196,7.56
	c2.288,1.937,6.337,2.905,12.149,2.905c9.146,0,13.719-2.731,13.719-8.197c0-3.177-1.53-5.366-4.592-6.568
	c-0.621-0.274-4.321-0.887-11.103-1.86c-6.744-1.009-10.948-1.896-12.614-2.674c-3.604-1.704-5.406-4.785-5.406-9.241
	c0-4.342,1.608-7.576,4.825-9.707c1.589-0.888,3.564-1.569,5.928-2.036c2.403-0.498,5.173-0.752,8.313-0.752
	c12.556,0,18.833,4.707,18.833,14.124h-5.755c0-6.626-4.418-9.939-13.253-9.939c-4.496,0-7.847,0.686-10.056,2.035
	c-2.209,1.318-3.313,3.372-3.313,6.161c0,2.596,1.492,4.455,4.476,5.579c1.744,0.623,5.755,1.317,12.033,2.093
	c5.619,0.622,9.475,1.474,11.567,2.559c3.992,1.859,5.988,5.019,5.988,9.474 M168.734,483.974c-0.93,0.194-1.764,0.327-2.5,0.409
	c-0.697,0.102-1.201,0.11-1.51,0.11c-3.953,0-6.803-0.684-8.545-2.032c-1.744-1.396-2.616-3.818-2.616-7.268v-29.357h-7.208v-4.358
	h7.15l0.062-14.01h5.522v14.069l9.649-0.104v4.418l-9.649-0.102v28.541c0,2.131,0.465,3.604,1.395,4.417
	c0.97,0.817,2.675,1.221,5.116,1.221c0.349,0,0.737,0,1.163-0.103c0.427-0.102,1.066-0.214,1.918-0.406l0.06,4.417 M213.932,482.521
	c0,12.862-7.227,19.297-21.683,19.297c-7.556,0-12.923-1.239-16.101-3.72c-2.751-2.132-4.437-5.562-5.058-10.29l5.697-0.103
	c0.659,3.448,1.86,5.852,3.604,7.208c2.325,1.82,6.22,2.732,11.684,2.732c5.813,0,9.979-1.32,12.498-3.953
	c2.558-2.636,3.837-6.375,3.837-11.219l-0.062-7.558c-3.488,5.466-9.397,8.196-17.73,8.196c-6.935,0-12.304-1.898-16.101-5.697
	c-1.744-1.858-3.08-4.108-4.01-6.743c-0.892-2.675-1.337-5.717-1.337-9.127c0-6.82,1.802-12.031,5.406-15.636
	c3.799-3.952,9.301-5.932,16.508-5.932c4.922,0,8.933,1.028,12.033,3.082c1.046,0.773,2.79,2.654,5.231,5.639l0.062-7.324h5.522
	v41.1 M208.41,461.315c0-5.075-1.416-9.126-4.243-12.147c-2.79-3.062-6.898-4.594-12.324-4.594c-5.385,0-9.572,1.513-12.555,4.535
	c-2.945,2.983-4.417,7.131-4.417,12.438c0,11.434,5.792,17.148,17.38,17.148c2.52,0,4.748-0.389,6.685-1.164
	c1.938-0.772,3.662-1.917,5.174-3.432C206.975,471.119,208.41,466.857,208.41,461.315 M246.087,445.781
	c-1.667-0.308-3.216-0.468-4.649-0.468c-9.107,0-13.661,5.947-13.661,17.846l0.061,20.636h-5.522l-0.062-42.26l5.522-0.103v7.615
	h0.291c0.93-2.983,2.403-5.231,4.418-6.743c2.209-1.473,5.503-2.208,9.882-2.208c0.891,0,1.627,0,2.208,0
	c0.622,0,1.124,0,1.512,0.103v5.579 M291.596,463.802h-39.471c0,4.846,1.337,8.796,4.012,11.86c3.1,3.564,7.537,5.346,13.312,5.346
	c8.179,0,13.292-3.659,15.346-10.985h5.988c-0.892,4.187-3.003,7.713-6.337,10.579c-1.898,1.514-4.129,2.675-6.687,3.488
	c-2.519,0.857-5.271,1.278-8.253,1.278c-7.48,0-13.273-2.246-17.382-6.74c-3.796-4.032-5.696-9.479-5.696-16.336
	c0-6.821,1.977-12.208,5.93-16.16c3.951-3.991,9.514-5.985,16.681-5.985c3.839,0,7.189,0.561,10.061,1.686
	c2.864,1.085,5.271,2.771,7.205,5.058C289.832,450.994,291.596,456.633,291.596,463.802 M285.781,459.966
	c0-4.069-1.571-7.713-4.708-10.93c-3.101-3.217-7.11-4.825-12.034-4.825c-2.518,0-4.785,0.391-6.799,1.164
	c-2.016,0.734-3.817,1.88-5.407,3.43c-2.441,2.637-4.01,6.356-4.708,11.161H285.781 M363.888,466.679
	c0,15.175-10.217,22.764-30.65,22.764c-12.242,0-21.183-2.605-26.813-7.82c-4.607-4.281-6.912-10.8-6.912-19.55h8.241
	c0,14.104,8.495,21.156,25.485,21.156c8.145,0,14.035-1.467,17.663-4.398c3.071-2.515,4.607-6.494,4.607-11.939
	c0-5.398-2.093-9.19-6.283-11.382c-2.374-1.163-8.168-2.631-17.386-4.397c-11.59-2.094-19.108-4.211-22.552-6.354
	c-4.982-3.118-7.474-8.379-7.474-15.78c0-6.981,2.119-12.148,6.354-15.5c4.562-3.723,12.383-5.587,23.46-5.587
	c20.018,0,30.025,7.938,30.025,23.812h-8.308c0-11.87-7.426-17.806-22.272-17.806c-7.449,0-12.896,1.188-16.34,3.561
	c-3.261,2.56-4.89,6.309-4.89,11.242c0,5.168,2.097,8.818,6.283,10.962c2.234,1.211,8.8,2.888,19.69,5.026
	c10.239,1.862,17.153,4.003,20.738,6.424C361.445,454.136,363.888,459.324,363.888,466.679 M445.483,489.233l-5.029,5.444
	l-12.147-10.124c-2.562,1.629-5.681,2.863-9.357,3.7c-3.676,0.836-7.982,1.256-12.917,1.256c-12.613,0-22.575-3.747-29.886-11.24
	c-7.261-7.541-10.893-17.434-10.893-29.676c0-12.521,3.607-22.46,10.823-29.814c7.214-7.355,17.151-11.032,29.815-11.032
	c6.516,0,12.31,0.979,17.385,2.933c5.073,1.955,9.402,4.936,12.986,8.938c6.704,7.263,10.056,16.921,10.056,28.979
	c0,6.748-1.026,12.706-3.072,17.874c-2.05,5.12-5.214,9.474-9.495,13.057L445.483,489.233 M438.43,448.596
	c0-5.307-0.723-10.032-2.165-14.174c-1.442-4.188-3.679-7.844-6.704-10.963c-5.724-6.379-13.592-9.565-23.6-9.565
	c-9.869,0-17.805,3.047-23.811,9.146c-5.959,6.099-8.938,14.615-8.938,25.556c0,10.521,3,18.946,9.005,25.276
	c6.052,6.283,13.965,9.426,23.741,9.426c4.794,0,9.125-0.745,12.987-2.233c3.862-1.491,7.331-3.701,10.401-6.635
	c6.053-6.33,9.078-14.941,9.078-25.834 M507.777,487.417l-56.21,0.103v-77.645l7.752-0.141v71.219h48.528l-0.071,6.492
	 M201.725,118.753L201.725,118.753c0.993,0.633,2.119,1.115,3.329,1.282c4.27,0.596,7.926-2.874,8.157-4.535
	c0.232-1.664-3.045-3.496-7.324-4.092c-4.273-0.595-7.93,0.271-8.156,1.932l0,0h-0.001
	C197.562,114.533,199.207,117.148,201.725,118.753L201.725,118.753z M199.092,116.037c-0.756-1.001-1.201-2.017-1.151-2.613
	l0.008-0.054c0.155-1.136,2.336-1.93,5.306-1.93c0.841,0,1.717,0.063,2.603,0.187c2.042,0.284,3.917,0.859,5.277,1.619
	c1.28,0.715,1.957,1.526,1.86,2.224c-0.183,1.312-3.078,4.415-6.959,4.415c-0.317,0-0.637-0.022-0.951-0.065
	c-1.103-0.153-2.129-0.583-3.046-1.139l0,0c-0.189-0.115-0.377-0.23-0.556-0.355l0,0
	C200.498,117.636,199.675,116.811,199.092,116.037z M406.609,213.185c-0.697-2.109-3.83-8.816-14.803-6.55
	c-17.378,3.586-27.604,3.23-33.576,1.853c38.525-63.95,58.729-145.898,40.234-169.534C378.817,13.847,349.967,0.38,315.033,0.008
	c-25.787-0.268-46.105,6.612-48.51,7.711c-8.367-2.104-17.495-3.396-27.442-3.561c-16.551-0.264-31.02,3.356-43.243,10.758
	c-7.479-2.431-19.209-5.762-32.772-7.886c-31.338-4.91-56.135-1.045-73.703,11.479C68.755,33.204,59.238,59.27,61.074,95.987
	c0.614,12.28,8.074,50.686,19.957,88.006c15.405,48.381,31.821,75.782,48.793,81.444c1.956,0.65,4.212,1.108,6.697,1.108
	c5.71-0.001,12.625-2.423,19.848-10.43c0.938,5.046,7.96,7.561,15.749,9.868c0.158,0.047,0.318,0.086,0.481,0.115
	c1.986,0.361,3.931,0.748,5.842,1.129c6.694,1.328,13.016,2.584,19.469,2.584c0.001,0,0.001,0,0.002,0
	c8.232,0,15.452-2.103,22.35-6.604c0.044,32.635,2.595,60.369,6.761,70.786c1.803,4.507,11.281,24.14,39.312,24.138
	c4.597,0,9.688-0.527,15.329-1.736c28.463-6.102,41.268-18.43,45.673-43.975c2.572-14.906,5.949-42.816,7.42-57.455
	c3.812,0.947,8.441,1.385,13.391,1.385c12.022-0.002,25.944-2.57,34.678-6.625C397.931,242.706,410.159,223.925,406.609,213.185z
	 M375.592,240.997c-8.978,4.166-21.125,6.119-31.501,6.119c-6.434,0-12.185-0.751-16.082-2.191
	c-1.773,16.604-5.876,49.81-8.236,63.494c-4.253,24.668-14.74,35.337-40.077,40.771c-4.231,0.906-8.075,1.312-11.57,1.312
	c-8.439,0-14.831-2.374-19.711-5.777c-5.31-2.709-9.999-7.121-12.815-14.162c-0.58-1.451-1.149-3.492-1.694-6.047
	c-0.083-0.207-0.166-0.414-0.243-0.608c-3.893-9.732-5.174-43.568-4.834-76.002c-8.881,8.958-20.338,13.653-33.577,13.653
	c-5.103,0-10.475-0.697-15.967-2.072c-2.618-0.652-6.078-1.926-8.99-3.778c-0.471-0.246-0.631-0.426-1.078-0.735
	c-2.718-1.978-4.729-4.522-4.665-7.625c0.138-6.623,8.939-9.199,15.545-10.562c16.048-3.304,17.225-4.797,22.175-11.082
	c1.049-1.333,2.293-2.91,3.833-4.72c-0.072-0.669-0.125-1.341-0.14-2.021c-7.488-0.016-14.827-1.993-21.426-5.698
	c-3.659,3.879-15.68,16.777-28.598,32.318c-4.612,5.544-9.084,8.543-13.163,9.977c-5.003,2.787-8.549,1.608-10.03,1.114
	c-0.88-0.294-1.756-0.688-2.631-1.149C94.513,242.804,69.731,120.396,68.6,97.762c-1.724-34.46,7.115-58.814,26.27-72.385
	c15.858-11.236,39.094-14.782,67.196-10.255c17.194,2.769,31.122,7.669,35.889,9.471c12.034-8.37,26.626-12.486,43.578-12.194
	c9.105,0.149,17.471,1.314,25.148,3.214v-0.391c0.764,0.137,1.526,0.273,2.275,0.422c4.797-1.726,21.521-6.622,42.393-6.622
	c5.808,0,12.209,0.399,18.907,1.47c20.947,2.887,43.562,11.958,60.935,34.155c2.333,2.982,3.832,7.765,4.508,13.977
	c2.454,13.339,0.646,32.889-5.422,56.391c-8.524,33.008-24.312,68.384-43.516,97.673c0,0-0.284,0.491-0.579,0.949
	c3.337,2.815,13.638,6.032,38.018,0.999c7.719-1.595,12.317-0.322,13.674,3.777C400.447,226.196,385.958,236.182,375.592,240.997z
	 M334.853,212.977c-5.526,1.64-14.875,5.533-13.967,23.462c-0.055,0.69-0.133,1.576-0.229,2.598l0,0
	c-0.002,0.028-0.008,0.062-0.012,0.09c-0.044,0.469-0.093,0.969-0.146,1.5c-0.003,0.017-0.003,0.034-0.005,0.052
	c-1.476,14.663-6.001,51.769-8.524,66.393c-3.671,21.302-11.918,29.654-33.935,34.376c-23.346,5.002-31.586-6.892-37.023-20.482
	c-3.44-8.602-5.14-47.028-3.955-89.385c0.013-0.496-0.075-0.967-0.229-1.409c-0.127-0.939-0.302-1.888-0.577-2.847
	c-1.641-5.732-5.774-10.711-10.532-12.684c-1.525-0.632-3.833-1.587-6.6-1.587c-1.647,0-3.233,0.341-4.776,0.993
	c0.85-4.508,2.771-9.676,4.888-15.351l0.759-2.038c0.867-2.33,1.944-4.723,3.085-7.258c6.054-13.449,14.344-31.868,5.328-73.56
	c-2.224-10.28-8.001-16.97-16.688-19.665c-0.285-0.088-0.579-0.165-0.87-0.245c-0.451-0.124-0.907-0.237-1.372-0.34
	c-0.298-0.066-0.596-0.131-0.899-0.189c-0.602-0.112-1.214-0.208-1.837-0.287c-0.166-0.021-0.325-0.052-0.491-0.07
	c-0.784-0.088-1.589-0.143-2.409-0.178c-0.267-0.012-0.54-0.014-0.81-0.021c-0.622-0.013-1.252-0.013-1.894,0.003
	c-0.269,0.007-0.538,0.011-0.81,0.023c-0.894,0.04-1.799,0.097-2.728,0.194c-10.157,1.052-19.469,5.161-24.116,7.516
	c-1.777,0.901-3.287,1.745-4.605,2.541c0.031-0.453,0.065-0.92,0.102-1.399c0.034-0.449,0.074-0.914,0.115-1.385
	c0.001-0.015,0.002-0.031,0.004-0.045c0.085-0.985,0.186-2.022,0.301-3.1c0.001-0.008,0.002-0.016,0.003-0.023l0,0
	c1.783-16.606,7.376-43.526,24.831-61.155c11.942-12.061,27.818-17.992,47.173-17.698c61.703,1.011,89.154,51.423,96.123,70.537l0,0
	c0.006,0.015,0.011,0.027,0.017,0.042c0.19,0.522,0.365,1.021,0.526,1.496c0.004,0.018,0.009,0.034,0.014,0.053
	c0.162,0.478,0.31,0.935,0.44,1.359c-1.159-0.136-2.293-0.248-3.407-0.342c-0.392-0.034-0.771-0.054-1.157-0.082
	c-0.706-0.052-1.412-0.103-2.101-0.137c-0.468-0.024-0.924-0.035-1.383-0.05c-0.582-0.021-1.161-0.04-1.729-0.046
	c-0.498-0.007-0.984-0.003-1.471,0c-0.502,0.003-1.003,0.009-1.494,0.023c-0.514,0.014-1.019,0.036-1.519,0.062
	c-0.436,0.022-0.863,0.048-1.289,0.079c-0.528,0.039-1.051,0.083-1.563,0.134c-0.361,0.036-0.716,0.078-1.071,0.121
	c-0.549,0.066-1.093,0.135-1.624,0.216c-0.279,0.043-0.546,0.093-0.818,0.139c-0.584,0.101-1.167,0.204-1.729,0.324
	c-0.145,0.03-0.282,0.066-0.423,0.099c-4.479,1.006-8.262,2.634-11.32,4.896l0,0c-0.517,0.382-1.01,0.782-1.488,1.199
	c-0.011,0.01-0.02,0.019-0.029,0.028c-0.477,0.417-0.928,0.851-1.362,1.304c-0.767,0.799-1.485,1.637-2.121,2.547
	c-13.833,19.775,7.963,58.86,18.438,77.644c1.959,3.512,3.649,6.544,4.2,7.883c3.388,8.207,7.791,13.711,11.01,17.731
	c1.48,1.852,2.815,3.521,3.586,4.889c-0.222,0.062-0.437,0.123-0.632,0.18c-0.363,0.102-0.759,0.213-1.171,0.335
	C334.853,212.977,334.853,212.977,334.853,212.977z M385.801,222.391c1.532-0.316,2.666-0.455,3.493-0.502
	c-2.257,2.865-8.231,7.839-17.037,11.926c-11.057,5.132-32.684,7.119-41.322,3.796c-1.795-0.691-2.128-1.302-2.131-1.302
	c-0.752-13.204,4.619-14.712,9.359-16.043c0.695-0.195,1.657-0.465,2.645-0.886c0.535,0.477,1.151,0.954,1.855,1.419
	C350.705,226.105,365.218,226.641,385.801,222.391z M211.812,195.926l0.754-2.026c0.96-2.582,2.089-5.093,3.288-7.752
	c5.914-13.139,13.274-29.492,4.809-68.636c-1.764-8.152-6.104-12.824-13.275-14.281c-0.414-0.084-0.832-0.154-1.253-0.215
	c-0.399-0.06-0.803-0.105-1.209-0.146c-0.009-0.001-0.017-0.003-0.026-0.003l0,0c-14.639-1.463-32.968,8.82-36.305,12.177
	c0.033,0.926,0.109,2.195,0.197,3.688c0.519,8.739,1.483,25.003-1.125,43.655c-1.922,13.74,2.278,27.153,11.523,36.8
	c6.648,6.937,15.215,11.038,24.154,11.743l0,0c0.007,0,0.013,0,0.021,0.001c0.577,0.045,1.155,0.078,1.735,0.095
	c0.589,0.019,1.181,0.022,1.771,0.01C207.933,206.328,209.797,201.331,211.812,195.926z M201.415,118.812
	c-1.385-0.935-2.317-2.039-2.673-2.511c-0.871-1.155-1.331-2.273-1.229-2.993l0.041-0.188c0.36-1.294,2.557-2.119,5.702-2.119
	c0.489,0,0.99,0.026,1.497,0.067l0,0c0.386,0.031,0.774,0.069,1.166,0.123c0.032,0.005,0.059,0.011,0.09,0.016h-0.001
	c2.061,0.296,3.955,0.88,5.341,1.655c1.467,0.82,2.206,1.768,2.081,2.668c-0.234,1.683-3.439,4.793-7.393,4.793
	c-0.338,0-0.678-0.023-1.012-0.07c-1.412-0.196-2.612-0.771-3.594-1.431l0,0C201.425,118.819,201.42,118.815,201.415,118.812z
	 M337.678,117.403c0.791-5.128,1.534-10.025,1.534-15.533c-13.524-1.81-23.312-0.744-29.259,3.148
	c-0.114,0.074-0.232,0.146-0.344,0.223c-0.247,0.17-0.481,0.349-0.717,0.529c-0.183,0.142-0.363,0.285-0.536,0.434
	c-0.186,0.158-0.369,0.317-0.543,0.482c-0.222,0.203-0.424,0.415-0.625,0.628c-0.126,0.134-0.258,0.265-0.379,0.402
	c-0.316,0.365-0.62,0.742-0.896,1.138c-10.992,15.711,9.929,53.228,18.861,69.249c2.252,4.035,3.878,6.951,4.605,8.72
	c1.165,2.822,2.464,5.264,3.802,7.436c7.286-13.8,5.647-27.716,4.026-41.215c-0.789-6.544-1.531-12.727-1.33-18.907
	C336.083,127.767,336.895,122.498,337.678,117.403z M319.496,116.822c-3.826,0-7.062-3.09-7.29-4.698
	c-0.144-1.07,1.02-2.174,2.941-3.013l0,0c0.12-0.052,0.244-0.103,0.368-0.153l0,0c1.163-0.464,2.565-0.834,4.111-1.05
	c0.9-0.125,1.792-0.188,2.65-0.188c3.233,0,5.445,0.868,5.635,2.213c0.148,1.082-1.068,3.158-2.999,4.75
	c-0.139,0.113-0.28,0.223-0.424,0.33l0,0c-1.154,0.862-2.523,1.537-3.995,1.741C320.167,116.799,319.832,116.822,319.496,116.822z
	 M172.828,214.241c-1.998,2.179-4.333,4.756-6.911,7.647c-4.757,5.334-10.32,11.718-16.065,18.631
	c-8.635,10.382-14.809,8.32-16.836,7.645c-29.792-9.936-55.355-127.701-56.51-150.797c-1.578-31.569,6.135-53.613,22.927-65.519
	c25.784-18.282,67.093-8.92,86.517-2.945c0.126,0.039,0.245,0.076,0.369,0.114c0.666,0.206,1.302,0.407,1.912,0.604
	c0.136,0.043,0.271,0.086,0.403,0.129c0.728,0.235,1.428,0.465,2.067,0.681c-0.708,0.657-1.414,1.32-2.098,2.013
	c-2.655,2.683-5.056,5.545-7.232,8.528c-0.442,0.605-0.859,1.223-1.282,1.838c-0.252,0.367-0.514,0.73-0.759,1.1
	c-0.396,0.595-0.772,1.197-1.15,1.799c-0.251,0.401-0.509,0.8-0.753,1.204c-0.363,0.599-0.712,1.205-1.059,1.81
	c-0.236,0.413-0.477,0.826-0.708,1.242c-0.336,0.608-0.662,1.22-0.984,1.834c-0.221,0.419-0.439,0.839-0.652,1.259
	c-0.313,0.618-0.617,1.237-0.916,1.859c-0.202,0.419-0.399,0.839-0.593,1.26c-0.292,0.628-0.58,1.258-0.857,1.889
	c-0.179,0.411-0.354,0.822-0.528,1.232c-0.274,0.646-0.546,1.293-0.807,1.939c-0.154,0.385-0.3,0.77-0.451,1.155
	c-0.261,0.674-0.524,1.349-0.772,2.023c-0.119,0.326-0.23,0.651-0.347,0.977c-0.261,0.732-0.524,1.465-0.769,2.195
	c-0.03,0.086-0.056,0.172-0.084,0.258c-0.906,2.722-1.696,5.422-2.391,8.077c-0.065,0.249-0.137,0.5-0.199,0.748
	c-0.177,0.692-0.341,1.376-0.506,2.062c-0.078,0.33-0.16,0.662-0.237,0.991c-0.151,0.648-0.291,1.29-0.43,1.93
	c-0.078,0.352-0.155,0.706-0.228,1.056c-0.131,0.621-0.254,1.234-0.374,1.846c-0.071,0.357-0.14,0.715-0.207,1.069
	c-0.114,0.597-0.222,1.189-0.326,1.776c-0.062,0.353-0.122,0.704-0.182,1.053c-0.098,0.578-0.193,1.152-0.284,1.719
	c-0.053,0.338-0.103,0.671-0.154,1.004c-0.085,0.564-0.169,1.125-0.247,1.675c-0.045,0.316-0.086,0.625-0.127,0.938
	c-0.073,0.548-0.148,1.097-0.213,1.629c-0.035,0.283-0.065,0.555-0.097,0.833c-0.065,0.547-0.13,1.098-0.188,1.627
	c-0.013,0.117-0.022,0.228-0.035,0.344c-0.139,1.318-0.258,2.577-0.354,3.767c-0.007,0.084-0.015,0.175-0.022,0.258
	c-0.035,0.453-0.065,0.88-0.096,1.312c-0.019,0.251-0.039,0.512-0.055,0.757c-0.026,0.384-0.046,0.747-0.068,1.112
	c-0.017,0.266-0.033,0.538-0.046,0.792c-0.019,0.339-0.033,0.66-0.048,0.979c-0.012,0.254-0.025,0.51-0.034,0.752
	c-0.012,0.296-0.023,0.579-0.032,0.856c-0.009,0.235-0.017,0.468-0.024,0.69c-0.007,0.252-0.013,0.497-0.019,0.73
	c-0.006,0.221-0.01,0.433-0.013,0.636c-0.004,0.2-0.007,0.4-0.011,0.584c-0.002,0.201-0.004,0.387-0.005,0.566
	c0,0.157-0.003,0.317-0.003,0.458c0,0.175,0,0.33,0,0.48c0,0.106,0,0.223,0.001,0.316c0.001,0.157,0.002,0.284,0.004,0.403
	c0,0.052,0.001,0.121,0.001,0.166c0.003,0.145,0.006,0.258,0.008,0.324c0,1.143,0.095,2.781,0.229,5.037
	c0.501,8.464,1.435,24.217-1.064,42.09c-0.128,0.919-0.226,1.836-0.308,2.751c-0.032,0.348-0.051,0.693-0.075,1.041
	c-0.039,0.551-0.072,1.102-0.094,1.65c-0.018,0.447-0.03,0.894-0.035,1.34c-0.006,0.417-0.005,0.831-0.002,1.247
	c0.004,0.532,0.01,1.063,0.029,1.592c0.009,0.229,0.026,0.456,0.037,0.684c0.156,3.042,0.561,6.039,1.217,8.963
	c0.001,0.011,0.005,0.021,0.006,0.032c2.03,9.006,6.396,17.316,12.875,24.076c1.41,1.47,2.898,2.823,4.444,4.079
	c-0.201,0.215-0.432,0.462-0.66,0.707c-0.114,0.122-0.22,0.236-0.341,0.364c-0.17,0.183-0.36,0.388-0.544,0.585
	c-0.211,0.226-0.418,0.451-0.645,0.696c-0.111,0.118-0.232,0.25-0.348,0.373c-0.322,0.349-0.651,0.704-1.003,1.084
	c-0.061,0.067-0.125,0.138-0.188,0.204c-0.412,0.447-0.839,0.912-1.288,1.4C172.878,214.186,172.852,214.214,172.828,214.241z
	 M289.84,18.715c0.02-0.004,0.041-0.007,0.059-0.011c6.117-0.998,13.416-1.764,21.45-1.764c31.045,0,55.531,11.17,72.771,33.2
	c6.729,8.599,6.138,33.287-1.51,62.895c-7.487,28.992-20.727,59.864-36.964,86.595c-0.058,0.094-0.114,0.188-0.171,0.281
	c-1.221,2.008-2.456,3.997-3.713,5.954c-0.771-1.051-1.618-2.119-2.512-3.238c-0.325-0.406-0.664-0.828-1.004-1.256
	c10.682-17.107,8.635-34.168,6.82-49.272c-0.75-6.237-1.459-12.128-1.278-17.708c0.188-5.893,0.964-10.92,1.714-15.783
	c0.959-6.229,1.853-12.143,1.572-19.363c0.186-0.669,0.271-1.475,0.179-2.463c-0.645-6.839-8.503-27.362-24.539-46.03
	c-9.166-10.669-22.722-22.666-41.41-30.359c0.795-0.184,1.635-0.369,2.508-0.553c0.049-0.01,0.096-0.021,0.145-0.031
	c0.878-0.184,1.796-0.365,2.747-0.544c0.038-0.007,0.077-0.015,0.116-0.022C287.791,19.062,288.799,18.885,289.84,18.715z
	 M228.638,229.501c0.473,1.653,0.996,4.804-0.813,7.339c-0.538,0.751-1.09,1.472-1.654,2.173c-0.094,0.117-0.193,0.228-0.289,0.344
	c-0.49,0.598-0.99,1.181-1.5,1.741c-0.06,0.065-0.122,0.127-0.182,0.194c-0.562,0.61-1.137,1.196-1.725,1.763
	c-0.017,0.017-0.034,0.031-0.051,0.047c-0.624,0.599-1.262,1.174-1.914,1.722c-0.003,0.003-0.008,0.007-0.012,0.011c0,0,0,0,0-0.001
	c-6.937,5.842-15.387,8.807-25.25,8.807c-4.197,0-8.639-0.566-13.207-1.648l0,0c-0.281-0.066-0.556-0.114-0.838-0.185
	c-4.007-1.002-7.375-2.967-8.464-4.168c0.803-0.609,3.077-1.887,8.953-3.099c18.077-3.722,20.653-6.136,26.798-13.938
	c1.434-1.82,3.058-3.883,5.318-6.406c2.881-3.225,4.71-3.225,5.312-3.225c1.104,0,2.223,0.426,3.569,0.985
	C225.22,223.004,227.667,226.107,228.638,229.501z"/>
</svg>
