<?xml version="1.0" encoding="utf-8"?>
<!-- Generator: Adobe Illustrator 16.2.1, SVG Export Plug-In . SVG Version: 6.00 Build 0)  -->
<!DOCTYPE svg PUBLIC "-//W3C//DTD SVG 1.1//EN" "http://www.w3.org/Graphics/SVG/1.1/DTD/svg11.dtd">
<svg version="1.1" id="Layer_1" xmlns="http://www.w3.org/2000/svg" xmlns:xlink="http://www.w3.org/1999/xlink" x="0px" y="0px"
	 width="455.104px" height="470.549px" viewBox="0 0 455.104 470.549" enable-background="new 0 0 455.104 470.549"
	 xml:space="preserve">
<path d="M185.094,156.029L185.094,156.029c1.305,0.833,2.783,1.464,4.374,1.685c5.61,0.783,10.414-3.775,10.717-5.959
	c0.305-2.186-4-4.594-9.623-5.375c-5.614-0.783-10.418,0.356-10.715,2.537l0,0h-0.002
	C179.625,150.484,181.785,153.92,185.094,156.029L185.094,156.029z M181.634,152.46c-0.993-1.315-1.578-2.651-1.513-3.433
	l0.01-0.071c0.205-1.493,3.07-2.536,6.972-2.536c1.104,0,2.255,0.083,3.42,0.246c2.682,0.373,5.146,1.129,6.933,2.127
	c1.682,0.94,2.571,2.006,2.445,2.923c-0.24,1.723-4.044,5.801-9.144,5.801c-0.417,0-0.837-0.029-1.249-0.086
	c-1.449-0.2-2.798-0.765-4.002-1.496l0,0c-0.249-0.151-0.496-0.302-0.731-0.467l0,0C183.48,154.56,182.4,153.476,181.634,152.46z
	 M454.29,280.101c-0.917-2.77-5.031-11.582-19.448-8.604c-22.832,4.713-36.268,4.244-44.115,2.436
	c50.617-84.022,77.165-191.695,52.864-222.75C417.775,18.193,379.869,0.5,333.968,0.01c-33.883-0.353-60.577,8.687-63.737,10.132
	c-10.992-2.765-22.984-4.463-36.057-4.678c-21.746-0.346-40.756,4.41-56.816,14.135c-9.826-3.194-25.239-7.571-43.06-10.361
	C93.124,2.785,60.542,7.864,37.46,24.321C10.384,43.625-2.12,77.875,0.293,126.116c0.806,16.135,10.608,66.595,26.222,115.631
	c20.239,63.567,41.81,99.569,64.109,107.008c2.57,0.854,5.535,1.459,8.8,1.459c7.502-0.003,16.587-3.185,26.078-13.704
	c1.233,6.629,10.459,9.936,20.691,12.966c0.208,0.062,0.419,0.112,0.633,0.151c2.609,0.477,5.164,0.984,7.675,1.482
	c8.795,1.746,17.101,3.396,25.581,3.396c0,0,0,0,0.003,0c10.816,0,20.302-2.763,29.366-8.677
	c0.058,42.879,3.409,79.317,8.882,93.006c2.369,5.923,14.821,31.718,51.653,31.715c6.039,0,12.729-0.692,20.141-2.28
	c37.397-8.016,54.222-24.216,60.008-57.776c3.382-19.588,7.818-56.258,9.752-75.492c5.008,1.247,11.09,1.818,17.594,1.818
	c15.797,0,34.087-3.377,45.562-8.705C442.888,318.89,458.955,294.214,454.29,280.101z M413.537,316.643
	c-11.796,5.475-27.755,8.041-41.389,8.041c-8.453,0-16.01-0.988-21.131-2.879c-2.333,21.814-7.72,65.442-10.822,83.423
	c-5.587,32.413-19.367,46.433-52.656,53.57c-5.561,1.189-10.609,1.724-15.202,1.724c-11.091,0-19.485-3.119-25.899-7.591
	c-6.978-3.562-13.138-9.356-16.836-18.608c-0.763-1.905-1.512-4.59-2.227-7.945c-0.11-0.271-0.217-0.544-0.319-0.798
	c-5.115-12.788-6.799-57.244-6.352-99.86c-11.669,11.771-26.723,17.939-44.117,17.939c-6.705,0-13.763-0.916-20.978-2.723
	c-3.44-0.857-7.987-2.531-11.813-4.966c-0.618-0.323-0.83-0.56-1.416-0.965c-3.571-2.601-6.214-5.942-6.13-10.021
	c0.181-8.703,11.745-12.088,20.425-13.877c21.084-4.342,22.631-6.305,29.135-14.562c1.378-1.75,3.013-3.822,5.037-6.2
	c-0.095-0.879-0.165-1.762-0.183-2.656c-9.838-0.021-19.481-2.617-28.151-7.486c-4.807,5.099-20.602,22.045-37.576,42.465
	c-6.059,7.285-11.935,11.225-17.293,13.107c-6.573,3.662-11.232,2.114-13.179,1.463c-1.156-0.385-2.308-0.902-3.457-1.51
	c-46.78-16.712-79.34-177.542-80.827-207.28c-2.265-45.277,9.348-77.277,34.517-95.106c20.836-14.763,51.365-19.422,88.289-13.475
	c22.589,3.639,40.89,10.078,47.154,12.444c15.811-10.998,34.983-16.406,57.257-16.021c11.963,0.195,22.955,1.726,33.043,4.222V20
	c1.004,0.18,2.006,0.359,2.99,0.555c6.303-2.268,28.277-8.701,55.699-8.701c7.63,0,16.042,0.525,24.841,1.932
	c27.523,3.793,57.236,15.711,80.062,44.875c3.062,3.919,5.034,10.203,5.923,18.364c3.224,17.527,0.85,43.212-7.126,74.091
	c-11.199,43.37-31.941,89.85-57.173,128.332c0,0-0.374,0.646-0.762,1.248c4.386,3.697,17.918,7.924,49.95,1.312
	c10.144-2.097,16.186-0.422,17.966,4.963C446.194,297.197,427.158,310.318,413.537,316.643z M360.011,279.828
	c-7.263,2.154-19.546,7.271-18.354,30.826c-0.07,0.906-0.174,2.07-0.301,3.414l0,0c-0.005,0.037-0.012,0.08-0.016,0.117
	c-0.057,0.617-0.122,1.273-0.191,1.973c-0.005,0.021-0.005,0.043-0.008,0.067c-1.938,19.265-7.884,68.019-11.198,87.233
	c-4.825,27.989-15.66,38.963-44.588,45.166c-30.674,6.572-41.5-9.053-48.645-26.911c-4.52-11.303-6.755-61.791-5.195-117.442
	c0.016-0.65-0.101-1.271-0.303-1.852c-0.165-1.234-0.396-2.48-0.757-3.74c-2.156-7.531-7.587-14.072-13.838-16.665
	c-2.005-0.83-5.036-2.086-8.672-2.086c-2.164,0-4.247,0.447-6.275,1.304c1.117-5.922,3.641-12.712,6.422-20.168l0.997-2.678
	c1.139-3.061,2.555-6.205,4.053-9.536c7.955-17.669,18.848-41.87,7.001-96.648c-2.922-13.507-10.513-22.297-21.926-25.838
	c-0.375-0.117-0.761-0.216-1.144-0.321c-0.591-0.163-1.192-0.312-1.803-0.447c-0.391-0.087-0.783-0.173-1.181-0.248
	c-0.791-0.148-1.595-0.274-2.414-0.378c-0.217-0.029-0.426-0.068-0.645-0.092c-1.03-0.116-2.088-0.188-3.165-0.233
	c-0.351-0.016-0.709-0.019-1.064-0.027c-0.816-0.017-1.646-0.017-2.487,0.003c-0.354,0.009-0.707,0.015-1.065,0.031
	c-1.174,0.052-2.363,0.127-3.584,0.254c-13.346,1.382-25.581,6.781-31.687,9.875c-2.335,1.184-4.318,2.292-6.05,3.337
	c0.04-0.593,0.085-1.208,0.133-1.838c0.045-0.589,0.098-1.2,0.151-1.82c0.001-0.02,0.003-0.04,0.005-0.06
	c0.112-1.294,0.245-2.658,0.396-4.072c0.001-0.011,0.002-0.021,0.003-0.031l0,0c2.343-21.818,9.691-57.189,32.625-80.351
	c15.69-15.845,36.55-23.639,61.98-23.253c81.07,1.329,117.139,67.565,126.295,92.679l0,0c0.007,0.019,0.014,0.035,0.021,0.054
	c0.251,0.687,0.48,1.343,0.692,1.966c0.007,0.023,0.012,0.045,0.019,0.069c0.213,0.627,0.405,1.229,0.578,1.786
	c-1.523-0.179-3.015-0.326-4.478-0.45c-0.515-0.044-1.012-0.07-1.521-0.108c-0.928-0.068-1.854-0.134-2.759-0.18
	c-0.612-0.03-1.212-0.046-1.815-0.066c-0.765-0.026-1.527-0.052-2.271-0.06c-0.653-0.009-1.293-0.003-1.933,0
	c-0.659,0.004-1.317,0.013-1.964,0.031c-0.674,0.019-1.338,0.047-1.994,0.082c-0.571,0.028-1.136,0.063-1.692,0.103
	c-0.695,0.051-1.382,0.109-2.057,0.177c-0.475,0.047-0.94,0.102-1.407,0.158c-0.723,0.087-1.437,0.177-2.135,0.285
	c-0.363,0.056-0.717,0.123-1.076,0.183c-0.768,0.132-1.533,0.268-2.271,0.425c-0.188,0.041-0.37,0.088-0.555,0.13
	c-5.887,1.323-10.854,3.461-14.873,6.431l0,0c-0.68,0.502-1.327,1.027-1.956,1.575c-0.015,0.013-0.026,0.025-0.04,0.038
	c-0.624,0.548-1.22,1.118-1.788,1.712c-1.008,1.05-1.952,2.152-2.789,3.348c-18.175,25.982,10.462,77.336,24.225,102.015
	c2.572,4.615,4.797,8.599,5.52,10.356c4.45,10.785,10.238,18.017,14.464,23.298c1.948,2.433,3.702,4.627,4.713,6.424
	c-0.289,0.082-0.573,0.162-0.83,0.235c-0.479,0.134-0.996,0.28-1.538,0.44C360.011,279.828,360.011,279.828,360.011,279.828z
	 M426.951,292.195c2.013-0.414,3.502-0.597,4.589-0.658c-2.965,3.765-10.815,10.3-22.385,15.67
	c-14.526,6.742-42.942,9.354-54.293,4.988c-2.358-0.91-2.795-1.711-2.8-1.711c-0.987-17.35,6.069-19.332,12.298-21.08
	c0.914-0.256,2.178-0.61,3.475-1.164c0.704,0.627,1.514,1.252,2.438,1.865C380.836,297.076,399.907,297.781,426.951,292.195z
	 M198.348,257.427l0.99-2.663c1.262-3.393,2.746-6.691,4.32-10.186c7.77-17.264,17.44-38.749,6.318-90.18
	c-2.317-10.712-8.021-16.85-17.441-18.764c-0.543-0.11-1.094-0.203-1.647-0.283c-0.526-0.078-1.056-0.138-1.589-0.193
	c-0.013-0.001-0.022-0.003-0.035-0.004l0,0c-19.234-1.923-43.317,11.589-47.701,16c0.044,1.216,0.144,2.884,0.26,4.844
	c0.68,11.481,1.949,32.852-1.479,57.358c-2.525,18.053,2.994,35.675,15.141,48.35c8.735,9.114,19.99,14.502,31.736,15.43l0,0
	c0.009,0,0.017,0,0.027,0.001c0.757,0.061,1.518,0.104,2.279,0.126c0.774,0.022,1.551,0.027,2.328,0.013
	C193.25,271.092,195.699,264.527,198.348,257.427z M184.686,156.107c-1.82-1.228-3.045-2.679-3.512-3.298
	c-1.145-1.518-1.748-2.988-1.616-3.933l0.054-0.247c0.473-1.701,3.359-2.785,7.492-2.785c0.642,0,1.3,0.035,1.965,0.088l0,0
	c0.509,0.04,1.018,0.091,1.532,0.162c0.042,0.006,0.078,0.015,0.119,0.021h-0.001c2.708,0.388,5.197,1.157,7.02,2.174
	c1.927,1.077,2.898,2.322,2.733,3.506c-0.307,2.211-4.52,6.298-9.714,6.298c-0.443,0-0.891-0.031-1.329-0.093
	c-1.856-0.257-3.433-1.013-4.722-1.879l0,0C184.699,156.116,184.693,156.111,184.686,156.107z M363.722,154.254
	c1.038-6.737,2.017-13.171,2.017-20.408c-17.771-2.377-30.632-0.978-38.443,4.137c-0.148,0.098-0.305,0.192-0.45,0.292
	c-0.325,0.224-0.634,0.459-0.94,0.696c-0.24,0.186-0.479,0.375-0.706,0.57c-0.242,0.208-0.483,0.417-0.713,0.633
	c-0.291,0.267-0.557,0.544-0.821,0.826c-0.166,0.176-0.338,0.348-0.497,0.528c-0.418,0.48-0.816,0.975-1.179,1.496
	c-14.442,20.642,13.045,69.937,24.781,90.985c2.957,5.301,5.095,9.132,6.052,11.458c1.529,3.706,3.238,6.915,4.995,9.77
	c9.572-18.13,7.42-36.416,5.291-54.152c-1.037-8.599-2.013-16.722-1.748-24.841C361.625,167.873,362.692,160.948,363.722,154.254z
	 M339.833,153.492c-5.029,0-9.279-4.06-9.579-6.173c-0.188-1.405,1.339-2.856,3.864-3.958l0,0c0.158-0.069,0.323-0.136,0.485-0.2
	l0,0c1.526-0.611,3.368-1.097,5.4-1.38c1.184-0.165,2.354-0.248,3.481-0.248c4.249,0,7.156,1.141,7.403,2.909
	c0.195,1.421-1.402,4.149-3.94,6.24c-0.183,0.148-0.367,0.292-0.558,0.434l0,0c-1.518,1.133-3.314,2.019-5.248,2.288
	C340.713,153.461,340.274,153.492,339.833,153.492z M147.126,281.488c-2.625,2.862-5.692,6.248-9.08,10.049
	c-6.25,7.01-13.559,15.396-21.108,24.479c-11.344,13.641-19.458,10.934-22.121,10.045c-39.144-13.055-72.73-167.785-74.248-198.131
	c-2.074-41.479,8.059-70.442,30.123-86.084c33.878-24.021,88.153-11.72,113.674-3.87c0.167,0.05,0.322,0.1,0.485,0.15
	c0.875,0.271,1.71,0.535,2.511,0.793c0.178,0.057,0.356,0.113,0.53,0.17c0.957,0.309,1.877,0.611,2.716,0.894
	c-0.931,0.864-1.857,1.735-2.757,2.646c-3.489,3.524-6.643,7.286-9.503,11.206c-0.581,0.794-1.127,1.606-1.683,2.415
	c-0.332,0.482-0.676,0.959-0.999,1.444c-0.52,0.782-1.014,1.573-1.51,2.364c-0.33,0.528-0.669,1.052-0.991,1.582
	c-0.476,0.787-0.935,1.583-1.39,2.378c-0.312,0.542-0.626,1.085-0.93,1.632c-0.442,0.799-0.87,1.603-1.292,2.409
	c-0.29,0.551-0.578,1.102-0.857,1.655c-0.411,0.812-0.811,1.625-1.203,2.443c-0.265,0.55-0.524,1.102-0.779,1.655
	c-0.382,0.826-0.761,1.653-1.125,2.483c-0.236,0.54-0.464,1.08-0.694,1.619c-0.361,0.849-0.717,1.699-1.06,2.549
	c-0.203,0.505-0.395,1.012-0.592,1.517c-0.344,0.886-0.689,1.772-1.014,2.658c-0.156,0.427-0.303,0.855-0.456,1.283
	c-0.344,0.961-0.688,1.925-1.01,2.884c-0.039,0.114-0.072,0.227-0.11,0.34c-1.19,3.576-2.228,7.125-3.141,10.612
	c-0.085,0.327-0.18,0.657-0.262,0.982c-0.233,0.91-0.449,1.809-0.665,2.709c-0.103,0.432-0.21,0.87-0.312,1.301
	c-0.198,0.854-0.381,1.695-0.565,2.536c-0.102,0.463-0.204,0.928-0.299,1.386c-0.172,0.815-0.334,1.623-0.49,2.425
	c-0.094,0.47-0.185,0.939-0.272,1.406c-0.149,0.784-0.292,1.561-0.428,2.333c-0.083,0.463-0.161,0.925-0.239,1.384
	c-0.129,0.759-0.254,1.514-0.373,2.258c-0.069,0.444-0.136,0.882-0.202,1.32c-0.113,0.74-0.223,1.479-0.324,2.201
	c-0.059,0.416-0.112,0.821-0.167,1.231c-0.096,0.721-0.194,1.441-0.28,2.141c-0.045,0.371-0.086,0.728-0.127,1.093
	c-0.085,0.719-0.172,1.442-0.248,2.137c-0.017,0.155-0.029,0.299-0.045,0.452c-0.183,1.732-0.339,3.385-0.466,4.949
	c-0.01,0.11-0.02,0.229-0.029,0.339c-0.046,0.595-0.086,1.157-0.126,1.725c-0.024,0.33-0.05,0.673-0.072,0.995
	c-0.034,0.504-0.061,0.98-0.089,1.46c-0.022,0.35-0.043,0.707-0.061,1.042c-0.024,0.445-0.043,0.867-0.063,1.287
	c-0.016,0.333-0.032,0.67-0.044,0.989c-0.017,0.388-0.03,0.76-0.041,1.125c-0.012,0.31-0.022,0.615-0.031,0.906
	c-0.009,0.332-0.018,0.653-0.025,0.959c-0.007,0.29-0.013,0.569-0.017,0.835c-0.005,0.264-0.01,0.527-0.014,0.768
	c-0.003,0.263-0.006,0.508-0.008,0.744c0,0.206-0.003,0.418-0.003,0.602c0,0.23,0,0.433,0,0.63c0.001,0.14,0.001,0.294,0.001,0.415
	c0.001,0.207,0.003,0.374,0.006,0.53c0.001,0.068,0.001,0.159,0.003,0.218c0.003,0.19,0.006,0.341,0.01,0.427
	c0,1.501,0.125,3.654,0.301,6.618c0.659,11.12,1.886,31.818-1.399,55.302c-0.167,1.207-0.296,2.412-0.404,3.614
	c-0.041,0.457-0.067,0.911-0.097,1.367c-0.051,0.724-0.095,1.447-0.124,2.168c-0.023,0.587-0.039,1.175-0.046,1.76
	c-0.009,0.547-0.007,1.093-0.003,1.638c0.006,0.698,0.013,1.396,0.039,2.092c0.012,0.301,0.034,0.599,0.048,0.898
	c0.206,3.996,0.737,7.934,1.599,11.775c0.001,0.014,0.006,0.027,0.008,0.042c2.667,11.832,8.404,22.75,16.917,31.633
	c1.852,1.932,3.808,3.709,5.838,5.358c-0.263,0.282-0.567,0.607-0.867,0.931c-0.149,0.158-0.289,0.309-0.448,0.478
	c-0.224,0.241-0.473,0.511-0.714,0.769c-0.277,0.299-0.55,0.594-0.848,0.914c-0.146,0.156-0.305,0.329-0.456,0.49
	c-0.424,0.459-0.855,0.926-1.319,1.426c-0.08,0.088-0.164,0.182-0.246,0.268c-0.542,0.587-1.104,1.197-1.692,1.841
	C147.191,281.416,147.158,281.453,147.126,281.488z M300.868,24.588c0.028-0.005,0.055-0.009,0.077-0.014
	c8.036-1.311,17.628-2.318,28.184-2.318c40.79,0,72.963,14.677,95.614,43.621c8.844,11.299,8.062,43.736-1.984,82.638
	c-9.837,38.092-27.231,78.656-48.565,113.777c-0.072,0.121-0.149,0.246-0.224,0.368c-1.604,2.639-3.228,5.252-4.878,7.822
	c-1.013-1.382-2.127-2.783-3.301-4.255c-0.428-0.532-0.872-1.089-1.319-1.651c14.033-22.477,11.347-44.891,8.961-64.736
	c-0.983-8.194-1.916-15.935-1.68-23.265c0.248-7.743,1.269-14.349,2.253-20.738c1.26-8.184,2.436-15.954,2.064-25.44
	c0.245-0.88,0.355-1.938,0.235-3.237c-0.849-8.985-11.172-35.95-32.243-60.479c-12.043-14.018-29.852-29.78-54.408-39.889
	c1.045-0.241,2.147-0.484,3.297-0.726c0.064-0.014,0.124-0.028,0.188-0.042c1.154-0.241,2.362-0.48,3.609-0.714
	c0.052-0.01,0.104-0.02,0.154-0.029C298.174,25.044,299.5,24.812,300.868,24.588z M220.455,301.539
	c0.621,2.174,1.308,6.312-1.07,9.643c-0.706,0.988-1.431,1.936-2.171,2.855c-0.125,0.152-0.254,0.298-0.38,0.451
	c-0.644,0.785-1.3,1.552-1.971,2.287c-0.079,0.086-0.16,0.168-0.24,0.256c-0.739,0.802-1.495,1.57-2.266,2.315
	c-0.022,0.022-0.045,0.041-0.068,0.062c-0.819,0.787-1.657,1.543-2.515,2.264c-0.005,0.005-0.009,0.01-0.015,0.014l0,0
	c-9.114,7.676-20.216,11.57-33.176,11.57c-5.514,0-11.351-0.747-17.353-2.168h-0.001c-0.369-0.087-0.73-0.15-1.102-0.244
	c-5.265-1.314-9.69-3.896-11.121-5.475c1.056-0.801,4.042-2.479,11.764-4.072c23.751-4.891,27.135-8.062,35.209-18.312
	c1.883-2.393,4.019-5.103,6.988-8.418c3.785-4.236,6.188-4.236,6.979-4.236c1.451,0,2.92,0.561,4.689,1.294
	C215.964,293.003,219.179,297.08,220.455,301.539z"/>
</svg>
