<?xml version="1.0" encoding="utf-8"?>
<!-- Generator: Adobe Illustrator 16.2.1, SVG Export Plug-In . SVG Version: 6.00 Build 0)  -->
<!DOCTYPE svg PUBLIC "-//W3C//DTD SVG 1.1//EN" "http://www.w3.org/Graphics/SVG/1.1/DTD/svg11.dtd">
<svg version="1.1" id="Layer_1" xmlns="http://www.w3.org/2000/svg" xmlns:xlink="http://www.w3.org/1999/xlink" x="0px" y="0px"
	 width="514.359px" height="520.036px" viewBox="0 0 514.359 520.036" enable-background="new 0 0 514.359 520.036"
	 xml:space="preserve">
<path d="M194.832,250.737h123.917c34.498,0,62.033-28.4,62.033-63.045V69.556c0-33.619-28.359-58.877-62.033-64.49
	c-21.309-3.547-43.424-5.16-64.632-5.061c-21.211,0.099-41.464,1.907-59.285,5.061c-52.501,9.277-62.033,28.689-62.033,64.49v47.284
	h124.062v15.761H132.799H86.238c-36.057,0-67.628,21.671-77.504,62.9c-11.391,47.256-11.898,76.745,0,126.088
	c8.818,36.734,29.88,62.9,65.937,62.9h42.656v-56.682C117.327,286.86,152.758,250.737,194.832,250.737z M187.023,85.317
	c-12.863,0-23.281-10.538-23.281-23.569c0-13.077,10.418-23.714,23.281-23.714c12.815,0,23.28,10.637,23.28,23.714
	C210.304,74.779,199.838,85.317,187.023,85.317z M504.849,195.501c-8.911-35.892-25.929-62.901-62.032-62.901h-46.562v55.092
	c0,42.715-36.214,78.662-77.504,78.662h-123.92c-33.944,0-62.032,29.049-62.032,63.045v118.137
	c0,33.623,29.235,53.401,62.032,63.044c39.272,11.549,76.934,13.639,123.918,0c31.234-9.043,62.033-27.244,62.033-63.044v-47.284
	h-123.92V384.49h123.921h62.033c36.059,0,49.497-25.149,62.032-62.9C517.804,282.729,517.253,245.355,504.849,195.501z
	 M326.559,431.775c12.859,0,23.279,10.536,23.279,23.567c0,13.078-10.42,23.715-23.279,23.715c-12.815,0-23.28-10.637-23.28-23.715
	C303.278,442.311,313.744,431.775,326.559,431.775z"/>
</svg>
