<?xml version="1.0" encoding="utf-8"?>
<!-- Generator: Adobe Illustrator 16.2.1, SVG Export Plug-In . SVG Version: 6.00 Build 0)  -->
<!DOCTYPE svg PUBLIC "-//W3C//DTD SVG 1.1//EN" "http://www.w3.org/Graphics/SVG/1.1/DTD/svg11.dtd">
<svg version="1.1" id="Layer_1" xmlns="http://www.w3.org/2000/svg" xmlns:xlink="http://www.w3.org/1999/xlink" x="0px" y="0px"
	 width="897.027px" height="235.19px" viewBox="0 0 897.027 235.19" enable-background="new 0 0 897.027 235.19"
	 xml:space="preserve">
<path d="M364.462,119.438c0-29.646-8.454-44.868-25.359-45.7c-6.727-0.317-13.296,0.753-19.686,3.235
	c-5.099,1.824-8.531,3.632-10.339,5.458v70.762c10.815,6.787,20.42,9.941,28.794,9.443
	C355.592,161.467,364.462,147.082,364.462,119.438z M385.318,120.67c0,15.061-3.531,27.562-10.636,37.504
	c-7.918,11.252-18.892,17.047-32.921,17.363c-10.577,0.338-21.472-2.977-32.684-9.924v64.314l-18.137-6.469V80.703
	c2.977-3.65,6.807-6.786,11.45-9.444c10.794-6.291,23.911-9.525,39.35-9.684l0.257,0.258c14.11-0.179,24.985,5.615,32.624,17.362
	C381.748,89.971,385.318,103.782,385.318,120.67z M496.164,162.877c0,20.203-2.023,34.189-6.072,41.971
	c-4.065,7.777-11.805,13.988-23.235,18.613c-9.269,3.648-19.289,5.635-30.042,5.971l-2.996-11.43
	c10.935-1.486,18.631-2.977,23.097-4.467c8.792-2.975,14.823-7.537,18.137-13.648c2.659-4.982,3.968-14.488,3.968-28.557v-4.725
	c-12.401,5.637-25.396,8.434-38.99,8.434c-8.932,0-16.809-2.797-23.596-8.434c-7.618-6.131-11.428-13.908-11.428-23.336V67.785
	l18.135-6.211v75.981c0,8.115,2.62,14.367,7.857,18.752c5.241,4.387,12.027,6.488,20.341,6.33c8.314-0.178,17.223-3.395,26.69-9.686
	V64.312h18.136L496.164,162.877L496.164,162.877z M566.966,174.545c-2.163,0.18-4.146,0.258-5.973,0.258
	c-10.259,0-18.255-2.441-23.972-7.342c-5.694-4.902-8.551-11.668-8.551-20.301V75.721h-12.424v-11.41h12.424V34.01l18.116-6.449
	v36.75h20.378v11.41h-20.378v70.941c0,6.809,1.824,11.629,5.476,14.447c3.138,2.32,8.118,3.648,14.902,3.986L566.966,174.545
	L566.966,174.545z M676.781,173.057h-18.137v-70.01c0-7.123-1.668-13.254-4.979-18.373c-3.832-5.796-9.149-8.693-15.976-8.693
	c-8.314,0-18.713,4.386-31.195,13.156v83.92h-18.136V5.714L606.494,0v76.22c11.591-8.434,24.249-12.661,38-12.661
	c9.604,0,17.386,3.234,23.339,9.684c5.972,6.447,8.948,14.485,8.948,24.09V173.057L676.781,173.057z M773.181,116.581
	c0-11.39-2.161-20.796-6.469-28.237c-5.119-9.068-13.075-13.852-23.831-14.347c-19.884,1.152-29.806,15.398-29.806,42.703
	c0,12.521,2.064,22.98,6.23,31.373c5.318,10.697,13.294,15.977,23.932,15.797C763.201,163.711,773.181,147.955,773.181,116.581z
	 M793.045,116.7c0,16.214-4.146,29.707-12.421,40.48c-9.108,12.066-21.69,18.117-37.743,18.117
	c-15.915,0-28.316-6.051-37.267-18.117c-8.115-10.773-12.164-24.268-12.164-40.48c0-15.239,4.385-28.058,13.156-38.497
	c9.267-11.075,21.449-16.629,36.512-16.629c15.062,0,27.325,5.554,36.771,16.629C788.66,88.642,793.045,101.461,793.045,116.7z
	 M897.027,173.057H878.89V99.079c0-8.115-2.441-14.445-7.322-19.01c-4.88-4.544-11.391-6.746-19.505-6.569
	c-8.613,0.158-16.809,2.978-24.589,8.433v91.124h-18.136V79.691c10.438-7.598,20.043-12.561,28.812-14.88
	c8.273-2.163,15.576-3.234,21.866-3.234c4.308,0,8.354,0.415,12.164,1.25c7.126,1.646,12.919,4.703,17.386,9.188
	c4.979,4.961,7.461,10.913,7.461,17.879V173.057L897.027,173.057z M111.807,6.384c-9.333,0.044-18.243,0.84-26.085,2.227
	C62.623,12.693,58.43,21.234,58.43,36.986v20.803h54.587v6.935H58.43H37.943c-15.865,0-29.755,9.535-34.101,27.675
	c-5.011,20.793-5.234,33.769,0,55.48c3.879,16.16,13.147,27.674,29.011,27.674h18.768v-24.939c0-18.016,15.588-33.908,34.101-33.908
	h54.522c15.178,0,27.293-12.496,27.293-27.739V36.985c0-14.792-12.479-25.905-27.293-28.375
	C130.869,7.05,121.138,6.341,111.807,6.384z M82.287,23.116c5.639,0,10.243,4.68,10.243,10.434c0,5.733-4.604,10.37-10.243,10.37
	c-5.66,0-10.242-4.636-10.242-10.37C72.043,27.797,76.627,23.116,82.287,23.116z M174.346,64.724v24.24
	c0,18.793-15.933,34.61-34.1,34.61H85.722c-14.935,0-27.292,12.781-27.292,27.738v51.979c0,14.793,12.863,23.494,27.292,27.738
	c17.279,5.08,33.848,5.998,54.522,0c13.743-3.979,27.293-11.986,27.293-27.738v-20.805h-54.521v-6.936h54.522h27.292
	c15.865,0,21.777-11.064,27.293-27.674c5.699-17.1,5.457-33.543,0-55.478c-3.921-15.792-11.409-27.675-27.293-27.675H174.346
	L174.346,64.724z M143.681,196.355c5.658,0,10.243,4.635,10.243,10.369c0,5.754-4.585,10.434-10.243,10.434
	c-5.639,0-10.243-4.68-10.243-10.434C133.438,200.99,138.042,196.355,143.681,196.355z"/>
</svg>
