<?xml version="1.0" encoding="utf-8"?>
<!-- Generator: Adobe Illustrator 16.2.1, SVG Export Plug-In . SVG Version: 6.00 Build 0)  -->
<!DOCTYPE svg PUBLIC "-//W3C//DTD SVG 1.1//EN" "http://www.w3.org/Graphics/SVG/1.1/DTD/svg11.dtd">
<svg version="1.1" id="Layer_1" xmlns="http://www.w3.org/2000/svg" xmlns:xlink="http://www.w3.org/1999/xlink" x="0px" y="0px"
	 width="850.261px" height="322.559px" viewBox="0 0 850.261 322.559" enable-background="new 0 0 850.261 322.559"
	 xml:space="preserve">
<path d="M103.141,167.554c0-41.589-11.859-62.941-35.577-64.11c-9.437-0.445-18.652,1.059-27.617,4.539
	c-7.154,2.56-11.969,5.095-14.503,7.656v99.27c15.173,9.521,28.646,13.948,40.394,13.25
	C90.697,226.517,103.141,206.334,103.141,167.554z M132.398,169.281c0,21.13-4.954,38.669-14.92,52.614
	c-11.108,15.787-26.502,23.913-46.184,24.358c-14.838,0.474-30.121-4.174-45.85-13.92v90.225L0,313.484v-200.27
	c4.175-5.121,9.548-9.519,16.062-13.25C31.206,91.14,49.606,86.603,71.265,86.38l0.362,0.362
	c19.793-0.25,35.049,7.877,45.766,24.357C127.387,126.217,132.398,145.592,132.398,169.281z M287.9,228.495
	c0,28.34-2.838,47.963-8.517,58.877c-5.706,10.912-16.561,19.624-32.598,26.112c-13,5.121-27.061,7.906-42.147,8.378l-4.204-16.033
	c15.34-2.086,26.14-4.176,32.404-6.265c12.333-4.175,20.795-10.576,25.442-19.148c3.731-6.99,5.567-20.325,5.567-40.062v-6.627
	c-17.399,7.908-35.632,11.832-54.7,11.832c-12.528,0-23.579-3.924-33.102-11.832c-10.687-8.602-16.031-19.513-16.031-32.734V95.094
	l25.442-8.713v106.593c0,11.384,3.676,20.151,11.022,26.305c7.352,6.152,16.871,9.104,28.536,8.88
	c11.664-0.251,24.162-4.762,37.444-13.585V90.221h25.44v138.273H287.9z M387.227,244.864c-3.034,0.25-5.816,0.36-8.378,0.36
	c-14.392,0-25.608-3.423-33.628-10.299c-7.989-6.877-11.995-16.368-11.995-28.479V106.228h-17.43V90.221h17.43v-42.51l25.414-9.048
	v51.556h28.589v16.008H358.64v99.521c0,9.55,2.561,16.314,7.681,20.269c4.401,3.255,11.388,5.121,20.907,5.595L387.227,244.864
	L387.227,244.864z M541.282,242.775h-25.441v-98.214c0-9.993-2.34-18.596-6.988-25.776c-5.375-8.131-12.834-12.194-22.408-12.194
	c-11.663,0-26.251,6.152-43.767,18.455v117.729h-25.44V8.016L442.678,0v106.926c16.263-11.833,34.021-17.762,53.312-17.762
	c13.477,0,24.39,4.538,32.741,13.586c8.377,9.045,12.553,20.32,12.553,33.797L541.282,242.775L541.282,242.775z M676.52,163.547
	c0-15.979-3.032-29.174-9.073-39.612c-7.183-12.723-18.347-19.433-33.435-20.127c-27.894,1.615-41.811,21.601-41.811,59.906
	c0,17.567,2.896,32.237,8.74,44.015c7.461,15.005,18.649,22.41,33.569,22.157C662.521,229.664,676.52,207.56,676.52,163.547z
	 M704.387,163.713c0,22.745-5.816,41.678-17.425,56.789c-12.778,16.926-30.429,25.418-52.949,25.418
	c-22.327,0-39.727-8.489-52.277-25.418c-11.384-15.111-17.064-34.044-17.064-56.789c0-21.379,6.148-39.36,18.456-54.005
	c12.999-15.535,30.091-23.328,51.221-23.328c21.131,0,38.336,7.792,51.586,23.328C698.234,124.352,704.387,142.336,704.387,163.713z
	 M850.259,242.775h-25.444v-103.78c0-11.385-3.425-20.264-10.271-26.669c-6.847-6.376-15.979-9.464-27.363-9.215
	c-12.084,0.223-23.58,4.178-34.492,11.832v127.833h-25.443v-130.98c14.644-10.66,28.116-17.621,40.422-20.875
	c11.605-3.033,21.852-4.538,30.676-4.538c6.041,0,11.719,0.584,17.064,1.755c9.995,2.31,18.122,6.596,24.387,12.888
	c6.988,6.959,10.468,15.31,10.468,25.083v116.667H850.259z"/>
</svg>
