<?xml version="1.0" encoding="utf-8"?>
<!-- Generator: Adobe Illustrator 16.2.1, SVG Export Plug-In . SVG Version: 6.00 Build 0)  -->
<!DOCTYPE svg PUBLIC "-//W3C//DTD SVG 1.1//EN" "http://www.w3.org/Graphics/SVG/1.1/DTD/svg11.dtd">
<svg version="1.1" id="Layer_1" xmlns="http://www.w3.org/2000/svg" xmlns:xlink="http://www.w3.org/1999/xlink" x="0px" y="0px"
	 width="440.918px" height="567px" viewBox="0 0 440.918 567" enable-background="new 0 0 440.918 567" xml:space="preserve">
<path fill="#010101" d="M153.558,464.37H172.6v20.865h-19.042V464.37z M66.558,463.77H85.6v15.696H66.558V463.77z M54.968,0
	C24.61,0,0,24.611,0,54.968V567h385.949c30.358,0,54.969-24.61,54.969-54.969l0,0l0,0V0H54.968z M372.124,47.798l22.022,15.574
	l-0.741,8.529l-21.281-13.164V47.798L372.124,47.798z M301.426,25.736l6.477,17.613h-23.501l-7.775-17.613H301.426z M214.625,36.859
	l15.548,20.209l-19.249,12.607l-17.951-19.652L214.625,36.859z M134.862,97.671l23.134,17.799l-14.436,22.434l-26.095-17.984
	L134.862,97.671z M73.789,193.336l30.166,13.163l-9.623,28.182L63.425,222.63L73.789,193.336z M38.44,312.366l34.978,6.304
	l-7.402,33.557l-36.459-4.449L38.44,312.366z M83.288,523.949l-15.849-21.124h-0.881v21.124H43.466v-82.602c0,0,42.579,0,42.803,0
	c12.384,0,22.424,10.038,22.424,22.422v11.035c0,11.138-8.132,20.354-18.777,22.1l20.292,27.045H83.288z M195.693,523.949H172.6
	v-15.696h-19.042v15.696h-23.092v-60.18c0-12.382,10.039-22.42,22.422-22.42c0.226,0,0.445,0.026,0.669,0.033v-0.033h19.042v0.033
	c0.224-0.007,0.443-0.033,0.67-0.033c12.384,0,22.423,10.038,22.423,22.42v60.18H195.693z M240.785,523.949h-23.091v-82.602h23.091
	V523.949z M319.585,523.949h-54.531v-82.602h23.093v59.508h31.438V523.949L319.585,523.949z M264.23,273.99l2.034,20.022
	l-27.575-12.236v-21.877L264.23,273.99z M244.427,211.456l5.734-18.488l18.321,18.542l-4.253,18.434L244.427,211.456z
	 M281.626,352.786l9.253,21.692l-32.943-3.152l-8.882-24.474L281.626,352.786z M268.482,149.028l11.289-12.792l12.586,19.467
	l-9.252,13.349L268.482,149.028z M317.898,128.635l-6.664-17.243l14.807-5.933l4.997,15.945L317.898,128.635z M397.044,493.233
	v8.923h-0.031c-0.337,12.09-10.22,21.793-22.391,21.793h-40.411v-21.791h18.02h21.281v-8.925h-19.421v-0.009
	c-12.158-0.094-21.988-9.971-21.988-22.152c0-0.232,0.028-0.456,0.035-0.685h-0.035v-8.302h0.019
	c0.2-12.068,10.027-21.79,22.143-21.792h38.271v21.792h-37.39v8.3h19.479c12.384,0,22.422,10.038,22.422,22.424
	c0,0.142-0.02,0.281-0.022,0.424H397.044L397.044,493.233z M369.903,102.863l17.395,3.151v7.417h-16.47L369.903,102.863z
	 M413.208,112.13c0,0-26.153-15.763-48.729-19.101c-42.636-6.303-72.678,12.056-99.699,49.507
	c-25.143,34.851-36.174,90.526-34.05,134.972c2.959,61.926,29.982,130.523,29.982,130.523H75.27c0,0,3.365-108.786,36.644-188.369
	C146.336,137.346,183.167,92.848,231.23,68.51c46.742-23.667,94.416-18.468,127.566-6.809
	c34.793,12.237,59.963,39.305,59.963,39.305L413.208,112.13z"/>
</svg>
