<?xml version="1.0" encoding="utf-8"?>
<!-- Generator: Adobe Illustrator 16.2.1, SVG Export Plug-In . SVG Version: 6.00 Build 0)  -->
<!DOCTYPE svg PUBLIC "-//W3C//DTD SVG 1.1//EN" "http://www.w3.org/Graphics/SVG/1.1/DTD/svg11.dtd">
<svg version="1.1" id="Layer_1" xmlns="http://www.w3.org/2000/svg" xmlns:xlink="http://www.w3.org/1999/xlink" x="0px" y="0px"
	 width="955.121px" height="225.975px" viewBox="0 0 955.121 225.975" enable-background="new 0 0 955.121 225.975"
	 xml:space="preserve">
<g>
	<path fill="#010101" d="M350.635,2.847c-0.61,0-1.202,0.073-1.809,0.093V2.847h-51.438V2.94c-0.604-0.021-1.198-0.093-1.808-0.093
		c-33.45,0-60.57,27.118-60.57,60.567v162.561h62.378v-42.398h51.438v42.398h62.378V63.415
		C411.208,29.965,384.09,2.847,350.635,2.847z M348.829,121.398H297.39V65.034h51.438V121.398L348.829,121.398z"/>
	<rect x="470.64" y="2.846" fill="#010101" width="62.379" height="223.128"/>
	<path fill="#010101" d="M176.198,93.22V63.415c0-33.452-27.121-60.569-60.572-60.569c-0.607,0-115.626,0-115.626,0v223.128h62.378
		v-57.062h2.38l42.813,57.062h72.722l-54.815-73.057C154.231,148.203,176.196,123.309,176.198,93.22z M113.817,105.815H62.378v-42.4
		h51.439V105.815z"/>
	<path fill="#010101" d="M955.121,141.855c0-33.452-27.115-60.569-60.568-60.569h-52.617V58.862h101.004V0H839.557
		c-32.729,0.003-59.275,26.268-59.811,58.866h-0.057v22.425h0.096c-0.02,0.619-0.096,1.221-0.096,1.849
		c0,32.907,26.553,59.584,59.396,59.84v0.023h52.465v24.105h-57.486h-48.678v58.865h109.164c32.879,0,59.572-26.207,60.48-58.865
		h0.088v-24.105h-0.057C955.068,142.617,955.121,142.24,955.121,141.855z"/>
	<polygon fill="#010101" points="660.955,2.846 598.574,2.846 598.574,225.975 745.879,225.975 745.879,163.593 660.955,163.593 	
		"/>
</g>
</svg>
