<?xml version="1.0" encoding="utf-8"?>
<!-- Generator: Adobe Illustrator 16.2.1, SVG Export Plug-In . SVG Version: 6.00 Build 0)  -->
<!DOCTYPE svg PUBLIC "-//W3C//DTD SVG 1.1//EN" "http://www.w3.org/Graphics/SVG/1.1/DTD/svg11.dtd">
<svg version="1.1" id="Layer_1" xmlns="http://www.w3.org/2000/svg" xmlns:xlink="http://www.w3.org/1999/xlink" x="0px" y="0px"
	 width="791.827px" height="290.181px" viewBox="0 0 791.827 290.181" enable-background="new 0 0 791.827 290.181"
	 xml:space="preserve">
<path d="M127.676,104.878c0,11.608-9.536,21.972-21.972,21.972c-9.536,0-17.825,2.489-24.873,7.878
	c-7.876,4.978-14.098,12.021-19.069,19.898c-9.949,13.267-14.917,29.018-16.993,34.815v78.764c0,12.022-10.363,21.976-22.799,21.976
	C9.949,290.179,0,280.228,0,268.204V104.878c0-12.022,9.948-21.557,21.969-21.557c12.439,0,22.799,9.538,22.799,21.557v2.903
	c2.487-2.903,5.802-6.216,8.705-8.292c13.683-9.115,31.505-16.581,52.229-16.167C118.14,83.321,127.676,92.859,127.676,104.878z
	 M115.502,186.54c0.417-56.375,44.358-103.632,101.146-103.632c53.89,0,96.588,40.21,99.905,96.171c0,0.416,0,1.246,0,2.07
	c0,0.83,0,2.899-0.414,3.73c-1.247,9.951-9.948,16.583-21.559,16.583H162.76c2.071,9.539,6.629,20.312,14.094,27.36
	c8.705,9.949,25.289,17.404,39.793,18.646c14.923,1.242,32.748-2.481,43.114-10.357c8.702-9.124,25.7-7.875,31.088-1.25
	c5.391,5.812,9.532,18.247,0,26.946c-20.315,18.65-44.771,27.359-74.206,27.359C159.86,289.764,115.919,242.918,115.502,186.54z
	 M160.688,166.229H278c-4.145-16.579-25.287-41.035-61.353-43.938C181.418,123.945,164.005,149.237,160.688,166.229z
	 M527.758,267.791c0,12.023-9.949,22.389-22.385,22.389c-11.197,0-19.898-7.874-21.973-17.828
	c-15.752,10.775-35.65,17.828-56.375,17.828c-55.963,0-100.734-47.259-100.734-103.219c0-56.795,44.771-104.053,100.734-104.053
	c20.311,0,40.211,6.63,55.547,17.408V22.385C482.573,10.363,492.522,0,505.366,0c12.436,0,22.391,10.363,22.391,22.386V186.54
	c0,0,0,0,0,0.42L527.758,267.791L527.758,267.791z M427.026,128.093c-14.924,0-28.604,6.217-38.958,16.994
	c-10.366,10.365-16.587,25.283-16.587,41.867c0,15.754,6.219,30.674,16.587,41.04c10.357,10.779,24.035,16.998,38.958,16.998
	c15.338,0,28.605-6.219,38.969-16.998c10.355-10.363,16.58-25.286,16.58-41.04c0-16.584-6.217-31.502-16.58-41.867
	C455.633,134.309,442.364,128.093,427.026,128.093z M606.624,31.093c0,12.438-9.535,22.798-22.385,22.798
	c-12.438,0-22.387-10.361-22.387-22.798v-8.707C561.854,9.95,571.801,0,584.239,0c12.85,0,22.385,9.95,22.385,22.386V31.093
	L606.624,31.093z M606.624,106.124v161.667c0,12.438-9.535,22.389-22.385,22.389c-12.438,0-22.387-9.951-22.387-22.389V106.124
	c0-13.265,9.947-22.802,22.387-22.802C597.094,83.321,606.624,92.859,606.624,106.124z M635.125,230.896
	c7.463-9.944,21.971-11.19,31.088-3.314c10.775,9.124,29.436,18.651,45.6,18.24c11.195,0,21.559-3.729,28.191-7.875
	c5.803-4.974,7.455-9.116,7.455-12.438c0-2.069-0.412-2.896-1.24-4.146c-0.418-1.243-2.072-2.9-5.395-4.968
	c-5.801-4.147-18.236-8.712-33.16-11.609h-0.414c-12.855-2.484-25.293-5.806-36.061-10.782
	c-11.197-5.385-21.146-12.847-28.609-24.039c-4.555-7.463-7.041-16.577-7.041-26.113c0-19.069,10.775-35.237,24.453-45.602
	c14.512-9.946,31.922-15.338,50.992-15.338c28.602,0,48.912,13.681,62.182,22.797c9.951,6.635,12.852,20.315,6.629,30.673
	c-6.629,9.951-20.311,12.856-30.674,5.808c-13.264-8.702-24.871-15.339-38.137-15.339c-10.361,0-19.484,3.316-24.873,7.46
	c-5.389,3.734-6.627,7.466-6.627,9.538c0,1.655,0,2.072,0.824,3.314c0.414,0.827,1.654,2.484,4.562,4.145
	c5.395,3.729,16.164,7.463,30.262,9.948l0.414,0.42h0.418c13.678,2.48,26.527,6.216,38.551,12.018
	c11.188,4.975,22.387,12.851,29.434,24.457c4.975,8.288,7.877,17.824,7.877,27.359c0,20.312-11.191,37.31-26.121,48.086
	c-14.922,10.358-33.574,16.584-53.887,16.584c-32.334-0.413-57.207-15.338-73.785-28.601
	C628.903,254.114,627.663,240.017,635.125,230.896z"/>
</svg>
