<?xml version="1.0" encoding="utf-8"?>
<!-- Generator: Adobe Illustrator 16.2.1, SVG Export Plug-In . SVG Version: 6.00 Build 0)  -->
<!DOCTYPE svg PUBLIC "-//W3C//DTD SVG 1.1//EN" "http://www.w3.org/Graphics/SVG/1.1/DTD/svg11.dtd">
<svg version="1.1" id="Layer_1" xmlns="http://www.w3.org/2000/svg" xmlns:xlink="http://www.w3.org/1999/xlink" x="0px" y="0px"
	 width="876.996px" height="279.574px" viewBox="0 0 876.996 279.574" enable-background="new 0 0 876.996 279.574"
	 xml:space="preserve">
<path d="M479.986,86.587c0,6.939-5.7,13.134-13.136,13.134c-5.699,0-10.654,1.487-14.867,4.709
	c-4.708,2.976-8.428,7.187-11.398,11.895c-5.948,7.931-8.917,17.347-10.159,20.813v47.083c0,7.187-6.192,13.137-13.628,13.137
	c-7.185,0-13.133-5.949-13.133-13.137V86.587c0-7.187,5.946-12.886,13.133-12.886c7.438,0,13.628,5.703,13.628,12.886v1.736
	c1.487-1.736,3.468-3.716,5.205-4.957c8.179-5.449,18.833-9.912,31.222-9.665C474.286,73.701,479.986,79.403,479.986,86.587z
	 M472.709,135.403c0.249-33.701,26.516-61.95,60.463-61.95c32.213,0,57.737,24.036,59.72,57.487c0,0.25,0,0.746,0,1.239
	c0,0.497,0,1.733-0.246,2.23c-0.744,5.95-5.945,9.915-12.887,9.915h-78.8c1.238,5.702,3.963,12.142,8.425,16.354
	c5.204,5.947,15.117,10.403,23.788,11.147c8.921,0.74,19.576-1.484,25.772-6.193c5.203-5.455,15.362-4.707,18.583-0.747
	c3.223,3.474,5.697,10.908,0,16.108c-12.146,11.148-26.765,16.354-44.358,16.354C499.225,197.108,472.958,169.104,472.709,135.403z
	 M499.72,123.263h70.127c-2.477-9.912-15.114-24.532-36.674-26.267C512.112,97.984,501.703,113.104,499.72,123.263z
	 M719.146,183.974c0,7.188-5.948,13.383-13.384,13.383c-6.689,0-11.893-4.707-13.133-10.655
	c-9.415,6.44-21.311,10.655-33.701,10.655c-33.452,0-60.216-28.25-60.216-61.703c0-33.95,26.766-62.199,60.216-62.199
	c12.146,0,24.036,3.963,33.205,10.405V37.275c0-7.187,5.946-13.381,13.627-13.381c7.435,0,13.384,6.194,13.384,13.381v98.129
	c0,0,0,0,0,0.25v48.32H719.146L719.146,183.974z M658.932,100.464c-8.922,0-17.099,3.716-23.289,10.159
	c-6.196,6.196-9.916,15.114-9.916,25.028c0,9.418,3.717,18.336,9.916,24.534c6.19,6.443,14.367,10.159,23.289,10.159
	c9.168,0,17.1-3.716,23.294-10.159c6.192-6.194,9.911-15.115,9.911-24.534c0-9.913-3.717-18.832-9.911-25.028
	C676.03,104.18,668.1,100.464,658.932,100.464z M766.291,42.48c0,7.435-5.7,13.628-13.384,13.628
	c-7.435,0-13.379-6.193-13.379-13.628v-5.205c0-7.434,5.944-13.381,13.379-13.381c7.684,0,13.384,5.947,13.384,13.381V42.48z
	 M766.291,87.332v96.642c0,7.435-5.7,13.383-13.384,13.383c-7.435,0-13.379-5.948-13.379-13.383V87.332
	c0-7.931,5.944-13.631,13.379-13.631C760.594,73.701,766.291,79.403,766.291,87.332z M783.326,161.918
	c4.46-5.944,13.134-6.688,18.585-1.983c6.441,5.457,17.595,11.15,27.257,10.905c6.691,0,12.885-2.229,16.853-4.707
	c3.469-2.975,4.458-5.448,4.458-7.437c0-1.235-0.248-1.73-0.743-2.479c-0.249-0.744-1.237-1.734-3.224-2.971
	c-3.47-2.479-10.904-5.207-19.823-6.939h-0.246c-7.688-1.482-15.119-3.47-21.56-6.446c-6.691-3.218-12.639-7.679-17.099-14.369
	c-2.725-4.46-4.213-9.913-4.213-15.61c0-11.399,6.443-21.064,14.619-27.26c8.675-5.946,19.083-9.168,30.482-9.168
	c17.097,0,29.239,8.178,37.169,13.628c5.947,3.965,7.683,12.144,3.963,18.334c-3.963,5.949-12.141,7.685-18.335,3.471
	c-7.929-5.202-14.866-9.169-22.796-9.169c-6.195,0-11.646,1.982-14.869,4.46c-3.223,2.232-3.964,4.462-3.964,5.701
	c0,0.989,0,1.238,0.494,1.981c0.249,0.494,0.989,1.485,2.725,2.478c3.226,2.229,9.666,4.459,18.093,5.946l0.247,0.25h0.249
	c8.178,1.484,15.858,3.716,23.044,7.185c6.689,2.975,13.384,7.682,17.596,14.619c2.976,4.955,4.708,10.654,4.708,16.355
	c0,12.143-6.69,22.303-15.614,28.742c-8.92,6.194-20.072,9.916-32.214,9.916c-19.326-0.248-34.195-9.17-44.105-17.099
	C779.608,175.797,778.867,167.372,783.326,161.918z M326.162,171.604c0.011,0.006,0.023,0.01,0.036,0.015
	c0,0-0.007,29.446-0.007,32.503c0,3.259-3.915,6.836-12.773,11.454c-17.406,9.073-107.586,46.151-126.784,56.157
	c-19.198,10.012-29.864,9.914-45.029,2.664c-15.166-7.252-111.131-46.015-128.417-54.275c-8.64-4.132-13.183-7.614-13.183-10.908
	c0-3.281,0-32.949,0-32.971c0.135,3.283,4.545,6.771,13.183,10.898c17.286,8.258,113.25,47.027,128.417,54.273
	c15.166,7.252,25.832,7.35,45.029-2.662c19.198-10.007,109.377-47.088,126.784-56.159
	C321.862,178.192,326.021,174.724,326.162,171.604z M313.417,128.828c-17.407,9.074-107.586,46.153-126.784,56.165
	c-19.198,10.007-29.864,9.908-45.029,2.658c-15.167-7.248-111.131-46.016-128.417-54.276c-8.638-4.126-13.048-7.612-13.183-10.896
	c0,0.066,0,29.693,0,32.977c0,3.292,4.543,6.771,13.183,10.902c17.286,8.262,113.25,47.027,128.417,54.273
	c15.166,7.252,25.832,7.35,45.029-2.656c19.198-10.012,109.376-47.088,126.784-56.164c8.859-4.619,12.773-8.194,12.773-11.453
	c0-3.06,0.007-32.507,0.007-32.507c-0.013-0.003-0.024-0.008-0.035-0.013C326.023,120.955,321.864,124.425,313.417,128.828z
	 M326.197,62.097c0,0-0.007,29.448-0.007,32.505c0,3.256-3.915,6.831-12.773,11.45c-17.407,9.073-107.586,46.154-126.784,56.166
	c-19.198,10.008-29.864,9.909-45.029,2.658C126.437,157.629,30.473,118.86,13.187,110.6c-8.64-4.13-13.183-7.612-13.183-10.903
	c0-3.285,0-32.934,0-32.975c-0.135-3.287,4.019-6.376,12.516-9.702c16.98-6.65,112.418-44.092,132.59-51.329
	c20.169-7.236,27.166-7.498,44.33-1.208c17.166,6.288,106.805,41.964,123.767,48.18c8.735,3.198,13.109,6.111,12.957,9.42
	C326.173,62.088,326.187,62.093,326.197,62.097z M128.38,39.554l32.635,2.932l10.229,16.991l6.332-15.232l28.252-2.932
	l-21.919-8.204l5.822-13.938l-21.509,7.037l-22.793-8.921l7.306,13.479L128.38,39.554z M96.424,81.103
	c22.312,0,40.401-7.012,40.401-15.661c0-8.648-18.088-15.66-40.402-15.66c-22.312,0-40.399,7.012-40.399,15.66
	C56.022,74.091,74.111,81.103,96.424,81.103z M192.387,81.7l-75.592,11.604l52.767,21.879L192.387,81.7z M283.977,63.163
	l-44.73-17.691L189.749,65.05l44.682,17.673l4.842-1.91L283.977,63.163z"/>
</svg>
