<?xml version="1.0" encoding="utf-8"?>
<!-- Generator: Adobe Illustrator 16.2.1, SVG Export Plug-In . SVG Version: 6.00 Build 0)  -->
<!DOCTYPE svg PUBLIC "-//W3C//DTD SVG 1.1//EN" "http://www.w3.org/Graphics/SVG/1.1/DTD/svg11.dtd">
<svg version="1.1" id="Layer_1" xmlns="http://www.w3.org/2000/svg" xmlns:xlink="http://www.w3.org/1999/xlink" x="0px" y="0px"
	 width="553px" height="473.958px" viewBox="0 0 553 473.958" enable-background="new 0 0 553 473.958" xml:space="preserve">
<path d="M552.939,290.918c0.021,0.012,0.043,0.018,0.061,0.023c0,0-0.012,49.918-0.012,55.104c0,5.523-6.637,11.587-21.654,19.416
	c-29.51,15.383-182.389,78.24-214.936,95.205c-32.549,16.972-50.629,16.807-76.339,4.516
	c-25.709-12.293-188.399-78.007-217.705-92.012c-14.646-7.004-22.349-12.908-22.349-18.493c0-5.563,0-55.858,0-55.895
	c0.229,5.567,7.707,11.479,22.349,18.476c29.305,14.001,191.992,79.729,217.704,92.012c25.711,12.294,43.791,12.459,76.34-4.514
	c32.547-16.965,185.426-79.826,214.936-95.205C545.65,302.086,552.699,296.204,552.939,290.918z M531.334,218.399
	c-29.512,15.381-182.389,78.243-214.936,95.214c-32.549,16.966-50.629,16.8-76.34,4.508
	c-25.712-12.286-188.399-78.008-217.704-92.015c-14.643-6.997-22.12-12.904-22.349-18.472c0,0.111,0,50.338,0,55.905
	c0,5.58,7.702,11.479,22.349,18.48c29.305,14.008,191.992,79.728,217.704,92.012c25.711,12.295,43.791,12.459,76.34-4.506
	c32.547-16.973,185.426-79.828,214.936-95.213c15.02-7.828,21.654-13.893,21.654-19.414c0-5.188,0.012-55.113,0.012-55.113
	c-0.018-0.006-0.039-0.015-0.061-0.021C552.703,205.051,545.654,210.935,531.334,218.399z M553,105.271
	c0,0-0.012,49.921-0.012,55.107c0,5.519-6.637,11.581-21.654,19.409c-29.51,15.381-182.389,78.247-214.936,95.218
	c-32.549,16.966-50.629,16.8-76.339,4.509c-25.713-12.287-188.399-78.011-217.705-92.016c-14.646-7.002-22.349-12.904-22.349-18.483
	c0-5.568,0-55.832,0-55.9c-0.228-5.575,6.813-10.81,21.218-16.449c28.786-11.274,190.58-74.749,224.778-87.017
	c34.19-12.269,46.053-12.711,75.153-2.048c29.1,10.659,181.064,71.143,209.82,81.68c14.809,5.422,22.223,10.36,21.965,15.969
	C552.961,105.255,552.982,105.264,553,105.271z M217.642,67.055l55.325,4.969l17.342,28.805l10.732-25.824l47.896-4.969
	l-37.16-13.908l9.869-23.627l-36.463,11.928l-38.641-15.124l12.386,22.85L217.642,67.055z M163.467,137.493
	c37.827,0,68.492-11.887,68.492-26.55c0-14.664-30.665-26.549-68.492-26.549c-37.825,0-68.49,11.885-68.49,26.549
	C94.978,125.604,125.643,137.493,163.467,137.493z M326.15,138.504l-128.147,19.671l89.452,37.092L326.15,138.504z M481.422,107.08
	l-75.83-29.994l-83.91,33.191l75.746,29.962l8.205-3.238L481.422,107.08z"/>
</svg>
