<?xml version="1.0" encoding="utf-8"?>
<!-- Generator: Adobe Illustrator 16.2.1, SVG Export Plug-In . SVG Version: 6.00 Build 0)  -->
<!DOCTYPE svg PUBLIC "-//W3C//DTD SVG 1.1//EN" "http://www.w3.org/Graphics/SVG/1.1/DTD/svg11.dtd">
<svg version="1.1" id="Layer_1" xmlns="http://www.w3.org/2000/svg" xmlns:xlink="http://www.w3.org/1999/xlink" x="0px" y="0px"
	 width="838.37px" height="269.725px" viewBox="0 0 838.37 269.725" enable-background="new 0 0 838.37 269.725"
	 xml:space="preserve">
<path fill="#010101" d="M11.598,206.875c15.338,7.855,38.906,15.713,63.223,15.713c26.186,0,40.029-10.847,40.029-27.308
	c0-15.714-11.973-24.69-42.274-35.541c-41.9-14.589-69.208-37.783-69.208-74.446c0-43.02,35.913-75.942,95.396-75.942
	c28.431,0,49.381,5.987,64.345,12.72l-12.721,46.015c-10.099-4.863-28.056-11.972-52.747-11.972
	c-24.69,0-36.664,11.224-36.664,24.317c0,16.086,14.217,23.196,46.765,35.541c44.517,16.459,65.466,39.654,65.466,75.192
	c0,42.273-32.547,78.189-101.755,78.189c-28.805,0-57.237-7.483-71.453-15.34L11.598,206.875z M349.786,261.122
	c-10.102,4.489-29.179,8.229-50.878,8.229c-59.106,0-96.892-35.914-96.892-93.526c0-53.495,36.663-97.264,104.748-97.264
	c14.965,0,31.425,2.617,43.396,7.109l-8.979,42.271c-6.733-2.992-16.835-5.611-31.799-5.611c-29.928,0-49.381,21.322-49.007,51.252
	c0,33.667,22.444,51.251,50.13,51.251c13.466,0,23.942-2.245,32.546-5.61L349.786,261.122z M486.709,265.609l-3.365-18.332h-1.122
	c-11.974,14.592-30.677,22.447-52.377,22.447c-37.035,0-59.105-26.935-59.105-56.113c0-47.514,42.646-70.334,107.365-69.959v-2.616
	c0-9.727-5.236-23.567-33.297-23.567c-18.701,0-38.53,6.359-50.5,13.84l-10.476-36.662c12.719-7.109,37.783-16.085,71.079-16.085
	c60.977,0,80.432,35.912,80.432,78.935v63.596c0,17.582,0.751,34.417,2.619,44.519L486.709,265.609L486.709,265.609z
	 M479.976,179.193c-29.927-0.375-53.122,6.733-53.122,28.806c0,14.589,9.727,21.696,22.445,21.696
	c14.217,0,25.815-9.352,29.555-20.948c0.748-2.991,1.122-6.358,1.122-9.728V179.193z M580.24,0h56.861v265.609H580.24V0z
	 M787.119,265.609l-3.364-18.332h-1.125c-11.972,14.592-30.677,22.447-52.375,22.447c-37.034,0-59.104-26.935-59.104-56.113
	c0-47.514,42.646-70.334,107.362-69.959v-2.616c0-9.727-5.234-23.567-33.295-23.567c-18.703,0-38.53,6.359-50.501,13.84
	l-10.476-36.662c12.719-7.109,37.783-16.085,71.078-16.085c60.978,0,80.432,35.912,80.432,78.935v63.596
	c0,17.582,0.749,34.417,2.619,44.519L787.119,265.609L787.119,265.609z M780.386,179.193c-29.926-0.375-53.122,6.733-53.122,28.806
	c0,14.589,9.727,21.696,22.446,21.696c14.216,0,25.812-9.352,29.555-20.948c0.747-2.991,1.121-6.358,1.121-9.728V179.193
	L780.386,179.193z"/>
</svg>
