<?xml version="1.0" encoding="utf-8"?>
<!-- Generator: Adobe Illustrator 16.2.1, SVG Export Plug-In . SVG Version: 6.00 Build 0)  -->
<!DOCTYPE svg PUBLIC "-//W3C//DTD SVG 1.1//EN" "http://www.w3.org/Graphics/SVG/1.1/DTD/svg11.dtd">
<svg version="1.1" id="Layer_1" xmlns="http://www.w3.org/2000/svg" xmlns:xlink="http://www.w3.org/1999/xlink" x="0px" y="0px"
	 width="887.002px" height="271.318px" viewBox="0 0 887.002 271.318" enable-background="new 0 0 887.002 271.318"
	 xml:space="preserve">
<path fill="#010101" d="M0,125.224v62.612c0-5.218,166.965-15.652,166.965-41.742l0,0V83.482C166.965,109.571,0,120.006,0,125.224
	 M0,41.741v62.611c0-5.217,166.965-15.653,166.965-41.741l0,0V0C166.965,26.088,0,36.523,0,41.741 M0,208.707v62.611
	c0-5.219,166.965-15.651,166.965-41.741l0,0v-62.612C166.965,193.055,0,203.488,0,208.707 M210.53,191.857
	c12.549,6.427,31.833,12.854,51.729,12.854c21.426,0,32.751-8.875,32.751-22.343c0-12.855-9.796-20.202-34.588-29.079
	c-34.282-11.938-56.626-30.916-56.626-60.913c0-35.2,29.383-62.136,78.053-62.136c23.263,0,40.404,4.898,52.648,10.407
	l-10.409,37.65c-8.264-3.979-22.956-9.795-43.158-9.795c-20.203,0-29.999,9.184-29.999,19.896c0,13.161,11.633,18.979,38.264,29.08
	c36.423,13.468,53.564,32.447,53.564,61.524c0,34.589-26.63,63.976-83.256,63.976c-23.568,0-46.832-6.123-58.463-12.553
	L210.53,191.857z M487.236,236.242c-8.265,3.673-23.875,6.734-41.63,6.734c-48.361,0-79.277-29.387-79.277-76.524
	c0-43.77,29.998-79.582,85.706-79.582c12.243,0,25.711,2.142,35.508,5.816l-7.347,34.587c-5.511-2.447-13.774-4.591-26.02-4.591
	c-24.486,0-40.402,17.446-40.098,41.936c0,27.547,18.365,41.933,41.017,41.933c11.02,0,19.59-1.837,26.629-4.591L487.236,236.242z
	 M599.268,239.915l-2.754-15h-0.918c-9.796,11.938-25.1,18.365-42.854,18.365c-30.303,0-48.361-22.037-48.361-45.911
	c0-38.876,34.896-57.547,87.847-57.24v-2.143c0-7.958-4.283-19.283-27.241-19.283c-15.305,0-31.526,5.203-41.321,11.326
	l-8.57-29.998c10.406-5.816,30.915-13.161,58.157-13.161c49.892,0,65.809,29.384,65.809,64.584v52.035
	c0,14.387,0.612,28.159,2.144,36.425L599.268,239.915L599.268,239.915z M593.758,169.208c-24.486-0.308-43.465,5.51-43.465,23.567
	c0,11.938,7.957,17.754,18.366,17.754c11.63,0,21.12-7.651,24.18-17.141c0.612-2.449,0.919-5.203,0.919-7.96V169.208z
	 M675.795,22.59h46.526v217.325h-46.526V22.59z M845.065,239.915l-2.753-15h-0.92c-9.796,11.938-25.1,18.365-42.853,18.365
	c-30.303,0-48.361-22.037-48.361-45.911c0-38.876,34.894-57.547,87.848-57.24v-2.143c0-7.958-4.284-19.283-27.242-19.283
	c-15.305,0-31.526,5.203-41.321,11.326l-8.571-29.998c10.406-5.816,30.915-13.161,58.157-13.161c49.893,0,65.81,29.384,65.81,64.584
	v52.035c0,14.387,0.612,28.159,2.144,36.425L845.065,239.915L845.065,239.915z M839.556,169.208
	c-24.484-0.308-43.465,5.51-43.465,23.567c0,11.938,7.958,17.754,18.366,17.754c11.63,0,21.12-7.651,24.18-17.141
	c0.612-2.449,0.919-5.203,0.919-7.96V169.208z"/>
</svg>
