<?xml version="1.0" encoding="utf-8"?>
<!-- Generator: Adobe Illustrator 16.2.1, SVG Export Plug-In . SVG Version: 6.00 Build 0)  -->
<!DOCTYPE svg PUBLIC "-//W3C//DTD SVG 1.1//EN" "http://www.w3.org/Graphics/SVG/1.1/DTD/svg11.dtd">
<svg version="1.1" id="Layer_1" xmlns="http://www.w3.org/2000/svg" xmlns:xlink="http://www.w3.org/1999/xlink" x="0px" y="0px"
	 width="856.697px" height="229.053px" viewBox="0 0 856.697 229.053" enable-background="new 0 0 856.697 229.053"
	 xml:space="preserve">
<path d="M131.929,128.509c4.462,4.96,7.757,10.388,9.891,16.287c2.13,5.899,3.198,12.767,3.198,20.601
	c0,18.644-6.893,34.013-20.674,46.107c-13.784,12.1-30.889,18.146-51.313,18.146c-9.422,0-18.841-1.465-28.26-4.387
	c-9.422-2.925-17.551-6.473-24.393-10.636l-6.396,10.858h-11.9L0,153.198h12.047c2.478,8.925,5.378,16.981,8.7,24.17
	c3.322,7.19,7.709,13.907,13.163,20.153c5.155,5.854,11.179,10.512,18.071,13.98c6.891,3.473,14.897,5.205,24.021,5.205
	c6.842,0,12.814-0.893,17.924-2.68c5.104-1.786,9.245-4.321,12.418-7.596c3.172-3.277,5.527-7.123,7.066-11.545
	c1.536-4.419,2.305-9.508,2.305-15.268c0-8.438-2.38-16.309-7.139-23.604c-4.76-7.299-11.85-12.834-21.269-16.608
	c-6.447-2.565-13.833-5.406-22.162-8.515c-8.33-3.109-15.52-6.05-21.566-8.815c-11.899-5.352-21.146-12.367-27.74-21.038
	c-6.596-8.673-9.891-20-9.891-33.977c0-8.031,1.637-15.514,4.909-22.452c3.272-6.94,7.932-13.136,13.981-18.589
	c5.75-5.154,12.543-9.193,20.376-12.118c7.833-2.924,16.014-4.387,24.542-4.387c9.717,0,18.418,1.486,26.104,4.462
	c7.683,2.974,14.698,6.445,21.046,10.409l6.098-10.113h11.899l1.19,70.055h-12.047c-2.182-8.032-4.636-15.715-7.362-23.054
	c-2.728-7.336-6.273-13.981-10.634-19.931c-4.266-5.749-9.47-10.338-15.618-13.759c-6.149-3.421-13.684-5.131-22.607-5.131
	c-9.422,0-17.454,3.026-24.096,9.072c-6.644,6.05-9.965,13.438-9.965,22.163c0,9.123,2.131,16.683,6.395,22.682
	c4.262,6.001,10.46,10.933,18.592,14.799c7.237,3.472,14.353,6.471,21.344,8.998c6.99,2.528,13.758,5.232,20.303,8.106
	c5.949,2.579,11.675,5.502,17.18,8.775C123.079,120.329,127.862,124.146,131.929,128.509z M219.927,225.336h-70.798v-9.814
	c2.28-0.199,4.634-0.396,7.064-0.598c2.428-0.197,4.536-0.591,6.322-1.188c2.775-0.892,4.834-2.45,6.172-4.68
	c1.339-2.229,2.008-5.125,2.008-8.691v-90.472c0-3.171-0.719-6.065-2.157-8.692c-1.438-2.623-3.446-4.827-6.023-6.609
	c-1.885-1.188-4.611-2.204-8.181-3.044c-3.57-0.84-6.841-1.361-9.816-1.563v-9.816l51.76-3.272l2.082,2.083v119.583
	c0,3.474,0.665,6.348,1.995,8.629s3.42,3.966,6.277,5.056c2.166,0.894,4.283,1.612,6.352,2.158c2.069,0.545,4.383,0.915,6.944,1.116
	L219.927,225.336L219.927,225.336z M201.336,19.04c0,5.652-1.859,10.586-5.579,14.798c-3.718,4.215-8.305,6.322-13.759,6.322
	c-5.056,0-9.444-2.009-13.162-6.025c-3.719-4.016-5.578-8.601-5.578-13.758c0-5.451,1.858-10.21,5.578-14.279
	C172.555,2.032,176.942,0,181.999,0c5.653,0,10.287,1.91,13.907,5.726C199.525,9.545,201.336,13.983,201.336,19.04z
	 M385.487,225.336h-71.691v-9.814c2.279-0.199,4.781-0.396,7.51-0.598c2.727-0.197,4.983-0.593,6.769-1.189
	c2.775-0.893,4.834-2.453,6.172-4.686c1.338-2.23,2.009-5.131,2.009-8.699v-75.41c0-10.409-2.462-18.442-7.382-24.096
	c-4.92-5.652-10.908-8.477-17.962-8.477c-5.271,0-10.092,0.819-14.464,2.455c-4.373,1.636-8.246,3.644-11.626,6.022
	c-3.282,2.282-5.891,4.736-7.828,7.363c-1.939,2.627-3.357,4.735-4.25,6.322v84.331c0,3.373,0.694,6.149,2.084,8.33
	c1.386,2.183,3.47,3.867,6.246,5.057c2.081,0.992,4.336,1.736,6.768,2.23c2.427,0.498,4.93,0.844,7.51,1.043v9.815h-71.839v-9.815
	c2.28-0.198,4.635-0.396,7.065-0.597c2.429-0.196,4.537-0.591,6.321-1.188c2.775-0.891,4.834-2.449,6.172-4.678
	c1.338-2.229,2.008-5.127,2.008-8.692v-90.473c0-3.367-0.721-6.462-2.157-9.283c-1.439-2.821-3.446-5.125-6.024-6.91
	c-1.885-1.187-4.116-2.054-6.692-2.599c-2.581-0.544-5.355-0.915-8.331-1.116V80.17l48.786-3.273l2.081,2.083v20.675h0.745
	c2.38-2.38,5.354-5.23,8.925-8.553c3.568-3.321,6.939-6.023,10.114-8.106c3.668-2.379,8.032-4.361,13.09-5.948
	c5.055-1.585,10.757-2.38,17.104-2.38c14.077,0,24.515,4.387,31.308,13.162c6.79,8.775,10.188,20.452,10.188,35.029v76.301
	c0,3.473,0.596,6.271,1.785,8.402c1.188,2.133,3.218,3.793,6.099,4.982c2.381,0.991,4.437,1.688,6.171,2.083
	c1.735,0.397,4.141,0.694,7.215,0.894L385.487,225.336L385.487,225.336z M525.012,222.659c-4.662,1.687-8.754,3.049-12.272,4.089
	c-3.521,1.041-7.511,1.562-11.972,1.562c-7.736,0-13.908-1.812-18.518-5.431c-4.612-3.618-7.562-8.897-8.851-15.841h-0.894
	c-6.447,7.139-13.364,12.594-20.748,16.363c-7.389,3.767-16.287,5.65-26.7,5.65c-11.005,0-20.056-3.373-27.144-10.115
	c-7.09-6.74-10.634-15.563-10.634-26.474c0-5.651,0.792-10.709,2.379-15.171c1.585-4.463,3.964-8.479,7.139-12.047
	c2.479-2.977,5.749-5.626,9.816-7.958c4.064-2.33,7.885-4.188,11.455-5.578c4.46-1.687,13.509-4.81,27.145-9.37
	c13.631-4.56,22.829-8.129,27.59-10.709v-14.726c0-1.288-0.271-3.766-0.816-7.438c-0.548-3.667-1.711-7.139-3.496-10.41
	c-1.984-3.667-4.783-6.866-8.403-9.594c-3.621-2.726-8.753-4.09-15.394-4.09c-4.563,0-8.802,0.769-12.72,2.306
	c-3.919,1.538-6.669,3.148-8.255,4.833c0,1.985,0.472,4.91,1.413,8.776c0.94,3.866,1.413,7.436,1.413,10.708
	c0,3.472-1.561,6.645-4.685,9.52c-3.123,2.875-7.463,4.312-13.015,4.312c-4.959,0-8.604-1.759-10.933-5.28
	c-2.331-3.518-3.495-7.459-3.495-11.824c0-4.56,1.611-8.923,4.833-13.088c3.222-4.164,7.412-7.882,12.567-11.156
	c4.462-2.774,9.865-5.131,16.213-7.064c6.344-1.935,12.543-2.902,18.592-2.902c8.328,0,15.59,0.572,21.79,1.712
	c6.193,1.141,11.823,3.594,16.881,7.362c5.057,3.669,8.899,8.652,11.528,14.947c2.625,6.298,3.942,14.404,3.942,24.319
	c0,14.182-0.149,26.75-0.446,37.703c-0.298,10.959-0.447,22.934-0.447,35.922c0,3.867,0.67,6.941,2.01,9.222
	c1.338,2.282,3.396,4.215,6.172,5.801c1.488,0.894,3.842,1.39,7.064,1.487c3.221,0.1,6.52,0.147,9.893,0.147v9.521h0.001V222.659z
	 M473.1,144.125c-8.428,2.484-15.815,4.921-22.16,7.305c-6.348,2.385-12.247,5.366-17.698,8.943c-4.961,3.377-8.876,7.38-11.751,12
	c-2.876,4.621-4.313,10.111-4.313,16.472c0,8.247,2.156,14.308,6.47,18.187c4.313,3.877,9.791,5.812,16.436,5.812
	c7.039,0,13.237-1.712,18.594-5.144c5.354-3.428,9.864-7.477,13.535-12.147L473.1,144.125z M607.045,218.939
	c-6.445,2.678-12.543,4.935-18.293,6.768c-5.752,1.834-12.791,2.751-21.121,2.751c-12.295,0-20.947-3.099-25.953-9.296
	c-5.008-6.195-7.512-14.948-7.512-26.251V93.555h-26.475V79.276h27.069V33.614h27.07v45.662h42.092v14.278h-41.795v81.954
	c0,6.149,0.225,11.28,0.67,15.395c0.445,4.117,1.512,7.713,3.197,10.783c1.584,2.877,3.965,5.059,7.141,6.545
	c3.172,1.486,7.437,2.231,12.789,2.231c2.48,0,6.123-0.226,10.935-0.668c4.809-0.446,8.205-1.017,10.188-1.712v10.855h-0.002
	V218.939z M721.307,97.572c0,5.057-1.241,9.544-3.719,13.461c-2.479,3.919-6.299,5.875-11.453,5.875
	c-5.555,0-9.793-1.437-12.717-4.314c-2.926-2.874-4.387-6.046-4.387-9.517c0-2.18,0.172-4.166,0.52-5.949
	c0.347-1.786,0.67-3.572,0.967-5.355c-4.661,0-10.112,1.885-16.36,5.653c-6.248,3.769-11.552,9.123-15.914,16.062v85.376
	c0,3.472,0.668,6.298,2.008,8.479c1.338,2.183,3.443,3.817,6.322,4.907c2.477,0.992,5.674,1.734,9.592,2.23
	c3.916,0.498,7.311,0.844,10.188,1.043v9.815h-77.342v-9.815c2.279-0.198,4.633-0.396,7.064-0.597
	c2.428-0.196,4.537-0.591,6.32-1.188c2.774-0.892,4.834-2.45,6.172-4.681c1.34-2.229,2.01-5.125,2.01-8.69v-90.474
	c0-3.07-0.721-6.092-2.156-9.061c-1.438-2.971-3.447-5.348-6.024-7.133c-1.886-1.187-4.115-2.054-6.693-2.599
	c-2.58-0.544-5.353-0.915-8.328-1.116v-9.816l48.785-3.272l2.082,2.083v20.674h0.742c6.147-8.032,12.989-14.13,20.526-18.295
	c7.535-4.163,14.428-6.246,20.674-6.246c6.248,0,11.328,2.033,15.246,6.099C719.348,85.278,721.307,90.73,721.307,97.572z
	 M856.697,222.659c-4.662,1.687-8.752,3.049-12.271,4.089c-3.52,1.041-7.51,1.562-11.971,1.562c-7.736,0-13.908-1.812-18.518-5.431
	c-4.613-3.618-7.562-8.897-8.851-15.841h-0.893c-6.447,7.139-13.365,12.594-20.748,16.363c-7.39,3.767-16.289,5.65-26.699,5.65
	c-11.008,0-20.059-3.373-27.146-10.115c-7.09-6.74-10.635-15.563-10.635-26.474c0-5.651,0.791-10.709,2.377-15.171
	c1.586-4.463,3.965-8.479,7.142-12.047c2.479-2.977,5.75-5.626,9.815-7.958c4.064-2.33,7.883-4.188,11.453-5.578
	c4.461-1.687,13.51-4.81,27.146-9.37c13.633-4.56,22.83-8.129,27.592-10.709v-14.726c0-1.288-0.273-3.766-0.818-7.438
	c-0.547-3.667-1.711-7.139-3.494-10.41c-1.985-3.667-4.787-6.866-8.403-9.594c-3.621-2.726-8.754-4.09-15.396-4.09
	c-4.563,0-8.803,0.769-12.719,2.306c-3.918,1.538-6.67,3.148-8.256,4.833c0,1.985,0.471,4.91,1.414,8.776
	c0.938,3.866,1.412,7.436,1.412,10.708c0,3.472-1.562,6.645-4.687,9.52c-3.123,2.875-7.463,4.312-13.014,4.312
	c-4.959,0-8.605-1.759-10.933-5.28c-2.331-3.518-3.495-7.459-3.495-11.824c0-4.56,1.61-8.923,4.834-13.088
	c3.221-4.164,7.411-7.882,12.567-11.156c4.461-2.774,9.867-5.131,16.213-7.064c6.345-1.935,12.543-2.902,18.593-2.902
	c8.327,0,15.592,0.572,21.791,1.712c6.194,1.141,11.821,3.594,16.881,7.362c5.057,3.669,8.897,8.652,11.524,14.947
	c2.627,6.298,3.943,14.404,3.943,24.319c0,14.182-0.148,26.75-0.445,37.703c-0.299,10.959-0.447,22.934-0.447,35.922
	c0,3.867,0.671,6.941,2.011,9.222c1.338,2.282,3.396,4.215,6.172,5.801c1.488,0.894,3.842,1.39,7.063,1.487
	c3.222,0.1,6.521,0.147,9.892,0.147v9.523H856.697z M804.789,144.125c-8.428,2.484-15.818,4.921-22.162,7.305
	c-6.348,2.385-12.248,5.366-17.697,8.943c-4.963,3.377-8.877,7.38-11.752,12c-2.877,4.621-4.312,10.111-4.312,16.472
	c0,8.247,2.155,14.308,6.469,18.187c4.312,3.877,9.791,5.812,16.436,5.812c7.041,0,13.238-1.712,18.593-5.144
	c5.354-3.428,9.866-7.477,13.537-12.147L804.789,144.125z"/>
</svg>
