<?xml version="1.0" encoding="utf-8"?>
<!-- Generator: Adobe Illustrator 16.2.1, SVG Export Plug-In . SVG Version: 6.00 Build 0)  -->
<!DOCTYPE svg PUBLIC "-//W3C//DTD SVG 1.1//EN" "http://www.w3.org/Graphics/SVG/1.1/DTD/svg11.dtd">
<svg version="1.1" id="Layer_1" xmlns="http://www.w3.org/2000/svg" xmlns:xlink="http://www.w3.org/1999/xlink" x="0px" y="0px"
	 width="1000px" height="286.164px" viewBox="0 0 1000 286.164" enable-background="new 0 0 1000 286.164" xml:space="preserve">
<path d="M42.398,48.604c-0.63-0.636-0.979-1.479-0.979-2.375c0-0.9,0.349-1.746,0.979-2.384c1.249-1.266,3.496-1.272,4.753,0.003
	c0.63,0.636,0.979,1.48,0.979,2.381c0,1.859-1.505,3.37-3.357,3.37C43.876,49.599,43.03,49.244,42.398,48.604z M66.16,52.214
	c3.289,0,5.967-2.687,5.967-5.985c0-1.604-0.619-3.106-1.74-4.229c-2.241-2.269-6.179-2.285-8.445-0.005
	c-1.123,1.132-1.742,2.634-1.742,4.235c0,1.589,0.616,3.092,1.745,4.237C63.073,51.592,64.573,52.214,66.16,52.214z M44.92,26.098
	c0.854,0,1.546-0.695,1.546-1.551c0-0.412-0.161-0.799-0.456-1.093c-0.581-0.581-1.671-0.529-2.162-0.02
	c-0.306,0.292-0.475,0.688-0.475,1.113c0,0.415,0.161,0.804,0.453,1.099C44.121,25.937,44.509,26.098,44.92,26.098z M44.618,74.223
	c3.622,0,6.566-2.962,6.566-6.602c0-1.767-0.684-3.422-1.922-4.661c-2.477-2.503-6.814-2.498-9.285-0.005
	c-1.244,1.246-1.928,2.901-1.928,4.666s0.685,3.419,1.925,4.66C41.212,73.532,42.861,74.223,44.618,74.223z M87.188,4.419
	c0.851,0,1.541-0.692,1.541-1.546c0-0.417-0.158-0.805-0.45-1.097c-0.573-0.572-1.585-0.592-2.204,0.022
	c-0.281,0.294-0.434,0.676-0.434,1.074c0,0.412,0.161,0.799,0.434,1.071C86.366,4.25,86.762,4.419,87.188,4.419z M85.576,54.501
	h3.109c0.082,0,0.166-0.008,0.245-0.027c3.829-0.845,6.604-4.313,6.604-8.245c0-2.259-0.875-4.383-2.465-5.98
	c-3.177-3.183-8.683-3.196-11.887,0.002c-1.584,1.595-2.457,3.719-2.457,5.979C78.726,50.163,81.504,53.629,85.576,54.501z
	 M108.381,30.602c3.321,0,6.023-2.716,6.023-6.056c0-1.609-0.622-3.125-1.761-4.281c-1.146-1.143-2.659-1.772-4.262-1.772
	c-1.611,0-3.125,0.63-4.26,1.775c-1.137,1.143-1.761,2.662-1.761,4.279c0,1.623,0.625,3.141,1.756,4.276
	C105.248,29.97,106.761,30.602,108.381,30.602z M87.127,28.999c2.443,0,4.432-1.999,4.432-4.453c0-1.186-0.461-2.301-1.293-3.141
	c-1.652-1.683-4.586-1.705-6.274-0.003c-0.834,0.84-1.292,1.958-1.292,3.144c0,1.194,0.461,2.312,1.292,3.144
	C84.823,28.533,85.938,28.999,87.127,28.999z M66.16,26.954c1.322,0,2.399-1.08,2.399-2.408c0-0.633-0.248-1.235-0.703-1.705
	c-0.889-0.895-2.411-0.935-3.406,0.014c-0.441,0.461-0.687,1.061-0.687,1.691c0,0.641,0.248,1.244,0.707,1.707
	C64.928,26.706,65.527,26.954,66.16,26.954z M44.618,97.808c4.559,0,8.265-3.594,8.44-8.225v-0.595
	c-0.175-4.586-3.881-8.179-8.44-8.179c-2.255,0-4.379,0.882-5.978,2.484c-1.592,1.604-2.47,3.738-2.47,6.013
	c0,2.275,0.878,4.409,2.468,6.006C40.232,96.921,42.357,97.808,44.618,97.808z M0.668,173.76C0.237,174.175,0,174.736,0,175.347
	c0,0.591,0.229,1.146,0.641,1.562c0.415,0.425,0.974,0.659,1.576,0.659c1.219,0,2.212-0.998,2.212-2.221
	c0-0.604-0.232-1.167-0.639-1.563C2.95,172.937,1.437,172.969,0.668,173.76z M0.66,130.806C0.234,131.223,0,131.785,0,132.39
	c0,0.596,0.24,1.17,0.641,1.559c0.417,0.428,0.977,0.665,1.576,0.665c1.219,0,2.212-0.998,2.212-2.224
	c0-0.603-0.232-1.164-0.644-1.572C2.932,129.96,1.464,129.99,0.66,130.806z M0.644,152.174C0.229,152.594,0,153.155,0,153.75
	c0,0.589,0.229,1.146,0.641,1.56c0.415,0.427,0.974,0.66,1.576,0.66c1.219,0,2.212-0.998,2.212-2.22
	c0-0.595-0.227-1.151-0.641-1.576C2.948,151.328,1.462,151.339,0.644,152.174z M23.44,47.684c0.807,0,1.462-0.653,1.462-1.455
	c0-0.314-0.224-0.852-0.45-1.066c-0.213-0.199-0.72-0.401-1.012-0.401c-0.303,0-0.823,0.21-1.039,0.423
	c-0.213,0.216-0.428,0.742-0.428,1.045c0,0.315,0.226,0.842,0.455,1.058C22.642,47.485,23.151,47.684,23.44,47.684z M0.649,109.217
	C0.231,109.637,0,110.196,0,110.787c0,0.592,0.229,1.147,0.644,1.571c0.417,0.42,0.976,0.65,1.573,0.65
	c1.219,0,2.212-0.998,2.212-2.223c0-0.591-0.227-1.146-0.644-1.57C2.939,108.38,1.478,108.388,0.649,109.217z M23.44,238.442
	c-0.316,0-0.848,0.229-1.063,0.458c-0.199,0.212-0.403,0.72-0.403,1.009c0,0.3,0.215,0.823,0.431,1.036
	c0.213,0.213,0.733,0.431,1.036,0.431c0.807,0,1.462-0.66,1.462-1.467c0-0.316-0.224-0.846-0.453-1.059
	C24.239,238.649,23.729,238.442,23.44,238.442z M1.121,195.776c-0.284,0.301-0.428,0.654-0.428,1.059
	c0,0.441,0.191,0.856,0.428,1.047c0.284,0.301,0.673,0.464,1.096,0.464c0.84,0,1.521-0.677,1.521-1.511
	c0-0.278-0.073-0.688-0.403-1.036C2.768,195.166,1.71,195.161,1.121,195.776z M23.261,70.522c1.59,0,2.885-1.302,2.885-2.901
	c0-0.774-0.297-1.502-0.851-2.059c-1.113-1.097-2.997-1.082-4.082,0.006c-0.546,0.548-0.849,1.278-0.849,2.053
	c0,0.766,0.3,1.495,0.846,2.048C21.755,70.219,22.483,70.522,23.261,70.522z M23.261,93.949c2.547,0,4.616-2.083,4.616-4.642
	c0-1.24-0.479-2.404-1.353-3.285c-1.742-1.753-4.758-1.765-6.542,0.003c-0.867,0.873-1.344,2.04-1.344,3.282
	c0,1.241,0.477,2.405,1.353,3.286C20.872,93.466,22.033,93.949,23.261,93.949z M23.261,116.664c3.223,0,5.844-2.637,5.844-5.877
	c0-1.567-0.608-3.043-1.71-4.153c-2.217-2.232-6.078-2.225-8.273,0c-1.104,1.11-1.713,2.585-1.713,4.153s0.608,3.043,1.71,4.147
	C20.22,116.05,21.689,116.664,23.261,116.664z M2.217,90.835c0.84,0,1.521-0.685,1.521-1.527c0-0.408-0.158-0.793-0.444-1.083
	c-0.564-0.556-1.53-0.589-2.151,0c-0.292,0.289-0.45,0.674-0.45,1.083c0,0.412,0.172,0.812,0.428,1.054
	C1.412,90.665,1.8,90.835,2.217,90.835z M151.136,5.774c0.777,0,1.505-0.303,2.051-0.854c0.543-0.548,0.843-1.276,0.843-2.048
	c0-0.777-0.3-1.505-0.84-2.045c-1.091-1.107-3.032-1.093-4.085-0.014c-0.554,0.542-0.856,1.274-0.856,2.059
	C148.248,4.474,149.543,5.774,151.136,5.774z M257.66,116.664c1.567,0,3.037-0.614,4.137-1.724c1.102-1.104,1.709-2.58,1.709-4.153
	s-0.608-3.048-1.707-4.15c-2.206-2.228-6.067-2.225-8.279-0.003c-1.102,1.107-1.707,2.583-1.707,4.153
	C251.813,114.027,254.437,116.664,257.66,116.664z M235.995,26.098c0.398,0,0.777-0.155,1.113-0.474
	c0.278-0.292,0.434-0.676,0.434-1.077c0-0.412-0.161-0.799-0.453-1.093c-0.589-0.584-1.671-0.54-2.16-0.02
	c-0.305,0.292-0.474,0.688-0.474,1.113C234.454,25.402,235.144,26.098,235.995,26.098z M236.142,49.599
	c0.895,0,1.737-0.352,2.373-0.989c0.635-0.639,0.984-1.48,0.984-2.38c0-0.903-0.349-1.748-0.982-2.381
	c-1.26-1.275-3.49-1.275-4.75,0c-0.633,0.642-0.979,1.483-0.979,2.381C232.788,48.088,234.293,49.599,236.142,49.599z M236.3,97.808
	c2.258,0,4.38-0.887,5.98-2.494c1.595-1.606,2.473-3.739,2.473-6.006c0-2.266-0.878-4.397-2.476-6.016
	c-1.604-1.601-3.725-2.48-5.978-2.48c-4.564,0-8.271,3.594-8.434,8.222v0.592C228.029,94.213,231.735,97.808,236.3,97.808z
	 M236.3,74.223c1.754,0,3.406-0.689,4.644-1.938c1.241-1.246,1.922-2.901,1.922-4.663s-0.682-3.417-1.92-4.661
	c-2.484-2.506-6.817-2.5-9.296,0c-1.238,1.247-1.919,2.901-1.919,4.661C229.731,71.261,232.679,74.223,236.3,74.223z M108.381,5.15
	c1.252,0,2.271-1.023,2.271-2.277c0-0.605-0.234-1.176-0.665-1.614c-0.859-0.854-2.367-0.854-3.221,0.011
	c-0.423,0.434-0.654,1.001-0.654,1.604c0,0.597,0.231,1.164,0.662,1.614C107.203,4.915,107.772,5.15,108.381,5.15z M278.703,113.01
	c0.6,0,1.159-0.233,1.562-0.646c0.42-0.422,0.652-0.981,0.652-1.576c0-0.597-0.234-1.156-0.641-1.56
	c-0.832-0.852-2.324-0.844-3.152-0.006c-0.412,0.421-0.641,0.977-0.641,1.565C276.483,112.012,277.479,113.01,278.703,113.01z
	 M278.703,90.835c0.415,0,0.802-0.169,1.075-0.453c0.286-0.289,0.444-0.671,0.444-1.074c0-0.396-0.15-0.771-0.469-1.102
	c-0.567-0.537-1.472-0.6-2.17,0.065c-0.262,0.288-0.404,0.656-0.404,1.035C277.179,90.15,277.863,90.835,278.703,90.835z
	 M214.755,26.954c0.644,0,1.265-0.262,1.693-0.703c0.452-0.453,0.701-1.059,0.701-1.705c0-0.635-0.246-1.238-0.698-1.699
	c-0.884-0.895-2.443-0.941-3.409,0.014c-0.441,0.461-0.685,1.061-0.685,1.685C212.357,25.874,213.432,26.954,214.755,26.954z
	 M257.66,70.522c0.777,0,1.505-0.304,2.048-0.856c0.542-0.551,0.842-1.279,0.842-2.045c0-0.774-0.303-1.505-0.845-2.048
	c-1.091-1.104-2.975-1.118-4.102,0.006c-0.537,0.551-0.832,1.276-0.832,2.042C254.772,69.221,256.067,70.522,257.66,70.522z
	 M257.477,47.684c0.393,0,0.758-0.149,1.055-0.449c0.199-0.21,0.409-0.718,0.409-1.007c0-0.438-0.186-0.843-0.406-1.017
	c-0.215-0.229-0.742-0.45-1.058-0.45c-0.404,0-0.791,0.164-1.006,0.398c-0.229,0.215-0.458,0.752-0.458,1.068
	C256.013,47.03,256.67,47.684,257.477,47.684z M257.66,93.949c1.229,0,2.391-0.483,3.272-1.363c0.87-0.878,1.35-2.042,1.35-3.278
	c0-1.24-0.48-2.404-1.353-3.289c-1.754-1.747-4.772-1.753-6.542,0.006c-0.87,0.878-1.35,2.042-1.35,3.282
	C253.038,91.865,255.11,93.949,257.66,93.949z M21.207,216.463c-0.542,0.558-0.843,1.282-0.843,2.046
	c0,0.785,0.303,1.511,0.84,2.039c0.546,0.562,1.276,0.867,2.057,0.867c1.59,0,2.885-1.303,2.885-2.906
	c0-0.764-0.297-1.488-0.84-2.046C24.204,215.351,22.268,215.384,21.207,216.463z M214.755,52.214c1.598,0,3.098-0.622,4.221-1.754
	c1.124-1.137,1.743-2.64,1.743-4.231c0-1.604-0.619-3.106-1.74-4.229c-2.241-2.274-6.195-2.277-8.437-0.008
	c-1.129,1.126-1.75,2.632-1.75,4.238C208.791,49.527,211.466,52.214,214.755,52.214z M129.776,5.774
	c1.595,0,2.893-1.301,2.893-2.901c0-0.788-0.305-1.519-0.84-2.04c-1.069-1.104-3-1.112-4.09-0.016
	c-0.551,0.545-0.854,1.276-0.854,2.056c0,0.774,0.303,1.505,0.848,2.053C128.282,5.472,129.007,5.774,129.776,5.774z
	 M172.534,30.602c1.617,0,3.13-0.63,4.265-1.775c1.137-1.143,1.762-2.665,1.762-4.281c0-1.615-0.625-3.133-1.762-4.279
	c-2.279-2.288-6.242-2.296-8.527,0.003c-1.137,1.146-1.761,2.664-1.761,4.276C166.51,27.887,169.213,30.602,172.534,30.602z
	 M129.776,31.775c3.962,0,7.188-3.242,7.188-7.229c0-1.933-0.747-3.744-2.102-5.099c-2.713-2.735-7.447-2.749-10.168-0.003
	c-1.355,1.363-2.103,3.174-2.103,5.102c0,1.928,0.744,3.741,2.103,5.113C126.06,31.022,127.864,31.775,129.776,31.775z
	 M151.136,31.775c1.923,0,3.728-0.753,5.091-2.122c1.355-1.366,2.1-3.179,2.1-5.107c0-1.928-0.748-3.739-2.1-5.099
	c-2.716-2.735-7.456-2.749-10.177-0.003c-1.353,1.366-2.1,3.177-2.1,5.102C143.951,28.533,147.174,31.775,151.136,31.775z
	 M172.534,5.15c0.597,0,1.164-0.232,1.622-0.679c0.42-0.436,0.652-1.003,0.652-1.598c0-0.6-0.232-1.17-0.671-1.617
	c-0.856-0.851-2.346-0.854-3.207,0.008c-0.428,0.434-0.663,1.004-0.663,1.609C170.268,4.127,171.285,5.15,172.534,5.15z
	 M193.788,28.999c1.192,0,2.307-0.466,3.136-1.303c0.837-0.84,1.298-1.958,1.298-3.149c0-1.186-0.461-2.301-1.298-3.147
	c-1.674-1.685-4.595-1.688-6.274,0.003c-0.834,0.84-1.292,1.958-1.292,3.144C189.356,27,191.344,28.999,193.788,28.999z
	 M193.73,4.419c0.428,0,0.823-0.169,1.074-0.434c0.303-0.286,0.475-0.692,0.475-1.112c0-0.415-0.161-0.802-0.453-1.097
	c-0.292-0.289-0.682-0.45-1.096-0.45c-0.426,0-0.818,0.167-1.088,0.45c-0.292,0.295-0.453,0.682-0.453,1.097
	C192.189,3.727,192.879,4.419,193.73,4.419z M192.238,54.501h3.101c0.082,0,0.167-0.008,0.246-0.027
	c3.826-0.845,6.605-4.313,6.605-8.245c0-2.262-0.873-4.383-2.457-5.983c-3.188-3.185-8.688-3.19-11.893,0.005
	c-1.581,1.595-2.454,3.717-2.454,5.979C185.386,50.16,188.165,53.629,192.238,54.501z M127.729,281.211
	c-0.543,0.556-0.843,1.281-0.843,2.056c0,0.765,0.3,1.489,0.856,2.058c0.551,0.54,1.273,0.84,2.034,0.84
	c1.595,0,2.893-1.298,2.893-2.896c0-0.779-0.303-1.511-0.848-2.057C130.747,280.12,128.868,280.099,127.729,281.211z
	 M233.764,237.531c-0.63,0.638-0.976,1.482-0.976,2.378c0,1.859,1.505,3.376,3.354,3.376c0.914,0,1.762-0.36,2.364-0.993
	c0.641-0.627,0.993-1.472,0.993-2.383c0-0.9-0.349-1.745-0.987-2.389C237.246,236.255,235.046,236.244,233.764,237.531z
	 M234.928,260.476c-0.302,0.283-0.474,0.688-0.474,1.107c0,0.855,0.689,1.554,1.541,1.554c0.453,0,0.875-0.195,1.09-0.464
	c0.295-0.294,0.456-0.682,0.456-1.09c0-0.404-0.167-0.802-0.453-1.091C236.491,259.908,235.427,259.946,234.928,260.476z
	 M236.3,188.333c-4.564,0-8.271,3.594-8.434,8.219v0.595c0.164,4.581,3.87,8.17,8.434,8.17c2.269,0,4.394-0.884,5.978-2.486
	c1.598-1.599,2.476-3.73,2.476-5.994c0-2.269-0.878-4.406-2.473-6.005C240.685,189.222,238.561,188.333,236.3,188.333z
	 M217.58,209.515l-2.61-0.501c-0.142-0.032-0.289-0.032-0.431,0l-2.754,0.54c-2.462,0.817-4.494,2.655-5.579,5.051
	c-0.041,0.093-0.071,0.189-0.087,0.294l-0.532,3.437c-0.02,0.114-0.02,0.234,0,0.35l0.532,3.446
	c0.016,0.104,0.046,0.201,0.087,0.295c1.521,3.364,4.875,5.535,8.549,5.535c2.514,0,4.875-0.987,6.646-2.776
	c1.775-1.776,2.751-4.149,2.751-6.675C224.151,214.445,221.569,210.846,217.58,209.515z M231.648,213.846
	c-1.235,1.255-1.917,2.912-1.917,4.663c0,3.644,2.948,6.604,6.569,6.604c1.759,0,3.409-0.688,4.644-1.938
	c1.238-1.243,1.922-2.9,1.922-4.668c0-1.757-0.682-3.414-1.922-4.669C238.454,211.348,234.143,211.353,231.648,213.846z
	 M190.646,258.441c-0.832,0.845-1.29,1.958-1.29,3.142c0,2.454,1.988,4.455,4.431,4.455c1.194,0,2.31-0.463,3.141-1.314
	c0.835-0.845,1.293-1.963,1.293-3.141c0-1.179-0.458-2.297-1.298-3.152C195.255,256.762,192.326,256.751,190.646,258.441z
	 M223.571,142.428l-0.723,0.645l0.714,0.63c1.211,1.088,2.198,2.337,2.937,3.726l0.627,1.179l0.785-1.069
	c1.232-1.685,2.926-2.953,4.903-3.668l3.256-0.679c0.153-0.027,0.305-0.027,0.458,0l3.095,0.633
	c4.309,1.527,7.098,5.494,7.098,9.929c0,5.066-3.597,9.396-8.554,10.308l-3.534,0.018c-2.814-0.497-5.129-1.947-6.719-4.106
	l-0.791-1.074l-0.625,1.173c-0.259,0.397-2.053,3.037-3.469,4.167l-0.81,0.647l0.791,0.678c1.48,1.26,2.67,2.862,3.444,4.646
	l0.651,1.488l0.832-1.392c1.429-2.389,3.798-4.052,6.503-4.569l3.499-0.021c4.789,0.911,8.107,4.952,8.107,9.637
	c0,2.623-1.015,5.083-2.853,6.928c-1.849,1.854-4.298,2.874-6.896,2.874c-3.449,0-6.574-1.778-8.358-4.756l-0.834-1.392
	l-0.651,1.494c-1.025,2.346-2.703,4.31-4.852,5.685l-1.039,0.664l0.998,0.747c2.839,2.116,4.521,5.366,4.62,8.917v0.61
	c-0.136,5.057-3.597,9.484-8.413,10.81l-2.839,0.447c-0.12,0.022-0.234,0.022-0.354,0l-2.713-0.425
	c-2.34-0.633-4.303-1.888-5.806-3.66l-0.709-0.834l-0.616,0.905c-0.993,1.45-2.242,2.678-3.711,3.648l-0.993,0.648l0.925,0.73
	c1.685,1.342,2.964,3.118,3.7,5.153l0.726,3.752c0.024,0.143,0.024,0.283,0,0.427l-0.677,3.588c-1.48,4.134-4.938,7.008-9.075,7.674
	l-3.498,0.016c-3.248-0.496-6.038-2.263-7.835-4.854l-0.714-1.036l-0.676,1.062c-1.391,2.177-3.466,3.896-5.844,4.844l-2.659,0.691
	l2.38,0.775c3.256,1.733,5.162,4.93,5.162,8.426c0,2.525-0.976,4.897-2.751,6.681c-1.77,1.795-4.134,2.782-6.659,2.782
	c-4.611,0-8.612-3.458-9.305-8.039l-0.014-2.678c0.456-3.098,2.28-5.688,4.887-7.09l2.577-0.853l-2.525-0.653
	c-2.097-0.823-3.839-2.105-5.175-3.752l-0.679-0.847l-0.641,0.878c-1.112,1.489-2.542,2.743-4.137,3.645l-1.137,0.644l1.05,0.79
	c2.25,1.687,3.758,4.255,4.137,7.054l0.011,2.727c-0.718,5.372-5.203,9.31-10.447,9.31c-4.401,0-8.374-2.798-9.891-6.959
	l-0.485-3.489c-0.014-0.1-0.014-0.196,0-0.295l0.429-3.25c0.758-2.165,2.001-3.841,3.654-5.096l1.052-0.79l-1.14-0.644
	c-1.394-0.785-2.623-1.811-3.654-3.043l-0.643-0.775l-0.644,0.775c-1.025,1.231-2.252,2.252-3.646,3.043l-1.146,0.648l1.05,0.784
	c1.653,1.25,2.899,2.925,3.603,4.851l0.48,3.495c0.014,0.099,0.014,0.195,0,0.295l-0.423,3.25c-1.579,4.406-5.557,7.198-9.956,7.198
	c-5.241,0-9.725-3.938-10.428-9.156l-0.011-2.728c0.39-2.95,1.901-5.523,4.153-7.205l1.048-0.785l-1.148-0.647
	c-1.604-0.905-3.032-2.165-4.126-3.638l-0.646-0.885l-0.682,0.841c-1.336,1.651-3.078,2.935-5.033,3.714l-2.659,0.691l2.378,0.775
	c2.798,1.478,4.619,4.068,5.062,7.002l0.013,2.678c-0.698,4.751-4.696,8.209-9.315,8.209c-2.525,0-4.89-0.987-6.662-2.782
	c-1.775-1.787-2.751-4.16-2.751-6.681c0-3.496,1.909-6.69,4.979-8.344l2.574-0.853l-2.525-0.653c-2.52-0.992-4.595-2.711-5.98-4.888
	l-0.679-1.062l-0.712,1.03c-1.797,2.597-4.586,4.362-7.66,4.844L85.468,230c-4.308-0.682-7.766-3.55-9.206-7.515l-0.729-3.763
	c-0.024-0.144-0.024-0.284,0-0.427l0.679-3.578c0.786-2.209,2.064-3.991,3.747-5.327l0.927-0.73l-0.99-0.648
	c-1.476-0.972-2.725-2.198-3.711-3.654l-0.619-0.899l-0.707,0.834c-1.502,1.772-3.466,3.027-5.683,3.639l-2.841,0.446
	c-0.12,0.022-0.235,0.022-0.354,0l-2.713-0.425c-4.938-1.348-8.398-5.774-8.538-10.799v-0.611c0.099-3.583,1.784-6.833,4.628-8.955
	l0.99-0.74l-1.042-0.665c-2.146-1.375-3.82-3.345-4.843-5.685l-0.652-1.494l-0.834,1.392c-1.786,2.978-4.911,4.756-8.361,4.756
	c-2.604,0-5.05-1.021-6.896-2.88c-1.835-1.832-2.85-4.292-2.85-6.921c0-4.686,3.316-8.727,7.886-9.615l3.504-0.021
	c2.915,0.54,5.285,2.203,6.714,4.593l0.837,1.391l0.652-1.488c0.769-1.783,1.96-3.393,3.447-4.646l0.788-0.678l-0.815-0.653
	c-1.415-1.118-3.207-3.764-3.406-4.063l-0.684-1.271l-0.788,1.075c-1.59,2.158-3.908,3.608-6.523,4.09l-3.531,0.017
	c-5.159-0.928-8.753-5.258-8.753-10.324c0-4.435,2.79-8.4,6.937-9.885l3.253-0.676c0.152-0.027,0.305-0.027,0.458,0l3.098,0.633
	c2.133,0.758,3.829,2.025,5.064,3.72l0.783,1.063l0.627-1.178c0.729-1.378,1.715-2.629,2.932-3.718l0.723-0.638l-0.72-0.641
	c-1.211-1.08-2.198-2.334-2.935-3.726l-0.627-1.17l-0.785,1.069c-1.244,1.696-2.942,2.961-4.909,3.657l-3.245,0.688
	c-0.158,0.033-0.311,0.033-0.469,0l-3.098-0.648c-4.297-1.517-7.087-5.481-7.087-9.913c0-5.069,3.597-9.402,8.549-10.303l3.531-0.02
	c2.822,0.494,5.14,1.944,6.728,4.104l0.785,1.068l0.627-1.175c0.873-1.628,2.04-3.03,3.472-4.169l0.804-0.645l-0.791-0.673
	c-1.483-1.271-2.67-2.877-3.439-4.646l-0.652-1.495l-0.834,1.396c-1.429,2.382-3.799,4.048-6.501,4.567l-3.501,0.021
	c-4.786-0.899-8.104-4.943-8.104-9.637c0-2.623,1.014-5.085,2.852-6.926c1.833-1.852,4.284-2.874,6.894-2.874
	c3.455,0,6.58,1.777,8.361,4.758l0.834,1.395l0.652-1.491c1.012-2.34,2.686-4.309,4.84-5.691l1.042-0.668l-0.987-0.735
	c-2.844-2.116-4.529-5.369-4.628-8.923v-0.618c0.14-5.057,3.6-9.481,8.416-10.796l2.833-0.461c0.12-0.018,0.24-0.018,0.359,0
	l2.719,0.434c2.343,0.632,4.309,1.887,5.803,3.656l0.707,0.832l0.622-0.911c0.982-1.445,2.233-2.672,3.712-3.641l0.987-0.648
	l-0.924-0.73c-1.691-1.353-2.97-3.131-3.7-5.144l-0.767-3.343l-0.709,3.06c-1.153,2.596-3.188,4.438-5.653,5.26l-2.76,0.543
	c-0.071,0.015-0.142,0.021-0.215,0.021c-0.074,0-0.145-0.008-0.216-0.021l-2.606-0.504c-3.992-1.326-6.575-4.925-6.575-8.996
	c0-2.511,0.979-4.881,2.754-6.673c1.775-1.789,4.134-2.772,6.643-2.772c3.668,0,7.024,2.173,8.554,5.534l0.78,3.275l0.729-3.202
	c1.475-4.104,4.936-6.978,9.066-7.638l3.499-0.014c3.256,0.51,6.045,2.276,7.834,4.858l0.718,1.034l0.676-1.058
	c1.383-2.18,3.458-3.902,5.847-4.85l2.732-0.676l-2.457-0.788c-3.261-1.734-5.17-4.933-5.17-8.426c0-2.522,0.976-4.9,2.751-6.692
	c1.781-1.789,4.145-2.773,6.662-2.773c4.617,0,8.617,3.453,9.302,8.031l0.013,2.691c-0.453,3.1-2.277,5.686-4.886,7.087
	l-2.697,0.886l2.637,0.611c2.113,0.823,3.856,2.108,5.189,3.766l0.682,0.844l0.641-0.873c1.085-1.481,2.514-2.749,4.128-3.662
	l1.146-0.645l-1.047-0.786c-2.252-1.689-3.76-4.257-4.139-7.046l-0.011-2.731c0.714-5.369,5.198-9.302,10.439-9.302
	c4.404,0,8.38,2.792,9.898,6.951l0.783,3.038l0.755-2.931c1.543-4.265,5.519-7.058,9.923-7.058c5.244,0,9.729,3.933,10.436,9.149
	l0.011,2.732c-0.39,2.938-1.898,5.508-4.148,7.198l-1.047,0.788l1.138,0.642c1.603,0.904,3.032,2.17,4.131,3.662l0.644,0.869
	l0.679-0.84c1.331-1.654,3.076-2.941,5.044-3.719l2.727-0.673l-2.457-0.788c-2.801-1.489-4.622-4.074-5.064-6.998l-0.014-2.694
	c0.707-4.748,4.707-8.2,9.318-8.2c2.517,0,4.881,0.984,6.659,2.771c1.775,1.786,2.751,4.164,2.751,6.695
	c0,3.493-1.906,6.691-4.974,8.344l-2.702,0.886l2.64,0.611c2.533,0.995,4.608,2.719,5.996,4.9l0.674,1.058l0.717-1.036
	c1.792-2.582,4.581-4.349,7.652-4.846l3.501-0.015c4.319,0.675,7.777,3.552,9.206,7.52l0.764,3.337l0.717-3.065
	c1.593-3.574,4.949-5.748,8.62-5.748c2.503,0,4.862,0.984,6.646,2.771c1.775,1.794,2.751,4.164,2.751,6.675
	c0,4.071-2.582,7.67-6.424,8.958l-2.757,0.543c-0.071,0.015-0.142,0.021-0.215,0.021c-0.074,0-0.145-0.009-0.216-0.021l-2.609-0.504
	c-2.612-0.862-4.644-2.703-5.724-5.083l-0.786-3.283l-0.725,3.212c-0.772,2.148-2.051,3.928-3.739,5.276l-0.927,0.736l0.99,0.648
	c1.472,0.968,2.721,2.192,3.714,3.644l0.619,0.904l0.709-0.832c1.491-1.767,3.458-3.021,5.68-3.626l2.833-0.461
	c0.12-0.017,0.24-0.017,0.36,0l2.713,0.435c4.938,1.342,8.399,5.767,8.535,10.793v0.619c-0.098,3.583-1.784,6.836-4.622,8.951
	l-0.993,0.739l1.039,0.665c2.154,1.383,3.831,3.353,4.849,5.691l0.651,1.489l0.832-1.392c1.78-2.979,4.905-4.758,8.36-4.758
	c2.607,0,5.056,1.02,6.899,2.874c1.838,1.849,2.85,4.309,2.85,6.926c0,4.69-3.319,8.737-7.892,9.615l-3.499,0.021
	c-2.923-0.542-5.293-2.208-6.719-4.589l-0.832-1.394l-0.651,1.492c-0.772,1.771-1.964,3.378-3.441,4.644l-0.791,0.676l0.807,0.645
	c1.434,1.145,2.599,2.547,3.469,4.169l0.625,1.175l0.788-1.072c1.59-2.156,3.905-3.606,6.517-4.082l3.534-0.02
	c5.162,0.919,8.759,5.252,8.759,10.321c0,4.432-2.792,8.398-6.945,9.872l-3.243,0.688c-0.158,0.033-0.311,0.033-0.469,0
	l-3.098-0.648c-2.116-0.742-3.812-2.005-5.056-3.698l-0.788-1.069l-0.625,1.172C225.752,140.104,224.768,141.356,223.571,142.428z
	 M135.022,55.502l1.138,0.641c1.401,0.788,2.631,1.816,3.656,3.058l0.641,0.769l0.643-0.771c1.025-1.238,2.256-2.267,3.657-3.054
	l1.134-0.642l-1.047-0.788c-1.655-1.246-2.898-2.923-3.6-4.851l-0.788-3.033l-0.75,2.926c-0.736,2.037-1.982,3.717-3.635,4.957
	L135.022,55.502z M210.384,93.995c-2.048,0-39.442,0-39.442,0l-29.731,51.313l-29.734-51.313c0,0-37.389,0-39.439,0
	c-2.053,0-2.931,1.767-0.883,4.42c2.056,2.662,70.057,110.887,70.057,110.887s68.004-108.226,70.057-110.887
	C213.317,95.762,212.439,93.995,210.384,93.995z M192.727,282.177c-0.374,0.376-0.452,0.802-0.452,1.09
	c0,0.856,0.692,1.556,1.543,1.556c0.537,0,0.881-0.278,1.146-0.507c0.265-0.307,0.4-0.66,0.4-1.049c0-0.425-0.169-0.816-0.455-1.09
	C194.316,281.593,193.27,281.626,192.727,282.177z M213.05,259.892c-0.447,0.459-0.693,1.06-0.693,1.691
	c0,1.325,1.075,2.404,2.397,2.404c0.644,0,1.265-0.263,1.693-0.703c0.452-0.453,0.701-1.06,0.701-1.701
	c0-0.645-0.249-1.249-0.707-1.707C215.545,258.992,214.035,258.948,213.05,259.892z M210.539,235.683
	c-1.129,1.13-1.748,2.635-1.748,4.228c0,3.305,2.675,5.994,5.964,5.994c1.601,0,3.098-0.622,4.218-1.757
	c1.126-1.13,1.746-2.635,1.746-4.237c0-1.599-0.619-3.099-1.743-4.228C216.721,233.408,212.805,233.397,210.539,235.683z
	 M19.982,193.546c-0.867,0.879-1.344,2.046-1.344,3.289s0.479,2.405,1.347,3.268c0.873,0.878,2.037,1.363,3.275,1.363
	c2.547,0,4.616-2.078,4.616-4.631c0-1.238-0.479-2.405-1.353-3.294C24.771,191.796,21.774,191.774,19.982,193.546z M277.141,173.766
	c-0.422,0.414-0.657,0.977-0.657,1.581c0,1.223,0.996,2.221,2.22,2.221c0.605,0,1.165-0.234,1.562-0.648
	c0.42-0.42,0.652-0.98,0.652-1.571c0-0.615-0.24-1.178-0.638-1.554C279.456,172.931,277.932,172.958,277.141,173.766z
	 M257.477,238.442c-0.404,0-0.78,0.163-1.034,0.431c-0.212,0.213-0.431,0.736-0.431,1.036c0,0.807,0.657,1.467,1.464,1.467
	c0.404,0,0.78-0.163,0.984-0.387c0.243-0.219,0.48-0.753,0.48-1.08c0-0.387-0.152-0.758-0.406-1.009
	C258.32,238.671,257.791,238.442,257.477,238.442z M277.135,130.812c-0.42,0.417-0.652,0.976-0.652,1.578
	c0,1.226,0.996,2.224,2.22,2.224c0.592,0,1.167-0.245,1.546-0.642c0.425-0.405,0.668-0.983,0.668-1.582
	c0-0.609-0.237-1.172-0.641-1.562C279.448,129.979,277.942,129.996,277.135,130.812z M277.122,152.179
	c-0.412,0.427-0.639,0.982-0.639,1.571c0,1.222,0.996,2.22,2.22,2.22c0.605,0,1.165-0.233,1.562-0.648
	c0.42-0.42,0.652-0.981,0.652-1.57c0-0.601-0.232-1.162-0.638-1.564C279.456,151.323,277.951,151.328,277.122,152.179z
	 M252.795,127.495c-1.306,1.301-2.023,3.041-2.023,4.895c0,3.815,3.09,6.922,6.889,6.922c1.849,0,3.58-0.726,4.867-2.031
	c1.301-1.298,2.018-3.035,2.018-4.891c0-1.858-0.717-3.597-2.012-4.889C259.926,124.872,255.391,124.877,252.795,127.495z
	 M277.561,195.826c-0.093,0.107-0.382,0.447-0.382,1.009c0,0.834,0.685,1.511,1.524,1.511c0.42,0,0.81-0.163,1.025-0.397
	c0.243-0.212,0.494-0.785,0.494-1.112c0-0.387-0.136-0.736-0.425-1.059C279.213,195.166,278.231,195.122,277.561,195.826z
	 M255.596,216.474c-0.532,0.558-0.824,1.276-0.824,2.035c0,1.604,1.295,2.906,2.888,2.906c0.782,0,1.51-0.311,2.034-0.851
	c0.553-0.547,0.856-1.271,0.856-2.057c0-0.764-0.3-1.489-0.837-2.035C258.649,215.361,256.708,215.356,255.596,216.474z
	 M254.388,193.546c-0.87,0.884-1.35,2.051-1.35,3.289c0,2.553,2.073,4.631,4.623,4.631c1.24,0,2.405-0.485,3.267-1.357
	c0.873-0.873,1.355-2.034,1.355-3.272c0-1.237-0.48-2.405-1.355-3.294C259.173,191.784,256.166,191.774,254.388,193.546z
	 M253.521,171.196c-1.102,1.106-1.707,2.58-1.707,4.149c0,3.24,2.623,5.874,5.847,5.874c1.565,0,3.035-0.609,4.137-1.718
	c1.102-1.106,1.709-2.585,1.709-4.156c0-1.569-0.608-3.049-1.709-4.149C259.577,168.96,255.746,168.96,253.521,171.196z
	 M252.79,148.847c-1.301,1.32-2.018,3.061-2.018,4.903c0,3.817,3.09,6.921,6.889,6.921c1.849,0,3.58-0.726,4.87-2.034
	c1.301-1.304,2.015-3.038,2.015-4.887s-0.714-3.589-2.021-4.909C259.898,146.231,255.416,146.237,252.79,148.847z M195.339,231.636
	l-3.346,0.027c-3.829,0.846-6.607,4.314-6.607,8.246c0,4.657,3.769,8.448,8.402,8.448c2.247,0,4.36-0.885,5.942-2.481
	c1.587-1.576,2.46-3.698,2.46-5.967C202.189,235.978,199.41,232.509,195.339,231.636z M42.398,237.526
	c-0.633,0.638-0.979,1.481-0.979,2.383c0,0.905,0.352,1.751,0.963,2.354c0.624,0.66,1.475,1.021,2.391,1.021
	c1.852,0,3.357-1.518,3.357-3.376c0-0.9-0.347-1.745-0.984-2.389C45.88,236.255,43.669,236.267,42.398,237.526z M39.977,213.846
	c-1.244,1.249-1.928,2.901-1.928,4.663c0,1.772,0.687,3.431,1.922,4.662c1.238,1.25,2.888,1.942,4.647,1.942
	c3.622,0,6.566-2.962,6.566-6.604c0-1.762-0.684-3.42-1.925-4.669C46.777,211.364,42.458,211.358,39.977,213.846z M44.618,188.333
	c-2.263,0-4.388,0.889-5.978,2.492c-1.592,1.592-2.47,3.729-2.47,6.01c0,2.274,0.878,4.406,2.468,5.994
	c1.584,1.604,3.708,2.486,5.98,2.486c4.559,0,8.265-3.588,8.44-8.208v-0.601C52.883,191.921,49.177,188.333,44.618,188.333z
	 M66.16,233.915c-1.584,0-3.082,0.628-4.221,1.768c-1.121,1.13-1.74,2.635-1.74,4.228c0,1.604,0.619,3.107,1.742,4.243
	c1.132,1.129,2.629,1.751,4.219,1.751c3.289,0,5.967-2.689,5.967-5.994c0-1.599-0.619-3.099-1.743-4.228
	C69.255,234.543,67.755,233.915,66.16,233.915z M64.461,259.887c-0.45,0.452-0.698,1.059-0.698,1.696s0.248,1.243,0.707,1.707
	c0.458,0.447,1.058,0.697,1.69,0.697c1.322,0,2.399-1.079,2.399-2.404c0-0.645-0.251-1.244-0.714-1.713
	C66.938,258.986,65.459,258.933,64.461,259.887z M19.121,171.196c-1.104,1.106-1.713,2.586-1.713,4.149
	c0,1.565,0.608,3.043,1.713,4.15c1.102,1.113,2.571,1.724,4.14,1.724c3.223,0,5.844-2.634,5.844-5.874
	c0-1.569-0.608-3.043-1.71-4.154C25.164,168.96,21.335,168.966,19.121,171.196z M23.261,146.821c-1.827,0-3.559,0.72-4.881,2.024
	c-1.295,1.32-2.01,3.061-2.01,4.903s0.714,3.577,2.012,4.881c1.298,1.314,3.032,2.04,4.879,2.04c3.796,0,6.885-3.104,6.885-6.921
	c0-1.844-0.714-3.583-2.021-4.914C26.808,147.541,25.082,146.821,23.261,146.821z M74.717,214.603
	c-1.088-2.395-3.122-4.231-5.729-5.089l-2.613-0.501c-0.142-0.032-0.289-0.032-0.431,0l-2.754,0.54
	c-3.845,1.292-6.427,4.888-6.427,8.955c0,2.524,0.979,4.897,2.751,6.664c1.765,1.8,4.123,2.787,6.646,2.787
	c3.668,0,7.027-2.171,8.554-5.53c0.043-0.099,0.074-0.195,0.09-0.3l0.526-3.447c0.019-0.113,0.019-0.233,0-0.349l-0.526-3.438
	C74.788,214.794,74.758,214.696,74.717,214.603z M18.385,127.495c-1.298,1.301-2.015,3.041-2.015,4.895
	c0,1.853,0.717,3.59,2.012,4.885c1.301,1.313,3.032,2.037,4.879,2.037c3.796,0,6.885-3.105,6.885-6.922
	c0-1.852-0.714-3.588-2.015-4.895C25.502,124.875,20.997,124.886,18.385,127.495z M43.849,260.476
	c-0.303,0.283-0.475,0.688-0.475,1.107c0,0.425,0.169,0.817,0.365,0.992c0.284,0.354,0.715,0.562,1.181,0.562
	c0.854,0,1.546-0.697,1.546-1.554c0-0.404-0.167-0.802-0.456-1.091C45.419,259.903,44.331,259.952,43.849,260.476z M168.274,257.312
	c-1.137,1.14-1.764,2.66-1.764,4.271c0,3.343,2.703,6.059,6.024,6.059c1.608,0,3.125-0.633,4.271-1.782
	c1.131-1.15,1.756-2.667,1.756-4.275c0-1.615-0.625-3.131-1.762-4.276C174.506,255.005,170.573,254.989,168.274,257.312z
	 M170.931,281.647c-0.428,0.431-0.663,1.009-0.663,1.618c0,1.249,1.018,2.265,2.267,2.265c0.616,0,1.188-0.234,1.598-0.648
	c0.437-0.426,0.677-0.998,0.677-1.615c0-0.604-0.232-1.178-0.682-1.641C173.259,280.796,171.819,280.774,170.931,281.647z
	 M149.094,281.211c-0.546,0.551-0.846,1.281-0.846,2.056c0,1.6,1.295,2.896,2.888,2.896c0.77,0,1.495-0.3,2.057-0.856
	c0.54-0.551,0.837-1.275,0.837-2.04c0-0.769-0.297-1.5-0.851-2.062C152.082,280.114,150.195,280.109,149.094,281.211z
	 M151.136,254.367c-1.928,0-3.733,0.753-5.085,2.116c-1.352,1.362-2.1,3.174-2.1,5.1c0,3.986,3.223,7.227,7.185,7.227
	c1.937,0,3.744-0.753,5.094-2.116c1.353-1.374,2.098-3.189,2.098-5.109c0-1.932-0.748-3.742-2.1-5.1
	C154.88,255.12,153.072,254.367,151.136,254.367z M104.121,257.307c-1.137,1.141-1.761,2.661-1.761,4.276
	c0,1.608,0.625,3.13,1.759,4.281c1.137,1.145,2.651,1.776,4.262,1.776c3.321,0,6.023-2.716,6.023-6.059
	c0-1.609-0.624-3.125-1.761-4.276C110.331,255,106.398,255.011,104.121,257.307z M129.776,254.367c-1.926,0-3.73,0.753-5.083,2.116
	c-1.355,1.356-2.103,3.168-2.103,5.1c0,1.92,0.744,3.735,2.1,5.109c1.355,1.363,3.16,2.115,5.086,2.115
	c3.962,0,7.188-3.238,7.188-7.226c0-1.932-0.747-3.747-2.102-5.1C133.515,255.12,131.707,254.367,129.776,254.367z M106.767,281.652
	c-0.423,0.431-0.654,1.004-0.654,1.613c0,0.617,0.24,1.189,0.648,1.589c0.42,0.436,0.996,0.676,1.62,0.676
	c1.252,0,2.271-1.016,2.271-2.264c0-0.61-0.234-1.188-0.676-1.637C109.109,280.785,107.645,280.78,106.767,281.652z M83.988,258.441
	c-0.831,0.845-1.29,1.958-1.29,3.142s0.458,2.296,1.29,3.141c0.832,0.853,1.947,1.314,3.139,1.314c2.443,0,4.432-2.001,4.432-4.455
	c0-1.179-0.458-2.297-1.293-3.146C88.616,256.772,85.677,256.739,83.988,258.441z M85.982,282.198
	c-0.278,0.294-0.425,0.665-0.425,1.067c0,0.365,0.12,0.704,0.357,1.005c0.06,0.069,0.133,0.142,0.207,0.2
	c0.114,0.089,0.458,0.351,0.977,0.351c0.854,0,1.546-0.698,1.546-1.556c0-0.42-0.169-0.816-0.437-1.067
	C87.651,281.62,86.669,281.538,85.982,282.198z M88.685,231.636l-3.354,0.027c-3.826,0.846-6.604,4.314-6.604,8.246
	c0,2.269,0.875,4.391,2.457,5.961c1.587,1.604,3.698,2.487,5.944,2.487c4.636,0,8.407-3.791,8.407-8.448
	C95.534,235.978,92.758,232.509,88.685,231.636z M386.293,182.698l-32.084-80.057h-14.688l46.771,113.903l46.625-113.903h-14.685
	L386.293,182.698L386.293,182.698z M460.678,210.808h-13.401V102.642h13.401V210.808L460.678,210.808z M584.436,156.291v4.31
	c0,29.689-20.821,52.51-50.91,52.51c-30.083,0-54.331-26.113-54.331-56.1c0-31.125,24.814-56.662,55.76-56.662
	c16.678,0,33.229,7.604,43.768,20.943l-9.401,9.04c-7.707-10.618-20.677-17.643-33.798-17.643
	c-24.102,0-42.922,19.649-42.922,43.897c0,22.666,18.538,44.188,41.776,44.188c16.694,0,34.659-14.496,35.228-32.135H541.79v-12.349
	H584.436L584.436,156.291z M602.052,97.485l80.711,85.07v-79.915h13.39v112.616l-80.694-85.067v80.617h-13.405L602.052,97.485
	L602.052,97.485z M718.07,102.642h57.751v12.346H731.48v30.269h43.054v12.333H731.48v40.883h44.341v12.336H718.07V102.642
	L718.07,102.642z M826.988,210.808h-13.399v-95.82H788.06v-12.346h64.447v12.346h-25.519V210.808L826.988,210.808z M900.517,210.808
	h-13.398v-95.82h-25.529v-12.346h64.453v12.346h-25.524L900.517,210.808L900.517,210.808z M942.255,102.642H1000v12.346h-44.345
	v30.269h43.058v12.333h-43.058v40.883H1000v12.336h-57.745V102.642L942.255,102.642z"/>
</svg>
