<?xml version="1.0" encoding="utf-8"?>
<!-- Generator: Adobe Illustrator 16.2.1, SVG Export Plug-In . SVG Version: 6.00 Build 0)  -->
<!DOCTYPE svg PUBLIC "-//W3C//DTD SVG 1.1//EN" "http://www.w3.org/Graphics/SVG/1.1/DTD/svg11.dtd">
<svg version="1.1" id="Layer_1" xmlns="http://www.w3.org/2000/svg" xmlns:xlink="http://www.w3.org/1999/xlink" x="0px" y="0px"
	 width="1000px" height="180.264px" viewBox="0 0 1000 180.264" enable-background="new 0 0 1000 180.264" xml:space="preserve">
<path d="M70.815,129.018L22.237,7.808H0l70.815,172.455L141.407,7.808h-22.233L70.815,129.018L70.815,129.018z M183.437,171.576
	h-20.292V7.807h20.292V171.576L183.437,171.576z M370.812,89.035v6.522c0,44.953-31.525,79.502-77.083,79.502
	c-45.547,0-82.26-39.536-82.26-84.936c0-47.125,37.572-85.79,84.423-85.79c25.25,0,50.312,11.512,66.267,31.708l-14.236,13.688
	c-11.669-16.076-31.304-26.713-51.172-26.713c-36.489,0-64.985,29.751-64.985,66.464c0,34.316,28.067,66.901,63.251,66.901
	c25.276,0,52.476-21.947,53.333-48.653h-42.11V89.035H370.812L370.812,89.035z M397.485,0l122.199,128.802V7.807h20.271v170.505
	L417.781,49.516v122.062h-20.296V0L397.485,0z M573.144,7.807h87.438v18.69h-67.133v45.829h65.185V91h-65.185v61.9h67.133v18.677
	h-87.438V7.807L573.144,7.807z M738.051,171.576h-20.287V26.498H679.11V7.807h97.577v18.69H738.05L738.051,171.576L738.051,171.576z
	 M849.377,171.576h-20.288V26.498h-38.651V7.807h97.587v18.69h-38.646L849.377,171.576L849.377,171.576z M912.57,7.807H1000v18.69
	h-67.141v45.829h65.189V91h-65.189v61.9H1000v18.677h-87.43V7.807L912.57,7.807z"/>
</svg>
