<?xml version="1.0" encoding="utf-8"?>
<!-- Generator: Adobe Illustrator 16.2.1, SVG Export Plug-In . SVG Version: 6.00 Build 0)  -->
<!DOCTYPE svg PUBLIC "-//W3C//DTD SVG 1.1//EN" "http://www.w3.org/Graphics/SVG/1.1/DTD/svg11.dtd">
<svg version="1.1" id="Layer_1" xmlns="http://www.w3.org/2000/svg" xmlns:xlink="http://www.w3.org/1999/xlink" x="0px" y="0px"
	 width="535.15px" height="545.143px" viewBox="0 0 535.15 545.143" enable-background="new 0 0 535.15 545.143"
	 xml:space="preserve">
<path d="M80.769,92.59c-1.2-1.21-1.866-2.816-1.866-4.525c0-1.714,0.667-3.325,1.866-4.54c2.377-2.411,6.659-2.425,9.054,0.005
	c1.2,1.209,1.864,2.82,1.864,4.535c0,3.544-2.867,6.421-6.395,6.421C83.584,94.487,81.973,93.811,80.769,92.59z M126.035,99.469
	c6.266,0,11.367-5.118,11.367-11.404c0-3.055-1.18-5.917-3.315-8.057c-4.269-4.323-11.769-4.353-16.087-0.011
	c-2.14,2.156-3.319,5.018-3.319,8.067c0,3.028,1.173,5.891,3.324,8.073C120.155,98.283,123.013,99.469,126.035,99.469z
	 M85.574,49.718c1.625,0,2.946-1.324,2.946-2.956c0-0.784-0.307-1.523-0.869-2.082c-1.104-1.106-3.183-1.009-4.119-0.038
	c-0.582,0.557-0.904,1.31-0.904,2.12c0,0.79,0.307,1.533,0.862,2.094C84.051,49.411,84.79,49.718,85.574,49.718z M84.998,141.396
	c6.898,0,12.507-5.643,12.507-12.577c0-3.366-1.302-6.52-3.661-8.878c-4.717-4.769-12.981-4.758-17.688-0.01
	c-2.368,2.374-3.672,5.527-3.672,8.888s1.304,6.514,3.667,8.878C78.51,140.081,81.651,141.396,84.998,141.396z M166.093,8.418
	c1.621,0,2.936-1.319,2.936-2.944c0-0.795-0.301-1.533-0.857-2.089c-1.092-1.09-3.019-1.127-4.198,0.043
	c-0.536,0.559-0.825,1.286-0.825,2.046c0,0.784,0.305,1.522,0.825,2.042C164.528,8.098,165.281,8.418,166.093,8.418z
	 M163.023,103.827h5.921c0.156,0,0.316-0.016,0.466-0.052c7.294-1.61,12.582-8.218,12.582-15.709c0-4.302-1.667-8.349-4.696-11.391
	c-6.051-6.063-16.54-6.089-22.644,0.004c-3.018,3.039-4.68,7.086-4.68,11.387C149.973,95.562,155.268,102.165,163.023,103.827z
	 M206.467,58.299c6.326,0,11.474-5.174,11.474-11.538c0-3.064-1.183-5.952-3.355-8.155c-2.182-2.177-5.064-3.376-8.119-3.376
	c-3.07,0-5.953,1.2-8.116,3.381c-2.166,2.177-3.354,5.07-3.354,8.15c0,3.091,1.188,5.984,3.345,8.146
	C200.498,57.095,203.379,58.299,206.467,58.299z M165.977,55.245c4.656,0,8.442-3.808,8.442-8.483c0-2.259-0.877-4.384-2.463-5.984
	c-3.147-3.205-8.735-3.247-11.953-0.005c-1.589,1.601-2.46,3.73-2.46,5.989c0,2.276,0.878,4.404,2.46,5.989
	C161.589,54.357,163.713,55.245,165.977,55.245z M126.035,51.348c2.519,0,4.572-2.057,4.572-4.587c0-1.205-0.473-2.353-1.339-3.247
	c-1.693-1.704-4.595-1.781-6.489,0.027c-0.841,0.877-1.308,2.021-1.308,3.22c0,1.222,0.472,2.37,1.345,3.252
	C123.688,50.877,124.83,51.348,126.035,51.348z M84.998,186.325c8.685,0,15.745-6.847,16.078-15.668v-1.132
	c-0.333-8.737-7.393-15.579-16.078-15.579c-4.297,0-8.344,1.678-11.387,4.733c-3.035,3.055-4.707,7.12-4.707,11.453
	c0,4.333,1.672,8.399,4.701,11.44C76.643,184.636,80.692,186.325,84.998,186.325z M1.273,331.013
	c-0.821,0.791-1.272,1.862-1.272,3.024c0,1.123,0.437,2.182,1.22,2.974c0.791,0.809,1.855,1.255,3.003,1.255
	c2.321,0,4.213-1.9,4.213-4.229c0-1.152-0.443-2.224-1.217-2.98C5.621,329.446,2.739,329.507,1.273,331.013z M1.258,249.186
	c-0.811,0.795-1.257,1.866-1.257,3.018c0,1.133,0.457,2.229,1.22,2.967c0.794,0.815,1.86,1.268,3.003,1.268
	c2.321,0,4.213-1.901,4.213-4.235c0-1.147-0.443-2.217-1.227-2.997C5.585,247.575,2.791,247.633,1.258,249.186z M1.227,289.893
	c-0.789,0.799-1.226,1.87-1.226,3.003c0,1.121,0.437,2.182,1.22,2.971c0.791,0.811,1.855,1.258,3.003,1.258
	c2.321,0,4.213-1.902,4.213-4.229c0-1.133-0.432-2.193-1.22-3.003C5.616,288.282,2.785,288.303,1.227,289.893z M44.655,90.839
	c1.538,0,2.785-1.247,2.785-2.774c0-0.597-0.427-1.621-0.858-2.032c-0.406-0.378-1.371-0.763-1.927-0.763
	c-0.578,0-1.569,0.399-1.98,0.806c-0.406,0.41-0.814,1.414-0.814,1.989c0,0.602,0.432,1.604,0.867,2.017
	C43.133,90.461,44.104,90.839,44.655,90.839z M1.237,208.06C0.441,208.859,0,209.924,0,211.051s0.437,2.187,1.227,2.993
	c0.793,0.8,1.86,1.241,2.997,1.241c2.322,0,4.214-1.901,4.214-4.233c0-1.127-0.433-2.181-1.227-2.992
	C5.6,206.465,2.817,206.479,1.237,208.06z M44.655,454.236c-0.604,0-1.615,0.435-2.026,0.872c-0.379,0.403-0.768,1.371-0.768,1.922
	c0,0.57,0.408,1.566,0.82,1.973c0.406,0.405,1.397,0.822,1.974,0.822c1.538,0,2.785-1.26,2.785-2.795
	c0-0.604-0.426-1.611-0.863-2.018C46.176,454.629,45.205,454.236,44.655,454.236z M2.136,372.956
	c-0.542,0.574-0.817,1.25-0.817,2.018c0,0.84,0.365,1.632,0.817,1.993c0.54,0.573,1.282,0.884,2.087,0.884
	c1.6,0,2.898-1.289,2.898-2.877c0-0.531-0.14-1.31-0.769-1.975C5.272,371.793,3.257,371.784,2.136,372.956z M44.312,134.345
	c3.028,0,5.495-2.478,5.495-5.527c0-1.475-0.565-2.862-1.62-3.922c-2.119-2.088-5.709-2.061-7.777,0.011
	c-1.04,1.044-1.616,2.437-1.616,3.911c0,1.459,0.573,2.848,1.611,3.902C41.444,133.77,42.831,134.345,44.312,134.345z
	 M44.312,178.974c4.852,0,8.793-3.969,8.793-8.842c0-2.363-0.914-4.582-2.576-6.259c-3.319-3.339-9.064-3.361-12.463,0.005
	c-1.652,1.662-2.561,3.886-2.561,6.254c0,2.363,0.908,4.583,2.577,6.26C39.761,178.054,41.973,178.974,44.312,178.974z
	 M44.312,222.247c6.139,0,11.132-5.023,11.132-11.195c0-2.985-1.159-5.796-3.257-7.911c-4.223-4.254-11.579-4.239-15.761,0
	c-2.104,2.115-3.263,4.926-3.263,7.911c0,2.988,1.159,5.797,3.257,7.901C38.519,221.077,41.318,222.247,44.312,222.247z
	 M4.223,173.042c1.6,0,2.898-1.303,2.898-2.909c0-0.78-0.302-1.511-0.847-2.062c-1.075-1.061-2.914-1.123-4.098,0
	c-0.556,0.55-0.858,1.282-0.858,2.062c0,0.785,0.328,1.548,0.817,2.006C2.69,172.719,3.429,173.042,4.223,173.042z M287.914,11.002
	c1.482,0,2.869-0.577,3.908-1.626c1.034-1.044,1.605-2.432,1.605-3.902c0-1.48-0.571-2.867-1.602-3.896
	c-2.079-2.109-5.776-2.082-7.781-0.026c-1.055,1.034-1.632,2.426-1.632,3.921C282.413,8.523,284.881,11.002,287.914,11.002z
	 M490.844,222.247c2.986,0,5.785-1.169,7.881-3.283c2.099-2.104,3.258-4.915,3.258-7.912c0-2.998-1.159-5.807-3.252-7.906
	c-4.203-4.244-11.558-4.239-15.772-0.005c-2.099,2.108-3.252,4.919-3.252,7.911C479.706,217.224,484.703,222.247,490.844,222.247z
	 M449.572,49.718c0.757,0,1.479-0.295,2.119-0.904c0.529-0.555,0.826-1.287,0.826-2.053c0-0.784-0.307-1.522-0.863-2.082
	c-1.122-1.113-3.183-1.029-4.112-0.037c-0.584,0.556-0.904,1.31-0.904,2.12C446.638,48.394,447.95,49.718,449.572,49.718z
	 M449.852,94.487c1.703,0,3.309-0.671,4.521-1.886c1.209-1.216,1.873-2.821,1.873-4.535c0-1.72-0.666-3.33-1.87-4.534
	c-2.399-2.432-6.649-2.432-9.05,0c-1.205,1.22-1.863,2.826-1.863,4.534C443.462,91.608,446.33,94.487,449.852,94.487z
	 M450.152,186.325c4.301,0,8.345-1.689,11.393-4.752c3.037-3.061,4.712-7.123,4.712-11.44s-1.675-8.379-4.717-11.459
	c-3.056-3.049-7.095-4.727-11.388-4.727c-8.695,0-15.755,6.846-16.065,15.663v1.127
	C434.397,179.478,441.457,186.325,450.152,186.325z M450.152,141.396c3.341,0,6.488-1.315,8.849-3.694
	c2.361-2.373,3.661-5.527,3.661-8.882c0-3.356-1.3-6.509-3.657-8.878c-4.732-4.774-12.985-4.763-17.709,0
	c-2.357,2.374-3.656,5.527-3.656,8.878C437.64,135.753,443.254,141.396,450.152,141.396z M206.467,9.812
	c2.385,0,4.326-1.949,4.326-4.337c0-1.154-0.446-2.24-1.267-3.075c-1.637-1.626-4.509-1.626-6.136,0.021
	c-0.805,0.826-1.246,1.907-1.246,3.055c0,1.137,0.441,2.218,1.261,3.076C204.222,9.364,205.308,9.812,206.467,9.812z
	 M530.932,215.285c1.144,0,2.208-0.446,2.976-1.231c0.801-0.805,1.243-1.87,1.243-3.002c0-1.137-0.446-2.202-1.221-2.971
	c-1.585-1.621-4.428-1.605-6.004-0.01c-0.786,0.799-1.224,1.859-1.224,2.98C526.702,213.384,528.601,215.285,530.932,215.285z
	 M530.932,173.042c0.789,0,1.526-0.323,2.046-0.863c0.546-0.55,0.849-1.277,0.849-2.046c0-0.753-0.287-1.469-0.895-2.099
	c-1.08-1.024-2.804-1.143-4.133,0.125c-0.5,0.55-0.771,1.251-0.771,1.973C528.028,171.738,529.332,173.042,530.932,173.042z
	 M409.109,51.348c1.226,0,2.41-0.499,3.226-1.339c0.86-0.863,1.336-2.016,1.336-3.248c0-1.21-0.469-2.357-1.33-3.235
	c-1.683-1.705-4.654-1.793-6.494,0.026c-0.842,0.878-1.306,2.021-1.306,3.209C404.541,49.291,406.591,51.348,409.109,51.348z
	 M490.844,134.345c1.481,0,2.867-0.576,3.901-1.63c1.034-1.049,1.604-2.438,1.604-3.896c0-1.476-0.576-2.868-1.608-3.902
	c-2.08-2.103-5.67-2.129-7.814,0.012c-1.023,1.049-1.584,2.432-1.584,3.891C485.343,131.868,487.811,134.345,490.844,134.345z
	 M490.497,90.839c0.747,0,1.442-0.286,2.009-0.856c0.379-0.4,0.779-1.367,0.779-1.918c0-0.836-0.354-1.605-0.774-1.937
	c-0.409-0.438-1.411-0.858-2.014-0.858c-0.771,0-1.508,0.313-1.918,0.759c-0.437,0.41-0.873,1.433-0.873,2.036
	C487.706,89.593,488.957,90.839,490.497,90.839z M490.844,178.974c2.342,0,4.556-0.92,6.235-2.597
	c1.656-1.673,2.57-3.891,2.57-6.245c0-2.363-0.914-4.582-2.577-6.265c-3.341-3.33-9.092-3.34-12.463,0.011
	c-1.657,1.672-2.569,3.891-2.569,6.254C482.04,175.004,485.985,178.974,490.844,178.974z M40.4,412.365
	c-1.033,1.06-1.606,2.441-1.606,3.897c0,1.495,0.577,2.876,1.6,3.883c1.04,1.072,2.432,1.653,3.918,1.653
	c3.028,0,5.495-2.482,5.495-5.536c0-1.456-0.565-2.838-1.599-3.897C46.109,410.246,42.42,410.308,40.4,412.365z M409.109,99.469
	c3.044,0,5.9-1.186,8.041-3.341c2.14-2.167,3.319-5.03,3.319-8.062c0-3.055-1.18-5.917-3.314-8.057
	c-4.271-4.332-11.801-4.338-16.071-0.017c-2.15,2.146-3.335,5.015-3.335,8.074C397.749,94.351,402.844,99.469,409.109,99.469z
	 M247.225,11.002c3.039,0,5.512-2.479,5.512-5.528c0-1.501-0.582-2.893-1.6-3.886c-2.037-2.104-5.714-2.12-7.792-0.031
	c-1.049,1.04-1.626,2.43-1.626,3.917c0,1.476,0.577,2.867,1.615,3.912C244.378,10.425,245.758,11.002,247.225,11.002z
	 M328.679,58.299c3.08,0,5.964-1.2,8.124-3.382c2.168-2.176,3.355-5.076,3.355-8.156c0-3.076-1.188-5.968-3.355-8.15
	c-4.343-4.358-11.892-4.374-16.244,0.005c-2.167,2.183-3.354,5.076-3.354,8.146C317.204,53.125,322.352,58.299,328.679,58.299z
	 M247.225,60.534c7.547,0,13.692-6.177,13.692-13.772c0-3.682-1.423-7.132-4.004-9.713c-5.169-5.211-14.187-5.237-19.371-0.006
	c-2.583,2.596-4.006,6.046-4.006,9.719c0,3.674,1.418,7.127,4.006,9.74C240.144,59.099,243.583,60.534,247.225,60.534z
	 M287.914,60.534c3.664,0,7.102-1.435,9.699-4.042c2.582-2.602,4.002-6.056,4.002-9.729c0-3.673-1.423-7.123-4.002-9.713
	c-5.174-5.211-14.203-5.237-19.385-0.006c-2.576,2.602-4.001,6.051-4.001,9.719C274.228,54.357,280.366,60.534,287.914,60.534z
	 M328.679,9.812c1.137,0,2.218-0.442,3.089-1.293c0.801-0.831,1.244-1.911,1.244-3.044c0-1.143-0.443-2.229-1.278-3.08
	c-1.632-1.621-4.469-1.626-6.11,0.014c-0.814,0.826-1.263,1.912-1.263,3.066C324.36,7.863,326.299,9.812,328.679,9.812z
	 M369.168,55.245c2.269,0,4.395-0.888,5.973-2.482c1.595-1.601,2.472-3.73,2.472-6.001c0-2.259-0.877-4.384-2.472-5.994
	c-3.191-3.21-8.753-3.216-11.953,0.005c-1.591,1.601-2.463,3.73-2.463,5.989C360.725,51.437,364.513,55.245,369.168,55.245z
	 M369.059,8.418c0.815,0,1.567-0.322,2.045-0.826c0.577-0.545,0.904-1.319,0.904-2.119c0-0.79-0.307-1.527-0.862-2.088
	c-0.555-0.551-1.299-0.857-2.087-0.857c-0.812,0-1.56,0.316-2.074,0.857c-0.556,0.562-0.862,1.298-0.862,2.088
	C366.121,7.1,367.438,8.418,369.059,8.418z M366.214,103.827h5.909c0.154,0,0.315-0.016,0.467-0.052
	c7.287-1.61,12.581-8.218,12.581-15.709c0-4.306-1.662-8.349-4.68-11.397c-6.073-6.068-16.552-6.077-22.655,0.01
	c-3.012,3.039-4.675,7.081-4.675,11.387C353.161,95.556,358.456,102.165,366.214,103.827z M243.323,535.709
	c-1.034,1.059-1.605,2.441-1.605,3.916c0,1.455,0.571,2.838,1.631,3.918c1.049,1.029,2.426,1.6,3.875,1.6
	c3.039,0,5.512-2.471,5.512-5.518c0-1.484-0.577-2.875-1.617-3.914C249.074,533.633,245.495,533.59,243.323,535.709z
	 M445.321,452.499c-1.201,1.215-1.859,2.827-1.859,4.531c0,3.542,2.868,6.432,6.39,6.432c1.741,0,3.355-0.688,4.505-1.894
	c1.22-1.193,1.891-2.804,1.891-4.538c0-1.717-0.666-3.324-1.88-4.55C451.955,450.068,447.764,450.047,445.321,452.499z
	 M447.54,496.208c-0.575,0.54-0.902,1.31-0.902,2.111c0,1.629,1.312,2.958,2.935,2.958c0.86,0,1.667-0.375,2.075-0.883
	c0.563-0.56,0.87-1.298,0.87-2.075c0-0.771-0.317-1.529-0.863-2.079C450.518,495.127,448.491,495.201,447.54,496.208z
	 M450.152,358.776c-8.695,0-15.755,6.847-16.065,15.657v1.131c0.31,8.729,7.37,15.564,16.065,15.564
	c4.324,0,8.37-1.683,11.388-4.736c3.042-3.045,4.717-7.106,4.717-11.419c0-4.321-1.675-8.394-4.712-11.438
	C458.506,360.469,454.46,358.776,450.152,358.776z M414.491,399.127l-4.97-0.955c-0.273-0.062-0.553-0.062-0.824,0l-5.246,1.028
	c-4.689,1.558-8.562,5.06-10.627,9.619c-0.079,0.179-0.137,0.364-0.167,0.562l-1.013,6.546c-0.038,0.219-0.038,0.447,0,0.666
	l1.013,6.566c0.03,0.196,0.088,0.382,0.167,0.561c2.898,6.408,9.289,10.546,16.285,10.546c4.788,0,9.289-1.882,12.66-5.288
	c3.383-3.386,5.239-7.907,5.239-12.716C427.009,408.52,422.091,401.663,414.491,399.127z M441.291,407.377
	c-2.353,2.391-3.651,5.548-3.651,8.885c0,6.938,5.614,12.582,12.513,12.582c3.35,0,6.495-1.311,8.849-3.691
	c2.355-2.368,3.661-5.526,3.661-8.891c0-3.349-1.3-6.505-3.661-8.896C454.256,402.62,446.045,402.629,441.291,407.377z
	 M363.183,492.333c-1.586,1.608-2.458,3.729-2.458,5.985c0,4.675,3.788,8.486,8.443,8.486c2.274,0,4.398-0.881,5.983-2.504
	c1.59-1.609,2.461-3.74,2.461-5.982c0-2.246-0.871-4.377-2.471-6.007C371.961,489.132,366.382,489.114,363.183,492.333z
	 M425.906,271.327l-1.378,1.226l1.36,1.2c2.305,2.072,4.188,4.452,5.595,7.098l1.196,2.242l1.495-2.036
	c2.348-3.209,5.573-5.626,9.341-6.987l6.201-1.292c0.292-0.052,0.58-0.052,0.873,0l5.896,1.205
	c8.208,2.91,13.521,10.467,13.521,18.915c0,9.651-6.85,17.9-16.296,19.636l-6.732,0.032c-5.362-0.946-9.771-3.709-12.801-7.823
	l-1.506-2.047l-1.189,2.233c-0.495,0.76-3.912,5.786-6.607,7.939l-1.545,1.233l1.508,1.289c2.82,2.4,5.087,5.456,6.562,8.853
	l1.241,2.836l1.584-2.65c2.721-4.55,7.236-7.718,12.391-8.706l6.665-0.041c9.122,1.735,15.443,9.435,15.443,18.359
	c0,4.995-1.932,9.682-5.434,13.195c-3.521,3.532-8.188,5.475-13.139,5.475c-6.571,0-12.524-3.389-15.92-9.061L432.642,341
	l-1.241,2.847c-1.953,4.468-5.148,8.208-9.242,10.827l-1.979,1.267l1.901,1.423c5.407,4.03,8.614,10.222,8.802,16.985v1.164
	c-0.262,9.634-6.853,18.068-16.028,20.592l-5.406,0.852c-0.229,0.044-0.446,0.044-0.676,0l-5.167-0.811
	c-4.459-1.203-8.197-3.595-11.06-6.972l-1.353-1.587l-1.173,1.723c-1.891,2.764-4.27,5.102-7.07,6.951l-1.892,1.238l1.762,1.391
	c3.208,2.558,5.646,5.943,7.05,9.819l1.381,7.146c0.046,0.271,0.046,0.541,0,0.812l-1.289,6.833
	c-2.821,7.876-9.407,13.352-17.288,14.619l-6.664,0.03c-6.188-0.944-11.501-4.311-14.927-9.245l-1.358-1.975l-1.289,2.026
	c-2.649,4.144-6.603,7.419-11.133,9.227l-5.063,1.317l4.533,1.478c6.202,3.305,9.833,9.392,9.833,16.052
	c0,4.811-1.857,9.329-5.239,12.727c-3.371,3.417-7.876,5.301-12.687,5.301c-8.784,0-16.404-6.589-17.727-15.315l-0.025-5.1
	c0.868-5.902,4.344-10.838,9.309-13.507l4.91-1.623l-4.811-1.246c-3.993-1.568-7.313-4.01-9.857-7.147l-1.295-1.612l-1.222,1.675
	c-2.117,2.836-4.84,5.225-7.88,6.939l-2.165,1.227l2,1.506c4.283,3.211,7.157,8.104,7.88,13.435l0.021,5.193
	c-1.368,10.234-9.911,17.734-19.902,17.734c-8.385,0-15.951-5.329-18.842-13.256l-0.924-6.648c-0.026-0.189-0.026-0.375,0-0.562
	l0.816-6.19c1.443-4.125,3.812-7.314,6.962-9.707l2.003-1.504l-2.171-1.227c-2.654-1.495-4.996-3.448-6.961-5.796l-1.224-1.478
	l-1.227,1.478c-1.953,2.348-4.292,4.289-6.947,5.796l-2.182,1.237l2,1.493c3.15,2.382,5.523,5.571,6.863,9.239l0.916,6.658
	c0.026,0.188,0.026,0.375,0,0.562l-0.806,6.19c-3.008,8.396-10.587,13.714-18.967,13.714c-9.985,0-18.525-7.5-19.865-17.445
	l-0.02-5.192c0.741-5.62,3.62-10.524,7.91-13.727l1.996-1.496l-2.188-1.235c-3.054-1.725-5.776-4.123-7.86-6.931l-1.229-1.683
	l-1.3,1.601c-2.545,3.146-5.864,5.591-9.589,7.076l-5.065,1.317l4.53,1.478c5.33,2.813,8.8,7.75,9.643,13.34l0.025,5.1
	c-1.331,9.051-8.946,15.64-17.746,15.64c-4.811,0-9.314-1.884-12.691-5.301c-3.381-3.407-5.241-7.929-5.241-12.727
	c0-6.66,3.637-12.747,9.486-15.895l4.905-1.623l-4.811-1.246c-4.799-1.891-8.752-5.166-11.393-9.31l-1.292-2.026l-1.355,1.964
	c-3.423,4.945-8.737,8.312-14.591,9.227l-6.66,0.03c-8.208-1.299-14.795-6.762-17.537-14.316l-1.389-7.167
	c-0.046-0.271-0.046-0.541,0-0.812l1.293-6.816c1.498-4.207,3.933-7.604,7.138-10.15l1.768-1.391l-1.887-1.238
	c-2.811-1.849-5.19-4.188-7.069-6.962l-1.18-1.712l-1.347,1.587c-2.861,3.377-6.602,5.769-10.825,6.931l-5.413,0.852
	c-0.229,0.044-0.448,0.044-0.674,0l-5.17-0.811c-9.408-2.564-16-11-16.266-20.569v-1.165c0.189-6.826,3.399-13.018,8.817-17.061
	l1.886-1.41l-1.986-1.269c-4.088-2.618-7.277-6.369-9.226-10.825l-1.243-2.849l-1.589,2.649c-3.402,5.673-9.355,9.061-15.926,9.061
	c-4.962,0-9.622-1.941-13.138-5.486c-3.499-3.49-5.429-8.177-5.429-13.185c0-8.923,6.315-16.622,15.022-18.317l6.675-0.041
	c5.553,1.03,10.069,4.197,12.791,8.748l1.594,2.649l1.243-2.836c1.464-3.397,3.733-6.462,6.565-8.852l1.501-1.289l-1.554-1.246
	c-2.694-2.13-6.107-7.167-6.487-7.74l-1.304-2.42l-1.501,2.047c-3.029,4.114-7.445,6.877-12.427,7.792l-6.727,0.031
	c-9.828-1.766-16.675-10.016-16.675-19.667c0-8.447,5.315-16.005,13.216-18.831l6.197-1.288c0.289-0.053,0.582-0.053,0.872,0
	l5.901,1.205c4.063,1.442,7.295,3.857,9.648,7.087l1.49,2.024l1.193-2.243c1.389-2.625,3.269-5.008,5.586-7.081l1.376-1.215
	l-1.372-1.221c-2.306-2.057-4.188-4.447-5.59-7.096l-1.193-2.229l-1.497,2.036c-2.37,3.232-5.605,5.642-9.35,6.967l-6.182,1.313
	c-0.301,0.063-0.594,0.063-0.894,0l-5.901-1.236c-8.186-2.888-13.501-10.441-13.501-18.884c0-9.657,6.852-17.912,16.286-19.625
	l6.727-0.037c5.377,0.942,9.794,3.704,12.816,7.82l1.497,2.036l1.193-2.239c1.664-3.101,3.887-5.771,6.615-7.943l1.532-1.226
	l-1.508-1.283c-2.825-2.421-5.085-5.48-6.55-8.853l-1.242-2.848l-1.589,2.661c-2.722,4.536-7.236,7.709-12.385,8.701l-6.669,0.042
	c-9.117-1.714-15.439-9.417-15.439-18.358c0-4.997,1.931-9.688,5.433-13.193c3.491-3.527,8.161-5.475,13.133-5.475
	c6.581,0,12.534,3.386,15.927,9.064l1.589,2.654l1.242-2.841c1.927-4.457,5.116-8.208,9.22-10.842l1.986-1.272l-1.881-1.404
	c-5.417-4.031-8.629-10.229-8.816-16.996v-1.179c0.266-9.632,6.857-18.062,16.033-20.566l5.397-0.879
	c0.228-0.032,0.458-0.032,0.685,0l5.179,0.826c4.463,1.204,8.208,3.594,11.054,6.965l1.347,1.585l1.184-1.736
	c1.871-2.752,4.254-5.09,7.071-6.934l1.88-1.236l-1.762-1.391c-3.22-2.578-5.657-5.965-7.048-9.799l-1.46-6.369l-1.352,5.829
	c-2.197,4.945-6.072,8.451-10.767,10.02l-5.258,1.035c-0.135,0.025-0.272,0.041-0.41,0.041c-0.14,0-0.276-0.015-0.412-0.041
	l-4.965-0.961c-7.605-2.525-12.524-9.381-12.524-17.138c0-4.783,1.864-9.299,5.247-12.712c3.382-3.407,7.875-5.283,12.654-5.283
	c6.987,0,13.381,4.14,16.297,10.545l1.483,6.239l1.388-6.1c2.811-7.817,9.403-13.292,17.272-14.55l6.667-0.026
	c6.202,0.972,11.517,4.338,14.923,9.257l1.368,1.969l1.287-2.015c2.634-4.15,6.588-7.435,11.138-9.237l5.205-1.288l-4.68-1.501
	c-6.212-3.305-9.849-9.398-9.849-16.053c0-4.805,1.861-9.335,5.241-12.749c3.394-3.408,7.897-5.282,12.692-5.282
	c8.795,0,16.415,6.576,17.72,15.299l0.025,5.127c-0.863,5.906-4.338,10.832-9.31,13.5l-5.138,1.689l5.023,1.164
	c4.025,1.567,7.346,4.015,9.885,7.173l1.298,1.604l1.223-1.662c2.066-2.821,4.788-5.236,7.863-6.976l2.183-1.226l-1.994-1.497
	c-4.292-3.22-7.165-8.109-7.886-13.422l-0.021-5.206c1.36-10.228,9.901-17.72,19.886-17.72c8.39,0,15.963,5.319,18.855,13.242
	l1.493,5.786l1.438-5.583c2.939-8.125,10.515-13.445,18.902-13.445c9.991,0,18.535,7.492,19.883,17.428l0.02,5.206
	c-0.741,5.6-3.616,10.494-7.9,13.714l-1.996,1.501l2.168,1.222c3.056,1.724,5.776,4.134,7.869,6.976l1.228,1.657l1.293-1.6
	c2.533-3.153,5.857-5.605,9.608-7.085l5.196-1.283l-4.681-1.501c-5.335-2.836-8.806-7.76-9.648-13.33l-0.024-5.132
	c1.346-9.044,8.966-15.621,17.75-15.621c4.794,0,9.299,1.875,12.687,5.278c3.383,3.402,5.239,7.932,5.239,12.753
	c0,6.655-3.63,12.749-9.475,15.896l-5.146,1.689l5.029,1.163c4.825,1.896,8.778,5.179,11.422,9.335l1.283,2.016l1.366-1.974
	c3.414-4.918,8.727-8.285,14.577-9.231l6.67-0.026c8.228,1.284,14.815,6.764,17.538,14.323l1.453,6.358l1.365-5.839
	c3.035-6.811,9.429-10.95,16.422-10.95c4.768,0,9.263,1.875,12.66,5.278c3.383,3.417,5.239,7.934,5.239,12.717
	c0,7.756-4.917,14.612-12.235,17.064l-5.252,1.034c-0.136,0.025-0.273,0.041-0.412,0.041c-0.141,0-0.276-0.015-0.412-0.041
	l-4.97-0.961c-4.977-1.642-8.846-5.149-10.903-9.683l-1.495-6.255l-1.384,6.12c-1.468,4.092-3.907,7.48-7.121,10.051l-1.767,1.403
	l1.887,1.236c2.805,1.845,5.185,4.177,7.075,6.94l1.18,1.725l1.35-1.583c2.841-3.366,6.589-5.757,10.82-6.909l5.399-0.878
	c0.226-0.032,0.455-0.032,0.685,0l5.169,0.826c9.408,2.556,16,10.986,16.26,20.56v1.18c-0.188,6.826-3.399,13.022-8.805,17.054
	l-1.893,1.409l1.979,1.266c4.104,2.635,7.298,6.385,9.236,10.843l1.241,2.836l1.585-2.65c3.392-5.677,9.344-9.064,15.926-9.064
	c4.967,0,9.632,1.942,13.145,5.475c3.5,3.522,5.428,8.208,5.428,13.194c0,8.935-6.321,16.645-15.032,18.317l-6.668,0.042
	c-5.567-1.034-10.082-4.207-12.799-8.743l-1.584-2.655l-1.241,2.842c-1.47,3.376-3.741,6.436-6.556,8.847l-1.508,1.288l1.539,1.226
	c2.73,2.182,4.949,4.852,6.607,7.943l1.189,2.24l1.502-2.042c3.028-4.109,7.438-6.873,12.415-7.777l6.733-0.036
	c9.833,1.75,16.685,10.005,16.685,19.662c0,8.442-5.32,16.002-13.231,18.806l-6.177,1.314c-0.303,0.063-0.591,0.063-0.895,0
	l-5.9-1.236c-4.032-1.413-7.264-3.818-9.63-7.044l-1.502-2.036l-1.189,2.233C430.06,266.9,428.184,269.285,425.906,271.327z
	 M257.218,105.733l2.168,1.221c2.669,1.501,5.011,3.459,6.965,5.824l1.222,1.464l1.224-1.47c1.954-2.359,4.298-4.316,6.968-5.818
	l2.161-1.221l-1.995-1.501c-3.154-2.374-5.522-5.568-6.858-9.241l-1.499-5.778l-1.429,5.575c-1.403,3.88-3.777,7.082-6.926,9.444
	L257.218,105.733z M400.783,179.062c-3.901,0-75.139,0-75.139,0l-56.639,97.755l-56.645-97.755c0,0-71.225,0-75.13,0
	c-3.913,0-5.585,3.367-1.683,8.421c3.917,5.07,133.458,211.24,133.458,211.24s129.548-206.17,133.459-211.24
	C406.37,182.429,404.698,179.062,400.783,179.062z M367.145,537.549c-0.71,0.715-0.86,1.525-0.86,2.076
	c0,1.631,1.318,2.963,2.939,2.963c1.022,0,1.678-0.531,2.181-0.967c0.505-0.58,0.764-1.256,0.764-1.996
	c0-0.809-0.321-1.557-0.867-2.076C370.173,536.438,368.18,536.5,367.145,537.549z M405.861,495.095
	c-0.85,0.875-1.32,2.017-1.32,3.224c0,2.525,2.05,4.58,4.568,4.58c1.226,0,2.41-0.498,3.226-1.34c0.86-0.863,1.336-2.018,1.336-3.24
	c0-1.229-0.476-2.381-1.347-3.253C410.617,493.383,407.738,493.298,405.861,495.095z M401.079,448.978
	c-2.152,2.151-3.33,5.017-3.33,8.052c0,6.295,5.095,11.419,11.36,11.419c3.05,0,5.901-1.185,8.037-3.348
	c2.144-2.149,3.324-5.018,3.324-8.071c0-3.044-1.181-5.9-3.32-8.052C412.854,444.645,405.395,444.625,401.079,448.978z
	 M38.067,368.708c-1.652,1.673-2.561,3.896-2.561,6.266c0,2.368,0.914,4.583,2.566,6.222c1.664,1.675,3.881,2.6,6.24,2.6
	c4.852,0,8.793-3.959,8.793-8.821c0-2.36-0.913-4.582-2.576-6.275C47.189,365.373,41.48,365.333,38.067,368.708z M527.956,331.026
	c-0.806,0.788-1.254,1.859-1.254,3.012c0,2.328,1.898,4.229,4.229,4.229c1.152,0,2.219-0.446,2.976-1.236
	c0.801-0.799,1.243-1.869,1.243-2.992c0-1.175-0.458-2.243-1.216-2.961C532.365,329.435,529.461,329.487,527.956,331.026z
	 M490.497,454.236c-0.771,0-1.487,0.31-1.971,0.82c-0.404,0.404-0.82,1.401-0.82,1.974c0,1.535,1.251,2.795,2.791,2.795
	c0.767,0,1.484-0.311,1.874-0.74c0.463-0.416,0.914-1.433,0.914-2.055c0-0.737-0.291-1.444-0.774-1.922
	C492.102,454.67,491.094,454.236,490.497,454.236z M527.944,249.197c-0.799,0.794-1.242,1.859-1.242,3.006
	c0,2.333,1.898,4.235,4.229,4.235c1.127,0,2.223-0.467,2.946-1.221c0.809-0.773,1.272-1.875,1.272-3.014
	c0-1.163-0.452-2.232-1.221-2.976C532.35,247.613,529.482,247.645,527.944,249.197z M527.919,289.902
	c-0.785,0.812-1.217,1.873-1.217,2.994c0,2.326,1.898,4.229,4.229,4.229c1.152,0,2.219-0.447,2.976-1.237
	c0.801-0.8,1.243-1.871,1.243-2.991c0-1.146-0.442-2.214-1.216-2.982C532.365,288.273,529.499,288.282,527.919,289.902z
	 M481.575,242.88c-2.486,2.478-3.853,5.792-3.853,9.324c0,7.269,5.885,13.185,13.122,13.185c3.521,0,6.819-1.381,9.271-3.87
	c2.479-2.472,3.844-5.782,3.844-9.315c0-3.542-1.365-6.851-3.832-9.312C495.161,237.884,486.523,237.893,481.575,242.88z
	 M528.755,373.05c-0.177,0.207-0.727,0.852-0.727,1.923c0,1.588,1.304,2.877,2.903,2.877c0.8,0,1.543-0.311,1.953-0.76
	c0.463-0.402,0.941-1.495,0.941-2.12c0-0.734-0.262-1.401-0.81-2.015C531.905,371.793,530.032,371.71,528.755,373.05z
	 M486.911,412.385c-1.012,1.059-1.568,2.431-1.568,3.877c0,3.054,2.468,5.536,5.501,5.536c1.49,0,2.878-0.592,3.875-1.622
	c1.055-1.038,1.631-2.419,1.631-3.914c0-1.457-0.57-2.838-1.597-3.877C492.728,410.264,489.029,410.256,486.911,412.385z
	 M484.609,368.708c-1.657,1.684-2.569,3.905-2.569,6.266c0,4.862,3.945,8.821,8.804,8.821c2.362,0,4.581-0.925,6.223-2.587
	c1.664-1.664,2.582-3.876,2.582-6.234c0-2.36-0.914-4.582-2.582-6.275C493.728,365.35,487.998,365.333,484.609,368.708z
	 M482.958,326.131c-2.099,2.109-3.252,4.915-3.252,7.906c0,6.173,4.997,11.19,11.138,11.19c2.983,0,5.782-1.163,7.881-3.272
	s3.258-4.926,3.258-7.918c0-2.991-1.159-5.809-3.258-7.906C494.496,321.871,487.197,321.871,482.958,326.131z M481.566,283.554
	c-2.478,2.516-3.846,5.828-3.846,9.342c0,7.272,5.887,13.184,13.123,13.184c3.521,0,6.819-1.382,9.277-3.874
	c2.478-2.484,3.839-5.787,3.839-9.31c0-3.521-1.361-6.837-3.85-9.353C495.107,278.574,486.569,278.584,481.566,283.554z
	 M372.123,441.268l-6.376,0.053c-7.291,1.61-12.586,8.219-12.586,15.709c0,8.871,7.179,16.094,16.007,16.094
	c4.277,0,8.303-1.684,11.317-4.728c3.023-3.003,4.688-7.046,4.688-11.366C385.173,449.54,379.877,442.931,372.123,441.268z
	 M80.769,452.491c-1.205,1.215-1.866,2.822-1.866,4.539c0,1.724,0.67,3.335,1.834,4.486c1.189,1.258,2.81,1.943,4.556,1.943
	c3.528,0,6.395-2.889,6.395-6.43c0-1.717-0.66-3.326-1.875-4.552C87.401,450.068,83.189,450.09,80.769,452.491z M76.155,407.377
	c-2.368,2.381-3.671,5.528-3.671,8.885c0,3.375,1.308,6.532,3.661,8.88c2.358,2.382,5.501,3.702,8.854,3.702
	c6.898,0,12.507-5.645,12.507-12.582c0-3.356-1.302-6.517-3.667-8.896C89.111,402.65,80.883,402.64,76.155,407.377z M84.998,358.776
	c-4.312,0-8.358,1.693-11.387,4.748c-3.035,3.031-4.707,7.106-4.707,11.449c0,4.332,1.672,8.393,4.701,11.419
	c3.019,3.054,7.064,4.734,11.393,4.734c8.685,0,15.745-6.834,16.078-15.635v-1.144C100.742,365.61,93.683,358.776,84.998,358.776z
	 M126.035,445.61c-3.018,0-5.869,1.196-8.04,3.368c-2.136,2.151-3.315,5.017-3.315,8.052c0,3.055,1.179,5.921,3.319,8.083
	c2.156,2.151,5.008,3.336,8.036,3.336c6.266,0,11.367-5.124,11.367-11.419c0-3.043-1.18-5.9-3.32-8.052
	C131.931,446.806,129.075,445.61,126.035,445.61z M122.799,495.086c-0.856,0.861-1.328,2.015-1.328,3.232
	c0,1.215,0.472,2.369,1.345,3.251c0.873,0.852,2.014,1.328,3.22,1.328c2.519,0,4.572-2.055,4.572-4.579
	c0-1.229-0.479-2.372-1.36-3.264C127.517,493.373,124.7,493.27,122.799,495.086z M36.426,326.131
	c-2.104,2.109-3.263,4.926-3.263,7.906c0,2.981,1.159,5.796,3.263,7.906c2.099,2.122,4.898,3.284,7.886,3.284
	c6.139,0,11.132-5.018,11.132-11.19c0-2.991-1.159-5.797-3.257-7.916C47.938,321.871,40.644,321.883,36.426,326.131z
	 M44.312,279.697c-3.481,0-6.78,1.372-9.298,3.857c-2.469,2.516-3.829,5.828-3.829,9.342c0,3.51,1.36,6.813,3.833,9.297
	c2.472,2.505,5.776,3.887,9.294,3.887c7.231,0,13.117-5.911,13.117-13.184c0-3.512-1.362-6.826-3.851-9.361
	C51.071,281.069,47.782,279.697,44.312,279.697z M142.336,408.823c-2.072-4.562-5.947-8.064-10.914-9.694l-4.976-0.956
	c-0.272-0.062-0.55-0.062-0.822,0l-5.247,1.03c-7.324,2.46-12.242,9.31-12.242,17.06c0,4.809,1.863,9.33,5.24,12.694
	c3.362,3.43,7.854,5.311,12.66,5.311c6.987,0,13.387-4.136,16.297-10.535c0.082-0.189,0.139-0.374,0.171-0.572l1.002-6.566
	c0.036-0.219,0.036-0.446,0-0.665l-1.002-6.547C142.472,409.185,142.415,408.999,142.336,408.823z M35.023,242.88
	c-2.472,2.478-3.837,5.792-3.837,9.324c0,3.528,1.365,6.837,3.833,9.305c2.478,2.502,5.776,3.88,9.294,3.88
	c7.231,0,13.117-5.916,13.117-13.185c0-3.527-1.362-6.834-3.84-9.324C48.582,237.889,40,237.909,35.023,242.88z M83.532,496.208
	c-0.577,0.54-0.904,1.31-0.904,2.111c0,0.808,0.322,1.556,0.696,1.89c0.541,0.674,1.362,1.069,2.25,1.069
	c1.625,0,2.946-1.33,2.946-2.958c0-0.771-0.317-1.529-0.869-2.079C86.523,495.118,84.451,495.21,83.532,496.208z M320.563,490.182
	c-2.165,2.171-3.359,5.069-3.359,8.137c0,6.367,5.147,11.541,11.475,11.541c3.063,0,5.954-1.203,8.135-3.396
	c2.157-2.191,3.345-5.08,3.345-8.143c0-3.079-1.188-5.966-3.355-8.147C332.435,485.787,324.943,485.756,320.563,490.182z
	 M325.623,536.541c-0.814,0.82-1.263,1.92-1.263,3.084c0,2.379,1.938,4.312,4.318,4.312c1.173,0,2.265-0.447,3.044-1.236
	c0.831-0.811,1.289-1.9,1.289-3.076c0-1.154-0.443-2.244-1.3-3.127C330.06,534.92,327.316,534.879,325.623,536.541z
	 M284.023,535.709c-1.038,1.049-1.61,2.441-1.61,3.916c0,3.047,2.468,5.518,5.501,5.518c1.465,0,2.85-0.57,3.918-1.631
	c1.03-1.049,1.596-2.432,1.596-3.887c0-1.463-0.565-2.857-1.62-3.928C289.717,533.619,286.123,533.611,284.023,535.709z
	 M287.914,484.572c-3.672,0-7.108,1.435-9.688,4.032c-2.576,2.597-3.999,6.045-3.999,9.715c0,7.593,6.139,13.763,13.687,13.763
	c3.689,0,7.133-1.434,9.705-4.031c2.576-2.617,3.994-6.074,3.994-9.732c0-3.68-1.421-7.129-4-9.715
	C295.047,486.006,291.604,484.572,287.914,484.572z M198.351,490.172c-2.166,2.17-3.354,5.068-3.354,8.146
	c0,3.064,1.188,5.962,3.35,8.156c2.166,2.18,5.049,3.385,8.12,3.385c6.326,0,11.474-5.174,11.474-11.541
	c0-3.067-1.188-5.955-3.355-8.146C210.182,485.778,202.69,485.798,198.351,490.172z M247.225,484.572
	c-3.669,0-7.106,1.435-9.683,4.032c-2.583,2.586-4.006,6.035-4.006,9.715c0,3.658,1.418,7.115,4,9.732
	c2.583,2.598,6.02,4.031,9.689,4.031c7.547,0,13.692-6.17,13.692-13.763c0-3.68-1.423-7.139-4.004-9.715
	C254.347,486.006,250.902,484.572,247.225,484.572z M203.391,536.551c-0.805,0.818-1.246,1.91-1.246,3.074
	c0,1.176,0.458,2.266,1.235,3.025c0.8,0.83,1.897,1.287,3.086,1.287c2.385,0,4.328-1.934,4.328-4.312
	c0-1.164-0.447-2.264-1.289-3.115C207.854,534.898,205.063,534.889,203.391,536.551z M159.999,492.333
	c-1.583,1.608-2.456,3.729-2.456,5.985c0,2.255,0.872,4.373,2.456,5.982c1.584,1.623,3.709,2.504,5.979,2.504
	c4.656,0,8.442-3.811,8.442-8.485c0-2.246-0.872-4.376-2.463-5.997C168.814,489.155,163.214,489.091,159.999,492.333z
	 M163.796,537.59c-0.529,0.561-0.811,1.268-0.811,2.035c0,0.695,0.229,1.342,0.681,1.912c0.113,0.135,0.255,0.27,0.395,0.385
	c0.218,0.166,0.873,0.666,1.861,0.666c1.625,0,2.944-1.332,2.944-2.963c0-0.799-0.322-1.557-0.832-2.035
	C166.977,536.488,165.104,536.332,163.796,537.59z M168.945,441.268l-6.391,0.053c-7.287,1.61-12.581,8.219-12.581,15.709
	c0,4.321,1.667,8.363,4.68,11.355c3.023,3.055,7.045,4.738,11.323,4.738c8.832,0,16.016-7.223,16.016-16.094
	C181.993,449.54,176.706,442.931,168.945,441.268z"/>
</svg>
