<?xml version="1.0" encoding="utf-8"?>
<!-- Generator: Adobe Illustrator 16.2.1, SVG Export Plug-In . SVG Version: 6.00 Build 0)  -->
<!DOCTYPE svg PUBLIC "-//W3C//DTD SVG 1.1//EN" "http://www.w3.org/Graphics/SVG/1.1/DTD/svg11.dtd">
<svg version="1.1" id="Layer_1" xmlns="http://www.w3.org/2000/svg" xmlns:xlink="http://www.w3.org/1999/xlink" x="0px" y="0px"
	 width="1000px" height="142.402px" viewBox="0 0 1000 142.402" enable-background="new 0 0 1000 142.402" xml:space="preserve">
<path d="M436.366,23.593c3.393,0,6.803,0,10.214,0.02c-0.019,30.036,0,60.073,0,90.129c-3.411,0-6.821,0-10.214,0
	c0-3.271,0.019-6.538,0.071-9.806c-7.247,13.092-27.091,15.347-37.729,5.294c-6.43-5.95-8.722-15.012-8.952-23.501
	c-0.16-9.61,2.238-19.858,9.061-27c9.785-10.215,29.36-10.781,37.639,1.651C436.26,48.124,436.402,35.85,436.366,23.593
	 M411.996,61.393c-6.874,2.842-10.516,10.214-11.315,17.266c-1.084,8.312-0.178,18.118,6.556,23.979
	c6.874,6.251,18.579,4.902,24.315-2.221c5.916-7.104,5.101-17.089,4.53-25.703C435.141,63.613,421.89,56.596,411.996,61.393z
	 M748.105,23.593c3.394,0,6.803,0,10.214,0c-0.106,12.86,0.229,25.738-0.214,38.6c6.395-9.947,19.911-14.067,30.604-8.792
	c7.567,3.411,10.055,12.434,10.354,20.054c0.283,13.429,0.019,26.858,0.105,40.287c-3.41,0-6.82,0-10.213,0
	c-0.071-12.188,0.105-24.371-0.053-36.558c-0.232-6.109-1.954-13.5-8.189-16.128c-10.09-4.478-21.333,4.315-22.186,14.618
	c-0.552,12.686-0.036,25.385-0.215,38.066c-3.41,0-6.819,0-10.214,0C748.088,83.685,748.105,53.647,748.105,23.593L748.105,23.593z
	 M303.837,27.874c3.446-3.038,9.752-1.404,10.871,3.145c2.149,5.115-4.458,10.604-9.184,7.939
	C301.066,37.36,300.499,30.84,303.837,27.874z M184.187,28.424c3.89,0.036,7.797,0.089,11.688,0.18
	c6.164,24.104,13.837,47.801,19.468,72.026c6.022-24.263,13.802-48.083,20.499-72.188c3.393,0.036,6.803,0.054,10.214,0.088
	c6.199,24.069,13.713,47.819,19.237,72.029c5.897-24.142,12.683-48.067,18.989-72.102c3.784,0.02,7.566,0.02,11.35,0.02
	c-8.011,28.438-16.057,56.858-24.175,85.262c-4.085,0-8.154,0-12.221,0c-6.182-22.95-13.464-45.633-18.953-68.761
	c-5.312,23.163-12.719,45.847-19.006,68.776c-4.015-0.018-8.029-0.018-12.043,0.019C200.849,85.338,192.518,56.881,184.187,28.424z
	 M685.492,28.479c13.18,0.834,27.158-2.291,39.682,2.966c16.751,7.622,17.373,33.838,2.896,44.07
	c-9.062,7.104-21.086,6.377-31.921,6.253c0,10.656,0,21.313,0,31.974c-3.57,0-7.105,0-10.657,0
	C685.492,85.319,685.492,56.899,685.492,28.479 M696.149,37.822c0.019,11.546-0.02,23.092,0.019,34.654
	c8.952-0.214,19.628,1.139,26.662-5.7c6.217-6.661,6.217-18.974-0.889-24.993C714.498,36.417,704.746,38.07,696.149,37.822
	L696.149,37.822z M337.676,62.191c5.472-8.366,15.792-13.074,25.65-10.462c9.414,1.546,14.867,11.102,15.187,20.001
	c0.355,13.997-0.018,27.995,0.145,41.991c-3.411,0-6.821,0.019-10.232,0.019c-0.105-12.683,0.179-25.366-0.089-38.03
	c-0.16-6.431-3.23-14.033-10.249-15.347c-9.947-2.719-19.646,6.288-20.072,16.021c-0.586,12.437-0.034,24.904-0.25,37.356
	c-3.392,0-6.784,0-10.193,0c-0.02-20.286,0-40.554,0-60.838c3.409,0,6.819,0,10.249,0C337.782,55.993,337.729,59.102,337.676,62.191
	z M477.861,52.849c9.876-2.948,21.688-2.521,30.071,4.015c12.188,9.981,13.146,28.723,7.428,42.401
	c-8.849,20.338-41.78,21.937-52.74,2.806C453.223,85.62,457.948,58.888,477.861,52.849 M481.2,61.233
	c-12.86,4.901-14.727,21.812-10.729,33.269c3.908,11.777,19.896,15.649,29.664,8.847c7.409-5.647,8.864-15.95,7.816-24.638
	c-0.604-6.412-3.517-12.983-9.219-16.376C493.421,59.456,486.849,59.261,481.2,61.233z M616.979,56.721
	c7.959-7.212,20.003-6.57,29.452-2.931c-0.019,3.481,0,6.962,0.055,10.462c-6.199-3.48-14.229-6.342-20.927-2.521
	c-5.148,2.79-4.885,11.402,0.429,13.873c5.984,3.642,13.106,5.327,18.4,10.104c7.567,6.786,5.985,20.748-2.789,25.829
	c-9.077,5.577-20.747,4.652-30.215,0.532c-0.035-3.768-0.071-7.532-0.142-11.297c6.447,4.601,14.885,7.727,22.684,4.775
	c4.99-1.58,6.447-8.738,2.824-12.381c-6.005-5.134-14.265-6.555-20.25-11.724C609.236,75.354,609.697,62.636,616.979,56.721
	L616.979,56.721z M829.585,53.062c9.875-3.146,21.741-2.753,30.286,3.642c12.326,9.876,13.374,28.705,7.689,42.437
	c-8.758,20.622-42.026,22.062-52.935,2.72C805.604,85.532,810.062,59.331,829.585,53.062 M831.539,62.05
	c-12.452,6.945-13.5,25.384-6.716,36.626c7.354,11.244,27.373,10.729,32.95-1.987c4.19-10.231,4.015-23.856-4.051-32.168
	C847.896,59.012,838.537,58.835,831.539,62.05z M893.654,61.996c6.606-11.03,22.809-14.388,33.146-6.696
	c6.324,5.188,7.604,13.908,7.779,21.602c0.125,12.271-0.018,24.547,0.055,36.819c-3.43,0-6.839,0.021-10.23,0.021
	c-0.18-12.561,0.338-25.135-0.248-37.693c-0.304-6.377-3.002-14.085-10.002-15.596c-10.214-2.967-20.373,6.395-20.339,16.52
	c-0.179,12.238,0.019,24.495-0.054,36.752c-3.411,0.02-6.818,0.02-10.214,0.02c0-20.286,0-40.554,0-60.838c3.411,0,6.821,0,10.231,0
	C893.743,55.94,893.727,58.977,893.654,61.996L893.654,61.996z M952.734,62.191c8.524-12.291,28.312-15.044,39.292-4.582
	c7.479,7.247,8.26,18.349,7.902,28.152c-14.46,0.02-28.898-0.019-43.341,0c0.674,6.82,2.592,14.529,9.075,18.138
	c9.521,5.507,21.493,2.146,29.931-3.893c-0.123,3.358-0.192,6.733-0.301,10.108c-9.735,5.328-21.707,7.121-32.312,3.409
	c-7.104-2.521-12.311-8.793-14.584-15.846C944.635,86.03,945.575,72.388,952.734,62.191 M963.782,64.163
	c-4.016,3.268-5.473,8.384-7.019,13.074c10.928,0.178,21.832,0.07,32.758,0.07c-0.48-4.479-1.015-9.345-4.281-12.771
	C979.895,58.372,969.484,58.64,963.782,64.163z M303.145,52.902c3.393,0,6.786,0,10.196-0.02c0.036,20.286,0,40.57,0.02,60.856
	c-3.41,0-6.805,0-10.196,0C303.127,93.454,303.145,73.187,303.145,52.902z M521.807,52.955c3.57-0.035,7.178-0.053,10.767-0.071
	c4.459,16.59,9.573,33.021,13.34,49.772c4.796-16.646,10.196-33.111,15.099-49.719c3.161-0.035,6.322-0.055,9.503-0.071
	c4.425,17.123,10.285,33.927,13.571,51.3c3.286-17.337,9.041-34.141,13.34-51.264c3.395,0,6.805,0,10.231,0
	c-6.184,20.25-12.167,40.568-18.352,60.817c-3.553,0.021-7.087,0.021-10.622,0.055c-4.422-15.861-9.468-31.545-13.465-47.518
	c-4.562,15.898-9.856,31.604-14.617,47.463c-3.465,0-6.908,0.021-10.354,0.036C534.1,93.49,527.971,73.205,521.807,52.955
	L521.807,52.955z M0,20.163l58.017-7.9l0.025,55.962L0.054,68.553L0,20.163z M57.989,74.672l0.045,56.012l-57.988-7.975
	L0.043,74.296L57.989,74.672z M65.022,11.229L141.946,0v67.51l-76.924,0.611V11.229z M141.964,75.197l-0.018,67.205l-76.924-10.856
	l-0.107-56.474L141.964,75.197z"/>
</svg>
