<?xml version="1.0" encoding="utf-8"?>
<!-- Generator: Adobe Illustrator 16.2.1, SVG Export Plug-In . SVG Version: 6.00 Build 0)  -->
<!DOCTYPE svg PUBLIC "-//W3C//DTD SVG 1.1//EN" "http://www.w3.org/Graphics/SVG/1.1/DTD/svg11.dtd">
<svg version="1.1" id="Layer_1" xmlns="http://www.w3.org/2000/svg" xmlns:xlink="http://www.w3.org/1999/xlink" x="0px" y="0px"
	 width="1000px" height="129.539px" viewBox="0 0 1000 129.539" enable-background="new 0 0 1000 129.539" xml:space="preserve">
<path d="M450.206,28.791h-51.527v5.466c16.116,0,18.706,3.454,18.706,23.893v36.849c0,20.438-2.587,24.182-18.706,24.182
	c-12.376-1.729-20.728-8.35-32.242-21.014l-13.239-14.394c17.846-3.17,27.344-14.393,27.344-27.062
	c0-15.83-13.526-27.919-38.86-27.919h-50.662v5.466c16.117,0,18.708,3.454,18.708,23.893v36.849
	c0,20.438-2.592,24.182-18.708,24.182v5.469H348.3v-5.469c-16.116,0-18.707-3.742-18.707-24.182V84.641h4.893l31.952,40.009h83.77
	c41.161,0,59.01-21.876,59.01-48.074C509.216,50.377,491.369,28.791,450.206,28.791z M329.594,75.707v-38.28h11.799
	c12.951,0,18.714,8.924,18.714,19.286c0,10.078-5.763,18.997-18.714,18.997h-11.799V75.707z M451.069,115.722h-2.018
	c-10.358,0-11.801-2.588-11.801-15.83V37.426c0,0,12.667,0,13.817,0c29.936,0,35.403,21.875,35.403,38.859
	C486.474,93.844,481.005,115.722,451.069,115.722z M130.687,86.363l19.864-58.729c5.759-16.982,3.167-21.873-15.256-21.873V0.003
	h54.117v5.759c-18.134,0-22.452,4.314-29.648,25.329l-32.819,98.448h-3.74L93.839,39.438l-29.934,90.102h-3.742L28.211,31.092
	C21.303,10.077,16.697,5.762,0,5.762V0.003h63.905v5.759c-16.986,0-21.594,4.029-15.545,21.873l19.286,58.729L96.72,0.003h5.471
	L130.687,86.363z M228.555,128.387c-31.663,0-57.571-23.315-57.571-51.816c0-28.21,25.911-51.526,57.571-51.526
	c31.666,0,57.571,23.316,57.571,51.526C286.126,105.071,260.221,128.387,228.555,128.387z M228.555,33.972
	c-26.479,0-35.694,23.888-35.694,42.601c0,19.002,9.214,42.605,35.694,42.605c26.773,0,35.985-23.604,35.985-42.605
	C264.541,57.859,255.329,33.972,228.555,33.972z M580.312,118.889v5.758h-65.921v-5.758c19.288,0,22.742-4.894,22.742-33.684V39.15
	c0-28.79-3.454-33.392-22.742-33.392V0h59.587c29.647,0,46.061,15.257,46.061,35.697c0,19.863-16.412,35.407-46.061,35.407H557.57
	v14.099C557.57,113.996,561.024,118.889,580.312,118.889z M573.979,10.361H557.57v50.09h16.408
	c16.122,0,23.604-11.225,23.604-24.754C597.584,21.88,590.102,10.361,573.979,10.361z M817.793,97.589l-1.439,5.18
	c-2.59,9.499-5.76,12.953-26.197,12.953h-4.029c-14.968,0-17.558-3.454-17.558-23.891V78.592c22.453,0,24.182,2.012,24.182,16.981
	h5.468V52.68h-5.468c0,14.968-1.729,16.981-24.182,16.981V37.426h15.827c20.442,0,23.605,3.454,26.197,12.953l1.441,5.469h4.604
	l-2.013-27.059h-84.633v5.467c16.116,0,18.711,3.453,18.711,23.893v36.848c0,18.697-2.201,23.407-14.911,24.08
	c-12.077-1.847-20.37-8.435-31.719-20.912l-13.242-14.393c17.849-3.17,27.349-14.393,27.349-27.062
	c0-15.829-13.527-27.919-38.859-27.919H626.66v5.467c16.116,0,18.709,3.454,18.709,23.893v36.848
	c0,20.439-2.59,24.183-18.709,24.183v5.469h57.285v-5.469c-16.119,0-18.713-3.742-18.713-24.183V84.64h4.895l31.951,40.009h118.309
	l1.729-27.056h-4.322L817.793,97.589L817.793,97.589z M665.232,75.707v-38.28h11.798c12.956,0,18.716,8.924,18.716,19.286
	c0,10.078-5.76,18.997-18.716,18.997h-11.798V75.707z M876.229,128.387c-11.516,0-21.593-6.044-25.909-9.789
	c-1.439,1.44-4.029,5.76-4.604,9.789h-5.471V88.663H846c2.306,19,15.543,30.226,32.528,30.226c9.213,0,16.697-5.183,16.697-13.814
	c0-7.482-6.62-13.242-18.424-18.711l-16.407-7.771c-11.517-5.474-20.151-14.976-20.151-27.639c0-13.816,12.956-25.617,30.803-25.617
	c9.499,0,17.558,3.455,22.455,7.484c1.438-1.153,2.876-4.32,3.742-7.775h5.469v33.97h-6.046c-2.017-13.531-9.5-24.756-24.754-24.756
	c-8.062,0-15.548,4.604-15.548,11.805c0,7.483,6.046,11.512,19.864,17.844l15.827,7.772c13.82,6.621,19.286,17.274,19.286,25.911
	C911.343,115.722,895.511,128.387,876.229,128.387z M964.885,128.387c-11.517,0-21.594-6.044-25.906-9.789
	c-1.439,1.44-4.029,5.76-4.604,9.789h-5.471V88.663h5.758c2.303,19,15.543,30.226,32.526,30.226c9.212,0,16.696-5.183,16.696-13.814
	c0-7.482-6.618-13.242-18.424-18.711l-16.407-7.771c-11.515-5.474-20.151-14.976-20.151-27.639
	c0-13.816,12.952-25.617,30.803-25.617c9.499,0,17.558,3.455,22.453,7.484c1.438-1.153,2.878-4.32,3.736-7.775h5.475v33.97h-6.044
	c-2.018-13.531-9.5-24.756-24.754-24.756c-8.062,0-15.549,4.604-15.549,11.805c0,7.483,6.047,11.512,19.863,17.844l15.829,7.772
	C994.534,78.302,1000,88.955,1000,97.592C1000,115.722,984.168,128.387,964.885,128.387z"/>
</svg>
