<?xml version="1.0" encoding="utf-8"?>
<!-- Generator: Adobe Illustrator 16.2.1, SVG Export Plug-In . SVG Version: 6.00 Build 0)  -->
<!DOCTYPE svg PUBLIC "-//W3C//DTD SVG 1.1//EN" "http://www.w3.org/Graphics/SVG/1.1/DTD/svg11.dtd">
<svg version="1.1" id="Layer_1" xmlns="http://www.w3.org/2000/svg" xmlns:xlink="http://www.w3.org/1999/xlink" x="0px" y="0px"
	 width="542.002px" height="541.985px" viewBox="0 0 542.002 541.985" enable-background="new 0 0 542.002 541.985"
	 xml:space="preserve">
<path d="M38.52,270.984c0,92.021,53.475,171.542,131.021,209.227L58.646,176.375C45.747,205.287,38.52,237.285,38.52,270.984z
	 M427.933,259.255c0-28.731-10.32-48.629-19.172-64.115c-11.784-19.15-22.831-35.367-22.831-54.517
	c0-21.37,16.208-41.263,39.039-41.263c1.027,0,2.009,0.13,3.011,0.187c-41.357-37.89-96.461-61.027-156.983-61.027
	c-81.218,0-152.672,41.669-194.238,104.786c5.451,0.165,10.592,0.276,14.96,0.276c24.316,0,61.955-2.95,61.955-2.95
	c12.533-0.739,14.01,17.668,1.49,19.15c0,0-12.592,1.481-26.605,2.216l84.656,251.808l50.875-152.577l-36.218-99.24
	c-12.519-0.734-24.38-2.216-24.38-2.216c-12.528-0.734-11.059-19.888,1.469-19.15c0,0,38.395,2.95,61.233,2.95
	c24.312,0,61.96-2.95,61.96-2.95c12.54-0.738,14.013,17.669,1.49,19.15c0,0-12.622,1.482-26.611,2.216l84.013,249.902l23.188-77.484
	C420.281,302.251,427.933,279.156,427.933,259.255z M275.075,291.321L205.322,494c20.826,6.126,42.852,9.473,65.674,9.473
	c27.067,0,53.031-4.682,77.195-13.179c-0.62-0.993-1.188-2.052-1.653-3.2L275.075,291.321z M474.98,159.449
	c1.003,7.404,1.568,15.357,1.568,23.906c0,23.591-4.407,50.11-17.677,83.27l-71.011,205.31
	C456.975,431.63,503.46,356.753,503.46,270.988C503.465,230.571,493.141,192.565,474.98,159.449z M270.997,0
	C121.573,0,0,121.564,0,270.984c0,149.441,121.573,271.001,270.997,271.001c149.415,0,271.005-121.561,271.005-271.001
	C541.997,121.564,420.411,0,270.997,0z M270.997,529.562c-142.572,0-258.568-115.997-258.568-258.578
	c0-142.568,115.992-258.556,258.568-258.556c142.563,0,258.551,115.988,258.551,258.556
	C529.548,413.564,413.56,529.562,270.997,529.562z"/>
</svg>
