<?xml version="1.0" encoding="utf-8"?>
<!-- Generator: Adobe Illustrator 16.2.1, SVG Export Plug-In . SVG Version: 6.00 Build 0)  -->
<!DOCTYPE svg PUBLIC "-//W3C//DTD SVG 1.1//EN" "http://www.w3.org/Graphics/SVG/1.1/DTD/svg11.dtd">
<svg version="1.1" id="Layer_1" xmlns="http://www.w3.org/2000/svg" xmlns:xlink="http://www.w3.org/1999/xlink" x="0px" y="0px"
	 width="1000px" height="226.896px" viewBox="0 0 1000 226.896" enable-background="new 0 0 1000 226.896" xml:space="preserve">
<path d="M579.982,89.312h-39.364v4.175c12.312,0,14.29,2.639,14.29,18.253v28.15c0,15.613-1.978,18.474-14.29,18.474
	c-9.455-1.32-15.835-6.379-24.632-16.054l-10.114-10.996c13.634-2.421,20.89-10.995,20.89-20.674
	c0-12.094-10.334-21.329-29.688-21.329h-38.703v4.175c12.312,0,14.293,2.639,14.293,18.253v28.149
	c0,15.614-1.98,18.475-14.293,18.475v4.177h43.76v-4.177c-12.312,0-14.292-2.859-14.292-18.475v-7.913h3.737l24.41,30.563h63.996
	c31.444,0,45.08-16.712,45.08-36.726C625.062,105.802,611.43,89.312,579.982,89.312z M487.841,125.152V95.908h9.015
	c9.894,0,14.295,6.818,14.295,14.733c0,7.697-4.401,14.513-14.295,14.513h-9.015V125.152z M580.643,155.723h-1.541
	c-7.914,0-9.016-1.978-9.016-12.094V95.908c0,0,9.678,0,10.557,0c22.869,0,27.048,16.712,27.048,29.688
	C607.689,139.009,603.512,155.723,580.643,155.723z M335.885,133.294l15.174-44.865c4.4-12.975,2.421-16.711-11.653-16.711v-4.399
	h41.343v4.399c-13.854,0-17.152,3.298-22.65,19.352l-25.071,75.209h-2.857l-22.434-68.833l-22.868,68.833h-2.859l-24.41-75.209
	c-5.278-16.054-8.796-19.352-21.552-19.352v-4.399h48.821v4.399c-12.976,0-16.497,3.078-11.876,16.711l14.733,44.865l22.21-65.976
	h4.18L335.885,133.294z M410.652,165.397c-24.189,0-43.981-17.812-43.981-39.585c0-21.552,19.794-39.364,43.981-39.364
	c24.189,0,43.98,17.812,43.98,39.364C454.633,147.586,434.842,165.397,410.652,165.397z M410.652,93.27
	c-20.229,0-27.27,18.249-27.27,32.545c0,14.517,7.04,32.549,27.27,32.549c20.454,0,27.49-18.032,27.49-32.549
	C438.143,111.519,431.105,93.27,410.652,93.27z M679.378,158.143v4.396h-50.359v-4.396c14.735,0,17.374-3.738,17.374-25.732V97.227
	c0-21.995-2.639-25.511-17.374-25.511v-4.399h45.521c22.65,0,35.188,11.656,35.188,27.271c0,15.176-12.538,27.049-35.188,27.049
	h-12.534v10.771C662.005,154.404,664.643,158.143,679.378,158.143z M674.539,75.232h-12.534v38.267h12.534
	c12.317,0,18.033-8.576,18.033-18.911C692.572,84.032,686.856,75.232,674.539,75.232z M860.802,141.87l-1.1,3.957
	c-1.979,7.257-4.399,9.896-20.014,9.896h-3.078c-11.436,0-13.413-2.64-13.413-18.251v-10.114c17.151,0,18.473,1.537,18.473,12.974
	h4.178v-32.77h-4.178c0,11.436-1.32,12.974-18.473,12.974V95.908h12.091c15.618,0,18.034,2.639,20.015,9.896l1.102,4.178h3.518
	l-1.537-20.67H793.73v4.175c12.312,0,14.294,2.639,14.294,18.253v28.15c0,14.282-1.683,17.882-11.393,18.396
	c-9.227-1.411-15.562-6.443-24.23-15.976l-10.116-10.996c13.636-2.421,20.893-10.995,20.893-20.674
	c0-12.094-10.335-21.329-29.688-21.329h-38.702v4.175c12.312,0,14.292,2.639,14.292,18.253v28.15
	c0,15.613-1.979,18.474-14.292,18.474v4.177h43.763v-4.177c-12.313,0-14.296-2.859-14.296-18.474v-7.914h3.739l24.409,30.563h90.383
	l1.32-20.668L860.802,141.87L860.802,141.87L860.802,141.87z M744.253,125.152V95.908h9.013c9.898,0,14.299,6.818,14.299,14.733
	c0,7.697-4.399,14.513-14.299,14.513h-9.013V125.152z M905.443,165.397c-8.797,0-16.495-4.617-19.793-7.479
	c-1.101,1.103-3.078,4.399-3.519,7.479h-4.18v-30.347h4.397c1.763,14.516,11.874,23.092,24.851,23.092
	c7.039,0,12.757-3.959,12.757-10.556c0-5.716-5.059-10.115-14.075-14.294l-12.534-5.937c-8.798-4.183-15.396-11.44-15.396-21.114
	c0-10.556,9.896-19.571,23.531-19.571c7.258,0,13.414,2.641,17.154,5.719c1.099-0.882,2.197-3.301,2.859-5.941h4.178V112.4h-4.619
	c-1.541-10.337-7.257-18.913-18.911-18.913c-6.156,0-11.878,3.518-11.878,9.019c0,5.717,4.619,8.794,15.178,13.632l12.091,5.938
	c10.558,5.059,14.732,13.198,14.732,19.796C932.27,155.723,920.175,165.397,905.443,165.397z M973.174,165.397
	c-8.799,0-16.497-4.617-19.792-7.479c-1.1,1.103-3.078,4.399-3.518,7.479h-4.18v-30.347h4.397
	c1.76,14.516,11.874,23.092,24.851,23.092c7.036,0,12.755-3.959,12.755-10.556c0-5.716-5.057-10.115-14.074-14.294l-12.535-5.937
	c-8.796-4.183-15.396-11.44-15.396-21.114c0-10.556,9.896-19.571,23.531-19.571c7.257,0,13.413,2.641,17.153,5.719
	c1.1-0.882,2.199-3.301,2.854-5.941h4.182V112.4h-4.617c-1.54-10.337-7.257-18.913-18.91-18.913c-6.158,0-11.878,3.518-11.878,9.019
	c0,5.717,4.618,8.794,15.175,13.632l12.093,5.938c10.559,5.059,14.733,13.198,14.733,19.796
	C1000,155.723,987.905,165.397,973.174,165.397z M16.126,113.445c0,38.522,22.387,71.812,54.85,87.59L24.552,73.838
	C19.151,85.942,16.126,99.337,16.126,113.445z M179.148,108.534c0-12.028-4.32-20.358-8.026-26.841
	c-4.933-8.018-9.558-14.806-9.558-22.823c0-8.946,6.786-17.273,16.342-17.273c0.431,0,0.841,0.054,1.261,0.077
	c-17.315-15.861-40.383-25.548-65.72-25.548c-34.001,0-63.914,17.444-81.315,43.868c2.283,0.069,4.436,0.116,6.263,0.116
	c10.18,0,25.938-1.235,25.938-1.235c5.246-0.309,5.865,7.397,0.624,8.018c0,0-5.272,0.62-11.139,0.928L89.26,173.235l21.298-63.874
	L95.395,67.815c-5.241-0.308-10.206-0.928-10.206-0.928c-5.245-0.308-4.63-8.326,0.615-8.018c0,0,16.073,1.235,25.635,1.235
	c10.178,0,25.938-1.235,25.938-1.235c5.25-0.309,5.867,7.396,0.624,8.018c0,0-5.283,0.62-11.139,0.928l35.171,104.619l9.707-32.438
	C175.946,126.534,179.148,116.866,179.148,108.534z M115.156,121.959l-29.2,84.85c8.719,2.563,17.939,3.966,27.493,3.966
	c11.333,0,22.201-1.96,32.318-5.519c-0.261-0.416-0.499-0.857-0.693-1.34L115.156,121.959z M198.844,66.752
	c0.419,3.101,0.656,6.43,0.656,10.008c0,9.876-1.845,20.979-7.4,34.86l-29.727,85.95c28.933-16.873,48.394-48.219,48.394-84.124
	C210.769,96.526,206.446,80.615,198.844,66.752z M113.449,0C50.895,0,0,50.893,0,113.445c0,62.561,50.895,113.451,113.449,113.451
	c62.551,0,113.453-50.891,113.453-113.451C226.9,50.893,176,0,113.449,0z M113.449,221.694c-59.686,0-108.247-48.562-108.247-108.25
	c0-59.686,48.56-108.241,108.247-108.241c59.683,0,108.24,48.557,108.24,108.241C221.688,173.134,173.132,221.694,113.449,221.694z"
	/>
</svg>
