<?xml version="1.0" encoding="utf-8"?>
<!-- Generator: Adobe Illustrator 16.2.1, SVG Export Plug-In . SVG Version: 6.00 Build 0)  -->
<!DOCTYPE svg PUBLIC "-//W3C//DTD SVG 1.1//EN" "http://www.w3.org/Graphics/SVG/1.1/DTD/svg11.dtd">
<svg version="1.1" id="Layer_1" xmlns="http://www.w3.org/2000/svg" xmlns:xlink="http://www.w3.org/1999/xlink" x="0px" y="0px"
	 width="779px" height="288.767px" viewBox="0 0 779 288.767" enable-background="new 0 0 779 288.767" xml:space="preserve">
<path d="M0,0v288.767h779V0H0z M245.694,216.693l-27.184-43.142l-28.073,43.142h-56.146l57.483-76.969l-52.359-67.65H196.9
	l24.063,39.294l23.617-39.294h54.365l-51.022,68.056l56.814,76.564h-59.043V216.693z M499.377,216.693h-46.342v-92.766h-0.445
	l-27.628,92.766h-36.539l-27.629-92.766h-0.446v92.766h-46.344V72.075h69.739l22.725,85.069h0.447l22.725-85.069h69.736V216.693z
	 M644.709,216.693H525.287V72.075h49.017v107.552h70.406L644.709,216.693L644.709,216.693z"/>
</svg>
