<?xml version="1.0" encoding="utf-8"?>
<!-- Generator: Adobe Illustrator 16.2.1, SVG Export Plug-In . SVG Version: 6.00 Build 0)  -->
<!DOCTYPE svg PUBLIC "-//W3C//DTD SVG 1.1//EN" "http://www.w3.org/Graphics/SVG/1.1/DTD/svg11.dtd">
<svg version="1.1" id="Layer_1" xmlns="http://www.w3.org/2000/svg" xmlns:xlink="http://www.w3.org/1999/xlink" x="0px" y="0px"
	 width="552px" height="552px" viewBox="0 0 552 552" enable-background="new 0 0 552 552" xml:space="preserve">
<path d="M276,0C123.569,0,0,123.569,0,276c0,152.433,123.569,276,276,276c152.43,0,276-123.567,276-276C552,123.569,428.43,0,276,0z
	 M187.008,245.229C138.202,316.416,71.751,368.066,51.821,368.066c-16.033,0-22.911-31.015-28.381-61.741
	c-5.473-30.733,2.5-72.527,7.942-94.525c4.373-17.677,20.666-50.738,30.065-50.738c9.403,0,174.073,0,174.073,0
	S222.636,193.266,187.008,245.229z M495.581,390.168c-9.486,0-175.657,0-175.657,0s13.002-30.688,48.956-80.203
	c49.252-67.836,119.521-117.054,139.631-117.054c16.177,0,21.665,30.22,26.076,59.487c4.442,29.465-3.172,68.459-8.664,89.42
	C521.51,358.666,505.068,390.168,495.581,390.168z"/>
</svg>
