<?xml version="1.0" encoding="utf-8"?>
<!-- Generator: Adobe Illustrator 16.2.1, SVG Export Plug-In . SVG Version: 6.00 Build 0)  -->
<!DOCTYPE svg PUBLIC "-//W3C//DTD SVG 1.1//EN" "http://www.w3.org/Graphics/SVG/1.1/DTD/svg11.dtd">
<svg version="1.1" id="Layer_1" xmlns="http://www.w3.org/2000/svg" xmlns:xlink="http://www.w3.org/1999/xlink" x="0px" y="0px"
	 width="1000px" height="209.375px" viewBox="0 0 1000 209.375" enable-background="new 0 0 1000 209.375" xml:space="preserve">
<path d="M199.99,107.741c-3.556,0-7.111,0.022-10.666-0.017c-1.069-0.01-1.397,0.316-1.253,1.425
	c0.285,2.177,0.734,4.294,1.636,6.298c1.693,3.767,4.907,5.512,8.696,6.415c3.477,0.831,6.985,0.928,10.57,0.687
	c6.449-0.437,12.621-1.944,18.633-4.188c3.419-1.274,6.735-2.796,9.892-4.647c1.676-0.983,1.903-0.892,2.781,0.862
	c5.182,10.34,10.346,20.688,15.56,31.015c0.561,1.109,0.5,1.685-0.664,2.353c-9.977,5.73-20.279,10.714-31.427,13.746
	c-4.668,1.271-9.44,1.964-14.267,2.396c-4.351,0.388-8.7,0.62-13.057,0.463c-13.739-0.505-26.755-3.548-38.223-11.531
	c-10.404-7.244-17.379-17.046-21.084-29.154c-1.956-6.389-2.745-12.982-2.662-19.634c0.229-18.294,5.589-34.876,17.105-49.251
	c5.101-6.37,11.187-11.702,18.049-16.131c7.829-5.051,16.291-8.645,25.291-11.022c9.111-2.406,18.402-3.144,27.754-2.601
	c11.1,0.645,21.764,3.126,31.265,9.24c8.428,5.424,14.623,12.72,17.04,22.596c3.327,13.596-0.011,25.298-10.759,34.625
	c-6.506,5.647-14.143,9.091-22.294,11.525c-6.364,1.901-12.884,2.956-19.48,3.749C212.284,107.694,206.144,107.708,199.99,107.741z
	 M195.821,83.495c2.179-0.003,4.352-0.137,6.527-0.245c4.299-0.216,8.467-0.985,12.456-2.562c3.585-1.419,6.569-3.532,7.834-7.477
	c1.785-5.57-1.288-11.375-6.713-12.354c-6.108-1.104-11.496,0.531-15.949,4.812c-4.815,4.629-7.44,10.552-9.381,16.822
	c-0.247,0.797,0.077,1.021,0.818,1.01C192.882,83.478,194.353,83.494,195.821,83.495z M128.093,63.615l6.458-35.074H25.085
	l-6.451,37.054h47.339L5.42,129.356L0,161.488h113.201l6.609-37.379H70.523L128.093,63.615z M960.323,159.355
	c12.114-5.393,21.834-13.474,27.744-25.57c3.688-7.551,4.764-15.628,4.389-23.986c-0.573-12.814-6.165-22.601-17.188-29.211
	c-7.499-4.498-15.812-6.767-24.209-8.855c-4.475-1.114-9.009-2.117-13.242-4.002c-3.094-1.375-4.256-3.575-3.78-6.476
	c0.352-2.146,2.696-3.932,5.495-4.51c3.952-0.813,7.887-0.435,11.759,0.199c8.903,1.46,25.02,9.729,25.02,9.729L1000,34.004
	c0,0-17.54-10.752-27.193-13.31c-7.748-2.053-15.606-3.402-23.605-4.24c-7.178-0.75-14.257-0.473-21.328,0.428
	c-7.503,0.955-14.748,3.011-21.673,6.133c-10.686,4.818-19.159,12.081-24.719,22.481c-4.102,7.676-5.134,16.005-4.441,24.549
	c0.787,9.702,4.941,17.813,12.074,24.445c7.253,6.743,16.061,10.548,25.31,13.528c5.945,1.914,12.007,3.489,17.778,5.91
	c3.001,1.259,4.522,3.62,4.166,6.079c-0.336,2.308-2.751,4.315-5.735,4.771c-7.608,1.156-15.025,0.138-22.342-1.991
	c-7.736-2.252-22.619-9.286-22.619-9.286L861,145.612c0,0,8.695,7.261,12.414,9.12c16.247,8.117,33.561,11.499,52.645,11.729
	C937.217,166.232,949.094,164.354,960.323,159.355z M674.529,87.127c0.062,10.927-1.587,21.26-5.342,31.222
	c-5.852,15.533-16.026,27.414-30.365,35.731c-7.983,4.635-16.544,7.792-25.627,9.361c-8.515,1.471-17.082,1.974-25.734,1.054
	c-11.67-1.242-22.375-4.961-31.776-12.021c-10.767-8.087-17.521-18.887-20.84-31.884c-2.287-8.96-2.542-18.031-1.709-27.211
	c0.844-9.293,2.994-18.214,6.888-26.686c7.834-17.041,20.659-28.815,37.954-35.895c12.794-5.237,26.176-6.699,39.795-5.833
	c11.894,0.755,22.955,4.45,32.755,11.428c8.935,6.363,15.289,14.77,19.383,24.917c2.476,6.141,3.908,12.51,4.37,19.127
	C674.44,82.772,674.468,85.098,674.529,87.127z M586.367,104.617c-0.081,5.129,0.287,10.2,2.086,15.048
	c1.621,4.363,4.403,7.444,9.379,7.826c4.114,0.314,7.552-1.198,10.458-4.021c4.495-4.363,7.126-9.826,9.031-15.678
	c1.936-5.949,3.111-12.041,3.478-18.313c0.374-6.414,0.163-12.724-1.81-18.905c-2.955-9.269-12.062-10.483-18.146-5.942
	c-3.715,2.771-6.25,6.503-8.203,10.64C588.259,84.562,586.378,94.393,586.367,104.617z M688.349,113.87l-8.28,48.009h47.403
	l8.502-48.009H688.349L688.349,113.87z M324.875,148.661c-1.497,8.399-11.272,60.714-11.272,60.714H262.06l32.708-181.209
	l45.341-0.125l1.663,13.652c0,0,1.524-1.361,2.148-1.936c6.164-5.668,12.998-10.262,21.181-12.404
	c10.583-2.77,21.03-2.613,30.987,2.495c7.389,3.791,12.411,9.868,16.068,17.2c4.504,9.031,6.191,18.695,6.451,28.673
	c0.293,11.271-0.61,22.438-3.465,33.376c-3.645,13.971-9.478,26.827-19.732,37.305c-8.22,8.399-18.066,13.896-29.753,15.5
	c-14.889,2.042-28.3-1.253-39.338-12.043C325.978,149.525,325.583,149.245,324.875,148.661z M367.361,83.722
	c-0.44-3.309-0.731-6.645-1.357-9.915c-0.73-3.813-2.699-6.997-5.979-9.157c-4.12-2.712-8.307-2.072-12.311,0.298
	c-4.367,2.583-7.648,6.349-9.438,10.998c-1.263,3.275-8.502,45.275-8.102,45.54c5.664,3.733,12.146,5.438,18.651,2.778
	c4.519-1.847,7.577-5.46,10.088-9.486C364.83,105.295,366.85,94.761,367.361,83.722z M457.249,0l-5.045,28.144H434.32l-6.254,33.406
	h17.562c0,0-6.8,38.879-8.96,52.318c-1.026,6.387-1.783,12.815-0.744,19.337c1.359,8.539,5.27,15.596,11.854,21.122
	c7.272,6.104,15.954,8.628,25.234,9.021c13.871,0.586,27.253-1.821,39.905-7.663c4.076-1.882,12.021-6.255,12.021-6.255
	l-14.278-31.874c0,0-3.437,1.957-5.096,2.731c-3.942,1.842-8.002,3.173-12.452,2.28c-2.608-0.525-4.201-2.04-4.547-4.682
	c-0.229-1.75-0.379-3.596-0.088-5.317c1.259-7.479,2.722-14.922,4.057-22.387c1.581-8.84,5.105-28.692,5.105-28.692h34.304
	l6.012-33.474h-34.146L508.788,0H457.249L457.249,0z M751.89,147.555c10.676,13.747,25.827,18.47,43.343,18.99
	c7.4,0.219,14.724-0.665,21.835-2.837c8.886-2.712,16.5-7.406,22.491-14.605c5.821-6.994,9.526-15.066,11.72-23.8
	c1.532-6.109,2.607-12.339,3.774-18.536c1.513-8.022,15.371-86.715,15.371-86.715h-51.4c0,0-17.964,94.248-19.06,99.21
	c-1.173,5.316-9.464,5.122-11.938,3.235c-3.202-2.441-10.596-9.029-10.596-9.029l-32.574,24.205
	C744.856,137.673,750.056,145.193,751.89,147.555z"/>
</svg>
