<?xml version="1.0" encoding="utf-8"?>
<!-- Generator: Adobe Illustrator 16.2.1, SVG Export Plug-In . SVG Version: 6.00 Build 0)  -->
<!DOCTYPE svg PUBLIC "-//W3C//DTD SVG 1.1//EN" "http://www.w3.org/Graphics/SVG/1.1/DTD/svg11.dtd">
<svg version="1.1" id="Layer_1" xmlns="http://www.w3.org/2000/svg" xmlns:xlink="http://www.w3.org/1999/xlink" x="0px" y="0px"
	 width="886.229px" height="202.53px" viewBox="0 0 886.229 202.53" enable-background="new 0 0 886.229 202.53"
	 xml:space="preserve">
<path d="M128.832,137.059c-2.29,0-4.581,0.016-6.87-0.011c-0.689-0.007-0.9,0.204-0.808,0.917c0.184,1.402,0.474,2.767,1.054,4.058
	c1.091,2.425,3.161,3.55,5.602,4.133c2.24,0.535,4.5,0.597,6.809,0.441c4.155-0.28,8.131-1.253,12.003-2.698
	c2.203-0.821,4.339-1.801,6.372-2.995c1.08-0.634,1.226-0.572,1.791,0.557c3.338,6.661,6.666,13.327,10.023,19.979
	c0.362,0.717,0.322,1.086-0.427,1.516c-6.427,3.692-13.063,6.901-20.245,8.854c-3.007,0.818-6.082,1.267-9.19,1.544
	c-2.803,0.249-5.604,0.399-8.411,0.297c-8.851-0.324-17.235-2.284-24.623-7.428c-6.702-4.667-11.196-10.981-13.583-18.781
	c-1.259-4.115-1.768-8.364-1.715-12.647c0.148-11.784,3.6-22.466,11.02-31.727c3.286-4.102,7.207-7.538,11.627-10.392
	c5.042-3.254,10.494-5.568,16.292-7.1c5.869-1.55,11.854-2.026,17.879-1.675c7.15,0.415,14.02,2.013,20.14,5.953
	c5.429,3.494,9.42,8.194,10.977,14.555c2.143,8.759-0.007,16.297-6.93,22.306c-4.191,3.638-9.111,5.856-14.362,7.425
	c-4.1,1.225-8.301,1.903-12.549,2.415C136.752,137.028,132.796,137.038,128.832,137.059z M126.146,121.44
	c1.404-0.002,2.803-0.089,4.205-0.158c2.77-0.139,5.455-0.635,8.024-1.65c2.31-0.913,4.232-2.274,5.047-4.816
	c1.149-3.589-0.83-7.329-4.325-7.959c-3.935-0.711-7.406,0.343-10.274,3.1c-3.102,2.982-4.792,6.797-6.043,10.838
	c-0.159,0.513,0.05,0.657,0.527,0.649C124.253,121.428,125.2,121.439,126.146,121.44z M82.517,108.633l4.161-22.594H16.16
	l-4.156,23.869H42.5L3.492,150.983L0,171.682h72.923l4.257-24.079H45.432L82.517,108.633z M618.631,170.308
	c7.804-3.475,14.065-8.68,17.873-16.473c2.376-4.863,3.068-10.066,2.827-15.452c-0.369-8.254-3.972-14.56-11.072-18.817
	c-4.831-2.898-10.188-4.358-15.597-5.705c-2.882-0.718-5.803-1.364-8.531-2.578c-1.991-0.886-2.74-2.303-2.435-4.172
	c0.228-1.382,1.737-2.531,3.539-2.903c2.546-0.524,5.081-0.28,7.575,0.128c5.736,0.942,16.118,6.268,16.118,6.268l15.262-21.045
	c0,0-11.299-6.926-17.518-8.573c-4.991-1.322-10.054-2.193-15.207-2.731c-4.624-0.483-9.185-0.305-13.739,0.274
	c-4.833,0.616-9.501,1.939-13.961,3.951c-6.885,3.104-12.343,7.782-15.924,14.483c-2.642,4.944-3.307,10.309-2.862,15.813
	c0.507,6.25,3.184,11.475,7.778,15.748c4.671,4.344,10.346,6.795,16.303,8.714c3.83,1.234,7.736,2.248,11.453,3.808
	c1.935,0.811,2.914,2.333,2.684,3.916c-0.217,1.487-1.772,2.781-3.694,3.074c-4.902,0.745-9.681,0.088-14.393-1.283
	c-4.983-1.45-14.57-5.982-14.57-5.982l-15.895,20.687c0,0,5.602,4.677,7.997,5.874c10.466,5.229,21.619,7.408,33.913,7.555
	C603.746,174.738,611.397,173.528,618.631,170.308z M434.525,123.78c0.041,7.038-1.021,13.695-3.439,20.111
	c-3.77,10.007-10.324,17.661-19.562,23.02c-5.144,2.985-10.657,5.021-16.509,6.031c-5.483,0.947-11.004,1.271-16.578,0.678
	c-7.518-0.799-14.414-3.194-20.47-7.743c-6.936-5.209-11.289-12.167-13.424-20.539c-1.474-5.772-1.638-11.615-1.102-17.528
	c0.542-5.986,1.929-11.733,4.437-17.19c5.046-10.976,13.308-18.562,24.449-23.123c8.242-3.374,16.863-4.315,25.635-3.758
	c7.663,0.487,14.789,2.866,21.102,7.362c5.755,4.099,9.849,9.513,12.485,16.05c1.595,3.957,2.518,8.061,2.814,12.322
	C434.469,120.974,434.486,122.472,434.525,123.78z M377.732,135.046c-0.052,3.305,0.185,6.57,1.344,9.693
	c1.043,2.811,2.837,4.796,6.041,5.041c2.651,0.203,4.866-0.771,6.738-2.589c2.896-2.812,4.59-6.331,5.817-10.101
	c1.247-3.833,2.006-7.757,2.241-11.797c0.24-4.132,0.105-8.196-1.166-12.179c-1.904-5.971-7.771-6.754-11.689-3.829
	c-2.393,1.787-4.026,4.191-5.284,6.854C378.951,122.127,377.739,128.461,377.732,135.046z M443.427,141.007l-5.334,30.926h30.538
	l5.477-30.926H443.427z M209.282,163.418c-0.964,5.411-7.262,39.111-7.262,39.111h-33.204l21.07-116.732l29.208-0.081l1.071,8.795
	c0,0,0.982-0.877,1.384-1.248c3.971-3.652,8.373-6.61,13.645-7.991c6.817-1.785,13.547-1.683,19.961,1.606
	c4.76,2.442,7.995,6.357,10.351,11.081c2.901,5.818,3.989,12.043,4.155,18.47c0.189,7.261-0.394,14.455-2.231,21.501
	c-2.348,9-6.105,17.281-12.712,24.031c-5.295,5.41-11.638,8.951-19.167,9.984c-9.591,1.315-18.231-0.807-25.342-7.758
	C209.993,163.975,209.738,163.795,209.282,163.418z M236.651,121.586c-0.284-2.13-0.471-4.28-0.875-6.388
	c-0.47-2.455-1.739-4.507-3.851-5.897c-2.654-1.749-5.35-1.336-7.93,0.191c-2.813,1.665-4.928,4.09-6.08,7.085
	c-0.812,2.11-5.477,29.165-5.218,29.337c3.649,2.404,7.824,3.502,12.015,1.79c2.911-1.19,4.881-3.518,6.499-6.111
	C235.021,135.484,236.322,128.698,236.651,121.586z M294.556,67.654l-3.25,18.129h-11.52l-4.029,21.52h11.313
	c0,0-4.38,25.046-5.771,33.703c-0.661,4.114-1.148,8.255-0.479,12.457c0.876,5.501,3.395,10.046,7.637,13.606
	c4.686,3.933,10.277,5.559,16.256,5.812c8.936,0.378,17.556-1.173,25.707-4.937c2.625-1.212,7.744-4.029,7.744-4.029l-9.197-20.533
	c0,0-2.214,1.262-3.284,1.76c-2.54,1.186-5.155,2.045-8.021,1.469c-1.681-0.339-2.707-1.312-2.93-3.016
	c-0.148-1.127-0.243-2.314-0.056-3.424c0.812-4.819,1.753-9.614,2.614-14.423c1.018-5.694,3.29-18.481,3.29-18.481h22.097
	l3.873-21.564h-21.997l3.207-18.047h-33.203V67.654z M484.36,162.707c6.877,8.856,16.637,11.898,27.921,12.233
	c4.768,0.141,9.484-0.428,14.065-1.827c5.724-1.747,10.629-4.771,14.489-9.409c3.75-4.506,6.138-9.705,7.55-15.332
	c0.987-3.935,1.681-7.949,2.433-11.941c0.974-5.167,9.901-55.86,9.901-55.86h-33.112c0,0-11.571,60.712-12.277,63.91
	c-0.757,3.426-6.098,3.3-7.69,2.086c-2.063-1.573-6.824-5.817-6.824-5.817l-20.985,15.593
	C479.83,156.341,483.179,161.185,484.36,162.707z M784.965,0c-55.927,0-101.266,45.337-101.266,101.265
	S729.037,202.53,784.965,202.53c55.927,0,101.265-45.337,101.265-101.265C886.229,45.338,840.892,0,784.965,0z M752.314,89.975
	c-17.906,26.12-42.288,45.069-49.601,45.069c-5.883,0-8.405-11.379-10.413-22.654c-2.008-11.275,0.917-26.609,2.914-34.681
	c1.605-6.486,7.583-18.615,11.031-18.615c3.449,0,63.866,0,63.866,0S765.386,70.91,752.314,89.975z M865.53,143.153
	c-3.481,0-64.449,0-64.449,0s4.771-11.258,17.962-29.425c18.071-24.889,43.852-42.948,51.231-42.948
	c5.936,0,7.949,11.088,9.567,21.826c1.63,10.811-1.164,25.118-3.179,32.809C875.043,131.595,869.011,143.153,865.53,143.153z"/>
</svg>
