<?xml version="1.0" encoding="utf-8"?>
<!-- Generator: Adobe Illustrator 16.2.1, SVG Export Plug-In . SVG Version: 6.00 Build 0)  -->
<!DOCTYPE svg PUBLIC "-//W3C//DTD SVG 1.1//EN" "http://www.w3.org/Graphics/SVG/1.1/DTD/svg11.dtd">
<svg version="1.1" id="Layer_1" xmlns="http://www.w3.org/2000/svg" xmlns:xlink="http://www.w3.org/1999/xlink" x="0px" y="0px"
	 width="1000px" height="1000px" viewBox="0 0 1000 1000" enable-background="new 0 0 1000 1000" xml:space="preserve">
<path d="M145.768,196.523l64.474,723.157L499.564,1000l290.121-80.433l64.547-723.045L145.768,196.523L145.768,196.523z
	 M719.746,368.141l-4.041,44.962l-1.779,19.935h-0.279H500.002h-0.309H374.53l8.107,90.82h117.056h0.309h181.955h23.904
	l-2.168,23.819l-20.842,233.501l-1.334,14.98L500.002,846.47v0.013l-0.408,0.115L317.91,796.159l-12.425-139.256h41.037h47.997
	l6.315,70.734l98.776,26.672l0.084-0.021v-0.01l98.918-26.697l10.295-115.029H500.002h-0.309H301.524l-21.8-244.411l-2.124-23.795
	h222.093h0.309h221.867L719.746,368.141z M211.684,0h45.073v44.529h41.229V0h45.075v134.851h-45.074V89.695h-41.229v45.156h-45.071
	V0H211.684z M402.33,44.719h-39.677V0h124.454v44.719h-39.7v90.132h-45.074V44.719H402.33z M506.859,0h46.996l28.912,47.382
	L611.645,0h47.018v134.851h-44.887V68.011l-31.008,47.946h-0.779L550.961,68.01v66.839h-44.104V0H506.859z M681.096,0h45.086v90.278
	h63.383v44.572H681.098V0H681.096z"/>
</svg>
